# Blender 4.3.0
# www.blender.org
mtllib Teil_5.mtl
o Teil_5
v 0.000000 0.000000 6.000000
v 0.000000 -20.000000 6.000000
v 0.000000 0.000000 0.000000
v 0.000000 -20.000000 0.000000
v -40.000000 0.000000 6.000000
v -40.000000 0.000000 0.000000
v -40.000000 -20.000000 6.000000
v -40.000000 -20.000000 0.000000
v -2.036935 -4.530696 0.000000
v -2.146831 -4.072949 0.000000
v -4.072949 -2.146830 0.000000
v -4.530696 -2.036935 0.000000
v -2.326980 -3.638028 0.000000
v -2.572948 -3.236644 0.000000
v -2.878679 -2.878680 0.000000
v -2.326980 -16.361971 0.000000
v -2.146831 -15.927051 0.000000
v -3.236644 -2.572949 0.000000
v -3.638027 -2.326980 0.000000
v -15.927051 -2.146830 0.000000
v -16.361971 -2.326980 0.000000
v -16.763355 -2.572949 0.000000
v -17.121321 -2.878680 0.000000
v -2.036935 -15.469303 0.000000
v -2.000000 -15.000000 0.000000
v -2.000000 -5.000000 0.000000
v -5.000000 -1.999999 0.000000
v -15.000000 -1.999999 0.000000
v -15.469303 -2.036935 0.000000
v -17.121321 -17.121321 0.000000
v -16.763355 -17.427052 0.000000
v -16.361971 -17.673019 0.000000
v -15.927051 -17.853170 0.000000
v -4.530696 -17.963064 0.000000
v -4.072949 -17.853170 0.000000
v -3.638027 -17.673019 0.000000
v -3.236644 -17.427052 0.000000
v -2.878679 -17.121321 0.000000
v -2.572948 -16.763355 0.000000
v -15.469303 -17.963064 0.000000
v -15.000000 -18.000000 0.000000
v -5.000000 -18.000000 0.000000
v -17.963064 -15.469303 0.000000
v -17.853168 -15.927051 0.000000
v -17.427050 -3.236644 0.000000
v -17.673019 -3.638028 0.000000
v -17.853168 -4.072949 0.000000
v -17.673019 -16.361971 0.000000
v -17.427050 -16.763355 0.000000
v -17.963064 -4.530696 0.000000
v -18.000000 -5.000000 0.000000
v -18.000000 -15.000000 0.000000
v -18.000000 -5.000000 3.000000
v -17.963064 -4.530696 3.000000
v -17.853168 -4.072949 3.000000
v -17.673019 -3.638028 3.000000
v -17.427050 -3.236644 3.000000
v -17.121321 -2.878680 3.000000
v -16.763355 -2.572949 3.000000
v -16.361971 -2.326980 3.000000
v -15.927051 -2.146830 3.000000
v -15.469303 -2.036935 3.000000
v -15.000000 -1.999999 3.000000
v -18.000000 -15.000000 3.000000
v -15.000000 -18.000000 3.000000
v -15.469303 -17.963064 3.000000
v -15.927051 -17.853170 3.000000
v -16.361971 -17.673019 3.000000
v -16.763355 -17.427052 3.000000
v -17.121321 -17.121321 3.000000
v -17.427050 -16.763355 3.000000
v -17.673019 -16.361971 3.000000
v -17.853168 -15.927051 3.000000
v -17.963064 -15.469303 3.000000
v -5.000000 -18.000000 3.000000
v -2.000000 -15.000000 3.000000
v -2.036935 -15.469303 3.000000
v -2.146831 -15.927051 3.000000
v -2.326980 -16.361971 3.000000
v -2.572948 -16.763355 3.000000
v -2.878679 -17.121321 3.000000
v -3.236644 -17.427052 3.000000
v -3.638027 -17.673019 3.000000
v -4.072949 -17.853170 3.000000
v -4.530696 -17.963064 3.000000
v -2.000000 -5.000000 3.000000
v -5.000000 -1.999999 3.000000
v -4.530696 -2.036935 3.000000
v -4.072949 -2.146830 3.000000
v -3.638027 -2.326980 3.000000
v -3.236644 -2.572949 3.000000
v -2.878679 -2.878680 3.000000
v -2.572948 -3.236644 3.000000
v -2.326980 -3.638028 3.000000
v -2.146831 -4.072949 3.000000
v -2.036935 -4.530696 3.000000
vn 1.0000 -0.0000 -0.0000
vn -0.0000 1.0000 -0.0000
vn -1.0000 -0.0000 -0.0000
vn -0.0000 -1.0000 -0.0000
vn -0.0000 -0.0000 1.0000
vn -0.0000 -0.0000 -1.0000
vn 0.9969 -0.0785 -0.0000
vn 0.9724 -0.2334 -0.0000
vn 0.9239 -0.3827 -0.0000
vn 0.8526 -0.5225 -0.0000
vn 0.7604 -0.6494 -0.0000
vn 0.6494 -0.7604 -0.0000
vn 0.5225 -0.8526 -0.0000
vn 0.3827 -0.9239 -0.0000
vn 0.2334 -0.9724 -0.0000
vn 0.0785 -0.9969 -0.0000
vn 0.0785 0.9969 -0.0000
vn 0.2334 0.9724 -0.0000
vn 0.3827 0.9239 -0.0000
vn 0.5225 0.8526 -0.0000
vn 0.6494 0.7604 -0.0000
vn 0.7604 0.6494 -0.0000
vn 0.8526 0.5225 -0.0000
vn 0.9239 0.3827 -0.0000
vn 0.9724 0.2334 -0.0000
vn 0.9969 0.0785 -0.0000
vn -0.9969 0.0785 -0.0000
vn -0.9724 0.2334 -0.0000
vn -0.9239 0.3827 -0.0000
vn -0.8526 0.5225 -0.0000
vn -0.7604 0.6494 -0.0000
vn -0.6494 0.7604 -0.0000
vn -0.5225 0.8526 -0.0000
vn -0.3827 0.9239 -0.0000
vn -0.2334 0.9724 -0.0000
vn -0.0785 0.9969 -0.0000
vn -0.0785 -0.9969 -0.0000
vn -0.2334 -0.9724 -0.0000
vn -0.3827 -0.9239 -0.0000
vn -0.5225 -0.8526 -0.0000
vn -0.6494 -0.7604 -0.0000
vn -0.7604 -0.6494 -0.0000
vn -0.8526 -0.5225 -0.0000
vn -0.9239 -0.3827 -0.0000
vn -0.9724 -0.2334 -0.0000
vn -0.9969 -0.0785 -0.0000
s 0
f 1//1 2//1 3//1
f 3//1 2//1 4//1
f 5//2 1//2 6//2
f 6//2 1//2 3//2
f 7//3 5//3 8//3
f 8//3 5//3 6//3
f 2//4 7//4 4//4
f 4//4 7//4 8//4
f 5//5 7//5 1//5
f 1//5 7//5 2//5
f 9//6 10//6 3//6
f 11//6 12//6 3//6
f 10//6 13//6 3//6
f 3//6 13//6 14//6
f 3//6 14//6 15//6
f 4//6 16//6 17//6
f 15//6 18//6 3//6
f 3//6 18//6 19//6
f 3//6 19//6 11//6
f 20//6 21//6 6//6
f 6//6 21//6 22//6
f 6//6 22//6 23//6
f 17//6 24//6 4//6
f 4//6 24//6 25//6
f 4//6 25//6 3//6
f 3//6 25//6 26//6
f 3//6 26//6 9//6
f 12//6 27//6 3//6
f 3//6 27//6 28//6
f 3//6 28//6 6//6
f 6//6 28//6 29//6
f 6//6 29//6 20//6
f 30//6 31//6 8//6
f 8//6 31//6 32//6
f 8//6 32//6 33//6
f 34//6 35//6 4//6
f 4//6 35//6 36//6
f 4//6 36//6 37//6
f 37//6 38//6 4//6
f 4//6 38//6 39//6
f 4//6 39//6 16//6
f 33//6 40//6 8//6
f 8//6 40//6 41//6
f 8//6 41//6 4//6
f 4//6 41//6 42//6
f 4//6 42//6 34//6
f 8//6 43//6 44//6
f 23//6 45//6 6//6
f 6//6 45//6 46//6
f 6//6 46//6 47//6
f 44//6 48//6 8//6
f 8//6 48//6 49//6
f 8//6 49//6 30//6
f 47//6 50//6 6//6
f 6//6 50//6 51//6
f 6//6 51//6 8//6
f 8//6 51//6 52//6
f 8//6 52//6 43//6
f 53//7 51//7 54//7
f 54//7 51//7 50//7
f 54//8 50//8 55//8
f 55//8 50//8 47//8
f 55//9 47//9 56//9
f 56//9 47//9 46//9
f 56//10 46//10 57//10
f 57//10 46//10 45//10
f 57//11 45//11 58//11
f 58//11 45//11 23//11
f 58//12 23//12 59//12
f 59//12 23//12 22//12
f 59//13 22//13 60//13
f 60//13 22//13 21//13
f 60//14 21//14 61//14
f 61//14 21//14 20//14
f 61//15 20//15 62//15
f 62//15 20//15 29//15
f 62//16 29//16 63//16
f 63//16 29//16 28//16
f 53//1 64//1 51//1
f 51//1 64//1 52//1
f 65//17 41//17 66//17
f 66//17 41//17 40//17
f 66//18 40//18 67//18
f 67//18 40//18 33//18
f 67//19 33//19 68//19
f 68//19 33//19 32//19
f 68//20 32//20 69//20
f 69//20 32//20 31//20
f 69//21 31//21 70//21
f 70//21 31//21 30//21
f 70//22 30//22 71//22
f 71//22 30//22 49//22
f 71//23 49//23 72//23
f 72//23 49//23 48//23
f 72//24 48//24 73//24
f 73//24 48//24 44//24
f 73//25 44//25 74//25
f 74//25 44//25 43//25
f 74//26 43//26 64//26
f 64//26 43//26 52//26
f 65//2 75//2 41//2
f 41//2 75//2 42//2
f 76//27 25//27 77//27
f 77//27 25//27 24//27
f 77//28 24//28 78//28
f 78//28 24//28 17//28
f 78//29 17//29 79//29
f 79//29 17//29 16//29
f 79//30 16//30 80//30
f 80//30 16//30 39//30
f 80//31 39//31 81//31
f 81//31 39//31 38//31
f 81//32 38//32 82//32
f 82//32 38//32 37//32
f 82//33 37//33 83//33
f 83//33 37//33 36//33
f 83//34 36//34 84//34
f 84//34 36//34 35//34
f 84//35 35//35 85//35
f 85//35 35//35 34//35
f 85//36 34//36 75//36
f 75//36 34//36 42//36
f 76//3 86//3 25//3
f 25//3 86//3 26//3
f 87//37 27//37 88//37
f 88//37 27//37 12//37
f 88//38 12//38 89//38
f 89//38 12//38 11//38
f 89//39 11//39 90//39
f 90//39 11//39 19//39
f 90//40 19//40 91//40
f 91//40 19//40 18//40
f 91//41 18//41 92//41
f 92//41 18//41 15//41
f 92//42 15//42 93//42
f 93//42 15//42 14//42
f 93//43 14//43 94//43
f 94//43 14//43 13//43
f 94//44 13//44 95//44
f 95//44 13//44 10//44
f 95//45 10//45 96//45
f 96//45 10//45 9//45
f 96//46 9//46 86//46
f 86//46 9//46 26//46
f 87//4 63//4 27//4
f 27//4 63//4 28//4
f 53//6 87//6 64//6
f 64//6 87//6 75//6
f 64//6 75//6 65//6
f 95//6 96//6 87//6
f 87//6 96//6 86//6
f 87//6 86//6 75//6
f 75//6 86//6 76//6
f 75//6 76//6 85//6
f 87//6 91//6 92//6
f 65//6 66//6 64//6
f 64//6 66//6 67//6
f 64//6 67//6 68//6
f 88//6 89//6 87//6
f 87//6 89//6 90//6
f 87//6 90//6 91//6
f 92//6 93//6 87//6
f 87//6 93//6 94//6
f 87//6 94//6 95//6
f 73//6 70//6 72//6
f 72//6 70//6 71//6
f 68//6 69//6 64//6
f 64//6 69//6 70//6
f 64//6 70//6 74//6
f 74//6 70//6 73//6
f 59//6 54//6 55//6
f 54//6 59//6 53//6
f 53//6 59//6 60//6
f 53//6 60//6 61//6
f 61//6 62//6 53//6
f 53//6 62//6 63//6
f 53//6 63//6 87//6
f 78//6 79//6 80//6
f 55//6 56//6 59//6
f 59//6 56//6 57//6
f 59//6 57//6 58//6
f 80//6 81//6 78//6
f 78//6 81//6 82//6
f 78//6 82//6 77//6
f 77//6 82//6 83//6
f 77//6 83//6 76//6
f 76//6 83//6 84//6
f 76//6 84//6 85//6
