# Blender 4.3.0
# www.blender.org
mtllib Teil_2.mtl
o Teil_2
v -11.140400 -10.000000 36.035770
v 0.000000 -10.000000 36.035770
v -11.140400 0.000000 36.035770
v 0.000000 0.000000 36.035770
v -11.140400 -10.000000 22.053440
v -11.140400 0.000000 22.053440
v -34.103249 -10.000000 22.053440
v -34.103249 0.000000 22.053440
v -34.103249 -10.000000 10.458330
v -34.103249 0.000000 10.458330
v -11.140400 -10.000000 10.458330
v -11.140400 0.000000 10.458330
v -11.140400 -10.000000 0.000000
v -11.140400 0.000000 0.000000
v 0.000000 -10.000000 0.000000
v 0.000000 0.000000 0.000000
vn -0.0000 -0.0000 1.0000
vn -1.0000 -0.0000 -0.0000
vn -0.0000 -0.0000 -1.0000
vn 1.0000 -0.0000 -0.0000
vn -0.0000 -1.0000 -0.0000
vn -0.0000 1.0000 -0.0000
s 0
f 1//1 2//1 3//1
f 3//1 2//1 4//1
f 5//2 1//2 6//2
f 6//2 1//2 3//2
f 7//1 5//1 8//1
f 8//1 5//1 6//1
f 9//2 7//2 10//2
f 10//2 7//2 8//2
f 11//3 9//3 12//3
f 12//3 9//3 10//3
f 13//2 11//2 14//2
f 14//2 11//2 12//2
f 15//3 13//3 16//3
f 16//3 13//3 14//3
f 2//4 15//4 4//4
f 4//4 15//4 16//4
f 2//5 1//5 15//5
f 15//5 1//5 5//5
f 13//5 15//5 11//5
f 11//5 15//5 5//5
f 11//5 5//5 9//5
f 9//5 5//5 7//5
f 16//6 14//6 4//6
f 4//6 14//6 12//6
f 3//6 4//6 6//6
f 6//6 4//6 12//6
f 6//6 12//6 8//6
f 8//6 12//6 10//6
