# Blender 4.3.0
# www.blender.org
mtllib Teil_1.mtl
o Teil_1
v -40.621750 0.000000 30.000000
v 0.000000 0.000000 30.000000
v -40.621750 0.000000 0.000000
v 0.000000 0.000000 0.000000
v -40.621750 -9.521853 30.000000
v -40.621750 -9.521853 0.000000
v -10.451380 -9.521853 30.000000
v -10.451380 -9.521853 0.000000
v -10.451380 -30.491329 30.000000
v -10.451380 -30.491329 0.000000
v 0.000000 -30.491329 30.000000
v 0.000000 -30.491329 0.000000
vn -0.0000 1.0000 -0.0000
vn -1.0000 -0.0000 -0.0000
vn -0.0000 -1.0000 -0.0000
vn 1.0000 -0.0000 -0.0000
vn -0.0000 -0.0000 1.0000
vn -0.0000 -0.0000 -1.0000
s 0
f 1//1 2//1 3//1
f 3//1 2//1 4//1
f 5//2 1//2 6//2
f 6//2 1//2 3//2
f 7//3 5//3 8//3
f 8//3 5//3 6//3
f 9//2 7//2 10//2
f 10//2 7//2 8//2
f 11//3 9//3 12//3
f 12//3 9//3 10//3
f 2//4 11//4 4//4
f 4//4 11//4 12//4
f 9//5 11//5 7//5
f 7//5 11//5 2//5
f 7//5 2//5 5//5
f 5//5 2//5 1//5
f 6//6 3//6 8//6
f 8//6 3//6 4//6
f 8//6 4//6 10//6
f 10//6 4//6 12//6
