ISO-10303-21;
HEADER;
FILE_DESCRIPTION (( 'STEP AP214' ),
    '1' );
FILE_NAME ('Df1a.STEP',
    '2026-08-18T15:23:03',
    ( '' ),
    ( '' ),
    'SwSTEP 2.0',
    'SolidWorks 2022',
    '' );
FILE_SCHEMA (( 'AUTOMOTIVE_DESIGN' ));
ENDSEC;

DATA;
#1 = CARTESIAN_POINT ( 'NONE',  ( 74.80384757729336798, 3.000000000000000000, 10.00000000000000000 ) ) ;
#2 = VECTOR ( 'NONE', #318, 1000.000000000000114 ) ;
#3 = CARTESIAN_POINT ( 'NONE',  ( 67.30384757729336798, 15.99038105676658539, 15.00000000000000000 ) ) ;
#4 = VECTOR ( 'NONE', #289, 1000.000000000000000 ) ;
#5 = CARTESIAN_POINT ( 'NONE',  ( 32.50000000000000000, 50.29165124598851122, 15.00000000000000000 ) ) ;
#6 = DIRECTION ( 'NONE',  ( -0.5000000000000001110, -0.8660254037844385966, -0.000000000000000000 ) ) ;
#7 =( NAMED_UNIT ( * ) SI_UNIT ( $, .STERADIAN. ) SOLID_ANGLE_UNIT ( ) );
#8 = DIRECTION ( 'NONE',  ( 0.5000000000000000000, 0.8660254037844385966, 0.000000000000000000 ) ) ;
#9 = VECTOR ( 'NONE', #10, 1000.000000000000227 ) ;
#10 = DIRECTION ( 'NONE',  ( -0.5000000000000001110, -0.8660254037844384856, 0.000000000000000000 ) ) ;
#11 = EDGE_CURVE ( 'NONE', #73, #252, #325, .T. ) ;
#12 = VECTOR ( 'NONE', #475, 1000.000000000000227 ) ;
#13 = CARTESIAN_POINT ( 'NONE',  ( 80.00000000000000000, 0.000000000000000000, 10.00000000000000000 ) ) ;
#14 = ORIENTED_EDGE ( 'NONE', *, *, #302, .F. ) ;
#15 = CARTESIAN_POINT ( 'NONE',  ( 59.80384757729336087, 2.999999999999997780, 15.00000000000000000 ) ) ;
#16 = AXIS2_PLACEMENT_3D ( 'NONE', #212, #173, #126 ) ;
#17 = ORIENTED_EDGE ( 'NONE', *, *, #120, .F. ) ;
#18 = ORIENTED_EDGE ( 'NONE', *, *, #29, .F. ) ;
#19 = CARTESIAN_POINT ( 'NONE',  ( 5.196152422706625806, 2.999999999999998224, 15.00000000000000000 ) ) ;
#20 = CARTESIAN_POINT ( 'NONE',  ( 67.30384757729336798, 15.99038105676658539, 15.00000000000000000 ) ) ;
#21 = ORIENTED_EDGE ( 'NONE', *, *, #352, .T. ) ;
#22 = LINE ( 'NONE', #59, #391 ) ;
#23 = ORIENTED_EDGE ( 'NONE', *, *, #416, .T. ) ;
#24 = ORIENTED_EDGE ( 'NONE', *, *, #404, .F. ) ;
#25 = FACE_OUTER_BOUND ( 'NONE', #278, .T. ) ;
#26 = VECTOR ( 'NONE', #481, 1000.000000000000000 ) ;
#27 = PLANE ( 'NONE',  #380 ) ;
#28 = ORIENTED_EDGE ( 'NONE', *, *, #246, .T. ) ;
#29 = EDGE_CURVE ( 'NONE', #142, #73, #401, .T. ) ;
#30 = VECTOR ( 'NONE', #159, 1000.000000000000227 ) ;
#31 = LINE ( 'NONE', #155, #198 ) ;
#32 = EDGE_LOOP ( 'NONE', ( #104, #331, #297, #261 ) ) ;
#33 = CARTESIAN_POINT ( 'NONE',  ( 40.00000000000000000, 63.28203230275508417, 15.00000000000000000 ) ) ;
#34 = DIRECTION ( 'NONE',  ( -0.000000000000000000, -0.000000000000000000, -1.000000000000000000 ) ) ;
#35 = EDGE_CURVE ( 'NONE', #446, #252, #134, .T. ) ;
#36 = STYLED_ITEM ( 'NONE', ( #390 ), #50 ) ;
#37 = DIRECTION ( 'NONE',  ( 0.5000000000000002220, 0.8660254037844384856, 0.000000000000000000 ) ) ;
#38 = LINE ( 'NONE', #78, #220 ) ;
#39 = VECTOR ( 'NONE', #395, 1000.000000000000000 ) ;
#40 = PLANE ( 'NONE',  #431 ) ;
#41 = UNCERTAINTY_MEASURE_WITH_UNIT (LENGTH_MEASURE( 1.000000000000000082E-05 ), #157, 'distance_accuracy_value', 'NONE');
#42 = EDGE_CURVE ( 'NONE', #144, #58, #250, .T. ) ;
#43 = FACE_OUTER_BOUND ( 'NONE', #294, .T. ) ;
#44 = COLOUR_RGB ( '',0.7921568627450980005, 0.8196078431372548767, 0.9333333333333333481 ) ;
#45 = SURFACE_STYLE_FILL_AREA ( #279 ) ;
#46 = EDGE_CURVE ( 'NONE', #472, #213, #328, .T. ) ;
#47 = CARTESIAN_POINT ( 'NONE',  ( 5.196152422706625806, 2.999999999999998224, 10.00000000000000000 ) ) ;
#48 =( NAMED_UNIT ( * ) PLANE_ANGLE_UNIT ( ) SI_UNIT ( $, .RADIAN. ) );
#49 = CARTESIAN_POINT ( 'NONE',  ( 0.000000000000000000, 0.000000000000000000, 10.00000000000000000 ) ) ;
#50 = ADVANCED_BREP_SHAPE_REPRESENTATION ( 'Df1a', ( #417, #16 ), #286 ) ;
#51 = DIRECTION ( 'NONE',  ( -0.000000000000000000, -0.000000000000000000, -1.000000000000000000 ) ) ;
#52 = EDGE_CURVE ( 'NONE', #144, #450, #182, .T. ) ;
#53 =( NAMED_UNIT ( * ) SI_UNIT ( $, .STERADIAN. ) SOLID_ANGLE_UNIT ( ) );
#54 = AXIS2_PLACEMENT_3D ( 'NONE', #351, #234, #349 ) ;
#55 = EDGE_LOOP ( 'NONE', ( #106, #68, #480, #219 ) ) ;
#56 = CARTESIAN_POINT ( 'NONE',  ( 20.19615242270662492, 3.000000000000000000, 15.00000000000000000 ) ) ;
#57 = CARTESIAN_POINT ( 'NONE',  ( 47.50000000000000000, 50.29165124598851122, 15.00000000000000000 ) ) ;
#58 = VERTEX_POINT ( 'NONE', #100 ) ;
#59 = CARTESIAN_POINT ( 'NONE',  ( 47.50000000000000000, 50.29165124598851122, 15.00000000000000000 ) ) ;
#60 = ORIENTED_EDGE ( 'NONE', *, *, #265, .F. ) ;
#61 = ORIENTED_EDGE ( 'NONE', *, *, #35, .F. ) ;
#62 = VECTOR ( 'NONE', #143, 1000.000000000000114 ) ;
#63 = LINE ( 'NONE', #111, #62 ) ;
#64 = ORIENTED_EDGE ( 'NONE', *, *, #352, .F. ) ;
#65 = ADVANCED_FACE ( 'NONE', ( #479 ), #251, .F. ) ;
#66 = VERTEX_POINT ( 'NONE', #492 ) ;
#67 = ADVANCED_FACE ( 'NONE', ( #118 ), #79, .F. ) ;
#68 = ORIENTED_EDGE ( 'NONE', *, *, #387, .F. ) ;
#69 = EDGE_CURVE ( 'NONE', #252, #296, #412, .T. ) ;
#70 = ORIENTED_EDGE ( 'NONE', *, *, #476, .F. ) ;
#71 = VECTOR ( 'NONE', #114, 1000.000000000000227 ) ;
#72 = FACE_OUTER_BOUND ( 'NONE', #335, .T. ) ;
#73 = VERTEX_POINT ( 'NONE', #311 ) ;
#74 = DIRECTION ( 'NONE',  ( -0.5000000000000000000, -0.8660254037844385966, 0.000000000000000000 ) ) ;
#75 = AXIS2_PLACEMENT_3D ( 'NONE', #3, #397, #84 ) ;
#76 = DIRECTION ( 'NONE',  ( 0.8660254037844385966, -0.5000000000000003331, 0.000000000000000000 ) ) ;
#77 = ADVANCED_FACE ( 'NONE', ( #384 ), #27, .T. ) ;
#78 = CARTESIAN_POINT ( 'NONE',  ( 0.000000000000000000, 0.000000000000000000, 0.000000000000000000 ) ) ;
#79 = PLANE ( 'NONE',  #82 ) ;
#80 = APPLICATION_CONTEXT ( 'automotive_design' ) ;
#81 = DIRECTION ( 'NONE',  ( 0.5000000000000002220, -0.8660254037844384856, 0.000000000000000000 ) ) ;
#82 = AXIS2_PLACEMENT_3D ( 'NONE', #303, #76, #37 ) ;
#83 = ADVANCED_FACE ( 'NONE', ( #72 ), #309, .F. ) ;
#84 = DIRECTION ( 'NONE',  ( 0.5000000000000001110, -0.8660254037844385966, 0.000000000000000000 ) ) ;
#85 = EDGE_CURVE ( 'NONE', #107, #216, #460, .T. ) ;
#86 = APPLICATION_PROTOCOL_DEFINITION ( 'draft international standard', 'automotive_design', 1998, #80 ) ;
#87 = CARTESIAN_POINT ( 'NONE',  ( 32.50000000000000000, 50.29165124598851122, 15.00000000000000000 ) ) ;
#88 = ORIENTED_EDGE ( 'NONE', *, *, #396, .F. ) ;
#89 = CARTESIAN_POINT ( 'NONE',  ( 67.30384757729336798, 15.99038105676658539, 15.00000000000000000 ) ) ;
#90 = DIRECTION ( 'NONE',  ( 0.000000000000000000, -0.000000000000000000, 1.000000000000000000 ) ) ;
#91 =( LENGTH_UNIT ( ) NAMED_UNIT ( * ) SI_UNIT ( .MILLI., .METRE. ) );
#92 = PRODUCT ( 'Df1a', 'Df1a', '', ( #320 ) ) ;
#93 = EDGE_CURVE ( 'NONE', #97, #128, #269, .T. ) ;
#94 = DIRECTION ( 'NONE',  ( 0.000000000000000000, 1.000000000000000000, 0.000000000000000000 ) ) ;
#95 = AXIS2_PLACEMENT_3D ( 'NONE', #19, #444, #74 ) ;
#96 = DIRECTION ( 'NONE',  ( 0.5000000000000000000, -0.8660254037844385966, 0.000000000000000000 ) ) ;
#97 = VERTEX_POINT ( 'NONE', #193 ) ;
#98 = VECTOR ( 'NONE', #260, 1000.000000000000000 ) ;
#99 = EDGE_CURVE ( 'NONE', #97, #144, #31, .T. ) ;
#100 = CARTESIAN_POINT ( 'NONE',  ( 67.30384757729336798, 15.99038105676658539, 15.00000000000000000 ) ) ;
#101 = ORIENTED_EDGE ( 'NONE', *, *, #11, .T. ) ;
#102 = CARTESIAN_POINT ( 'NONE',  ( 12.69615242270662314, 15.99038105676657473, 15.00000000000000000 ) ) ;
#103 = VERTEX_POINT ( 'NONE', #452 ) ;
#104 = ORIENTED_EDGE ( 'NONE', *, *, #146, .T. ) ;
#105 = PRODUCT_DEFINITION_FORMATION_WITH_SPECIFIED_SOURCE ( 'ANY', '', #92, .NOT_KNOWN. ) ;
#106 = ORIENTED_EDGE ( 'NONE', *, *, #272, .F. ) ;
#107 = VERTEX_POINT ( 'NONE', #112 ) ;
#108 = FILL_AREA_STYLE ('',( #382 ) ) ;
#109 = ORIENTED_EDGE ( 'NONE', *, *, #42, .F. ) ;
#110 = ORIENTED_EDGE ( 'NONE', *, *, #387, .T. ) ;
#111 = CARTESIAN_POINT ( 'NONE',  ( 5.196152422706625806, 2.999999999999998224, 10.00000000000000000 ) ) ;
#112 = CARTESIAN_POINT ( 'NONE',  ( 40.00000000000000000, 63.28203230275508417, 15.00000000000000000 ) ) ;
#113 = ORIENTED_EDGE ( 'NONE', *, *, #29, .T. ) ;
#114 = DIRECTION ( 'NONE',  ( 0.5000000000000001110, -0.8660254037844384856, 0.000000000000000000 ) ) ;
#115 = MECHANICAL_DESIGN_GEOMETRIC_PRESENTATION_REPRESENTATION (  '', ( #36 ), #241 ) ;
#116 = DIRECTION ( 'NONE',  ( 1.000000000000000000, 1.445602896647338177E-16, -0.000000000000000000 ) ) ;
#117 = DIRECTION ( 'NONE',  ( -1.000000000000000000, -1.445602896647338177E-16, 0.000000000000000000 ) ) ;
#118 = FACE_OUTER_BOUND ( 'NONE', #439, .T. ) ;
#119 = FACE_OUTER_BOUND ( 'NONE', #486, .T. ) ;
#120 = EDGE_CURVE ( 'NONE', #213, #381, #230, .T. ) ;
#121 = EDGE_CURVE ( 'NONE', #73, #145, #189, .T. ) ;
#122 = UNCERTAINTY_MEASURE_WITH_UNIT (LENGTH_MEASURE( 1.000000000000000082E-05 ), #326, 'distance_accuracy_value', 'NONE');
#123 = ADVANCED_FACE ( 'NONE', ( #264 ), #273, .F. ) ;
#124 = DIRECTION ( 'NONE',  ( -0.5000000000000001110, 0.8660254037844385966, -0.000000000000000000 ) ) ;
#125 = VECTOR ( 'NONE', #167, 1000.000000000000227 ) ;
#126 = DIRECTION ( 'NONE',  ( 1.000000000000000000, 0.000000000000000000, 0.000000000000000000 ) ) ;
#127 = CARTESIAN_POINT ( 'NONE',  ( 12.69615242270662314, 15.99038105676657473, 15.00000000000000000 ) ) ;
#128 = VERTEX_POINT ( 'NONE', #341 ) ;
#129 = LINE ( 'NONE', #131, #9 ) ;
#130 = CARTESIAN_POINT ( 'NONE',  ( 47.50000000000000000, 50.29165124598851122, 15.00000000000000000 ) ) ;
#131 = CARTESIAN_POINT ( 'NONE',  ( 40.00000000000000000, 63.28203230275508417, 10.00000000000000000 ) ) ;
#132 = CARTESIAN_POINT ( 'NONE',  ( 0.000000000000000000, 0.000000000000000000, 10.00000000000000000 ) ) ;
#133 = VECTOR ( 'NONE', #283, 1000.000000000000114 ) ;
#134 = LINE ( 'NONE', #287, #191 ) ;
#135 = MECHANICAL_DESIGN_GEOMETRIC_PRESENTATION_REPRESENTATION (  '', ( #163 ), #267 ) ;
#136 = ADVANCED_FACE ( 'NONE', ( #236 ), #271, .F. ) ;
#137 = CARTESIAN_POINT ( 'NONE',  ( 74.80384757729336798, 3.000000000000000000, 15.00000000000000000 ) ) ;
#138 = ORIENTED_EDGE ( 'NONE', *, *, #495, .T. ) ;
#139 = VECTOR ( 'NONE', #464, 1000.000000000000000 ) ;
#140 = FACE_OUTER_BOUND ( 'NONE', #141, .T. ) ;
#141 = EDGE_LOOP ( 'NONE', ( #186, #17, #190, #399 ) ) ;
#142 = VERTEX_POINT ( 'NONE', #197 ) ;
#143 = DIRECTION ( 'NONE',  ( 0.4999999999999999445, 0.8660254037844385966, 0.000000000000000000 ) ) ;
#144 = VERTEX_POINT ( 'NONE', #420 ) ;
#145 = VERTEX_POINT ( 'NONE', #493 ) ;
#146 = EDGE_CURVE ( 'NONE', #296, #446, #38, .T. ) ;
#147 = LINE ( 'NONE', #367, #467 ) ;
#148 = ORIENTED_EDGE ( 'NONE', *, *, #121, .T. ) ;
#149 = ORIENTED_EDGE ( 'NONE', *, *, #370, .T. ) ;
#150 = VECTOR ( 'NONE', #433, 1000.000000000000000 ) ;
#151 = DIRECTION ( 'NONE',  ( -0.5000000000000001110, -0.8660254037844384856, 0.000000000000000000 ) ) ;
#152 = CARTESIAN_POINT ( 'NONE',  ( 59.80384757729336087, 2.999999999999997780, 15.00000000000000000 ) ) ;
#153 = ORIENTED_EDGE ( 'NONE', *, *, #120, .T. ) ;
#154 = CARTESIAN_POINT ( 'NONE',  ( 80.00000000000000000, 0.000000000000000000, 10.00000000000000000 ) ) ;
#155 = CARTESIAN_POINT ( 'NONE',  ( 74.80384757729336798, 3.000000000000000000, 15.00000000000000000 ) ) ;
#156 = EDGE_LOOP ( 'NONE', ( #453, #406, #369, #110 ) ) ;
#157 =( LENGTH_UNIT ( ) NAMED_UNIT ( * ) SI_UNIT ( .MILLI., .METRE. ) );
#158 = DIRECTION ( 'NONE',  ( -0.5000000000000002220, 0.8660254037844384856, 0.000000000000000000 ) ) ;
#159 = DIRECTION ( 'NONE',  ( -0.5000000000000000000, -0.8660254037844385966, 0.000000000000000000 ) ) ;
#160 = ADVANCED_FACE ( 'NONE', ( #235, #119, #455, #496 ), #418, .T. ) ;
#161 = CARTESIAN_POINT ( 'NONE',  ( 0.000000000000000000, 0.000000000000000000, 10.00000000000000000 ) ) ;
#162 = EDGE_CURVE ( 'NONE', #301, #185, #275, .T. ) ;
#163 = STYLED_ITEM ( 'NONE', ( #298 ), #417 ) ;
#164 = CARTESIAN_POINT ( 'NONE',  ( 0.000000000000000000, 0.000000000000000000, 0.000000000000000000 ) ) ;
#165 = CARTESIAN_POINT ( 'NONE',  ( 20.19615242270662492, 3.000000000000000000, 10.00000000000000000 ) ) ;
#166 = CARTESIAN_POINT ( 'NONE',  ( 0.000000000000000000, 0.000000000000000000, 15.00000000000000000 ) ) ;
#167 = DIRECTION ( 'NONE',  ( -0.5000000000000001110, 0.8660254037844384856, 0.000000000000000000 ) ) ;
#168 = CARTESIAN_POINT ( 'NONE',  ( 5.196152422706625806, 2.999999999999998224, 15.00000000000000000 ) ) ;
#169 = VECTOR ( 'NONE', #358, 1000.000000000000000 ) ;
#170 = CARTESIAN_POINT ( 'NONE',  ( 12.69615242270662314, 15.99038105676657473, 10.00000000000000000 ) ) ;
#171 = PRODUCT_DEFINITION ( 'UNKNOWN', '', #105, #291 ) ;
#172 = ORIENTED_EDGE ( 'NONE', *, *, #162, .F. ) ;
#173 = DIRECTION ( 'NONE',  ( 0.000000000000000000, 0.000000000000000000, 1.000000000000000000 ) ) ;
#174 = EDGE_CURVE ( 'NONE', #363, #128, #317, .T. ) ;
#175 = ORIENTED_EDGE ( 'NONE', *, *, #35, .T. ) ;
#176 = ORIENTED_EDGE ( 'NONE', *, *, #174, .F. ) ;
#177 = CARTESIAN_POINT ( 'NONE',  ( 40.00000000000000711, 63.28203230275508417, 10.00000000000000000 ) ) ;
#178 = ORIENTED_EDGE ( 'NONE', *, *, #360, .T. ) ;
#179 = EDGE_LOOP ( 'NONE', ( #477, #70, #109, #374 ) ) ;
#180 = SHAPE_DEFINITION_REPRESENTATION ( #276, #50 ) ;
#181 = CARTESIAN_POINT ( 'NONE',  ( 32.50000000000000000, 50.29165124598851122, 10.00000000000000000 ) ) ;
#182 = LINE ( 'NONE', #137, #4 ) ;
#183 = EDGE_LOOP ( 'NONE', ( #266, #442, #256 ) ) ;
#184 = FACE_OUTER_BOUND ( 'NONE', #55, .T. ) ;
#185 = VERTEX_POINT ( 'NONE', #56 ) ;
#186 = ORIENTED_EDGE ( 'NONE', *, *, #209, .T. ) ;
#187 = AXIS2_PLACEMENT_3D ( 'NONE', #284, #428, #425 ) ;
#188 =( NAMED_UNIT ( * ) PLANE_ANGLE_UNIT ( ) SI_UNIT ( $, .RADIAN. ) );
#189 = LINE ( 'NONE', #383, #249 ) ;
#190 = ORIENTED_EDGE ( 'NONE', *, *, #46, .F. ) ;
#191 = VECTOR ( 'NONE', #438, 1000.000000000000227 ) ;
#192 = CARTESIAN_POINT ( 'NONE',  ( 32.50000000000000000, 50.29165124598851122, 15.00000000000000000 ) ) ;
#193 = CARTESIAN_POINT ( 'NONE',  ( 59.80384757729336087, 2.999999999999997780, 15.00000000000000000 ) ) ;
#194 = EDGE_LOOP ( 'NONE', ( #410, #14, #254, #101 ) ) ;
#195 = SURFACE_SIDE_STYLE ('',( #308 ) ) ;
#196 = DIRECTION ( 'NONE',  ( 0.000000000000000000, 0.000000000000000000, -1.000000000000000000 ) ) ;
#197 = CARTESIAN_POINT ( 'NONE',  ( 80.00000000000000000, 0.000000000000000000, 10.00000000000000000 ) ) ;
#198 = VECTOR ( 'NONE', #116, 1000.000000000000000 ) ;
#199 = DIRECTION ( 'NONE',  ( 1.000000000000000000, 0.000000000000000000, 0.000000000000000000 ) ) ;
#200 = EDGE_CURVE ( 'NONE', #145, #142, #277, .T. ) ;
#201 = LINE ( 'NONE', #353, #494 ) ;
#202 = DIRECTION ( 'NONE',  ( 0.5000000000000001110, -0.8660254037844384856, 0.000000000000000000 ) ) ;
#203 = SURFACE_STYLE_USAGE ( .BOTH. , #324 ) ;
#204 = LINE ( 'NONE', #15, #237 ) ;
#205 = AXIS2_PLACEMENT_3D ( 'NONE', #462, #359, #8 ) ;
#206 = PLANE ( 'NONE',  #205 ) ;
#207 = CARTESIAN_POINT ( 'NONE',  ( 74.80384757729336798, 3.000000000000000000, 10.00000000000000000 ) ) ;
#208 = CARTESIAN_POINT ( 'NONE',  ( 80.00000000000000000, 0.000000000000000000, 0.000000000000000000 ) ) ;
#209 = EDGE_CURVE ( 'NONE', #402, #381, #364, .T. ) ;
#210 = AXIS2_PLACEMENT_3D ( 'NONE', #166, #474, #355 ) ;
#211 = ADVANCED_FACE ( 'NONE', ( #43 ), #280, .T. ) ;
#212 = CARTESIAN_POINT ( 'NONE',  ( 0.000000000000000000, 0.000000000000000000, 0.000000000000000000 ) ) ;
#213 = VERTEX_POINT ( 'NONE', #130 ) ;
#214 = CARTESIAN_POINT ( 'NONE',  ( 32.50000000000000000, 50.29165124598851122, 10.00000000000000000 ) ) ;
#215 = DIRECTION ( 'NONE',  ( -0.8660254037844385966, -0.5000000000000003331, 0.000000000000000000 ) ) ;
#216 = VERTEX_POINT ( 'NONE', #177 ) ;
#217 = DIRECTION ( 'NONE',  ( -0.000000000000000000, 0.000000000000000000, 1.000000000000000000 ) ) ;
#218 = ADVANCED_FACE ( 'NONE', ( #319 ), #426, .F. ) ;
#219 = ORIENTED_EDGE ( 'NONE', *, *, #396, .T. ) ;
#220 = VECTOR ( 'NONE', #199, 1000.000000000000000 ) ;
#221 = ORIENTED_EDGE ( 'NONE', *, *, #416, .F. ) ;
#222 = CARTESIAN_POINT ( 'NONE',  ( 20.19615242270662492, 3.000000000000000000, 15.00000000000000000 ) ) ;
#223 = LINE ( 'NONE', #1, #169 ) ;
#224 = ORIENTED_EDGE ( 'NONE', *, *, #246, .F. ) ;
#225 = CARTESIAN_POINT ( 'NONE',  ( 12.69615242270662314, 15.99038105676657473, 10.00000000000000000 ) ) ;
#226 = ORIENTED_EDGE ( 'NONE', *, *, #93, .T. ) ;
#227 = EDGE_LOOP ( 'NONE', ( #175, #398, #18, #407 ) ) ;
#228 = VECTOR ( 'NONE', #362, 1000.000000000000000 ) ;
#229 = PRODUCT_RELATED_PRODUCT_CATEGORY ( 'part', '', ( #92 ) ) ;
#230 = LINE ( 'NONE', #379, #232 ) ;
#231 = EDGE_LOOP ( 'NONE', ( #409, #253, #378 ) ) ;
#232 = VECTOR ( 'NONE', #34, 1000.000000000000000 ) ;
#233 = PLANE ( 'NONE',  #95 ) ;
#234 = DIRECTION ( 'NONE',  ( 0.8660254037844385966, -0.5000000000000001110, 0.000000000000000000 ) ) ;
#235 = FACE_BOUND ( 'NONE', #365, .T. ) ;
#236 = FACE_OUTER_BOUND ( 'NONE', #470, .T. ) ;
#237 = VECTOR ( 'NONE', #6, 1000.000000000000114 ) ;
#238 = CARTESIAN_POINT ( 'NONE',  ( 40.00000000000000000, 69.28203230275509839, 0.000000000000000000 ) ) ;
#239 = DIRECTION ( 'NONE',  ( 1.000000000000000000, 0.000000000000000000, 0.000000000000000000 ) ) ;
#240 = FACE_OUTER_BOUND ( 'NONE', #183, .T. ) ;
#241 =( GEOMETRIC_REPRESENTATION_CONTEXT ( 3 ) GLOBAL_UNCERTAINTY_ASSIGNED_CONTEXT ( ( #473 ) ) GLOBAL_UNIT_ASSIGNED_CONTEXT ( ( #91, #48, #7 ) ) REPRESENTATION_CONTEXT ( 'NONE', 'WORKASPACE' ) );
#242 = DIRECTION ( 'NONE',  ( 0.000000000000000000, 1.000000000000000000, 0.000000000000000000 ) ) ;
#243 = PLANE ( 'NONE',  #419 ) ;
#244 = DIRECTION ( 'NONE',  ( 0.000000000000000000, -0.000000000000000000, 1.000000000000000000 ) ) ;
#245 = PLANE ( 'NONE',  #187 ) ;
#246 = EDGE_CURVE ( 'NONE', #128, #450, #223, .T. ) ;
#247 = AXIS2_PLACEMENT_3D ( 'NONE', #454, #217, #448 ) ;
#248 = LINE ( 'NONE', #168, #2 ) ;
#249 = VECTOR ( 'NONE', #423, 1000.000000000000227 ) ;
#250 = LINE ( 'NONE', #20, #39 ) ;
#251 = PLANE ( 'NONE',  #323 ) ;
#252 = VERTEX_POINT ( 'NONE', #392 ) ;
#253 = ORIENTED_EDGE ( 'NONE', *, *, #209, .F. ) ;
#254 = ORIENTED_EDGE ( 'NONE', *, *, #121, .F. ) ;
#255 = LINE ( 'NONE', #222, #445 ) ;
#256 = ORIENTED_EDGE ( 'NONE', *, *, #265, .T. ) ;
#257 = CLOSED_SHELL ( 'NONE', ( #160, #310, #322, #434, #422, #77, #394, #354, #136, #285, #65, #67, #211, #123, #218, #83, #436 ) ) ;
#258 = EDGE_LOOP ( 'NONE', ( #490, #61, #329 ) ) ;
#259 = PLANE ( 'NONE',  #377 ) ;
#260 = DIRECTION ( 'NONE',  ( -0.000000000000000000, -0.000000000000000000, -1.000000000000000000 ) ) ;
#261 = ORIENTED_EDGE ( 'NONE', *, *, #302, .T. ) ;
#262 = EDGE_CURVE ( 'NONE', #381, #216, #466, .T. ) ;
#263 = DIRECTION ( 'NONE',  ( 1.156482317317871478E-16, -1.000000000000000000, 0.000000000000000000 ) ) ;
#264 = FACE_OUTER_BOUND ( 'NONE', #366, .T. ) ;
#265 = EDGE_CURVE ( 'NONE', #58, #97, #204, .T. ) ;
#266 = ORIENTED_EDGE ( 'NONE', *, *, #99, .T. ) ;
#267 =( GEOMETRIC_REPRESENTATION_CONTEXT ( 3 ) GLOBAL_UNCERTAINTY_ASSIGNED_CONTEXT ( ( #41 ) ) GLOBAL_UNIT_ASSIGNED_CONTEXT ( ( #157, #188, #340 ) ) REPRESENTATION_CONTEXT ( 'NONE', 'WORKASPACE' ) );
#268 = LINE ( 'NONE', #33, #313 ) ;
#269 = LINE ( 'NONE', #152, #463 ) ;
#270 = VECTOR ( 'NONE', #468, 1000.000000000000000 ) ;
#271 = PLANE ( 'NONE',  #361 ) ;
#272 = EDGE_CURVE ( 'NONE', #103, #299, #429, .T. ) ;
#273 = PLANE ( 'NONE',  #316 ) ;
#274 = DIRECTION ( 'NONE',  ( -0.000000000000000000, 0.000000000000000000, 1.000000000000000000 ) ) ;
#275 = LINE ( 'NONE', #127, #288 ) ;
#276 = PRODUCT_DEFINITION_SHAPE ( 'NONE', 'NONE',  #171 ) ;
#277 = LINE ( 'NONE', #330, #282 ) ;
#278 = EDGE_LOOP ( 'NONE', ( #64, #88, #138, #372 ) ) ;
#279 = FILL_AREA_STYLE ('',( #432 ) ) ;
#280 = PLANE ( 'NONE',  #210 ) ;
#281 = APPLICATION_PROTOCOL_DEFINITION ( 'draft international standard', 'automotive_design', 1998, #388 ) ;
#282 = VECTOR ( 'NONE', #239, 1000.000000000000000 ) ;
#283 = DIRECTION ( 'NONE',  ( -0.5000000000000001110, -0.8660254037844385966, -0.000000000000000000 ) ) ;
#284 = CARTESIAN_POINT ( 'NONE',  ( 0.000000000000000000, 0.000000000000000000, 15.00000000000000000 ) ) ;
#285 = ADVANCED_FACE ( 'NONE', ( #140 ), #243, .F. ) ;
#286 =( GEOMETRIC_REPRESENTATION_CONTEXT ( 3 ) GLOBAL_UNCERTAINTY_ASSIGNED_CONTEXT ( ( #122 ) ) GLOBAL_UNIT_ASSIGNED_CONTEXT ( ( #326, #469, #53 ) ) REPRESENTATION_CONTEXT ( 'NONE', 'WORKASPACE' ) );
#287 = CARTESIAN_POINT ( 'NONE',  ( 80.00000000000000000, 0.000000000000000000, 0.000000000000000000 ) ) ;
#288 = VECTOR ( 'NONE', #202, 1000.000000000000227 ) ;
#289 = DIRECTION ( 'NONE',  ( -0.000000000000000000, -0.000000000000000000, -1.000000000000000000 ) ) ;
#290 = ORIENTED_EDGE ( 'NONE', *, *, #370, .F. ) ;
#291 = PRODUCT_DEFINITION_CONTEXT ( 'detailed design', #388, 'design' ) ;
#292 = DIRECTION ( 'NONE',  ( -0.000000000000000000, -0.000000000000000000, -1.000000000000000000 ) ) ;
#293 = CARTESIAN_POINT ( 'NONE',  ( 40.00000000000000000, 69.28203230275509839, 10.00000000000000000 ) ) ;
#294 = EDGE_LOOP ( 'NONE', ( #457, #149, #23 ) ) ;
#295 = LINE ( 'NONE', #225, #71 ) ;
#296 = VERTEX_POINT ( 'NONE', #164 ) ;
#297 = ORIENTED_EDGE ( 'NONE', *, *, #200, .F. ) ;
#298 = PRESENTATION_STYLE_ASSIGNMENT (( #491 ) ) ;
#299 = VERTEX_POINT ( 'NONE', #47 ) ;
#300 = VECTOR ( 'NONE', #292, 1000.000000000000000 ) ;
#301 = VERTEX_POINT ( 'NONE', #314 ) ;
#302 = EDGE_CURVE ( 'NONE', #145, #296, #393, .T. ) ;
#303 = CARTESIAN_POINT ( 'NONE',  ( 40.00000000000000000, 63.28203230275508417, 15.00000000000000000 ) ) ;
#304 = EDGE_LOOP ( 'NONE', ( #332, #224, #176 ) ) ;
#305 = DIRECTION ( 'NONE',  ( -0.5000000000000001110, 0.8660254037844384856, 0.000000000000000000 ) ) ;
#306 = CARTESIAN_POINT ( 'NONE',  ( 40.00000000000000000, 63.28203230275508417, 15.00000000000000000 ) ) ;
#307 = ORIENTED_EDGE ( 'NONE', *, *, #272, .T. ) ;
#308 = SURFACE_STYLE_FILL_AREA ( #108 ) ;
#309 = PLANE ( 'NONE',  #54 ) ;
#310 = ADVANCED_FACE ( 'NONE', ( #440 ), #206, .F. ) ;
#311 = CARTESIAN_POINT ( 'NONE',  ( 40.00000000000000000, 69.28203230275509839, 10.00000000000000000 ) ) ;
#312 = DIRECTION ( 'NONE',  ( 0.8660254037844385966, 0.5000000000000003331, -0.000000000000000000 ) ) ;
#313 = VECTOR ( 'NONE', #151, 1000.000000000000227 ) ;
#314 = CARTESIAN_POINT ( 'NONE',  ( 12.69615242270662314, 15.99038105676657473, 15.00000000000000000 ) ) ;
#315 = EDGE_CURVE ( 'NONE', #301, #449, #321, .T. ) ;
#316 = AXIS2_PLACEMENT_3D ( 'NONE', #458, #421, #117 ) ;
#317 = LINE ( 'NONE', #424, #133 ) ;
#318 = DIRECTION ( 'NONE',  ( 0.4999999999999999445, 0.8660254037844385966, 0.000000000000000000 ) ) ;
#319 = FACE_OUTER_BOUND ( 'NONE', #179, .T. ) ;
#320 = PRODUCT_CONTEXT ( 'NONE', #80, 'mechanical' ) ;
#321 = LINE ( 'NONE', #102, #270 ) ;
#322 = ADVANCED_FACE ( 'NONE', ( #386 ), #40, .F. ) ;
#323 = AXIS2_PLACEMENT_3D ( 'NONE', #57, #215, #81 ) ;
#324 = SURFACE_SIDE_STYLE ('',( #45 ) ) ;
#325 = LINE ( 'NONE', #293, #98 ) ;
#326 =( LENGTH_UNIT ( ) NAMED_UNIT ( * ) SI_UNIT ( .MILLI., .METRE. ) );
#327 = PRESENTATION_LAYER_ASSIGNMENT (  '', '', ( #36 ) ) ;
#328 = LINE ( 'NONE', #368, #405 ) ;
#329 = ORIENTED_EDGE ( 'NONE', *, *, #146, .F. ) ;
#330 = CARTESIAN_POINT ( 'NONE',  ( 0.000000000000000000, 0.000000000000000000, 10.00000000000000000 ) ) ;
#331 = ORIENTED_EDGE ( 'NONE', *, *, #443, .F. ) ;
#332 = ORIENTED_EDGE ( 'NONE', *, *, #339, .F. ) ;
#333 = LINE ( 'NONE', #478, #413 ) ;
#334 = ORIENTED_EDGE ( 'NONE', *, *, #174, .T. ) ;
#335 = EDGE_LOOP ( 'NONE', ( #334, #437, #60, #414 ) ) ;
#336 = DIRECTION ( 'NONE',  ( -0.000000000000000000, -0.000000000000000000, -1.000000000000000000 ) ) ;
#337 = EDGE_LOOP ( 'NONE', ( #427, #483, #290, #153 ) ) ;
#338 = ORIENTED_EDGE ( 'NONE', *, *, #488, .T. ) ;
#339 = EDGE_CURVE ( 'NONE', #450, #363, #201, .T. ) ;
#340 =( NAMED_UNIT ( * ) SI_UNIT ( $, .STERADIAN. ) SOLID_ANGLE_UNIT ( ) );
#341 = CARTESIAN_POINT ( 'NONE',  ( 59.80384757729336087, 2.999999999999997780, 10.00000000000000000 ) ) ;
#342 = VECTOR ( 'NONE', #459, 1000.000000000000000 ) ;
#343 = ORIENTED_EDGE ( 'NONE', *, *, #495, .F. ) ;
#344 = FACE_OUTER_BOUND ( 'NONE', #227, .T. ) ;
#345 = DIRECTION ( 'NONE',  ( -1.000000000000000000, 0.000000000000000000, -0.000000000000000000 ) ) ;
#346 = ORIENTED_EDGE ( 'NONE', *, *, #99, .F. ) ;
#347 = PLANE ( 'NONE',  #350 ) ;
#348 = DIRECTION ( 'NONE',  ( -0.000000000000000000, -0.000000000000000000, -1.000000000000000000 ) ) ;
#349 = DIRECTION ( 'NONE',  ( 0.5000000000000001110, 0.8660254037844385966, 0.000000000000000000 ) ) ;
#350 = AXIS2_PLACEMENT_3D ( 'NONE', #415, #263, #408 ) ;
#351 = CARTESIAN_POINT ( 'NONE',  ( 59.80384757729336087, 2.999999999999997780, 15.00000000000000000 ) ) ;
#352 = EDGE_CURVE ( 'NONE', #299, #449, #63, .T. ) ;
#353 = CARTESIAN_POINT ( 'NONE',  ( 67.30384757729336798, 15.99038105676658539, 10.00000000000000000 ) ) ;
#354 = ADVANCED_FACE ( 'NONE', ( #184 ), #347, .T. ) ;
#355 = DIRECTION ( 'NONE',  ( 1.000000000000000000, 0.000000000000000000, -0.000000000000000000 ) ) ;
#356 = LINE ( 'NONE', #13, #435 ) ;
#357 = AXIS2_PLACEMENT_3D ( 'NONE', #161, #274, #485 ) ;
#358 = DIRECTION ( 'NONE',  ( 1.000000000000000000, 1.445602896647338177E-16, -0.000000000000000000 ) ) ;
#359 = DIRECTION ( 'NONE',  ( 0.8660254037844387076, -0.5000000000000001110, 0.000000000000000000 ) ) ;
#360 = EDGE_CURVE ( 'NONE', #449, #103, #295, .T. ) ;
#361 = AXIS2_PLACEMENT_3D ( 'NONE', #385, #196, #345 ) ;
#362 = DIRECTION ( 'NONE',  ( -0.000000000000000000, -0.000000000000000000, -1.000000000000000000 ) ) ;
#363 = VERTEX_POINT ( 'NONE', #484 ) ;
#364 = LINE ( 'NONE', #214, #150 ) ;
#365 = EDGE_LOOP ( 'NONE', ( #178, #307, #21 ) ) ;
#366 = EDGE_LOOP ( 'NONE', ( #28, #482, #346, #226 ) ) ;
#367 = CARTESIAN_POINT ( 'NONE',  ( 5.196152422706625806, 2.999999999999998224, 15.00000000000000000 ) ) ;
#368 = CARTESIAN_POINT ( 'NONE',  ( 32.50000000000000000, 50.29165124598851122, 15.00000000000000000 ) ) ;
#369 = ORIENTED_EDGE ( 'NONE', *, *, #162, .T. ) ;
#370 = EDGE_CURVE ( 'NONE', #213, #107, #22, .T. ) ;
#371 = DIRECTION ( 'NONE',  ( -1.000000000000000000, -1.156482317317871478E-16, 0.000000000000000000 ) ) ;
#372 = ORIENTED_EDGE ( 'NONE', *, *, #315, .T. ) ;
#373 = EDGE_CURVE ( 'NONE', #472, #402, #411, .T. ) ;
#374 = ORIENTED_EDGE ( 'NONE', *, *, #52, .T. ) ;
#375 = DIRECTION ( 'NONE',  ( -0.000000000000000000, -0.000000000000000000, -1.000000000000000000 ) ) ;
#376 = CARTESIAN_POINT ( 'NONE',  ( 80.00000000000000000, 0.000000000000000000, 10.00000000000000000 ) ) ;
#377 = AXIS2_PLACEMENT_3D ( 'NONE', #154, #487, #96 ) ;
#378 = ORIENTED_EDGE ( 'NONE', *, *, #488, .F. ) ;
#379 = CARTESIAN_POINT ( 'NONE',  ( 47.50000000000000000, 50.29165124598851122, 15.00000000000000000 ) ) ;
#380 = AXIS2_PLACEMENT_3D ( 'NONE', #489, #312, #158 ) ;
#381 = VERTEX_POINT ( 'NONE', #403 ) ;
#382 = FILL_AREA_STYLE_COLOUR ( '', #461 ) ;
#383 = CARTESIAN_POINT ( 'NONE',  ( 40.00000000000000000, 69.28203230275509839, 10.00000000000000000 ) ) ;
#384 = FACE_OUTER_BOUND ( 'NONE', #156, .T. ) ;
#385 = CARTESIAN_POINT ( 'NONE',  ( 0.000000000000000000, 0.000000000000000000, 15.00000000000000000 ) ) ;
#386 = FACE_OUTER_BOUND ( 'NONE', #32, .T. ) ;
#387 = EDGE_CURVE ( 'NONE', #185, #103, #255, .T. ) ;
#388 = APPLICATION_CONTEXT ( 'automotive_design' ) ;
#389 = CARTESIAN_POINT ( 'NONE',  ( 47.50000000000000000, 50.29165124598851122, 10.00000000000000000 ) ) ;
#390 = PRESENTATION_STYLE_ASSIGNMENT (( #203 ) ) ;
#391 = VECTOR ( 'NONE', #305, 1000.000000000000227 ) ;
#392 = CARTESIAN_POINT ( 'NONE',  ( 40.00000000000000000, 69.28203230275509839, 0.000000000000000000 ) ) ;
#393 = LINE ( 'NONE', #49, #300 ) ;
#394 = ADVANCED_FACE ( 'NONE', ( #25 ), #233, .T. ) ;
#395 = DIRECTION ( 'NONE',  ( -0.5000000000000001110, 0.8660254037844385966, -0.000000000000000000 ) ) ;
#396 = EDGE_CURVE ( 'NONE', #66, #299, #147, .T. ) ;
#397 = DIRECTION ( 'NONE',  ( -0.8660254037844385966, -0.5000000000000001110, 0.000000000000000000 ) ) ;
#398 = ORIENTED_EDGE ( 'NONE', *, *, #11, .F. ) ;
#399 = ORIENTED_EDGE ( 'NONE', *, *, #373, .T. ) ;
#400 = PLANE ( 'NONE',  #247 ) ;
#401 = LINE ( 'NONE', #376, #12 ) ;
#402 = VERTEX_POINT ( 'NONE', #181 ) ;
#403 = CARTESIAN_POINT ( 'NONE',  ( 47.50000000000000000, 50.29165124598851122, 10.00000000000000000 ) ) ;
#404 = EDGE_CURVE ( 'NONE', #185, #66, #333, .T. ) ;
#405 = VECTOR ( 'NONE', #471, 1000.000000000000000 ) ;
#406 = ORIENTED_EDGE ( 'NONE', *, *, #315, .F. ) ;
#407 = ORIENTED_EDGE ( 'NONE', *, *, #443, .T. ) ;
#408 = DIRECTION ( 'NONE',  ( 1.000000000000000000, 1.156482317317871478E-16, 0.000000000000000000 ) ) ;
#409 = ORIENTED_EDGE ( 'NONE', *, *, #262, .F. ) ;
#410 = ORIENTED_EDGE ( 'NONE', *, *, #69, .T. ) ;
#411 = LINE ( 'NONE', #192, #26 ) ;
#412 = LINE ( 'NONE', #238, #30 ) ;
#413 = VECTOR ( 'NONE', #371, 1000.000000000000000 ) ;
#414 = ORIENTED_EDGE ( 'NONE', *, *, #476, .T. ) ;
#415 = CARTESIAN_POINT ( 'NONE',  ( 20.19615242270662492, 3.000000000000000000, 15.00000000000000000 ) ) ;
#416 = EDGE_CURVE ( 'NONE', #107, #472, #268, .T. ) ;
#417 = MANIFOLD_SOLID_BREP ( 'Aufsatz-Linear austragen16', #257 ) ;
#418 = PLANE ( 'NONE',  #357 ) ;
#419 = AXIS2_PLACEMENT_3D ( 'NONE', #87, #242, #90 ) ;
#420 = CARTESIAN_POINT ( 'NONE',  ( 74.80384757729336798, 3.000000000000000000, 15.00000000000000000 ) ) ;
#421 = DIRECTION ( 'NONE',  ( -1.445602896647338177E-16, 1.000000000000000000, 0.000000000000000000 ) ) ;
#422 = ADVANCED_FACE ( 'NONE', ( #451 ), #400, .F. ) ;
#423 = DIRECTION ( 'NONE',  ( -0.5000000000000000000, -0.8660254037844385966, 0.000000000000000000 ) ) ;
#424 = CARTESIAN_POINT ( 'NONE',  ( 59.80384757729336087, 2.999999999999997780, 10.00000000000000000 ) ) ;
#425 = DIRECTION ( 'NONE',  ( -1.000000000000000000, 0.000000000000000000, 0.000000000000000000 ) ) ;
#426 = PLANE ( 'NONE',  #75 ) ;
#427 = ORIENTED_EDGE ( 'NONE', *, *, #262, .T. ) ;
#428 = DIRECTION ( 'NONE',  ( 0.000000000000000000, 0.000000000000000000, -1.000000000000000000 ) ) ;
#429 = LINE ( 'NONE', #165, #139 ) ;
#430 = ORIENTED_EDGE ( 'NONE', *, *, #373, .F. ) ;
#431 = AXIS2_PLACEMENT_3D ( 'NONE', #132, #94, #244 ) ;
#432 = FILL_AREA_STYLE_COLOUR ( '', #44 ) ;
#433 = DIRECTION ( 'NONE',  ( 1.000000000000000000, 0.000000000000000000, 0.000000000000000000 ) ) ;
#434 = ADVANCED_FACE ( 'NONE', ( #344 ), #259, .F. ) ;
#435 = VECTOR ( 'NONE', #51, 1000.000000000000000 ) ;
#436 = ADVANCED_FACE ( 'NONE', ( #240 ), #245, .F. ) ;
#437 = ORIENTED_EDGE ( 'NONE', *, *, #93, .F. ) ;
#438 = DIRECTION ( 'NONE',  ( -0.5000000000000000000, 0.8660254037844385966, 0.000000000000000000 ) ) ;
#439 = EDGE_LOOP ( 'NONE', ( #338, #430, #221, #447 ) ) ;
#440 = FACE_OUTER_BOUND ( 'NONE', #194, .T. ) ;
#441 = ORIENTED_EDGE ( 'NONE', *, *, #200, .T. ) ;
#442 = ORIENTED_EDGE ( 'NONE', *, *, #42, .T. ) ;
#443 = EDGE_CURVE ( 'NONE', #142, #446, #356, .T. ) ;
#444 = DIRECTION ( 'NONE',  ( -0.8660254037844387076, 0.5000000000000001110, 0.000000000000000000 ) ) ;
#445 = VECTOR ( 'NONE', #336, 1000.000000000000000 ) ;
#446 = VERTEX_POINT ( 'NONE', #208 ) ;
#447 = ORIENTED_EDGE ( 'NONE', *, *, #85, .T. ) ;
#448 = DIRECTION ( 'NONE',  ( 1.000000000000000000, 0.000000000000000000, 0.000000000000000000 ) ) ;
#449 = VERTEX_POINT ( 'NONE', #170 ) ;
#450 = VERTEX_POINT ( 'NONE', #207 ) ;
#451 = FACE_OUTER_BOUND ( 'NONE', #258, .T. ) ;
#452 = CARTESIAN_POINT ( 'NONE',  ( 20.19615242270662492, 3.000000000000000000, 10.00000000000000000 ) ) ;
#453 = ORIENTED_EDGE ( 'NONE', *, *, #360, .F. ) ;
#454 = CARTESIAN_POINT ( 'NONE',  ( 0.000000000000000000, 0.000000000000000000, 0.000000000000000000 ) ) ;
#455 = FACE_BOUND ( 'NONE', #231, .T. ) ;
#456 = PRESENTATION_LAYER_ASSIGNMENT (  '', '', ( #163 ) ) ;
#457 = ORIENTED_EDGE ( 'NONE', *, *, #46, .T. ) ;
#458 = CARTESIAN_POINT ( 'NONE',  ( 74.80384757729336798, 3.000000000000000000, 15.00000000000000000 ) ) ;
#459 = DIRECTION ( 'NONE',  ( -0.000000000000000000, -0.000000000000000000, -1.000000000000000000 ) ) ;
#460 = LINE ( 'NONE', #306, #342 ) ;
#461 = COLOUR_RGB ( '',0.7921568627450980005, 0.8196078431372548767, 0.9333333333333333481 ) ;
#462 = CARTESIAN_POINT ( 'NONE',  ( 40.00000000000000000, 69.28203230275509839, 10.00000000000000000 ) ) ;
#463 = VECTOR ( 'NONE', #348, 1000.000000000000000 ) ;
#464 = DIRECTION ( 'NONE',  ( -1.000000000000000000, -1.156482317317871478E-16, 0.000000000000000000 ) ) ;
#465 = LINE ( 'NONE', #89, #228 ) ;
#466 = LINE ( 'NONE', #389, #125 ) ;
#467 = VECTOR ( 'NONE', #375, 1000.000000000000000 ) ;
#468 = DIRECTION ( 'NONE',  ( -0.000000000000000000, -0.000000000000000000, -1.000000000000000000 ) ) ;
#469 =( NAMED_UNIT ( * ) PLANE_ANGLE_UNIT ( ) SI_UNIT ( $, .RADIAN. ) );
#470 = EDGE_LOOP ( 'NONE', ( #172, #343, #24 ) ) ;
#471 = DIRECTION ( 'NONE',  ( 1.000000000000000000, 0.000000000000000000, 0.000000000000000000 ) ) ;
#472 = VERTEX_POINT ( 'NONE', #5 ) ;
#473 = UNCERTAINTY_MEASURE_WITH_UNIT (LENGTH_MEASURE( 1.000000000000000082E-05 ), #91, 'distance_accuracy_value', 'NONE');
#474 = DIRECTION ( 'NONE',  ( 0.000000000000000000, -0.000000000000000000, 1.000000000000000000 ) ) ;
#475 = DIRECTION ( 'NONE',  ( -0.5000000000000000000, 0.8660254037844385966, 0.000000000000000000 ) ) ;
#476 = EDGE_CURVE ( 'NONE', #58, #363, #465, .T. ) ;
#477 = ORIENTED_EDGE ( 'NONE', *, *, #339, .T. ) ;
#478 = CARTESIAN_POINT ( 'NONE',  ( 20.19615242270662492, 3.000000000000000000, 15.00000000000000000 ) ) ;
#479 = FACE_OUTER_BOUND ( 'NONE', #337, .T. ) ;
#480 = ORIENTED_EDGE ( 'NONE', *, *, #404, .T. ) ;
#481 = DIRECTION ( 'NONE',  ( -0.000000000000000000, -0.000000000000000000, -1.000000000000000000 ) ) ;
#482 = ORIENTED_EDGE ( 'NONE', *, *, #52, .F. ) ;
#483 = ORIENTED_EDGE ( 'NONE', *, *, #85, .F. ) ;
#484 = CARTESIAN_POINT ( 'NONE',  ( 67.30384757729336798, 15.99038105676658184, 10.00000000000000000 ) ) ;
#485 = DIRECTION ( 'NONE',  ( 1.000000000000000000, 0.000000000000000000, 0.000000000000000000 ) ) ;
#486 = EDGE_LOOP ( 'NONE', ( #148, #441, #113 ) ) ;
#487 = DIRECTION ( 'NONE',  ( -0.8660254037844387076, -0.5000000000000001110, 0.000000000000000000 ) ) ;
#488 = EDGE_CURVE ( 'NONE', #216, #402, #129, .T. ) ;
#489 = CARTESIAN_POINT ( 'NONE',  ( 12.69615242270662314, 15.99038105676657473, 15.00000000000000000 ) ) ;
#490 = ORIENTED_EDGE ( 'NONE', *, *, #69, .F. ) ;
#491 = SURFACE_STYLE_USAGE ( .BOTH. , #195 ) ;
#492 = CARTESIAN_POINT ( 'NONE',  ( 5.196152422706625806, 2.999999999999998224, 15.00000000000000000 ) ) ;
#493 = CARTESIAN_POINT ( 'NONE',  ( 0.000000000000000000, 0.000000000000000000, 10.00000000000000000 ) ) ;
#494 = VECTOR ( 'NONE', #124, 1000.000000000000000 ) ;
#495 = EDGE_CURVE ( 'NONE', #66, #301, #248, .T. ) ;
#496 = FACE_BOUND ( 'NONE', #304, .T. ) ;
ENDSEC;
END-ISO-10303-21;
