# https://github.com/mikedh/trimesh
v 0.00000000 0.00000000 10.00000000
v 80.00000000 0.00000000 10.00000000
v 40.00000000 69.28203600 10.00000000
v -0.00000000 -0.00000000 -0.00000000
v 40.00000000 69.28203600 -0.00000000
v 80.00000000 0.00000000 0.00000000
v 5.35895000 3.28197400 15.00000000
v 40.00000000 63.28203600 15.00000000
v 74.80384100 3.00000000 15.00000000
v 59.80384800 3.00000000 15.00000000
v 67.30384800 15.99038000 15.00000000
f 6 5 4
f 8 3 1
f 8 3 2
f 7 8 1
f 11 8 2
f 11 9 2
f 10 7 1
f 5 4 1
f 5 3 1
f 6 4 1
f 6 2 1
f 6 5 3
f 6 3 2
f 10 7 8
f 10 11 8
f 10 11 9
f 10 2 1
f 10 9 2

