# Blender 4.4.0
# www.blender.org
mtllib Df1a.mtl
o Df1a
v 20.358950 3.281974 10.000000
v 5.358950 3.281974 10.000000
v 0.000000 0.000000 10.000000
v 12.858951 16.272354 10.000000
v 80.000000 0.000000 10.000000
v 59.803848 3.000000 10.000000
v 32.500000 50.291649 10.000000
v 40.000000 63.282036 10.000000
v 40.000000 69.282036 10.000000
v 47.500000 50.291649 10.000000
v 67.303848 15.990380 10.000000
v 74.803841 3.000000 10.000000
v -0.000000 -0.000000 10.000000
v -0.000000 -0.000000 -0.000000
v 40.000000 69.282036 -0.000000
v 80.000000 0.000000 0.000000
v 0.000000 0.000000 0.000000
v 80.000000 0.000000 -0.000000
v 40.000000 69.282036 0.000000
v 12.858951 16.272354 15.000000
v 20.358950 3.281974 15.000000
v 5.358950 3.281974 15.000000
v 47.500000 50.291649 15.000000
v 32.500000 50.291649 15.000000
v 40.000000 63.282036 15.000000
v 74.803841 3.000000 15.000000
v 59.803848 3.000000 15.000000
v 67.303848 15.990380 15.000000
vn -0.0000 -0.0000 1.0000
vn -0.8660 0.5000 -0.0000
vn -0.0000 -1.0000 -0.0000
vn 0.8660 0.5000 -0.0000
vn -0.0000 -0.0000 -1.0000
s 0
f 1//1 2//1 3//1
f 3//1 2//1 4//1
f 3//1 5//1 1//1
f 1//1 5//1 6//1
f 1//1 6//1 4//1
f 7//1 8//1 9//1
f 9//1 3//1 7//1
f 7//1 3//1 4//1
f 7//1 4//1 10//1
f 10//1 4//1 6//1
f 10//1 6//1 11//1
f 8//1 10//1 9//1
f 9//1 10//1 11//1
f 9//1 11//1 5//1
f 5//1 11//1 12//1
f 5//1 12//1 6//1
f 13//2 9//2 14//2
f 14//2 9//2 15//2
f 5//3 3//3 16//3
f 16//3 3//3 17//3
f 9//4 5//4 15//4
f 15//4 5//4 18//4
f 19//5 16//5 17//5
f 20//4 21//4 4//4
f 4//4 21//4 1//4
f 22//2 20//2 2//2
f 2//2 20//2 4//2
f 21//3 22//3 1//3
f 1//3 22//3 2//3
f 20//1 22//1 21//1
f 23//3 24//3 10//3
f 10//3 24//3 7//3
f 25//4 23//4 8//4
f 8//4 23//4 10//4
f 24//2 25//2 7//2
f 7//2 25//2 8//2
f 23//1 25//1 24//1
f 26//3 27//3 12//3
f 12//3 27//3 6//3
f 28//4 26//4 11//4
f 11//4 26//4 12//4
f 27//2 28//2 6//2
f 6//2 28//2 11//2
f 26//1 28//1 27//1
