# Blender 4.4.0
# www.blender.org
mtllib Df2i.mtl
o Df2i
v -0.000000 -0.000000 10.000000
v 40.000000 69.282036 10.000000
v -0.000000 -0.000000 -0.000000
v 40.000000 69.282036 -0.000000
v 80.000000 0.000000 10.000000
v 0.000000 0.000000 10.000000
v 80.000000 0.000000 0.000000
v 0.000000 0.000000 0.000000
v 80.000000 0.000000 -0.000000
v 62.102142 6.000000 10.000000
v 17.897860 6.000000 10.000000
v 17.897860 21.000000 10.000000
v 62.102142 21.000000 10.000000
v 17.897860 6.000000 0.000000
v 62.102142 6.000000 0.000000
v 62.102142 21.000000 0.000000
v 40.000000 69.282036 0.000000
v 17.897860 21.000000 0.000000
vn -0.8660 0.5000 -0.0000
vn -0.0000 -1.0000 -0.0000
vn 0.8660 0.5000 -0.0000
vn -0.0000 -0.0000 1.0000
vn -0.0000 -0.0000 -1.0000
vn 1.0000 -0.0000 -0.0000
vn -1.0000 -0.0000 -0.0000
vn -0.0000 1.0000 -0.0000
s 0
f 1//1 2//1 3//1
f 3//1 2//1 4//1
f 5//2 6//2 7//2
f 7//2 6//2 8//2
f 2//3 5//3 4//3
f 4//3 5//3 9//3
f 10//4 11//4 6//4
f 6//4 11//4 12//4
f 6//4 12//4 2//4
f 2//4 12//4 13//4
f 2//4 13//4 5//4
f 5//4 13//4 10//4
f 5//4 10//4 6//4
f 14//5 15//5 7//5
f 7//5 15//5 16//5
f 7//5 16//5 17//5
f 17//5 16//5 18//5
f 17//5 18//5 8//5
f 8//5 18//5 14//5
f 8//5 14//5 7//5
f 14//6 18//6 11//6
f 11//6 18//6 12//6
f 18//2 16//2 12//2
f 12//2 16//2 13//2
f 16//7 15//7 13//7
f 13//7 15//7 10//7
f 15//8 14//8 10//8
f 10//8 14//8 11//8
