# Blender 4.4.0
# www.blender.org
mtllib Df4a.mtl
o Df4a
v -0.000000 -0.000000 -0.000000
v -0.000000 -0.000000 10.000000
v 10.000000 17.320509 10.000000
v 10.000000 17.320509 15.000000
v 40.000000 69.282036 15.000000
v 40.000000 69.282036 -0.000000
v 80.000000 0.000000 10.000000
v 0.000000 0.000000 10.000000
v 80.000000 0.000000 0.000000
v 0.000000 0.000000 0.000000
v 80.000000 0.000000 -0.000000
v 70.000000 17.320509 10.000000
v 70.000000 17.320509 15.000000
v 58.452995 17.320509 10.000000
v 40.000000 49.282032 10.000000
v 21.547005 17.320509 10.000000
v 40.000000 69.282036 0.000000
v 21.547005 17.320509 15.000000
v 40.000000 49.282032 15.000000
v 58.452995 17.320509 15.000000
vn -0.8660 0.5000 -0.0000
vn -0.0000 -1.0000 -0.0000
vn 0.8660 0.5000 -0.0000
vn -0.0000 -0.0000 1.0000
vn -0.0000 -0.0000 -1.0000
vn 0.8660 -0.5000 -0.0000
vn -0.8660 -0.5000 -0.0000
s 0
f 1//1 2//1 3//1
f 4//1 5//1 3//1
f 3//1 5//1 6//1
f 3//1 6//1 1//1
f 7//2 8//2 9//2
f 9//2 8//2 10//2
f 7//3 11//3 12//3
f 12//3 11//3 6//3
f 12//3 6//3 13//3
f 13//3 6//3 5//3
f 14//4 15//4 16//4
f 3//4 8//4 16//4
f 16//4 8//4 7//4
f 16//4 7//4 14//4
f 14//4 7//4 12//4
f 17//5 9//5 10//5
f 18//2 4//2 16//2
f 16//2 4//2 3//2
f 19//6 18//6 15//6
f 15//6 18//6 16//6
f 20//7 19//7 14//7
f 14//7 19//7 15//7
f 13//2 20//2 12//2
f 12//2 20//2 14//2
f 20//4 13//4 19//4
f 19//4 13//4 5//4
f 19//4 5//4 18//4
f 18//4 5//4 4//4
