ISO-10303-21;
HEADER;
FILE_DESCRIPTION (( 'STEP AP214' ),
    '1' );
FILE_NAME ('Df4a.STEP',
    '2025-09-08T12:43:59',
    ( '' ),
    ( '' ),
    'SwSTEP 2.0',
    'SolidWorks 2024',
    '' );
FILE_SCHEMA (( 'AUTOMOTIVE_DESIGN' ));
ENDSEC;

DATA;
#1 = DIRECTION ( 'NONE',  ( 0.4999999999999998335, 0.8660254037844387076, 0.000000000000000000 ) ) ;
#2 = COLOUR_RGB ( '',0.7921568627450980005, 0.8196078431372548767, 0.9333333333333333481 ) ;
#3 = EDGE_CURVE ( 'NONE', #313, #62, #99, .T. ) ;
#4 = CARTESIAN_POINT ( 'NONE',  ( 39.99999999999999289, 49.28203230275509839, 10.00000000000000000 ) ) ;
#5 = DIRECTION ( 'NONE',  ( 0.000000000000000000, 1.000000000000000000, 0.000000000000000000 ) ) ;
#6 =( NAMED_UNIT ( * ) SI_UNIT ( $, .STERADIAN. ) SOLID_ANGLE_UNIT ( ) );
#7 = AXIS2_PLACEMENT_3D ( 'NONE', #316, #242, #171 ) ;
#8 = EDGE_CURVE ( 'NONE', #16, #313, #268, .T. ) ;
#9 = DIRECTION ( 'NONE',  ( -0.000000000000000000, -0.000000000000000000, -1.000000000000000000 ) ) ;
#10 = FACE_OUTER_BOUND ( 'NONE', #264, .T. ) ;
#11 = VECTOR ( 'NONE', #266, 1000.000000000000000 ) ;
#12 = VECTOR ( 'NONE', #183, 1000.000000000000000 ) ;
#13 = CARTESIAN_POINT ( 'NONE',  ( 80.00000000000000000, 0.000000000000000000, 0.000000000000000000 ) ) ;
#14 = LINE ( 'NONE', #112, #124 ) ;
#15 = DIRECTION ( 'NONE',  ( -0.5000000000000000000, -0.8660254037844385966, 0.000000000000000000 ) ) ;
#16 = VERTEX_POINT ( 'NONE', #41 ) ;
#17 = CARTESIAN_POINT ( 'NONE',  ( 80.00000000000000000, 0.000000000000000000, 10.00000000000000000 ) ) ;
#18 = EDGE_LOOP ( 'NONE', ( #117, #262, #146, #248 ) ) ;
#19 = DIRECTION ( 'NONE',  ( -0.000000000000000000, 0.000000000000000000, 1.000000000000000000 ) ) ;
#20 = VECTOR ( 'NONE', #251, 1000.000000000000114 ) ;
#21 = VERTEX_POINT ( 'NONE', #144 ) ;
#22 = VERTEX_POINT ( 'NONE', #176 ) ;
#23 = ORIENTED_EDGE ( 'NONE', *, *, #63, .F. ) ;
#24 = ADVANCED_FACE ( 'NONE', ( #75 ), #143, .F. ) ;
#25 = ORIENTED_EDGE ( 'NONE', *, *, #238, .F. ) ;
#26 = VECTOR ( 'NONE', #72, 1000.000000000000000 ) ;
#27 = CARTESIAN_POINT ( 'NONE',  ( 21.54700538379251995, 17.32050807568878170, 15.00000000000000000 ) ) ;
#28 = FACE_OUTER_BOUND ( 'NONE', #288, .T. ) ;
#29 = FACE_OUTER_BOUND ( 'NONE', #295, .T. ) ;
#30 = PRODUCT ( 'Df4a', 'Df4a', '', ( #71 ) ) ;
#31 = LINE ( 'NONE', #206, #68 ) ;
#32 = LINE ( 'NONE', #211, #278 ) ;
#33 = CARTESIAN_POINT ( 'NONE',  ( 10.00000000000000178, 17.32050807568878170, 15.00000000000000000 ) ) ;
#34 = VECTOR ( 'NONE', #1, 1000.000000000000000 ) ;
#35 = DIRECTION ( 'NONE',  ( -0.000000000000000000, -0.000000000000000000, -1.000000000000000000 ) ) ;
#36 = ORIENTED_EDGE ( 'NONE', *, *, #80, .T. ) ;
#37 = DIRECTION ( 'NONE',  ( 6.009258394948636125E-16, 1.000000000000000000, -0.000000000000000000 ) ) ;
#38 = DIRECTION ( 'NONE',  ( -0.5000000000000000000, -0.8660254037844385966, 0.000000000000000000 ) ) ;
#39 = EDGE_CURVE ( 'NONE', #291, #22, #169, .T. ) ;
#40 = ORIENTED_EDGE ( 'NONE', *, *, #210, .F. ) ;
#41 = CARTESIAN_POINT ( 'NONE',  ( 10.00000000000000178, 17.32050807568878170, 10.00000000000000000 ) ) ;
#42 = ORIENTED_EDGE ( 'NONE', *, *, #232, .T. ) ;
#43 = CLOSED_SHELL ( 'NONE', ( #152, #317, #177, #108, #24, #134, #240, #163, #217, #113 ) ) ;
#44 = CARTESIAN_POINT ( 'NONE',  ( 10.00000000000000178, 17.32050807568878170, 10.00000000000000000 ) ) ;
#45 = AXIS2_PLACEMENT_3D ( 'NONE', #185, #91, #189 ) ;
#46 = EDGE_CURVE ( 'NONE', #121, #314, #270, .T. ) ;
#47 = ORIENTED_EDGE ( 'NONE', *, *, #263, .T. ) ;
#48 = ORIENTED_EDGE ( 'NONE', *, *, #221, .F. ) ;
#49 = DIRECTION ( 'NONE',  ( 0.8660254037844385966, 0.5000000000000001110, -0.000000000000000000 ) ) ;
#50 = AXIS2_PLACEMENT_3D ( 'NONE', #306, #285, #61 ) ;
#51 = FILL_AREA_STYLE ('',( #207 ) ) ;
#52 = CARTESIAN_POINT ( 'NONE',  ( 40.00000000000000000, 69.28203230275509839, 15.00000000000000000 ) ) ;
#53 = CARTESIAN_POINT ( 'NONE',  ( 80.00000000000000000, 0.000000000000000000, 10.00000000000000000 ) ) ;
#54 = STYLED_ITEM ( 'NONE', ( #302 ), #122 ) ;
#55 = DIRECTION ( 'NONE',  ( 1.000000000000000000, 0.000000000000000000, 0.000000000000000000 ) ) ;
#56 = PRODUCT_DEFINITION ( 'UNKNOWN', '', #81, #201 ) ;
#57 = LINE ( 'NONE', #64, #106 ) ;
#58 = CARTESIAN_POINT ( 'NONE',  ( 39.99999999999999289, 49.28203230275509839, 15.00000000000000000 ) ) ;
#59 = ORIENTED_EDGE ( 'NONE', *, *, #170, .F. ) ;
#60 = AXIS2_PLACEMENT_3D ( 'NONE', #243, #19, #120 ) ;
#61 = DIRECTION ( 'NONE',  ( 0.000000000000000000, -0.000000000000000000, 1.000000000000000000 ) ) ;
#62 = VERTEX_POINT ( 'NONE', #98 ) ;
#63 = EDGE_CURVE ( 'NONE', #22, #314, #97, .T. ) ;
#64 = CARTESIAN_POINT ( 'NONE',  ( 10.00000000000000178, 17.32050807568878170, 15.00000000000000000 ) ) ;
#65 = ORIENTED_EDGE ( 'NONE', *, *, #274, .T. ) ;
#66 = DIRECTION ( 'NONE',  ( -0.8660254037844387076, -0.5000000000000001110, 0.000000000000000000 ) ) ;
#67 = ORIENTED_EDGE ( 'NONE', *, *, #3, .F. ) ;
#68 = VECTOR ( 'NONE', #129, 1000.000000000000114 ) ;
#69 = EDGE_CURVE ( 'NONE', #121, #21, #245, .T. ) ;
#70 = ORIENTED_EDGE ( 'NONE', *, *, #232, .F. ) ;
#71 = PRODUCT_CONTEXT ( 'NONE', #246, 'mechanical' ) ;
#72 = DIRECTION ( 'NONE',  ( 1.000000000000000000, 0.000000000000000000, 0.000000000000000000 ) ) ;
#73 = LINE ( 'NONE', #249, #275 ) ;
#74 = AXIS2_PLACEMENT_3D ( 'NONE', #166, #37, #312 ) ;
#75 = FACE_OUTER_BOUND ( 'NONE', #223, .T. ) ;
#76 = EDGE_CURVE ( 'NONE', #314, #281, #73, .T. ) ;
#77 = CARTESIAN_POINT ( 'NONE',  ( 0.000000000000000000, 0.000000000000000000, 0.000000000000000000 ) ) ;
#78 = ADVANCED_BREP_SHAPE_REPRESENTATION ( 'Df4a', ( #122, #7 ), #304 ) ;
#79 = DIRECTION ( 'NONE',  ( -0.5000000000000001110, 0.8660254037844385966, 0.000000000000000000 ) ) ;
#80 = EDGE_CURVE ( 'NONE', #197, #225, #154, .T. ) ;
#81 = PRODUCT_DEFINITION_FORMATION_WITH_SPECIFIED_SOURCE ( 'ANY', '', #30, .NOT_KNOWN. ) ;
#82 = CARTESIAN_POINT ( 'NONE',  ( 0.000000000000000000, 0.000000000000000000, 15.00000000000000000 ) ) ;
#83 = DIRECTION ( 'NONE',  ( 1.000000000000000000, -6.009258394948636125E-16, 0.000000000000000000 ) ) ;
#84 = EDGE_CURVE ( 'NONE', #258, #197, #31, .T. ) ;
#85 = VECTOR ( 'NONE', #83, 1000.000000000000000 ) ;
#86 = LINE ( 'NONE', #157, #12 ) ;
#87 = DIRECTION ( 'NONE',  ( -0.000000000000000000, -0.000000000000000000, -1.000000000000000000 ) ) ;
#88 = ORIENTED_EDGE ( 'NONE', *, *, #130, .F. ) ;
#89 = FACE_OUTER_BOUND ( 'NONE', #167, .T. ) ;
#90 = ORIENTED_EDGE ( 'NONE', *, *, #289, .T. ) ;
#91 = DIRECTION ( 'NONE',  ( -0.8660254037844387076, 0.4999999999999998890, 0.000000000000000000 ) ) ;
#92 = ORIENTED_EDGE ( 'NONE', *, *, #39, .F. ) ;
#93 = PLANE ( 'NONE',  #45 ) ;
#94 = EDGE_CURVE ( 'NONE', #101, #258, #104, .T. ) ;
#95 = VERTEX_POINT ( 'NONE', #52 ) ;
#96 = VECTOR ( 'NONE', #202, 1000.000000000000000 ) ;
#97 = LINE ( 'NONE', #77, #26 ) ;
#98 = CARTESIAN_POINT ( 'NONE',  ( 39.99999999999999289, 49.28203230275509839, 10.00000000000000000 ) ) ;
#99 = LINE ( 'NONE', #224, #34 ) ;
#100 = EDGE_CURVE ( 'NONE', #95, #281, #254, .T. ) ;
#101 = VERTEX_POINT ( 'NONE', #27 ) ;
#102 = CARTESIAN_POINT ( 'NONE',  ( 40.00000000000000000, 69.28203230275509839, 10.00000000000000000 ) ) ;
#103 = DIRECTION ( 'NONE',  ( 0.000000000000000000, -0.000000000000000000, 1.000000000000000000 ) ) ;
#104 = LINE ( 'NONE', #107, #244 ) ;
#105 = AXIS2_PLACEMENT_3D ( 'NONE', #301, #231, #55 ) ;
#106 = VECTOR ( 'NONE', #255, 1000.000000000000000 ) ;
#107 = CARTESIAN_POINT ( 'NONE',  ( 21.54700538379251995, 17.32050807568878170, 15.00000000000000000 ) ) ;
#108 = ADVANCED_FACE ( 'NONE', ( #180 ), #126, .T. ) ;
#109 = DIRECTION ( 'NONE',  ( 1.000000000000000000, 0.000000000000000000, -0.000000000000000000 ) ) ;
#110 = DIRECTION ( 'NONE',  ( -0.000000000000000000, -0.000000000000000000, -1.000000000000000000 ) ) ;
#111 = DIRECTION ( 'NONE',  ( -0.000000000000000000, -0.000000000000000000, -1.000000000000000000 ) ) ;
#112 = CARTESIAN_POINT ( 'NONE',  ( 69.99999999999998579, 17.32050807568878170, 15.00000000000000000 ) ) ;
#113 = ADVANCED_FACE ( 'NONE', ( #148 ), #228, .T. ) ;
#114 = LINE ( 'NONE', #308, #252 ) ;
#115 = ORIENTED_EDGE ( 'NONE', *, *, #100, .F. ) ;
#116 = LINE ( 'NONE', #260, #216 ) ;
#117 = ORIENTED_EDGE ( 'NONE', *, *, #3, .T. ) ;
#118 = ORIENTED_EDGE ( 'NONE', *, *, #69, .T. ) ;
#119 = PRESENTATION_LAYER_ASSIGNMENT (  '', '', ( #54 ) ) ;
#120 = DIRECTION ( 'NONE',  ( 1.000000000000000000, 0.000000000000000000, 0.000000000000000000 ) ) ;
#121 = VERTEX_POINT ( 'NONE', #53 ) ;
#122 = MANIFOLD_SOLID_BREP ( 'Aufsatz-Linear austragen13', #43 ) ;
#123 = ORIENTED_EDGE ( 'NONE', *, *, #238, .T. ) ;
#124 = VECTOR ( 'NONE', #164, 1000.000000000000227 ) ;
#125 = PRODUCT_RELATED_PRODUCT_CATEGORY ( 'part', '', ( #30 ) ) ;
#126 = PLANE ( 'NONE',  #105 ) ;
#127 = DIRECTION ( 'NONE',  ( 0.4999999999999998335, 0.8660254037844387076, 0.000000000000000000 ) ) ;
#128 = VECTOR ( 'NONE', #137, 1000.000000000000000 ) ;
#129 = DIRECTION ( 'NONE',  ( 0.5000000000000001110, -0.8660254037844385966, 0.000000000000000000 ) ) ;
#130 = EDGE_CURVE ( 'NONE', #62, #188, #151, .T. ) ;
#131 = DIRECTION ( 'NONE',  ( 0.5000000000000000000, -0.8660254037844385966, 0.000000000000000000 ) ) ;
#132 = CARTESIAN_POINT ( 'NONE',  ( 21.54700538379251995, 17.32050807568878170, 10.00000000000000000 ) ) ;
#133 = VECTOR ( 'NONE', #145, 1000.000000000000000 ) ;
#134 = ADVANCED_FACE ( 'NONE', ( #29 ), #303, .F. ) ;
#135 = LINE ( 'NONE', #256, #160 ) ;
#136 = ORIENTED_EDGE ( 'NONE', *, *, #210, .T. ) ;
#137 = DIRECTION ( 'NONE',  ( 1.000000000000000000, 0.000000000000000000, 0.000000000000000000 ) ) ;
#138 = ORIENTED_EDGE ( 'NONE', *, *, #76, .F. ) ;
#139 = CARTESIAN_POINT ( 'NONE',  ( 0.000000000000000000, 0.000000000000000000, 10.00000000000000000 ) ) ;
#140 = ORIENTED_EDGE ( 'NONE', *, *, #274, .F. ) ;
#141 = AXIS2_PLACEMENT_3D ( 'NONE', #102, #208, #203 ) ;
#142 = ORIENTED_EDGE ( 'NONE', *, *, #76, .T. ) ;
#143 = PLANE ( 'NONE',  #60 ) ;
#144 = CARTESIAN_POINT ( 'NONE',  ( 69.99999999999998579, 17.32050807568878170, 10.00000000000000000 ) ) ;
#145 = DIRECTION ( 'NONE',  ( -0.000000000000000000, -0.000000000000000000, -1.000000000000000000 ) ) ;
#146 = ORIENTED_EDGE ( 'NONE', *, *, #94, .F. ) ;
#147 = ORIENTED_EDGE ( 'NONE', *, *, #181, .F. ) ;
#148 = FACE_OUTER_BOUND ( 'NONE', #296, .T. ) ;
#149 = LINE ( 'NONE', #139, #128 ) ;
#150 = PRODUCT_DEFINITION_SHAPE ( 'NONE', 'NONE',  #56 ) ;
#151 = LINE ( 'NONE', #4, #20 ) ;
#152 = ADVANCED_FACE ( 'NONE', ( #28 ), #253, .F. ) ;
#153 = CARTESIAN_POINT ( 'NONE',  ( 10.00000000000000178, 17.32050807568878170, 15.00000000000000000 ) ) ;
#154 = LINE ( 'NONE', #277, #85 ) ;
#155 = DIRECTION ( 'NONE',  ( -0.5000000000000000000, -0.8660254037844385966, 0.000000000000000000 ) ) ;
#156 = ORIENTED_EDGE ( 'NONE', *, *, #269, .F. ) ;
#157 = CARTESIAN_POINT ( 'NONE',  ( 10.00000000000000178, 17.32050807568878170, 15.00000000000000000 ) ) ;
#158 = ORIENTED_EDGE ( 'NONE', *, *, #46, .F. ) ;
#159 =( GEOMETRIC_REPRESENTATION_CONTEXT ( 3 ) GLOBAL_UNCERTAINTY_ASSIGNED_CONTEXT ( ( #175 ) ) GLOBAL_UNIT_ASSIGNED_CONTEXT ( ( #276, #226, #6 ) ) REPRESENTATION_CONTEXT ( 'NONE', 'WORKASPACE' ) );
#160 = VECTOR ( 'NONE', #155, 1000.000000000000227 ) ;
#161 = CARTESIAN_POINT ( 'NONE',  ( 21.54700538379251995, 17.32050807568878170, 15.00000000000000000 ) ) ;
#162 = ORIENTED_EDGE ( 'NONE', *, *, #8, .T. ) ;
#163 = ADVANCED_FACE ( 'NONE', ( #204 ), #179, .F. ) ;
#164 = DIRECTION ( 'NONE',  ( -0.4999999999999998890, 0.8660254037844385966, 0.000000000000000000 ) ) ;
#165 = ORIENTED_EDGE ( 'NONE', *, *, #289, .F. ) ;
#166 = CARTESIAN_POINT ( 'NONE',  ( 58.45299461620747650, 17.32050807568878525, 15.00000000000000000 ) ) ;
#167 = EDGE_LOOP ( 'NONE', ( #298, #158, #59, #247 ) ) ;
#168 = ORIENTED_EDGE ( 'NONE', *, *, #284, .F. ) ;
#169 = LINE ( 'NONE', #315, #133 ) ;
#170 = EDGE_CURVE ( 'NONE', #291, #121, #149, .T. ) ;
#171 = DIRECTION ( 'NONE',  ( 1.000000000000000000, 0.000000000000000000, 0.000000000000000000 ) ) ;
#172 = ORIENTED_EDGE ( 'NONE', *, *, #84, .T. ) ;
#173 = VECTOR ( 'NONE', #87, 1000.000000000000000 ) ;
#174 =( NAMED_UNIT ( * ) SI_UNIT ( $, .STERADIAN. ) SOLID_ANGLE_UNIT ( ) );
#175 = UNCERTAINTY_MEASURE_WITH_UNIT (LENGTH_MEASURE( 1.000000000000000082E-05 ), #276, 'distance_accuracy_value', 'NONE');
#176 = CARTESIAN_POINT ( 'NONE',  ( 0.000000000000000000, 0.000000000000000000, 0.000000000000000000 ) ) ;
#177 = ADVANCED_FACE ( 'NONE', ( #237 ), #190, .F. ) ;
#178 = EDGE_LOOP ( 'NONE', ( #142, #115, #165, #123, #198, #236 ) ) ;
#179 = PLANE ( 'NONE',  #229 ) ;
#180 = FACE_OUTER_BOUND ( 'NONE', #222, .T. ) ;
#181 = EDGE_CURVE ( 'NONE', #101, #313, #234, .T. ) ;
#182 = CARTESIAN_POINT ( 'NONE',  ( 40.00000000000000000, 69.28203230275509839, 10.00000000000000000 ) ) ;
#183 = DIRECTION ( 'NONE',  ( 1.000000000000000000, 0.000000000000000000, 0.000000000000000000 ) ) ;
#184 = ORIENTED_EDGE ( 'NONE', *, *, #269, .T. ) ;
#185 = CARTESIAN_POINT ( 'NONE',  ( 21.54700538379251995, 17.32050807568878170, 15.00000000000000000 ) ) ;
#186 = ORIENTED_EDGE ( 'NONE', *, *, #100, .T. ) ;
#187 = LINE ( 'NONE', #280, #205 ) ;
#188 = VERTEX_POINT ( 'NONE', #261 ) ;
#189 = DIRECTION ( 'NONE',  ( -0.4999999999999998890, -0.8660254037844387076, 0.000000000000000000 ) ) ;
#190 = PLANE ( 'NONE',  #310 ) ;
#191 = ORIENTED_EDGE ( 'NONE', *, *, #221, .T. ) ;
#192 = APPLICATION_PROTOCOL_DEFINITION ( 'draft international standard', 'automotive_design', 1998, #246 ) ;
#193 = ORIENTED_EDGE ( 'NONE', *, *, #170, .T. ) ;
#194 = VECTOR ( 'NONE', #111, 1000.000000000000000 ) ;
#195 =( NAMED_UNIT ( * ) PLANE_ANGLE_UNIT ( ) SI_UNIT ( $, .RADIAN. ) );
#196 = CARTESIAN_POINT ( 'NONE',  ( 80.00000000000000000, 0.000000000000000000, 10.00000000000000000 ) ) ;
#197 = VERTEX_POINT ( 'NONE', #239 ) ;
#198 = ORIENTED_EDGE ( 'NONE', *, *, #69, .F. ) ;
#199 = VECTOR ( 'NONE', #9, 1000.000000000000000 ) ;
#200 = APPLICATION_PROTOCOL_DEFINITION ( 'draft international standard', 'automotive_design', 1998, #209 ) ;
#201 = PRODUCT_DEFINITION_CONTEXT ( 'detailed design', #209, 'design' ) ;
#202 = DIRECTION ( 'NONE',  ( -0.000000000000000000, -0.000000000000000000, -1.000000000000000000 ) ) ;
#203 = DIRECTION ( 'NONE',  ( 0.5000000000000000000, 0.8660254037844385966, 0.000000000000000000 ) ) ;
#204 = FACE_OUTER_BOUND ( 'NONE', #311, .T. ) ;
#205 = VECTOR ( 'NONE', #287, 1000.000000000000000 ) ;
#206 = CARTESIAN_POINT ( 'NONE',  ( 39.99999999999999289, 49.28203230275509839, 15.00000000000000000 ) ) ;
#207 = FILL_AREA_STYLE_COLOUR ( '', #2 ) ;
#208 = DIRECTION ( 'NONE',  ( 0.8660254037844387076, -0.5000000000000001110, 0.000000000000000000 ) ) ;
#209 = APPLICATION_CONTEXT ( 'automotive_design' ) ;
#210 = EDGE_CURVE ( 'NONE', #95, #293, #116, .T. ) ;
#211 = CARTESIAN_POINT ( 'NONE',  ( 69.99999999999998579, 17.32050807568878170, 15.00000000000000000 ) ) ;
#212 = PLANE ( 'NONE',  #50 ) ;
#213 = CARTESIAN_POINT ( 'NONE',  ( 0.000000000000000000, 0.000000000000000000, 10.00000000000000000 ) ) ;
#214 = CARTESIAN_POINT ( 'NONE',  ( 69.99999999999998579, 17.32050807568878170, 15.00000000000000000 ) ) ;
#215 = ORIENTED_EDGE ( 'NONE', *, *, #263, .F. ) ;
#216 = VECTOR ( 'NONE', #15, 1000.000000000000227 ) ;
#217 = ADVANCED_FACE ( 'NONE', ( #10 ), #290, .F. ) ;
#218 = FACE_OUTER_BOUND ( 'NONE', #18, .T. ) ;
#219 =( LENGTH_UNIT ( ) NAMED_UNIT ( * ) SI_UNIT ( .MILLI., .METRE. ) );
#220 = ORIENTED_EDGE ( 'NONE', *, *, #284, .T. ) ;
#221 = EDGE_CURVE ( 'NONE', #197, #188, #114, .T. ) ;
#222 = EDGE_LOOP ( 'NONE', ( #140, #88, #67, #307, #42, #193, #118 ) ) ;
#223 = EDGE_LOOP ( 'NONE', ( #156, #138, #23 ) ) ;
#224 = CARTESIAN_POINT ( 'NONE',  ( 21.54700538379251995, 17.32050807568878170, 10.00000000000000000 ) ) ;
#225 = VERTEX_POINT ( 'NONE', #214 ) ;
#226 =( NAMED_UNIT ( * ) PLANE_ANGLE_UNIT ( ) SI_UNIT ( $, .RADIAN. ) );
#227 = DIRECTION ( 'NONE',  ( 0.000000000000000000, 0.000000000000000000, 1.000000000000000000 ) ) ;
#228 = PLANE ( 'NONE',  #257 ) ;
#229 = AXIS2_PLACEMENT_3D ( 'NONE', #273, #49, #79 ) ;
#230 = SURFACE_STYLE_USAGE ( .BOTH. , #279 ) ;
#231 = DIRECTION ( 'NONE',  ( -0.000000000000000000, 0.000000000000000000, 1.000000000000000000 ) ) ;
#232 = EDGE_CURVE ( 'NONE', #16, #291, #309, .T. ) ;
#233 = LINE ( 'NONE', #305, #194 ) ;
#234 = LINE ( 'NONE', #161, #173 ) ;
#235 = CARTESIAN_POINT ( 'NONE',  ( 40.00000000000000000, 69.28203230275509839, 0.000000000000000000 ) ) ;
#236 = ORIENTED_EDGE ( 'NONE', *, *, #46, .T. ) ;
#237 = FACE_OUTER_BOUND ( 'NONE', #178, .T. ) ;
#238 = EDGE_CURVE ( 'NONE', #225, #21, #32, .T. ) ;
#239 = CARTESIAN_POINT ( 'NONE',  ( 58.45299461620747650, 17.32050807568878525, 15.00000000000000000 ) ) ;
#240 = ADVANCED_FACE ( 'NONE', ( #218 ), #93, .F. ) ;
#241 = ORIENTED_EDGE ( 'NONE', *, *, #259, .T. ) ;
#242 = DIRECTION ( 'NONE',  ( 0.000000000000000000, 0.000000000000000000, 1.000000000000000000 ) ) ;
#243 = CARTESIAN_POINT ( 'NONE',  ( 0.000000000000000000, 0.000000000000000000, 0.000000000000000000 ) ) ;
#244 = VECTOR ( 'NONE', #127, 1000.000000000000000 ) ;
#245 = LINE ( 'NONE', #196, #265 ) ;
#246 = APPLICATION_CONTEXT ( 'automotive_design' ) ;
#247 = ORIENTED_EDGE ( 'NONE', *, *, #39, .T. ) ;
#248 = ORIENTED_EDGE ( 'NONE', *, *, #181, .T. ) ;
#249 = CARTESIAN_POINT ( 'NONE',  ( 80.00000000000000000, 0.000000000000000000, 0.000000000000000000 ) ) ;
#250 = DIRECTION ( 'NONE',  ( -0.5000000000000000000, 0.8660254037844385966, 0.000000000000000000 ) ) ;
#251 = DIRECTION ( 'NONE',  ( 0.5000000000000001110, -0.8660254037844385966, 0.000000000000000000 ) ) ;
#252 = VECTOR ( 'NONE', #35, 1000.000000000000000 ) ;
#253 = PLANE ( 'NONE',  #141 ) ;
#254 = LINE ( 'NONE', #182, #199 ) ;
#255 = DIRECTION ( 'NONE',  ( -0.000000000000000000, -0.000000000000000000, -1.000000000000000000 ) ) ;
#256 = CARTESIAN_POINT ( 'NONE',  ( 40.00000000000000000, 69.28203230275509839, 0.000000000000000000 ) ) ;
#257 = AXIS2_PLACEMENT_3D ( 'NONE', #82, #227, #109 ) ;
#258 = VERTEX_POINT ( 'NONE', #58 ) ;
#259 = EDGE_CURVE ( 'NONE', #258, #62, #233, .T. ) ;
#260 = CARTESIAN_POINT ( 'NONE',  ( 40.00000000000000000, 69.28203230275509839, 15.00000000000000000 ) ) ;
#261 = CARTESIAN_POINT ( 'NONE',  ( 58.45299461620747650, 17.32050807568878525, 10.00000000000000000 ) ) ;
#262 = ORIENTED_EDGE ( 'NONE', *, *, #259, .F. ) ;
#263 = EDGE_CURVE ( 'NONE', #293, #101, #86, .T. ) ;
#264 = EDGE_LOOP ( 'NONE', ( #65, #25, #319, #191 ) ) ;
#265 = VECTOR ( 'NONE', #272, 1000.000000000000227 ) ;
#266 = DIRECTION ( 'NONE',  ( 1.000000000000000000, 0.000000000000000000, 0.000000000000000000 ) ) ;
#267 = ORIENTED_EDGE ( 'NONE', *, *, #94, .T. ) ;
#268 = LINE ( 'NONE', #44, #11 ) ;
#269 = EDGE_CURVE ( 'NONE', #281, #22, #135, .T. ) ;
#270 = LINE ( 'NONE', #294, #96 ) ;
#271 = UNCERTAINTY_MEASURE_WITH_UNIT (LENGTH_MEASURE( 1.000000000000000082E-05 ), #219, 'distance_accuracy_value', 'NONE');
#272 = DIRECTION ( 'NONE',  ( -0.5000000000000000000, 0.8660254037844385966, 0.000000000000000000 ) ) ;
#273 = CARTESIAN_POINT ( 'NONE',  ( 39.99999999999999289, 49.28203230275509839, 15.00000000000000000 ) ) ;
#274 = EDGE_CURVE ( 'NONE', #188, #21, #187, .T. ) ;
#275 = VECTOR ( 'NONE', #250, 1000.000000000000227 ) ;
#276 =( LENGTH_UNIT ( ) NAMED_UNIT ( * ) SI_UNIT ( .MILLI., .METRE. ) );
#277 = CARTESIAN_POINT ( 'NONE',  ( 58.45299461620747650, 17.32050807568878525, 15.00000000000000000 ) ) ;
#278 = VECTOR ( 'NONE', #110, 1000.000000000000000 ) ;
#279 = SURFACE_SIDE_STYLE ('',( #299 ) ) ;
#280 = CARTESIAN_POINT ( 'NONE',  ( 58.45299461620747650, 17.32050807568878525, 10.00000000000000000 ) ) ;
#281 = VERTEX_POINT ( 'NONE', #235 ) ;
#282 = CARTESIAN_POINT ( 'NONE',  ( 40.00000000000000000, 69.28203230275509839, 10.00000000000000000 ) ) ;
#283 = ORIENTED_EDGE ( 'NONE', *, *, #84, .F. ) ;
#284 = EDGE_CURVE ( 'NONE', #293, #16, #57, .T. ) ;
#285 = DIRECTION ( 'NONE',  ( 0.000000000000000000, 1.000000000000000000, 0.000000000000000000 ) ) ;
#286 = AXIS2_PLACEMENT_3D ( 'NONE', #153, #5, #103 ) ;
#287 = DIRECTION ( 'NONE',  ( 1.000000000000000000, -6.009258394948636125E-16, 0.000000000000000000 ) ) ;
#288 = EDGE_LOOP ( 'NONE', ( #184, #92, #70, #168, #40, #186 ) ) ;
#289 = EDGE_CURVE ( 'NONE', #225, #95, #14, .T. ) ;
#290 = PLANE ( 'NONE',  #74 ) ;
#291 = VERTEX_POINT ( 'NONE', #213 ) ;
#292 = SHAPE_DEFINITION_REPRESENTATION ( #150, #78 ) ;
#293 = VERTEX_POINT ( 'NONE', #33 ) ;
#294 = CARTESIAN_POINT ( 'NONE',  ( 80.00000000000000000, 0.000000000000000000, 10.00000000000000000 ) ) ;
#295 = EDGE_LOOP ( 'NONE', ( #162, #147, #215, #220 ) ) ;
#296 = EDGE_LOOP ( 'NONE', ( #90, #136, #47, #267, #172, #36 ) ) ;
#297 = VECTOR ( 'NONE', #38, 1000.000000000000227 ) ;
#298 = ORIENTED_EDGE ( 'NONE', *, *, #63, .T. ) ;
#299 = SURFACE_STYLE_FILL_AREA ( #51 ) ;
#300 = MECHANICAL_DESIGN_GEOMETRIC_PRESENTATION_REPRESENTATION (  '', ( #54 ), #159 ) ;
#301 = CARTESIAN_POINT ( 'NONE',  ( 0.000000000000000000, 0.000000000000000000, 10.00000000000000000 ) ) ;
#302 = PRESENTATION_STYLE_ASSIGNMENT (( #230 ) ) ;
#303 = PLANE ( 'NONE',  #286 ) ;
#304 =( GEOMETRIC_REPRESENTATION_CONTEXT ( 3 ) GLOBAL_UNCERTAINTY_ASSIGNED_CONTEXT ( ( #271 ) ) GLOBAL_UNIT_ASSIGNED_CONTEXT ( ( #219, #195, #174 ) ) REPRESENTATION_CONTEXT ( 'NONE', 'WORKASPACE' ) );
#305 = CARTESIAN_POINT ( 'NONE',  ( 39.99999999999999289, 49.28203230275509839, 15.00000000000000000 ) ) ;
#306 = CARTESIAN_POINT ( 'NONE',  ( 0.000000000000000000, 0.000000000000000000, 10.00000000000000000 ) ) ;
#307 = ORIENTED_EDGE ( 'NONE', *, *, #8, .F. ) ;
#308 = CARTESIAN_POINT ( 'NONE',  ( 58.45299461620747650, 17.32050807568878525, 15.00000000000000000 ) ) ;
#309 = LINE ( 'NONE', #282, #297 ) ;
#310 = AXIS2_PLACEMENT_3D ( 'NONE', #17, #66, #131 ) ;
#311 = EDGE_LOOP ( 'NONE', ( #318, #48, #283, #241 ) ) ;
#312 = DIRECTION ( 'NONE',  ( -1.000000000000000000, 6.009258394948636125E-16, 0.000000000000000000 ) ) ;
#313 = VERTEX_POINT ( 'NONE', #132 ) ;
#314 = VERTEX_POINT ( 'NONE', #13 ) ;
#315 = CARTESIAN_POINT ( 'NONE',  ( 0.000000000000000000, 0.000000000000000000, 10.00000000000000000 ) ) ;
#316 = CARTESIAN_POINT ( 'NONE',  ( 0.000000000000000000, 0.000000000000000000, 0.000000000000000000 ) ) ;
#317 = ADVANCED_FACE ( 'NONE', ( #89 ), #212, .F. ) ;
#318 = ORIENTED_EDGE ( 'NONE', *, *, #130, .T. ) ;
#319 = ORIENTED_EDGE ( 'NONE', *, *, #80, .F. ) ;
ENDSEC;
END-ISO-10303-21;
