# Blender 4.4.0
# www.blender.org
mtllib Dk1i.mtl
o Dk1i
v -0.000000 -0.000000 30.000000
v 10.000000 17.320509 30.000000
v -0.000000 -0.000000 -0.000000
v 10.000000 17.320509 -0.000000
v 20.000000 0.000000 30.000000
v 0.000000 0.000000 30.000000
v 20.000000 0.000000 0.000000
v 0.000000 0.000000 0.000000
v 20.000000 0.000000 -0.000000
v 7.116599 9.858352 30.000000
v 8.325602 10.484807 30.000000
v 15.000000 5.773503 30.000000
v 14.814587 4.424519 30.000000
v 14.272097 3.175583 30.000000
v 13.412766 2.119323 30.000000
v 12.300325 1.334077 30.000000
v 11.017280 0.878082 30.000000
v 9.658789 0.785159 30.000000
v 8.325602 1.062198 30.000000
v 7.116599 1.688653 30.000000
v 9.658789 10.761847 30.000000
v 11.017280 10.668923 30.000000
v 12.300325 10.212929 30.000000
v 6.121444 2.618063 30.000000
v 5.413943 3.781497 30.000000
v 5.046570 5.092669 30.000000
v 13.412766 9.427683 30.000000
v 14.272097 8.371422 30.000000
v 14.814587 7.122487 30.000000
v 5.046570 6.454336 30.000000
v 5.413943 7.765508 30.000000
v 6.121444 8.928943 30.000000
v 10.000000 17.320509 0.000000
v 15.000000 5.773503 10.000000
v 14.814587 7.122487 10.000000
v 14.272097 8.371422 10.000000
v 13.412766 9.427683 10.000000
v 12.300325 10.212929 10.000000
v 11.017280 10.668923 10.000000
v 9.658789 10.761847 10.000000
v 8.325602 10.484807 10.000000
v 7.116599 9.858352 10.000000
v 6.121444 8.928943 10.000000
v 5.413943 7.765508 10.000000
v 5.046570 6.454336 10.000000
v 5.046570 5.092669 10.000000
v 5.413943 3.781497 10.000000
v 6.121444 2.618063 10.000000
v 7.116599 1.688653 10.000000
v 8.325602 1.062198 10.000000
v 9.658789 0.785159 10.000000
v 11.017280 0.878082 10.000000
v 12.300325 1.334077 10.000000
v 13.412766 2.119323 10.000000
v 14.272097 3.175583 10.000000
v 14.814587 4.424519 10.000000
v 10.000000 5.773503 10.000000
vn -0.8660 0.5000 -0.0000
vn -0.0000 -1.0000 -0.0000
vn 0.8660 0.5000 -0.0000
vn -0.0000 -0.0000 1.0000
vn -0.0000 -0.0000 -1.0000
vn -0.9907 -0.1362 -0.0000
vn -0.9172 -0.3984 -0.0000
vn -0.7757 -0.6311 -0.0000
vn -0.5767 -0.8170 -0.0000
vn -0.3349 -0.9423 -0.0000
vn -0.0682 -0.9977 -0.0000
vn 0.2035 -0.9791 -0.0000
vn 0.4601 -0.8879 -0.0000
vn 0.6826 -0.7308 -0.0000
vn 0.8544 -0.5196 -0.0000
vn 0.9629 -0.2698 -0.0000
vn 1.0000 -0.0000 -0.0000
vn 0.9629 0.2698 -0.0000
vn 0.8544 0.5196 -0.0000
vn 0.6826 0.7308 -0.0000
vn 0.4601 0.8879 -0.0000
vn 0.2035 0.9791 -0.0000
vn -0.0682 0.9977 -0.0000
vn -0.3349 0.9423 -0.0000
vn -0.5767 0.8170 -0.0000
vn -0.7757 0.6311 -0.0000
vn -0.9172 0.3984 -0.0000
vn -0.9907 0.1362 -0.0000
s 0
f 1//1 2//1 3//1
f 3//1 2//1 4//1
f 5//2 6//2 7//2
f 7//2 6//2 8//2
f 2//3 5//3 4//3
f 4//3 5//3 9//3
f 10//4 11//4 2//4
f 5//4 12//4 13//4
f 13//4 14//4 5//4
f 5//4 14//4 15//4
f 5//4 15//4 16//4
f 16//4 17//4 5//4
f 5//4 17//4 18//4
f 5//4 18//4 6//4
f 6//4 18//4 19//4
f 6//4 19//4 20//4
f 11//4 21//4 2//4
f 2//4 21//4 22//4
f 2//4 22//4 23//4
f 20//4 24//4 6//4
f 6//4 24//4 25//4
f 6//4 25//4 26//4
f 23//4 27//4 2//4
f 2//4 27//4 28//4
f 2//4 28//4 5//4
f 5//4 28//4 29//4
f 5//4 29//4 12//4
f 26//4 30//4 6//4
f 6//4 30//4 31//4
f 6//4 31//4 2//4
f 2//4 31//4 32//4
f 2//4 32//4 10//4
f 33//5 7//5 8//5
f 34//6 12//6 35//6
f 35//6 12//6 29//6
f 35//7 29//7 36//7
f 36//7 29//7 28//7
f 36//8 28//8 37//8
f 37//8 28//8 27//8
f 37//9 27//9 38//9
f 38//9 27//9 23//9
f 38//10 23//10 39//10
f 39//10 23//10 22//10
f 39//11 22//11 40//11
f 40//11 22//11 21//11
f 40//12 21//12 41//12
f 41//12 21//12 11//12
f 41//13 11//13 42//13
f 42//13 11//13 10//13
f 42//14 10//14 43//14
f 43//14 10//14 32//14
f 43//15 32//15 44//15
f 44//15 32//15 31//15
f 44//16 31//16 45//16
f 45//16 31//16 30//16
f 45//17 30//17 46//17
f 46//17 30//17 26//17
f 46//18 26//18 47//18
f 47//18 26//18 25//18
f 47//19 25//19 48//19
f 48//19 25//19 24//19
f 48//20 24//20 49//20
f 49//20 24//20 20//20
f 49//21 20//21 50//21
f 50//21 20//21 19//21
f 50//22 19//22 51//22
f 51//22 19//22 18//22
f 51//23 18//23 52//23
f 52//23 18//23 17//23
f 52//24 17//24 53//24
f 53//24 17//24 16//24
f 53//25 16//25 54//25
f 54//25 16//25 15//25
f 54//26 15//26 55//26
f 55//26 15//26 14//26
f 55//27 14//27 56//27
f 56//27 14//27 13//27
f 56//28 13//28 34//28
f 34//28 13//28 12//28
f 34//4 35//4 57//4
f 34//4 57//4 56//4
f 53//4 54//4 57//4
f 57//4 54//4 55//4
f 57//4 55//4 56//4
f 50//4 51//4 57//4
f 57//4 51//4 52//4
f 57//4 52//4 53//4
f 47//4 48//4 57//4
f 57//4 48//4 49//4
f 57//4 49//4 50//4
f 44//4 45//4 57//4
f 57//4 45//4 46//4
f 57//4 46//4 47//4
f 41//4 42//4 57//4
f 57//4 42//4 43//4
f 57//4 43//4 44//4
f 38//4 39//4 57//4
f 57//4 39//4 40//4
f 57//4 40//4 41//4
f 35//4 36//4 57//4
f 57//4 36//4 37//4
f 57//4 37//4 38//4
