ISO-10303-21;
HEADER;
FILE_DESCRIPTION (( 'STEP AP214' ),
    '1' );
FILE_NAME ('Dk1i.STEP',
    '2025-09-08T12:43:31',
    ( '' ),
    ( '' ),
    'SwSTEP 2.0',
    'SolidWorks 2024',
    '' );
FILE_SCHEMA (( 'AUTOMOTIVE_DESIGN' ));
ENDSEC;

DATA;
#1 = EDGE_CURVE ( 'NONE', #200, #97, #90, .T. ) ;
#2 = DIRECTION ( 'NONE',  ( -0.000000000000000000, -0.000000000000000000, 1.000000000000000000 ) ) ;
#3 = VERTEX_POINT ( 'NONE', #29 ) ;
#4 = CIRCLE ( 'NONE', #162, 5.000000000000002665 ) ;
#5 = CARTESIAN_POINT ( 'NONE',  ( 15.00000000000000355, 5.773502692000000103, 9.999999999999998224 ) ) ;
#6 = ORIENTED_EDGE ( 'NONE', *, *, #84, .F. ) ;
#7 = ORIENTED_EDGE ( 'NONE', *, *, #88, .F. ) ;
#8 = VECTOR ( 'NONE', #87, 1000.000000000000227 ) ;
#9 = ORIENTED_EDGE ( 'NONE', *, *, #104, .T. ) ;
#10 = DIRECTION ( 'NONE',  ( 1.000000000000000000, 0.000000000000000000, 0.000000000000000000 ) ) ;
#11 = PLANE ( 'NONE',  #34 ) ;
#12 = EDGE_LOOP ( 'NONE', ( #166, #82 ) ) ;
#13 = PLANE ( 'NONE',  #76 ) ;
#14 = APPLICATION_CONTEXT ( 'automotive_design' ) ;
#15 = CARTESIAN_POINT ( 'NONE',  ( 10.00000000000000000, 5.773502692000000103, 9.999999999999998224 ) ) ;
#16 = CARTESIAN_POINT ( 'NONE',  ( 4.999999999999997335, 5.773502692000000991, 30.00000000000000000 ) ) ;
#17 = ADVANCED_FACE ( 'NONE', ( #98 ), #11, .F. ) ;
#18 = COLOUR_RGB ( '',0.7921568627450980005, 0.8196078431372548767, 0.9333333333333333481 ) ;
#19 = EDGE_CURVE ( 'NONE', #80, #45, #28, .T. ) ;
#20 = CARTESIAN_POINT ( 'NONE',  ( 0.000000000000000000, 0.000000000000000000, 30.00000000000000000 ) ) ;
#21 = EDGE_LOOP ( 'NONE', ( #183, #164 ) ) ;
#22 = PLANE ( 'NONE',  #195 ) ;
#23 = EDGE_LOOP ( 'NONE', ( #151, #174, #203, #58 ) ) ;
#24 = DIRECTION ( 'NONE',  ( -0.000000000000000000, -0.000000000000000000, -1.000000000000000000 ) ) ;
#25 = EDGE_LOOP ( 'NONE', ( #113, #96, #7, #69 ) ) ;
#26 = EDGE_LOOP ( 'NONE', ( #6, #169, #179 ) ) ;
#27 =( NAMED_UNIT ( * ) PLANE_ANGLE_UNIT ( ) SI_UNIT ( $, .RADIAN. ) );
#28 = LINE ( 'NONE', #102, #74 ) ;
#29 = CARTESIAN_POINT ( 'NONE',  ( 0.000000000000000000, 0.000000000000000000, 30.00000000000000000 ) ) ;
#30 = AXIS2_PLACEMENT_3D ( 'NONE', #15, #2, #60 ) ;
#31 = DIRECTION ( 'NONE',  ( 0.000000000000000000, 1.000000000000000000, 0.000000000000000000 ) ) ;
#32 = SURFACE_STYLE_USAGE ( .BOTH. , #105 ) ;
#33 = CARTESIAN_POINT ( 'NONE',  ( 10.00000000000000000, 17.32050807568877460, 30.00000000000000000 ) ) ;
#34 = AXIS2_PLACEMENT_3D ( 'NONE', #189, #173, #86 ) ;
#35 = LINE ( 'NONE', #180, #205 ) ;
#36 = ADVANCED_FACE ( 'NONE', ( #68 ), #209, .F. ) ;
#37 = VECTOR ( 'NONE', #193, 1000.000000000000000 ) ;
#38 = DIRECTION ( 'NONE',  ( -0.000000000000000000, -0.000000000000000000, 1.000000000000000000 ) ) ;
#39 = DIRECTION ( 'NONE',  ( 1.000000000000000000, 0.000000000000000000, 0.000000000000000000 ) ) ;
#40 = ORIENTED_EDGE ( 'NONE', *, *, #165, .F. ) ;
#41 = CARTESIAN_POINT ( 'NONE',  ( 4.999999999999997335, 5.773502692000000991, 9.999999999999998224 ) ) ;
#42 = VERTEX_POINT ( 'NONE', #50 ) ;
#43 = PRESENTATION_LAYER_ASSIGNMENT (  '', '', ( #181 ) ) ;
#44 = ORIENTED_EDGE ( 'NONE', *, *, #127, .F. ) ;
#45 = VERTEX_POINT ( 'NONE', #223 ) ;
#46 = DIRECTION ( 'NONE',  ( 1.000000000000000000, 0.000000000000000000, 0.000000000000000000 ) ) ;
#47 = EDGE_CURVE ( 'NONE', #42, #3, #134, .T. ) ;
#48 = DIRECTION ( 'NONE',  ( 0.000000000000000000, 0.000000000000000000, 1.000000000000000000 ) ) ;
#49 = VECTOR ( 'NONE', #230, 1000.000000000000227 ) ;
#50 = CARTESIAN_POINT ( 'NONE',  ( 10.00000000000000000, 17.32050807568877460, 30.00000000000000000 ) ) ;
#51 = CARTESIAN_POINT ( 'NONE',  ( 10.00000000000000000, 17.32050807568877460, 30.00000000000000000 ) ) ;
#52 = DIRECTION ( 'NONE',  ( 1.000000000000000000, 0.000000000000000000, 0.000000000000000000 ) ) ;
#53 = AXIS2_PLACEMENT_3D ( 'NONE', #224, #185, #10 ) ;
#54 = FACE_OUTER_BOUND ( 'NONE', #112, .T. ) ;
#55 = AXIS2_PLACEMENT_3D ( 'NONE', #99, #152, #210 ) ;
#56 = ORIENTED_EDGE ( 'NONE', *, *, #226, .F. ) ;
#57 = DIRECTION ( 'NONE',  ( -0.5000000000000000000, 0.8660254037844385966, 0.000000000000000000 ) ) ;
#58 = ORIENTED_EDGE ( 'NONE', *, *, #142, .F. ) ;
#59 = MANIFOLD_SOLID_BREP ( 'Schnitt-Linear austragen1', #222 ) ;
#60 = DIRECTION ( 'NONE',  ( 1.000000000000000000, 0.000000000000000000, 0.000000000000000000 ) ) ;
#61 = ADVANCED_FACE ( 'NONE', ( #120 ), #13, .F. ) ;
#62 = EDGE_LOOP ( 'NONE', ( #156, #56, #77, #220 ) ) ;
#63 = APPLICATION_PROTOCOL_DEFINITION ( 'draft international standard', 'automotive_design', 1998, #147 ) ;
#64 = ADVANCED_FACE ( 'NONE', ( #138 ), #211, .T. ) ;
#65 =( LENGTH_UNIT ( ) NAMED_UNIT ( * ) SI_UNIT ( .MILLI., .METRE. ) );
#66 = FILL_AREA_STYLE_COLOUR ( '', #18 ) ;
#67 = DIRECTION ( 'NONE',  ( 0.000000000000000000, 0.000000000000000000, 1.000000000000000000 ) ) ;
#68 = FACE_OUTER_BOUND ( 'NONE', #216, .T. ) ;
#69 = ORIENTED_EDGE ( 'NONE', *, *, #226, .T. ) ;
#70 =( NAMED_UNIT ( * ) PLANE_ANGLE_UNIT ( ) SI_UNIT ( $, .RADIAN. ) );
#71 = CARTESIAN_POINT ( 'NONE',  ( 10.00000000000000000, 5.773502692000000103, 9.999999999999998224 ) ) ;
#72 = LINE ( 'NONE', #175, #8 ) ;
#73 = CARTESIAN_POINT ( 'NONE',  ( 10.00000000000000000, 5.773502692000000103, 30.00000000000000000 ) ) ;
#74 = VECTOR ( 'NONE', #190, 1000.000000000000000 ) ;
#75 = CARTESIAN_POINT ( 'NONE',  ( 0.000000000000000000, 0.000000000000000000, 0.000000000000000000 ) ) ;
#76 = AXIS2_PLACEMENT_3D ( 'NONE', #171, #31, #187 ) ;
#77 = ORIENTED_EDGE ( 'NONE', *, *, #47, .F. ) ;
#78 = EDGE_CURVE ( 'NONE', #45, #170, #123, .T. ) ;
#79 = LINE ( 'NONE', #149, #89 ) ;
#80 = VERTEX_POINT ( 'NONE', #75 ) ;
#81 = VERTEX_POINT ( 'NONE', #157 ) ;
#82 = ORIENTED_EDGE ( 'NONE', *, *, #208, .F. ) ;
#83 = FILL_AREA_STYLE ('',( #66 ) ) ;
#84 = EDGE_CURVE ( 'NONE', #170, #80, #72, .T. ) ;
#85 = UNCERTAINTY_MEASURE_WITH_UNIT (LENGTH_MEASURE( 1.000000000000000082E-05 ), #65, 'distance_accuracy_value', 'NONE');
#86 = DIRECTION ( 'NONE',  ( 1.000000000000000000, 0.000000000000000000, 0.000000000000000000 ) ) ;
#87 = DIRECTION ( 'NONE',  ( -0.5000000000000000000, -0.8660254037844385966, 0.000000000000000000 ) ) ;
#88 = EDGE_CURVE ( 'NONE', #3, #81, #95, .T. ) ;
#89 = VECTOR ( 'NONE', #38, 1000.000000000000000 ) ;
#90 = CIRCLE ( 'NONE', #53, 5.000000000000002665 ) ;
#91 = CARTESIAN_POINT ( 'NONE',  ( 10.00000000000000000, 5.773502692000000103, 30.00000000000000000 ) ) ;
#92 = DIRECTION ( 'NONE',  ( 1.000000000000000000, 0.000000000000000000, 0.000000000000000000 ) ) ;
#93 = CARTESIAN_POINT ( 'NONE',  ( 10.00000000000000000, 17.32050807568877460, 0.000000000000000000 ) ) ;
#94 = ORIENTED_EDGE ( 'NONE', *, *, #47, .T. ) ;
#95 = LINE ( 'NONE', #233, #139 ) ;
#96 = ORIENTED_EDGE ( 'NONE', *, *, #188, .F. ) ;
#97 = VERTEX_POINT ( 'NONE', #5 ) ;
#98 = FACE_OUTER_BOUND ( 'NONE', #26, .T. ) ;
#99 = CARTESIAN_POINT ( 'NONE',  ( 20.00000000000000000, 0.000000000000000000, 30.00000000000000000 ) ) ;
#100 = SURFACE_STYLE_FILL_AREA ( #83 ) ;
#101 = VECTOR ( 'NONE', #57, 1000.000000000000227 ) ;
#102 = CARTESIAN_POINT ( 'NONE',  ( 0.000000000000000000, 0.000000000000000000, 0.000000000000000000 ) ) ;
#103 = PRODUCT_DEFINITION_SHAPE ( 'NONE', 'NONE',  #153 ) ;
#104 = EDGE_CURVE ( 'NONE', #204, #114, #218, .T. ) ;
#105 = SURFACE_SIDE_STYLE ('',( #100 ) ) ;
#106 = FACE_OUTER_BOUND ( 'NONE', #62, .T. ) ;
#107 = DIRECTION ( 'NONE',  ( 0.000000000000000000, 0.000000000000000000, 1.000000000000000000 ) ) ;
#108 = CARTESIAN_POINT ( 'NONE',  ( 10.00000000000000000, 5.773502692000000103, 9.999999999999998224 ) ) ;
#109 = PRODUCT ( 'Dk1i', 'Dk1i', '', ( #130 ) ) ;
#110 = PRODUCT_RELATED_PRODUCT_CATEGORY ( 'part', '', ( #109 ) ) ;
#111 = DIRECTION ( 'NONE',  ( 1.000000000000000000, 0.000000000000000000, 0.000000000000000000 ) ) ;
#112 = EDGE_LOOP ( 'NONE', ( #94, #167, #118 ) ) ;
#113 = ORIENTED_EDGE ( 'NONE', *, *, #19, .T. ) ;
#114 = VERTEX_POINT ( 'NONE', #16 ) ;
#115 = CARTESIAN_POINT ( 'NONE',  ( 0.000000000000000000, 0.000000000000000000, 0.000000000000000000 ) ) ;
#116 = VECTOR ( 'NONE', #177, 1000.000000000000000 ) ;
#117 = DIRECTION ( 'NONE',  ( 1.000000000000000000, 0.000000000000000000, -0.000000000000000000 ) ) ;
#118 = ORIENTED_EDGE ( 'NONE', *, *, #132, .T. ) ;
#119 = UNCERTAINTY_MEASURE_WITH_UNIT (LENGTH_MEASURE( 1.000000000000000082E-05 ), #227, 'distance_accuracy_value', 'NONE');
#120 = FACE_OUTER_BOUND ( 'NONE', #25, .T. ) ;
#121 = CARTESIAN_POINT ( 'NONE',  ( 10.00000000000000000, 5.773502692000000103, 9.999999999999998224 ) ) ;
#122 = FACE_BOUND ( 'NONE', #12, .T. ) ;
#123 = LINE ( 'NONE', #143, #172 ) ;
#124 = CIRCLE ( 'NONE', #133, 5.000000000000002665 ) ;
#125 = AXIS2_PLACEMENT_3D ( 'NONE', #115, #67, #46 ) ;
#126 = FACE_OUTER_BOUND ( 'NONE', #137, .T. ) ;
#127 = EDGE_CURVE ( 'NONE', #97, #200, #124, .T. ) ;
#128 = DIRECTION ( 'NONE',  ( 0.8660254037844387076, -0.5000000000000001110, 0.000000000000000000 ) ) ;
#129 = LINE ( 'NONE', #199, #37 ) ;
#130 = PRODUCT_CONTEXT ( 'NONE', #147, 'mechanical' ) ;
#131 =( NAMED_UNIT ( * ) SI_UNIT ( $, .STERADIAN. ) SOLID_ANGLE_UNIT ( ) );
#132 = EDGE_CURVE ( 'NONE', #81, #42, #197, .T. ) ;
#133 = AXIS2_PLACEMENT_3D ( 'NONE', #71, #140, #52 ) ;
#134 = LINE ( 'NONE', #155, #49 ) ;
#135 = AXIS2_PLACEMENT_3D ( 'NONE', #108, #178, #160 ) ;
#136 = PRODUCT_DEFINITION_CONTEXT ( 'detailed design', #14, 'design' ) ;
#137 = EDGE_LOOP ( 'NONE', ( #148, #44, #206, #9 ) ) ;
#138 = FACE_OUTER_BOUND ( 'NONE', #21, .T. ) ;
#139 = VECTOR ( 'NONE', #234, 1000.000000000000000 ) ;
#140 = DIRECTION ( 'NONE',  ( 0.000000000000000000, 0.000000000000000000, 1.000000000000000000 ) ) ;
#141 = DIRECTION ( 'NONE',  ( 0.5000000000000000000, 0.8660254037844385966, 0.000000000000000000 ) ) ;
#142 = EDGE_CURVE ( 'NONE', #97, #204, #79, .T. ) ;
#143 = CARTESIAN_POINT ( 'NONE',  ( 20.00000000000000000, 0.000000000000000000, 0.000000000000000000 ) ) ;
#144 = AXIS2_PLACEMENT_3D ( 'NONE', #121, #48, #117 ) ;
#145 = LINE ( 'NONE', #219, #194 ) ;
#146 =( GEOMETRIC_REPRESENTATION_CONTEXT ( 3 ) GLOBAL_UNCERTAINTY_ASSIGNED_CONTEXT ( ( #85 ) ) GLOBAL_UNIT_ASSIGNED_CONTEXT ( ( #65, #27, #207 ) ) REPRESENTATION_CONTEXT ( 'NONE', 'WORKASPACE' ) );
#147 = APPLICATION_CONTEXT ( 'automotive_design' ) ;
#148 = ORIENTED_EDGE ( 'NONE', *, *, #198, .F. ) ;
#149 = CARTESIAN_POINT ( 'NONE',  ( 15.00000000000000355, 5.773502692000000103, 9.999999999999998224 ) ) ;
#150 = ADVANCED_FACE ( 'NONE', ( #106 ), #215, .F. ) ;
#151 = ORIENTED_EDGE ( 'NONE', *, *, #1, .F. ) ;
#152 = DIRECTION ( 'NONE',  ( -0.8660254037844387076, -0.5000000000000001110, 0.000000000000000000 ) ) ;
#153 = PRODUCT_DEFINITION ( 'UNKNOWN', '', #232, #136 ) ;
#154 = ORIENTED_EDGE ( 'NONE', *, *, #132, .F. ) ;
#155 = CARTESIAN_POINT ( 'NONE',  ( 10.00000000000000000, 17.32050807568877460, 30.00000000000000000 ) ) ;
#156 = ORIENTED_EDGE ( 'NONE', *, *, #84, .T. ) ;
#157 = CARTESIAN_POINT ( 'NONE',  ( 20.00000000000000000, 0.000000000000000000, 30.00000000000000000 ) ) ;
#158 = CARTESIAN_POINT ( 'NONE',  ( 20.00000000000000000, 0.000000000000000000, 30.00000000000000000 ) ) ;
#159 = DIRECTION ( 'NONE',  ( -0.5000000000000000000, 0.8660254037844385966, 0.000000000000000000 ) ) ;
#160 = DIRECTION ( 'NONE',  ( 1.000000000000000000, 0.000000000000000000, 0.000000000000000000 ) ) ;
#161 = ORIENTED_EDGE ( 'NONE', *, *, #188, .T. ) ;
#162 = AXIS2_PLACEMENT_3D ( 'NONE', #91, #107, #92 ) ;
#163 = CYLINDRICAL_SURFACE ( 'NONE', #30, 5.000000000000002665 ) ;
#164 = ORIENTED_EDGE ( 'NONE', *, *, #1, .T. ) ;
#165 = EDGE_CURVE ( 'NONE', #42, #170, #213, .T. ) ;
#166 = ORIENTED_EDGE ( 'NONE', *, *, #104, .F. ) ;
#167 = ORIENTED_EDGE ( 'NONE', *, *, #88, .T. ) ;
#168 = ADVANCED_FACE ( 'NONE', ( #122, #54 ), #22, .T. ) ;
#169 = ORIENTED_EDGE ( 'NONE', *, *, #78, .F. ) ;
#170 = VERTEX_POINT ( 'NONE', #93 ) ;
#171 = CARTESIAN_POINT ( 'NONE',  ( 0.000000000000000000, 0.000000000000000000, 30.00000000000000000 ) ) ;
#172 = VECTOR ( 'NONE', #159, 1000.000000000000227 ) ;
#173 = DIRECTION ( 'NONE',  ( -0.000000000000000000, 0.000000000000000000, 1.000000000000000000 ) ) ;
#174 = ORIENTED_EDGE ( 'NONE', *, *, #198, .T. ) ;
#175 = CARTESIAN_POINT ( 'NONE',  ( 10.00000000000000000, 17.32050807568877460, 0.000000000000000000 ) ) ;
#176 =( GEOMETRIC_REPRESENTATION_CONTEXT ( 3 ) GLOBAL_UNCERTAINTY_ASSIGNED_CONTEXT ( ( #119 ) ) GLOBAL_UNIT_ASSIGNED_CONTEXT ( ( #227, #70, #131 ) ) REPRESENTATION_CONTEXT ( 'NONE', 'WORKASPACE' ) );
#177 = DIRECTION ( 'NONE',  ( -0.000000000000000000, -0.000000000000000000, -1.000000000000000000 ) ) ;
#178 = DIRECTION ( 'NONE',  ( -0.000000000000000000, -0.000000000000000000, 1.000000000000000000 ) ) ;
#179 = ORIENTED_EDGE ( 'NONE', *, *, #19, .F. ) ;
#180 = CARTESIAN_POINT ( 'NONE',  ( 20.00000000000000000, 0.000000000000000000, 30.00000000000000000 ) ) ;
#181 = STYLED_ITEM ( 'NONE', ( #228 ), #59 ) ;
#182 = CARTESIAN_POINT ( 'NONE',  ( 15.00000000000000355, 5.773502692000000103, 30.00000000000000000 ) ) ;
#183 = ORIENTED_EDGE ( 'NONE', *, *, #127, .T. ) ;
#184 = MECHANICAL_DESIGN_GEOMETRIC_PRESENTATION_REPRESENTATION (  '', ( #181 ), #176 ) ;
#185 = DIRECTION ( 'NONE',  ( 0.000000000000000000, 0.000000000000000000, 1.000000000000000000 ) ) ;
#186 = ORIENTED_EDGE ( 'NONE', *, *, #78, .T. ) ;
#187 = DIRECTION ( 'NONE',  ( 0.000000000000000000, -0.000000000000000000, 1.000000000000000000 ) ) ;
#188 = EDGE_CURVE ( 'NONE', #81, #45, #35, .T. ) ;
#189 = CARTESIAN_POINT ( 'NONE',  ( 0.000000000000000000, 0.000000000000000000, 0.000000000000000000 ) ) ;
#190 = DIRECTION ( 'NONE',  ( 1.000000000000000000, 0.000000000000000000, 0.000000000000000000 ) ) ;
#191 = ADVANCED_FACE ( 'NONE', ( #214 ), #163, .F. ) ;
#192 = DIRECTION ( 'NONE',  ( -0.000000000000000000, -0.000000000000000000, -1.000000000000000000 ) ) ;
#193 = DIRECTION ( 'NONE',  ( -0.000000000000000000, -0.000000000000000000, 1.000000000000000000 ) ) ;
#194 = VECTOR ( 'NONE', #24, 1000.000000000000000 ) ;
#195 = AXIS2_PLACEMENT_3D ( 'NONE', #20, #221, #39 ) ;
#196 = CYLINDRICAL_SURFACE ( 'NONE', #135, 5.000000000000002665 ) ;
#197 = LINE ( 'NONE', #158, #101 ) ;
#198 = EDGE_CURVE ( 'NONE', #200, #114, #129, .T. ) ;
#199 = CARTESIAN_POINT ( 'NONE',  ( 4.999999999999997335, 5.773502692000000991, 9.999999999999998224 ) ) ;
#200 = VERTEX_POINT ( 'NONE', #41 ) ;
#201 = AXIS2_PLACEMENT_3D ( 'NONE', #73, #231, #111 ) ;
#202 = SHAPE_DEFINITION_REPRESENTATION ( #103, #229 ) ;
#203 = ORIENTED_EDGE ( 'NONE', *, *, #208, .T. ) ;
#204 = VERTEX_POINT ( 'NONE', #182 ) ;
#205 = VECTOR ( 'NONE', #192, 1000.000000000000000 ) ;
#206 = ORIENTED_EDGE ( 'NONE', *, *, #142, .T. ) ;
#207 =( NAMED_UNIT ( * ) SI_UNIT ( $, .STERADIAN. ) SOLID_ANGLE_UNIT ( ) );
#208 = EDGE_CURVE ( 'NONE', #114, #204, #4, .T. ) ;
#209 = PLANE ( 'NONE',  #55 ) ;
#210 = DIRECTION ( 'NONE',  ( 0.5000000000000000000, -0.8660254037844385966, 0.000000000000000000 ) ) ;
#211 = PLANE ( 'NONE',  #144 ) ;
#212 = ADVANCED_FACE ( 'NONE', ( #126 ), #196, .F. ) ;
#213 = LINE ( 'NONE', #33, #116 ) ;
#214 = FACE_OUTER_BOUND ( 'NONE', #23, .T. ) ;
#215 = PLANE ( 'NONE',  #217 ) ;
#216 = EDGE_LOOP ( 'NONE', ( #186, #40, #154, #161 ) ) ;
#217 = AXIS2_PLACEMENT_3D ( 'NONE', #51, #128, #141 ) ;
#218 = CIRCLE ( 'NONE', #201, 5.000000000000002665 ) ;
#219 = CARTESIAN_POINT ( 'NONE',  ( 0.000000000000000000, 0.000000000000000000, 30.00000000000000000 ) ) ;
#220 = ORIENTED_EDGE ( 'NONE', *, *, #165, .T. ) ;
#221 = DIRECTION ( 'NONE',  ( -0.000000000000000000, 0.000000000000000000, 1.000000000000000000 ) ) ;
#222 = CLOSED_SHELL ( 'NONE', ( #191, #150, #61, #36, #168, #17, #212, #64 ) ) ;
#223 = CARTESIAN_POINT ( 'NONE',  ( 20.00000000000000000, 0.000000000000000000, 0.000000000000000000 ) ) ;
#224 = CARTESIAN_POINT ( 'NONE',  ( 10.00000000000000000, 5.773502692000000103, 9.999999999999998224 ) ) ;
#225 = APPLICATION_PROTOCOL_DEFINITION ( 'draft international standard', 'automotive_design', 1998, #14 ) ;
#226 = EDGE_CURVE ( 'NONE', #3, #80, #145, .T. ) ;
#227 =( LENGTH_UNIT ( ) NAMED_UNIT ( * ) SI_UNIT ( .MILLI., .METRE. ) );
#228 = PRESENTATION_STYLE_ASSIGNMENT (( #32 ) ) ;
#229 = ADVANCED_BREP_SHAPE_REPRESENTATION ( 'Dk1i', ( #59, #125 ), #146 ) ;
#230 = DIRECTION ( 'NONE',  ( -0.5000000000000000000, -0.8660254037844385966, 0.000000000000000000 ) ) ;
#231 = DIRECTION ( 'NONE',  ( 0.000000000000000000, 0.000000000000000000, 1.000000000000000000 ) ) ;
#232 = PRODUCT_DEFINITION_FORMATION_WITH_SPECIFIED_SOURCE ( 'ANY', '', #109, .NOT_KNOWN. ) ;
#233 = CARTESIAN_POINT ( 'NONE',  ( 0.000000000000000000, 0.000000000000000000, 30.00000000000000000 ) ) ;
#234 = DIRECTION ( 'NONE',  ( 1.000000000000000000, 0.000000000000000000, 0.000000000000000000 ) ) ;
ENDSEC;
END-ISO-10303-21;
