ISO-10303-21;
HEADER;
FILE_DESCRIPTION (( 'STEP AP214' ),
    '1' );
FILE_NAME ('Dk2a.STEP',
    '2025-09-08T12:43:11',
    ( '' ),
    ( '' ),
    'SwSTEP 2.0',
    'SolidWorks 2024',
    '' );
FILE_SCHEMA (( 'AUTOMOTIVE_DESIGN' ));
ENDSEC;

DATA;
#1 = EDGE_CURVE ( 'NONE', #106, #235, #87, .T. ) ;
#2 = ORIENTED_EDGE ( 'NONE', *, *, #38, .F. ) ;
#3 = AXIS2_PLACEMENT_3D ( 'NONE', #147, #46, #169 ) ;
#4 = ORIENTED_EDGE ( 'NONE', *, *, #158, .F. ) ;
#5 = VERTEX_POINT ( 'NONE', #241 ) ;
#6 = ADVANCED_FACE ( 'NONE', ( #61 ), #24, .F. ) ;
#7 = PRODUCT ( 'Dk2a', 'Dk2a', '', ( #171 ) ) ;
#8 = CARTESIAN_POINT ( 'NONE',  ( 0.000000000000000000, 0.000000000000000000, 0.000000000000000000 ) ) ;
#9 = CARTESIAN_POINT ( 'NONE',  ( 20.00000000000000000, 0.000000000000000000, 30.00000000000000000 ) ) ;
#10 =( NAMED_UNIT ( * ) SI_UNIT ( $, .STERADIAN. ) SOLID_ANGLE_UNIT ( ) );
#11 = DIRECTION ( 'NONE',  ( 1.000000000000000000, 0.000000000000000000, 0.000000000000000000 ) ) ;
#12 = AXIS2_PLACEMENT_3D ( 'NONE', #129, #72, #206 ) ;
#13 = CARTESIAN_POINT ( 'NONE',  ( 20.99999999999999645, 8.660254037844387298, -1.387778780781445676E-14 ) ) ;
#14 = LINE ( 'NONE', #151, #163 ) ;
#15 = ORIENTED_EDGE ( 'NONE', *, *, #91, .T. ) ;
#16 = CARTESIAN_POINT ( 'NONE',  ( 10.00000000000000000, 17.32050807568877460, 0.000000000000000000 ) ) ;
#17 = EDGE_LOOP ( 'NONE', ( #4, #97, #2, #256 ) ) ;
#18 = CARTESIAN_POINT ( 'NONE',  ( 0.000000000000000000, 0.000000000000000000, 0.000000000000000000 ) ) ;
#19 = VERTEX_POINT ( 'NONE', #41 ) ;
#20 = AXIS2_PLACEMENT_3D ( 'NONE', #105, #109, #168 ) ;
#21 = VERTEX_POINT ( 'NONE', #127 ) ;
#22 = ORIENTED_EDGE ( 'NONE', *, *, #150, .F. ) ;
#23 = ADVANCED_FACE ( 'NONE', ( #63 ), #141, .F. ) ;
#24 = PLANE ( 'NONE',  #55 ) ;
#25 = ORIENTED_EDGE ( 'NONE', *, *, #233, .T. ) ;
#26 = UNCERTAINTY_MEASURE_WITH_UNIT (LENGTH_MEASURE( 1.000000000000000082E-05 ), #173, 'distance_accuracy_value', 'NONE');
#27 = PRODUCT_DEFINITION ( 'UNKNOWN', '', #90, #86 ) ;
#28 = ORIENTED_EDGE ( 'NONE', *, *, #243, .F. ) ;
#29 = ORIENTED_EDGE ( 'NONE', *, *, #233, .F. ) ;
#30 = DIRECTION ( 'NONE',  ( 0.000000000000000000, 0.000000000000000000, 1.000000000000000000 ) ) ;
#31 = LINE ( 'NONE', #149, #242 ) ;
#32 = CARTESIAN_POINT ( 'NONE',  ( 0.000000000000000000, 0.000000000000000000, 0.000000000000000000 ) ) ;
#33 = ORIENTED_EDGE ( 'NONE', *, *, #177, .T. ) ;
#34 = DIRECTION ( 'NONE',  ( -0.5000000000000000000, -0.8660254037844385966, 0.000000000000000000 ) ) ;
#35 = ORIENTED_EDGE ( 'NONE', *, *, #177, .F. ) ;
#36 = ORIENTED_EDGE ( 'NONE', *, *, #120, .T. ) ;
#37 = DIRECTION ( 'NONE',  ( -0.000000000000000000, -0.000000000000000000, -1.000000000000000000 ) ) ;
#38 = EDGE_CURVE ( 'NONE', #172, #99, #160, .T. ) ;
#39 = DIRECTION ( 'NONE',  ( -0.000000000000000000, -0.000000000000000000, -1.000000000000000000 ) ) ;
#40 = PLANE ( 'NONE',  #20 ) ;
#41 = CARTESIAN_POINT ( 'NONE',  ( 20.99999999999999645, 8.660254037844387298, -1.387778780781445676E-14 ) ) ;
#42 = VECTOR ( 'NONE', #248, 1000.000000000000000 ) ;
#43 = CARTESIAN_POINT ( 'NONE',  ( 0.000000000000000000, 0.000000000000000000, 30.00000000000000000 ) ) ;
#44 = DIRECTION ( 'NONE',  ( 0.000000000000000000, 0.000000000000000000, 1.000000000000000000 ) ) ;
#45 = AXIS2_PLACEMENT_3D ( 'NONE', #93, #30, #245 ) ;
#46 = DIRECTION ( 'NONE',  ( 0.000000000000000000, 0.000000000000000000, 1.000000000000000000 ) ) ;
#47 =( NAMED_UNIT ( * ) PLANE_ANGLE_UNIT ( ) SI_UNIT ( $, .RADIAN. ) );
#48 = FILL_AREA_STYLE ('',( #246 ) ) ;
#49 = AXIS2_PLACEMENT_3D ( 'NONE', #110, #66, #204 ) ;
#50 = ORIENTED_EDGE ( 'NONE', *, *, #158, .T. ) ;
#51 =( NAMED_UNIT ( * ) PLANE_ANGLE_UNIT ( ) SI_UNIT ( $, .RADIAN. ) );
#52 = ORIENTED_EDGE ( 'NONE', *, *, #91, .F. ) ;
#53 = SHAPE_DEFINITION_REPRESENTATION ( #131, #67 ) ;
#54 = VERTEX_POINT ( 'NONE', #217 ) ;
#55 = AXIS2_PLACEMENT_3D ( 'NONE', #84, #214, #107 ) ;
#56 = CARTESIAN_POINT ( 'NONE',  ( 0.000000000000000000, 0.000000000000000000, 0.000000000000000000 ) ) ;
#57 = EDGE_CURVE ( 'NONE', #5, #201, #103, .T. ) ;
#58 = CARTESIAN_POINT ( 'NONE',  ( 12.00000000000000000, 13.85640646055101577, -1.387778780781445676E-14 ) ) ;
#59 = CIRCLE ( 'NONE', #203, 5.999999999999998224 ) ;
#60 = CARTESIAN_POINT ( 'NONE',  ( 15.00000000000000000, 8.660254037844387298, -1.387778780781445676E-14 ) ) ;
#61 = FACE_OUTER_BOUND ( 'NONE', #116, .T. ) ;
#62 = EDGE_LOOP ( 'NONE', ( #124, #162, #227, #196 ) ) ;
#63 = FACE_OUTER_BOUND ( 'NONE', #194, .T. ) ;
#64 = SURFACE_STYLE_USAGE ( .BOTH. , #223 ) ;
#65 = ADVANCED_FACE ( 'NONE', ( #198 ), #183, .T. ) ;
#66 = DIRECTION ( 'NONE',  ( -0.000000000000000000, 0.000000000000000000, 1.000000000000000000 ) ) ;
#67 = ADVANCED_BREP_SHAPE_REPRESENTATION ( 'Dk2a', ( #199, #232 ), #101 ) ;
#68 =( LENGTH_UNIT ( ) NAMED_UNIT ( * ) SI_UNIT ( .MILLI., .METRE. ) );
#69 = CLOSED_SHELL ( 'NONE', ( #208, #23, #218, #6, #115, #186, #228, #65 ) ) ;
#70 = FACE_OUTER_BOUND ( 'NONE', #210, .T. ) ;
#71 = EDGE_CURVE ( 'NONE', #54, #21, #81, .T. ) ;
#72 = DIRECTION ( 'NONE',  ( 0.000000000000000000, 0.000000000000000000, 1.000000000000000000 ) ) ;
#73 = PLANE ( 'NONE',  #118 ) ;
#74 = ORIENTED_EDGE ( 'NONE', *, *, #80, .T. ) ;
#75 = DIRECTION ( 'NONE',  ( 0.000000000000000000, 0.000000000000000000, 1.000000000000000000 ) ) ;
#76 = APPLICATION_CONTEXT ( 'automotive_design' ) ;
#77 = VECTOR ( 'NONE', #189, 1000.000000000000227 ) ;
#78 = CARTESIAN_POINT ( 'NONE',  ( 18.00000000000000000, 3.464101615137756607, -1.387778780781445676E-14 ) ) ;
#79 = ORIENTED_EDGE ( 'NONE', *, *, #57, .F. ) ;
#80 = EDGE_CURVE ( 'NONE', #5, #134, #200, .T. ) ;
#81 = LINE ( 'NONE', #182, #95 ) ;
#82 = DIRECTION ( 'NONE',  ( 0.000000000000000000, 0.000000000000000000, 1.000000000000000000 ) ) ;
#83 = VECTOR ( 'NONE', #157, 1000.000000000000000 ) ;
#84 = CARTESIAN_POINT ( 'NONE',  ( 0.000000000000000000, 0.000000000000000000, 30.00000000000000000 ) ) ;
#85 = CARTESIAN_POINT ( 'NONE',  ( 15.00000000000000000, 8.660254037844387298, 30.00000000000000000 ) ) ;
#86 = PRODUCT_DEFINITION_CONTEXT ( 'detailed design', #119, 'design' ) ;
#87 = LINE ( 'NONE', #143, #209 ) ;
#88 = COLOUR_RGB ( '',0.7921568627450980005, 0.8196078431372548767, 0.9333333333333333481 ) ;
#89 = CARTESIAN_POINT ( 'NONE',  ( 20.99999999999999645, 8.660254037844387298, 30.00000000000000000 ) ) ;
#90 = PRODUCT_DEFINITION_FORMATION_WITH_SPECIFIED_SOURCE ( 'ANY', '', #7, .NOT_KNOWN. ) ;
#91 = EDGE_CURVE ( 'NONE', #134, #106, #213, .T. ) ;
#92 = LINE ( 'NONE', #13, #221 ) ;
#93 = CARTESIAN_POINT ( 'NONE',  ( 15.00000000000000000, 8.660254037844387298, 30.00000000000000000 ) ) ;
#94 = PRESENTATION_STYLE_ASSIGNMENT (( #64 ) ) ;
#95 = VECTOR ( 'NONE', #142, 1000.000000000000000 ) ;
#96 = LINE ( 'NONE', #164, #130 ) ;
#97 = ORIENTED_EDGE ( 'NONE', *, *, #190, .T. ) ;
#98 = EDGE_CURVE ( 'NONE', #253, #154, #59, .T. ) ;
#99 = VERTEX_POINT ( 'NONE', #58 ) ;
#100 = VECTOR ( 'NONE', #37, 1000.000000000000000 ) ;
#101 =( GEOMETRIC_REPRESENTATION_CONTEXT ( 3 ) GLOBAL_UNCERTAINTY_ASSIGNED_CONTEXT ( ( #26 ) ) GLOBAL_UNIT_ASSIGNED_CONTEXT ( ( #173, #51, #132 ) ) REPRESENTATION_CONTEXT ( 'NONE', 'WORKASPACE' ) );
#102 = ORIENTED_EDGE ( 'NONE', *, *, #1, .T. ) ;
#103 = LINE ( 'NONE', #43, #100 ) ;
#104 = CARTESIAN_POINT ( 'NONE',  ( 12.00000000000000000, 13.85640646055101577, -1.387778780781445676E-14 ) ) ;
#105 = CARTESIAN_POINT ( 'NONE',  ( 20.00000000000000000, 0.000000000000000000, 30.00000000000000000 ) ) ;
#106 = VERTEX_POINT ( 'NONE', #123 ) ;
#107 = DIRECTION ( 'NONE',  ( 0.000000000000000000, -0.000000000000000000, 1.000000000000000000 ) ) ;
#108 = FACE_OUTER_BOUND ( 'NONE', #121, .T. ) ;
#109 = DIRECTION ( 'NONE',  ( -0.8660254037844387076, -0.5000000000000001110, 0.000000000000000000 ) ) ;
#110 = CARTESIAN_POINT ( 'NONE',  ( 0.000000000000000000, 0.000000000000000000, 30.00000000000000000 ) ) ;
#111 = LINE ( 'NONE', #219, #216 ) ;
#112 = STYLED_ITEM ( 'NONE', ( #94 ), #199 ) ;
#113 = PLANE ( 'NONE',  #238 ) ;
#114 = DIRECTION ( 'NONE',  ( 0.000000000000000000, 0.000000000000000000, 1.000000000000000000 ) ) ;
#115 = ADVANCED_FACE ( 'NONE', ( #239 ), #40, .F. ) ;
#116 = EDGE_LOOP ( 'NONE', ( #33, #52, #192, #176 ) ) ;
#117 =( GEOMETRIC_REPRESENTATION_CONTEXT ( 3 ) GLOBAL_UNCERTAINTY_ASSIGNED_CONTEXT ( ( #181 ) ) GLOBAL_UNIT_ASSIGNED_CONTEXT ( ( #68, #47, #10 ) ) REPRESENTATION_CONTEXT ( 'NONE', 'WORKASPACE' ) );
#118 = AXIS2_PLACEMENT_3D ( 'NONE', #56, #230, #252 ) ;
#119 = APPLICATION_CONTEXT ( 'automotive_design' ) ;
#120 = EDGE_CURVE ( 'NONE', #172, #54, #220, .T. ) ;
#121 = EDGE_LOOP ( 'NONE', ( #174, #50, #138, #29 ) ) ;
#122 = ORIENTED_EDGE ( 'NONE', *, *, #150, .T. ) ;
#123 = CARTESIAN_POINT ( 'NONE',  ( 20.00000000000000000, 0.000000000000000000, 0.000000000000000000 ) ) ;
#124 = ORIENTED_EDGE ( 'NONE', *, *, #120, .F. ) ;
#125 = CIRCLE ( 'NONE', #12, 5.999999999999998224 ) ;
#126 = CARTESIAN_POINT ( 'NONE',  ( 20.00000000000000000, 0.000000000000000000, 30.00000000000000000 ) ) ;
#127 = CARTESIAN_POINT ( 'NONE',  ( 10.00000000000000000, 17.32050807568877460, 0.000000000000000000 ) ) ;
#128 = LINE ( 'NONE', #8, #42 ) ;
#129 = CARTESIAN_POINT ( 'NONE',  ( 15.00000000000000000, 8.660254037844387298, -1.387778780781445676E-14 ) ) ;
#130 = VECTOR ( 'NONE', #146, 1000.000000000000227 ) ;
#131 = PRODUCT_DEFINITION_SHAPE ( 'NONE', 'NONE',  #27 ) ;
#132 =( NAMED_UNIT ( * ) SI_UNIT ( $, .STERADIAN. ) SOLID_ANGLE_UNIT ( ) );
#133 = EDGE_CURVE ( 'NONE', #54, #5, #31, .T. ) ;
#134 = VERTEX_POINT ( 'NONE', #9 ) ;
#135 = CARTESIAN_POINT ( 'NONE',  ( 18.00000000000000000, 3.464101615137756607, 30.00000000000000000 ) ) ;
#136 = ORIENTED_EDGE ( 'NONE', *, *, #190, .F. ) ;
#137 = APPLICATION_PROTOCOL_DEFINITION ( 'draft international standard', 'automotive_design', 1998, #119 ) ;
#138 = ORIENTED_EDGE ( 'NONE', *, *, #98, .F. ) ;
#139 = DIRECTION ( 'NONE',  ( 0.5000000000000000000, -0.8660254037844385966, 0.000000000000000000 ) ) ;
#140 = CIRCLE ( 'NONE', #45, 5.999999999999998224 ) ;
#141 = PLANE ( 'NONE',  #247 ) ;
#142 = DIRECTION ( 'NONE',  ( -0.000000000000000000, -0.000000000000000000, -1.000000000000000000 ) ) ;
#143 = CARTESIAN_POINT ( 'NONE',  ( 20.00000000000000000, 0.000000000000000000, 0.000000000000000000 ) ) ;
#144 = PRODUCT_RELATED_PRODUCT_CATEGORY ( 'part', '', ( #7 ) ) ;
#145 = EDGE_LOOP ( 'NONE', ( #159, #136, #175, #179, #35, #28 ) ) ;
#146 = DIRECTION ( 'NONE',  ( -0.5000000000000000000, 0.8660254037844385966, 0.000000000000000000 ) ) ;
#147 = CARTESIAN_POINT ( 'NONE',  ( 15.00000000000000000, 8.660254037844387298, -1.387778780781445676E-14 ) ) ;
#148 = FACE_OUTER_BOUND ( 'NONE', #153, .T. ) ;
#149 = CARTESIAN_POINT ( 'NONE',  ( 10.00000000000000000, 17.32050807568877460, 30.00000000000000000 ) ) ;
#150 = EDGE_CURVE ( 'NONE', #134, #253, #111, .T. ) ;
#151 = CARTESIAN_POINT ( 'NONE',  ( 18.00000000000000000, 3.464101615137756607, -1.387778780781445676E-14 ) ) ;
#152 = VECTOR ( 'NONE', #161, 1000.000000000000000 ) ;
#153 = EDGE_LOOP ( 'NONE', ( #215, #79, #156, #237 ) ) ;
#154 = VERTEX_POINT ( 'NONE', #89 ) ;
#155 = APPLICATION_PROTOCOL_DEFINITION ( 'draft international standard', 'automotive_design', 1998, #76 ) ;
#156 = ORIENTED_EDGE ( 'NONE', *, *, #133, .F. ) ;
#157 = DIRECTION ( 'NONE',  ( 1.000000000000000000, 0.000000000000000000, 0.000000000000000000 ) ) ;
#158 = EDGE_CURVE ( 'NONE', #19, #154, #92, .T. ) ;
#159 = ORIENTED_EDGE ( 'NONE', *, *, #170, .F. ) ;
#160 = LINE ( 'NONE', #104, #152 ) ;
#161 = DIRECTION ( 'NONE',  ( -0.000000000000000000, -0.000000000000000000, -1.000000000000000000 ) ) ;
#162 = ORIENTED_EDGE ( 'NONE', *, *, #38, .T. ) ;
#163 = VECTOR ( 'NONE', #114, 1000.000000000000000 ) ;
#164 = CARTESIAN_POINT ( 'NONE',  ( 20.00000000000000000, 0.000000000000000000, 0.000000000000000000 ) ) ;
#165 = PLANE ( 'NONE',  #49 ) ;
#166 = EDGE_CURVE ( 'NONE', #235, #19, #125, .T. ) ;
#167 = CARTESIAN_POINT ( 'NONE',  ( 10.00000000000000000, 17.32050807568877460, 30.00000000000000000 ) ) ;
#168 = DIRECTION ( 'NONE',  ( 0.5000000000000000000, -0.8660254037844385966, 0.000000000000000000 ) ) ;
#169 = DIRECTION ( 'NONE',  ( 1.000000000000000000, 0.000000000000000000, 0.000000000000000000 ) ) ;
#170 = EDGE_CURVE ( 'NONE', #99, #21, #96, .T. ) ;
#171 = PRODUCT_CONTEXT ( 'NONE', #76, 'mechanical' ) ;
#172 = VERTEX_POINT ( 'NONE', #188 ) ;
#173 =( LENGTH_UNIT ( ) NAMED_UNIT ( * ) SI_UNIT ( .MILLI., .METRE. ) );
#174 = ORIENTED_EDGE ( 'NONE', *, *, #166, .T. ) ;
#175 = ORIENTED_EDGE ( 'NONE', *, *, #166, .F. ) ;
#176 = ORIENTED_EDGE ( 'NONE', *, *, #57, .T. ) ;
#177 = EDGE_CURVE ( 'NONE', #201, #106, #128, .T. ) ;
#178 = DIRECTION ( 'NONE',  ( 1.000000000000000000, 0.000000000000000000, 0.000000000000000000 ) ) ;
#179 = ORIENTED_EDGE ( 'NONE', *, *, #1, .F. ) ;
#180 = CARTESIAN_POINT ( 'NONE',  ( 20.00000000000000000, 0.000000000000000000, 30.00000000000000000 ) ) ;
#181 = UNCERTAINTY_MEASURE_WITH_UNIT (LENGTH_MEASURE( 1.000000000000000082E-05 ), #68, 'distance_accuracy_value', 'NONE');
#182 = CARTESIAN_POINT ( 'NONE',  ( 10.00000000000000000, 17.32050807568877460, 30.00000000000000000 ) ) ;
#183 = CYLINDRICAL_SURFACE ( 'NONE', #191, 5.999999999999998224 ) ;
#184 = MECHANICAL_DESIGN_GEOMETRIC_PRESENTATION_REPRESENTATION (  '', ( #112 ), #117 ) ;
#185 = CYLINDRICAL_SURFACE ( 'NONE', #3, 5.999999999999998224 ) ;
#186 = ADVANCED_FACE ( 'NONE', ( #70 ), #165, .T. ) ;
#187 = CARTESIAN_POINT ( 'NONE',  ( 20.00000000000000000, 0.000000000000000000, 30.00000000000000000 ) ) ;
#188 = CARTESIAN_POINT ( 'NONE',  ( 12.00000000000000000, 13.85640646055101577, 30.00000000000000000 ) ) ;
#189 = DIRECTION ( 'NONE',  ( -0.5000000000000000000, 0.8660254037844385966, 0.000000000000000000 ) ) ;
#190 = EDGE_CURVE ( 'NONE', #19, #99, #195, .T. ) ;
#191 = AXIS2_PLACEMENT_3D ( 'NONE', #60, #82, #178 ) ;
#192 = ORIENTED_EDGE ( 'NONE', *, *, #80, .F. ) ;
#193 = ORIENTED_EDGE ( 'NONE', *, *, #133, .T. ) ;
#194 = EDGE_LOOP ( 'NONE', ( #102, #25, #22, #15 ) ) ;
#195 = CIRCLE ( 'NONE', #212, 5.999999999999998224 ) ;
#196 = ORIENTED_EDGE ( 'NONE', *, *, #71, .F. ) ;
#197 = DIRECTION ( 'NONE',  ( -0.8660254037844387076, -0.5000000000000001110, 0.000000000000000000 ) ) ;
#198 = FACE_OUTER_BOUND ( 'NONE', #17, .T. ) ;
#199 = MANIFOLD_SOLID_BREP ( 'Aufsatz-Linear austragen11', #69 ) ;
#200 = LINE ( 'NONE', #257, #83 ) ;
#201 = VERTEX_POINT ( 'NONE', #32 ) ;
#202 = EDGE_CURVE ( 'NONE', #154, #172, #140, .T. ) ;
#203 = AXIS2_PLACEMENT_3D ( 'NONE', #85, #211, #236 ) ;
#204 = DIRECTION ( 'NONE',  ( 1.000000000000000000, 0.000000000000000000, 0.000000000000000000 ) ) ;
#205 = DIRECTION ( 'NONE',  ( -0.5000000000000000000, -0.8660254037844385966, 0.000000000000000000 ) ) ;
#206 = DIRECTION ( 'NONE',  ( 1.000000000000000000, 0.000000000000000000, 0.000000000000000000 ) ) ;
#207 = DIRECTION ( 'NONE',  ( 0.8660254037844387076, -0.5000000000000001110, 0.000000000000000000 ) ) ;
#208 = ADVANCED_FACE ( 'NONE', ( #108 ), #185, .T. ) ;
#209 = VECTOR ( 'NONE', #240, 1000.000000000000227 ) ;
#210 = EDGE_LOOP ( 'NONE', ( #122, #229, #254, #36, #193, #74 ) ) ;
#211 = DIRECTION ( 'NONE',  ( 0.000000000000000000, 0.000000000000000000, 1.000000000000000000 ) ) ;
#212 = AXIS2_PLACEMENT_3D ( 'NONE', #244, #44, #11 ) ;
#213 = LINE ( 'NONE', #126, #231 ) ;
#214 = DIRECTION ( 'NONE',  ( 0.000000000000000000, 1.000000000000000000, 0.000000000000000000 ) ) ;
#215 = ORIENTED_EDGE ( 'NONE', *, *, #243, .T. ) ;
#216 = VECTOR ( 'NONE', #222, 1000.000000000000227 ) ;
#217 = CARTESIAN_POINT ( 'NONE',  ( 10.00000000000000000, 17.32050807568877460, 30.00000000000000000 ) ) ;
#218 = ADVANCED_FACE ( 'NONE', ( #148 ), #113, .F. ) ;
#219 = CARTESIAN_POINT ( 'NONE',  ( 20.00000000000000000, 0.000000000000000000, 30.00000000000000000 ) ) ;
#220 = LINE ( 'NONE', #187, #77 ) ;
#221 = VECTOR ( 'NONE', #224, 1000.000000000000000 ) ;
#222 = DIRECTION ( 'NONE',  ( -0.5000000000000000000, 0.8660254037844385966, 0.000000000000000000 ) ) ;
#223 = SURFACE_SIDE_STYLE ('',( #249 ) ) ;
#224 = DIRECTION ( 'NONE',  ( 0.000000000000000000, 0.000000000000000000, 1.000000000000000000 ) ) ;
#225 = PRESENTATION_LAYER_ASSIGNMENT (  '', '', ( #112 ) ) ;
#226 = LINE ( 'NONE', #16, #255 ) ;
#227 = ORIENTED_EDGE ( 'NONE', *, *, #170, .T. ) ;
#228 = ADVANCED_FACE ( 'NONE', ( #251 ), #73, .F. ) ;
#229 = ORIENTED_EDGE ( 'NONE', *, *, #98, .T. ) ;
#230 = DIRECTION ( 'NONE',  ( -0.000000000000000000, 0.000000000000000000, 1.000000000000000000 ) ) ;
#231 = VECTOR ( 'NONE', #39, 1000.000000000000000 ) ;
#232 = AXIS2_PLACEMENT_3D ( 'NONE', #18, #75, #250 ) ;
#233 = EDGE_CURVE ( 'NONE', #235, #253, #14, .T. ) ;
#234 = DIRECTION ( 'NONE',  ( 0.5000000000000000000, 0.8660254037844385966, 0.000000000000000000 ) ) ;
#235 = VERTEX_POINT ( 'NONE', #78 ) ;
#236 = DIRECTION ( 'NONE',  ( 1.000000000000000000, 0.000000000000000000, 0.000000000000000000 ) ) ;
#237 = ORIENTED_EDGE ( 'NONE', *, *, #71, .T. ) ;
#238 = AXIS2_PLACEMENT_3D ( 'NONE', #167, #207, #234 ) ;
#239 = FACE_OUTER_BOUND ( 'NONE', #62, .T. ) ;
#240 = DIRECTION ( 'NONE',  ( -0.5000000000000000000, 0.8660254037844385966, 0.000000000000000000 ) ) ;
#241 = CARTESIAN_POINT ( 'NONE',  ( 0.000000000000000000, 0.000000000000000000, 30.00000000000000000 ) ) ;
#242 = VECTOR ( 'NONE', #205, 1000.000000000000227 ) ;
#243 = EDGE_CURVE ( 'NONE', #21, #201, #226, .T. ) ;
#244 = CARTESIAN_POINT ( 'NONE',  ( 15.00000000000000000, 8.660254037844387298, -1.387778780781445676E-14 ) ) ;
#245 = DIRECTION ( 'NONE',  ( 1.000000000000000000, 0.000000000000000000, 0.000000000000000000 ) ) ;
#246 = FILL_AREA_STYLE_COLOUR ( '', #88 ) ;
#247 = AXIS2_PLACEMENT_3D ( 'NONE', #180, #197, #139 ) ;
#248 = DIRECTION ( 'NONE',  ( 1.000000000000000000, 0.000000000000000000, 0.000000000000000000 ) ) ;
#249 = SURFACE_STYLE_FILL_AREA ( #48 ) ;
#250 = DIRECTION ( 'NONE',  ( 1.000000000000000000, 0.000000000000000000, 0.000000000000000000 ) ) ;
#251 = FACE_OUTER_BOUND ( 'NONE', #145, .T. ) ;
#252 = DIRECTION ( 'NONE',  ( 1.000000000000000000, 0.000000000000000000, 0.000000000000000000 ) ) ;
#253 = VERTEX_POINT ( 'NONE', #135 ) ;
#254 = ORIENTED_EDGE ( 'NONE', *, *, #202, .T. ) ;
#255 = VECTOR ( 'NONE', #34, 1000.000000000000227 ) ;
#256 = ORIENTED_EDGE ( 'NONE', *, *, #202, .F. ) ;
#257 = CARTESIAN_POINT ( 'NONE',  ( 0.000000000000000000, 0.000000000000000000, 30.00000000000000000 ) ) ;
ENDSEC;
END-ISO-10303-21;
