# https://github.com/mikedh/trimesh
v 20.00000000 0.00000000 30.00000000
v -0.00000000 -0.00000000 30.00000000
v 10.00000000 17.32050900 30.00000000
v -0.00000000 -0.00000000 0.00000000
v 10.00000000 17.32050900 0.00000000
v 20.00000000 0.00000000 0.00000000
v 20.98054500 8.17745500 30.00000000
v 20.92230200 9.62272200 30.00000000
v 20.51987600 11.01205400 30.00000000
v 19.79665600 12.26470900 30.00000000
v 18.79467200 13.30788300 30.00000000
v 17.57215500 14.08095600 30.00000000
v 20.98054500 8.17745500 0.00000000
v 20.51987600 11.01205400 0.00000000
v 18.79467200 13.30788300 0.00000000
v 17.57215500 14.08095600 0.00000000
v 19.79665600 12.26470900 0.00000000
v 20.92230200 9.62272200 0.00000000
f 6 1 7
f 6 13 7
f 6 1 2
f 6 4 2
f 5 3 2
f 5 4 2
f 10 1 2
f 10 3 2
f 10 1 7
f 10 12 3
f 10 8 7
f 10 12 11
f 10 8 9
f 16 5 3
f 16 12 3
f 16 12 11
f 16 15 11
f 18 13 7
f 18 8 7
f 18 8 9
f 18 14 9
f 17 6 13
f 17 6 4
f 17 5 4
f 17 16 5
f 17 18 13
f 17 16 15
f 17 18 14
f 17 10 11
f 17 15 11
f 17 10 9
f 17 14 9

