# Blender 4.4.0
# www.blender.org
mtllib Dk2a.mtl
o Dk2a
v 18.000000 3.464102 30.000000
v 20.000000 0.000000 30.000000
v 18.000000 3.464102 -0.000000
v 20.000000 0.000000 0.000000
v -0.000000 -0.000000 30.000000
v 10.000000 17.320509 30.000000
v -0.000000 -0.000000 0.000000
v 10.000000 17.320509 0.000000
v 0.000000 0.000000 30.000000
v 20.000000 0.000000 0.000000
v 0.000000 0.000000 0.000000
v 12.000000 13.856406 -0.000000
v 12.000000 13.856406 30.000000
v 19.156345 4.333039 30.000000
v 20.071142 5.453459 30.000000
v 20.691217 6.760246 30.000000
v 20.980545 8.177455 30.000000
v 20.922302 9.622722 30.000000
v 20.519876 11.012054 30.000000
v 19.796656 12.264709 30.000000
v 18.794672 13.307883 30.000000
v 17.572155 14.080956 30.000000
v 16.200155 14.538998 30.000000
v 14.758405 14.655388 30.000000
v 13.330695 14.423363 30.000000
v 18.000000 3.464102 0.000000
v 10.000000 17.320509 0.000000
v 12.000000 13.856406 0.000000
v 20.691217 6.760246 0.000000
v 20.980545 8.177455 0.000000
v 20.922302 9.622722 0.000000
v 20.071142 5.453459 0.000000
v 19.156345 4.333039 0.000000
v 13.330695 14.423363 0.000000
v 14.758405 14.655388 0.000000
v 16.200155 14.538998 0.000000
v 17.572155 14.080956 0.000000
v 20.519876 11.012054 0.000000
v 18.794672 13.307883 0.000000
v 19.796656 12.264709 0.000000
v 12.000000 13.856406 0.000000
v 13.330695 14.423363 0.000000
v 14.758405 14.655388 0.000000
v 16.200155 14.538998 0.000000
v 17.572155 14.080956 0.000000
v 18.794672 13.307883 0.000000
v 19.796656 12.264709 0.000000
v 20.519876 11.012054 0.000000
v 20.922302 9.622722 0.000000
v 20.980545 8.177455 0.000000
v 20.691217 6.760246 0.000000
v 20.071142 5.453459 0.000000
v 19.156345 4.333039 0.000000
v 18.000000 3.464102 0.000000
vn 0.8660 0.5000 -0.0000
vn -0.8660 0.5000 -0.0000
vn -0.0000 -1.0000 -0.0000
vn -0.0000 -0.0000 1.0000
vn -0.0000 -0.0000 -1.0000
vn -0.3920 0.9200 -0.0000
vn -0.1604 0.9871 -0.0000
vn 0.0805 0.9968 -0.0000
vn 0.3167 0.9485 -0.0000
vn 0.5345 0.8452 -0.0000
vn 0.7212 0.6927 -0.0000
vn 0.9605 0.2782 -0.0000
vn 0.9992 0.0403 -0.0000
vn 0.9798 -0.2000 -0.0000
vn 0.9035 -0.4287 -0.0000
vn 0.7746 -0.6324 -0.0000
vn 0.6007 -0.7994 -0.0000
s 0
f 1//1 2//1 3//1
f 3//1 2//1 4//1
f 5//2 6//2 7//2
f 7//2 6//2 8//2
f 2//3 9//3 10//3
f 10//3 9//3 11//3
f 12//1 8//1 13//1
f 13//1 8//1 6//1
f 13//4 6//4 9//4
f 2//4 1//4 9//4
f 9//4 1//4 14//4
f 14//4 15//4 9//4
f 9//4 15//4 16//4
f 9//4 16//4 17//4
f 17//4 18//4 9//4
f 9//4 18//4 19//4
f 9//4 19//4 20//4
f 20//4 21//4 9//4
f 9//4 21//4 22//4
f 9//4 22//4 23//4
f 23//4 24//4 9//4
f 9//4 24//4 25//4
f 9//4 25//4 13//4
f 26//5 10//5 11//5
f 11//5 27//5 28//5
f 29//5 11//5 30//5
f 30//5 11//5 31//5
f 29//5 32//5 11//5
f 11//5 32//5 33//5
f 11//5 33//5 26//5
f 11//5 28//5 31//5
f 31//5 28//5 34//5
f 31//5 34//5 35//5
f 35//5 36//5 31//5
f 31//5 36//5 37//5
f 31//5 37//5 38//5
f 38//5 37//5 39//5
f 38//5 39//5 40//5
f 41//6 13//6 25//6
f 41//6 25//6 42//6
f 42//7 25//7 24//7
f 42//7 24//7 43//7
f 43//8 24//8 23//8
f 43//8 23//8 44//8
f 44//9 23//9 22//9
f 44//9 22//9 45//9
f 45//10 22//10 21//10
f 45//10 21//10 46//10
f 46//11 21//11 20//11
f 46//11 20//11 47//11
f 47//1 20//1 19//1
f 47//1 19//1 48//1
f 48//12 19//12 18//12
f 48//12 18//12 49//12
f 49//13 18//13 17//13
f 49//13 17//13 50//13
f 50//14 17//14 16//14
f 50//14 16//14 51//14
f 51//15 16//15 15//15
f 51//15 15//15 52//15
f 52//16 15//16 14//16
f 52//16 14//16 53//16
f 53//17 14//17 1//17
f 53//17 1//17 54//17
