# Blender 4.4.0
# www.blender.org
mtllib Dk4i.mtl
o Dk4i
v -0.000000 -0.000000 30.000000
v 10.000000 17.320509 30.000000
v -0.000000 -0.000000 -0.000000
v 10.000000 17.320509 -0.000000
v 6.000000 0.000000 30.000000
v 0.000000 0.000000 30.000000
v 6.000000 0.000000 15.000000
v 0.000000 0.000000 0.000000
v 14.000000 0.000000 15.000000
v 20.000000 0.000000 0.000000
v 14.000000 0.000000 30.000000
v 20.000000 0.000000 30.000000
v 17.000000 5.196152 30.000000
v 17.000000 5.196152 15.000000
v 20.000000 0.000000 -0.000000
v 13.000000 12.124356 15.000000
v 13.000000 12.124356 30.000000
v 12.105063 11.420570 30.000000
v 13.837972 1.126930 30.000000
v 6.162028 1.126930 30.000000
v 11.072286 9.417259 30.000000
v 11.444658 10.493160 30.000000
v 8.338340 3.638528 30.000000
v 11.855787 6.187618 30.000000
v 11.286528 7.173604 30.000000
v 6.634986 2.162563 30.000000
v 7.380557 3.022998 30.000000
v 11.018112 8.280029 30.000000
v 14.809672 4.664785 30.000000
v 15.943035 4.773008 30.000000
v 9.430741 3.959285 30.000000
v 10.569260 3.959285 30.000000
v 12.679772 5.401950 30.000000
v 11.661660 3.638528 30.000000
v 13.691728 4.880251 30.000000
v 12.619443 3.022998 30.000000
v 13.365014 2.162563 30.000000
v 10.000000 17.320509 0.000000
v 12.105063 11.420570 15.000000
v 11.444658 10.493160 15.000000
v 11.072286 9.417259 15.000000
v 11.018112 8.280029 15.000000
v 11.286528 7.173604 15.000000
v 11.855787 6.187618 15.000000
v 12.679772 5.401950 15.000000
v 13.691728 4.880251 15.000000
v 14.809672 4.664785 15.000000
v 15.943035 4.773008 15.000000
v 13.837972 1.126930 15.000000
v 6.000000 0.000000 15.000000
v 13.365014 2.162563 15.000000
v 12.619443 3.022998 15.000000
v 11.661660 3.638528 15.000000
v 10.569260 3.959285 15.000000
v 9.430741 3.959285 15.000000
v 8.338340 3.638528 15.000000
v 7.380557 3.022998 15.000000
v 6.634986 2.162563 15.000000
v 6.162028 1.126930 15.000000
v 6.000000 0.000000 30.000000
vn -0.8660 0.5000 -0.0000
vn -0.0000 -1.0000 -0.0000
vn 0.8660 0.5000 -0.0000
vn -0.0000 -0.0000 1.0000
vn -0.0000 -0.0000 -1.0000
vn 0.6182 -0.7861 -0.0000
vn 0.8146 -0.5801 -0.0000
vn 0.9450 -0.3271 -0.0000
vn 0.9989 -0.0476 -0.0000
vn 0.9718 0.2358 -0.0000
vn 0.6901 0.7237 -0.0000
vn 0.4582 0.8888 -0.0000
vn 0.1893 0.9819 -0.0000
vn -0.0951 0.9955 -0.0000
vn -0.3717 0.9284 -0.0000
vn -0.9898 -0.1423 -0.0000
vn -0.9096 -0.4154 -0.0000
vn -0.7557 -0.6549 -0.0000
vn -0.5406 -0.8413 -0.0000
vn -0.2817 -0.9595 -0.0000
vn 0.2817 -0.9595 -0.0000
vn 0.5406 -0.8413 -0.0000
vn 0.7557 -0.6549 -0.0000
vn 0.9096 -0.4154 -0.0000
vn 0.9898 -0.1423 -0.0000
s 0
f 1//1 2//1 3//1
f 3//1 2//1 4//1
f 5//2 6//2 7//2
f 7//2 6//2 8//2
f 7//2 8//2 9//2
f 9//2 8//2 10//2
f 9//2 10//2 11//2
f 11//2 10//2 12//2
f 13//3 12//3 14//3
f 14//3 12//3 15//3
f 14//3 15//3 16//3
f 16//3 15//3 4//3
f 16//3 4//3 17//3
f 17//3 4//3 2//3
f 18//4 17//4 2//4
f 19//4 11//4 12//4
f 6//4 5//4 20//4
f 6//4 21//4 2//4
f 2//4 21//4 22//4
f 2//4 22//4 18//4
f 23//4 24//4 25//4
f 20//4 26//4 6//4
f 6//4 26//4 27//4
f 6//4 27//4 21//4
f 21//4 27//4 23//4
f 21//4 23//4 28//4
f 28//4 23//4 25//4
f 29//4 19//4 30//4
f 30//4 19//4 12//4
f 30//4 12//4 13//4
f 23//4 31//4 24//4
f 24//4 31//4 32//4
f 24//4 32//4 33//4
f 33//4 32//4 34//4
f 33//4 34//4 35//4
f 35//4 34//4 36//4
f 35//4 36//4 29//4
f 29//4 36//4 37//4
f 29//4 37//4 19//4
f 38//5 10//5 8//5
f 14//4 16//4 39//4
f 39//4 40//4 14//4
f 14//4 40//4 41//4
f 14//4 41//4 42//4
f 42//4 43//4 14//4
f 14//4 43//4 44//4
f 14//4 44//4 45//4
f 45//4 46//4 14//4
f 14//4 46//4 47//4
f 14//4 47//4 48//4
f 16//6 17//6 39//6
f 39//6 17//6 18//6
f 39//7 18//7 40//7
f 40//7 18//7 22//7
f 40//8 22//8 41//8
f 41//8 22//8 21//8
f 41//9 21//9 42//9
f 42//9 21//9 28//9
f 42//10 28//10 43//10
f 43//10 28//10 25//10
f 43//3 25//3 44//3
f 44//3 25//3 24//3
f 44//11 24//11 45//11
f 45//11 24//11 33//11
f 45//12 33//12 46//12
f 46//12 33//12 35//12
f 46//13 35//13 47//13
f 47//13 35//13 29//13
f 47//14 29//14 48//14
f 48//14 29//14 30//14
f 48//15 30//15 14//15
f 14//15 30//15 13//15
f 9//4 49//4 50//4
f 50//4 49//4 51//4
f 50//4 51//4 52//4
f 52//4 53//4 50//4
f 50//4 53//4 54//4
f 50//4 54//4 55//4
f 55//4 56//4 57//4
f 57//4 58//4 55//4
f 55//4 58//4 59//4
f 55//4 59//4 50//4
f 9//16 11//16 49//16
f 49//16 11//16 19//16
f 49//17 19//17 51//17
f 51//17 19//17 37//17
f 51//18 37//18 52//18
f 52//18 37//18 36//18
f 52//19 36//19 53//19
f 53//19 36//19 34//19
f 53//20 34//20 54//20
f 54//20 34//20 32//20
f 54//2 32//2 55//2
f 55//2 32//2 31//2
f 55//21 31//21 56//21
f 56//21 31//21 23//21
f 56//22 23//22 57//22
f 57//22 23//22 27//22
f 57//23 27//23 58//23
f 58//23 27//23 26//23
f 58//24 26//24 59//24
f 59//24 26//24 20//24
f 59//25 20//25 50//25
f 50//25 20//25 60//25
