ISO-10303-21;
HEADER;
FILE_DESCRIPTION (( 'STEP AP214' ),
    '1' );
FILE_NAME ('Dk4i.STEP',
    '2025-09-08T12:42:56',
    ( '' ),
    ( '' ),
    'SwSTEP 2.0',
    'SolidWorks 2024',
    '' );
FILE_SCHEMA (( 'AUTOMOTIVE_DESIGN' ));
ENDSEC;

DATA;
#1 = EDGE_CURVE ( 'NONE', #229, #205, #259, .T. ) ;
#2 = AXIS2_PLACEMENT_3D ( 'NONE', #267, #75, #103 ) ;
#3 = AXIS2_PLACEMENT_3D ( 'NONE', #61, #26, #158 ) ;
#4 = LINE ( 'NONE', #272, #154 ) ;
#5 = EDGE_LOOP ( 'NONE', ( #112, #268, #9, #193, #84, #83, #28, #201 ) ) ;
#6 = ADVANCED_FACE ( 'NONE', ( #163 ), #162, .F. ) ;
#7 = DIRECTION ( 'NONE',  ( 1.000000000000000000, 0.000000000000000000, -0.000000000000000000 ) ) ;
#8 = ORIENTED_EDGE ( 'NONE', *, *, #93, .T. ) ;
#9 = ORIENTED_EDGE ( 'NONE', *, *, #253, .F. ) ;
#10 = VECTOR ( 'NONE', #263, 1000.000000000000000 ) ;
#11 = VECTOR ( 'NONE', #192, 1000.000000000000000 ) ;
#12 = DIRECTION ( 'NONE',  ( 1.000000000000000000, 0.000000000000000000, 0.000000000000000000 ) ) ;
#13 = CIRCLE ( 'NONE', #246, 4.000000000000001776 ) ;
#14 = CARTESIAN_POINT ( 'NONE',  ( 10.00000000000000000, 0.000000000000000000, 15.00000000000000000 ) ) ;
#15 = SURFACE_STYLE_USAGE ( .BOTH. , #257 ) ;
#16 = CARTESIAN_POINT ( 'NONE',  ( 0.000000000000000000, 0.000000000000000000, 0.000000000000000000 ) ) ;
#17 = EDGE_LOOP ( 'NONE', ( #88, #110 ) ) ;
#18 = FACE_OUTER_BOUND ( 'NONE', #206, .T. ) ;
#19 = DIRECTION ( 'NONE',  ( 1.000000000000000000, 0.000000000000000000, 0.000000000000000000 ) ) ;
#20 = ADVANCED_FACE ( 'NONE', ( #33 ), #31, .T. ) ;
#21 = DIRECTION ( 'NONE',  ( 0.000000000000000000, 0.000000000000000000, 1.000000000000000000 ) ) ;
#22 = DIRECTION ( 'NONE',  ( 1.000000000000000000, 0.000000000000000000, 0.000000000000000000 ) ) ;
#23 = AXIS2_PLACEMENT_3D ( 'NONE', #286, #55, #19 ) ;
#24 = PRODUCT_CONTEXT ( 'NONE', #279, 'mechanical' ) ;
#25 = EDGE_CURVE ( 'NONE', #147, #155, #69, .T. ) ;
#26 = DIRECTION ( 'NONE',  ( 0.000000000000000000, 0.000000000000000000, 1.000000000000000000 ) ) ;
#27 = UNCERTAINTY_MEASURE_WITH_UNIT (LENGTH_MEASURE( 1.000000000000000082E-05 ), #117, 'distance_accuracy_value', 'NONE');
#28 = ORIENTED_EDGE ( 'NONE', *, *, #179, .F. ) ;
#29 = VERTEX_POINT ( 'NONE', #233 ) ;
#30 = CARTESIAN_POINT ( 'NONE',  ( 20.00000000000000000, 0.000000000000000000, 0.000000000000000000 ) ) ;
#31 = PLANE ( 'NONE',  #145 ) ;
#32 = EDGE_CURVE ( 'NONE', #215, #225, #189, .T. ) ;
#33 = FACE_OUTER_BOUND ( 'NONE', #180, .T. ) ;
#34 = PRODUCT_DEFINITION ( 'UNKNOWN', '', #73, #85 ) ;
#35 = CARTESIAN_POINT ( 'NONE',  ( 15.00000000000000000, 8.660254037844387298, 30.00000000000000000 ) ) ;
#36 = EDGE_LOOP ( 'NONE', ( #157, #290, #48, #160, #227, #153, #254, #247 ) ) ;
#37 = LINE ( 'NONE', #98, #251 ) ;
#38 = CARTESIAN_POINT ( 'NONE',  ( 10.00000000000000000, 17.32050807568877460, 0.000000000000000000 ) ) ;
#39 = CARTESIAN_POINT ( 'NONE',  ( 13.00000000000000000, 12.12435565298214080, 15.00000000000000000 ) ) ;
#40 = PLANE ( 'NONE',  #133 ) ;
#41 = AXIS2_PLACEMENT_3D ( 'NONE', #218, #168, #172 ) ;
#42 =( GEOMETRIC_REPRESENTATION_CONTEXT ( 3 ) GLOBAL_UNCERTAINTY_ASSIGNED_CONTEXT ( ( #222 ) ) GLOBAL_UNIT_ASSIGNED_CONTEXT ( ( #178, #64, #199 ) ) REPRESENTATION_CONTEXT ( 'NONE', 'WORKASPACE' ) );
#43 = EDGE_CURVE ( 'NONE', #155, #215, #13, .T. ) ;
#44 = ORIENTED_EDGE ( 'NONE', *, *, #212, .T. ) ;
#45 = DIRECTION ( 'NONE',  ( 0.000000000000000000, 0.000000000000000000, 1.000000000000000000 ) ) ;
#46 = CIRCLE ( 'NONE', #211, 4.000000000000000000 ) ;
#47 = ORIENTED_EDGE ( 'NONE', *, *, #253, .T. ) ;
#48 = ORIENTED_EDGE ( 'NONE', *, *, #210, .F. ) ;
#49 = DIRECTION ( 'NONE',  ( 1.000000000000000000, 0.000000000000000000, 0.000000000000000000 ) ) ;
#50 = VECTOR ( 'NONE', #150, 1000.000000000000000 ) ;
#51 = DIRECTION ( 'NONE',  ( 0.000000000000000000, 0.000000000000000000, 1.000000000000000000 ) ) ;
#52 = PRESENTATION_STYLE_ASSIGNMENT (( #15 ) ) ;
#53 = CYLINDRICAL_SURFACE ( 'NONE', #217, 4.000000000000001776 ) ;
#54 = LINE ( 'NONE', #237, #207 ) ;
#55 = DIRECTION ( 'NONE',  ( -0.000000000000000000, 0.000000000000000000, 1.000000000000000000 ) ) ;
#56 = CARTESIAN_POINT ( 'NONE',  ( 14.00000000000000178, 0.000000000000000000, 30.00000000000000000 ) ) ;
#57 = CARTESIAN_POINT ( 'NONE',  ( 0.000000000000000000, 0.000000000000000000, 0.000000000000000000 ) ) ;
#58 = PLANE ( 'NONE',  #23 ) ;
#59 = DIRECTION ( 'NONE',  ( 1.000000000000000000, 0.000000000000000000, 0.000000000000000000 ) ) ;
#60 = EDGE_CURVE ( 'NONE', #271, #109, #234, .T. ) ;
#61 = CARTESIAN_POINT ( 'NONE',  ( 10.00000000000000000, 0.000000000000000000, 30.00000000000000000 ) ) ;
#62 = VECTOR ( 'NONE', #264, 1000.000000000000000 ) ;
#63 = VERTEX_POINT ( 'NONE', #230 ) ;
#64 =( NAMED_UNIT ( * ) PLANE_ANGLE_UNIT ( ) SI_UNIT ( $, .RADIAN. ) );
#65 = EDGE_LOOP ( 'NONE', ( #116, #250, #44, #90 ) ) ;
#66 = ORIENTED_EDGE ( 'NONE', *, *, #231, .T. ) ;
#67 = CARTESIAN_POINT ( 'NONE',  ( 5.999999999999999112, 0.000000000000000000, 15.00000000000000000 ) ) ;
#68 = DIRECTION ( 'NONE',  ( -0.000000000000000000, -0.000000000000000000, 1.000000000000000000 ) ) ;
#69 = LINE ( 'NONE', #280, #107 ) ;
#70 = DIRECTION ( 'NONE',  ( 0.000000000000000000, 0.000000000000000000, 1.000000000000000000 ) ) ;
#71 = DIRECTION ( 'NONE',  ( 1.000000000000000000, 0.000000000000000000, 0.000000000000000000 ) ) ;
#72 = CARTESIAN_POINT ( 'NONE',  ( 20.00000000000000000, 0.000000000000000000, 30.00000000000000000 ) ) ;
#73 = PRODUCT_DEFINITION_FORMATION_WITH_SPECIFIED_SOURCE ( 'ANY', '', #239, .NOT_KNOWN. ) ;
#74 = DIRECTION ( 'NONE',  ( -0.8660254037844387076, -0.5000000000000001110, 0.000000000000000000 ) ) ;
#75 = DIRECTION ( 'NONE',  ( -0.000000000000000000, 0.000000000000000000, 1.000000000000000000 ) ) ;
#76 = DIRECTION ( 'NONE',  ( -0.5000000000000000000, 0.8660254037844385966, 0.000000000000000000 ) ) ;
#77 = DIRECTION ( 'NONE',  ( 1.000000000000000000, 0.000000000000000000, 0.000000000000000000 ) ) ;
#78 = STYLED_ITEM ( 'NONE', ( #52 ), #79 ) ;
#79 = MANIFOLD_SOLID_BREP ( 'Schnitt-Linear austragen1', #242 ) ;
#80 = ADVANCED_FACE ( 'NONE', ( #187 ), #53, .F. ) ;
#81 = FACE_OUTER_BOUND ( 'NONE', #65, .T. ) ;
#82 = CARTESIAN_POINT ( 'NONE',  ( 0.000000000000000000, 0.000000000000000000, 0.000000000000000000 ) ) ;
#83 = ORIENTED_EDGE ( 'NONE', *, *, #220, .F. ) ;
#84 = ORIENTED_EDGE ( 'NONE', *, *, #204, .T. ) ;
#85 = PRODUCT_DEFINITION_CONTEXT ( 'detailed design', #161, 'design' ) ;
#86 = ORIENTED_EDGE ( 'NONE', *, *, #1, .T. ) ;
#87 = CARTESIAN_POINT ( 'NONE',  ( 20.00000000000000000, 0.000000000000000000, 0.000000000000000000 ) ) ;
#88 = ORIENTED_EDGE ( 'NONE', *, *, #100, .T. ) ;
#89 = ORIENTED_EDGE ( 'NONE', *, *, #281, .F. ) ;
#90 = ORIENTED_EDGE ( 'NONE', *, *, #209, .F. ) ;
#91 = ORIENTED_EDGE ( 'NONE', *, *, #126, .T. ) ;
#92 = AXIS2_PLACEMENT_3D ( 'NONE', #202, #289, #7 ) ;
#93 = EDGE_CURVE ( 'NONE', #205, #229, #46, .T. ) ;
#94 = DIRECTION ( 'NONE',  ( -0.5000000000000000000, 0.8660254037844385966, 0.000000000000000000 ) ) ;
#95 = ADVANCED_FACE ( 'NONE', ( #188 ), #58, .T. ) ;
#96 = AXIS2_PLACEMENT_3D ( 'NONE', #177, #200, #181 ) ;
#97 =( NAMED_UNIT ( * ) PLANE_ANGLE_UNIT ( ) SI_UNIT ( $, .RADIAN. ) );
#98 = CARTESIAN_POINT ( 'NONE',  ( 20.00000000000000000, 0.000000000000000000, 30.00000000000000000 ) ) ;
#99 = CARTESIAN_POINT ( 'NONE',  ( 20.00000000000000000, 0.000000000000000000, 30.00000000000000000 ) ) ;
#100 = EDGE_CURVE ( 'NONE', #215, #155, #151, .T. ) ;
#101 = LINE ( 'NONE', #57, #50 ) ;
#102 = ORIENTED_EDGE ( 'NONE', *, *, #210, .T. ) ;
#103 = DIRECTION ( 'NONE',  ( 1.000000000000000000, 0.000000000000000000, 0.000000000000000000 ) ) ;
#104 = EDGE_CURVE ( 'NONE', #185, #29, #37, .T. ) ;
#105 = CARTESIAN_POINT ( 'NONE',  ( 5.999999999999999112, 0.000000000000000000, 15.00000000000000000 ) ) ;
#106 = APPLICATION_PROTOCOL_DEFINITION ( 'draft international standard', 'automotive_design', 1998, #161 ) ;
#107 = VECTOR ( 'NONE', #235, 1000.000000000000000 ) ;
#108 = CARTESIAN_POINT ( 'NONE',  ( 20.00000000000000000, 0.000000000000000000, 30.00000000000000000 ) ) ;
#109 = VERTEX_POINT ( 'NONE', #38 ) ;
#110 = ORIENTED_EDGE ( 'NONE', *, *, #43, .T. ) ;
#111 = FACE_OUTER_BOUND ( 'NONE', #17, .T. ) ;
#112 = ORIENTED_EDGE ( 'NONE', *, *, #100, .F. ) ;
#113 = AXIS2_PLACEMENT_3D ( 'NONE', #35, #21, #77 ) ;
#114 = ORIENTED_EDGE ( 'NONE', *, *, #141, .T. ) ;
#115 = EDGE_LOOP ( 'NONE', ( #114, #89, #228, #125 ) ) ;
#116 = ORIENTED_EDGE ( 'NONE', *, *, #93, .F. ) ;
#117 =( LENGTH_UNIT ( ) NAMED_UNIT ( * ) SI_UNIT ( .MILLI., .METRE. ) );
#118 = VECTOR ( 'NONE', #261, 1000.000000000000000 ) ;
#119 = DIRECTION ( 'NONE',  ( 0.000000000000000000, 0.000000000000000000, 1.000000000000000000 ) ) ;
#120 = ADVANCED_FACE ( 'NONE', ( #174 ), #40, .F. ) ;
#121 = SURFACE_STYLE_FILL_AREA ( #260 ) ;
#122 = FILL_AREA_STYLE_COLOUR ( '', #274 ) ;
#123 = EDGE_CURVE ( 'NONE', #185, #205, #198, .T. ) ;
#124 = LINE ( 'NONE', #99, #11 ) ;
#125 = ORIENTED_EDGE ( 'NONE', *, *, #136, .T. ) ;
#126 = EDGE_CURVE ( 'NONE', #29, #159, #132, .T. ) ;
#127 = CARTESIAN_POINT ( 'NONE',  ( 14.00000000000000178, 0.000000000000000000, 15.00000000000000000 ) ) ;
#128 = VECTOR ( 'NONE', #244, 1000.000000000000000 ) ;
#129 = CIRCLE ( 'NONE', #3, 4.000000000000001776 ) ;
#130 = PLANE ( 'NONE',  #2 ) ;
#131 = CARTESIAN_POINT ( 'NONE',  ( 16.99999999999999645, 5.196152422706632912, 15.00000000000000000 ) ) ;
#132 = LINE ( 'NONE', #176, #194 ) ;
#133 = AXIS2_PLACEMENT_3D ( 'NONE', #72, #74, #171 ) ;
#134 = CARTESIAN_POINT ( 'NONE',  ( 17.00000000000000000, 5.196152422706632024, 15.00000000000000000 ) ) ;
#135 = ORIENTED_EDGE ( 'NONE', *, *, #212, .F. ) ;
#136 = EDGE_CURVE ( 'NONE', #29, #109, #221, .T. ) ;
#137 = VERTEX_POINT ( 'NONE', #16 ) ;
#138 = ORIENTED_EDGE ( 'NONE', *, *, #60, .F. ) ;
#139 = VECTOR ( 'NONE', #94, 1000.000000000000227 ) ;
#140 = ORIENTED_EDGE ( 'NONE', *, *, #231, .F. ) ;
#141 = EDGE_CURVE ( 'NONE', #109, #137, #196, .T. ) ;
#142 = CARTESIAN_POINT ( 'NONE',  ( 15.00000000000000000, 8.660254037844387298, 15.00000000000000000 ) ) ;
#143 = DIRECTION ( 'NONE',  ( 0.8660254037844387076, -0.5000000000000001110, 0.000000000000000000 ) ) ;
#144 = DIRECTION ( 'NONE',  ( 1.000000000000000000, 0.000000000000000000, -0.000000000000000000 ) ) ;
#145 = AXIS2_PLACEMENT_3D ( 'NONE', #165, #51, #144 ) ;
#146 = CARTESIAN_POINT ( 'NONE',  ( 0.000000000000000000, 0.000000000000000000, 15.00000000000000000 ) ) ;
#147 = VERTEX_POINT ( 'NONE', #56 ) ;
#148 = DIRECTION ( 'NONE',  ( -0.5000000000000000000, -0.8660254037844385966, 0.000000000000000000 ) ) ;
#149 = LINE ( 'NONE', #241, #169 ) ;
#150 = DIRECTION ( 'NONE',  ( 1.000000000000000000, 0.000000000000000000, 0.000000000000000000 ) ) ;
#151 = LINE ( 'NONE', #146, #128 ) ;
#152 = CYLINDRICAL_SURFACE ( 'NONE', #96, 4.000000000000000000 ) ;
#153 = ORIENTED_EDGE ( 'NONE', *, *, #136, .F. ) ;
#154 = VECTOR ( 'NONE', #183, 1000.000000000000000 ) ;
#155 = VERTEX_POINT ( 'NONE', #127 ) ;
#156 = CARTESIAN_POINT ( 'NONE',  ( 0.000000000000000000, 0.000000000000000000, 30.00000000000000000 ) ) ;
#157 = ORIENTED_EDGE ( 'NONE', *, *, #1, .F. ) ;
#158 = DIRECTION ( 'NONE',  ( 1.000000000000000000, 0.000000000000000000, 0.000000000000000000 ) ) ;
#159 = VERTEX_POINT ( 'NONE', #216 ) ;
#160 = ORIENTED_EDGE ( 'NONE', *, *, #220, .T. ) ;
#161 = APPLICATION_CONTEXT ( 'automotive_design' ) ;
#162 = PLANE ( 'NONE',  #236 ) ;
#163 = FACE_OUTER_BOUND ( 'NONE', #115, .T. ) ;
#164 = VECTOR ( 'NONE', #262, 1000.000000000000000 ) ;
#165 = CARTESIAN_POINT ( 'NONE',  ( 15.00000000000000000, 8.660254037844387298, 15.00000000000000000 ) ) ;
#166 = CARTESIAN_POINT ( 'NONE',  ( 10.00000000000000000, 17.32050807568877460, 30.00000000000000000 ) ) ;
#167 = ADVANCED_FACE ( 'NONE', ( #18 ), #130, .F. ) ;
#168 = DIRECTION ( 'NONE',  ( 0.000000000000000000, 1.000000000000000000, 0.000000000000000000 ) ) ;
#169 = VECTOR ( 'NONE', #285, 1000.000000000000000 ) ;
#170 = VECTOR ( 'NONE', #59, 1000.000000000000000 ) ;
#171 = DIRECTION ( 'NONE',  ( 0.5000000000000000000, -0.8660254037844385966, 0.000000000000000000 ) ) ;
#172 = DIRECTION ( 'NONE',  ( 0.000000000000000000, -0.000000000000000000, 1.000000000000000000 ) ) ;
#173 = PRODUCT_DEFINITION_SHAPE ( 'NONE', 'NONE',  #34 ) ;
#174 = FACE_OUTER_BOUND ( 'NONE', #36, .T. ) ;
#175 = MECHANICAL_DESIGN_GEOMETRIC_PRESENTATION_REPRESENTATION (  '', ( #78 ), #258 ) ;
#176 = CARTESIAN_POINT ( 'NONE',  ( 10.00000000000000000, 17.32050807568877460, 30.00000000000000000 ) ) ;
#177 = CARTESIAN_POINT ( 'NONE',  ( 15.00000000000000000, 8.660254037844387298, 15.00000000000000000 ) ) ;
#178 =( LENGTH_UNIT ( ) NAMED_UNIT ( * ) SI_UNIT ( .MILLI., .METRE. ) );
#179 = EDGE_CURVE ( 'NONE', #147, #249, #149, .T. ) ;
#180 = EDGE_LOOP ( 'NONE', ( #86, #8 ) ) ;
#181 = DIRECTION ( 'NONE',  ( 1.000000000000000000, 0.000000000000000000, 0.000000000000000000 ) ) ;
#182 = ORIENTED_EDGE ( 'NONE', *, *, #43, .F. ) ;
#183 = DIRECTION ( 'NONE',  ( -0.000000000000000000, -0.000000000000000000, -1.000000000000000000 ) ) ;
#184 = ORIENTED_EDGE ( 'NONE', *, *, #25, .F. ) ;
#185 = VERTEX_POINT ( 'NONE', #197 ) ;
#186 = DIRECTION ( 'NONE',  ( -0.5000000000000001110, 0.8660254037844387076, 0.000000000000000000 ) ) ;
#187 = FACE_OUTER_BOUND ( 'NONE', #256, .T. ) ;
#188 = FACE_OUTER_BOUND ( 'NONE', #203, .T. ) ;
#189 = LINE ( 'NONE', #67, #118 ) ;
#190 = ADVANCED_FACE ( 'NONE', ( #191 ), #282, .F. ) ;
#191 = FACE_OUTER_BOUND ( 'NONE', #5, .T. ) ;
#192 = DIRECTION ( 'NONE',  ( -0.000000000000000000, -0.000000000000000000, -1.000000000000000000 ) ) ;
#193 = ORIENTED_EDGE ( 'NONE', *, *, #281, .T. ) ;
#194 = VECTOR ( 'NONE', #148, 1000.000000000000227 ) ;
#195 = CIRCLE ( 'NONE', #113, 4.000000000000000000 ) ;
#196 = LINE ( 'NONE', #238, #270 ) ;
#197 = CARTESIAN_POINT ( 'NONE',  ( 13.00000000000000000, 12.12435565298214080, 30.00000000000000000 ) ) ;
#198 = LINE ( 'NONE', #214, #10 ) ;
#199 =( NAMED_UNIT ( * ) SI_UNIT ( $, .STERADIAN. ) SOLID_ANGLE_UNIT ( ) );
#200 = DIRECTION ( 'NONE',  ( -0.000000000000000000, -0.000000000000000000, 1.000000000000000000 ) ) ;
#201 = ORIENTED_EDGE ( 'NONE', *, *, #25, .T. ) ;
#202 = CARTESIAN_POINT ( 'NONE',  ( 10.00000000000000000, 0.000000000000000000, 15.00000000000000000 ) ) ;
#203 = EDGE_LOOP ( 'NONE', ( #140, #224, #102, #135, #284, #91, #47 ) ) ;
#204 = EDGE_CURVE ( 'NONE', #137, #271, #101, .T. ) ;
#205 = VERTEX_POINT ( 'NONE', #39 ) ;
#206 = EDGE_LOOP ( 'NONE', ( #223, #138, #273 ) ) ;
#207 = VECTOR ( 'NONE', #219, 1000.000000000000227 ) ;
#208 =( NAMED_UNIT ( * ) SI_UNIT ( $, .STERADIAN. ) SOLID_ANGLE_UNIT ( ) );
#209 = EDGE_CURVE ( 'NONE', #229, #63, #243, .T. ) ;
#210 = EDGE_CURVE ( 'NONE', #249, #63, #54, .T. ) ;
#211 = AXIS2_PLACEMENT_3D ( 'NONE', #142, #119, #12 ) ;
#212 = EDGE_CURVE ( 'NONE', #185, #63, #195, .T. ) ;
#213 = AXIS2_PLACEMENT_3D ( 'NONE', #82, #45, #22 ) ;
#214 = CARTESIAN_POINT ( 'NONE',  ( 13.00000000000000000, 12.12435565298214080, 15.00000000000000000 ) ) ;
#215 = VERTEX_POINT ( 'NONE', #105 ) ;
#216 = CARTESIAN_POINT ( 'NONE',  ( 0.000000000000000000, 0.000000000000000000, 30.00000000000000000 ) ) ;
#217 = AXIS2_PLACEMENT_3D ( 'NONE', #277, #68, #49 ) ;
#218 = CARTESIAN_POINT ( 'NONE',  ( 0.000000000000000000, 0.000000000000000000, 30.00000000000000000 ) ) ;
#219 = DIRECTION ( 'NONE',  ( -0.5000000000000000000, 0.8660254037844385966, 0.000000000000000000 ) ) ;
#220 = EDGE_CURVE ( 'NONE', #249, #271, #124, .T. ) ;
#221 = LINE ( 'NONE', #265, #62 ) ;
#222 = UNCERTAINTY_MEASURE_WITH_UNIT (LENGTH_MEASURE( 1.000000000000000082E-05 ), #178, 'distance_accuracy_value', 'NONE');
#223 = ORIENTED_EDGE ( 'NONE', *, *, #141, .F. ) ;
#224 = ORIENTED_EDGE ( 'NONE', *, *, #179, .T. ) ;
#225 = VERTEX_POINT ( 'NONE', #283 ) ;
#226 = ADVANCED_BREP_SHAPE_REPRESENTATION ( 'Dk4i', ( #79, #213 ), #42 ) ;
#227 = ORIENTED_EDGE ( 'NONE', *, *, #60, .T. ) ;
#228 = ORIENTED_EDGE ( 'NONE', *, *, #126, .F. ) ;
#229 = VERTEX_POINT ( 'NONE', #134 ) ;
#230 = CARTESIAN_POINT ( 'NONE',  ( 16.99999999999999645, 5.196152422706632024, 30.00000000000000000 ) ) ;
#231 = EDGE_CURVE ( 'NONE', #147, #225, #129, .T. ) ;
#232 = VECTOR ( 'NONE', #186, 999.9999999999998863 ) ;
#233 = CARTESIAN_POINT ( 'NONE',  ( 10.00000000000000000, 17.32050807568877460, 30.00000000000000000 ) ) ;
#234 = LINE ( 'NONE', #30, #139 ) ;
#235 = DIRECTION ( 'NONE',  ( 0.000000000000000000, 0.000000000000000000, -1.000000000000000000 ) ) ;
#236 = AXIS2_PLACEMENT_3D ( 'NONE', #166, #143, #278 ) ;
#237 = CARTESIAN_POINT ( 'NONE',  ( 20.00000000000000000, 0.000000000000000000, 30.00000000000000000 ) ) ;
#238 = CARTESIAN_POINT ( 'NONE',  ( 10.00000000000000000, 17.32050807568877460, 0.000000000000000000 ) ) ;
#239 = PRODUCT ( 'Dk4i', 'Dk4i', '', ( #24 ) ) ;
#240 = PRODUCT_RELATED_PRODUCT_CATEGORY ( 'part', '', ( #239 ) ) ;
#241 = CARTESIAN_POINT ( 'NONE',  ( 0.000000000000000000, 0.000000000000000000, 30.00000000000000000 ) ) ;
#242 = CLOSED_SHELL ( 'NONE', ( #6, #190, #120, #95, #167, #20, #255, #245, #80 ) ) ;
#243 = LINE ( 'NONE', #131, #164 ) ;
#244 = DIRECTION ( 'NONE',  ( 1.000000000000000000, 0.000000000000000000, 0.000000000000000000 ) ) ;
#245 = ADVANCED_FACE ( 'NONE', ( #111 ), #248, .T. ) ;
#246 = AXIS2_PLACEMENT_3D ( 'NONE', #14, #70, #71 ) ;
#247 = ORIENTED_EDGE ( 'NONE', *, *, #123, .T. ) ;
#248 = PLANE ( 'NONE',  #92 ) ;
#249 = VERTEX_POINT ( 'NONE', #108 ) ;
#250 = ORIENTED_EDGE ( 'NONE', *, *, #123, .F. ) ;
#251 = VECTOR ( 'NONE', #76, 1000.000000000000227 ) ;
#252 = APPLICATION_PROTOCOL_DEFINITION ( 'draft international standard', 'automotive_design', 1998, #279 ) ;
#253 = EDGE_CURVE ( 'NONE', #159, #225, #288, .T. ) ;
#254 = ORIENTED_EDGE ( 'NONE', *, *, #104, .F. ) ;
#255 = ADVANCED_FACE ( 'NONE', ( #81 ), #152, .F. ) ;
#256 = EDGE_LOOP ( 'NONE', ( #182, #184, #66, #276 ) ) ;
#257 = SURFACE_SIDE_STYLE ('',( #121 ) ) ;
#258 =( GEOMETRIC_REPRESENTATION_CONTEXT ( 3 ) GLOBAL_UNCERTAINTY_ASSIGNED_CONTEXT ( ( #27 ) ) GLOBAL_UNIT_ASSIGNED_CONTEXT ( ( #117, #97, #208 ) ) REPRESENTATION_CONTEXT ( 'NONE', 'WORKASPACE' ) );
#259 = LINE ( 'NONE', #275, #232 ) ;
#260 = FILL_AREA_STYLE ('',( #122 ) ) ;
#261 = DIRECTION ( 'NONE',  ( -0.000000000000000000, -0.000000000000000000, 1.000000000000000000 ) ) ;
#262 = DIRECTION ( 'NONE',  ( -0.000000000000000000, -0.000000000000000000, 1.000000000000000000 ) ) ;
#263 = DIRECTION ( 'NONE',  ( 0.000000000000000000, 0.000000000000000000, -1.000000000000000000 ) ) ;
#264 = DIRECTION ( 'NONE',  ( -0.000000000000000000, -0.000000000000000000, -1.000000000000000000 ) ) ;
#265 = CARTESIAN_POINT ( 'NONE',  ( 10.00000000000000000, 17.32050807568877460, 30.00000000000000000 ) ) ;
#266 = PRESENTATION_LAYER_ASSIGNMENT (  '', '', ( #78 ) ) ;
#267 = CARTESIAN_POINT ( 'NONE',  ( 0.000000000000000000, 0.000000000000000000, 0.000000000000000000 ) ) ;
#268 = ORIENTED_EDGE ( 'NONE', *, *, #32, .T. ) ;
#269 = SHAPE_DEFINITION_REPRESENTATION ( #173, #226 ) ;
#270 = VECTOR ( 'NONE', #287, 1000.000000000000227 ) ;
#271 = VERTEX_POINT ( 'NONE', #87 ) ;
#272 = CARTESIAN_POINT ( 'NONE',  ( 0.000000000000000000, 0.000000000000000000, 30.00000000000000000 ) ) ;
#273 = ORIENTED_EDGE ( 'NONE', *, *, #204, .F. ) ;
#274 = COLOUR_RGB ( '',0.7921568627450980005, 0.8196078431372548767, 0.9333333333333333481 ) ;
#275 = CARTESIAN_POINT ( 'NONE',  ( 20.00000000000000000, 0.000000000000000000, 15.00000000000000000 ) ) ;
#276 = ORIENTED_EDGE ( 'NONE', *, *, #32, .F. ) ;
#277 = CARTESIAN_POINT ( 'NONE',  ( 10.00000000000000000, 0.000000000000000000, 15.00000000000000000 ) ) ;
#278 = DIRECTION ( 'NONE',  ( 0.5000000000000000000, 0.8660254037844385966, 0.000000000000000000 ) ) ;
#279 = APPLICATION_CONTEXT ( 'automotive_design' ) ;
#280 = CARTESIAN_POINT ( 'NONE',  ( 14.00000000000000178, 0.000000000000000000, 15.00000000000000000 ) ) ;
#281 = EDGE_CURVE ( 'NONE', #159, #137, #4, .T. ) ;
#282 = PLANE ( 'NONE',  #41 ) ;
#283 = CARTESIAN_POINT ( 'NONE',  ( 5.999999999999999112, 0.000000000000000000, 30.00000000000000000 ) ) ;
#284 = ORIENTED_EDGE ( 'NONE', *, *, #104, .T. ) ;
#285 = DIRECTION ( 'NONE',  ( 1.000000000000000000, 0.000000000000000000, 0.000000000000000000 ) ) ;
#286 = CARTESIAN_POINT ( 'NONE',  ( 0.000000000000000000, 0.000000000000000000, 30.00000000000000000 ) ) ;
#287 = DIRECTION ( 'NONE',  ( -0.5000000000000000000, -0.8660254037844385966, 0.000000000000000000 ) ) ;
#288 = LINE ( 'NONE', #156, #170 ) ;
#289 = DIRECTION ( 'NONE',  ( 0.000000000000000000, 0.000000000000000000, 1.000000000000000000 ) ) ;
#290 = ORIENTED_EDGE ( 'NONE', *, *, #209, .T. ) ;
ENDSEC;
END-ISO-10303-21;
