# Blender 4.4.0
# www.blender.org
mtllib Dl1a.mtl
o Dl1a
v 0.196152 3.113249 80.000000
v 2.696152 7.443376 80.000000
v 2.696152 7.443376 30.000000
v 7.696152 16.103630 80.000000
v 10.196152 20.433756 80.000000
v 7.696152 16.103630 30.000000
v 10.196152 20.433756 -0.000000
v 0.196152 3.113249 -0.000000
v 20.196152 3.113249 80.000000
v 15.196152 3.113249 80.000000
v 15.196152 3.113249 30.000000
v 5.196152 3.113249 80.000000
v 5.196152 3.113249 30.000000
v 0.196152 3.113249 0.000000
v 20.196152 3.113249 0.000000
v 12.696153 16.103630 80.000000
v 12.696153 16.103630 30.000000
v 17.696152 7.443376 80.000000
v 17.696152 7.443376 30.000000
v 20.196152 3.113249 -0.000000
v 5.000000 17.660254 80.000000
v 0.000000 9.000000 80.000000
v 15.196152 0.000000 80.000000
v 5.196152 0.000000 80.000000
v 15.392304 17.660254 80.000000
v 20.392305 9.000000 80.000000
v 10.196152 20.433756 0.000000
v 20.392305 9.000000 30.000000
v 15.392304 17.660254 30.000000
v 5.196152 0.000000 30.000000
v 15.196152 0.000000 30.000000
v 0.000000 9.000000 30.000000
v 5.000000 17.660254 30.000000
vn -0.8660 0.5000 -0.0000
vn -0.0000 -1.0000 -0.0000
vn 0.8660 0.5000 -0.0000
vn -0.0000 -0.0000 1.0000
vn -0.0000 -0.0000 -1.0000
vn 0.5000 -0.8660 -0.0000
vn -0.5000 0.8660 -0.0000
vn -1.0000 -0.0000 -0.0000
vn 1.0000 -0.0000 -0.0000
vn 0.5000 0.8660 -0.0000
vn -0.5000 -0.8660 -0.0000
s 0
f 1//1 2//1 3//1
f 4//1 5//1 6//1
f 6//1 5//1 7//1
f 6//1 7//1 3//1
f 3//1 7//1 8//1
f 3//1 8//1 1//1
f 9//2 10//2 11//2
f 12//2 1//2 13//2
f 13//2 1//2 14//2
f 13//2 14//2 11//2
f 11//2 14//2 15//2
f 11//2 15//2 9//2
f 5//3 16//3 17//3
f 18//3 9//3 19//3
f 19//3 9//3 20//3
f 19//3 20//3 17//3
f 17//3 20//3 7//3
f 17//3 7//3 5//3
f 4//4 21//4 22//4
f 2//4 1//4 12//4
f 23//4 10//4 4//4
f 4//4 10//4 9//4
f 4//4 9//4 18//4
f 24//4 23//4 12//4
f 12//4 23//4 4//4
f 12//4 4//4 2//4
f 2//4 4//4 22//4
f 5//4 4//4 16//4
f 16//4 4//4 18//4
f 16//4 18//4 25//4
f 25//4 18//4 26//4
f 27//5 15//5 14//5
f 28//3 29//3 26//3
f 26//3 29//3 25//3
f 17//5 29//5 19//5
f 19//5 29//5 28//5
f 28//6 26//6 19//6
f 19//6 26//6 18//6
f 25//7 29//7 16//7
f 16//7 29//7 17//7
f 30//2 31//2 24//2
f 24//2 31//2 23//2
f 11//5 31//5 13//5
f 13//5 31//5 30//5
f 30//8 24//8 13//8
f 13//8 24//8 12//8
f 23//9 31//9 10//9
f 10//9 31//9 11//9
f 3//5 32//5 6//5
f 6//5 32//5 33//5
f 33//10 21//10 6//10
f 6//10 21//10 4//10
f 22//11 32//11 2//11
f 2//11 32//11 3//11
f 33//1 32//1 21//1
f 21//1 32//1 22//1
