# https://github.com/mikedh/trimesh
v 0.19615200 3.11324900 80.00000000
v 10.19615200 20.43375600 80.00000000
v 10.19615200 20.43375600 -0.00000000
v 0.19615200 3.11324900 -0.00000000
v 20.19615200 3.11324900 80.00000000
v 20.19615200 3.11324900 0.00000000
v 5.00000000 17.66025400 80.00000000
v 0.00000000 9.00000000 80.00000000
v 15.19615200 0.00000000 80.00000000
v 5.19615200 0.00000000 80.00000000
v 15.39230400 17.66025400 80.00000000
v 20.39230500 9.00000000 80.00000000
v 20.39230500 9.00000000 30.00000000
v 15.39230400 17.66025400 30.00000000
v 5.19615200 0.00000000 30.00000000
v 15.19615200 0.00000000 30.00000000
v 0.00000000 9.00000000 30.00000000
v 5.00000000 17.66025400 30.00000000
f 6 4 3
f 18 4 3
f 17 18 4
f 13 14 3
f 13 6 3
f 18 7 2
f 18 3 2
f 14 11 2
f 14 3 2
f 17 7 8
f 17 18 7
f 13 5 12
f 13 5 6
f 13 11 12
f 13 14 11
f 1 7 8
f 1 11 12
f 1 7 2
f 1 11 2
f 1 5 12
f 1 10 9
f 1 5 9
f 1 17 8
f 1 17 4
f 15 1 4
f 15 1 10
f 16 5 6
f 16 5 9
f 16 10 9
f 16 15 10
f 16 15 4
f 16 6 4

