ISO-10303-21;
HEADER;
FILE_DESCRIPTION (( 'STEP AP214' ),
    '1' );
FILE_NAME ('Dl1a.STEP',
    '2025-09-08T12:42:32',
    ( '' ),
    ( '' ),
    'SwSTEP 2.0',
    'SolidWorks 2024',
    '' );
FILE_SCHEMA (( 'AUTOMOTIVE_DESIGN' ));
ENDSEC;

DATA;
#1 = CARTESIAN_POINT ( 'NONE',  ( 20.00000000000000000, 0.000000000000000000, 80.00000000000000000 ) ) ;
#2 = VECTOR ( 'NONE', #317, 1000.000000000000227 ) ;
#3 = CARTESIAN_POINT ( 'NONE',  ( 20.00000000000000000, 0.000000000000000000, 80.00000000000000000 ) ) ;
#4 = ORIENTED_EDGE ( 'NONE', *, *, #465, .T. ) ;
#5 = ADVANCED_FACE ( 'NONE', ( #365 ), #496, .T. ) ;
#6 = EDGE_CURVE ( 'NONE', #276, #21, #71, .T. ) ;
#7 = CARTESIAN_POINT ( 'NONE',  ( 10.00000000000000000, 17.32050807568877460, 0.000000000000000000 ) ) ;
#8 = EDGE_CURVE ( 'NONE', #382, #463, #181, .T. ) ;
#9 = EDGE_CURVE ( 'NONE', #220, #231, #335, .T. ) ;
#10 = DIRECTION ( 'NONE',  ( 1.000000000000000000, 0.000000000000000000, 0.000000000000000000 ) ) ;
#11 = DIRECTION ( 'NONE',  ( 1.000000000000000000, 1.734723475976807094E-16, 0.000000000000000000 ) ) ;
#12 = ORIENTED_EDGE ( 'NONE', *, *, #413, .F. ) ;
#13 = VECTOR ( 'NONE', #269, 1000.000000000000000 ) ;
#14 = CARTESIAN_POINT ( 'NONE',  ( 10.00000000000000000, 17.32050807568877460, 80.00000000000000000 ) ) ;
#15 = ORIENTED_EDGE ( 'NONE', *, *, #430, .T. ) ;
#16 = PRODUCT ( 'Dl1a', 'Dl1a', '', ( #56 ) ) ;
#17 = DIRECTION ( 'NONE',  ( 1.000000000000000000, -0.000000000000000000, 0.000000000000000000 ) ) ;
#18 = ORIENTED_EDGE ( 'NONE', *, *, #460, .T. ) ;
#19 = EDGE_LOOP ( 'NONE', ( #29, #145, #107, #100 ) ) ;
#20 = DIRECTION ( 'NONE',  ( 1.000000000000000000, 1.734723475976807094E-16, -0.000000000000000000 ) ) ;
#21 = VERTEX_POINT ( 'NONE', #120 ) ;
#22 = ORIENTED_EDGE ( 'NONE', *, *, #203, .T. ) ;
#23 = AXIS2_PLACEMENT_3D ( 'NONE', #294, #74, #245 ) ;
#24 = VECTOR ( 'NONE', #284, 1000.000000000000000 ) ;
#25 = SURFACE_STYLE_FILL_AREA ( #197 ) ;
#26 = ORIENTED_EDGE ( 'NONE', *, *, #409, .F. ) ;
#27 = CARTESIAN_POINT ( 'NONE',  ( 0.000000000000000000, 0.000000000000000000, 30.00000000000000000 ) ) ;
#28 = ADVANCED_FACE ( 'NONE', ( #542 ), #501, .F. ) ;
#29 = ORIENTED_EDGE ( 'NONE', *, *, #184, .F. ) ;
#30 = PLANE ( 'NONE',  #377 ) ;
#31 = ORIENTED_EDGE ( 'NONE', *, *, #8, .F. ) ;
#32 = VERTEX_POINT ( 'NONE', #504 ) ;
#33 = DIRECTION ( 'NONE',  ( 0.000000000000000000, 0.000000000000000000, 1.000000000000000000 ) ) ;
#34 = LINE ( 'NONE', #147, #451 ) ;
#35 = ORIENTED_EDGE ( 'NONE', *, *, #128, .T. ) ;
#36 = LINE ( 'NONE', #454, #223 ) ;
#37 = AXIS2_PLACEMENT_3D ( 'NONE', #485, #292, #456 ) ;
#38 = PLANE ( 'NONE',  #92 ) ;
#39 = EDGE_CURVE ( 'NONE', #470, #54, #34, .T. ) ;
#40 = LINE ( 'NONE', #258, #440 ) ;
#41 = CARTESIAN_POINT ( 'NONE',  ( -0.1961524227066290260, 5.886751345948125547, 30.00000000000000000 ) ) ;
#42 = AXIS2_PLACEMENT_3D ( 'NONE', #89, #390, #10 ) ;
#43 = DIRECTION ( 'NONE',  ( 0.8660254037844384856, 0.5000000000000002220, 0.000000000000000000 ) ) ;
#44 = VECTOR ( 'NONE', #169, 1000.000000000000000 ) ;
#45 = PLANE ( 'NONE',  #398 ) ;
#46 = PRODUCT_DEFINITION_CONTEXT ( 'detailed design', #97, 'design' ) ;
#47 = CARTESIAN_POINT ( 'NONE',  ( 15.19615242270663202, 14.54700538379251640, 30.00000000000000000 ) ) ;
#48 = CARTESIAN_POINT ( 'NONE',  ( 20.00000000000000000, 0.000000000000000000, 0.000000000000000000 ) ) ;
#49 = VECTOR ( 'NONE', #380, 1000.000000000000000 ) ;
#50 = VECTOR ( 'NONE', #435, 1000.000000000000000 ) ;
#51 = LINE ( 'NONE', #90, #527 ) ;
#52 = ADVANCED_FACE ( 'NONE', ( #282 ), #324, .F. ) ;
#53 = CARTESIAN_POINT ( 'NONE',  ( 5.000000000000000888, -3.113248654051874009, 80.00000000000000000 ) ) ;
#54 = VERTEX_POINT ( 'NONE', #533 ) ;
#55 = LINE ( 'NONE', #217, #208 ) ;
#56 = PRODUCT_CONTEXT ( 'NONE', #69, 'mechanical' ) ;
#57 = LINE ( 'NONE', #444, #247 ) ;
#58 = DIRECTION ( 'NONE',  ( 0.000000000000000000, -0.000000000000000000, 1.000000000000000000 ) ) ;
#59 = ORIENTED_EDGE ( 'NONE', *, *, #459, .F. ) ;
#60 = ORIENTED_EDGE ( 'NONE', *, *, #394, .T. ) ;
#61 = ORIENTED_EDGE ( 'NONE', *, *, #402, .T. ) ;
#62 = EDGE_CURVE ( 'NONE', #201, #111, #150, .T. ) ;
#63 = MECHANICAL_DESIGN_GEOMETRIC_PRESENTATION_REPRESENTATION (  '', ( #441 ), #480 ) ;
#64 = ORIENTED_EDGE ( 'NONE', *, *, #139, .F. ) ;
#65 = CARTESIAN_POINT ( 'NONE',  ( 15.00000000000000178, -3.113248654051872233, 80.00000000000000000 ) ) ;
#66 = ORIENTED_EDGE ( 'NONE', *, *, #509, .F. ) ;
#67 = CARTESIAN_POINT ( 'NONE',  ( -0.1961524227066290260, 5.886751345948125547, 80.00000000000000000 ) ) ;
#68 = CARTESIAN_POINT ( 'NONE',  ( 15.19615242270663202, 14.54700538379251640, 30.00000000000000000 ) ) ;
#69 = APPLICATION_CONTEXT ( 'automotive_design' ) ;
#70 = ADVANCED_FACE ( 'NONE', ( #327 ), #491, .T. ) ;
#71 = LINE ( 'NONE', #228, #540 ) ;
#72 = EDGE_CURVE ( 'NONE', #195, #338, #119, .T. ) ;
#73 = CARTESIAN_POINT ( 'NONE',  ( 17.50000000000000000, 4.330127018922192761, 80.00000000000000000 ) ) ;
#74 = DIRECTION ( 'NONE',  ( -1.000000000000000000, -2.891205793294676847E-16, 0.000000000000000000 ) ) ;
#75 = VERTEX_POINT ( 'NONE', #250 ) ;
#76 = VERTEX_POINT ( 'NONE', #116 ) ;
#77 = CARTESIAN_POINT ( 'NONE',  ( 2.499999999999999556, 4.330127018922193649, 80.00000000000000000 ) ) ;
#78 = ORIENTED_EDGE ( 'NONE', *, *, #535, .T. ) ;
#79 = LINE ( 'NONE', #433, #235 ) ;
#80 = EDGE_CURVE ( 'NONE', #102, #264, #291, .T. ) ;
#81 =( LENGTH_UNIT ( ) NAMED_UNIT ( * ) SI_UNIT ( .MILLI., .METRE. ) );
#82 = VECTOR ( 'NONE', #512, 1000.000000000000114 ) ;
#83 = CARTESIAN_POINT ( 'NONE',  ( -0.1961524227066290260, 5.886751345948125547, 30.00000000000000000 ) ) ;
#84 = AXIS2_PLACEMENT_3D ( 'NONE', #68, #498, #336 ) ;
#85 = DIRECTION ( 'NONE',  ( 1.000000000000000000, 2.891205793294678819E-16, -0.000000000000000000 ) ) ;
#86 = UNCERTAINTY_MEASURE_WITH_UNIT (LENGTH_MEASURE( 1.000000000000000082E-05 ), #81, 'distance_accuracy_value', 'NONE');
#87 = LINE ( 'NONE', #381, #170 ) ;
#88 = ORIENTED_EDGE ( 'NONE', *, *, #413, .T. ) ;
#89 = CARTESIAN_POINT ( 'NONE',  ( 0.000000000000000000, 0.000000000000000000, 0.000000000000000000 ) ) ;
#90 = CARTESIAN_POINT ( 'NONE',  ( 4.803847577293369753, 14.54700538379251284, 80.00000000000000000 ) ) ;
#91 = VERTEX_POINT ( 'NONE', #287 ) ;
#92 = AXIS2_PLACEMENT_3D ( 'NONE', #198, #337, #122 ) ;
#93 = VECTOR ( 'NONE', #241, 1000.000000000000000 ) ;
#94 = CARTESIAN_POINT ( 'NONE',  ( 10.00000000000000000, 17.32050807568877460, 0.000000000000000000 ) ) ;
#95 = DIRECTION ( 'NONE',  ( 0.000000000000000000, 0.000000000000000000, 1.000000000000000000 ) ) ;
#96 = ORIENTED_EDGE ( 'NONE', *, *, #321, .T. ) ;
#97 = APPLICATION_CONTEXT ( 'automotive_design' ) ;
#98 = ADVANCED_FACE ( 'NONE', ( #194 ), #375, .T. ) ;
#99 = DIRECTION ( 'NONE',  ( 0.8660254037844387076, -0.5000000000000001110, 0.000000000000000000 ) ) ;
#100 = ORIENTED_EDGE ( 'NONE', *, *, #229, .T. ) ;
#101 = VECTOR ( 'NONE', #295, 1000.000000000000000 ) ;
#102 = VERTEX_POINT ( 'NONE', #488 ) ;
#103 = DIRECTION ( 'NONE',  ( 0.8660254037844385966, 0.5000000000000001110, -0.000000000000000000 ) ) ;
#104 = ORIENTED_EDGE ( 'NONE', *, *, #6, .F. ) ;
#105 = ORIENTED_EDGE ( 'NONE', *, *, #72, .F. ) ;
#106 =( LENGTH_UNIT ( ) NAMED_UNIT ( * ) SI_UNIT ( .MILLI., .METRE. ) );
#107 = ORIENTED_EDGE ( 'NONE', *, *, #525, .F. ) ;
#108 = ORIENTED_EDGE ( 'NONE', *, *, #6, .T. ) ;
#109 = ADVANCED_FACE ( 'NONE', ( #423 ), #38, .T. ) ;
#110 = CARTESIAN_POINT ( 'NONE',  ( 2.499999999999999556, 4.330127018922193649, 80.00000000000000000 ) ) ;
#111 = VERTEX_POINT ( 'NONE', #462 ) ;
#112 = CARTESIAN_POINT ( 'NONE',  ( 5.000000000000000000, 0.000000000000000000, 80.00000000000000000 ) ) ;
#113 = VERTEX_POINT ( 'NONE', #168 ) ;
#114 = FACE_OUTER_BOUND ( 'NONE', #378, .T. ) ;
#115 = ORIENTED_EDGE ( 'NONE', *, *, #9, .T. ) ;
#116 = CARTESIAN_POINT ( 'NONE',  ( 15.00000000000000178, -3.113248654051872233, 30.00000000000000000 ) ) ;
#117 = ORIENTED_EDGE ( 'NONE', *, *, #39, .F. ) ;
#118 = PLANE ( 'NONE',  #313 ) ;
#119 = LINE ( 'NONE', #452, #206 ) ;
#120 = CARTESIAN_POINT ( 'NONE',  ( 7.500000000000000000, 12.99038105676658006, 80.00000000000000000 ) ) ;
#121 = CARTESIAN_POINT ( 'NONE',  ( 20.19615242270663558, 5.886751345948129988, 30.00000000000000000 ) ) ;
#122 = DIRECTION ( 'NONE',  ( -0.4999999999999997224, -0.8660254037844387076, 0.000000000000000000 ) ) ;
#123 = DIRECTION ( 'NONE',  ( 1.000000000000000000, 0.000000000000000000, 0.000000000000000000 ) ) ;
#124 = VECTOR ( 'NONE', #410, 1000.000000000000000 ) ;
#125 = VECTOR ( 'NONE', #17, 1000.000000000000000 ) ;
#126 = DIRECTION ( 'NONE',  ( 0.000000000000000000, 0.000000000000000000, 1.000000000000000000 ) ) ;
#127 = DIRECTION ( 'NONE',  ( 0.5000000000000000000, -0.8660254037844385966, 0.000000000000000000 ) ) ;
#128 = EDGE_CURVE ( 'NONE', #76, #113, #351, .T. ) ;
#129 = LINE ( 'NONE', #342, #482 ) ;
#130 = UNCERTAINTY_MEASURE_WITH_UNIT (LENGTH_MEASURE( 1.000000000000000082E-05 ), #106, 'distance_accuracy_value', 'NONE');
#131 = AXIS2_PLACEMENT_3D ( 'NONE', #429, #386, #43 ) ;
#132 = CARTESIAN_POINT ( 'NONE',  ( 4.999999999999999112, 2.886751345948129543, 80.00000000000000000 ) ) ;
#133 = EDGE_CURVE ( 'NONE', #215, #470, #511, .T. ) ;
#134 = PLANE ( 'NONE',  #518 ) ;
#135 = LINE ( 'NONE', #271, #196 ) ;
#136 = LINE ( 'NONE', #357, #391 ) ;
#137 = ORIENTED_EDGE ( 'NONE', *, *, #133, .T. ) ;
#138 = AXIS2_PLACEMENT_3D ( 'NONE', #14, #99, #353 ) ;
#139 = EDGE_CURVE ( 'NONE', #276, #338, #550, .T. ) ;
#140 = LINE ( 'NONE', #144, #508 ) ;
#141 = CARTESIAN_POINT ( 'NONE',  ( 20.19615242270663558, 5.886751345948129988, 30.00000000000000000 ) ) ;
#142 = VERTEX_POINT ( 'NONE', #469 ) ;
#143 = ORIENTED_EDGE ( 'NONE', *, *, #9, .F. ) ;
#144 = CARTESIAN_POINT ( 'NONE',  ( 4.803847577293369753, 14.54700538379251284, 30.00000000000000000 ) ) ;
#145 = ORIENTED_EDGE ( 'NONE', *, *, #176, .F. ) ;
#146 = VERTEX_POINT ( 'NONE', #252 ) ;
#147 = CARTESIAN_POINT ( 'NONE',  ( 20.19615242270663558, 5.886751345948129988, 80.00000000000000000 ) ) ;
#148 = DIRECTION ( 'NONE',  ( 1.000000000000000000, 0.000000000000000000, 0.000000000000000000 ) ) ;
#149 = ORIENTED_EDGE ( 'NONE', *, *, #402, .F. ) ;
#150 = LINE ( 'NONE', #67, #332 ) ;
#151 = ORIENTED_EDGE ( 'NONE', *, *, #328, .T. ) ;
#152 = LINE ( 'NONE', #457, #474 ) ;
#153 = ORIENTED_EDGE ( 'NONE', *, *, #465, .F. ) ;
#154 = CARTESIAN_POINT ( 'NONE',  ( 4.803847577293369753, 14.54700538379251284, 30.00000000000000000 ) ) ;
#155 = EDGE_CURVE ( 'NONE', #32, #530, #87, .T. ) ;
#156 = ORIENTED_EDGE ( 'NONE', *, *, #296, .F. ) ;
#157 = AXIS2_PLACEMENT_3D ( 'NONE', #280, #536, #297 ) ;
#158 = VECTOR ( 'NONE', #253, 999.9999999999998863 ) ;
#159 = CARTESIAN_POINT ( 'NONE',  ( 5.000000000000000888, -3.113248654051874009, 30.00000000000000000 ) ) ;
#160 = CARTESIAN_POINT ( 'NONE',  ( 0.000000000000000000, 0.000000000000000000, 0.000000000000000000 ) ) ;
#161 = CARTESIAN_POINT ( 'NONE',  ( 9.999999999999998224, 11.54700538379251640, 30.00000000000000000 ) ) ;
#162 = FACE_OUTER_BOUND ( 'NONE', #183, .T. ) ;
#163 = ORIENTED_EDGE ( 'NONE', *, *, #387, .F. ) ;
#164 = PLANE ( 'NONE',  #131 ) ;
#165 = ORIENTED_EDGE ( 'NONE', *, *, #259, .T. ) ;
#166 = VECTOR ( 'NONE', #20, 1000.000000000000000 ) ;
#167 = FACE_OUTER_BOUND ( 'NONE', #330, .T. ) ;
#168 = CARTESIAN_POINT ( 'NONE',  ( 15.00000000000000000, 0.000000000000000000, 30.00000000000000000 ) ) ;
#169 = DIRECTION ( 'NONE',  ( -2.891205793294678326E-16, 1.000000000000000000, -0.000000000000000000 ) ) ;
#170 = VECTOR ( 'NONE', #384, 999.9999999999998863 ) ;
#171 = PLANE ( 'NONE',  #186 ) ;
#172 = DIRECTION ( 'NONE',  ( -0.000000000000000000, 0.000000000000000000, -1.000000000000000000 ) ) ;
#173 = FACE_OUTER_BOUND ( 'NONE', #484, .T. ) ;
#174 = PLANE ( 'NONE',  #138 ) ;
#175 = VECTOR ( 'NONE', #442, 1000.000000000000227 ) ;
#176 = EDGE_CURVE ( 'NONE', #111, #416, #263, .T. ) ;
#177 = CARTESIAN_POINT ( 'NONE',  ( 15.19615242270663202, 14.54700538379251640, 30.00000000000000000 ) ) ;
#178 = ORIENTED_EDGE ( 'NONE', *, *, #399, .F. ) ;
#179 = CARTESIAN_POINT ( 'NONE',  ( 10.00000000000000000, 17.32050807568877460, 80.00000000000000000 ) ) ;
#180 = ORIENTED_EDGE ( 'NONE', *, *, #39, .T. ) ;
#181 = LINE ( 'NONE', #526, #124 ) ;
#182 = SURFACE_SIDE_STYLE ('',( #25 ) ) ;
#183 = EDGE_LOOP ( 'NONE', ( #288, #26, #254, #4 ) ) ;
#184 = EDGE_CURVE ( 'NONE', #416, #530, #434, .T. ) ;
#185 = AXIS2_PLACEMENT_3D ( 'NONE', #160, #541, #417 ) ;
#186 = AXIS2_PLACEMENT_3D ( 'NONE', #437, #483, #221 ) ;
#187 = ORIENTED_EDGE ( 'NONE', *, *, #347, .T. ) ;
#188 = ORIENTED_EDGE ( 'NONE', *, *, #426, .T. ) ;
#189 = LINE ( 'NONE', #449, #305 ) ;
#190 = EDGE_LOOP ( 'NONE', ( #108, #187, #522, #436, #373, #227, #472, #360, #234, #78, #165, #180, #207, #371, #15 ) ) ;
#191 = ORIENTED_EDGE ( 'NONE', *, *, #240, .F. ) ;
#192 = LINE ( 'NONE', #545, #213 ) ;
#193 = ADVANCED_FACE ( 'NONE', ( #167 ), #45, .F. ) ;
#194 = FACE_OUTER_BOUND ( 'NONE', #450, .T. ) ;
#195 = VERTEX_POINT ( 'NONE', #48 ) ;
#196 = VECTOR ( 'NONE', #310, 1000.000000000000227 ) ;
#197 = FILL_AREA_STYLE ('',( #422 ) ) ;
#198 = CARTESIAN_POINT ( 'NONE',  ( -0.1961524227066290260, 5.886751345948125547, 30.00000000000000000 ) ) ;
#199 = DIRECTION ( 'NONE',  ( 1.000000000000000000, 0.000000000000000000, 0.000000000000000000 ) ) ;
#200 = EDGE_CURVE ( 'NONE', #455, #231, #129, .T. ) ;
#201 = VERTEX_POINT ( 'NONE', #466 ) ;
#202 = DIRECTION ( 'NONE',  ( 0.000000000000000000, 0.000000000000000000, -1.000000000000000000 ) ) ;
#203 = EDGE_CURVE ( 'NONE', #102, #142, #79, .T. ) ;
#204 = VECTOR ( 'NONE', #126, 1000.000000000000000 ) ;
#205 =( NAMED_UNIT ( * ) PLANE_ANGLE_UNIT ( ) SI_UNIT ( $, .RADIAN. ) );
#206 = VECTOR ( 'NONE', #331, 1000.000000000000227 ) ;
#207 = ORIENTED_EDGE ( 'NONE', *, *, #368, .T. ) ;
#208 = VECTOR ( 'NONE', #172, 1000.000000000000000 ) ;
#209 = LINE ( 'NONE', #83, #431 ) ;
#210 = CARTESIAN_POINT ( 'NONE',  ( 20.00000000000000000, 0.000000000000000000, 30.00000000000000000 ) ) ;
#211 = CARTESIAN_POINT ( 'NONE',  ( 15.00000000000000000, 2.886751345948127323, 80.00000000000000000 ) ) ;
#212 = CARTESIAN_POINT ( 'NONE',  ( -0.1961524227066290260, 5.886751345948125547, 30.00000000000000000 ) ) ;
#213 = VECTOR ( 'NONE', #199, 1000.000000000000000 ) ;
#214 = DIRECTION ( 'NONE',  ( 1.734723475976807094E-16, -1.000000000000000000, 0.000000000000000000 ) ) ;
#215 = VERTEX_POINT ( 'NONE', #468 ) ;
#216 = AXIS2_PLACEMENT_3D ( 'NONE', #319, #214, #11 ) ;
#217 = CARTESIAN_POINT ( 'NONE',  ( 15.00000000000000000, 0.000000000000000000, 80.00000000000000000 ) ) ;
#218 = ADVANCED_FACE ( 'NONE', ( #427 ), #134, .T. ) ;
#219 = PLANE ( 'NONE',  #216 ) ;
#220 = VERTEX_POINT ( 'NONE', #47 ) ;
#221 = DIRECTION ( 'NONE',  ( 1.000000000000000000, 0.000000000000000000, 0.000000000000000000 ) ) ;
#222 = ORIENTED_EDGE ( 'NONE', *, *, #500, .F. ) ;
#223 = VECTOR ( 'NONE', #407, 1000.000000000000227 ) ;
#224 = SHAPE_DEFINITION_REPRESENTATION ( #421, #345 ) ;
#225 = DIRECTION ( 'NONE',  ( -0.4999999999999996669, -0.8660254037844388186, 0.000000000000000000 ) ) ;
#226 = ADVANCED_FACE ( 'NONE', ( #301 ), #164, .T. ) ;
#227 = ORIENTED_EDGE ( 'NONE', *, *, #509, .T. ) ;
#228 = CARTESIAN_POINT ( 'NONE',  ( 10.00000000000000000, 17.32050807568877460, 80.00000000000000000 ) ) ;
#229 = EDGE_CURVE ( 'NONE', #249, #530, #40, .T. ) ;
#230 = DIRECTION ( 'NONE',  ( 0.000000000000000000, 1.000000000000000000, 0.000000000000000000 ) ) ;
#231 = VERTEX_POINT ( 'NONE', #339 ) ;
#232 = ORIENTED_EDGE ( 'NONE', *, *, #133, .F. ) ;
#233 = CARTESIAN_POINT ( 'NONE',  ( 0.000000000000000000, 0.000000000000000000, 80.00000000000000000 ) ) ;
#234 = ORIENTED_EDGE ( 'NONE', *, *, #243, .T. ) ;
#235 = VECTOR ( 'NONE', #547, 1000.000000000000000 ) ;
#236 = COLOUR_RGB ( '',0.7921568627450980005, 0.8196078431372548767, 0.9333333333333333481 ) ;
#237 = DIRECTION ( 'NONE',  ( 0.000000000000000000, 0.000000000000000000, 1.000000000000000000 ) ) ;
#238 = VERTEX_POINT ( 'NONE', #467 ) ;
#239 = DIRECTION ( 'NONE',  ( -0.000000000000000000, 0.000000000000000000, 1.000000000000000000 ) ) ;
#240 = EDGE_CURVE ( 'NONE', #91, #249, #209, .T. ) ;
#241 = DIRECTION ( 'NONE',  ( -0.000000000000000000, -0.000000000000000000, -1.000000000000000000 ) ) ;
#242 = DIRECTION ( 'NONE',  ( 0.000000000000000000, 0.000000000000000000, 1.000000000000000000 ) ) ;
#243 = EDGE_CURVE ( 'NONE', #463, #75, #308, .T. ) ;
#244 = FACE_OUTER_BOUND ( 'NONE', #393, .T. ) ;
#245 = DIRECTION ( 'NONE',  ( 2.891205793294676847E-16, -1.000000000000000000, 0.000000000000000000 ) ) ;
#246 =( GEOMETRIC_REPRESENTATION_CONTEXT ( 3 ) GLOBAL_UNCERTAINTY_ASSIGNED_CONTEXT ( ( #86 ) ) GLOBAL_UNIT_ASSIGNED_CONTEXT ( ( #81, #205, #257 ) ) REPRESENTATION_CONTEXT ( 'NONE', 'WORKASPACE' ) );
#247 = VECTOR ( 'NONE', #400, 1000.000000000000000 ) ;
#248 = LINE ( 'NONE', #210, #158 ) ;
#249 = VERTEX_POINT ( 'NONE', #212 ) ;
#250 = CARTESIAN_POINT ( 'NONE',  ( 15.00000000000000000, 0.000000000000000000, 80.00000000000000000 ) ) ;
#251 = EDGE_LOOP ( 'NONE', ( #31, #318, #18, #279 ) ) ;
#252 = CARTESIAN_POINT ( 'NONE',  ( 0.000000000000000000, 0.000000000000000000, 80.00000000000000000 ) ) ;
#253 = DIRECTION ( 'NONE',  ( -0.5000000000000001110, 0.8660254037844387076, -0.000000000000000000 ) ) ;
#254 = ORIENTED_EDGE ( 'NONE', *, *, #316, .T. ) ;
#255 = DIRECTION ( 'NONE',  ( -0.000000000000000000, -0.000000000000000000, -1.000000000000000000 ) ) ;
#256 = CLOSED_SHELL ( 'NONE', ( #326, #428, #193, #5, #52, #404, #28, #226, #475, #307, #419, #98, #218, #272, #70, #385, #109 ) ) ;
#257 =( NAMED_UNIT ( * ) SI_UNIT ( $, .STERADIAN. ) SOLID_ANGLE_UNIT ( ) );
#258 = CARTESIAN_POINT ( 'NONE',  ( 4.999999999999999112, 2.886751345948129543, 30.00000000000000000 ) ) ;
#259 = EDGE_CURVE ( 'NONE', #412, #470, #388, .T. ) ;
#260 = APPLICATION_PROTOCOL_DEFINITION ( 'draft international standard', 'automotive_design', 1998, #69 ) ;
#261 = DIRECTION ( 'NONE',  ( -0.8660254037844387076, -0.5000000000000001110, 0.000000000000000000 ) ) ;
#262 = APPLICATION_PROTOCOL_DEFINITION ( 'draft international standard', 'automotive_design', 1998, #97 ) ;
#263 = LINE ( 'NONE', #132, #82 ) ;
#264 = VERTEX_POINT ( 'NONE', #348 ) ;
#265 = VECTOR ( 'NONE', #242, 1000.000000000000000 ) ;
#266 = FACE_OUTER_BOUND ( 'NONE', #19, .T. ) ;
#267 = EDGE_LOOP ( 'NONE', ( #232, #532, #397, #117 ) ) ;
#268 = VECTOR ( 'NONE', #148, 1000.000000000000000 ) ;
#269 = DIRECTION ( 'NONE',  ( -0.000000000000000000, -0.000000000000000000, -1.000000000000000000 ) ) ;
#270 = PRODUCT_DEFINITION ( 'UNKNOWN', '', #495, #46 ) ;
#271 = CARTESIAN_POINT ( 'NONE',  ( 10.00000000000000000, 17.32050807568877460, 80.00000000000000000 ) ) ;
#272 = ADVANCED_FACE ( 'NONE', ( #513 ), #171, .F. ) ;
#273 = EDGE_CURVE ( 'NONE', #32, #91, #57, .T. ) ;
#274 = CARTESIAN_POINT ( 'NONE',  ( 15.19615242270663202, 14.54700538379251640, 80.00000000000000000 ) ) ;
#275 = EDGE_LOOP ( 'NONE', ( #281, #349, #309, #191 ) ) ;
#276 = VERTEX_POINT ( 'NONE', #179 ) ;
#277 = FACE_OUTER_BOUND ( 'NONE', #251, .T. ) ;
#278 = EDGE_LOOP ( 'NONE', ( #461, #401, #362, #35 ) ) ;
#279 = ORIENTED_EDGE ( 'NONE', *, *, #344, .T. ) ;
#280 = CARTESIAN_POINT ( 'NONE',  ( 0.000000000000000000, 0.000000000000000000, 30.00000000000000000 ) ) ;
#281 = ORIENTED_EDGE ( 'NONE', *, *, #273, .F. ) ;
#282 = FACE_OUTER_BOUND ( 'NONE', #453, .T. ) ;
#283 = ORIENTED_EDGE ( 'NONE', *, *, #439, .F. ) ;
#284 = DIRECTION ( 'NONE',  ( 0.000000000000000000, 0.000000000000000000, 1.000000000000000000 ) ) ;
#285 = ORIENTED_EDGE ( 'NONE', *, *, #311, .F. ) ;
#286 = VECTOR ( 'NONE', #123, 1000.000000000000000 ) ;
#287 = CARTESIAN_POINT ( 'NONE',  ( 4.803847577293369753, 14.54700538379251284, 30.00000000000000000 ) ) ;
#288 = ORIENTED_EDGE ( 'NONE', *, *, #368, .F. ) ;
#289 = CARTESIAN_POINT ( 'NONE',  ( 20.19615242270663558, 5.886751345948129988, 30.00000000000000000 ) ) ;
#290 = ORIENTED_EDGE ( 'NONE', *, *, #316, .F. ) ;
#291 = LINE ( 'NONE', #112, #265 ) ;
#292 = DIRECTION ( 'NONE',  ( -0.000000000000000000, 0.000000000000000000, 1.000000000000000000 ) ) ;
#293 = CARTESIAN_POINT ( 'NONE',  ( 12.50000000000000000, 12.99038105676658006, 80.00000000000000000 ) ) ;
#294 = CARTESIAN_POINT ( 'NONE',  ( 5.000000000000000888, -3.113248654051874009, 30.00000000000000000 ) ) ;
#295 = DIRECTION ( 'NONE',  ( -0.8660254037844387076, -0.4999999999999999445, -0.000000000000000000 ) ) ;
#296 = EDGE_CURVE ( 'NONE', #215, #494, #392, .T. ) ;
#297 = DIRECTION ( 'NONE',  ( 1.000000000000000000, 0.000000000000000000, 0.000000000000000000 ) ) ;
#298 = ORIENTED_EDGE ( 'NONE', *, *, #80, .F. ) ;
#299 = DIRECTION ( 'NONE',  ( 0.8660254037844385966, 0.5000000000000001110, -0.000000000000000000 ) ) ;
#300 = AXIS2_PLACEMENT_3D ( 'NONE', #314, #225, #521 ) ;
#301 = FACE_OUTER_BOUND ( 'NONE', #267, .T. ) ;
#302 = CARTESIAN_POINT ( 'NONE',  ( 10.00000000000000000, 17.32050807568877460, 80.00000000000000000 ) ) ;
#303 = LINE ( 'NONE', #505, #286 ) ;
#304 = DIRECTION ( 'NONE',  ( -2.891205793294678819E-16, 1.000000000000000000, 0.000000000000000000 ) ) ;
#305 = VECTOR ( 'NONE', #325, 1000.000000000000000 ) ;
#306 = DIRECTION ( 'NONE',  ( 0.000000000000000000, 0.000000000000000000, -1.000000000000000000 ) ) ;
#307 = ADVANCED_FACE ( 'NONE', ( #277 ), #219, .T. ) ;
#308 = LINE ( 'NONE', #211, #44 ) ;
#309 = ORIENTED_EDGE ( 'NONE', *, *, #229, .F. ) ;
#310 = DIRECTION ( 'NONE',  ( -0.5000000000000000000, -0.8660254037844385966, 0.000000000000000000 ) ) ;
#311 = EDGE_CURVE ( 'NONE', #412, #195, #478, .T. ) ;
#312 = CARTESIAN_POINT ( 'NONE',  ( 15.19615242270663202, 14.54700538379251640, 80.00000000000000000 ) ) ;
#313 = AXIS2_PLACEMENT_3D ( 'NONE', #531, #230, #58 ) ;
#314 = CARTESIAN_POINT ( 'NONE',  ( 4.999999999999999112, 2.886751345948129543, 30.00000000000000000 ) ) ;
#315 = ORIENTED_EDGE ( 'NONE', *, *, #62, .F. ) ;
#316 = EDGE_CURVE ( 'NONE', #494, #220, #520, .T. ) ;
#317 = DIRECTION ( 'NONE',  ( -0.5000000000000002220, 0.8660254037844384856, -0.000000000000000000 ) ) ;
#318 = ORIENTED_EDGE ( 'NONE', *, *, #426, .F. ) ;
#319 = CARTESIAN_POINT ( 'NONE',  ( 15.00000000000000178, -3.113248654051872233, 30.00000000000000000 ) ) ;
#320 = ORIENTED_EDGE ( 'NONE', *, *, #459, .T. ) ;
#321 = EDGE_CURVE ( 'NONE', #75, #113, #55, .T. ) ;
#322 = ORIENTED_EDGE ( 'NONE', *, *, #128, .F. ) ;
#323 = ORIENTED_EDGE ( 'NONE', *, *, #240, .T. ) ;
#324 = PLANE ( 'NONE',  #185 ) ;
#325 = DIRECTION ( 'NONE',  ( 2.891205793294676847E-16, -1.000000000000000000, -0.000000000000000000 ) ) ;
#326 = ADVANCED_FACE ( 'NONE', ( #173 ), #174, .F. ) ;
#327 = FACE_OUTER_BOUND ( 'NONE', #354, .T. ) ;
#328 = EDGE_CURVE ( 'NONE', #32, #21, #352, .T. ) ;
#329 = CARTESIAN_POINT ( 'NONE',  ( 9.999999999999998224, 11.54700538379251640, 30.00000000000000000 ) ) ;
#330 = EDGE_LOOP ( 'NONE', ( #538, #490, #222, #137, #447, #448, #369, #64 ) ) ;
#331 = DIRECTION ( 'NONE',  ( -0.5000000000000000000, 0.8660254037844385966, 0.000000000000000000 ) ) ;
#332 = VECTOR ( 'NONE', #458, 1000.000000000000114 ) ;
#333 = VECTOR ( 'NONE', #523, 1000.000000000000227 ) ;
#334 = CARTESIAN_POINT ( 'NONE',  ( 0.000000000000000000, 0.000000000000000000, 0.000000000000000000 ) ) ;
#335 = LINE ( 'NONE', #161, #101 ) ;
#336 = DIRECTION ( 'NONE',  ( -0.5000000000000002220, 0.8660254037844384856, 0.000000000000000000 ) ) ;
#337 = DIRECTION ( 'NONE',  ( -0.8660254037844388186, 0.4999999999999997780, 0.000000000000000000 ) ) ;
#338 = VERTEX_POINT ( 'NONE', #7 ) ;
#339 = CARTESIAN_POINT ( 'NONE',  ( 12.49999999999999645, 12.99038105676658361, 30.00000000000000000 ) ) ;
#340 = VECTOR ( 'NONE', #237, 1000.000000000000000 ) ;
#341 = CARTESIAN_POINT ( 'NONE',  ( 2.499999999999998668, 4.330127018922190096, 30.00000000000000000 ) ) ;
#342 = CARTESIAN_POINT ( 'NONE',  ( 12.49999999999999822, 12.99038105676658184, 80.00000000000000000 ) ) ;
#343 = CARTESIAN_POINT ( 'NONE',  ( 17.50000000000000000, 4.330127018922192761, 80.00000000000000000 ) ) ;
#344 = EDGE_CURVE ( 'NONE', #76, #463, #136, .T. ) ;
#345 = ADVANCED_BREP_SHAPE_REPRESENTATION ( 'Dl1a', ( #497, #42 ), #246 ) ;
#346 = LINE ( 'NONE', #41, #49 ) ;
#347 = EDGE_CURVE ( 'NONE', #21, #201, #51, .T. ) ;
#348 = CARTESIAN_POINT ( 'NONE',  ( 5.000000000000000000, 0.000000000000000000, 80.00000000000000000 ) ) ;
#349 = ORIENTED_EDGE ( 'NONE', *, *, #155, .T. ) ;
#350 =( NAMED_UNIT ( * ) SI_UNIT ( $, .STERADIAN. ) SOLID_ANGLE_UNIT ( ) );
#351 = LINE ( 'NONE', #464, #473 ) ;
#352 = LINE ( 'NONE', #476, #355 ) ;
#353 = DIRECTION ( 'NONE',  ( 0.5000000000000000000, 0.8660254037844385966, 0.000000000000000000 ) ) ;
#354 = EDGE_LOOP ( 'NONE', ( #534, #379, #61, #445 ) ) ;
#355 = VECTOR ( 'NONE', #516, 1000.000000000000000 ) ;
#356 = CARTESIAN_POINT ( 'NONE',  ( 9.999999999999998224, 11.54700538379251640, 80.00000000000000000 ) ) ;
#357 = CARTESIAN_POINT ( 'NONE',  ( 15.00000000000000178, -3.113248654051872233, 30.00000000000000000 ) ) ;
#358 = VERTEX_POINT ( 'NONE', #274 ) ;
#359 = LINE ( 'NONE', #312, #175 ) ;
#360 = ORIENTED_EDGE ( 'NONE', *, *, #8, .T. ) ;
#361 = PRODUCT_RELATED_PRODUCT_CATEGORY ( 'part', '', ( #16 ) ) ;
#362 = ORIENTED_EDGE ( 'NONE', *, *, #344, .F. ) ;
#363 = PRESENTATION_STYLE_ASSIGNMENT (( #528 ) ) ;
#364 = ORIENTED_EDGE ( 'NONE', *, *, #139, .T. ) ;
#365 = FACE_OUTER_BOUND ( 'NONE', #190, .T. ) ;
#366 = LINE ( 'NONE', #334, #268 ) ;
#367 = ORIENTED_EDGE ( 'NONE', *, *, #525, .T. ) ;
#368 = EDGE_CURVE ( 'NONE', #54, #358, #359, .T. ) ;
#369 = ORIENTED_EDGE ( 'NONE', *, *, #72, .T. ) ;
#370 = DIRECTION ( 'NONE',  ( -0.8660254037844387076, -0.4999999999999998890, 0.000000000000000000 ) ) ;
#371 = ORIENTED_EDGE ( 'NONE', *, *, #389, .T. ) ;
#372 = DIRECTION ( 'NONE',  ( 1.000000000000000000, 0.000000000000000000, 0.000000000000000000 ) ) ;
#373 = ORIENTED_EDGE ( 'NONE', *, *, #387, .T. ) ;
#374 = PLANE ( 'NONE',  #84 ) ;
#375 = PLANE ( 'NONE',  #23 ) ;
#376 = VECTOR ( 'NONE', #202, 1000.000000000000000 ) ;
#377 = AXIS2_PLACEMENT_3D ( 'NONE', #329, #411, #370 ) ;
#378 = EDGE_LOOP ( 'NONE', ( #405, #96, #510, #492, #66, #320, #88, #285 ) ) ;
#379 = ORIENTED_EDGE ( 'NONE', *, *, #273, .T. ) ;
#380 = DIRECTION ( 'NONE',  ( 0.000000000000000000, 0.000000000000000000, 1.000000000000000000 ) ) ;
#381 = CARTESIAN_POINT ( 'NONE',  ( 10.00000000000000000, 17.32050807568877460, 30.00000000000000000 ) ) ;
#382 = VERTEX_POINT ( 'NONE', #53 ) ;
#383 = DIRECTION ( 'NONE',  ( 0.8660254037844388186, -0.4999999999999997224, -0.000000000000000000 ) ) ;
#384 = DIRECTION ( 'NONE',  ( -0.5000000000000001110, -0.8660254037844387076, 0.000000000000000000 ) ) ;
#385 = ADVANCED_FACE ( 'NONE', ( #266 ), #396, .T. ) ;
#386 = DIRECTION ( 'NONE',  ( 0.5000000000000003331, -0.8660254037844385966, 0.000000000000000000 ) ) ;
#387 = EDGE_CURVE ( 'NONE', #416, #146, #135, .T. ) ;
#388 = LINE ( 'NONE', #1, #414 ) ;
#389 = EDGE_CURVE ( 'NONE', #358, #455, #403, .T. ) ;
#390 = DIRECTION ( 'NONE',  ( 0.000000000000000000, 0.000000000000000000, 1.000000000000000000 ) ) ;
#391 = VECTOR ( 'NONE', #95, 1000.000000000000000 ) ;
#392 = LINE ( 'NONE', #141, #514 ) ;
#393 = EDGE_LOOP ( 'NONE', ( #537, #529, #153, #115 ) ) ;
#394 = EDGE_CURVE ( 'NONE', #102, #113, #395, .T. ) ;
#395 = LINE ( 'NONE', #438, #125 ) ;
#396 = PLANE ( 'NONE',  #300 ) ;
#397 = ORIENTED_EDGE ( 'NONE', *, *, #409, .T. ) ;
#398 = AXIS2_PLACEMENT_3D ( 'NONE', #549, #261, #127 ) ;
#399 = EDGE_CURVE ( 'NONE', #338, #238, #517, .T. ) ;
#400 = DIRECTION ( 'NONE',  ( -0.8660254037844387076, 0.4999999999999998890, -0.000000000000000000 ) ) ;
#401 = ORIENTED_EDGE ( 'NONE', *, *, #243, .F. ) ;
#402 = EDGE_CURVE ( 'NONE', #91, #201, #140, .T. ) ;
#403 = LINE ( 'NONE', #356, #50 ) ;
#404 = ADVANCED_FACE ( 'NONE', ( #162 ), #374, .T. ) ;
#405 = ORIENTED_EDGE ( 'NONE', *, *, #535, .F. ) ;
#406 = DIRECTION ( 'NONE',  ( -0.5000000000000000000, -0.8660254037844385966, 0.000000000000000000 ) ) ;
#407 = DIRECTION ( 'NONE',  ( -0.5000000000000000000, 0.8660254037844385966, 0.000000000000000000 ) ) ;
#408 = ORIENTED_EDGE ( 'NONE', *, *, #460, .F. ) ;
#409 = EDGE_CURVE ( 'NONE', #494, #54, #502, .T. ) ;
#410 = DIRECTION ( 'NONE',  ( 1.000000000000000000, 1.734723475976807094E-16, -0.000000000000000000 ) ) ;
#411 = DIRECTION ( 'NONE',  ( -0.4999999999999998890, 0.8660254037844387076, 0.000000000000000000 ) ) ;
#412 = VERTEX_POINT ( 'NONE', #489 ) ;
#413 = EDGE_CURVE ( 'NONE', #238, #195, #366, .T. ) ;
#414 = VECTOR ( 'NONE', #506, 1000.000000000000227 ) ;
#415 = PLANE ( 'NONE',  #157 ) ;
#416 = VERTEX_POINT ( 'NONE', #110 ) ;
#417 = DIRECTION ( 'NONE',  ( 1.000000000000000000, 0.000000000000000000, 0.000000000000000000 ) ) ;
#418 = ORIENTED_EDGE ( 'NONE', *, *, #399, .T. ) ;
#419 = ADVANCED_FACE ( 'NONE', ( #486 ), #415, .F. ) ;
#420 = CARTESIAN_POINT ( 'NONE',  ( 15.00000000000000178, -3.113248654051872233, 30.00000000000000000 ) ) ;
#421 = PRODUCT_DEFINITION_SHAPE ( 'NONE', 'NONE',  #270 ) ;
#422 = FILL_AREA_STYLE_COLOUR ( '', #236 ) ;
#423 = FACE_OUTER_BOUND ( 'NONE', #503, .T. ) ;
#424 = AXIS2_PLACEMENT_3D ( 'NONE', #27, #239, #372 ) ;
#425 = ORIENTED_EDGE ( 'NONE', *, *, #155, .F. ) ;
#426 = EDGE_CURVE ( 'NONE', #142, #382, #539, .T. ) ;
#427 = FACE_OUTER_BOUND ( 'NONE', #278, .T. ) ;
#428 = ADVANCED_FACE ( 'NONE', ( #114 ), #118, .F. ) ;
#429 = CARTESIAN_POINT ( 'NONE',  ( 20.19615242270663558, 5.886751345948129988, 30.00000000000000000 ) ) ;
#430 = EDGE_CURVE ( 'NONE', #455, #276, #36, .T. ) ;
#431 = VECTOR ( 'NONE', #432, 1000.000000000000114 ) ;
#432 = DIRECTION ( 'NONE',  ( -0.4999999999999997780, -0.8660254037844387076, -0.000000000000000000 ) ) ;
#433 = CARTESIAN_POINT ( 'NONE',  ( 5.000000000000000888, -3.113248654051874009, 30.00000000000000000 ) ) ;
#434 = LINE ( 'NONE', #77, #376 ) ;
#435 = DIRECTION ( 'NONE',  ( -0.8660254037844387076, -0.4999999999999999445, -0.000000000000000000 ) ) ;
#436 = ORIENTED_EDGE ( 'NONE', *, *, #176, .T. ) ;
#437 = CARTESIAN_POINT ( 'NONE',  ( 0.000000000000000000, 0.000000000000000000, 30.00000000000000000 ) ) ;
#438 = CARTESIAN_POINT ( 'NONE',  ( 0.000000000000000000, 0.000000000000000000, 30.00000000000000000 ) ) ;
#439 = EDGE_CURVE ( 'NONE', #264, #382, #189, .T. ) ;
#440 = VECTOR ( 'NONE', #383, 1000.000000000000114 ) ;
#441 = STYLED_ITEM ( 'NONE', ( #363 ), #497 ) ;
#442 = DIRECTION ( 'NONE',  ( -0.5000000000000002220, 0.8660254037844384856, -0.000000000000000000 ) ) ;
#443 = ORIENTED_EDGE ( 'NONE', *, *, #500, .T. ) ;
#444 = CARTESIAN_POINT ( 'NONE',  ( 4.803847577293369753, 14.54700538379251284, 30.00000000000000000 ) ) ;
#445 = ORIENTED_EDGE ( 'NONE', *, *, #347, .F. ) ;
#446 =( NAMED_UNIT ( * ) PLANE_ANGLE_UNIT ( ) SI_UNIT ( $, .RADIAN. ) );
#447 = ORIENTED_EDGE ( 'NONE', *, *, #259, .F. ) ;
#448 = ORIENTED_EDGE ( 'NONE', *, *, #311, .T. ) ;
#449 = CARTESIAN_POINT ( 'NONE',  ( 5.000000000000000888, -3.113248654051874009, 80.00000000000000000 ) ) ;
#450 = EDGE_LOOP ( 'NONE', ( #298, #22, #188, #283 ) ) ;
#451 = VECTOR ( 'NONE', #299, 1000.000000000000000 ) ;
#452 = CARTESIAN_POINT ( 'NONE',  ( 20.00000000000000000, 0.000000000000000000, 0.000000000000000000 ) ) ;
#453 = EDGE_LOOP ( 'NONE', ( #178, #105, #12 ) ) ;
#454 = CARTESIAN_POINT ( 'NONE',  ( 20.00000000000000000, 0.000000000000000000, 80.00000000000000000 ) ) ;
#455 = VERTEX_POINT ( 'NONE', #293 ) ;
#456 = DIRECTION ( 'NONE',  ( 1.000000000000000000, 0.000000000000000000, 0.000000000000000000 ) ) ;
#457 = CARTESIAN_POINT ( 'NONE',  ( 15.19615242270663202, 14.54700538379251640, 30.00000000000000000 ) ) ;
#458 = DIRECTION ( 'NONE',  ( -0.4999999999999997780, -0.8660254037844387076, -0.000000000000000000 ) ) ;
#459 = EDGE_CURVE ( 'NONE', #146, #238, #493, .T. ) ;
#460 = EDGE_CURVE ( 'NONE', #142, #76, #543, .T. ) ;
#461 = ORIENTED_EDGE ( 'NONE', *, *, #321, .F. ) ;
#462 = CARTESIAN_POINT ( 'NONE',  ( -0.1961524227066290260, 5.886751345948125547, 80.00000000000000000 ) ) ;
#463 = VERTEX_POINT ( 'NONE', #65 ) ;
#464 = CARTESIAN_POINT ( 'NONE',  ( 15.00000000000000000, 2.886751345948127323, 30.00000000000000000 ) ) ;
#465 = EDGE_CURVE ( 'NONE', #220, #358, #152, .T. ) ;
#466 = CARTESIAN_POINT ( 'NONE',  ( 4.803847577293369753, 14.54700538379251284, 80.00000000000000000 ) ) ;
#467 = CARTESIAN_POINT ( 'NONE',  ( 0.000000000000000000, 0.000000000000000000, 0.000000000000000000 ) ) ;
#468 = CARTESIAN_POINT ( 'NONE',  ( 17.50000000000000000, 4.330127018922193649, 30.00000000000000000 ) ) ;
#469 = CARTESIAN_POINT ( 'NONE',  ( 5.000000000000000888, -3.113248654051874009, 30.00000000000000000 ) ) ;
#470 = VERTEX_POINT ( 'NONE', #73 ) ;
#471 = DIRECTION ( 'NONE',  ( -0.8660254037844387076, 0.4999999999999998890, -0.000000000000000000 ) ) ;
#472 = ORIENTED_EDGE ( 'NONE', *, *, #439, .T. ) ;
#473 = VECTOR ( 'NONE', #515, 1000.000000000000000 ) ;
#474 = VECTOR ( 'NONE', #33, 1000.000000000000000 ) ;
#475 = ADVANCED_FACE ( 'NONE', ( #244 ), #30, .T. ) ;
#476 = CARTESIAN_POINT ( 'NONE',  ( 7.500000000000000000, 12.99038105676658006, 80.00000000000000000 ) ) ;
#477 = DIRECTION ( 'NONE',  ( 0.000000000000000000, 0.000000000000000000, 1.000000000000000000 ) ) ;
#478 = LINE ( 'NONE', #3, #13 ) ;
#479 = ORIENTED_EDGE ( 'NONE', *, *, #184, .T. ) ;
#480 =( GEOMETRIC_REPRESENTATION_CONTEXT ( 3 ) GLOBAL_UNCERTAINTY_ASSIGNED_CONTEXT ( ( #130 ) ) GLOBAL_UNIT_ASSIGNED_CONTEXT ( ( #106, #446, #350 ) ) REPRESENTATION_CONTEXT ( 'NONE', 'WORKASPACE' ) );
#481 = ORIENTED_EDGE ( 'NONE', *, *, #203, .F. ) ;
#482 = VECTOR ( 'NONE', #306, 1000.000000000000000 ) ;
#483 = DIRECTION ( 'NONE',  ( -0.000000000000000000, 0.000000000000000000, 1.000000000000000000 ) ) ;
#484 = EDGE_LOOP ( 'NONE', ( #425, #151, #104, #364, #418, #59, #163, #479 ) ) ;
#485 = CARTESIAN_POINT ( 'NONE',  ( 0.000000000000000000, 0.000000000000000000, 80.00000000000000000 ) ) ;
#486 = FACE_OUTER_BOUND ( 'NONE', #487, .T. ) ;
#487 = EDGE_LOOP ( 'NONE', ( #481, #60, #322, #408 ) ) ;
#488 = CARTESIAN_POINT ( 'NONE',  ( 5.000000000000000000, 0.000000000000000000, 30.00000000000000000 ) ) ;
#489 = CARTESIAN_POINT ( 'NONE',  ( 20.00000000000000000, 0.000000000000000000, 80.00000000000000000 ) ) ;
#490 = ORIENTED_EDGE ( 'NONE', *, *, #200, .T. ) ;
#491 = PLANE ( 'NONE',  #507 ) ;
#492 = ORIENTED_EDGE ( 'NONE', *, *, #80, .T. ) ;
#493 = LINE ( 'NONE', #233, #93 ) ;
#494 = VERTEX_POINT ( 'NONE', #289 ) ;
#495 = PRODUCT_DEFINITION_FORMATION_WITH_SPECIFIED_SOURCE ( 'ANY', '', #16, .NOT_KNOWN. ) ;
#496 = PLANE ( 'NONE',  #37 ) ;
#497 = MANIFOLD_SOLID_BREP ( 'Aufsatz-Linear austragen13', #256 ) ;
#498 = DIRECTION ( 'NONE',  ( 0.8660254037844385966, 0.5000000000000003331, -0.000000000000000000 ) ) ;
#499 = DIRECTION ( 'NONE',  ( -0.8660254037844387076, 0.4999999999999998335, 0.000000000000000000 ) ) ;
#500 = EDGE_CURVE ( 'NONE', #215, #231, #248, .T. ) ;
#501 = PLANE ( 'NONE',  #424 ) ;
#502 = LINE ( 'NONE', #121, #340 ) ;
#503 = EDGE_LOOP ( 'NONE', ( #315, #149, #323, #367 ) ) ;
#504 = CARTESIAN_POINT ( 'NONE',  ( 7.499999999999998224, 12.99038105676657828, 30.00000000000000000 ) ) ;
#505 = CARTESIAN_POINT ( 'NONE',  ( 0.000000000000000000, 0.000000000000000000, 80.00000000000000000 ) ) ;
#506 = DIRECTION ( 'NONE',  ( -0.5000000000000000000, 0.8660254037844385966, 0.000000000000000000 ) ) ;
#507 = AXIS2_PLACEMENT_3D ( 'NONE', #154, #544, #499 ) ;
#508 = VECTOR ( 'NONE', #477, 1000.000000000000000 ) ;
#509 = EDGE_CURVE ( 'NONE', #146, #264, #192, .T. ) ;
#510 = ORIENTED_EDGE ( 'NONE', *, *, #394, .F. ) ;
#511 = LINE ( 'NONE', #343, #204 ) ;
#512 = DIRECTION ( 'NONE',  ( 0.8660254037844388186, -0.4999999999999997224, -0.000000000000000000 ) ) ;
#513 = FACE_OUTER_BOUND ( 'NONE', #275, .T. ) ;
#514 = VECTOR ( 'NONE', #103, 1000.000000000000000 ) ;
#515 = DIRECTION ( 'NONE',  ( -2.891205793294678326E-16, 1.000000000000000000, -0.000000000000000000 ) ) ;
#516 = DIRECTION ( 'NONE',  ( 0.000000000000000000, 0.000000000000000000, 1.000000000000000000 ) ) ;
#517 = LINE ( 'NONE', #94, #333 ) ;
#518 = AXIS2_PLACEMENT_3D ( 'NONE', #546, #85, #304 ) ;
#519 = VECTOR ( 'NONE', #255, 1000.000000000000000 ) ;
#520 = LINE ( 'NONE', #177, #2 ) ;
#521 = DIRECTION ( 'NONE',  ( 0.8660254037844388186, -0.4999999999999996669, 0.000000000000000000 ) ) ;
#522 = ORIENTED_EDGE ( 'NONE', *, *, #62, .T. ) ;
#523 = DIRECTION ( 'NONE',  ( -0.5000000000000000000, -0.8660254037844385966, 0.000000000000000000 ) ) ;
#524 = EDGE_LOOP ( 'NONE', ( #156, #443, #143, #290 ) ) ;
#525 = EDGE_CURVE ( 'NONE', #249, #111, #346, .T. ) ;
#526 = CARTESIAN_POINT ( 'NONE',  ( 15.00000000000000178, -3.113248654051872233, 80.00000000000000000 ) ) ;
#527 = VECTOR ( 'NONE', #471, 1000.000000000000000 ) ;
#528 = SURFACE_STYLE_USAGE ( .BOTH. , #182 ) ;
#529 = ORIENTED_EDGE ( 'NONE', *, *, #389, .F. ) ;
#530 = VERTEX_POINT ( 'NONE', #341 ) ;
#531 = CARTESIAN_POINT ( 'NONE',  ( 0.000000000000000000, 0.000000000000000000, 80.00000000000000000 ) ) ;
#532 = ORIENTED_EDGE ( 'NONE', *, *, #296, .T. ) ;
#533 = CARTESIAN_POINT ( 'NONE',  ( 20.19615242270663558, 5.886751345948129988, 80.00000000000000000 ) ) ;
#534 = ORIENTED_EDGE ( 'NONE', *, *, #328, .F. ) ;
#535 = EDGE_CURVE ( 'NONE', #75, #412, #303, .T. ) ;
#536 = DIRECTION ( 'NONE',  ( -0.000000000000000000, 0.000000000000000000, 1.000000000000000000 ) ) ;
#537 = ORIENTED_EDGE ( 'NONE', *, *, #200, .F. ) ;
#538 = ORIENTED_EDGE ( 'NONE', *, *, #430, .F. ) ;
#539 = LINE ( 'NONE', #159, #24 ) ;
#540 = VECTOR ( 'NONE', #406, 1000.000000000000227 ) ;
#541 = DIRECTION ( 'NONE',  ( -0.000000000000000000, 0.000000000000000000, 1.000000000000000000 ) ) ;
#542 = FACE_OUTER_BOUND ( 'NONE', #524, .T. ) ;
#543 = LINE ( 'NONE', #420, #166 ) ;
#544 = DIRECTION ( 'NONE',  ( 0.4999999999999998335, 0.8660254037844387076, -0.000000000000000000 ) ) ;
#545 = CARTESIAN_POINT ( 'NONE',  ( 0.000000000000000000, 0.000000000000000000, 80.00000000000000000 ) ) ;
#546 = CARTESIAN_POINT ( 'NONE',  ( 15.00000000000000000, 2.886751345948127323, 30.00000000000000000 ) ) ;
#547 = DIRECTION ( 'NONE',  ( 2.891205793294676847E-16, -1.000000000000000000, -0.000000000000000000 ) ) ;
#548 = PRESENTATION_LAYER_ASSIGNMENT (  '', '', ( #441 ) ) ;
#549 = CARTESIAN_POINT ( 'NONE',  ( 20.00000000000000000, 0.000000000000000000, 80.00000000000000000 ) ) ;
#550 = LINE ( 'NONE', #302, #519 ) ;
ENDSEC;
END-ISO-10303-21;
