ISO-10303-21;
HEADER;
FILE_DESCRIPTION (( 'STEP AP214' ),
    '1' );
FILE_NAME ('Dl2i.STEP',
    '2025-09-08T12:41:37',
    ( '' ),
    ( '' ),
    'SwSTEP 2.0',
    'SolidWorks 2024',
    '' );
FILE_SCHEMA (( 'AUTOMOTIVE_DESIGN' ));
ENDSEC;

DATA;
#1 =( LENGTH_UNIT ( ) NAMED_UNIT ( * ) SI_UNIT ( .MILLI., .METRE. ) );
#2 = EDGE_CURVE ( 'NONE', #92, #12, #227, .T. ) ;
#3 = LINE ( 'NONE', #90, #179 ) ;
#4 = EDGE_CURVE ( 'NONE', #75, #39, #207, .T. ) ;
#5 = DIRECTION ( 'NONE',  ( -0.000000000000000000, -0.000000000000000000, 1.000000000000000000 ) ) ;
#6 = ORIENTED_EDGE ( 'NONE', *, *, #154, .T. ) ;
#7 = PLANE ( 'NONE',  #244 ) ;
#8 = VECTOR ( 'NONE', #5, 1000.000000000000000 ) ;
#9 = CARTESIAN_POINT ( 'NONE',  ( 9.999999999999998224, 5.656854249492378806, 0.000000000000000000 ) ) ;
#10 = VECTOR ( 'NONE', #11, 1000.000000000000000 ) ;
#11 = DIRECTION ( 'NONE',  ( -0.7071067811865479058, 0.7071067811865472397, 0.000000000000000000 ) ) ;
#12 = VERTEX_POINT ( 'NONE', #70 ) ;
#13 = DIRECTION ( 'NONE',  ( -0.7071067811865474617, -0.7071067811865474617, 0.000000000000000000 ) ) ;
#14 = UNCERTAINTY_MEASURE_WITH_UNIT (LENGTH_MEASURE( 1.000000000000000082E-05 ), #138, 'distance_accuracy_value', 'NONE');
#15 = VECTOR ( 'NONE', #24, 1000.000000000000227 ) ;
#16 = PRODUCT_CONTEXT ( 'NONE', #134, 'mechanical' ) ;
#17 = CARTESIAN_POINT ( 'NONE',  ( 10.00000000000000000, 17.32050807568877460, 80.00000000000000000 ) ) ;
#18 = VERTEX_POINT ( 'NONE', #40 ) ;
#19 = ORIENTED_EDGE ( 'NONE', *, *, #130, .F. ) ;
#20 = LINE ( 'NONE', #166, #77 ) ;
#21 = ORIENTED_EDGE ( 'NONE', *, *, #85, .F. ) ;
#22 = AXIS2_PLACEMENT_3D ( 'NONE', #173, #28, #114 ) ;
#23 = EDGE_LOOP ( 'NONE', ( #73, #50, #145, #133, #204, #167 ) ) ;
#24 = DIRECTION ( 'NONE',  ( -0.5000000000000000000, -0.8660254037844385966, 0.000000000000000000 ) ) ;
#25 = EDGE_LOOP ( 'NONE', ( #221, #109, #19, #54 ) ) ;
#26 = ORIENTED_EDGE ( 'NONE', *, *, #93, .F. ) ;
#27 = VECTOR ( 'NONE', #249, 1000.000000000000000 ) ;
#28 = DIRECTION ( 'NONE',  ( 0.7071067811865472397, 0.7071067811865479058, 0.000000000000000000 ) ) ;
#29 = APPLICATION_CONTEXT ( 'automotive_design' ) ;
#30 = DIRECTION ( 'NONE',  ( -0.7071067811865474617, -0.7071067811865474617, 0.000000000000000000 ) ) ;
#31 = EDGE_CURVE ( 'NONE', #143, #42, #209, .T. ) ;
#32 =( NAMED_UNIT ( * ) SI_UNIT ( $, .STERADIAN. ) SOLID_ANGLE_UNIT ( ) );
#33 = STYLED_ITEM ( 'NONE', ( #63 ), #115 ) ;
#34 = FACE_OUTER_BOUND ( 'NONE', #189, .T. ) ;
#35 = VECTOR ( 'NONE', #13, 1000.000000000000114 ) ;
#36 = PLANE ( 'NONE',  #97 ) ;
#37 = CARTESIAN_POINT ( 'NONE',  ( 9.999999999999998224, 5.656854249492378806, 0.000000000000000000 ) ) ;
#38 = ORIENTED_EDGE ( 'NONE', *, *, #242, .F. ) ;
#39 = VERTEX_POINT ( 'NONE', #202 ) ;
#40 = CARTESIAN_POINT ( 'NONE',  ( 0.000000000000000000, 0.000000000000000000, 80.00000000000000000 ) ) ;
#41 = DIRECTION ( 'NONE',  ( -0.5000000000000000000, -0.8660254037844385966, 0.000000000000000000 ) ) ;
#42 = VERTEX_POINT ( 'NONE', #169 ) ;
#43 = ADVANCED_FACE ( 'NONE', ( #126 ), #36, .F. ) ;
#44 = AXIS2_PLACEMENT_3D ( 'NONE', #81, #243, #78 ) ;
#45 = CLOSED_SHELL ( 'NONE', ( #76, #43, #135, #83, #211, #57, #98, #48 ) ) ;
#46 =( NAMED_UNIT ( * ) PLANE_ANGLE_UNIT ( ) SI_UNIT ( $, .RADIAN. ) );
#47 = ORIENTED_EDGE ( 'NONE', *, *, #154, .F. ) ;
#48 = ADVANCED_FACE ( 'NONE', ( #216 ), #195, .F. ) ;
#49 = CARTESIAN_POINT ( 'NONE',  ( 4.343145750507619418, 0.000000000000000000, 80.00000000000000000 ) ) ;
#50 = ORIENTED_EDGE ( 'NONE', *, *, #2, .F. ) ;
#51 = CARTESIAN_POINT ( 'NONE',  ( 15.65685424949238325, 0.000000000000000000, 80.00000000000000000 ) ) ;
#52 = ORIENTED_EDGE ( 'NONE', *, *, #231, .F. ) ;
#53 = CARTESIAN_POINT ( 'NONE',  ( 0.000000000000000000, 0.000000000000000000, 80.00000000000000000 ) ) ;
#54 = ORIENTED_EDGE ( 'NONE', *, *, #170, .T. ) ;
#55 = DIRECTION ( 'NONE',  ( -0.000000000000000000, -0.000000000000000000, -1.000000000000000000 ) ) ;
#56 = DIRECTION ( 'NONE',  ( -0.5000000000000000000, 0.8660254037844385966, 0.000000000000000000 ) ) ;
#57 = ADVANCED_FACE ( 'NONE', ( #215 ), #193, .F. ) ;
#58 = PRODUCT_DEFINITION ( 'UNKNOWN', '', #225, #160 ) ;
#59 = SURFACE_STYLE_USAGE ( .BOTH. , #124 ) ;
#60 = VECTOR ( 'NONE', #176, 1000.000000000000000 ) ;
#61 = DIRECTION ( 'NONE',  ( -0.8660254037844387076, -0.5000000000000001110, 0.000000000000000000 ) ) ;
#62 = ORIENTED_EDGE ( 'NONE', *, *, #208, .T. ) ;
#63 = PRESENTATION_STYLE_ASSIGNMENT (( #59 ) ) ;
#64 = LINE ( 'NONE', #157, #139 ) ;
#65 = CARTESIAN_POINT ( 'NONE',  ( 0.000000000000000000, 0.000000000000000000, 80.00000000000000000 ) ) ;
#66 = EDGE_LOOP ( 'NONE', ( #252, #180, #200, #185, #253, #47 ) ) ;
#67 = EDGE_CURVE ( 'NONE', #177, #132, #82, .T. ) ;
#68 = CARTESIAN_POINT ( 'NONE',  ( 20.00000000000000000, 0.000000000000000000, 80.00000000000000000 ) ) ;
#69 = DIRECTION ( 'NONE',  ( 1.000000000000000000, 0.000000000000000000, 0.000000000000000000 ) ) ;
#70 = CARTESIAN_POINT ( 'NONE',  ( 9.999999999999998224, 5.656854249492378806, 80.00000000000000000 ) ) ;
#71 = DIRECTION ( 'NONE',  ( 1.000000000000000000, 0.000000000000000000, 0.000000000000000000 ) ) ;
#72 = ORIENTED_EDGE ( 'NONE', *, *, #125, .F. ) ;
#73 = ORIENTED_EDGE ( 'NONE', *, *, #107, .F. ) ;
#74 = CARTESIAN_POINT ( 'NONE',  ( 10.00000000000000000, 17.32050807568877460, 80.00000000000000000 ) ) ;
#75 = VERTEX_POINT ( 'NONE', #103 ) ;
#76 = ADVANCED_FACE ( 'NONE', ( #120 ), #239, .F. ) ;
#77 = VECTOR ( 'NONE', #71, 1000.000000000000000 ) ;
#78 = DIRECTION ( 'NONE',  ( -0.7071067811865474617, -0.7071067811865474617, 0.000000000000000000 ) ) ;
#79 = EDGE_CURVE ( 'NONE', #132, #12, #158, .T. ) ;
#80 = VECTOR ( 'NONE', #56, 1000.000000000000227 ) ;
#81 = CARTESIAN_POINT ( 'NONE',  ( 9.999999999999998224, 5.656854249492378806, 0.000000000000000000 ) ) ;
#82 = LINE ( 'NONE', #222, #10 ) ;
#83 = ADVANCED_FACE ( 'NONE', ( #34 ), #142, .F. ) ;
#84 = LINE ( 'NONE', #9, #35 ) ;
#85 = EDGE_CURVE ( 'NONE', #177, #92, #238, .T. ) ;
#86 = DIRECTION ( 'NONE',  ( 0.000000000000000000, -0.000000000000000000, 1.000000000000000000 ) ) ;
#87 = VECTOR ( 'NONE', #123, 1000.000000000000000 ) ;
#88 = AXIS2_PLACEMENT_3D ( 'NONE', #53, #108, #86 ) ;
#89 = VERTEX_POINT ( 'NONE', #49 ) ;
#90 = CARTESIAN_POINT ( 'NONE',  ( 0.000000000000000000, 0.000000000000000000, 80.00000000000000000 ) ) ;
#91 = EDGE_LOOP ( 'NONE', ( #62, #182, #52, #104 ) ) ;
#92 = VERTEX_POINT ( 'NONE', #199 ) ;
#93 = EDGE_CURVE ( 'NONE', #132, #42, #84, .T. ) ;
#94 = CARTESIAN_POINT ( 'NONE',  ( 10.00000000000000000, 17.32050807568877460, 80.00000000000000000 ) ) ;
#95 = CARTESIAN_POINT ( 'NONE',  ( 10.00000000000000000, 17.32050807568877460, 0.000000000000000000 ) ) ;
#96 = DIRECTION ( 'NONE',  ( -0.000000000000000000, 0.000000000000000000, 1.000000000000000000 ) ) ;
#97 = AXIS2_PLACEMENT_3D ( 'NONE', #17, #136, #172 ) ;
#98 = ADVANCED_FACE ( 'NONE', ( #159 ), #196, .F. ) ;
#99 = APPLICATION_PROTOCOL_DEFINITION ( 'draft international standard', 'automotive_design', 1998, #134 ) ;
#100 = FILL_AREA_STYLE_COLOUR ( '', #236 ) ;
#101 = DIRECTION ( 'NONE',  ( 1.000000000000000000, 0.000000000000000000, 0.000000000000000000 ) ) ;
#102 = AXIS2_PLACEMENT_3D ( 'NONE', #233, #96, #101 ) ;
#103 = CARTESIAN_POINT ( 'NONE',  ( 20.00000000000000000, 0.000000000000000000, 80.00000000000000000 ) ) ;
#104 = ORIENTED_EDGE ( 'NONE', *, *, #125, .T. ) ;
#105 = PRESENTATION_LAYER_ASSIGNMENT (  '', '', ( #33 ) ) ;
#106 = FACE_OUTER_BOUND ( 'NONE', #152, .T. ) ;
#107 = EDGE_CURVE ( 'NONE', #12, #89, #64, .T. ) ;
#108 = DIRECTION ( 'NONE',  ( 0.000000000000000000, 1.000000000000000000, 0.000000000000000000 ) ) ;
#109 = ORIENTED_EDGE ( 'NONE', *, *, #242, .T. ) ;
#110 = DIRECTION ( 'NONE',  ( -0.5000000000000000000, 0.8660254037844385966, 0.000000000000000000 ) ) ;
#111 = ORIENTED_EDGE ( 'NONE', *, *, #163, .F. ) ;
#112 = VECTOR ( 'NONE', #214, 1000.000000000000000 ) ;
#113 = LINE ( 'NONE', #94, #15 ) ;
#114 = DIRECTION ( 'NONE',  ( -0.7071067811865479058, 0.7071067811865472397, 0.000000000000000000 ) ) ;
#115 = MANIFOLD_SOLID_BREP ( 'Schnitt-Linear austragen1', #45 ) ;
#116 = VECTOR ( 'NONE', #148, 1000.000000000000000 ) ;
#117 = AXIS2_PLACEMENT_3D ( 'NONE', #223, #165, #69 ) ;
#118 = FACE_OUTER_BOUND ( 'NONE', #23, .T. ) ;
#119 = CARTESIAN_POINT ( 'NONE',  ( 9.999999999999998224, 5.656854249492378806, 0.000000000000000000 ) ) ;
#120 = FACE_OUTER_BOUND ( 'NONE', #25, .T. ) ;
#121 = CARTESIAN_POINT ( 'NONE',  ( 0.000000000000000000, 0.000000000000000000, 80.00000000000000000 ) ) ;
#122 = VECTOR ( 'NONE', #110, 1000.000000000000227 ) ;
#123 = DIRECTION ( 'NONE',  ( -0.000000000000000000, -0.000000000000000000, 1.000000000000000000 ) ) ;
#124 = SURFACE_SIDE_STYLE ('',( #156 ) ) ;
#125 = EDGE_CURVE ( 'NONE', #39, #151, #245, .T. ) ;
#126 = FACE_OUTER_BOUND ( 'NONE', #91, .T. ) ;
#127 =( NAMED_UNIT ( * ) SI_UNIT ( $, .STERADIAN. ) SOLID_ANGLE_UNIT ( ) );
#128 = DIRECTION ( 'NONE',  ( 1.000000000000000000, 0.000000000000000000, 0.000000000000000000 ) ) ;
#129 = ORIENTED_EDGE ( 'NONE', *, *, #107, .T. ) ;
#130 = EDGE_CURVE ( 'NONE', #18, #89, #217, .T. ) ;
#131 = CARTESIAN_POINT ( 'NONE',  ( 20.00000000000000000, 0.000000000000000000, 0.000000000000000000 ) ) ;
#132 = VERTEX_POINT ( 'NONE', #37 ) ;
#133 = ORIENTED_EDGE ( 'NONE', *, *, #4, .T. ) ;
#134 = APPLICATION_CONTEXT ( 'automotive_design' ) ;
#135 = ADVANCED_FACE ( 'NONE', ( #106 ), #161, .F. ) ;
#136 = DIRECTION ( 'NONE',  ( 0.8660254037844387076, -0.5000000000000001110, 0.000000000000000000 ) ) ;
#137 =( NAMED_UNIT ( * ) PLANE_ANGLE_UNIT ( ) SI_UNIT ( $, .RADIAN. ) );
#138 =( LENGTH_UNIT ( ) NAMED_UNIT ( * ) SI_UNIT ( .MILLI., .METRE. ) );
#139 = VECTOR ( 'NONE', #30, 1000.000000000000114 ) ;
#140 = FILL_AREA_STYLE ('',( #100 ) ) ;
#141 = AXIS2_PLACEMENT_3D ( 'NONE', #240, #61, #241 ) ;
#142 = PLANE ( 'NONE',  #141 ) ;
#143 = VERTEX_POINT ( 'NONE', #247 ) ;
#144 = EDGE_CURVE ( 'NONE', #164, #151, #250, .T. ) ;
#145 = ORIENTED_EDGE ( 'NONE', *, *, #232, .T. ) ;
#146 = APPLICATION_PROTOCOL_DEFINITION ( 'draft international standard', 'automotive_design', 1998, #29 ) ;
#147 = CARTESIAN_POINT ( 'NONE',  ( 0.000000000000000000, 0.000000000000000000, 0.000000000000000000 ) ) ;
#148 = DIRECTION ( 'NONE',  ( -0.7071067811865479058, 0.7071067811865472397, 0.000000000000000000 ) ) ;
#149 = PRODUCT_DEFINITION_SHAPE ( 'NONE', 'NONE',  #58 ) ;
#150 = LINE ( 'NONE', #226, #220 ) ;
#151 = VERTEX_POINT ( 'NONE', #184 ) ;
#152 = EDGE_LOOP ( 'NONE', ( #224, #21, #6, #111 ) ) ;
#153 = ORIENTED_EDGE ( 'NONE', *, *, #2, .T. ) ;
#154 = EDGE_CURVE ( 'NONE', #177, #164, #20, .T. ) ;
#155 = CARTESIAN_POINT ( 'NONE',  ( 0.000000000000000000, 0.000000000000000000, 80.00000000000000000 ) ) ;
#156 = SURFACE_STYLE_FILL_AREA ( #140 ) ;
#157 = CARTESIAN_POINT ( 'NONE',  ( 9.999999999999998224, 5.656854249492378806, 80.00000000000000000 ) ) ;
#158 = LINE ( 'NONE', #119, #87 ) ;
#159 = FACE_OUTER_BOUND ( 'NONE', #183, .T. ) ;
#160 = PRODUCT_DEFINITION_CONTEXT ( 'detailed design', #29, 'design' ) ;
#161 = PLANE ( 'NONE',  #88 ) ;
#162 = ORIENTED_EDGE ( 'NONE', *, *, #144, .T. ) ;
#163 = EDGE_CURVE ( 'NONE', #75, #164, #150, .T. ) ;
#164 = VERTEX_POINT ( 'NONE', #131 ) ;
#165 = DIRECTION ( 'NONE',  ( 0.000000000000000000, 0.000000000000000000, 1.000000000000000000 ) ) ;
#166 = CARTESIAN_POINT ( 'NONE',  ( 0.000000000000000000, 0.000000000000000000, 0.000000000000000000 ) ) ;
#167 = ORIENTED_EDGE ( 'NONE', *, *, #130, .T. ) ;
#168 = CARTESIAN_POINT ( 'NONE',  ( 4.343145750507619418, 0.000000000000000000, 0.000000000000000000 ) ) ;
#169 = CARTESIAN_POINT ( 'NONE',  ( 4.343145750507619418, 0.000000000000000000, 0.000000000000000000 ) ) ;
#170 = EDGE_CURVE ( 'NONE', #18, #143, #206, .T. ) ;
#171 = CARTESIAN_POINT ( 'NONE',  ( 0.000000000000000000, 0.000000000000000000, 80.00000000000000000 ) ) ;
#172 = DIRECTION ( 'NONE',  ( 0.5000000000000000000, 0.8660254037844385966, 0.000000000000000000 ) ) ;
#173 = CARTESIAN_POINT ( 'NONE',  ( 15.65685424949238325, 0.000000000000000000, 0.000000000000000000 ) ) ;
#174 = ORIENTED_EDGE ( 'NONE', *, *, #79, .T. ) ;
#175 = LINE ( 'NONE', #95, #230 ) ;
#176 = DIRECTION ( 'NONE',  ( -0.000000000000000000, -0.000000000000000000, 1.000000000000000000 ) ) ;
#177 = VERTEX_POINT ( 'NONE', #237 ) ;
#178 = DIRECTION ( 'NONE',  ( 0.000000000000000000, 1.000000000000000000, 0.000000000000000000 ) ) ;
#179 = VECTOR ( 'NONE', #190, 1000.000000000000000 ) ;
#180 = ORIENTED_EDGE ( 'NONE', *, *, #93, .T. ) ;
#181 = DIRECTION ( 'NONE',  ( 1.000000000000000000, 0.000000000000000000, 0.000000000000000000 ) ) ;
#182 = ORIENTED_EDGE ( 'NONE', *, *, #170, .F. ) ;
#183 = EDGE_LOOP ( 'NONE', ( #129, #38, #26, #174 ) ) ;
#184 = CARTESIAN_POINT ( 'NONE',  ( 10.00000000000000000, 17.32050807568877460, 0.000000000000000000 ) ) ;
#185 = ORIENTED_EDGE ( 'NONE', *, *, #208, .F. ) ;
#186 = AXIS2_PLACEMENT_3D ( 'NONE', #121, #178, #218 ) ;
#187 = ORIENTED_EDGE ( 'NONE', *, *, #85, .T. ) ;
#188 = DIRECTION ( 'NONE',  ( -0.000000000000000000, 0.000000000000000000, 1.000000000000000000 ) ) ;
#189 = EDGE_LOOP ( 'NONE', ( #162, #72, #228, #197 ) ) ;
#190 = DIRECTION ( 'NONE',  ( 1.000000000000000000, 0.000000000000000000, 0.000000000000000000 ) ) ;
#191 = PRODUCT_RELATED_PRODUCT_CATEGORY ( 'part', '', ( #194 ) ) ;
#192 = LINE ( 'NONE', #168, #8 ) ;
#193 = PLANE ( 'NONE',  #102 ) ;
#194 = PRODUCT ( 'Dl2i', 'Dl2i', '', ( #16 ) ) ;
#195 = PLANE ( 'NONE',  #22 ) ;
#196 = PLANE ( 'NONE',  #44 ) ;
#197 = ORIENTED_EDGE ( 'NONE', *, *, #163, .T. ) ;
#198 = VECTOR ( 'NONE', #181, 1000.000000000000000 ) ;
#199 = CARTESIAN_POINT ( 'NONE',  ( 15.65685424949238325, 0.000000000000000000, 80.00000000000000000 ) ) ;
#200 = ORIENTED_EDGE ( 'NONE', *, *, #31, .F. ) ;
#201 = SHAPE_DEFINITION_REPRESENTATION ( #149, #234 ) ;
#202 = CARTESIAN_POINT ( 'NONE',  ( 10.00000000000000000, 17.32050807568877460, 80.00000000000000000 ) ) ;
#203 = MECHANICAL_DESIGN_GEOMETRIC_PRESENTATION_REPRESENTATION (  '', ( #33 ), #235 ) ;
#204 = ORIENTED_EDGE ( 'NONE', *, *, #231, .T. ) ;
#205 = CARTESIAN_POINT ( 'NONE',  ( 20.00000000000000000, 0.000000000000000000, 0.000000000000000000 ) ) ;
#206 = LINE ( 'NONE', #155, #112 ) ;
#207 = LINE ( 'NONE', #68, #80 ) ;
#208 = EDGE_CURVE ( 'NONE', #151, #143, #175, .T. ) ;
#209 = LINE ( 'NONE', #147, #212 ) ;
#210 = DIRECTION ( 'NONE',  ( 1.000000000000000000, 0.000000000000000000, 0.000000000000000000 ) ) ;
#211 = ADVANCED_FACE ( 'NONE', ( #118 ), #7, .T. ) ;
#212 = VECTOR ( 'NONE', #128, 1000.000000000000000 ) ;
#213 =( GEOMETRIC_REPRESENTATION_CONTEXT ( 3 ) GLOBAL_UNCERTAINTY_ASSIGNED_CONTEXT ( ( #246 ) ) GLOBAL_UNIT_ASSIGNED_CONTEXT ( ( #1, #137, #32 ) ) REPRESENTATION_CONTEXT ( 'NONE', 'WORKASPACE' ) );
#214 = DIRECTION ( 'NONE',  ( -0.000000000000000000, -0.000000000000000000, -1.000000000000000000 ) ) ;
#215 = FACE_OUTER_BOUND ( 'NONE', #66, .T. ) ;
#216 = FACE_OUTER_BOUND ( 'NONE', #248, .T. ) ;
#217 = LINE ( 'NONE', #65, #198 ) ;
#218 = DIRECTION ( 'NONE',  ( 0.000000000000000000, -0.000000000000000000, 1.000000000000000000 ) ) ;
#219 = CARTESIAN_POINT ( 'NONE',  ( 15.65685424949238325, 0.000000000000000000, 0.000000000000000000 ) ) ;
#220 = VECTOR ( 'NONE', #55, 1000.000000000000000 ) ;
#221 = ORIENTED_EDGE ( 'NONE', *, *, #31, .T. ) ;
#222 = CARTESIAN_POINT ( 'NONE',  ( 15.65685424949238325, 0.000000000000000000, 0.000000000000000000 ) ) ;
#223 = CARTESIAN_POINT ( 'NONE',  ( 0.000000000000000000, 0.000000000000000000, 0.000000000000000000 ) ) ;
#224 = ORIENTED_EDGE ( 'NONE', *, *, #232, .F. ) ;
#225 = PRODUCT_DEFINITION_FORMATION_WITH_SPECIFIED_SOURCE ( 'ANY', '', #194, .NOT_KNOWN. ) ;
#226 = CARTESIAN_POINT ( 'NONE',  ( 20.00000000000000000, 0.000000000000000000, 80.00000000000000000 ) ) ;
#227 = LINE ( 'NONE', #51, #116 ) ;
#228 = ORIENTED_EDGE ( 'NONE', *, *, #4, .F. ) ;
#229 = ORIENTED_EDGE ( 'NONE', *, *, #79, .F. ) ;
#230 = VECTOR ( 'NONE', #41, 1000.000000000000227 ) ;
#231 = EDGE_CURVE ( 'NONE', #39, #18, #113, .T. ) ;
#232 = EDGE_CURVE ( 'NONE', #92, #75, #3, .T. ) ;
#233 = CARTESIAN_POINT ( 'NONE',  ( 0.000000000000000000, 0.000000000000000000, 0.000000000000000000 ) ) ;
#234 = ADVANCED_BREP_SHAPE_REPRESENTATION ( 'Dl2i', ( #115, #117 ), #213 ) ;
#235 =( GEOMETRIC_REPRESENTATION_CONTEXT ( 3 ) GLOBAL_UNCERTAINTY_ASSIGNED_CONTEXT ( ( #14 ) ) GLOBAL_UNIT_ASSIGNED_CONTEXT ( ( #138, #46, #127 ) ) REPRESENTATION_CONTEXT ( 'NONE', 'WORKASPACE' ) );
#236 = COLOUR_RGB ( '',0.7921568627450980005, 0.8196078431372548767, 0.9333333333333333481 ) ;
#237 = CARTESIAN_POINT ( 'NONE',  ( 15.65685424949238325, 0.000000000000000000, 0.000000000000000000 ) ) ;
#238 = LINE ( 'NONE', #219, #60 ) ;
#239 = PLANE ( 'NONE',  #186 ) ;
#240 = CARTESIAN_POINT ( 'NONE',  ( 20.00000000000000000, 0.000000000000000000, 80.00000000000000000 ) ) ;
#241 = DIRECTION ( 'NONE',  ( 0.5000000000000000000, -0.8660254037844385966, 0.000000000000000000 ) ) ;
#242 = EDGE_CURVE ( 'NONE', #42, #89, #192, .T. ) ;
#243 = DIRECTION ( 'NONE',  ( -0.7071067811865475727, 0.7071067811865475727, 0.000000000000000000 ) ) ;
#244 = AXIS2_PLACEMENT_3D ( 'NONE', #171, #188, #210 ) ;
#245 = LINE ( 'NONE', #74, #27 ) ;
#246 = UNCERTAINTY_MEASURE_WITH_UNIT (LENGTH_MEASURE( 1.000000000000000082E-05 ), #1, 'distance_accuracy_value', 'NONE');
#247 = CARTESIAN_POINT ( 'NONE',  ( 0.000000000000000000, 0.000000000000000000, 0.000000000000000000 ) ) ;
#248 = EDGE_LOOP ( 'NONE', ( #153, #229, #251, #187 ) ) ;
#249 = DIRECTION ( 'NONE',  ( -0.000000000000000000, -0.000000000000000000, -1.000000000000000000 ) ) ;
#250 = LINE ( 'NONE', #205, #122 ) ;
#251 = ORIENTED_EDGE ( 'NONE', *, *, #67, .F. ) ;
#252 = ORIENTED_EDGE ( 'NONE', *, *, #67, .T. ) ;
#253 = ORIENTED_EDGE ( 'NONE', *, *, #144, .F. ) ;
ENDSEC;
END-ISO-10303-21;
