# Blender 4.4.0
# www.blender.org
mtllib Dl2i.mtl
o Dl2i
v 4.343145 0.000000 80.000000
v 0.000000 0.000000 80.000000
v 4.343145 0.000000 0.000000
v 0.000000 0.000000 0.000000
v -0.000000 -0.000000 80.000000
v 10.000000 17.320509 80.000000
v -0.000000 -0.000000 -0.000000
v 10.000000 17.320509 -0.000000
v 15.656855 0.000000 0.000000
v 20.000000 0.000000 0.000000
v 15.656855 0.000000 80.000000
v 20.000000 0.000000 80.000000
v 20.000000 0.000000 -0.000000
v 10.000000 5.656854 80.000000
v 10.000000 5.656854 0.000000
v 10.000000 17.320509 0.000000
vn -0.0000 -1.0000 -0.0000
vn -0.8660 0.5000 -0.0000
vn 0.8660 0.5000 -0.0000
vn -0.0000 -0.0000 1.0000
vn -0.0000 -0.0000 -1.0000
vn 0.7071 -0.7071 -0.0000
vn -0.7071 -0.7071 -0.0000
s 0
f 1//1 2//1 3//1
f 3//1 2//1 4//1
f 5//2 6//2 7//2
f 7//2 6//2 8//2
f 9//1 10//1 11//1
f 11//1 10//1 12//1
f 6//3 12//3 8//3
f 8//3 12//3 13//3
f 11//4 12//4 14//4
f 14//4 12//4 6//4
f 14//4 6//4 1//4
f 1//4 6//4 2//4
f 3//5 4//5 15//5
f 15//5 4//5 16//5
f 15//5 16//5 9//5
f 9//5 16//5 10//5
f 3//6 15//6 1//6
f 1//6 15//6 14//6
f 15//7 9//7 14//7
f 14//7 9//7 11//7
