# https://github.com/mikedh/trimesh
v -0.00000000 -0.00000000 80.00000000
v 10.00000000 17.32050900 80.00000000
v -0.00000000 -0.00000000 -0.00000000
v 10.00000000 17.32050900 -0.00000000
v 20.00000000 0.00000000 80.00000000
v 20.00000000 0.00000000 0.00000000
v 13.13734600 14.88611000 80.00000000
v 19.46042300 3.93422000 80.00000000
v 13.13734600 14.88611000 30.00000000
v 19.46042300 3.93422000 30.00000000
f 6 4 3
f 10 6 4
f 9 10 4
f 4 3 1
f 4 2 1
f 6 3 1
f 6 5 1
f 7 2 1
f 7 5 1
f 7 8 5
f 10 8 5
f 10 6 5
f 9 4 2
f 9 7 2
f 9 7 8
f 9 10 8

