ISO-10303-21;
HEADER;
FILE_DESCRIPTION (( 'STEP AP214' ),
    '1' );
FILE_NAME ('Dl4a.STEP',
    '2025-09-08T12:41:02',
    ( '' ),
    ( '' ),
    'SwSTEP 2.0',
    'SolidWorks 2024',
    '' );
FILE_SCHEMA (( 'AUTOMOTIVE_DESIGN' ));
ENDSEC;

DATA;
#1 = AXIS2_PLACEMENT_3D ( 'NONE', #11, #91, #231 ) ;
#2 = ADVANCED_FACE ( 'NONE', ( #133 ), #255, .F. ) ;
#3 = ORIENTED_EDGE ( 'NONE', *, *, #306, .F. ) ;
#4 = LINE ( 'NONE', #308, #146 ) ;
#5 = APPLICATION_CONTEXT ( 'automotive_design' ) ;
#6 = DIRECTION ( 'NONE',  ( -0.5000000000000000000, 0.8660254037844385966, 0.000000000000000000 ) ) ;
#7 = DIRECTION ( 'NONE',  ( -0.5000000000000001110, 0.8660254037844387076, 0.000000000000000000 ) ) ;
#8 = VECTOR ( 'NONE', #208, 1000.000000000000114 ) ;
#9 = VECTOR ( 'NONE', #250, 1000.000000000000227 ) ;
#10 = ORIENTED_EDGE ( 'NONE', *, *, #131, .T. ) ;
#11 = CARTESIAN_POINT ( 'NONE',  ( 17.49999999999999645, 4.330127018922193649, 29.99999999999997158 ) ) ;
#12 = EDGE_CURVE ( 'NONE', #156, #152, #254, .T. ) ;
#13 =( LENGTH_UNIT ( ) NAMED_UNIT ( * ) SI_UNIT ( .MILLI., .METRE. ) );
#14 = CARTESIAN_POINT ( 'NONE',  ( 13.13734617896633949, 14.88611042778898508, 29.99999999999997158 ) ) ;
#15 = VECTOR ( 'NONE', #257, 1000.000000000000000 ) ;
#16 = CARTESIAN_POINT ( 'NONE',  ( 0.000000000000000000, 0.000000000000000000, 80.00000000000000000 ) ) ;
#17 = ORIENTED_EDGE ( 'NONE', *, *, #12, .F. ) ;
#18 = DIRECTION ( 'NONE',  ( 0.000000000000000000, 0.000000000000000000, 1.000000000000000000 ) ) ;
#19 = VERTEX_POINT ( 'NONE', #288 ) ;
#20 = UNCERTAINTY_MEASURE_WITH_UNIT (LENGTH_MEASURE( 1.000000000000000082E-05 ), #61, 'distance_accuracy_value', 'NONE');
#21 = CARTESIAN_POINT ( 'NONE',  ( 12.50000000000000178, 12.99038105676658184, 29.99999999999997158 ) ) ;
#22 = ORIENTED_EDGE ( 'NONE', *, *, #302, .T. ) ;
#23 = FACE_OUTER_BOUND ( 'NONE', #207, .T. ) ;
#24 = ORIENTED_EDGE ( 'NONE', *, *, #39, .F. ) ;
#25 = DIRECTION ( 'NONE',  ( -0.5000000000000000000, -0.8660254037844385966, 0.000000000000000000 ) ) ;
#26 = ADVANCED_FACE ( 'NONE', ( #314 ), #337, .T. ) ;
#27 = VERTEX_POINT ( 'NONE', #14 ) ;
#28 = PLANE ( 'NONE',  #212 ) ;
#29 = VERTEX_POINT ( 'NONE', #95 ) ;
#30 = VECTOR ( 'NONE', #96, 1000.000000000000000 ) ;
#31 = LINE ( 'NONE', #244, #193 ) ;
#32 = VECTOR ( 'NONE', #217, 1000.000000000000000 ) ;
#33 = EDGE_LOOP ( 'NONE', ( #322, #218, #82, #83 ) ) ;
#34 = DIRECTION ( 'NONE',  ( 1.000000000000000000, 0.000000000000000000, 0.000000000000000000 ) ) ;
#35 = ORIENTED_EDGE ( 'NONE', *, *, #284, .F. ) ;
#36 = VECTOR ( 'NONE', #202, 1000.000000000000114 ) ;
#37 = CARTESIAN_POINT ( 'NONE',  ( 20.00000000000000000, 0.000000000000000000, 29.99999999999997158 ) ) ;
#38 = CARTESIAN_POINT ( 'NONE',  ( 0.000000000000000000, 0.000000000000000000, 80.00000000000000000 ) ) ;
#39 = EDGE_CURVE ( 'NONE', #29, #19, #334, .T. ) ;
#40 = EDGE_CURVE ( 'NONE', #274, #213, #342, .T. ) ;
#41 = LINE ( 'NONE', #251, #279 ) ;
#42 = PLANE ( 'NONE',  #1 ) ;
#43 = LINE ( 'NONE', #125, #167 ) ;
#44 = EDGE_CURVE ( 'NONE', #27, #246, #197, .T. ) ;
#45 = CARTESIAN_POINT ( 'NONE',  ( 20.00000000000000000, 0.000000000000000000, 80.00000000000000000 ) ) ;
#46 = VERTEX_POINT ( 'NONE', #179 ) ;
#47 = DIRECTION ( 'NONE',  ( 0.5000000000000000000, -0.8660254037844385966, 0.000000000000000000 ) ) ;
#48 = CARTESIAN_POINT ( 'NONE',  ( 0.000000000000000000, 0.000000000000000000, 80.00000000000000000 ) ) ;
#49 = ADVANCED_FACE ( 'NONE', ( #283 ), #42, .T. ) ;
#50 = LINE ( 'NONE', #293, #150 ) ;
#51 = LINE ( 'NONE', #159, #258 ) ;
#52 = EDGE_LOOP ( 'NONE', ( #135, #285, #60, #315, #243, #229, #10, #276, #79 ) ) ;
#53 = DIRECTION ( 'NONE',  ( -0.9802114417444345307, 0.1979533517607041937, -0.000000000000000000 ) ) ;
#54 = ORIENTED_EDGE ( 'NONE', *, *, #298, .F. ) ;
#55 = LINE ( 'NONE', #344, #104 ) ;
#56 = ORIENTED_EDGE ( 'NONE', *, *, #198, .F. ) ;
#57 = DIRECTION ( 'NONE',  ( 0.5000000000000000000, 0.8660254037844385966, 0.000000000000000000 ) ) ;
#58 = ORIENTED_EDGE ( 'NONE', *, *, #249, .F. ) ;
#59 = CARTESIAN_POINT ( 'NONE',  ( 10.00000000000000000, 17.32050807568877460, 80.00000000000000000 ) ) ;
#60 = ORIENTED_EDGE ( 'NONE', *, *, #40, .T. ) ;
#61 =( LENGTH_UNIT ( ) NAMED_UNIT ( * ) SI_UNIT ( .MILLI., .METRE. ) );
#62 = VERTEX_POINT ( 'NONE', #45 ) ;
#63 = EDGE_CURVE ( 'NONE', #330, #62, #153, .T. ) ;
#64 = DIRECTION ( 'NONE',  ( 0.000000000000000000, 0.000000000000000000, 1.000000000000000000 ) ) ;
#65 = CARTESIAN_POINT ( 'NONE',  ( 18.82307670452252779, 2.038490944378378078, 29.99999999999997158 ) ) ;
#66 = PRODUCT_DEFINITION_FORMATION_WITH_SPECIFIED_SOURCE ( 'ANY', '', #165, .NOT_KNOWN. ) ;
#67 =( NAMED_UNIT ( * ) SI_UNIT ( $, .STERADIAN. ) SOLID_ANGLE_UNIT ( ) );
#68 = MECHANICAL_DESIGN_GEOMETRIC_PRESENTATION_REPRESENTATION (  '', ( #140 ), #316 ) ;
#69 = CARTESIAN_POINT ( 'NONE',  ( 20.00000000000000000, 0.000000000000000000, 80.00000000000000000 ) ) ;
#70 = MANIFOLD_SOLID_BREP ( 'Aufsatz-Linear austragen12', #321 ) ;
#71 = VERTEX_POINT ( 'NONE', #176 ) ;
#72 = CARTESIAN_POINT ( 'NONE',  ( 20.00000000000000000, 0.000000000000000000, 80.00000000000000000 ) ) ;
#73 = ORIENTED_EDGE ( 'NONE', *, *, #240, .F. ) ;
#74 = FACE_OUTER_BOUND ( 'NONE', #307, .T. ) ;
#75 = PLANE ( 'NONE',  #310 ) ;
#76 = LINE ( 'NONE', #317, #8 ) ;
#77 = AXIS2_PLACEMENT_3D ( 'NONE', #278, #326, #170 ) ;
#78 = CARTESIAN_POINT ( 'NONE',  ( 13.13734617896633949, 14.88611042778898508, 29.99999999999997158 ) ) ;
#79 = ORIENTED_EDGE ( 'NONE', *, *, #63, .T. ) ;
#80 = CARTESIAN_POINT ( 'NONE',  ( 19.46042288348886728, 3.934220315400784873, 29.99999999999997158 ) ) ;
#81 = EDGE_LOOP ( 'NONE', ( #172, #343, #24 ) ) ;
#82 = ORIENTED_EDGE ( 'NONE', *, *, #331, .F. ) ;
#83 = ORIENTED_EDGE ( 'NONE', *, *, #175, .T. ) ;
#84 = EDGE_CURVE ( 'NONE', #62, #199, #224, .T. ) ;
#85 = CARTESIAN_POINT ( 'NONE',  ( 13.13734617896633949, 14.88611042778898508, 29.99999999999997158 ) ) ;
#86 = ORIENTED_EDGE ( 'NONE', *, *, #121, .T. ) ;
#87 = CARTESIAN_POINT ( 'NONE',  ( 10.00000000000000000, 17.32050807568877460, 0.000000000000000000 ) ) ;
#88 = DIRECTION ( 'NONE',  ( 0.3186730894831692473, 0.9478646855112030645, -0.000000000000000000 ) ) ;
#89 = VECTOR ( 'NONE', #129, 1000.000000000000000 ) ;
#90 = ADVANCED_BREP_SHAPE_REPRESENTATION ( 'Dl4a', ( #70, #118 ), #127 ) ;
#91 = DIRECTION ( 'NONE',  ( 0.1979533517607041937, 0.9802114417444345307, -0.000000000000000000 ) ) ;
#92 = VECTOR ( 'NONE', #25, 1000.000000000000227 ) ;
#93 = DIRECTION ( 'NONE',  ( -0.5000000000000000000, 0.8660254037844385966, 0.000000000000000000 ) ) ;
#94 = CARTESIAN_POINT ( 'NONE',  ( 0.000000000000000000, 0.000000000000000000, 0.000000000000000000 ) ) ;
#95 = CARTESIAN_POINT ( 'NONE',  ( 0.000000000000000000, 0.000000000000000000, 0.000000000000000000 ) ) ;
#96 = DIRECTION ( 'NONE',  ( -0.000000000000000000, -0.000000000000000000, -1.000000000000000000 ) ) ;
#97 = VERTEX_POINT ( 'NONE', #123 ) ;
#98 = CARTESIAN_POINT ( 'NONE',  ( 11.17692329547747043, 15.28201713131039519, 29.99999999999997158 ) ) ;
#99 = PRODUCT_DEFINITION_SHAPE ( 'NONE', 'NONE',  #124 ) ;
#100 = DIRECTION ( 'NONE',  ( 1.000000000000000000, 0.000000000000000000, -0.000000000000000000 ) ) ;
#101 = ORIENTED_EDGE ( 'NONE', *, *, #200, .F. ) ;
#102 = ADVANCED_FACE ( 'NONE', ( #287 ), #312, .F. ) ;
#103 = LINE ( 'NONE', #98, #206 ) ;
#104 = VECTOR ( 'NONE', #18, 1000.000000000000000 ) ;
#105 = CARTESIAN_POINT ( 'NONE',  ( 11.17692329547747043, 15.28201713131039519, 29.99999999999997158 ) ) ;
#106 = ORIENTED_EDGE ( 'NONE', *, *, #324, .T. ) ;
#107 = DIRECTION ( 'NONE',  ( 0.8660254037844387076, -0.5000000000000001110, 0.000000000000000000 ) ) ;
#108 = VERTEX_POINT ( 'NONE', #178 ) ;
#109 = CARTESIAN_POINT ( 'NONE',  ( 20.00000000000000000, 0.000000000000000000, 0.000000000000000000 ) ) ;
#110 = ORIENTED_EDGE ( 'NONE', *, *, #44, .F. ) ;
#111 = VECTOR ( 'NONE', #297, 1000.000000000000000 ) ;
#112 =( NAMED_UNIT ( * ) PLANE_ANGLE_UNIT ( ) SI_UNIT ( $, .RADIAN. ) );
#113 = ORIENTED_EDGE ( 'NONE', *, *, #184, .T. ) ;
#114 = LINE ( 'NONE', #225, #142 ) ;
#115 = DIRECTION ( 'NONE',  ( 0.3186730894831688587, 0.9478646855112031755, 0.000000000000000000 ) ) ;
#116 = FILL_AREA_STYLE ('',( #171 ) ) ;
#117 = VECTOR ( 'NONE', #201, 1000.000000000000227 ) ;
#118 = AXIS2_PLACEMENT_3D ( 'NONE', #194, #303, #34 ) ;
#119 = SURFACE_STYLE_USAGE ( .BOTH. , #333 ) ;
#120 = DIRECTION ( 'NONE',  ( -0.5000000000000001110, 0.8660254037844387076, 0.000000000000000000 ) ) ;
#121 = EDGE_CURVE ( 'NONE', #108, #46, #41, .T. ) ;
#122 = EDGE_LOOP ( 'NONE', ( #35, #86, #158 ) ) ;
#123 = CARTESIAN_POINT ( 'NONE',  ( 12.50000000000000178, 12.99038105676658184, 80.00000000000000000 ) ) ;
#124 = PRODUCT_DEFINITION ( 'UNKNOWN', '', #66, #264 ) ;
#125 = CARTESIAN_POINT ( 'NONE',  ( 20.00000000000000000, 0.000000000000000000, 80.00000000000000000 ) ) ;
#126 = ORIENTED_EDGE ( 'NONE', *, *, #336, .T. ) ;
#127 =( GEOMETRIC_REPRESENTATION_CONTEXT ( 3 ) GLOBAL_UNCERTAINTY_ASSIGNED_CONTEXT ( ( #20 ) ) GLOBAL_UNIT_ASSIGNED_CONTEXT ( ( #61, #112, #271 ) ) REPRESENTATION_CONTEXT ( 'NONE', 'WORKASPACE' ) );
#128 = PRESENTATION_STYLE_ASSIGNMENT (( #119 ) ) ;
#129 = DIRECTION ( 'NONE',  ( 1.000000000000000000, 0.000000000000000000, 0.000000000000000000 ) ) ;
#130 = ORIENTED_EDGE ( 'NONE', *, *, #191, .T. ) ;
#131 = EDGE_CURVE ( 'NONE', #186, #71, #43, .T. ) ;
#132 = DIRECTION ( 'NONE',  ( 0.9478646855112031755, -0.3186730894831693028, 0.000000000000000000 ) ) ;
#133 = FACE_OUTER_BOUND ( 'NONE', #81, .T. ) ;
#134 = CARTESIAN_POINT ( 'NONE',  ( 0.000000000000000000, 0.000000000000000000, 80.00000000000000000 ) ) ;
#135 = ORIENTED_EDGE ( 'NONE', *, *, #84, .T. ) ;
#136 = PLANE ( 'NONE',  #247 ) ;
#137 = ORIENTED_EDGE ( 'NONE', *, *, #151, .F. ) ;
#138 = DIRECTION ( 'NONE',  ( 0.3186730894831692473, 0.9478646855112030645, -0.000000000000000000 ) ) ;
#139 = CARTESIAN_POINT ( 'NONE',  ( 11.17692329547747043, 15.28201713131039519, 80.00000000000000000 ) ) ;
#140 = STYLED_ITEM ( 'NONE', ( #128 ), #70 ) ;
#141 = ADVANCED_FACE ( 'NONE', ( #226 ), #28, .F. ) ;
#142 = VECTOR ( 'NONE', #88, 1000.000000000000114 ) ;
#143 = ORIENTED_EDGE ( 'NONE', *, *, #306, .T. ) ;
#144 = DIRECTION ( 'NONE',  ( -0.000000000000000000, -0.000000000000000000, -1.000000000000000000 ) ) ;
#145 = EDGE_LOOP ( 'NONE', ( #169, #270, #340, #106 ) ) ;
#146 = VECTOR ( 'NONE', #64, 1000.000000000000000 ) ;
#147 = PRODUCT_RELATED_PRODUCT_CATEGORY ( 'part', '', ( #165 ) ) ;
#148 = LINE ( 'NONE', #59, #9 ) ;
#149 = AXIS2_PLACEMENT_3D ( 'NONE', #105, #188, #318 ) ;
#150 = VECTOR ( 'NONE', #53, 1000.000000000000114 ) ;
#151 = EDGE_CURVE ( 'NONE', #156, #97, #320, .T. ) ;
#152 = VERTEX_POINT ( 'NONE', #263 ) ;
#153 = LINE ( 'NONE', #16, #89 ) ;
#154 = CARTESIAN_POINT ( 'NONE',  ( 10.00000000000000000, 17.32050807568877460, 80.00000000000000000 ) ) ;
#155 = CARTESIAN_POINT ( 'NONE',  ( 17.49999999999999645, 4.330127018922193649, 80.00000000000000000 ) ) ;
#156 = VERTEX_POINT ( 'NONE', #21 ) ;
#157 = CARTESIAN_POINT ( 'NONE',  ( 13.13734617896633949, 14.88611042778898508, 80.00000000000000000 ) ) ;
#158 = ORIENTED_EDGE ( 'NONE', *, *, #245, .F. ) ;
#159 = CARTESIAN_POINT ( 'NONE',  ( 19.46042288348886728, 3.934220315400784873, 80.00000000000000000 ) ) ;
#160 = VECTOR ( 'NONE', #294, 1000.000000000000227 ) ;
#161 = LINE ( 'NONE', #267, #92 ) ;
#162 = EDGE_CURVE ( 'NONE', #246, #186, #323, .T. ) ;
#163 = LINE ( 'NONE', #80, #111 ) ;
#164 = ORIENTED_EDGE ( 'NONE', *, *, #228, .T. ) ;
#165 = PRODUCT ( 'Dl4a', 'Dl4a', '', ( #195 ) ) ;
#166 = CARTESIAN_POINT ( 'NONE',  ( 20.00000000000000000, 0.000000000000000000, 80.00000000000000000 ) ) ;
#167 = VECTOR ( 'NONE', #93, 1000.000000000000227 ) ;
#168 = LINE ( 'NONE', #65, #32 ) ;
#169 = ORIENTED_EDGE ( 'NONE', *, *, #40, .F. ) ;
#170 = DIRECTION ( 'NONE',  ( 1.000000000000000000, 0.000000000000000000, -0.000000000000000000 ) ) ;
#171 = FILL_AREA_STYLE_COLOUR ( '', #220 ) ;
#172 = ORIENTED_EDGE ( 'NONE', *, *, #272, .F. ) ;
#173 = AXIS2_PLACEMENT_3D ( 'NONE', #48, #339, #227 ) ;
#174 = DIRECTION ( 'NONE',  ( -0.000000000000000000, -0.000000000000000000, -1.000000000000000000 ) ) ;
#175 = EDGE_CURVE ( 'NONE', #71, #304, #234, .T. ) ;
#176 = CARTESIAN_POINT ( 'NONE',  ( 10.00000000000000000, 17.32050807568877460, 80.00000000000000000 ) ) ;
#177 = DIRECTION ( 'NONE',  ( 0.000000000000000000, 0.000000000000000000, 1.000000000000000000 ) ) ;
#178 = CARTESIAN_POINT ( 'NONE',  ( 18.82307670452252779, 2.038490944378378078, 29.99999999999997158 ) ) ;
#179 = CARTESIAN_POINT ( 'NONE',  ( 17.49999999999999645, 4.330127018922193649, 29.99999999999997158 ) ) ;
#180 = DIRECTION ( 'NONE',  ( -0.000000000000000000, 0.000000000000000000, 1.000000000000000000 ) ) ;
#181 = VECTOR ( 'NONE', #341, 1000.000000000000000 ) ;
#182 = LINE ( 'NONE', #183, #160 ) ;
#183 = CARTESIAN_POINT ( 'NONE',  ( 20.00000000000000000, 0.000000000000000000, 80.00000000000000000 ) ) ;
#184 = EDGE_CURVE ( 'NONE', #156, #27, #260, .T. ) ;
#185 = CARTESIAN_POINT ( 'NONE',  ( 19.46042288348886728, 3.934220315400784873, 29.99999999999997158 ) ) ;
#186 = VERTEX_POINT ( 'NONE', #295 ) ;
#187 = AXIS2_PLACEMENT_3D ( 'NONE', #221, #107, #57 ) ;
#188 = DIRECTION ( 'NONE',  ( 0.1979533517607046100, 0.9802114417444344197, -0.000000000000000000 ) ) ;
#189 = ORIENTED_EDGE ( 'NONE', *, *, #298, .T. ) ;
#190 = CARTESIAN_POINT ( 'NONE',  ( 17.50000000000000000, 4.330127018922193649, 80.00000000000000000 ) ) ;
#191 = EDGE_CURVE ( 'NONE', #152, #186, #55, .T. ) ;
#192 = ORIENTED_EDGE ( 'NONE', *, *, #284, .T. ) ;
#193 = VECTOR ( 'NONE', #144, 1000.000000000000000 ) ;
#194 = CARTESIAN_POINT ( 'NONE',  ( 0.000000000000000000, 0.000000000000000000, 0.000000000000000000 ) ) ;
#195 = PRODUCT_CONTEXT ( 'NONE', #219, 'mechanical' ) ;
#196 = PLANE ( 'NONE',  #77 ) ;
#197 = LINE ( 'NONE', #261, #313 ) ;
#198 = EDGE_CURVE ( 'NONE', #27, #152, #103, .T. ) ;
#199 = VERTEX_POINT ( 'NONE', #265 ) ;
#200 = EDGE_CURVE ( 'NONE', #97, #246, #76, .T. ) ;
#201 = DIRECTION ( 'NONE',  ( -0.5000000000000000000, 0.8660254037844385966, 0.000000000000000000 ) ) ;
#202 = DIRECTION ( 'NONE',  ( -0.9802114417444345307, 0.1979533517607041937, -0.000000000000000000 ) ) ;
#203 = CARTESIAN_POINT ( 'NONE',  ( 0.000000000000000000, 0.000000000000000000, 0.000000000000000000 ) ) ;
#204 = DIRECTION ( 'NONE',  ( 0.3186730894831688587, 0.9478646855112031755, -0.000000000000000000 ) ) ;
#205 = DIRECTION ( 'NONE',  ( 1.000000000000000000, 0.000000000000000000, 0.000000000000000000 ) ) ;
#206 = VECTOR ( 'NONE', #211, 1000.000000000000114 ) ;
#207 = EDGE_LOOP ( 'NONE', ( #299, #350, #56 ) ) ;
#208 = DIRECTION ( 'NONE',  ( 0.3186730894831688587, 0.9478646855112031755, -0.000000000000000000 ) ) ;
#209 = ADVANCED_FACE ( 'NONE', ( #215 ), #241, .T. ) ;
#210 = DIRECTION ( 'NONE',  ( 0.000000000000000000, 1.000000000000000000, 0.000000000000000000 ) ) ;
#211 = DIRECTION ( 'NONE',  ( -0.9802114417444344197, 0.1979533517607046378, -0.000000000000000000 ) ) ;
#212 = AXIS2_PLACEMENT_3D ( 'NONE', #134, #210, #269 ) ;
#213 = VERTEX_POINT ( 'NONE', #190 ) ;
#214 = VECTOR ( 'NONE', #6, 1000.000000000000227 ) ;
#215 = FACE_OUTER_BOUND ( 'NONE', #352, .T. ) ;
#216 = EDGE_LOOP ( 'NONE', ( #338, #232, #17, #327, #73, #289, #238, #189, #259, #143, #126, #325 ) ) ;
#217 = DIRECTION ( 'NONE',  ( 0.000000000000000000, 0.000000000000000000, 1.000000000000000000 ) ) ;
#218 = ORIENTED_EDGE ( 'NONE', *, *, #302, .F. ) ;
#219 = APPLICATION_CONTEXT ( 'automotive_design' ) ;
#220 = COLOUR_RGB ( '',0.7921568627450980005, 0.8196078431372548767, 0.9333333333333333481 ) ;
#221 = CARTESIAN_POINT ( 'NONE',  ( 10.00000000000000000, 17.32050807568877460, 80.00000000000000000 ) ) ;
#222 = VERTEX_POINT ( 'NONE', #185 ) ;
#223 = PLANE ( 'NONE',  #235 ) ;
#224 = LINE ( 'NONE', #72, #117 ) ;
#225 = CARTESIAN_POINT ( 'NONE',  ( 19.46042288348886728, 3.934220315400784873, 29.99999999999997158 ) ) ;
#226 = FACE_OUTER_BOUND ( 'NONE', #292, .T. ) ;
#227 = DIRECTION ( 'NONE',  ( 1.000000000000000000, 0.000000000000000000, 0.000000000000000000 ) ) ;
#228 = EDGE_CURVE ( 'NONE', #222, #274, #163, .T. ) ;
#229 = ORIENTED_EDGE ( 'NONE', *, *, #162, .T. ) ;
#230 = ORIENTED_EDGE ( 'NONE', *, *, #39, .T. ) ;
#231 = DIRECTION ( 'NONE',  ( -0.9802114417444345307, 0.1979533517607041937, 0.000000000000000000 ) ) ;
#232 = ORIENTED_EDGE ( 'NONE', *, *, #191, .F. ) ;
#233 = DIRECTION ( 'NONE',  ( 0.3186730894831692473, 0.9478646855112030645, 0.000000000000000000 ) ) ;
#234 = LINE ( 'NONE', #154, #30 ) ;
#235 = AXIS2_PLACEMENT_3D ( 'NONE', #85, #332, #115 ) ;
#236 = CARTESIAN_POINT ( 'NONE',  ( 0.000000000000000000, 0.000000000000000000, 29.99999999999997158 ) ) ;
#237 = ADVANCED_FACE ( 'NONE', ( #74 ), #75, .T. ) ;
#238 = ORIENTED_EDGE ( 'NONE', *, *, #121, .F. ) ;
#239 = CARTESIAN_POINT ( 'NONE',  ( 19.46042288348886728, 3.934220315400784873, 80.00000000000000000 ) ) ;
#240 = EDGE_CURVE ( 'NONE', #213, #97, #182, .T. ) ;
#241 = PLANE ( 'NONE',  #149 ) ;
#242 = VECTOR ( 'NONE', #120, 999.9999999999998863 ) ;
#243 = ORIENTED_EDGE ( 'NONE', *, *, #200, .T. ) ;
#244 = CARTESIAN_POINT ( 'NONE',  ( 0.000000000000000000, 0.000000000000000000, 80.00000000000000000 ) ) ;
#245 = EDGE_CURVE ( 'NONE', #222, #46, #50, .T. ) ;
#246 = VERTEX_POINT ( 'NONE', #157 ) ;
#247 = AXIS2_PLACEMENT_3D ( 'NONE', #236, #345, #100 ) ;
#248 = LINE ( 'NONE', #166, #280 ) ;
#249 = EDGE_CURVE ( 'NONE', #199, #274, #51, .T. ) ;
#250 = DIRECTION ( 'NONE',  ( -0.5000000000000000000, -0.8660254037844385966, 0.000000000000000000 ) ) ;
#251 = CARTESIAN_POINT ( 'NONE',  ( 20.00000000000000000, 0.000000000000000000, 29.99999999999997158 ) ) ;
#252 = AXIS2_PLACEMENT_3D ( 'NONE', #69, #282, #47 ) ;
#253 = EDGE_LOOP ( 'NONE', ( #101, #137, #113, #296 ) ) ;
#254 = LINE ( 'NONE', #37, #242 ) ;
#255 = PLANE ( 'NONE',  #335 ) ;
#256 = VECTOR ( 'NONE', #319, 1000.000000000000114 ) ;
#257 = DIRECTION ( 'NONE',  ( 1.000000000000000000, 0.000000000000000000, 0.000000000000000000 ) ) ;
#258 = VECTOR ( 'NONE', #138, 1000.000000000000114 ) ;
#259 = ORIENTED_EDGE ( 'NONE', *, *, #84, .F. ) ;
#260 = LINE ( 'NONE', #78, #266 ) ;
#261 = CARTESIAN_POINT ( 'NONE',  ( 13.13734617896633949, 14.88611042778898508, 29.99999999999997158 ) ) ;
#262 = ORIENTED_EDGE ( 'NONE', *, *, #63, .F. ) ;
#263 = CARTESIAN_POINT ( 'NONE',  ( 11.17692329547747043, 15.28201713131039519, 29.99999999999997158 ) ) ;
#264 = PRODUCT_DEFINITION_CONTEXT ( 'detailed design', #5, 'design' ) ;
#265 = CARTESIAN_POINT ( 'NONE',  ( 18.82307670452252779, 2.038490944378378078, 80.00000000000000000 ) ) ;
#266 = VECTOR ( 'NONE', #204, 1000.000000000000114 ) ;
#267 = CARTESIAN_POINT ( 'NONE',  ( 10.00000000000000000, 17.32050807568877460, 0.000000000000000000 ) ) ;
#268 = ADVANCED_FACE ( 'NONE', ( #23 ), #136, .F. ) ;
#269 = DIRECTION ( 'NONE',  ( 0.000000000000000000, -0.000000000000000000, 1.000000000000000000 ) ) ;
#270 = ORIENTED_EDGE ( 'NONE', *, *, #228, .F. ) ;
#271 =( NAMED_UNIT ( * ) SI_UNIT ( $, .STERADIAN. ) SOLID_ANGLE_UNIT ( ) );
#272 = EDGE_CURVE ( 'NONE', #304, #29, #161, .T. ) ;
#273 = LINE ( 'NONE', #109, #214 ) ;
#274 = VERTEX_POINT ( 'NONE', #239 ) ;
#275 = SURFACE_STYLE_FILL_AREA ( #116 ) ;
#276 = ORIENTED_EDGE ( 'NONE', *, *, #331, .T. ) ;
#277 = ADVANCED_FACE ( 'NONE', ( #346 ), #223, .T. ) ;
#278 = CARTESIAN_POINT ( 'NONE',  ( 0.000000000000000000, 0.000000000000000000, 29.99999999999997158 ) ) ;
#279 = VECTOR ( 'NONE', #7, 999.9999999999998863 ) ;
#280 = VECTOR ( 'NONE', #174, 1000.000000000000000 ) ;
#281 = ADVANCED_FACE ( 'NONE', ( #349 ), #351, .F. ) ;
#282 = DIRECTION ( 'NONE',  ( -0.8660254037844387076, -0.5000000000000001110, 0.000000000000000000 ) ) ;
#283 = FACE_OUTER_BOUND ( 'NONE', #145, .T. ) ;
#284 = EDGE_CURVE ( 'NONE', #108, #222, #114, .T. ) ;
#285 = ORIENTED_EDGE ( 'NONE', *, *, #249, .T. ) ;
#286 = PRESENTATION_LAYER_ASSIGNMENT (  '', '', ( #140 ) ) ;
#287 = FACE_OUTER_BOUND ( 'NONE', #216, .T. ) ;
#288 = CARTESIAN_POINT ( 'NONE',  ( 20.00000000000000000, 0.000000000000000000, 0.000000000000000000 ) ) ;
#289 = ORIENTED_EDGE ( 'NONE', *, *, #324, .F. ) ;
#290 = UNCERTAINTY_MEASURE_WITH_UNIT (LENGTH_MEASURE( 1.000000000000000082E-05 ), #13, 'distance_accuracy_value', 'NONE');
#291 = CARTESIAN_POINT ( 'NONE',  ( 19.46042288348886728, 3.934220315400784873, 29.99999999999997158 ) ) ;
#292 = EDGE_LOOP ( 'NONE', ( #230, #3, #262, #22 ) ) ;
#293 = CARTESIAN_POINT ( 'NONE',  ( 17.49999999999999645, 4.330127018922193649, 29.99999999999997158 ) ) ;
#294 = DIRECTION ( 'NONE',  ( -0.5000000000000000000, 0.8660254037844385966, 0.000000000000000000 ) ) ;
#295 = CARTESIAN_POINT ( 'NONE',  ( 11.17692329547747043, 15.28201713131039519, 80.00000000000000000 ) ) ;
#296 = ORIENTED_EDGE ( 'NONE', *, *, #44, .T. ) ;
#297 = DIRECTION ( 'NONE',  ( 0.000000000000000000, 0.000000000000000000, 1.000000000000000000 ) ) ;
#298 = EDGE_CURVE ( 'NONE', #108, #199, #168, .T. ) ;
#299 = ORIENTED_EDGE ( 'NONE', *, *, #184, .F. ) ;
#300 = SHAPE_DEFINITION_REPRESENTATION ( #99, #90 ) ;
#301 = ORIENTED_EDGE ( 'NONE', *, *, #198, .T. ) ;
#302 = EDGE_CURVE ( 'NONE', #330, #29, #31, .T. ) ;
#303 = DIRECTION ( 'NONE',  ( 0.000000000000000000, 0.000000000000000000, 1.000000000000000000 ) ) ;
#304 = VERTEX_POINT ( 'NONE', #87 ) ;
#305 = APPLICATION_PROTOCOL_DEFINITION ( 'draft international standard', 'automotive_design', 1998, #5 ) ;
#306 = EDGE_CURVE ( 'NONE', #62, #19, #248, .T. ) ;
#307 = EDGE_LOOP ( 'NONE', ( #58, #54, #192, #164 ) ) ;
#308 = CARTESIAN_POINT ( 'NONE',  ( 17.49999999999999645, 4.330127018922193649, 29.99999999999997158 ) ) ;
#309 = ADVANCED_FACE ( 'NONE', ( #328 ), #196, .F. ) ;
#310 = AXIS2_PLACEMENT_3D ( 'NONE', #291, #132, #233 ) ;
#311 =( NAMED_UNIT ( * ) PLANE_ANGLE_UNIT ( ) SI_UNIT ( $, .RADIAN. ) );
#312 = PLANE ( 'NONE',  #252 ) ;
#313 = VECTOR ( 'NONE', #177, 1000.000000000000000 ) ;
#314 = FACE_OUTER_BOUND ( 'NONE', #52, .T. ) ;
#315 = ORIENTED_EDGE ( 'NONE', *, *, #240, .T. ) ;
#316 =( GEOMETRIC_REPRESENTATION_CONTEXT ( 3 ) GLOBAL_UNCERTAINTY_ASSIGNED_CONTEXT ( ( #290 ) ) GLOBAL_UNIT_ASSIGNED_CONTEXT ( ( #13, #311, #67 ) ) REPRESENTATION_CONTEXT ( 'NONE', 'WORKASPACE' ) );
#317 = CARTESIAN_POINT ( 'NONE',  ( 13.13734617896633949, 14.88611042778898508, 80.00000000000000000 ) ) ;
#318 = DIRECTION ( 'NONE',  ( -0.9802114417444344197, 0.1979533517607046100, 0.000000000000000000 ) ) ;
#319 = DIRECTION ( 'NONE',  ( -0.9802114417444344197, 0.1979533517607046378, -0.000000000000000000 ) ) ;
#320 = LINE ( 'NONE', #347, #181 ) ;
#321 = CLOSED_SHELL ( 'NONE', ( #281, #141, #102, #26, #2, #268, #277, #209, #309, #49, #237 ) ) ;
#322 = ORIENTED_EDGE ( 'NONE', *, *, #272, .T. ) ;
#323 = LINE ( 'NONE', #139, #256 ) ;
#324 = EDGE_CURVE ( 'NONE', #46, #213, #4, .T. ) ;
#325 = ORIENTED_EDGE ( 'NONE', *, *, #175, .F. ) ;
#326 = DIRECTION ( 'NONE',  ( 0.000000000000000000, -0.000000000000000000, 1.000000000000000000 ) ) ;
#327 = ORIENTED_EDGE ( 'NONE', *, *, #151, .T. ) ;
#328 = FACE_OUTER_BOUND ( 'NONE', #122, .T. ) ;
#329 = APPLICATION_PROTOCOL_DEFINITION ( 'draft international standard', 'automotive_design', 1998, #219 ) ;
#330 = VERTEX_POINT ( 'NONE', #38 ) ;
#331 = EDGE_CURVE ( 'NONE', #71, #330, #148, .T. ) ;
#332 = DIRECTION ( 'NONE',  ( 0.9478646855112032865, -0.3186730894831689143, 0.000000000000000000 ) ) ;
#333 = SURFACE_SIDE_STYLE ('',( #275 ) ) ;
#334 = LINE ( 'NONE', #94, #15 ) ;
#335 = AXIS2_PLACEMENT_3D ( 'NONE', #203, #180, #205 ) ;
#336 = EDGE_CURVE ( 'NONE', #19, #304, #273, .T. ) ;
#337 = PLANE ( 'NONE',  #173 ) ;
#338 = ORIENTED_EDGE ( 'NONE', *, *, #131, .F. ) ;
#339 = DIRECTION ( 'NONE',  ( -0.000000000000000000, 0.000000000000000000, 1.000000000000000000 ) ) ;
#340 = ORIENTED_EDGE ( 'NONE', *, *, #245, .T. ) ;
#341 = DIRECTION ( 'NONE',  ( 0.000000000000000000, 0.000000000000000000, 1.000000000000000000 ) ) ;
#342 = LINE ( 'NONE', #155, #36 ) ;
#343 = ORIENTED_EDGE ( 'NONE', *, *, #336, .F. ) ;
#344 = CARTESIAN_POINT ( 'NONE',  ( 11.17692329547747043, 15.28201713131039519, 29.99999999999997158 ) ) ;
#345 = DIRECTION ( 'NONE',  ( 0.000000000000000000, -0.000000000000000000, 1.000000000000000000 ) ) ;
#346 = FACE_OUTER_BOUND ( 'NONE', #253, .T. ) ;
#347 = CARTESIAN_POINT ( 'NONE',  ( 12.50000000000000178, 12.99038105676658184, 29.99999999999997158 ) ) ;
#348 = ORIENTED_EDGE ( 'NONE', *, *, #162, .F. ) ;
#349 = FACE_OUTER_BOUND ( 'NONE', #33, .T. ) ;
#350 = ORIENTED_EDGE ( 'NONE', *, *, #12, .T. ) ;
#351 = PLANE ( 'NONE',  #187 ) ;
#352 = EDGE_LOOP ( 'NONE', ( #348, #110, #301, #130 ) ) ;
ENDSEC;
END-ISO-10303-21;
