# Blender 4.4.0
# www.blender.org
mtllib Dl4a.mtl
o Dl4a
v -0.000000 -0.000000 80.000000
v 10.000000 17.320509 80.000000
v -0.000000 -0.000000 -0.000000
v 10.000000 17.320509 -0.000000
v 20.000000 0.000000 80.000000
v 0.000000 0.000000 80.000000
v 20.000000 0.000000 0.000000
v 0.000000 0.000000 0.000000
v 11.176924 15.282017 80.000000
v 11.176924 15.282017 30.000000
v 12.500000 12.990380 30.000000
v 20.000000 0.000000 -0.000000
v 18.823076 2.038491 80.000000
v 18.823076 2.038491 30.000000
v 17.500000 4.330127 30.000000
v 17.500000 4.330127 80.000000
v 12.500000 12.990380 80.000000
v 13.137346 14.886110 80.000000
v 19.460423 3.934220 80.000000
v 10.000000 17.320509 0.000000
v 13.137346 14.886110 30.000000
v 19.460423 3.934220 30.000000
vn -0.8660 0.5000 -0.0000
vn -0.0000 -1.0000 -0.0000
vn 0.8660 0.5000 -0.0000
vn -0.0000 -0.0000 1.0000
vn -0.0000 -0.0000 -1.0000
vn 0.9479 -0.3187 -0.0000
vn 0.1980 0.9802 -0.0000
s 0
f 1//1 2//1 3//1
f 3//1 2//1 4//1
f 5//2 6//2 7//2
f 7//2 6//2 8//2
f 2//3 9//3 10//3
f 11//3 12//3 10//3
f 10//3 12//3 4//3
f 10//3 4//3 2//3
f 13//3 5//3 14//3
f 14//3 5//3 12//3
f 14//3 12//3 15//3
f 15//3 12//3 11//3
f 15//3 11//3 16//3
f 16//3 11//3 17//3
f 9//4 2//4 6//4
f 6//4 5//4 13//4
f 18//4 9//4 17//4
f 17//4 9//4 6//4
f 17//4 6//4 16//4
f 16//4 6//4 13//4
f 16//4 13//4 19//4
f 20//5 7//5 8//5
f 11//5 10//5 21//5
f 11//6 21//6 17//6
f 17//6 21//6 18//6
f 21//7 10//7 18//7
f 18//7 10//7 9//7
f 14//5 15//5 22//5
f 22//7 15//7 19//7
f 19//7 15//7 16//7
f 14//6 22//6 13//6
f 13//6 22//6 19//6
