# Blender 4.4.0
# www.blender.org
mtllib Kf1i.mtl
o Kf1i
v 79.870293 43.218662 10.000000
v 80.000000 40.000000 10.000000
v 80.000000 40.000000 0.000000
v 79.870293 36.781338 0.000000
v 79.870293 36.781338 10.000000
v 78.837669 30.427372 10.000000
v 78.837669 30.427372 0.000000
v 76.799179 24.321335 10.000000
v 76.799179 24.321335 0.000000
v 73.807602 18.621367 10.000000
v 73.807602 18.621367 0.000000
v 69.940430 13.475092 10.000000
v 69.940430 13.475092 0.000000
v 65.297813 9.015800 10.000000
v 65.297813 9.015800 0.000000
v 60.000000 5.358983 10.000000
v 60.000000 5.358983 0.000000
v 54.184196 2.599351 10.000000
v 54.184196 2.599351 0.000000
v 48.001026 0.808373 10.000000
v 48.001026 0.808373 0.000000
v 41.610638 0.032440 10.000000
v 41.610638 0.032440 0.000000
v 35.178532 0.291646 10.000000
v 35.178532 0.291646 0.000000
v 28.871300 1.579273 10.000000
v 28.871300 1.579273 0.000000
v 22.852297 3.861982 10.000000
v 22.852297 3.861982 0.000000
v 17.277409 7.080645 10.000000
v 17.277409 7.080645 0.000000
v 12.291025 11.151900 10.000000
v 12.291025 11.151900 0.000000
v 8.022289 15.970308 10.000000
v 8.022289 15.970308 0.000000
v 4.581757 21.411072 10.000000
v 4.581757 21.411072 0.000000
v 2.058543 27.333279 10.000000
v 2.058543 27.333279 0.000000
v 0.517990 33.583549 10.000000
v 0.517990 33.583549 0.000000
v 0.000000 40.000000 10.000000
v 0.000000 40.000000 0.000000
v 0.517990 46.416451 10.000000
v 0.517990 46.416451 0.000000
v 2.058543 52.666718 10.000000
v 2.058543 52.666718 0.000000
v 4.581757 58.588924 10.000000
v 4.581757 58.588924 0.000000
v 8.022289 64.029694 10.000000
v 8.022289 64.029694 0.000000
v 12.291025 68.848099 10.000000
v 12.291025 68.848099 0.000000
v 17.277409 72.919357 10.000000
v 17.277409 72.919357 0.000000
v 22.852297 76.138016 10.000000
v 22.852297 76.138016 0.000000
v 28.871300 78.420723 10.000000
v 28.871300 78.420723 0.000000
v 35.178532 79.708351 10.000000
v 35.178532 79.708351 0.000000
v 41.610638 79.967560 10.000000
v 41.610638 79.967560 0.000000
v 48.001026 79.191628 10.000000
v 48.001026 79.191628 0.000000
v 54.184196 77.400650 10.000000
v 54.184196 77.400650 0.000000
v 60.000000 74.641014 10.000000
v 60.000000 74.641014 0.000000
v 65.297813 70.984200 10.000000
v 65.297813 70.984200 0.000000
v 69.940430 66.524902 10.000000
v 69.940430 66.524902 0.000000
v 73.807602 61.378632 10.000000
v 73.807602 61.378632 0.000000
v 76.799179 55.678665 10.000000
v 76.799179 55.678665 0.000000
v 78.837669 49.572628 10.000000
v 78.837669 49.572628 0.000000
v 79.870293 43.218662 0.000000
v 22.499998 70.310890 10.000000
v 28.029293 72.889244 10.000000
v 33.922314 74.468269 10.000000
v 40.000000 75.000000 10.000000
v 46.077686 74.468269 10.000000
v 51.970703 72.889244 10.000000
v 57.500000 70.310890 10.000000
v 62.497566 66.811554 10.000000
v 66.811554 62.497566 10.000000
v 70.310890 57.500000 10.000000
v 72.889244 51.970703 10.000000
v 74.468269 46.077686 10.000000
v 75.000000 40.000000 10.000000
v 22.499998 9.689110 10.000000
v 28.029293 7.110756 10.000000
v 33.922314 5.531728 10.000000
v 40.000000 4.999999 10.000000
v 46.077686 5.531728 10.000000
v 51.970703 7.110756 10.000000
v 57.500000 9.689110 10.000000
v 62.497566 13.188444 10.000000
v 66.811554 17.502432 10.000000
v 70.310890 22.499998 10.000000
v 72.889244 28.029293 10.000000
v 74.468269 33.922314 10.000000
v 17.502432 66.811554 10.000000
v 13.188444 62.497566 10.000000
v 9.689110 57.500000 10.000000
v 7.110756 51.970703 10.000000
v 5.531728 46.077686 10.000000
v 4.999999 40.000000 10.000000
v 5.531728 33.922314 10.000000
v 7.110756 28.029293 10.000000
v 9.689110 22.499998 10.000000
v 13.188444 17.502432 10.000000
v 17.502432 13.188444 10.000000
v 40.000000 40.000000 0.000000
v 75.000000 40.000000 3.000000
v 74.468269 46.077686 3.000000
v 72.889244 51.970703 3.000000
v 70.310890 57.500000 3.000000
v 66.811554 62.497566 3.000000
v 62.497566 66.811554 3.000000
v 57.500000 70.310890 3.000000
v 51.970703 72.889244 3.000000
v 46.077686 74.468269 3.000000
v 40.000000 75.000000 3.000000
v 33.922314 74.468269 3.000000
v 28.029293 72.889244 3.000000
v 22.499998 70.310890 3.000000
v 17.502432 66.811554 3.000000
v 13.188444 62.497566 3.000000
v 9.689110 57.500000 3.000000
v 7.110756 51.970703 3.000000
v 5.531728 46.077686 3.000000
v 4.999999 40.000000 3.000000
v 5.531728 33.922314 3.000000
v 7.110756 28.029293 3.000000
v 9.689110 22.499998 3.000000
v 13.188444 17.502432 3.000000
v 17.502432 13.188444 3.000000
v 22.499998 9.689110 3.000000
v 28.029293 7.110756 3.000000
v 33.922314 5.531728 3.000000
v 40.000000 4.999999 3.000000
v 46.077686 5.531728 3.000000
v 51.970703 7.110756 3.000000
v 57.500000 9.689110 3.000000
v 62.497566 13.188444 3.000000
v 66.811554 17.502432 3.000000
v 70.310890 22.499998 3.000000
v 72.889244 28.029293 3.000000
v 74.468269 33.922314 3.000000
v 25.000000 40.000000 3.000000
v 25.511112 36.117714 3.000000
v 27.009619 32.500000 3.000000
v 52.990379 32.500000 3.000000
v 54.488888 36.117714 3.000000
v 55.000000 40.000000 3.000000
v 47.500000 27.009619 3.000000
v 50.606602 29.393396 3.000000
v 40.000000 25.000000 3.000000
v 43.882286 25.511112 3.000000
v 32.500000 27.009619 3.000000
v 36.117714 25.511112 3.000000
v 29.393396 29.393396 3.000000
v 27.009619 47.500000 3.000000
v 25.511112 43.882286 3.000000
v 32.500000 52.990379 3.000000
v 29.393396 50.606602 3.000000
v 40.000000 55.000000 3.000000
v 36.117714 54.488888 3.000000
v 47.500000 52.990379 3.000000
v 43.882286 54.488888 3.000000
v 52.990379 47.500000 3.000000
v 50.606602 50.606602 3.000000
v 54.488888 43.882286 3.000000
v 25.511112 43.882286 10.000000
v 27.009619 47.500000 10.000000
v 29.393396 50.606602 10.000000
v 32.500000 52.990379 10.000000
v 36.117714 54.488888 10.000000
v 40.000000 55.000000 10.000000
v 43.882286 54.488888 10.000000
v 47.500000 52.990379 10.000000
v 50.606602 50.606602 10.000000
v 52.990379 47.500000 10.000000
v 54.488888 43.882286 10.000000
v 55.000000 40.000000 10.000000
v 54.488888 36.117714 10.000000
v 52.990379 32.500000 10.000000
v 50.606602 29.393396 10.000000
v 47.500000 27.009619 10.000000
v 43.882286 25.511112 10.000000
v 40.000000 25.000000 10.000000
v 36.117714 25.511112 10.000000
v 32.500000 27.009619 10.000000
v 29.393396 29.393396 10.000000
v 27.009619 32.500000 10.000000
v 25.511112 36.117714 10.000000
v 25.000000 40.000000 10.000000
v 40.000000 40.000000 10.000000
vn 0.9992 0.0403 -0.0000
vn 0.9992 -0.0403 -0.0000
vn 0.9871 -0.1604 -0.0000
vn 0.9485 -0.3167 -0.0000
vn 0.8855 -0.4647 -0.0000
vn 0.7994 -0.6007 -0.0000
vn 0.6927 -0.7212 -0.0000
vn 0.5681 -0.8230 -0.0000
vn 0.4287 -0.9035 -0.0000
vn 0.2782 -0.9605 -0.0000
vn 0.1205 -0.9927 -0.0000
vn -0.0403 -0.9992 -0.0000
vn -0.2000 -0.9798 -0.0000
vn -0.3546 -0.9350 -0.0000
vn -0.5000 -0.8660 -0.0000
vn -0.6324 -0.7746 -0.0000
vn -0.7485 -0.6631 -0.0000
vn -0.8452 -0.5345 -0.0000
vn -0.9200 -0.3920 -0.0000
vn -0.9709 -0.2393 -0.0000
vn -0.9968 -0.0805 -0.0000
vn -0.9968 0.0805 -0.0000
vn -0.9709 0.2393 -0.0000
vn -0.9200 0.3920 -0.0000
vn -0.8452 0.5345 -0.0000
vn -0.7485 0.6631 -0.0000
vn -0.6324 0.7746 -0.0000
vn -0.5000 0.8660 -0.0000
vn -0.3546 0.9350 -0.0000
vn -0.2000 0.9798 -0.0000
vn -0.0403 0.9992 -0.0000
vn 0.1205 0.9927 -0.0000
vn 0.2782 0.9605 -0.0000
vn 0.4287 0.9035 -0.0000
vn 0.5681 0.8230 -0.0000
vn 0.6927 0.7212 -0.0000
vn 0.7994 0.6007 -0.0000
vn 0.8855 0.4647 -0.0000
vn 0.9485 0.3167 -0.0000
vn 0.9871 0.1604 -0.0000
vn -0.0000 -0.0000 1.0000
vn -0.0000 -0.0000 -1.0000
vn -0.9962 -0.0872 -0.0000
vn -0.9659 -0.2588 -0.0000
vn -0.9063 -0.4226 -0.0000
vn -0.8192 -0.5736 -0.0000
vn -0.7071 -0.7071 -0.0000
vn -0.5736 -0.8192 -0.0000
vn -0.4226 -0.9063 -0.0000
vn -0.2588 -0.9659 -0.0000
vn -0.0872 -0.9962 -0.0000
vn 0.0872 -0.9962 -0.0000
vn 0.2588 -0.9659 -0.0000
vn 0.4226 -0.9063 -0.0000
vn 0.5736 -0.8192 -0.0000
vn 0.7071 -0.7071 -0.0000
vn 0.8192 -0.5736 -0.0000
vn 0.9063 -0.4226 -0.0000
vn 0.9659 -0.2588 -0.0000
vn 0.9962 -0.0872 -0.0000
vn 0.9962 0.0872 -0.0000
vn 0.9659 0.2588 -0.0000
vn 0.9063 0.4226 -0.0000
vn 0.8192 0.5736 -0.0000
vn 0.7071 0.7071 -0.0000
vn 0.5736 0.8192 -0.0000
vn 0.4226 0.9063 -0.0000
vn 0.2588 0.9659 -0.0000
vn 0.0872 0.9962 -0.0000
vn -0.0872 0.9962 -0.0000
vn -0.2588 0.9659 -0.0000
vn -0.4226 0.9063 -0.0000
vn -0.5736 0.8192 -0.0000
vn -0.7071 0.7071 -0.0000
vn -0.8192 0.5736 -0.0000
vn -0.9063 0.4226 -0.0000
vn -0.9659 0.2588 -0.0000
vn -0.9962 0.0872 -0.0000
vn -0.9914 0.1305 -0.0000
vn -0.9239 0.3827 -0.0000
vn -0.7934 0.6088 -0.0000
vn -0.6088 0.7934 -0.0000
vn -0.3827 0.9239 -0.0000
vn -0.1305 0.9914 -0.0000
vn 0.1305 0.9914 -0.0000
vn 0.3827 0.9239 -0.0000
vn 0.6088 0.7934 -0.0000
vn 0.7934 0.6088 -0.0000
vn 0.9239 0.3827 -0.0000
vn 0.9914 0.1305 -0.0000
vn 0.9914 -0.1305 -0.0000
vn 0.9239 -0.3827 -0.0000
vn 0.7934 -0.6088 -0.0000
vn 0.6088 -0.7934 -0.0000
vn 0.3827 -0.9239 -0.0000
vn 0.1305 -0.9914 -0.0000
vn -0.1305 -0.9914 -0.0000
vn -0.3827 -0.9239 -0.0000
vn -0.6088 -0.7934 -0.0000
vn -0.7934 -0.6088 -0.0000
vn -0.9239 -0.3827 -0.0000
vn -0.9914 -0.1305 -0.0000
s 0
f 1//1 2//1 3//1
f 3//2 2//2 4//2
f 2//2 5//2 4//2
f 4//3 5//3 6//3
f 4//3 6//3 7//3
f 7//4 6//4 8//4
f 7//4 8//4 9//4
f 9//5 8//5 10//5
f 9//5 10//5 11//5
f 11//6 10//6 12//6
f 11//6 12//6 13//6
f 13//7 12//7 14//7
f 13//7 14//7 15//7
f 15//8 14//8 16//8
f 15//8 16//8 17//8
f 17//9 16//9 18//9
f 17//9 18//9 19//9
f 19//10 18//10 20//10
f 19//10 20//10 21//10
f 21//11 20//11 22//11
f 21//11 22//11 23//11
f 23//12 22//12 24//12
f 23//12 24//12 25//12
f 25//13 24//13 26//13
f 25//13 26//13 27//13
f 27//14 26//14 28//14
f 27//14 28//14 29//14
f 29//15 28//15 30//15
f 29//15 30//15 31//15
f 31//16 30//16 32//16
f 31//16 32//16 33//16
f 33//17 32//17 34//17
f 33//17 34//17 35//17
f 35//18 34//18 36//18
f 35//18 36//18 37//18
f 37//19 36//19 38//19
f 37//19 38//19 39//19
f 39//20 38//20 40//20
f 39//20 40//20 41//20
f 41//21 40//21 42//21
f 41//21 42//21 43//21
f 43//22 42//22 44//22
f 43//22 44//22 45//22
f 45//23 44//23 46//23
f 45//23 46//23 47//23
f 47//24 46//24 48//24
f 47//24 48//24 49//24
f 49//25 48//25 50//25
f 49//25 50//25 51//25
f 51//26 50//26 52//26
f 51//26 52//26 53//26
f 53//27 52//27 54//27
f 53//27 54//27 55//27
f 55//28 54//28 56//28
f 55//28 56//28 57//28
f 57//29 56//29 58//29
f 57//29 58//29 59//29
f 59//30 58//30 60//30
f 59//30 60//30 61//30
f 61//31 60//31 62//31
f 61//31 62//31 63//31
f 63//32 62//32 64//32
f 63//32 64//32 65//32
f 65//33 64//33 66//33
f 65//33 66//33 67//33
f 67//34 66//34 68//34
f 67//34 68//34 69//34
f 69//35 68//35 70//35
f 69//35 70//35 71//35
f 71//36 70//36 72//36
f 71//36 72//36 73//36
f 73//37 72//37 74//37
f 73//37 74//37 75//37
f 75//38 74//38 76//38
f 75//38 76//38 77//38
f 77//39 76//39 78//39
f 77//39 78//39 79//39
f 79//40 78//40 1//40
f 79//40 1//40 80//40
f 80//1 1//1 3//1
f 81//41 82//41 58//41
f 58//41 82//41 60//41
f 60//41 82//41 83//41
f 60//41 83//41 62//41
f 62//41 83//41 84//41
f 62//41 84//41 64//41
f 64//41 84//41 85//41
f 64//41 85//41 66//41
f 66//41 85//41 86//41
f 66//41 86//41 68//41
f 68//41 86//41 87//41
f 68//41 87//41 70//41
f 70//41 87//41 88//41
f 70//41 88//41 72//41
f 72//41 88//41 89//41
f 72//41 89//41 74//41
f 74//41 89//41 90//41
f 74//41 90//41 76//41
f 76//41 90//41 91//41
f 76//41 91//41 78//41
f 78//41 91//41 92//41
f 78//41 92//41 1//41
f 1//41 92//41 93//41
f 1//41 93//41 2//41
f 94//41 28//41 95//41
f 95//41 28//41 26//41
f 95//41 26//41 96//41
f 96//41 26//41 24//41
f 96//41 24//41 97//41
f 97//41 24//41 22//41
f 97//41 22//41 98//41
f 98//41 22//41 20//41
f 98//41 20//41 99//41
f 99//41 20//41 18//41
f 99//41 18//41 100//41
f 100//41 18//41 16//41
f 100//41 16//41 101//41
f 101//41 16//41 14//41
f 101//41 14//41 102//41
f 102//41 14//41 12//41
f 102//41 12//41 103//41
f 103//41 12//41 10//41
f 103//41 10//41 104//41
f 104//41 10//41 8//41
f 104//41 8//41 105//41
f 105//41 8//41 6//41
f 105//41 6//41 93//41
f 93//41 6//41 5//41
f 93//41 5//41 2//41
f 58//41 56//41 81//41
f 81//41 56//41 54//41
f 81//41 54//41 106//41
f 106//41 54//41 52//41
f 106//41 52//41 107//41
f 107//41 52//41 50//41
f 107//41 50//41 108//41
f 108//41 50//41 48//41
f 108//41 48//41 109//41
f 109//41 48//41 46//41
f 109//41 46//41 110//41
f 110//41 46//41 44//41
f 110//41 44//41 111//41
f 111//41 44//41 42//41
f 111//41 42//41 112//41
f 112//41 42//41 40//41
f 112//41 40//41 113//41
f 113//41 40//41 38//41
f 113//41 38//41 114//41
f 114//41 38//41 36//41
f 114//41 36//41 115//41
f 115//41 36//41 34//41
f 115//41 34//41 116//41
f 116//41 34//41 32//41
f 116//41 32//41 94//41
f 94//41 32//41 30//41
f 94//41 30//41 28//41
f 3//42 4//42 117//42
f 77//42 79//42 117//42
f 117//42 79//42 80//42
f 117//42 80//42 3//42
f 71//42 73//42 117//42
f 117//42 73//42 75//42
f 117//42 75//42 77//42
f 65//42 67//42 117//42
f 117//42 67//42 69//42
f 117//42 69//42 71//42
f 59//42 61//42 117//42
f 117//42 61//42 63//42
f 117//42 63//42 65//42
f 53//42 55//42 117//42
f 117//42 55//42 57//42
f 117//42 57//42 59//42
f 47//42 49//42 117//42
f 117//42 49//42 51//42
f 117//42 51//42 53//42
f 41//42 43//42 117//42
f 117//42 43//42 45//42
f 117//42 45//42 47//42
f 35//42 37//42 117//42
f 117//42 37//42 39//42
f 117//42 39//42 41//42
f 29//42 31//42 117//42
f 117//42 31//42 33//42
f 117//42 33//42 35//42
f 23//42 25//42 117//42
f 117//42 25//42 27//42
f 117//42 27//42 29//42
f 17//42 19//42 117//42
f 117//42 19//42 21//42
f 117//42 21//42 23//42
f 11//42 13//42 117//42
f 117//42 13//42 15//42
f 117//42 15//42 17//42
f 4//42 7//42 117//42
f 117//42 7//42 9//42
f 117//42 9//42 11//42
f 118//43 93//43 119//43
f 119//43 93//43 92//43
f 119//44 92//44 120//44
f 120//44 92//44 91//44
f 120//45 91//45 121//45
f 121//45 91//45 90//45
f 121//46 90//46 122//46
f 122//46 90//46 89//46
f 122//47 89//47 123//47
f 123//47 89//47 88//47
f 123//48 88//48 124//48
f 124//48 88//48 87//48
f 124//49 87//49 125//49
f 125//49 87//49 86//49
f 125//50 86//50 126//50
f 126//50 86//50 85//50
f 126//51 85//51 127//51
f 127//51 85//51 84//51
f 127//52 84//52 128//52
f 128//52 84//52 83//52
f 128//53 83//53 129//53
f 129//53 83//53 82//53
f 129//54 82//54 130//54
f 130//54 82//54 81//54
f 130//55 81//55 131//55
f 131//55 81//55 106//55
f 131//56 106//56 132//56
f 132//56 106//56 107//56
f 132//57 107//57 133//57
f 133//57 107//57 108//57
f 133//58 108//58 134//58
f 134//58 108//58 109//58
f 134//59 109//59 135//59
f 135//59 109//59 110//59
f 135//60 110//60 136//60
f 136//60 110//60 111//60
f 136//61 111//61 137//61
f 137//61 111//61 112//61
f 137//62 112//62 138//62
f 138//62 112//62 113//62
f 138//63 113//63 139//63
f 139//63 113//63 114//63
f 139//64 114//64 140//64
f 140//64 114//64 115//64
f 140//65 115//65 141//65
f 141//65 115//65 116//65
f 141//66 116//66 142//66
f 142//66 116//66 94//66
f 142//67 94//67 143//67
f 143//67 94//67 95//67
f 143//68 95//68 144//68
f 144//68 95//68 96//68
f 144//69 96//69 145//69
f 145//69 96//69 97//69
f 145//70 97//70 146//70
f 146//70 97//70 98//70
f 146//71 98//71 147//71
f 147//71 98//71 99//71
f 147//72 99//72 148//72
f 148//72 99//72 100//72
f 148//73 100//73 149//73
f 149//73 100//73 101//73
f 149//74 101//74 150//74
f 150//74 101//74 102//74
f 150//75 102//75 151//75
f 151//75 102//75 103//75
f 151//76 103//76 152//76
f 152//76 103//76 104//76
f 152//77 104//77 153//77
f 153//77 104//77 105//77
f 153//78 105//78 118//78
f 118//78 105//78 93//78
f 154//41 137//41 155//41
f 155//41 137//41 138//41
f 155//41 138//41 156//41
f 157//41 152//41 158//41
f 158//41 152//41 153//41
f 158//41 153//41 159//41
f 160//41 149//41 161//41
f 161//41 149//41 150//41
f 161//41 150//41 157//41
f 157//41 150//41 151//41
f 157//41 151//41 152//41
f 162//41 146//41 163//41
f 163//41 146//41 147//41
f 163//41 147//41 160//41
f 160//41 147//41 148//41
f 160//41 148//41 149//41
f 164//41 143//41 165//41
f 165//41 143//41 144//41
f 165//41 144//41 162//41
f 162//41 144//41 145//41
f 162//41 145//41 146//41
f 138//41 139//41 156//41
f 156//41 139//41 140//41
f 156//41 140//41 166//41
f 166//41 140//41 141//41
f 166//41 141//41 164//41
f 164//41 141//41 142//41
f 164//41 142//41 143//41
f 167//41 134//41 168//41
f 168//41 134//41 135//41
f 168//41 135//41 154//41
f 154//41 135//41 136//41
f 154//41 136//41 137//41
f 169//41 131//41 170//41
f 170//41 131//41 132//41
f 170//41 132//41 167//41
f 167//41 132//41 133//41
f 167//41 133//41 134//41
f 171//41 128//41 172//41
f 172//41 128//41 129//41
f 172//41 129//41 169//41
f 169//41 129//41 130//41
f 169//41 130//41 131//41
f 173//41 125//41 174//41
f 174//41 125//41 126//41
f 174//41 126//41 171//41
f 171//41 126//41 127//41
f 171//41 127//41 128//41
f 175//41 122//41 176//41
f 176//41 122//41 123//41
f 176//41 123//41 173//41
f 173//41 123//41 124//41
f 173//41 124//41 125//41
f 153//41 118//41 159//41
f 159//41 118//41 119//41
f 159//41 119//41 177//41
f 177//41 119//41 120//41
f 177//41 120//41 175//41
f 175//41 120//41 121//41
f 175//41 121//41 122//41
f 154//79 178//79 168//79
f 168//80 178//80 179//80
f 168//80 179//80 167//80
f 167//81 179//81 180//81
f 167//81 180//81 170//81
f 170//82 180//82 181//82
f 170//82 181//82 169//82
f 169//83 181//83 182//83
f 169//83 182//83 172//83
f 172//84 182//84 183//84
f 172//84 183//84 171//84
f 171//85 183//85 184//85
f 171//85 184//85 174//85
f 174//86 184//86 185//86
f 174//86 185//86 173//86
f 173//87 185//87 186//87
f 173//87 186//87 176//87
f 176//88 186//88 187//88
f 176//88 187//88 175//88
f 175//89 187//89 188//89
f 175//89 188//89 177//89
f 177//90 188//90 189//90
f 177//90 189//90 159//90
f 159//91 189//91 190//91
f 159//91 190//91 158//91
f 158//92 190//92 191//92
f 158//92 191//92 157//92
f 157//93 191//93 192//93
f 157//93 192//93 161//93
f 161//94 192//94 193//94
f 161//94 193//94 160//94
f 160//95 193//95 194//95
f 160//95 194//95 163//95
f 163//96 194//96 195//96
f 163//96 195//96 162//96
f 162//97 195//97 196//97
f 162//97 196//97 165//97
f 165//98 196//98 197//98
f 165//98 197//98 164//98
f 164//99 197//99 198//99
f 164//99 198//99 166//99
f 166//100 198//100 199//100
f 166//100 199//100 156//100
f 156//101 199//101 200//101
f 156//101 200//101 155//101
f 155//102 200//102 201//102
f 155//102 201//102 154//102
f 154//79 201//79 178//79
f 191//41 190//41 202//41
f 202//41 190//41 189//41
f 202//41 189//41 188//41
f 194//41 193//41 202//41
f 202//41 193//41 192//41
f 202//41 192//41 191//41
f 197//41 196//41 202//41
f 202//41 196//41 195//41
f 202//41 195//41 194//41
f 200//41 199//41 202//41
f 202//41 199//41 198//41
f 202//41 198//41 197//41
f 179//41 178//41 202//41
f 202//41 178//41 201//41
f 202//41 201//41 200//41
f 182//41 181//41 202//41
f 202//41 181//41 180//41
f 202//41 180//41 179//41
f 185//41 184//41 202//41
f 202//41 184//41 183//41
f 202//41 183//41 182//41
f 188//41 187//41 202//41
f 202//41 187//41 186//41
f 202//41 186//41 185//41
