# https://github.com/mikedh/trimesh
v 79.87029300 43.21866200 10.00000000
v 80.00000000 40.00000000 10.00000000
v 80.00000000 40.00000000 0.00000000
v 79.87029300 36.78133800 0.00000000
v 79.87029300 36.78133800 10.00000000
v 78.83766900 30.42737200 10.00000000
v 78.83766900 30.42737200 0.00000000
v 76.79917900 24.32133500 10.00000000
v 76.79917900 24.32133500 0.00000000
v 73.80760200 18.62136700 10.00000000
v 73.80760200 18.62136700 0.00000000
v 69.94043000 13.47509200 10.00000000
v 69.94043000 13.47509200 0.00000000
v 65.29781300 9.01580000 10.00000000
v 65.29781300 9.01580000 0.00000000
v 60.00000000 5.35898300 10.00000000
v 60.00000000 5.35898300 0.00000000
v 54.18419600 2.59935100 10.00000000
v 54.18419600 2.59935100 0.00000000
v 48.00102600 0.80837300 10.00000000
v 48.00102600 0.80837300 0.00000000
v 41.61063800 0.03244000 10.00000000
v 41.61063800 0.03244000 0.00000000
v 35.17853200 0.29164600 10.00000000
v 35.17853200 0.29164600 0.00000000
v 28.87130000 1.57927300 10.00000000
v 28.87130000 1.57927300 0.00000000
v 22.85229700 3.86198200 10.00000000
v 22.85229700 3.86198200 0.00000000
v 17.27740900 7.08064500 10.00000000
v 17.27740900 7.08064500 0.00000000
v 12.29102500 11.15190000 10.00000000
v 12.29102500 11.15190000 0.00000000
v 8.02228900 15.97030800 10.00000000
v 8.02228900 15.97030800 0.00000000
v 4.58175700 21.41107200 10.00000000
v 4.58175700 21.41107200 0.00000000
v 2.05854300 27.33327900 10.00000000
v 2.05854300 27.33327900 0.00000000
v 0.51799000 33.58354900 10.00000000
v 0.51799000 33.58354900 0.00000000
v 0.00000000 40.00000000 10.00000000
v 0.00000000 40.00000000 0.00000000
v 0.51799000 46.41645100 10.00000000
v 0.51799000 46.41645100 0.00000000
v 2.05854300 52.66671800 10.00000000
v 2.05854300 52.66671800 0.00000000
v 4.58175700 58.58892400 10.00000000
v 4.58175700 58.58892400 0.00000000
v 8.02228900 64.02969400 10.00000000
v 8.02228900 64.02969400 0.00000000
v 12.29102500 68.84809900 10.00000000
v 12.29102500 68.84809900 0.00000000
v 17.27740900 72.91935700 10.00000000
v 17.27740900 72.91935700 0.00000000
v 22.85229700 76.13801600 10.00000000
v 22.85229700 76.13801600 0.00000000
v 28.87130000 78.42072300 10.00000000
v 28.87130000 78.42072300 0.00000000
v 35.17853200 79.70835100 10.00000000
v 35.17853200 79.70835100 0.00000000
v 41.61063800 79.96756000 10.00000000
v 41.61063800 79.96756000 0.00000000
v 48.00102600 79.19162800 10.00000000
v 48.00102600 79.19162800 0.00000000
v 54.18419600 77.40065000 10.00000000
v 54.18419600 77.40065000 0.00000000
v 60.00000000 74.64101400 10.00000000
v 60.00000000 74.64101400 0.00000000
v 65.29781300 70.98420000 10.00000000
v 65.29781300 70.98420000 0.00000000
v 69.94043000 66.52490200 10.00000000
v 69.94043000 66.52490200 0.00000000
v 73.80760200 61.37863200 10.00000000
v 73.80760200 61.37863200 0.00000000
v 76.79917900 55.67866500 10.00000000
v 76.79917900 55.67866500 0.00000000
v 78.83766900 49.57262800 10.00000000
v 78.83766900 49.57262800 0.00000000
v 79.87029300 43.21866200 0.00000000
f 77 74 76
f 77 74 75
f 40 41 43
f 40 43 42
f 4 5 2
f 4 3 2
f 4 5 6
f 4 7 6
f 9 10 8
f 9 10 11
f 9 6 8
f 9 7 6
f 80 1 2
f 80 3 2
f 73 74 72
f 73 74 75
f 70 73 71
f 70 73 72
f 65 64 66
f 65 66 67
f 65 64 62
f 65 63 62
f 28 29 27
f 28 27 26
f 31 30 32
f 31 32 33
f 31 28 30
f 31 28 29
f 24 25 27
f 24 27 26
f 23 24 22
f 23 24 25
f 17 18 16
f 17 18 19
f 17 14 16
f 17 15 14
f 13 10 12
f 13 10 11
f 13 14 12
f 13 15 14
f 35 34 32
f 35 32 33
f 35 34 36
f 35 37 36
f 79 78 76
f 79 77 76
f 79 1 78
f 79 80 1
f 60 63 62
f 60 61 63
f 60 61 59
f 60 58 59
f 54 55 53
f 54 52 53
f 21 18 20
f 21 18 19
f 21 20 22
f 21 23 22
f 39 40 41
f 39 38 40
f 39 37 36
f 39 38 36
f 51 50 52
f 51 52 53
f 51 50 48
f 51 49 48
f 45 43 42
f 45 44 42
f 68 66 67
f 68 69 67
f 68 70 71
f 68 69 71
f 56 30 32
f 56 10 12
f 56 50 52
f 56 28 26
f 56 5 2
f 56 18 16
f 56 14 12
f 56 1 2
f 56 74 72
f 56 34 32
f 56 20 22
f 56 64 62
f 56 6 8
f 56 78 76
f 56 40 42
f 56 34 36
f 56 70 72
f 56 44 42
f 56 14 16
f 56 10 8
f 56 38 36
f 56 5 6
f 56 1 78
f 56 74 76
f 56 64 66
f 56 60 62
f 56 18 20
f 56 24 22
f 56 46 48
f 56 28 30
f 56 24 26
f 56 38 40
f 56 50 48
f 56 54 52
f 56 60 58
f 56 68 66
f 56 46 44
f 56 68 70
f 56 58 59
f 56 57 59
f 56 57 55
f 56 54 55
f 47 61 59
f 47 73 75
f 47 23 25
f 47 79 77
f 47 31 33
f 47 13 11
f 47 39 41
f 47 77 75
f 47 55 53
f 47 41 43
f 47 4 3
f 47 80 3
f 47 9 11
f 47 65 67
f 47 29 27
f 47 25 27
f 47 17 19
f 47 21 19
f 47 51 53
f 47 4 7
f 47 9 7
f 47 35 33
f 47 73 71
f 47 65 63
f 47 61 63
f 47 69 67
f 47 31 29
f 47 57 59
f 47 17 15
f 47 13 15
f 47 35 37
f 47 79 80
f 47 69 71
f 47 57 55
f 47 21 23
f 47 39 37
f 47 51 49
f 47 45 43
f 47 49 48
f 47 46 48
f 47 46 44
f 47 45 44

