# Blender 4.4.0
# www.blender.org
mtllib Kf2a.mtl
o Kf2a
v 78.729836 50.000000 10.000000
v 78.729836 50.000000 0.000000
v 76.559982 56.228600 0.000000
v 76.559982 56.228600 10.000000
v 73.396080 62.015945 0.000000
v 73.396080 62.015945 10.000000
v 69.324135 67.204681 0.000000
v 69.324135 67.204681 10.000000
v 64.454880 71.653732 0.000000
v 64.454880 71.653732 10.000000
v 58.920700 75.242119 0.000000
v 58.920700 75.242119 10.000000
v 52.872066 77.872284 0.000000
v 52.872066 77.872284 10.000000
v 46.473446 79.472702 0.000000
v 46.473446 79.472702 10.000000
v 39.898815 79.999870 0.000000
v 39.898815 79.999870 10.000000
v 33.326935 79.439453 0.000000
v 33.326935 79.439453 10.000000
v 26.936493 77.806671 0.000000
v 26.936493 77.806671 10.000000
v 20.901243 75.145943 0.000000
v 20.901243 75.145943 10.000000
v 15.385289 71.529602 0.000000
v 15.385289 71.529602 10.000000
v 10.538602 67.055977 0.000000
v 10.538602 67.055977 10.000000
v 6.492965 61.846706 0.000000
v 6.492965 61.846706 10.000000
v 3.358379 56.043427 0.000000
v 3.358379 56.043427 10.000000
v 1.220070 49.803932 0.000000
v 1.220070 49.803932 10.000000
v 0.136182 43.297867 0.000000
v 0.136182 43.297867 10.000000
v 0.136182 36.702133 0.000000
v 0.136182 36.702133 10.000000
v 1.220070 30.196068 0.000000
v 1.220070 30.196068 10.000000
v 3.358379 23.956572 0.000000
v 3.358379 23.956572 10.000000
v 6.492965 18.153292 0.000000
v 6.492965 18.153292 10.000000
v 10.538602 12.944018 0.000000
v 10.538602 12.944018 10.000000
v 15.385289 8.470394 0.000000
v 15.385289 8.470394 10.000000
v 20.901243 4.854053 0.000000
v 20.901243 4.854053 10.000000
v 26.936493 2.193324 0.000000
v 26.936493 2.193324 10.000000
v 33.326935 0.560548 0.000000
v 33.326935 0.560548 10.000000
v 39.898815 0.000127 0.000000
v 39.898815 0.000127 10.000000
v 46.473446 0.527292 0.000000
v 46.473446 0.527292 10.000000
v 52.872066 2.127714 0.000000
v 52.872066 2.127714 10.000000
v 58.920700 4.757877 0.000000
v 58.920700 4.757877 10.000000
v 64.454880 8.346267 0.000000
v 64.454880 8.346267 10.000000
v 69.324135 12.795314 0.000000
v 69.324135 12.795314 10.000000
v 73.396080 17.984051 0.000000
v 73.396080 17.984051 10.000000
v 76.559982 23.771400 0.000000
v 76.559982 23.771400 10.000000
v 78.729836 30.000000 0.000000
v 78.729836 30.000000 10.000000
v 90.000000 30.000000 10.000000
v 90.000000 50.000000 10.000000
v 90.000000 50.000000 0.000000
v 90.000000 30.000000 0.000000
vn 0.9443 0.3290 -0.0000
vn 0.8774 0.4797 -0.0000
vn 0.7867 0.6174 -0.0000
vn 0.6745 0.7382 -0.0000
vn 0.5440 0.8391 -0.0000
vn 0.3988 0.9171 -0.0000
vn 0.2426 0.9701 -0.0000
vn 0.0799 0.9968 -0.0000
vn -0.0850 0.9964 -0.0000
vn -0.2476 0.9689 -0.0000
vn -0.4034 0.9150 -0.0000
vn -0.5483 0.8363 -0.0000
vn -0.6783 0.7348 -0.0000
vn -0.7898 0.6134 -0.0000
vn -0.8799 0.4752 -0.0000
vn -0.9460 0.3242 -0.0000
vn -0.9864 0.1643 -0.0000
vn -1.0000 -0.0000 -0.0000
vn -0.9864 -0.1643 -0.0000
vn -0.9460 -0.3242 -0.0000
vn -0.8799 -0.4752 -0.0000
vn -0.7898 -0.6134 -0.0000
vn -0.6783 -0.7348 -0.0000
vn -0.5483 -0.8363 -0.0000
vn -0.4034 -0.9150 -0.0000
vn -0.2476 -0.9689 -0.0000
vn -0.0850 -0.9964 -0.0000
vn 0.0799 -0.9968 -0.0000
vn 0.2426 -0.9701 -0.0000
vn 0.3988 -0.9171 -0.0000
vn 0.5440 -0.8391 -0.0000
vn 0.6745 -0.7382 -0.0000
vn 0.7867 -0.6174 -0.0000
vn 0.8774 -0.4797 -0.0000
vn 0.9443 -0.3290 -0.0000
vn -0.0000 -0.0000 1.0000
vn -0.0000 -0.0000 -1.0000
vn -0.0000 1.0000 -0.0000
vn -0.0000 -1.0000 -0.0000
vn 1.0000 -0.0000 -0.0000
s 0
f 1//1 2//1 3//1
f 1//1 3//1 4//1
f 4//2 3//2 5//2
f 4//2 5//2 6//2
f 6//3 5//3 7//3
f 6//3 7//3 8//3
f 8//4 7//4 9//4
f 8//4 9//4 10//4
f 10//5 9//5 11//5
f 10//5 11//5 12//5
f 12//6 11//6 13//6
f 12//6 13//6 14//6
f 14//7 13//7 15//7
f 14//7 15//7 16//7
f 16//8 15//8 17//8
f 16//8 17//8 18//8
f 18//9 17//9 19//9
f 18//9 19//9 20//9
f 20//10 19//10 21//10
f 20//10 21//10 22//10
f 22//11 21//11 23//11
f 22//11 23//11 24//11
f 24//12 23//12 25//12
f 24//12 25//12 26//12
f 26//13 25//13 27//13
f 26//13 27//13 28//13
f 28//14 27//14 29//14
f 28//14 29//14 30//14
f 30//15 29//15 31//15
f 30//15 31//15 32//15
f 32//16 31//16 33//16
f 32//16 33//16 34//16
f 34//17 33//17 35//17
f 34//17 35//17 36//17
f 36//18 35//18 37//18
f 36//18 37//18 38//18
f 38//19 37//19 39//19
f 38//19 39//19 40//19
f 40//20 39//20 41//20
f 40//20 41//20 42//20
f 42//21 41//21 43//21
f 42//21 43//21 44//21
f 44//22 43//22 45//22
f 44//22 45//22 46//22
f 46//23 45//23 47//23
f 46//23 47//23 48//23
f 48//24 47//24 49//24
f 48//24 49//24 50//24
f 50//25 49//25 51//25
f 50//25 51//25 52//25
f 52//26 51//26 53//26
f 52//26 53//26 54//26
f 54//27 53//27 55//27
f 54//27 55//27 56//27
f 56//28 55//28 57//28
f 56//28 57//28 58//28
f 58//29 57//29 59//29
f 58//29 59//29 60//29
f 60//30 59//30 61//30
f 60//30 61//30 62//30
f 62//31 61//31 63//31
f 62//31 63//31 64//31
f 64//32 63//32 65//32
f 64//32 65//32 66//32
f 66//33 65//33 67//33
f 66//33 67//33 68//33
f 68//34 67//34 69//34
f 68//34 69//34 70//34
f 70//35 69//35 71//35
f 70//35 71//35 72//35
f 52//36 54//36 30//36
f 30//36 54//36 28//36
f 16//36 64//36 66//36
f 66//36 68//36 16//36
f 16//36 68//36 70//36
f 16//36 70//36 72//36
f 73//36 74//36 72//36
f 72//36 74//36 1//36
f 72//36 1//36 4//36
f 18//36 20//36 54//36
f 54//36 20//36 22//36
f 18//36 54//36 16//36
f 16//36 54//36 56//36
f 16//36 56//36 58//36
f 58//36 60//36 16//36
f 16//36 60//36 62//36
f 16//36 62//36 64//36
f 4//36 6//36 72//36
f 72//36 6//36 8//36
f 72//36 8//36 10//36
f 10//36 12//36 72//36
f 72//36 12//36 14//36
f 72//36 14//36 16//36
f 22//36 24//36 54//36
f 54//36 24//36 26//36
f 54//36 26//36 28//36
f 34//36 36//36 38//36
f 38//36 40//36 34//36
f 34//36 40//36 42//36
f 34//36 42//36 32//36
f 32//36 42//36 30//36
f 30//36 42//36 44//36
f 30//36 44//36 46//36
f 46//36 48//36 30//36
f 30//36 48//36 50//36
f 30//36 50//36 52//36
f 75//37 76//37 2//37
f 2//37 76//37 71//37
f 13//37 71//37 15//37
f 15//37 71//37 69//37
f 51//37 49//37 15//37
f 31//37 29//37 15//37
f 13//37 11//37 71//37
f 71//37 11//37 9//37
f 71//37 9//37 7//37
f 69//37 67//37 15//37
f 15//37 67//37 65//37
f 15//37 65//37 63//37
f 63//37 61//37 15//37
f 15//37 61//37 59//37
f 15//37 59//37 57//37
f 49//37 47//37 15//37
f 15//37 47//37 45//37
f 15//37 45//37 43//37
f 7//37 5//37 71//37
f 71//37 5//37 3//37
f 71//37 3//37 2//37
f 57//37 55//37 15//37
f 15//37 55//37 53//37
f 15//37 53//37 51//37
f 43//37 41//37 15//37
f 15//37 41//37 39//37
f 15//37 39//37 37//37
f 37//37 35//37 15//37
f 15//37 35//37 33//37
f 15//37 33//37 31//37
f 27//37 19//37 29//37
f 29//37 19//37 17//37
f 29//37 17//37 15//37
f 27//37 25//37 19//37
f 19//37 25//37 23//37
f 19//37 23//37 21//37
f 1//38 74//38 2//38
f 2//38 74//38 75//38
f 71//39 76//39 72//39
f 72//39 76//39 73//39
f 76//40 75//40 73//40
f 73//40 75//40 74//40
