# https://github.com/mikedh/trimesh
v 64.45488000 71.65373200 0.00000000
v 64.45488000 71.65373200 10.00000000
v 58.92070000 75.24211900 0.00000000
v 58.92070000 75.24211900 10.00000000
v 52.87206600 77.87228400 0.00000000
v 52.87206600 77.87228400 10.00000000
v 46.47344600 79.47270200 0.00000000
v 46.47344600 79.47270200 10.00000000
v 39.89881500 79.99987000 0.00000000
v 39.89881500 79.99987000 10.00000000
v 33.32693500 79.43945300 0.00000000
v 33.32693500 79.43945300 10.00000000
v 26.93649300 77.80667100 0.00000000
v 26.93649300 77.80667100 10.00000000
v 20.90124300 75.14594300 0.00000000
v 20.90124300 75.14594300 10.00000000
v 15.38528900 71.52960200 0.00000000
v 15.38528900 71.52960200 10.00000000
v 10.53860200 67.05597700 0.00000000
v 10.53860200 67.05597700 10.00000000
v 6.49296500 61.84670600 0.00000000
v 6.49296500 61.84670600 10.00000000
v 3.35837900 56.04342700 0.00000000
v 3.35837900 56.04342700 10.00000000
v 1.22007000 49.80393200 0.00000000
v 1.22007000 49.80393200 10.00000000
v 0.13618200 43.29786700 0.00000000
v 0.13618200 43.29786700 10.00000000
v 0.13618200 36.70213300 0.00000000
v 0.13618200 36.70213300 10.00000000
v 1.22007000 30.19606800 0.00000000
v 1.22007000 30.19606800 10.00000000
v 3.35837900 23.95657200 0.00000000
v 3.35837900 23.95657200 10.00000000
v 6.49296500 18.15329200 0.00000000
v 6.49296500 18.15329200 10.00000000
v 10.53860200 12.94401800 0.00000000
v 10.53860200 12.94401800 10.00000000
v 15.38528900 8.47039400 0.00000000
v 15.38528900 8.47039400 10.00000000
v 20.90124300 4.85405300 0.00000000
v 20.90124300 4.85405300 10.00000000
v 26.93649300 2.19332400 0.00000000
v 26.93649300 2.19332400 10.00000000
v 33.32693500 0.56054800 0.00000000
v 33.32693500 0.56054800 10.00000000
v 39.89881500 0.00012700 0.00000000
v 39.89881500 0.00012700 10.00000000
v 46.47344600 0.52729200 0.00000000
v 46.47344600 0.52729200 10.00000000
v 52.87206600 2.12771400 0.00000000
v 52.87206600 2.12771400 10.00000000
v 58.92070000 4.75787700 0.00000000
v 58.92070000 4.75787700 10.00000000
v 64.45488000 8.34626700 0.00000000
v 64.45488000 8.34626700 10.00000000
v 90.00000000 30.00000000 10.00000000
v 90.00000000 50.00000000 10.00000000
v 90.00000000 50.00000000 0.00000000
v 90.00000000 30.00000000 0.00000000
f 58 60 59
f 58 60 57
f 10 11 9
f 10 11 12
f 7 10 8
f 7 10 9
f 18 17 19
f 18 19 20
f 18 17 15
f 18 16 15
f 2 1 3
f 2 3 4
f 2 58 59
f 2 1 59
f 22 21 19
f 22 19 20
f 14 11 12
f 14 13 11
f 14 16 15
f 14 13 15
f 48 45 47
f 48 45 46
f 49 48 50
f 49 48 47
f 49 50 52
f 49 51 52
f 56 60 57
f 56 55 60
f 40 39 41
f 40 41 42
f 40 39 37
f 40 38 37
f 36 37 35
f 36 38 37
f 28 25 27
f 28 25 26
f 24 25 23
f 24 25 26
f 24 21 23
f 24 22 21
f 6 3 4
f 6 5 3
f 6 7 8
f 6 5 7
f 43 44 42
f 43 41 42
f 43 45 46
f 43 44 46
f 53 1 59
f 53 17 19
f 53 37 35
f 53 33 35
f 53 39 41
f 53 60 59
f 53 13 15
f 53 21 19
f 53 11 9
f 53 5 3
f 53 21 23
f 53 17 15
f 53 7 9
f 53 1 3
f 53 45 47
f 53 55 60
f 53 29 27
f 53 25 27
f 53 13 11
f 53 49 47
f 53 43 41
f 53 39 37
f 53 29 31
f 53 33 31
f 53 25 23
f 53 5 7
f 53 49 51
f 53 43 45
f 34 33 31
f 34 31 32
f 34 33 35
f 34 36 35
f 30 29 31
f 30 31 32
f 30 29 27
f 30 28 27
f 54 58 57
f 54 24 26
f 54 44 42
f 54 48 46
f 54 18 20
f 54 10 12
f 54 50 52
f 54 56 57
f 54 22 20
f 54 2 4
f 54 6 4
f 54 10 8
f 54 18 16
f 54 2 58
f 54 14 12
f 54 40 42
f 54 34 32
f 54 14 16
f 54 48 50
f 54 44 46
f 54 30 32
f 54 40 38
f 54 36 38
f 54 28 26
f 54 24 22
f 54 6 8
f 54 34 36
f 54 30 28
f 54 51 52
f 54 53 51
f 54 56 55
f 54 53 55

