# Blender 4.4.0
# www.blender.org
mtllib Kf4i.mtl
o Kf4i
v 79.870293 43.218662 10.000000
v 80.000000 40.000000 10.000000
v 80.000000 40.000000 0.000000
v 79.870293 36.781338 0.000000
v 79.870293 36.781338 10.000000
v 78.837669 30.427372 10.000000
v 78.837669 30.427372 0.000000
v 76.799179 24.321335 10.000000
v 76.799179 24.321335 0.000000
v 73.807602 18.621367 10.000000
v 73.807602 18.621367 0.000000
v 69.940430 13.475092 10.000000
v 69.940430 13.475092 0.000000
v 65.297813 9.015800 10.000000
v 65.297813 9.015800 0.000000
v 60.000000 5.358983 10.000000
v 60.000000 5.358983 0.000000
v 54.184196 2.599351 10.000000
v 54.184196 2.599351 0.000000
v 48.001026 0.808373 10.000000
v 48.001026 0.808373 0.000000
v 41.610638 0.032440 10.000000
v 41.610638 0.032440 0.000000
v 35.178532 0.291646 10.000000
v 35.178532 0.291646 0.000000
v 28.871300 1.579273 10.000000
v 28.871300 1.579273 0.000000
v 22.852297 3.861982 10.000000
v 22.852297 3.861982 0.000000
v 17.277409 7.080645 10.000000
v 17.277409 7.080645 0.000000
v 12.291025 11.151900 10.000000
v 12.291025 11.151900 0.000000
v 8.022289 15.970308 10.000000
v 8.022289 15.970308 0.000000
v 4.581757 21.411072 10.000000
v 4.581757 21.411072 0.000000
v 2.058543 27.333279 10.000000
v 2.058543 27.333279 0.000000
v 0.517990 33.583549 10.000000
v 0.517990 33.583549 0.000000
v 0.000000 40.000000 10.000000
v 0.000000 40.000000 0.000000
v 0.517990 46.416451 10.000000
v 0.517990 46.416451 0.000000
v 2.058543 52.666718 10.000000
v 2.058543 52.666718 0.000000
v 4.581757 58.588924 10.000000
v 4.581757 58.588924 0.000000
v 8.022289 64.029694 10.000000
v 8.022289 64.029694 0.000000
v 12.291025 68.848099 10.000000
v 12.291025 68.848099 0.000000
v 17.277409 72.919357 10.000000
v 17.277409 72.919357 0.000000
v 22.852297 76.138016 10.000000
v 22.852297 76.138016 0.000000
v 28.871300 78.420723 10.000000
v 28.871300 78.420723 0.000000
v 35.178532 79.708351 10.000000
v 35.178532 79.708351 0.000000
v 41.610638 79.967560 10.000000
v 41.610638 79.967560 0.000000
v 48.001026 79.191628 10.000000
v 48.001026 79.191628 0.000000
v 54.184196 77.400650 10.000000
v 54.184196 77.400650 0.000000
v 60.000000 74.641014 10.000000
v 60.000000 74.641014 0.000000
v 65.297813 70.984200 10.000000
v 65.297813 70.984200 0.000000
v 69.940430 66.524902 10.000000
v 69.940430 66.524902 0.000000
v 73.807602 61.378632 10.000000
v 73.807602 61.378632 0.000000
v 76.799179 55.678665 10.000000
v 76.799179 55.678665 0.000000
v 78.837669 49.572628 10.000000
v 78.837669 49.572628 0.000000
v 79.870293 43.218662 0.000000
v 22.499998 70.310890 10.000000
v 28.029293 72.889244 10.000000
v 33.922314 74.468269 10.000000
v 40.000000 75.000000 10.000000
v 46.077686 74.468269 10.000000
v 51.970703 72.889244 10.000000
v 57.500000 70.310890 10.000000
v 62.497566 66.811554 10.000000
v 66.811554 62.497566 10.000000
v 70.310890 57.500000 10.000000
v 72.889244 51.970703 10.000000
v 74.468269 46.077686 10.000000
v 75.000000 40.000000 10.000000
v 22.499998 9.689110 10.000000
v 28.029293 7.110756 10.000000
v 33.922314 5.531728 10.000000
v 40.000000 4.999999 10.000000
v 46.077686 5.531728 10.000000
v 51.970703 7.110756 10.000000
v 57.500000 9.689110 10.000000
v 62.497566 13.188444 10.000000
v 66.811554 17.502432 10.000000
v 70.310890 22.499998 10.000000
v 72.889244 28.029293 10.000000
v 74.468269 33.922314 10.000000
v 17.502432 66.811554 10.000000
v 13.188444 62.497566 10.000000
v 9.689110 57.500000 10.000000
v 7.110756 51.970703 10.000000
v 5.531728 46.077686 10.000000
v 4.999999 40.000000 10.000000
v 5.531728 33.922314 10.000000
v 7.110756 28.029293 10.000000
v 9.689110 22.499998 10.000000
v 13.188444 17.502432 10.000000
v 17.502432 13.188444 10.000000
v 40.000000 72.500000 0.000000
v 19.109402 64.896446 0.000000
v 23.750000 68.145828 0.000000
v 28.884344 70.540009 0.000000
v 34.356434 72.006248 0.000000
v 40.000000 7.500000 0.000000
v 28.884344 9.459990 0.000000
v 23.750000 11.854174 0.000000
v 19.109402 15.103555 0.000000
v 15.103555 19.109402 0.000000
v 11.854174 23.750000 0.000000
v 9.459990 28.884344 0.000000
v 7.993747 34.356434 0.000000
v 7.500000 40.000000 0.000000
v 7.993747 45.643566 0.000000
v 9.459990 51.115654 0.000000
v 11.854174 56.250000 0.000000
v 15.103555 60.890594 0.000000
v 34.356434 7.993747 0.000000
v 75.000000 40.000000 5.000000
v 74.468269 46.077686 5.000000
v 72.889244 51.970703 5.000000
v 70.310890 57.500000 5.000000
v 66.811554 62.497566 5.000000
v 62.497566 66.811554 5.000000
v 57.500000 70.310890 5.000000
v 51.970703 72.889244 5.000000
v 46.077686 74.468269 5.000000
v 40.000000 75.000000 5.000000
v 33.922314 74.468269 5.000000
v 28.029293 72.889244 5.000000
v 22.499998 70.310890 5.000000
v 17.502432 66.811554 5.000000
v 13.188444 62.497566 5.000000
v 9.689110 57.500000 5.000000
v 7.110756 51.970703 5.000000
v 5.531728 46.077686 5.000000
v 4.999999 40.000000 5.000000
v 5.531728 33.922314 5.000000
v 7.110756 28.029293 5.000000
v 9.689110 22.499998 5.000000
v 13.188444 17.502432 5.000000
v 17.502432 13.188444 5.000000
v 22.499998 9.689110 5.000000
v 28.029293 7.110756 5.000000
v 33.922314 5.531728 5.000000
v 40.000000 4.999999 5.000000
v 46.077686 5.531728 5.000000
v 51.970703 7.110756 5.000000
v 57.500000 9.689110 5.000000
v 62.497566 13.188444 5.000000
v 66.811554 17.502432 5.000000
v 70.310890 22.499998 5.000000
v 72.889244 28.029293 5.000000
v 74.468269 33.922314 5.000000
v 40.000000 72.500000 5.000000
v 40.000000 7.500000 5.000000
v 34.356434 7.993747 5.000000
v 34.356434 72.006248 5.000000
v 28.884344 70.540009 5.000000
v 23.750000 68.145828 5.000000
v 19.109402 64.896446 5.000000
v 15.103555 60.890594 5.000000
v 11.854174 56.250000 5.000000
v 9.459990 51.115654 5.000000
v 7.993747 45.643566 5.000000
v 7.500000 40.000000 5.000000
v 7.993747 34.356434 5.000000
v 9.459990 28.884344 5.000000
v 11.854174 23.750000 5.000000
v 15.103555 19.109402 5.000000
v 19.109402 15.103555 5.000000
v 23.750000 11.854174 5.000000
v 28.884344 9.459990 5.000000
vn 0.9992 0.0403 -0.0000
vn 0.9992 -0.0403 -0.0000
vn 0.9871 -0.1604 -0.0000
vn 0.9485 -0.3167 -0.0000
vn 0.8855 -0.4647 -0.0000
vn 0.7994 -0.6007 -0.0000
vn 0.6927 -0.7212 -0.0000
vn 0.5681 -0.8230 -0.0000
vn 0.4287 -0.9035 -0.0000
vn 0.2782 -0.9605 -0.0000
vn 0.1205 -0.9927 -0.0000
vn -0.0403 -0.9992 -0.0000
vn -0.2000 -0.9798 -0.0000
vn -0.3546 -0.9350 -0.0000
vn -0.5000 -0.8660 -0.0000
vn -0.6324 -0.7746 -0.0000
vn -0.7485 -0.6631 -0.0000
vn -0.8452 -0.5345 -0.0000
vn -0.9200 -0.3920 -0.0000
vn -0.9709 -0.2393 -0.0000
vn -0.9968 -0.0805 -0.0000
vn -0.9968 0.0805 -0.0000
vn -0.9709 0.2393 -0.0000
vn -0.9200 0.3920 -0.0000
vn -0.8452 0.5345 -0.0000
vn -0.7485 0.6631 -0.0000
vn -0.6324 0.7746 -0.0000
vn -0.5000 0.8660 -0.0000
vn -0.3546 0.9350 -0.0000
vn -0.2000 0.9798 -0.0000
vn -0.0403 0.9992 -0.0000
vn 0.1205 0.9927 -0.0000
vn 0.2782 0.9605 -0.0000
vn 0.4287 0.9035 -0.0000
vn 0.5681 0.8230 -0.0000
vn 0.6927 0.7212 -0.0000
vn 0.7994 0.6007 -0.0000
vn 0.8855 0.4647 -0.0000
vn 0.9485 0.3167 -0.0000
vn 0.9871 0.1604 -0.0000
vn -0.0000 -0.0000 1.0000
vn -0.0000 -0.0000 -1.0000
vn -0.9962 -0.0872 -0.0000
vn -0.9659 -0.2588 -0.0000
vn -0.9063 -0.4226 -0.0000
vn -0.8192 -0.5736 -0.0000
vn -0.7071 -0.7071 -0.0000
vn -0.5736 -0.8192 -0.0000
vn -0.4226 -0.9063 -0.0000
vn -0.2588 -0.9659 -0.0000
vn -0.0872 -0.9962 -0.0000
vn 0.0872 -0.9962 -0.0000
vn 0.2588 -0.9659 -0.0000
vn 0.4226 -0.9063 -0.0000
vn 0.5736 -0.8192 -0.0000
vn 0.7071 -0.7071 -0.0000
vn 0.8192 -0.5736 -0.0000
vn 0.9063 -0.4226 -0.0000
vn 0.9659 -0.2588 -0.0000
vn 0.9962 -0.0872 -0.0000
vn 0.9962 0.0872 -0.0000
vn 0.9659 0.2588 -0.0000
vn 0.9063 0.4226 -0.0000
vn 0.8192 0.5736 -0.0000
vn 0.7071 0.7071 -0.0000
vn 0.5736 0.8192 -0.0000
vn 0.4226 0.9063 -0.0000
vn 0.2588 0.9659 -0.0000
vn 0.0872 0.9962 -0.0000
vn -0.0872 0.9962 -0.0000
vn -0.2588 0.9659 -0.0000
vn -0.4226 0.9063 -0.0000
vn -0.5736 0.8192 -0.0000
vn -0.7071 0.7071 -0.0000
vn -0.8192 0.5736 -0.0000
vn -0.9063 0.4226 -0.0000
vn -0.9659 0.2588 -0.0000
vn -0.9962 0.0872 -0.0000
vn -1.0000 -0.0000 -0.0000
s 0
f 1//1 2//1 3//1
f 3//2 2//2 4//2
f 2//2 5//2 4//2
f 4//3 5//3 6//3
f 4//3 6//3 7//3
f 7//4 6//4 8//4
f 7//4 8//4 9//4
f 9//5 8//5 10//5
f 9//5 10//5 11//5
f 11//6 10//6 12//6
f 11//6 12//6 13//6
f 13//7 12//7 14//7
f 13//7 14//7 15//7
f 15//8 14//8 16//8
f 15//8 16//8 17//8
f 17//9 16//9 18//9
f 17//9 18//9 19//9
f 19//10 18//10 20//10
f 19//10 20//10 21//10
f 21//11 20//11 22//11
f 21//11 22//11 23//11
f 23//12 22//12 24//12
f 23//12 24//12 25//12
f 25//13 24//13 26//13
f 25//13 26//13 27//13
f 27//14 26//14 28//14
f 27//14 28//14 29//14
f 29//15 28//15 30//15
f 29//15 30//15 31//15
f 31//16 30//16 32//16
f 31//16 32//16 33//16
f 33//17 32//17 34//17
f 33//17 34//17 35//17
f 35//18 34//18 36//18
f 35//18 36//18 37//18
f 37//19 36//19 38//19
f 37//19 38//19 39//19
f 39//20 38//20 40//20
f 39//20 40//20 41//20
f 41//21 40//21 42//21
f 41//21 42//21 43//21
f 43//22 42//22 44//22
f 43//22 44//22 45//22
f 45//23 44//23 46//23
f 45//23 46//23 47//23
f 47//24 46//24 48//24
f 47//24 48//24 49//24
f 49//25 48//25 50//25
f 49//25 50//25 51//25
f 51//26 50//26 52//26
f 51//26 52//26 53//26
f 53//27 52//27 54//27
f 53//27 54//27 55//27
f 55//28 54//28 56//28
f 55//28 56//28 57//28
f 57//29 56//29 58//29
f 57//29 58//29 59//29
f 59//30 58//30 60//30
f 59//30 60//30 61//30
f 61//31 60//31 62//31
f 61//31 62//31 63//31
f 63//32 62//32 64//32
f 63//32 64//32 65//32
f 65//33 64//33 66//33
f 65//33 66//33 67//33
f 67//34 66//34 68//34
f 67//34 68//34 69//34
f 69//35 68//35 70//35
f 69//35 70//35 71//35
f 71//36 70//36 72//36
f 71//36 72//36 73//36
f 73//37 72//37 74//37
f 73//37 74//37 75//37
f 75//38 74//38 76//38
f 75//38 76//38 77//38
f 77//39 76//39 78//39
f 77//39 78//39 79//39
f 79//40 78//40 1//40
f 79//40 1//40 80//40
f 80//1 1//1 3//1
f 81//41 82//41 58//41
f 58//41 82//41 60//41
f 60//41 82//41 83//41
f 60//41 83//41 62//41
f 62//41 83//41 84//41
f 62//41 84//41 64//41
f 64//41 84//41 85//41
f 64//41 85//41 66//41
f 66//41 85//41 86//41
f 66//41 86//41 68//41
f 68//41 86//41 87//41
f 68//41 87//41 70//41
f 70//41 87//41 88//41
f 70//41 88//41 72//41
f 72//41 88//41 89//41
f 72//41 89//41 74//41
f 74//41 89//41 90//41
f 74//41 90//41 76//41
f 76//41 90//41 91//41
f 76//41 91//41 78//41
f 78//41 91//41 92//41
f 78//41 92//41 1//41
f 1//41 92//41 93//41
f 1//41 93//41 2//41
f 94//41 28//41 95//41
f 95//41 28//41 26//41
f 95//41 26//41 96//41
f 96//41 26//41 24//41
f 96//41 24//41 97//41
f 97//41 24//41 22//41
f 97//41 22//41 98//41
f 98//41 22//41 20//41
f 98//41 20//41 99//41
f 99//41 20//41 18//41
f 99//41 18//41 100//41
f 100//41 18//41 16//41
f 100//41 16//41 101//41
f 101//41 16//41 14//41
f 101//41 14//41 102//41
f 102//41 14//41 12//41
f 102//41 12//41 103//41
f 103//41 12//41 10//41
f 103//41 10//41 104//41
f 104//41 10//41 8//41
f 104//41 8//41 105//41
f 105//41 8//41 6//41
f 105//41 6//41 93//41
f 93//41 6//41 5//41
f 93//41 5//41 2//41
f 58//41 56//41 81//41
f 81//41 56//41 54//41
f 81//41 54//41 106//41
f 106//41 54//41 52//41
f 106//41 52//41 107//41
f 107//41 52//41 50//41
f 107//41 50//41 108//41
f 108//41 50//41 48//41
f 108//41 48//41 109//41
f 109//41 48//41 46//41
f 109//41 46//41 110//41
f 110//41 46//41 44//41
f 110//41 44//41 111//41
f 111//41 44//41 42//41
f 111//41 42//41 112//41
f 112//41 42//41 40//41
f 112//41 40//41 113//41
f 113//41 40//41 38//41
f 113//41 38//41 114//41
f 114//41 38//41 36//41
f 114//41 36//41 115//41
f 115//41 36//41 34//41
f 115//41 34//41 116//41
f 116//41 34//41 32//41
f 116//41 32//41 94//41
f 94//41 32//41 30//41
f 94//41 30//41 28//41
f 80//42 3//42 117//42
f 118//42 55//42 119//42
f 119//42 55//42 57//42
f 119//42 57//42 120//42
f 120//42 57//42 59//42
f 120//42 59//42 121//42
f 67//42 69//42 117//42
f 59//42 61//42 121//42
f 121//42 61//42 63//42
f 121//42 63//42 117//42
f 117//42 63//42 65//42
f 117//42 65//42 67//42
f 15//42 17//42 117//42
f 117//42 17//42 19//42
f 117//42 19//42 122//42
f 123//42 29//42 124//42
f 124//42 29//42 31//42
f 124//42 31//42 125//42
f 125//42 31//42 33//42
f 125//42 33//42 126//42
f 126//42 33//42 35//42
f 126//42 35//42 127//42
f 127//42 35//42 37//42
f 127//42 37//42 128//42
f 128//42 37//42 39//42
f 128//42 39//42 129//42
f 129//42 39//42 41//42
f 129//42 41//42 130//42
f 130//42 41//42 43//42
f 130//42 43//42 131//42
f 131//42 43//42 45//42
f 131//42 45//42 132//42
f 132//42 45//42 47//42
f 132//42 47//42 133//42
f 133//42 47//42 49//42
f 133//42 49//42 134//42
f 134//42 49//42 51//42
f 134//42 51//42 118//42
f 118//42 51//42 53//42
f 118//42 53//42 55//42
f 19//42 21//42 122//42
f 122//42 21//42 23//42
f 122//42 23//42 135//42
f 135//42 23//42 25//42
f 135//42 25//42 123//42
f 123//42 25//42 27//42
f 123//42 27//42 29//42
f 69//42 71//42 117//42
f 117//42 71//42 73//42
f 117//42 73//42 75//42
f 3//42 4//42 117//42
f 117//42 4//42 7//42
f 117//42 7//42 9//42
f 75//42 77//42 117//42
f 117//42 77//42 79//42
f 117//42 79//42 80//42
f 9//42 11//42 117//42
f 117//42 11//42 13//42
f 117//42 13//42 15//42
f 136//43 93//43 137//43
f 137//43 93//43 92//43
f 137//44 92//44 138//44
f 138//44 92//44 91//44
f 138//45 91//45 139//45
f 139//45 91//45 90//45
f 139//46 90//46 140//46
f 140//46 90//46 89//46
f 140//47 89//47 141//47
f 141//47 89//47 88//47
f 141//48 88//48 142//48
f 142//48 88//48 87//48
f 142//49 87//49 143//49
f 143//49 87//49 86//49
f 143//50 86//50 144//50
f 144//50 86//50 85//50
f 144//51 85//51 145//51
f 145//51 85//51 84//51
f 145//52 84//52 146//52
f 146//52 84//52 83//52
f 146//53 83//53 147//53
f 147//53 83//53 82//53
f 147//54 82//54 148//54
f 148//54 82//54 81//54
f 148//55 81//55 149//55
f 149//55 81//55 106//55
f 149//56 106//56 150//56
f 150//56 106//56 107//56
f 150//57 107//57 151//57
f 151//57 107//57 108//57
f 151//58 108//58 152//58
f 152//58 108//58 109//58
f 152//59 109//59 153//59
f 153//59 109//59 110//59
f 153//60 110//60 154//60
f 154//60 110//60 111//60
f 154//61 111//61 155//61
f 155//61 111//61 112//61
f 155//62 112//62 156//62
f 156//62 112//62 113//62
f 156//63 113//63 157//63
f 157//63 113//63 114//63
f 157//64 114//64 158//64
f 158//64 114//64 115//64
f 158//65 115//65 159//65
f 159//65 115//65 116//65
f 159//66 116//66 160//66
f 160//66 116//66 94//66
f 160//67 94//67 161//67
f 161//67 94//67 95//67
f 161//68 95//68 162//68
f 162//68 95//68 96//68
f 162//69 96//69 163//69
f 163//69 96//69 97//69
f 163//70 97//70 164//70
f 164//70 97//70 98//70
f 164//71 98//71 165//71
f 165//71 98//71 99//71
f 165//72 99//72 166//72
f 166//72 99//72 100//72
f 166//73 100//73 167//73
f 167//73 100//73 101//73
f 167//74 101//74 168//74
f 168//74 101//74 102//74
f 168//75 102//75 169//75
f 169//75 102//75 103//75
f 169//76 103//76 170//76
f 170//76 103//76 104//76
f 170//77 104//77 171//77
f 171//77 104//77 105//77
f 171//78 105//78 136//78
f 136//78 105//78 93//78
f 172//41 173//41 143//41
f 174//41 163//41 173//41
f 173//41 163//41 164//41
f 173//41 164//41 143//41
f 143//41 164//41 165//41
f 143//41 165//41 166//41
f 166//41 167//41 143//41
f 143//41 167//41 168//41
f 143//41 168//41 169//41
f 169//41 170//41 143//41
f 143//41 170//41 171//41
f 143//41 171//41 136//41
f 136//41 137//41 143//41
f 143//41 137//41 138//41
f 143//41 138//41 139//41
f 139//41 140//41 143//41
f 143//41 140//41 141//41
f 143//41 141//41 142//41
f 143//41 144//41 172//41
f 172//41 144//41 145//41
f 172//41 145//41 175//41
f 175//41 145//41 146//41
f 175//41 146//41 176//41
f 176//41 146//41 147//41
f 176//41 147//41 177//41
f 177//41 147//41 148//41
f 177//41 148//41 178//41
f 178//41 148//41 149//41
f 178//41 149//41 179//41
f 179//41 149//41 150//41
f 179//41 150//41 180//41
f 180//41 150//41 151//41
f 180//41 151//41 181//41
f 181//41 151//41 152//41
f 181//41 152//41 182//41
f 182//41 152//41 153//41
f 182//41 153//41 183//41
f 183//41 153//41 154//41
f 183//41 154//41 184//41
f 184//41 154//41 155//41
f 184//41 155//41 185//41
f 185//41 155//41 156//41
f 185//41 156//41 186//41
f 186//41 156//41 157//41
f 186//41 157//41 187//41
f 187//41 157//41 158//41
f 187//41 158//41 188//41
f 188//41 158//41 159//41
f 188//41 159//41 189//41
f 189//41 159//41 160//41
f 189//41 160//41 190//41
f 190//41 160//41 161//41
f 190//41 161//41 174//41
f 174//41 161//41 162//41
f 174//41 162//41 163//41
f 117//52 172//52 121//52
f 121//52 172//52 175//52
f 121//53 175//53 120//53
f 120//53 175//53 176//53
f 120//54 176//54 119//54
f 119//54 176//54 177//54
f 119//55 177//55 118//55
f 118//55 177//55 178//55
f 118//56 178//56 134//56
f 134//56 178//56 179//56
f 134//57 179//57 133//57
f 133//57 179//57 180//57
f 133//58 180//58 132//58
f 132//58 180//58 181//58
f 132//59 181//59 131//59
f 131//59 181//59 182//59
f 131//60 182//60 130//60
f 130//60 182//60 183//60
f 130//61 183//61 129//61
f 129//61 183//61 184//61
f 129//62 184//62 128//62
f 128//62 184//62 185//62
f 128//63 185//63 127//63
f 127//63 185//63 186//63
f 127//64 186//64 126//64
f 126//64 186//64 187//64
f 126//65 187//65 125//65
f 125//65 187//65 188//65
f 125//66 188//66 124//66
f 124//66 188//66 189//66
f 124//67 189//67 123//67
f 123//67 189//67 190//67
f 123//68 190//68 135//68
f 135//68 190//68 174//68
f 135//69 174//69 122//69
f 122//69 174//69 173//69
f 117//79 122//79 172//79
f 172//79 122//79 173//79
