# Blender 4.4.0
# www.blender.org
mtllib Kk1a.mtl
o Kk1a
v 21.948694 13.011683 25.000000
v 22.000000 12.000000 25.000000
v 22.000000 12.000000 0.000000
v 21.948694 10.988317 0.000000
v 21.948694 10.988317 25.000000
v 21.541393 9.006369 25.000000
v 21.541393 9.006369 0.000000
v 20.743465 7.146981 25.000000
v 20.743465 7.146981 0.000000
v 19.587582 5.486275 25.000000
v 19.587582 5.486275 0.000000
v 18.121059 4.092243 25.000000
v 18.121059 4.092243 0.000000
v 16.403942 3.021955 25.000000
v 16.403942 3.021955 0.000000
v 14.506525 2.319229 25.000000
v 14.506525 2.319229 0.000000
v 12.506492 2.012835 25.000000
v 12.506492 2.012835 0.000000
v 10.485723 2.115317 25.000000
v 10.485723 2.115317 0.000000
v 8.526948 2.622479 25.000000
v 8.526948 2.622479 0.000000
v 6.710360 3.513558 25.000000
v 6.710360 3.513558 0.000000
v 5.110331 4.752072 25.000000
v 5.110331 4.752072 0.000000
v 3.792366 6.287318 25.000000
v 3.792366 6.287318 0.000000
v 2.810422 8.056441 25.000000
v 2.810422 8.056441 0.000000
v 2.204700 9.987015 25.000000
v 2.204700 9.987015 0.000000
v 2.000000 12.000000 25.000000
v 2.000000 12.000000 0.000000
v 2.204700 14.012985 25.000000
v 2.204700 14.012985 0.000000
v 2.810422 15.943559 25.000000
v 2.810422 15.943559 0.000000
v 3.792366 17.712683 25.000000
v 3.792366 17.712683 0.000000
v 5.110331 19.247929 25.000000
v 5.110331 19.247929 0.000000
v 6.710360 20.486443 25.000000
v 6.710360 20.486443 0.000000
v 8.526948 21.377522 25.000000
v 8.526948 21.377522 0.000000
v 10.485723 21.884684 25.000000
v 10.485723 21.884684 0.000000
v 12.506492 21.987165 25.000000
v 12.506492 21.987165 0.000000
v 14.506525 21.680771 25.000000
v 14.506525 21.680771 0.000000
v 16.403942 20.978046 25.000000
v 16.403942 20.978046 0.000000
v 18.121059 19.907757 25.000000
v 18.121059 19.907757 0.000000
v 19.587582 18.513725 25.000000
v 19.587582 18.513725 0.000000
v 20.743465 16.853020 25.000000
v 20.743465 16.853020 0.000000
v 21.541393 14.993631 25.000000
v 21.541393 14.993631 0.000000
v 21.948694 13.011683 0.000000
v 12.000000 12.000000 0.000000
v 24.000000 12.000000 30.000000
v 23.795677 14.204994 25.000000
v 23.795677 14.204994 30.000000
v 23.189667 16.334900 25.000000
v 23.189667 16.334900 30.000000
v 22.202606 18.317186 25.000000
v 22.202606 18.317186 30.000000
v 20.868107 20.084347 25.000000
v 20.868107 20.084347 30.000000
v 19.231615 21.576206 25.000000
v 19.231615 21.576206 30.000000
v 17.348860 22.741959 25.000000
v 17.348860 22.741959 30.000000
v 15.283956 23.541908 25.000000
v 15.283956 23.541908 30.000000
v 13.107221 23.948811 25.000000
v 13.107221 23.948811 30.000000
v 10.892779 23.948811 25.000000
v 10.892779 23.948811 30.000000
v 8.716044 23.541908 25.000000
v 8.716044 23.541908 30.000000
v 6.651140 22.741959 25.000000
v 6.651140 22.741959 30.000000
v 4.768384 21.576206 25.000000
v 4.768384 21.576206 30.000000
v 3.131893 20.084347 25.000000
v 3.131893 20.084347 30.000000
v 1.797395 18.317186 25.000000
v 1.797395 18.317186 30.000000
v 0.810334 16.334900 25.000000
v 0.810334 16.334900 30.000000
v 0.204323 14.204994 25.000000
v 0.204323 14.204994 30.000000
v 0.000000 12.000000 25.000000
v 0.000000 12.000000 30.000000
v 0.204323 9.795006 25.000000
v 0.204323 9.795006 30.000000
v 0.810334 7.665100 25.000000
v 0.810334 7.665100 30.000000
v 1.797395 5.682814 25.000000
v 1.797395 5.682814 30.000000
v 3.131893 3.915653 25.000000
v 3.131893 3.915653 30.000000
v 4.768384 2.423793 25.000000
v 4.768384 2.423793 30.000000
v 6.651140 1.258041 25.000000
v 6.651140 1.258041 30.000000
v 8.716044 0.458092 25.000000
v 8.716044 0.458092 30.000000
v 10.892779 0.051190 25.000000
v 10.892779 0.051190 30.000000
v 13.107221 0.051190 25.000000
v 13.107221 0.051190 30.000000
v 15.283956 0.458092 25.000000
v 15.283956 0.458092 30.000000
v 17.348860 1.258041 25.000000
v 17.348860 1.258041 30.000000
v 19.231615 2.423793 25.000000
v 19.231615 2.423793 30.000000
v 20.868107 3.915653 25.000000
v 20.868107 3.915653 30.000000
v 22.202606 5.682814 25.000000
v 22.202606 5.682814 30.000000
v 23.189667 7.665100 25.000000
v 23.189667 7.665100 30.000000
v 23.795677 9.795006 25.000000
v 23.795677 9.795006 30.000000
v 24.000000 12.000000 25.000000
v 12.000000 12.000000 30.000000
vn 0.9987 0.0507 -0.0000
vn 0.9987 -0.0507 -0.0000
vn 0.9987 -0.0506 -0.0000
vn 0.9795 -0.2013 -0.0000
vn 0.9190 -0.3944 -0.0000
vn 0.8208 -0.5713 -0.0000
vn 0.6890 -0.7248 -0.0000
vn 0.5290 -0.8486 -0.0000
vn 0.3473 -0.9378 -0.0000
vn 0.1514 -0.9885 -0.0000
vn -0.0506 -0.9987 -0.0000
vn -0.2507 -0.9681 -0.0000
vn -0.4404 -0.8978 -0.0000
vn -0.6121 -0.7908 -0.0000
vn -0.7588 -0.6514 -0.0000
vn -0.8743 -0.4853 -0.0000
vn -0.9541 -0.2994 -0.0000
vn -0.9949 -0.1012 -0.0000
vn -0.9949 0.1012 -0.0000
vn -0.9541 0.2994 -0.0000
vn -0.8743 0.4853 -0.0000
vn -0.7588 0.6514 -0.0000
vn -0.6121 0.7908 -0.0000
vn -0.4404 0.8978 -0.0000
vn -0.2507 0.9681 -0.0000
vn -0.0506 0.9987 -0.0000
vn 0.1514 0.9885 -0.0000
vn 0.3473 0.9378 -0.0000
vn 0.5290 0.8486 -0.0000
vn 0.6890 0.7248 -0.0000
vn 0.8208 0.5713 -0.0000
vn 0.9190 0.3944 -0.0000
vn 0.9795 0.2013 -0.0000
vn 0.9987 0.0506 -0.0000
vn -0.0000 -0.0000 -1.0000
vn 0.9957 0.0923 -0.0000
vn 0.9618 0.2737 -0.0000
vn 0.8952 0.4457 -0.0000
vn 0.7980 0.6026 -0.0000
vn 0.6737 0.7390 -0.0000
vn 0.5264 0.8502 -0.0000
vn 0.3612 0.9325 -0.0000
vn 0.1837 0.9830 -0.0000
vn -0.0000 1.0000 -0.0000
vn -0.1837 0.9830 -0.0000
vn -0.3612 0.9325 -0.0000
vn -0.5264 0.8502 -0.0000
vn -0.6737 0.7390 -0.0000
vn -0.7980 0.6026 -0.0000
vn -0.8952 0.4457 -0.0000
vn -0.9618 0.2737 -0.0000
vn -0.9957 0.0923 -0.0000
vn -0.9957 -0.0923 -0.0000
vn -0.9618 -0.2737 -0.0000
vn -0.8952 -0.4457 -0.0000
vn -0.7980 -0.6026 -0.0000
vn -0.6737 -0.7390 -0.0000
vn -0.5264 -0.8502 -0.0000
vn -0.3612 -0.9325 -0.0000
vn -0.1837 -0.9830 -0.0000
vn -0.0000 -1.0000 -0.0000
vn 0.1837 -0.9830 -0.0000
vn 0.3612 -0.9325 -0.0000
vn 0.5264 -0.8502 -0.0000
vn 0.6737 -0.7390 -0.0000
vn 0.7980 -0.6026 -0.0000
vn 0.8952 -0.4457 -0.0000
vn 0.9618 -0.2737 -0.0000
vn 0.9957 -0.0923 -0.0000
vn -0.0000 -0.0000 1.0000
s 0
f 1//1 2//1 3//1
f 3//2 2//2 4//2
f 2//3 5//3 4//3
f 4//4 5//4 6//4
f 4//4 6//4 7//4
f 7//5 6//5 8//5
f 7//5 8//5 9//5
f 9//6 8//6 10//6
f 9//6 10//6 11//6
f 11//7 10//7 12//7
f 11//7 12//7 13//7
f 13//8 12//8 14//8
f 13//8 14//8 15//8
f 15//9 14//9 16//9
f 15//9 16//9 17//9
f 17//10 16//10 18//10
f 17//10 18//10 19//10
f 19//11 18//11 20//11
f 19//11 20//11 21//11
f 21//12 20//12 22//12
f 21//12 22//12 23//12
f 23//13 22//13 24//13
f 23//13 24//13 25//13
f 25//14 24//14 26//14
f 25//14 26//14 27//14
f 27//15 26//15 28//15
f 27//15 28//15 29//15
f 29//16 28//16 30//16
f 29//16 30//16 31//16
f 31//17 30//17 32//17
f 31//17 32//17 33//17
f 33//18 32//18 34//18
f 33//18 34//18 35//18
f 35//19 34//19 36//19
f 35//19 36//19 37//19
f 37//20 36//20 38//20
f 37//20 38//20 39//20
f 39//21 38//21 40//21
f 39//21 40//21 41//21
f 41//22 40//22 42//22
f 41//22 42//22 43//22
f 43//23 42//23 44//23
f 43//23 44//23 45//23
f 45//24 44//24 46//24
f 45//24 46//24 47//24
f 47//25 46//25 48//25
f 47//25 48//25 49//25
f 49//26 48//26 50//26
f 49//26 50//26 51//26
f 51//27 50//27 52//27
f 51//27 52//27 53//27
f 53//28 52//28 54//28
f 53//28 54//28 55//28
f 55//29 54//29 56//29
f 55//29 56//29 57//29
f 57//30 56//30 58//30
f 57//30 58//30 59//30
f 59//31 58//31 60//31
f 59//31 60//31 61//31
f 61//32 60//32 62//32
f 61//32 62//32 63//32
f 63//33 62//33 1//33
f 63//33 1//33 64//33
f 64//34 1//34 3//34
f 3//35 4//35 65//35
f 3//35 65//35 64//35
f 59//35 61//35 65//35
f 65//35 61//35 63//35
f 65//35 63//35 64//35
f 53//35 55//35 65//35
f 65//35 55//35 57//35
f 65//35 57//35 59//35
f 47//35 49//35 65//35
f 65//35 49//35 51//35
f 65//35 51//35 53//35
f 41//35 43//35 65//35
f 65//35 43//35 45//35
f 65//35 45//35 47//35
f 35//35 37//35 65//35
f 65//35 37//35 39//35
f 65//35 39//35 41//35
f 29//35 31//35 65//35
f 65//35 31//35 33//35
f 65//35 33//35 35//35
f 23//35 25//35 65//35
f 65//35 25//35 27//35
f 65//35 27//35 29//35
f 17//35 19//35 65//35
f 65//35 19//35 21//35
f 65//35 21//35 23//35
f 11//35 13//35 65//35
f 65//35 13//35 15//35
f 65//35 15//35 17//35
f 4//35 7//35 65//35
f 65//35 7//35 9//35
f 65//35 9//35 11//35
f 66//36 67//36 68//36
f 68//37 67//37 69//37
f 68//37 69//37 70//37
f 70//38 69//38 71//38
f 70//38 71//38 72//38
f 72//39 71//39 73//39
f 72//39 73//39 74//39
f 74//40 73//40 75//40
f 74//40 75//40 76//40
f 76//41 75//41 77//41
f 76//41 77//41 78//41
f 78//42 77//42 79//42
f 78//42 79//42 80//42
f 80//43 79//43 81//43
f 80//43 81//43 82//43
f 82//44 81//44 83//44
f 82//44 83//44 84//44
f 84//45 83//45 85//45
f 84//45 85//45 86//45
f 86//46 85//46 87//46
f 86//46 87//46 88//46
f 88//47 87//47 89//47
f 88//47 89//47 90//47
f 90//48 89//48 91//48
f 90//48 91//48 92//48
f 92//49 91//49 93//49
f 92//49 93//49 94//49
f 94//50 93//50 95//50
f 94//50 95//50 96//50
f 96//51 95//51 97//51
f 96//51 97//51 98//51
f 98//52 97//52 99//52
f 98//52 99//52 100//52
f 100//53 99//53 101//53
f 100//53 101//53 102//53
f 102//54 101//54 103//54
f 102//54 103//54 104//54
f 104//55 103//55 105//55
f 104//55 105//55 106//55
f 106//56 105//56 107//56
f 106//56 107//56 108//56
f 108//57 107//57 109//57
f 108//57 109//57 110//57
f 110//58 109//58 111//58
f 110//58 111//58 112//58
f 112//59 111//59 113//59
f 112//59 113//59 114//59
f 114//60 113//60 115//60
f 114//60 115//60 116//60
f 116//61 115//61 117//61
f 116//61 117//61 118//61
f 118//62 117//62 119//62
f 118//62 119//62 120//62
f 120//63 119//63 121//63
f 120//63 121//63 122//63
f 122//64 121//64 123//64
f 122//64 123//64 124//64
f 124//65 123//65 125//65
f 124//65 125//65 126//65
f 126//66 125//66 127//66
f 126//66 127//66 128//66
f 128//67 127//67 129//67
f 128//67 129//67 130//67
f 130//68 129//68 131//68
f 130//68 131//68 132//68
f 132//69 131//69 133//69
f 132//69 133//69 66//69
f 66//36 133//36 67//36
f 24//35 109//35 26//35
f 26//35 109//35 107//35
f 26//35 107//35 28//35
f 28//35 107//35 105//35
f 28//35 105//35 30//35
f 30//35 105//35 103//35
f 30//35 103//35 32//35
f 32//35 103//35 101//35
f 32//35 101//35 34//35
f 34//35 101//35 99//35
f 34//35 99//35 36//35
f 36//35 99//35 97//35
f 36//35 97//35 38//35
f 38//35 97//35 95//35
f 38//35 95//35 40//35
f 40//35 95//35 93//35
f 40//35 93//35 42//35
f 42//35 93//35 91//35
f 42//35 91//35 44//35
f 91//35 89//35 44//35
f 44//35 89//35 87//35
f 44//35 87//35 46//35
f 46//35 87//35 85//35
f 46//35 85//35 48//35
f 48//35 85//35 83//35
f 48//35 83//35 50//35
f 50//35 83//35 81//35
f 50//35 81//35 52//35
f 52//35 81//35 79//35
f 52//35 79//35 54//35
f 54//35 79//35 77//35
f 54//35 77//35 56//35
f 56//35 77//35 75//35
f 56//35 75//35 58//35
f 58//35 75//35 73//35
f 58//35 73//35 60//35
f 60//35 73//35 71//35
f 60//35 71//35 62//35
f 62//35 71//35 69//35
f 62//35 69//35 1//35
f 1//35 69//35 67//35
f 1//35 67//35 2//35
f 2//35 67//35 133//35
f 2//35 133//35 5//35
f 5//35 133//35 131//35
f 5//35 131//35 6//35
f 6//35 131//35 129//35
f 6//35 129//35 8//35
f 8//35 129//35 127//35
f 8//35 127//35 10//35
f 10//35 127//35 125//35
f 10//35 125//35 12//35
f 12//35 125//35 123//35
f 12//35 123//35 14//35
f 14//35 123//35 121//35
f 14//35 121//35 16//35
f 16//35 121//35 119//35
f 16//35 119//35 18//35
f 18//35 119//35 117//35
f 18//35 117//35 20//35
f 20//35 117//35 115//35
f 20//35 115//35 22//35
f 22//35 115//35 113//35
f 22//35 113//35 24//35
f 24//35 113//35 111//35
f 24//35 111//35 109//35
f 66//70 68//70 134//70
f 128//70 130//70 134//70
f 134//70 130//70 132//70
f 134//70 132//70 66//70
f 122//70 124//70 134//70
f 134//70 124//70 126//70
f 134//70 126//70 128//70
f 116//70 118//70 134//70
f 134//70 118//70 120//70
f 134//70 120//70 122//70
f 110//70 112//70 134//70
f 134//70 112//70 114//70
f 134//70 114//70 116//70
f 104//70 106//70 134//70
f 134//70 106//70 108//70
f 134//70 108//70 110//70
f 98//70 100//70 134//70
f 134//70 100//70 102//70
f 134//70 102//70 104//70
f 92//70 94//70 134//70
f 134//70 94//70 96//70
f 134//70 96//70 98//70
f 86//70 88//70 134//70
f 134//70 88//70 90//70
f 134//70 90//70 92//70
f 80//70 82//70 134//70
f 134//70 82//70 84//70
f 134//70 84//70 86//70
f 74//70 76//70 134//70
f 134//70 76//70 78//70
f 134//70 78//70 80//70
f 68//70 70//70 134//70
f 134//70 70//70 72//70
f 134//70 72//70 74//70
