# https://github.com/mikedh/trimesh
v 22.00000000 12.00000000 0.00000000
v 21.94869400 10.98831700 0.00000000
v 21.54139300 9.00636900 0.00000000
v 20.74346500 7.14698100 0.00000000
v 19.58758200 5.48627500 0.00000000
v 18.12105900 4.09224300 0.00000000
v 16.40394200 3.02195500 0.00000000
v 14.50652500 2.31922900 0.00000000
v 12.50649200 2.01283500 0.00000000
v 10.48572300 2.11531700 0.00000000
v 8.52694800 2.62247900 0.00000000
v 6.71036000 3.51355800 0.00000000
v 5.11033100 4.75207200 0.00000000
v 3.79236600 6.28731800 0.00000000
v 2.81042200 8.05644100 0.00000000
v 2.20470000 9.98701500 0.00000000
v 2.00000000 12.00000000 0.00000000
v 2.20470000 14.01298500 0.00000000
v 2.81042200 15.94355900 0.00000000
v 3.79236600 17.71268300 0.00000000
v 5.11033100 19.24792900 0.00000000
v 6.71036000 20.48644300 0.00000000
v 8.52694800 21.37752200 0.00000000
v 10.48572300 21.88468400 0.00000000
v 12.50649200 21.98716500 0.00000000
v 14.50652500 21.68077100 0.00000000
v 16.40394200 20.97804600 0.00000000
v 18.12105900 19.90775700 0.00000000
v 19.58758200 18.51372500 0.00000000
v 20.74346500 16.85302000 0.00000000
v 21.54139300 14.99363100 0.00000000
v 21.94869400 13.01168300 0.00000000
v 24.00000000 12.00000000 30.00000000
v 23.79567700 14.20499400 25.00000000
v 23.79567700 14.20499400 30.00000000
v 23.18966700 16.33490000 25.00000000
v 23.18966700 16.33490000 30.00000000
v 22.20260600 18.31718600 25.00000000
v 22.20260600 18.31718600 30.00000000
v 20.86810700 20.08434700 25.00000000
v 20.86810700 20.08434700 30.00000000
v 19.23161500 21.57620600 25.00000000
v 19.23161500 21.57620600 30.00000000
v 17.34886000 22.74195900 25.00000000
v 17.34886000 22.74195900 30.00000000
v 15.28395600 23.54190800 25.00000000
v 15.28395600 23.54190800 30.00000000
v 13.10722100 23.94881100 25.00000000
v 13.10722100 23.94881100 30.00000000
v 10.89277900 23.94881100 25.00000000
v 10.89277900 23.94881100 30.00000000
v 8.71604400 23.54190800 25.00000000
v 8.71604400 23.54190800 30.00000000
v 6.65114000 22.74195900 25.00000000
v 6.65114000 22.74195900 30.00000000
v 4.76838400 21.57620600 25.00000000
v 4.76838400 21.57620600 30.00000000
v 3.13189300 20.08434700 25.00000000
v 3.13189300 20.08434700 30.00000000
v 1.79739500 18.31718600 25.00000000
v 1.79739500 18.31718600 30.00000000
v 0.81033400 16.33490000 25.00000000
v 0.81033400 16.33490000 30.00000000
v 0.20432300 14.20499400 25.00000000
v 0.20432300 14.20499400 30.00000000
v 0.00000000 12.00000000 25.00000000
v 0.00000000 12.00000000 30.00000000
v 0.20432300 9.79500600 25.00000000
v 0.20432300 9.79500600 30.00000000
v 0.81033400 7.66510000 25.00000000
v 0.81033400 7.66510000 30.00000000
v 1.79739500 5.68281400 25.00000000
v 1.79739500 5.68281400 30.00000000
v 3.13189300 3.91565300 25.00000000
v 3.13189300 3.91565300 30.00000000
v 4.76838400 2.42379300 25.00000000
v 4.76838400 2.42379300 30.00000000
v 6.65114000 1.25804100 25.00000000
v 6.65114000 1.25804100 30.00000000
v 8.71604400 0.45809200 25.00000000
v 8.71604400 0.45809200 30.00000000
v 10.89277900 0.05119000 25.00000000
v 10.89277900 0.05119000 30.00000000
v 13.10722100 0.05119000 25.00000000
v 13.10722100 0.05119000 30.00000000
v 15.28395600 0.45809200 25.00000000
v 15.28395600 0.45809200 30.00000000
v 17.34886000 1.25804100 25.00000000
v 17.34886000 1.25804100 30.00000000
v 19.23161500 2.42379300 25.00000000
v 19.23161500 2.42379300 30.00000000
v 20.86810700 3.91565300 25.00000000
v 20.86810700 3.91565300 30.00000000
v 22.20260600 5.68281400 25.00000000
v 22.20260600 5.68281400 30.00000000
v 23.18966700 7.66510000 25.00000000
v 23.18966700 7.66510000 30.00000000
v 23.79567700 9.79500600 25.00000000
v 23.79567700 9.79500600 30.00000000
v 24.00000000 12.00000000 25.00000000
f 20 58 21
f 20 58 60
f 38 30 36
f 38 29 30
f 38 29 40
f 44 46 27
f 44 42 27
f 64 17 66
f 56 58 21
f 23 54 52
f 23 24 52
f 50 24 52
f 50 25 24
f 50 25 48
f 31 30 36
f 31 34 36
f 28 42 40
f 28 29 40
f 28 42 27
f 18 64 17
f 22 56 21
f 22 56 54
f 22 23 54
f 26 46 48
f 26 25 48
f 26 46 27
f 4 94 96
f 80 11 78
f 12 76 78
f 12 11 78
f 68 17 66
f 32 31 34
f 32 100 1
f 32 100 34
f 62 18 64
f 5 94 92
f 5 4 94
f 3 98 96
f 3 4 96
f 88 86 7
f 88 90 7
f 9 84 82
f 13 76 74
f 13 12 76
f 19 62 18
f 19 62 60
f 19 20 60
f 6 90 92
f 6 5 92
f 6 90 7
f 2 3 98
f 2 100 98
f 2 100 1
f 8 86 7
f 8 84 86
f 8 9 84
f 10 9 82
f 10 80 82
f 10 80 11
f 14 72 74
f 14 13 74
f 15 72 70
f 15 14 72
f 16 68 70
f 16 15 70
f 16 68 17
f 44 43 45
f 44 43 42
f 50 49 51
f 50 49 48
f 50 53 51
f 50 53 52
f 37 38 36
f 37 38 39
f 47 44 45
f 47 44 46
f 47 49 48
f 47 46 48
f 55 56 57
f 55 56 54
f 55 53 52
f 55 54 52
f 41 38 39
f 41 38 40
f 41 43 42
f 41 42 40
f 59 56 57
f 59 56 58
f 59 61 60
f 59 58 60
f 100 99 33
f 100 99 98
f 80 81 83
f 80 83 82
f 80 81 79
f 80 78 79
f 67 64 66
f 67 64 65
f 68 67 69
f 68 67 66
f 71 68 69
f 71 68 70
f 35 100 33
f 35 100 34
f 35 37 36
f 35 34 36
f 62 61 60
f 62 63 61
f 62 63 65
f 62 64 65
f 97 94 96
f 97 94 95
f 97 99 98
f 97 98 96
f 87 88 86
f 87 88 89
f 91 88 89
f 91 88 90
f 73 71 70
f 73 72 70
f 85 83 82
f 85 84 82
f 85 87 86
f 85 84 86
f 93 94 95
f 93 94 92
f 93 91 90
f 93 90 92
f 75 73 72
f 75 72 74
f 77 43 45
f 77 41 39
f 77 71 69
f 77 67 65
f 77 81 79
f 77 63 65
f 77 47 45
f 77 49 51
f 77 53 51
f 77 55 57
f 77 59 57
f 77 99 33
f 77 81 83
f 77 97 95
f 77 37 39
f 77 47 49
f 77 55 53
f 77 41 43
f 77 59 61
f 77 63 61
f 77 35 33
f 77 73 71
f 77 67 69
f 77 85 83
f 77 35 37
f 77 97 99
f 77 87 89
f 77 91 89
f 77 93 95
f 77 85 87
f 77 93 91
f 77 75 73
f 77 78 79
f 77 76 78
f 77 75 74
f 77 76 74
f 16 19 20
f 16 2 1
f 16 26 27
f 16 20 21
f 16 18 17
f 16 22 21
f 16 28 27
f 16 29 30
f 16 23 24
f 16 25 24
f 16 6 7
f 16 31 30
f 16 28 29
f 16 10 11
f 16 22 23
f 16 26 25
f 16 32 1
f 16 12 11
f 16 32 31
f 16 5 4
f 16 3 4
f 16 8 7
f 16 13 12
f 16 19 18
f 16 6 5
f 16 2 3
f 16 8 9
f 16 10 9
f 16 14 13
f 16 15 14

