# https://github.com/mikedh/trimesh
v 18.75000000 14.84122900 30.00000000
v 18.75000000 14.84122900 0.00000000
v 17.64431600 16.44704800 0.00000000
v 17.64431600 16.44704800 30.00000000
v 16.24805800 17.80780000 0.00000000
v 16.24805800 17.80780000 30.00000000
v 14.61430100 18.87176500 0.00000000
v 14.61430100 18.87176500 30.00000000
v 12.80514400 19.59849700 0.00000000
v 12.80514400 19.59849700 30.00000000
v 10.88935900 19.96037300 0.00000000
v 10.88935900 19.96037300 30.00000000
v 8.93976700 19.94363600 0.00000000
v 8.93976700 19.94363600 30.00000000
v 7.03047700 19.54892300 0.00000000
v 7.03047700 19.54892300 30.00000000
v 5.23406400 18.79123700 0.00000000
v 5.23406400 18.79123700 30.00000000
v 3.61881300 17.69938100 0.00000000
v 3.61881300 17.69938100 30.00000000
v 2.24612300 16.31485600 0.00000000
v 2.24612300 16.31485600 30.00000000
v 1.16817300 14.69029000 0.00000000
v 1.16817300 14.69029000 30.00000000
v 0.42593700 12.88744000 0.00000000
v 0.42593700 12.88744000 30.00000000
v 0.04762800 10.97483200 0.00000000
v 0.04762800 10.97483200 30.00000000
v 0.04762800 9.02516800 0.00000000
v 0.04762800 9.02516800 30.00000000
v 0.42593700 7.11256000 0.00000000
v 0.42593700 7.11256000 30.00000000
v 1.16817300 5.30970900 0.00000000
v 1.16817300 5.30970900 30.00000000
v 2.24612300 3.68514400 0.00000000
v 2.24612300 3.68514400 30.00000000
v 3.61881300 2.30061900 0.00000000
v 3.61881300 2.30061900 30.00000000
v 5.23406400 1.20876300 0.00000000
v 5.23406400 1.20876300 30.00000000
v 7.03047700 0.45107700 0.00000000
v 7.03047700 0.45107700 30.00000000
v 8.93976700 0.05636400 0.00000000
v 8.93976700 0.05636400 30.00000000
v 10.88935900 0.03962600 0.00000000
v 10.88935900 0.03962600 30.00000000
v 12.80514400 0.40150200 0.00000000
v 12.80514400 0.40150200 30.00000000
v 14.61430100 1.12823400 0.00000000
v 14.61430100 1.12823400 30.00000000
v 16.24805800 2.19219900 0.00000000
v 16.24805800 2.19219900 30.00000000
v 17.64431600 3.55295200 0.00000000
v 17.64431600 3.55295200 30.00000000
v 18.75000000 5.15877100 0.00000000
v 18.75000000 5.15877100 30.00000000
f 56 55 2
f 56 2 1
f 4 3 2
f 4 2 1
f 4 5 3
f 4 5 6
f 28 25 27
f 28 25 26
f 28 29 27
f 28 29 30
f 32 29 31
f 32 29 30
f 22 19 21
f 22 19 20
f 53 56 55
f 53 54 56
f 38 37 35
f 38 35 36
f 39 38 40
f 39 38 37
f 42 43 41
f 42 43 44
f 42 39 41
f 42 39 40
f 8 5 7
f 8 5 6
f 8 9 7
f 8 9 10
f 34 33 35
f 34 35 36
f 34 33 31
f 34 32 31
f 24 23 25
f 24 25 26
f 24 23 21
f 24 22 21
f 51 54 52
f 51 53 54
f 50 51 49
f 50 51 52
f 50 47 49
f 50 48 47
f 46 43 45
f 46 43 44
f 46 47 45
f 46 48 47
f 13 47 45
f 13 51 49
f 13 37 35
f 13 55 2
f 13 23 21
f 13 3 2
f 13 29 27
f 13 25 27
f 13 33 35
f 13 43 45
f 13 39 41
f 13 9 7
f 13 33 31
f 13 53 55
f 13 5 7
f 13 47 49
f 13 43 41
f 13 5 3
f 13 23 25
f 13 29 31
f 13 19 21
f 13 17 15
f 13 39 37
f 13 9 11
f 13 17 19
f 13 51 53
f 12 9 11
f 12 9 10
f 12 13 11
f 12 13 14
f 16 13 15
f 16 13 14
f 18 56 1
f 18 54 52
f 18 24 26
f 18 32 30
f 18 34 36
f 18 28 26
f 18 42 44
f 18 4 1
f 18 54 56
f 18 38 36
f 18 4 6
f 18 8 6
f 18 28 30
f 18 12 10
f 18 22 20
f 18 50 52
f 18 38 40
f 18 42 40
f 18 8 10
f 18 46 44
f 18 34 32
f 18 24 22
f 18 50 48
f 18 46 48
f 18 12 14
f 18 16 14
f 18 19 20
f 18 17 19
f 18 17 15
f 18 16 15

