# Blender 4.4.0
# www.blender.org
mtllib Kk2i.mtl
o Kk2i
v 18.750000 14.841229 30.000000
v 18.750000 14.841229 0.000000
v 17.644316 16.447048 0.000000
v 17.644316 16.447048 30.000000
v 16.248058 17.807800 0.000000
v 16.248058 17.807800 30.000000
v 14.614301 18.871765 0.000000
v 14.614301 18.871765 30.000000
v 12.805144 19.598497 0.000000
v 12.805144 19.598497 30.000000
v 10.889359 19.960373 0.000000
v 10.889359 19.960373 30.000000
v 8.939767 19.943636 0.000000
v 8.939767 19.943636 30.000000
v 7.030477 19.548923 0.000000
v 7.030477 19.548923 30.000000
v 5.234064 18.791237 0.000000
v 5.234064 18.791237 30.000000
v 3.618813 17.699381 0.000000
v 3.618813 17.699381 30.000000
v 2.246123 16.314856 0.000000
v 2.246123 16.314856 30.000000
v 1.168173 14.690290 0.000000
v 1.168173 14.690290 30.000000
v 0.425937 12.887440 0.000000
v 0.425937 12.887440 30.000000
v 0.047628 10.974832 0.000000
v 0.047628 10.974832 30.000000
v 0.047628 9.025168 0.000000
v 0.047628 9.025168 30.000000
v 0.425937 7.112560 0.000000
v 0.425937 7.112560 30.000000
v 1.168173 5.309709 0.000000
v 1.168173 5.309709 30.000000
v 2.246123 3.685144 0.000000
v 2.246123 3.685144 30.000000
v 3.618813 2.300619 0.000000
v 3.618813 2.300619 30.000000
v 5.234064 1.208763 0.000000
v 5.234064 1.208763 30.000000
v 7.030477 0.451077 0.000000
v 7.030477 0.451077 30.000000
v 8.939767 0.056364 0.000000
v 8.939767 0.056364 30.000000
v 10.889359 0.039626 0.000000
v 10.889359 0.039626 30.000000
v 12.805144 0.401502 0.000000
v 12.805144 0.401502 30.000000
v 14.614301 1.128234 0.000000
v 14.614301 1.128234 30.000000
v 16.248058 2.192199 0.000000
v 16.248058 2.192199 30.000000
v 17.644316 3.552952 0.000000
v 17.644316 3.552952 30.000000
v 18.750000 5.158771 0.000000
v 18.750000 5.158771 30.000000
v 17.531656 5.651750 30.000000
v 16.483864 6.445174 30.000000
v 15.679021 12.515778 30.000000
v 15.679021 7.484221 30.000000
v 16.483864 13.554825 30.000000
v 17.531656 14.348249 30.000000
v 15.000000 10.000000 30.000000
v 15.172739 11.302901 30.000000
v 15.172739 8.697099 30.000000
v 17.531656 14.348249 0.000000
v 16.483864 6.445174 0.000000
v 17.531656 5.651750 0.000000
v 16.483864 13.554825 0.000000
v 15.679021 12.515778 0.000000
v 15.172739 11.302901 0.000000
v 15.000000 10.000000 0.000000
v 15.172739 8.697099 0.000000
v 15.679021 7.484221 0.000000
vn 0.8236 0.5671 -0.0000
vn 0.6979 0.7162 -0.0000
vn 0.5457 0.8380 -0.0000
vn 0.3727 0.9279 -0.0000
vn 0.1856 0.9826 -0.0000
vn -0.0086 1.0000 -0.0000
vn -0.2025 0.9793 -0.0000
vn -0.3886 0.9214 -0.0000
vn -0.5600 0.8285 -0.0000
vn -0.7101 0.7041 -0.0000
vn -0.8333 0.5529 -0.0000
vn -0.9247 0.3807 -0.0000
vn -0.9810 0.1940 -0.0000
vn -1.0000 -0.0000 -0.0000
vn -0.9810 -0.1940 -0.0000
vn -0.9247 -0.3807 -0.0000
vn -0.8333 -0.5529 -0.0000
vn -0.7101 -0.7041 -0.0000
vn -0.5600 -0.8285 -0.0000
vn -0.3886 -0.9214 -0.0000
vn -0.2025 -0.9793 -0.0000
vn -0.0086 -1.0000 -0.0000
vn 0.1856 -0.9826 -0.0000
vn 0.3727 -0.9279 -0.0000
vn 0.5457 -0.8380 -0.0000
vn 0.6979 -0.7162 -0.0000
vn 0.8236 -0.5671 -0.0000
vn -0.0000 -0.0000 1.0000
vn -0.0000 -0.0000 -1.0000
vn 0.3751 -0.9270 -0.0000
vn 0.6037 -0.7972 -0.0000
vn 0.7906 -0.6124 -0.0000
vn 0.9228 -0.3852 -0.0000
vn 0.9913 -0.1314 -0.0000
vn 0.9913 0.1314 -0.0000
vn 0.9228 0.3852 -0.0000
vn 0.7906 0.6124 -0.0000
vn 0.6037 0.7972 -0.0000
vn 0.3751 0.9270 -0.0000
s 0
f 1//1 2//1 3//1
f 1//1 3//1 4//1
f 4//2 3//2 5//2
f 4//2 5//2 6//2
f 6//3 5//3 7//3
f 6//3 7//3 8//3
f 8//4 7//4 9//4
f 8//4 9//4 10//4
f 10//5 9//5 11//5
f 10//5 11//5 12//5
f 12//6 11//6 13//6
f 12//6 13//6 14//6
f 14//7 13//7 15//7
f 14//7 15//7 16//7
f 16//8 15//8 17//8
f 16//8 17//8 18//8
f 18//9 17//9 19//9
f 18//9 19//9 20//9
f 20//10 19//10 21//10
f 20//10 21//10 22//10
f 22//11 21//11 23//11
f 22//11 23//11 24//11
f 24//12 23//12 25//12
f 24//12 25//12 26//12
f 26//13 25//13 27//13
f 26//13 27//13 28//13
f 28//14 27//14 29//14
f 28//14 29//14 30//14
f 30//15 29//15 31//15
f 30//15 31//15 32//15
f 32//16 31//16 33//16
f 32//16 33//16 34//16
f 34//17 33//17 35//17
f 34//17 35//17 36//17
f 36//18 35//18 37//18
f 36//18 37//18 38//18
f 38//19 37//19 39//19
f 38//19 39//19 40//19
f 40//20 39//20 41//20
f 40//20 41//20 42//20
f 42//21 41//21 43//21
f 42//21 43//21 44//21
f 44//22 43//22 45//22
f 44//22 45//22 46//22
f 46//23 45//23 47//23
f 46//23 47//23 48//23
f 48//24 47//24 49//24
f 48//24 49//24 50//24
f 50//25 49//25 51//25
f 50//25 51//25 52//25
f 52//26 51//26 53//26
f 52//26 53//26 54//26
f 54//27 53//27 55//27
f 54//27 55//27 56//27
f 56//28 57//28 54//28
f 54//28 57//28 52//28
f 58//28 48//28 57//28
f 57//28 48//28 50//28
f 57//28 50//28 52//28
f 16//28 18//28 59//28
f 40//28 42//28 60//28
f 60//28 42//28 44//28
f 60//28 44//28 58//28
f 58//28 44//28 46//28
f 58//28 46//28 48//28
f 61//28 62//28 8//28
f 28//28 63//28 26//28
f 26//28 63//28 64//28
f 26//28 64//28 24//28
f 24//28 64//28 22//28
f 59//28 18//28 64//28
f 64//28 18//28 20//28
f 64//28 20//28 22//28
f 1//28 4//28 62//28
f 62//28 4//28 6//28
f 62//28 6//28 8//28
f 40//28 60//28 38//28
f 38//28 60//28 65//28
f 38//28 65//28 36//28
f 8//28 10//28 61//28
f 61//28 10//28 12//28
f 61//28 12//28 59//28
f 59//28 12//28 14//28
f 59//28 14//28 16//28
f 28//28 30//28 63//28
f 63//28 30//28 32//28
f 63//28 32//28 65//28
f 65//28 32//28 34//28
f 65//28 34//28 36//28
f 2//29 66//29 3//29
f 3//29 66//29 5//29
f 67//29 68//29 49//29
f 69//29 9//29 66//29
f 66//29 9//29 7//29
f 66//29 7//29 5//29
f 55//29 53//29 68//29
f 68//29 53//29 51//29
f 68//29 51//29 49//29
f 17//29 70//29 19//29
f 19//29 70//29 71//29
f 19//29 71//29 21//29
f 72//29 25//29 71//29
f 71//29 25//29 23//29
f 71//29 23//29 21//29
f 73//29 33//29 72//29
f 72//29 33//29 31//29
f 31//29 29//29 72//29
f 72//29 29//29 27//29
f 72//29 27//29 25//29
f 41//29 39//29 74//29
f 74//29 39//29 37//29
f 74//29 37//29 73//29
f 73//29 37//29 35//29
f 73//29 35//29 33//29
f 49//29 47//29 67//29
f 67//29 47//29 45//29
f 67//29 45//29 74//29
f 74//29 45//29 43//29
f 74//29 43//29 41//29
f 17//29 15//29 70//29
f 70//29 15//29 13//29
f 70//29 13//29 69//29
f 69//29 13//29 11//29
f 69//29 11//29 9//29
f 2//30 1//30 66//30
f 66//30 1//30 62//30
f 66//31 62//31 69//31
f 69//31 62//31 61//31
f 69//32 61//32 70//32
f 70//32 61//32 59//32
f 70//33 59//33 71//33
f 71//33 59//33 64//33
f 71//34 64//34 72//34
f 72//34 64//34 63//34
f 72//35 63//35 73//35
f 73//35 63//35 65//35
f 73//36 65//36 74//36
f 74//36 65//36 60//36
f 74//37 60//37 67//37
f 67//37 60//37 58//37
f 67//38 58//38 68//38
f 68//38 58//38 57//38
f 68//39 57//39 55//39
f 55//39 57//39 56//39
