# https://github.com/mikedh/trimesh
v 0.00000000 10.00000000 0.00000000
v 0.21852400 12.07911700 30.00000000
v 0.21852400 12.07911700 0.00000000
v 0.86454500 14.06736700 30.00000000
v 0.86454500 14.06736700 0.00000000
v 1.90983000 15.87785200 30.00000000
v 1.90983000 15.87785200 0.00000000
v 3.30869400 17.43144800 30.00000000
v 3.30869400 17.43144800 0.00000000
v 5.00000000 18.66025400 30.00000000
v 5.00000000 18.66025400 0.00000000
v 6.90983000 19.51056500 30.00000000
v 6.90983000 19.51056500 0.00000000
v 8.95471500 19.94521900 30.00000000
v 8.95471500 19.94521900 0.00000000
v 11.04528400 19.94521900 30.00000000
v 11.04528400 19.94521900 0.00000000
v 13.09017000 19.51056500 30.00000000
v 13.09017000 19.51056500 0.00000000
v 15.00000000 18.66025400 30.00000000
v 15.00000000 18.66025400 0.00000000
v 16.69130500 17.43144800 30.00000000
v 16.69130500 17.43144800 0.00000000
v 18.09017000 15.87785200 30.00000000
v 18.09017000 15.87785200 0.00000000
v 19.13545400 14.06736700 30.00000000
v 19.13545400 14.06736700 0.00000000
v 19.78147500 12.07911700 30.00000000
v 19.78147500 12.07911700 0.00000000
v 20.00000000 10.00000000 0.00000000
v 19.78147500 7.92088300 30.00000000
v 19.78147500 7.92088300 0.00000000
v 19.13545400 5.93263300 30.00000000
v 19.13545400 5.93263300 0.00000000
v 18.09017000 4.12214800 30.00000000
v 18.09017000 4.12214800 0.00000000
v 16.69130500 2.56855100 30.00000000
v 16.69130500 2.56855100 0.00000000
v 15.00000000 1.33974600 30.00000000
v 15.00000000 1.33974600 0.00000000
v 13.09017000 0.48943400 30.00000000
v 13.09017000 0.48943400 0.00000000
v 11.04528400 0.05478000 30.00000000
v 11.04528400 0.05478000 0.00000000
v 8.95471500 0.05478000 30.00000000
v 8.95471500 0.05478000 0.00000000
v 6.90983000 0.48943400 30.00000000
v 6.90983000 0.48943400 0.00000000
v 5.00000000 1.33974600 30.00000000
v 5.00000000 1.33974600 0.00000000
v 3.30869400 2.56855100 30.00000000
v 3.30869400 2.56855100 0.00000000
v 1.90983000 4.12214800 30.00000000
v 1.90983000 4.12214800 0.00000000
v 0.86454500 5.93263300 30.00000000
v 0.86454500 5.93263300 0.00000000
v 0.21852400 7.92088300 30.00000000
v 0.21852400 7.92088300 0.00000000
v 0.00000000 10.00000000 30.00000000
v 14.22836100 11.14805000 40.00000000
v 14.87867900 12.12132000 40.00000000
v 15.85195000 12.77163800 40.00000000
v 17.00000000 13.00000000 40.00000000
v 18.14805000 12.77163800 40.00000000
v 19.12132100 12.12132000 40.00000000
v 19.77163900 11.14805000 40.00000000
v 20.00000000 10.00000000 40.00000000
v 19.77163900 8.85195000 40.00000000
v 19.12132100 7.87868000 40.00000000
v 18.14805000 7.22836100 40.00000000
v 17.00000000 7.00000000 40.00000000
v 15.85195000 7.22836100 40.00000000
v 14.87867900 7.87868000 40.00000000
v 14.22836100 8.85195000 40.00000000
v 14.00000000 10.00000000 40.00000000
f 60 2 4
f 60 6 4
f 69 37 35
f 69 37 39
f 64 18 16
f 64 18 20
f 68 33 35
f 68 69 35
f 68 31 33
f 70 41 39
f 70 69 39
f 70 41 43
f 63 16 14
f 63 64 16
f 65 20 22
f 65 64 20
f 65 24 22
f 71 45 43
f 71 70 43
f 62 12 14
f 62 63 14
f 62 12 10
f 66 24 26
f 66 65 24
f 66 28 26
f 72 45 47
f 72 71 45
f 72 49 47
f 61 10 8
f 61 62 10
f 61 6 8
f 61 60 6
f 67 66 28
f 67 68 31
f 73 49 51
f 73 72 49
f 73 53 51
f 74 53 55
f 74 73 53
f 74 57 55
f 75 57 59
f 75 74 57
f 75 2 59
f 75 60 2
f 41 44 42
f 41 44 43
f 34 33 35
f 34 35 36
f 34 31 33
f 34 31 32
f 40 41 39
f 40 41 42
f 37 38 36
f 37 35 36
f 37 40 38
f 37 40 39
f 45 44 43
f 45 46 44
f 45 46 48
f 45 47 48
f 50 49 47
f 50 47 48
f 50 49 51
f 50 52 51
f 53 52 54
f 53 52 51
f 56 53 55
f 56 53 54
f 11 10 8
f 11 8 9
f 12 11 13
f 12 11 10
f 15 16 14
f 15 16 17
f 15 12 14
f 15 12 13
f 21 20 22
f 21 22 23
f 2 3 1
f 2 59 1
f 2 3 5
f 2 4 5
f 6 8 9
f 6 7 9
f 6 7 5
f 6 4 5
f 25 24 22
f 25 22 23
f 25 24 26
f 25 27 26
f 29 28 26
f 29 27 26
f 58 57 59
f 58 59 1
f 58 56 55
f 58 57 55
f 19 29 30
f 19 38 36
f 19 50 48
f 19 15 17
f 19 40 42
f 19 34 36
f 19 7 9
f 19 44 42
f 19 46 48
f 19 3 1
f 19 32 30
f 19 21 23
f 19 46 44
f 19 52 54
f 19 11 9
f 19 34 32
f 19 25 23
f 19 40 38
f 19 50 52
f 19 56 54
f 19 11 13
f 19 15 13
f 19 3 5
f 19 7 5
f 19 58 1
f 19 25 27
f 19 29 27
f 19 58 56
f 19 16 17
f 19 18 16
f 19 21 20
f 19 18 20
f 67 29 28
f 67 29 30
f 67 32 30
f 67 31 32
f 75 65 64
f 75 68 69
f 75 61 60
f 75 70 69
f 75 63 64
f 75 67 68
f 75 71 70
f 75 62 63
f 75 66 65
f 75 72 71
f 75 61 62
f 75 67 66
f 75 73 72
f 75 74 73

