# Blender 4.4.0
# www.blender.org
mtllib Kk4a.mtl
o Kk4a
v 0.000000 10.000000 0.000000
v 0.218524 12.079117 30.000000
v 0.218524 12.079117 0.000000
v 0.864545 14.067367 30.000000
v 0.864545 14.067367 0.000000
v 1.909830 15.877852 30.000000
v 1.909830 15.877852 0.000000
v 3.308694 17.431448 30.000000
v 3.308694 17.431448 0.000000
v 5.000000 18.660254 30.000000
v 5.000000 18.660254 0.000000
v 6.909830 19.510565 30.000000
v 6.909830 19.510565 0.000000
v 8.954715 19.945219 30.000000
v 8.954715 19.945219 0.000000
v 11.045284 19.945219 30.000000
v 11.045284 19.945219 0.000000
v 13.090170 19.510565 30.000000
v 13.090170 19.510565 0.000000
v 15.000000 18.660254 30.000000
v 15.000000 18.660254 0.000000
v 16.691305 17.431448 30.000000
v 16.691305 17.431448 0.000000
v 18.090170 15.877852 30.000000
v 18.090170 15.877852 0.000000
v 19.135454 14.067367 30.000000
v 19.135454 14.067367 0.000000
v 19.781475 12.079117 30.000000
v 19.781475 12.079117 0.000000
v 20.000000 10.000000 30.000000
v 20.000000 10.000000 0.000000
v 19.781475 7.920883 30.000000
v 19.781475 7.920883 0.000000
v 19.135454 5.932633 30.000000
v 19.135454 5.932633 0.000000
v 18.090170 4.122148 30.000000
v 18.090170 4.122148 0.000000
v 16.691305 2.568551 30.000000
v 16.691305 2.568551 0.000000
v 15.000000 1.339746 30.000000
v 15.000000 1.339746 0.000000
v 13.090170 0.489434 30.000000
v 13.090170 0.489434 0.000000
v 11.045284 0.054780 30.000000
v 11.045284 0.054780 0.000000
v 8.954715 0.054780 30.000000
v 8.954715 0.054780 0.000000
v 6.909830 0.489434 30.000000
v 6.909830 0.489434 0.000000
v 5.000000 1.339746 30.000000
v 5.000000 1.339746 0.000000
v 3.308694 2.568551 30.000000
v 3.308694 2.568551 0.000000
v 1.909830 4.122148 30.000000
v 1.909830 4.122148 0.000000
v 0.864545 5.932633 30.000000
v 0.864545 5.932633 0.000000
v 0.218524 7.920883 30.000000
v 0.218524 7.920883 0.000000
v 0.000000 10.000000 30.000000
v 19.771639 8.851950 30.000000
v 19.121321 7.878680 30.000000
v 18.148050 7.228361 30.000000
v 17.000000 7.000000 30.000000
v 15.851950 7.228361 30.000000
v 14.878679 7.878680 30.000000
v 14.228361 8.851950 30.000000
v 14.228361 11.148050 30.000000
v 14.000000 10.000000 30.000000
v 14.878679 12.121320 30.000000
v 15.851950 12.771638 30.000000
v 17.000000 13.000000 30.000000
v 18.148050 12.771638 30.000000
v 19.121321 12.121320 30.000000
v 19.771639 11.148050 30.000000
v 10.000000 10.000000 0.000000
v 14.228361 11.148050 40.000000
v 14.878679 12.121320 40.000000
v 15.851950 12.771638 40.000000
v 17.000000 13.000000 40.000000
v 18.148050 12.771638 40.000000
v 19.121321 12.121320 40.000000
v 19.771639 11.148050 40.000000
v 20.000000 10.000000 40.000000
v 19.771639 8.851950 40.000000
v 19.121321 7.878680 40.000000
v 18.148050 7.228361 40.000000
v 17.000000 7.000000 40.000000
v 15.851950 7.228361 40.000000
v 14.878679 7.878680 40.000000
v 14.228361 8.851950 40.000000
v 14.000000 10.000000 40.000000
v 17.000000 10.000000 40.000000
vn -0.9945 0.1045 -0.0000
vn -0.9511 0.3090 -0.0000
vn -0.8660 0.5000 -0.0000
vn -0.7431 0.6691 -0.0000
vn -0.5878 0.8090 -0.0000
vn -0.4067 0.9135 -0.0000
vn -0.2079 0.9781 -0.0000
vn -0.0000 1.0000 -0.0000
vn 0.2079 0.9781 -0.0000
vn 0.4067 0.9135 -0.0000
vn 0.5878 0.8090 -0.0000
vn 0.7431 0.6691 -0.0000
vn 0.8660 0.5000 -0.0000
vn 0.9511 0.3090 -0.0000
vn 0.9945 0.1045 -0.0000
vn 0.9945 -0.1045 -0.0000
vn 0.9511 -0.3090 -0.0000
vn 0.8660 -0.5000 -0.0000
vn 0.7431 -0.6691 -0.0000
vn 0.5878 -0.8090 -0.0000
vn 0.4067 -0.9135 -0.0000
vn 0.2079 -0.9781 -0.0000
vn -0.0000 -1.0000 -0.0000
vn -0.2079 -0.9781 -0.0000
vn -0.4067 -0.9135 -0.0000
vn -0.5878 -0.8090 -0.0000
vn -0.7431 -0.6691 -0.0000
vn -0.8660 -0.5000 -0.0000
vn -0.9511 -0.3090 -0.0000
vn -0.9945 -0.1045 -0.0000
vn -0.0000 -0.0000 1.0000
vn -0.0000 -0.0000 -1.0000
vn -0.9808 0.1951 -0.0000
vn -0.8315 0.5556 -0.0000
vn -0.5556 0.8315 -0.0000
vn -0.1951 0.9808 -0.0000
vn 0.1951 0.9808 -0.0000
vn 0.5556 0.8315 -0.0000
vn 0.8315 0.5556 -0.0000
vn 0.9808 0.1951 -0.0000
vn 0.9808 -0.1951 -0.0000
vn 0.8315 -0.5556 -0.0000
vn 0.5556 -0.8315 -0.0000
vn 0.1951 -0.9808 -0.0000
vn -0.1951 -0.9808 -0.0000
vn -0.5556 -0.8315 -0.0000
vn -0.8315 -0.5556 -0.0000
vn -0.9808 -0.1951 -0.0000
s 0
f 1//1 2//1 3//1
f 3//2 2//2 4//2
f 3//2 4//2 5//2
f 5//3 4//3 6//3
f 5//3 6//3 7//3
f 7//4 6//4 8//4
f 7//4 8//4 9//4
f 9//5 8//5 10//5
f 9//5 10//5 11//5
f 11//6 10//6 12//6
f 11//6 12//6 13//6
f 13//7 12//7 14//7
f 13//7 14//7 15//7
f 15//8 14//8 16//8
f 15//8 16//8 17//8
f 17//9 16//9 18//9
f 17//9 18//9 19//9
f 19//10 18//10 20//10
f 19//10 20//10 21//10
f 21//11 20//11 22//11
f 21//11 22//11 23//11
f 23//12 22//12 24//12
f 23//12 24//12 25//12
f 25//13 24//13 26//13
f 25//13 26//13 27//13
f 27//14 26//14 28//14
f 27//14 28//14 29//14
f 29//15 28//15 30//15
f 29//15 30//15 31//15
f 31//16 30//16 32//16
f 31//16 32//16 33//16
f 33//17 32//17 34//17
f 33//17 34//17 35//17
f 35//18 34//18 36//18
f 35//18 36//18 37//18
f 37//19 36//19 38//19
f 37//19 38//19 39//19
f 39//20 38//20 40//20
f 39//20 40//20 41//20
f 41//21 40//21 42//21
f 41//21 42//21 43//21
f 43//22 42//22 44//22
f 43//22 44//22 45//22
f 45//23 44//23 46//23
f 45//23 46//23 47//23
f 47//24 46//24 48//24
f 47//24 48//24 49//24
f 49//25 48//25 50//25
f 49//25 50//25 51//25
f 51//26 50//26 52//26
f 51//26 52//26 53//26
f 53//27 52//27 54//27
f 53//27 54//27 55//27
f 55//28 54//28 56//28
f 55//28 56//28 57//28
f 57//29 56//29 58//29
f 57//29 58//29 59//29
f 59//30 58//30 60//30
f 59//30 60//30 1//30
f 1//1 60//1 2//1
f 32//31 30//31 61//31
f 32//31 61//31 34//31
f 61//31 62//31 34//31
f 34//31 62//31 63//31
f 34//31 63//31 36//31
f 36//31 63//31 64//31
f 65//31 40//31 64//31
f 64//31 40//31 38//31
f 64//31 38//31 36//31
f 48//31 66//31 50//31
f 50//31 66//31 67//31
f 50//31 67//31 52//31
f 8//31 6//31 68//31
f 48//31 46//31 66//31
f 66//31 46//31 44//31
f 66//31 44//31 65//31
f 65//31 44//31 42//31
f 65//31 42//31 40//31
f 69//31 56//31 67//31
f 67//31 56//31 54//31
f 67//31 54//31 52//31
f 2//31 60//31 69//31
f 69//31 60//31 58//31
f 69//31 58//31 56//31
f 68//31 6//31 69//31
f 69//31 6//31 4//31
f 69//31 4//31 2//31
f 16//31 70//31 18//31
f 18//31 70//31 71//31
f 18//31 71//31 20//31
f 16//31 14//31 70//31
f 70//31 14//31 12//31
f 70//31 12//31 68//31
f 68//31 12//31 10//31
f 68//31 10//31 8//31
f 20//31 71//31 22//31
f 22//31 71//31 72//31
f 22//31 72//31 24//31
f 24//31 72//31 73//31
f 24//31 73//31 26//31
f 26//31 73//31 74//31
f 26//31 74//31 28//31
f 28//31 74//31 75//31
f 28//31 75//31 30//31
f 27//32 29//32 76//32
f 76//32 29//32 31//32
f 76//32 31//32 33//32
f 21//32 23//32 76//32
f 76//32 23//32 25//32
f 76//32 25//32 27//32
f 15//32 17//32 76//32
f 76//32 17//32 19//32
f 76//32 19//32 21//32
f 9//32 11//32 76//32
f 76//32 11//32 13//32
f 76//32 13//32 15//32
f 3//32 5//32 76//32
f 76//32 5//32 7//32
f 76//32 7//32 9//32
f 57//32 59//32 76//32
f 76//32 59//32 1//32
f 76//32 1//32 3//32
f 51//32 53//32 76//32
f 76//32 53//32 55//32
f 76//32 55//32 57//32
f 45//32 47//32 76//32
f 76//32 47//32 49//32
f 76//32 49//32 51//32
f 39//32 41//32 76//32
f 76//32 41//32 43//32
f 76//32 43//32 45//32
f 33//32 35//32 76//32
f 76//32 35//32 37//32
f 76//32 37//32 39//32
f 69//33 77//33 68//33
f 68//34 77//34 78//34
f 68//34 78//34 70//34
f 70//35 78//35 79//35
f 70//35 79//35 71//35
f 71//36 79//36 80//36
f 71//36 80//36 72//36
f 72//37 80//37 81//37
f 72//37 81//37 73//37
f 73//38 81//38 82//38
f 73//38 82//38 74//38
f 74//39 82//39 83//39
f 74//39 83//39 75//39
f 75//40 83//40 84//40
f 75//40 84//40 30//40
f 30//41 84//41 85//41
f 30//41 85//41 61//41
f 61//42 85//42 86//42
f 61//42 86//42 62//42
f 62//43 86//43 87//43
f 62//43 87//43 63//43
f 63//44 87//44 88//44
f 63//44 88//44 64//44
f 64//45 88//45 89//45
f 64//45 89//45 65//45
f 65//46 89//46 90//46
f 65//46 90//46 66//46
f 66//47 90//47 91//47
f 66//47 91//47 67//47
f 67//48 91//48 92//48
f 67//48 92//48 69//48
f 69//33 92//33 77//33
f 84//31 83//31 93//31
f 87//31 86//31 93//31
f 93//31 86//31 85//31
f 93//31 85//31 84//31
f 90//31 89//31 93//31
f 93//31 89//31 88//31
f 93//31 88//31 87//31
f 77//31 92//31 93//31
f 93//31 92//31 91//31
f 93//31 91//31 90//31
f 80//31 79//31 93//31
f 93//31 79//31 78//31
f 93//31 78//31 77//31
f 83//31 82//31 93//31
f 93//31 82//31 81//31
f 93//31 81//31 80//31
