# https://github.com/mikedh/trimesh
v 19.90685800 11.36166700 60.00000000
v 20.00000000 10.00000000 60.00000000
v 20.00000000 10.00000000 0.00000000
v 19.90685800 8.63833300 0.00000000
v 19.90685800 8.63833300 60.00000000
v 19.17211200 6.01598900 60.00000000
v 19.17211200 6.01598900 0.00000000
v 17.75711300 3.68912100 60.00000000
v 17.75711300 3.68912100 0.00000000
v 15.76680300 1.83030100 60.00000000
v 15.76680300 1.83030100 0.00000000
v 13.34879600 0.57739000 60.00000000
v 13.34879600 0.57739000 0.00000000
v 10.68242400 0.02331200 60.00000000
v 10.68242400 0.02331200 0.00000000
v 7.96544000 0.20915900 60.00000000
v 7.96544000 0.20915900 0.00000000
v 5.39935000 1.12114800 60.00000000
v 5.39935000 1.12114800 0.00000000
v 3.17446900 2.69164000 60.00000000
v 3.17446900 2.69164000 0.00000000
v 1.45580600 4.80416100 60.00000000
v 1.45580600 4.80416100 0.00000000
v 0.37082700 7.30203200 60.00000000
v 0.37082700 7.30203200 0.00000000
v 0.00000000 10.00000000 60.00000000
v 0.00000000 10.00000000 0.00000000
v 0.37082700 12.69796800 60.00000000
v 0.37082700 12.69796800 0.00000000
v 1.45580600 15.19583900 60.00000000
v 1.45580600 15.19583900 0.00000000
v 3.17446900 17.30835900 60.00000000
v 3.17446900 17.30835900 0.00000000
v 5.39935000 18.87885300 60.00000000
v 5.39935000 18.87885300 0.00000000
v 7.96544000 19.79084000 60.00000000
v 7.96544000 19.79084000 0.00000000
v 10.68242400 19.97668800 60.00000000
v 10.68242400 19.97668800 0.00000000
v 13.34879600 19.42260900 60.00000000
v 13.34879600 19.42260900 0.00000000
v 15.76680300 18.16969900 60.00000000
v 15.76680300 18.16969900 0.00000000
v 17.75711300 16.31087900 60.00000000
v 17.75711300 16.31087900 0.00000000
v 19.17211200 13.98401100 60.00000000
v 19.17211200 13.98401100 0.00000000
v 19.90685800 11.36166700 0.00000000
v 15.00000000 10.00000000 80.00000000
v 14.61939700 11.91341700 80.00000000
v 13.53553400 13.53553400 80.00000000
v 11.91341700 14.61939700 80.00000000
v 10.00000000 15.00000000 80.00000000
v 8.08658200 14.61939700 80.00000000
v 6.46446600 13.53553400 80.00000000
v 5.38060200 11.91341700 80.00000000
v 5.00000000 10.00000000 80.00000000
v 5.38060200 8.08658200 80.00000000
v 6.46446600 6.46446600 80.00000000
v 8.08658200 5.38060200 80.00000000
v 10.00000000 5.00000000 80.00000000
v 11.91341700 5.38060200 80.00000000
v 13.53553400 6.46446600 80.00000000
v 14.61939700 8.08658200 80.00000000
f 5 49 2
f 64 6 8
f 64 5 49
f 64 5 6
f 12 62 14
f 57 24 26
f 18 20 59
f 60 18 59
f 60 18 16
f 22 20 59
f 63 64 8
f 42 51 52
f 42 51 44
f 53 52 38
f 58 57 24
f 58 22 59
f 58 22 24
f 61 62 14
f 61 16 14
f 61 60 16
f 10 63 8
f 10 63 62
f 10 12 62
f 40 52 38
f 40 42 52
f 34 32 55
f 1 49 2
f 50 1 46
f 50 1 49
f 50 46 44
f 50 51 44
f 28 56 57
f 28 57 26
f 36 53 38
f 30 28 56
f 30 56 55
f 30 32 55
f 54 36 53
f 54 36 34
f 54 34 55
f 7 9 8
f 7 6 8
f 46 47 45
f 46 44 45
f 19 20 21
f 19 18 20
f 19 18 16
f 19 17 16
f 15 12 14
f 15 12 13
f 15 17 16
f 15 16 14
f 4 3 2
f 4 5 2
f 4 7 6
f 4 5 6
f 10 9 8
f 10 11 9
f 10 11 13
f 10 12 13
f 25 27 26
f 25 24 26
f 43 44 45
f 43 42 44
f 34 35 33
f 34 32 33
f 1 48 3
f 1 3 2
f 1 48 47
f 1 46 47
f 28 27 26
f 28 29 27
f 23 20 21
f 23 22 20
f 23 25 24
f 23 22 24
f 41 39 38
f 41 40 38
f 41 43 42
f 41 40 42
f 54 56 55
f 54 64 49
f 54 63 62
f 54 60 59
f 54 61 62
f 54 50 49
f 54 58 59
f 54 63 64
f 54 51 52
f 54 53 52
f 54 56 57
f 54 58 57
f 54 61 60
f 54 50 51
f 37 39 38
f 37 36 38
f 37 34 35
f 37 36 34
f 31 35 33
f 31 37 39
f 31 48 3
f 31 15 13
f 31 11 13
f 31 47 45
f 31 19 21
f 31 7 9
f 31 11 9
f 31 4 3
f 31 43 45
f 31 48 47
f 31 19 17
f 31 15 17
f 31 4 7
f 31 41 39
f 31 25 27
f 31 29 27
f 31 23 21
f 31 23 25
f 31 41 43
f 31 37 35
f 31 32 33
f 31 30 32
f 31 28 29
f 31 30 28

