# Blender 4.4.0
# www.blender.org
mtllib Kl1i.mtl
o Kl1i
v 19.906858 11.361667 60.000000
v 20.000000 10.000000 60.000000
v 20.000000 10.000000 0.000000
v 19.906858 8.638333 0.000000
v 19.906858 8.638333 60.000000
v 19.172112 6.015989 60.000000
v 19.172112 6.015989 0.000000
v 17.757113 3.689121 60.000000
v 17.757113 3.689121 0.000000
v 15.766803 1.830301 60.000000
v 15.766803 1.830301 0.000000
v 13.348796 0.577390 60.000000
v 13.348796 0.577390 0.000000
v 10.682424 0.023312 60.000000
v 10.682424 0.023312 0.000000
v 7.965440 0.209159 60.000000
v 7.965440 0.209159 0.000000
v 5.399350 1.121148 60.000000
v 5.399350 1.121148 0.000000
v 3.174469 2.691640 60.000000
v 3.174469 2.691640 0.000000
v 1.455806 4.804161 60.000000
v 1.455806 4.804161 0.000000
v 0.370827 7.302032 60.000000
v 0.370827 7.302032 0.000000
v 0.000000 10.000000 60.000000
v 0.000000 10.000000 0.000000
v 0.370827 12.697968 60.000000
v 0.370827 12.697968 0.000000
v 1.455806 15.195839 60.000000
v 1.455806 15.195839 0.000000
v 3.174469 17.308359 60.000000
v 3.174469 17.308359 0.000000
v 5.399350 18.878853 60.000000
v 5.399350 18.878853 0.000000
v 7.965440 19.790840 60.000000
v 7.965440 19.790840 0.000000
v 10.682424 19.976688 60.000000
v 10.682424 19.976688 0.000000
v 13.348796 19.422609 60.000000
v 13.348796 19.422609 0.000000
v 15.766803 18.169699 60.000000
v 15.766803 18.169699 0.000000
v 17.757113 16.310879 60.000000
v 17.757113 16.310879 0.000000
v 19.172112 13.984011 60.000000
v 19.172112 13.984011 0.000000
v 19.906858 11.361667 0.000000
v 10.000000 10.000000 0.000000
v 15.000000 10.000000 60.000000
v 14.619397 8.086582 60.000000
v 14.619397 11.913417 60.000000
v 13.535534 13.535534 60.000000
v 11.913417 5.380602 60.000000
v 13.535534 6.464466 60.000000
v 5.380602 8.086582 60.000000
v 6.464466 6.464466 60.000000
v 8.086582 5.380602 60.000000
v 6.464466 13.535534 60.000000
v 5.380602 11.913417 60.000000
v 5.000000 10.000000 60.000000
v 10.000000 15.000000 60.000000
v 8.086582 14.619397 60.000000
v 10.000000 5.000000 60.000000
v 11.913417 14.619397 60.000000
v 15.000000 10.000000 80.000000
v 14.619397 11.913417 80.000000
v 13.535534 13.535534 80.000000
v 11.913417 14.619397 80.000000
v 10.000000 15.000000 80.000000
v 8.086582 14.619397 80.000000
v 6.464466 13.535534 80.000000
v 5.380602 11.913417 80.000000
v 5.000000 10.000000 80.000000
v 5.380602 8.086582 80.000000
v 6.464466 6.464466 80.000000
v 8.086582 5.380602 80.000000
v 10.000000 5.000000 80.000000
v 11.913417 5.380602 80.000000
v 13.535534 6.464466 80.000000
v 14.619397 8.086582 80.000000
v 10.000000 10.000000 80.000000
vn 0.9977 0.0682 -0.0000
vn 0.9977 -0.0682 -0.0000
vn 0.9629 -0.2698 -0.0000
vn 0.8544 -0.5196 -0.0000
vn 0.6826 -0.7308 -0.0000
vn 0.4601 -0.8879 -0.0000
vn 0.2035 -0.9791 -0.0000
vn -0.0682 -0.9977 -0.0000
vn -0.3349 -0.9423 -0.0000
vn -0.5767 -0.8170 -0.0000
vn -0.7757 -0.6311 -0.0000
vn -0.9172 -0.3984 -0.0000
vn -0.9907 -0.1362 -0.0000
vn -0.9907 0.1362 -0.0000
vn -0.9172 0.3984 -0.0000
vn -0.7757 0.6311 -0.0000
vn -0.5767 0.8170 -0.0000
vn -0.3349 0.9423 -0.0000
vn -0.0682 0.9977 -0.0000
vn 0.2035 0.9791 -0.0000
vn 0.4601 0.8879 -0.0000
vn 0.6826 0.7308 -0.0000
vn 0.8544 0.5196 -0.0000
vn 0.9629 0.2698 -0.0000
vn -0.0000 -0.0000 -1.0000
vn -0.0000 -0.0000 1.0000
vn 0.9808 0.1951 -0.0000
vn 0.8315 0.5556 -0.0000
vn 0.5556 0.8315 -0.0000
vn 0.1951 0.9808 -0.0000
vn -0.1951 0.9808 -0.0000
vn -0.5556 0.8315 -0.0000
vn -0.8315 0.5556 -0.0000
vn -0.9808 0.1951 -0.0000
vn -0.9808 -0.1951 -0.0000
vn -0.8315 -0.5556 -0.0000
vn -0.5556 -0.8315 -0.0000
vn -0.1951 -0.9808 -0.0000
vn 0.1951 -0.9808 -0.0000
vn 0.5556 -0.8315 -0.0000
vn 0.8315 -0.5556 -0.0000
vn 0.9808 -0.1951 -0.0000
s 0
f 1//1 2//1 3//1
f 3//2 2//2 4//2
f 2//2 5//2 4//2
f 4//3 5//3 6//3
f 4//3 6//3 7//3
f 7//4 6//4 8//4
f 7//4 8//4 9//4
f 9//5 8//5 10//5
f 9//5 10//5 11//5
f 11//6 10//6 12//6
f 11//6 12//6 13//6
f 13//7 12//7 14//7
f 13//7 14//7 15//7
f 15//8 14//8 16//8
f 15//8 16//8 17//8
f 17//9 16//9 18//9
f 17//9 18//9 19//9
f 19//10 18//10 20//10
f 19//10 20//10 21//10
f 21//11 20//11 22//11
f 21//11 22//11 23//11
f 23//12 22//12 24//12
f 23//12 24//12 25//12
f 25//13 24//13 26//13
f 25//13 26//13 27//13
f 27//14 26//14 28//14
f 27//14 28//14 29//14
f 29//15 28//15 30//15
f 29//15 30//15 31//15
f 31//16 30//16 32//16
f 31//16 32//16 33//16
f 33//17 32//17 34//17
f 33//17 34//17 35//17
f 35//18 34//18 36//18
f 35//18 36//18 37//18
f 37//19 36//19 38//19
f 37//19 38//19 39//19
f 39//20 38//20 40//20
f 39//20 40//20 41//20
f 41//21 40//21 42//21
f 41//21 42//21 43//21
f 43//22 42//22 44//22
f 43//22 44//22 45//22
f 45//23 44//23 46//23
f 45//23 46//23 47//23
f 47//24 46//24 1//24
f 47//24 1//24 48//24
f 48//1 1//1 3//1
f 47//25 48//25 49//25
f 49//25 48//25 3//25
f 49//25 3//25 4//25
f 41//25 43//25 49//25
f 49//25 43//25 45//25
f 49//25 45//25 47//25
f 35//25 37//25 49//25
f 49//25 37//25 39//25
f 49//25 39//25 41//25
f 29//25 31//25 49//25
f 49//25 31//25 33//25
f 49//25 33//25 35//25
f 23//25 25//25 49//25
f 49//25 25//25 27//25
f 49//25 27//25 29//25
f 17//25 19//25 49//25
f 49//25 19//25 21//25
f 49//25 21//25 23//25
f 11//25 13//25 49//25
f 49//25 13//25 15//25
f 49//25 15//25 17//25
f 4//25 7//25 49//25
f 49//25 7//25 9//25
f 49//25 9//25 11//25
f 5//26 50//26 51//26
f 5//26 2//26 50//26
f 50//26 2//26 1//26
f 50//26 1//26 52//26
f 52//26 1//26 46//26
f 52//26 46//26 53//26
f 54//26 10//26 55//26
f 55//26 10//26 8//26
f 55//26 8//26 51//26
f 51//26 8//26 6//26
f 51//26 6//26 5//26
f 56//26 22//26 57//26
f 57//26 22//26 20//26
f 57//26 20//26 58//26
f 59//26 30//26 60//26
f 60//26 30//26 28//26
f 60//26 28//26 61//26
f 61//26 28//26 26//26
f 61//26 26//26 56//26
f 56//26 26//26 24//26
f 56//26 24//26 22//26
f 62//26 36//26 63//26
f 63//26 36//26 34//26
f 63//26 34//26 59//26
f 59//26 34//26 32//26
f 59//26 32//26 30//26
f 20//26 18//26 58//26
f 58//26 18//26 16//26
f 58//26 16//26 64//26
f 64//26 16//26 14//26
f 64//26 14//26 54//26
f 54//26 14//26 12//26
f 54//26 12//26 10//26
f 46//26 44//26 53//26
f 53//26 44//26 42//26
f 53//26 42//26 65//26
f 65//26 42//26 40//26
f 65//26 40//26 62//26
f 62//26 40//26 38//26
f 62//26 38//26 36//26
f 66//27 52//27 67//27
f 67//28 52//28 53//28
f 67//28 53//28 68//28
f 68//29 53//29 65//29
f 68//29 65//29 69//29
f 69//30 65//30 62//30
f 69//30 62//30 70//30
f 70//31 62//31 63//31
f 70//31 63//31 71//31
f 71//32 63//32 59//32
f 71//32 59//32 72//32
f 72//33 59//33 60//33
f 72//33 60//33 73//33
f 73//34 60//34 61//34
f 73//34 61//34 74//34
f 74//35 61//35 56//35
f 74//35 56//35 75//35
f 75//36 56//36 57//36
f 75//36 57//36 76//36
f 76//37 57//37 58//37
f 76//37 58//37 77//37
f 77//38 58//38 64//38
f 77//38 64//38 78//38
f 78//39 64//39 54//39
f 78//39 54//39 79//39
f 79//40 54//40 55//40
f 79//40 55//40 80//40
f 80//41 55//41 51//41
f 80//41 51//41 81//41
f 81//42 51//42 50//42
f 81//42 50//42 66//42
f 66//27 50//27 52//27
f 66//26 67//26 82//26
f 79//26 80//26 82//26
f 82//26 80//26 81//26
f 82//26 81//26 66//26
f 76//26 77//26 82//26
f 82//26 77//26 78//26
f 82//26 78//26 79//26
f 73//26 74//26 82//26
f 82//26 74//26 75//26
f 82//26 75//26 76//26
f 70//26 71//26 82//26
f 82//26 71//26 72//26
f 82//26 72//26 73//26
f 67//26 68//26 82//26
f 82//26 68//26 69//26
f 82//26 69//26 70//26
