# https://github.com/mikedh/trimesh
v 14.73017500 18.81053000 0.00000000
v 14.73017500 18.81053000 80.00000000
v 12.15865300 19.76423100 0.00000000
v 12.15865300 19.76423100 80.00000000
v 9.42475200 19.98344000 0.00000000
v 9.42475200 19.98344000 80.00000000
v 6.73412300 19.45166800 0.00000000
v 6.73412300 19.45166800 80.00000000
v 4.28916200 18.20891800 0.00000000
v 4.28916200 18.20891800 80.00000000
v 2.27378500 16.34866900 0.00000000
v 2.27378500 16.34866900 80.00000000
v 0.83959500 14.01085700 0.00000000
v 0.83959500 14.01085700 80.00000000
v 0.09447400 11.37133800 0.00000000
v 0.09447400 11.37133800 80.00000000
v 0.09447400 8.62866200 0.00000000
v 0.09447400 8.62866200 80.00000000
v 0.83959500 5.98914300 0.00000000
v 0.83959500 5.98914300 80.00000000
v 2.27378500 3.65133000 0.00000000
v 2.27378500 3.65133000 80.00000000
v 4.28916200 1.79108200 0.00000000
v 4.28916200 1.79108200 80.00000000
v 6.73412300 0.54833100 0.00000000
v 6.73412300 0.54833100 80.00000000
v 9.42475200 0.01655900 0.00000000
v 9.42475200 0.01655900 80.00000000
v 12.15865300 0.23576800 0.00000000
v 12.15865300 0.23576800 80.00000000
v 14.73017500 1.18946900 0.00000000
v 14.73017500 1.18946900 80.00000000
v 24.00000000 7.50000000 80.00000000
v 24.00000000 12.50000000 80.00000000
v 24.00000000 12.50000000 0.00000000
v 24.00000000 7.50000000 0.00000000
f 34 36 35
f 34 36 33
f 34 1 35
f 34 2 1
f 29 28 30
f 29 28 27
f 32 31 36
f 32 36 33
f 32 29 31
f 32 29 30
f 18 17 15
f 18 16 15
f 12 11 9
f 12 9 10
f 3 29 27
f 3 13 15
f 3 21 19
f 3 17 15
f 3 7 5
f 3 36 35
f 3 1 35
f 3 11 9
f 3 7 9
f 3 25 27
f 3 17 19
f 3 13 11
f 3 31 36
f 3 21 23
f 3 25 23
f 3 29 31
f 3 2 1
f 3 4 2
f 6 3 5
f 6 3 4
f 26 25 23
f 26 23 24
f 26 25 27
f 26 28 27
f 20 17 19
f 20 18 17
f 14 13 15
f 14 16 15
f 14 13 11
f 14 12 11
f 8 7 9
f 8 9 10
f 8 7 5
f 8 6 5
f 22 14 16
f 22 12 10
f 22 18 16
f 22 34 33
f 22 28 30
f 22 32 33
f 22 34 2
f 22 4 2
f 22 32 30
f 22 26 24
f 22 20 18
f 22 6 4
f 22 26 28
f 22 8 10
f 22 14 12
f 22 8 6
f 22 21 23
f 22 23 24
f 22 21 19
f 22 20 19

