# Blender 4.4.0
# www.blender.org
mtllib Kl2a.mtl
o Kl2a
v 19.682459 12.500000 80.000000
v 19.682459 12.500000 0.000000
v 18.639097 15.036467 0.000000
v 18.639097 15.036467 80.000000
v 16.945879 17.194077 0.000000
v 16.945879 17.194077 80.000000
v 14.730175 18.810530 0.000000
v 14.730175 18.810530 80.000000
v 12.158653 19.764231 0.000000
v 12.158653 19.764231 80.000000
v 9.424752 19.983440 0.000000
v 9.424752 19.983440 80.000000
v 6.734123 19.451668 0.000000
v 6.734123 19.451668 80.000000
v 4.289162 18.208918 0.000000
v 4.289162 18.208918 80.000000
v 2.273785 16.348669 0.000000
v 2.273785 16.348669 80.000000
v 0.839595 14.010857 0.000000
v 0.839595 14.010857 80.000000
v 0.094474 11.371338 0.000000
v 0.094474 11.371338 80.000000
v 0.094474 8.628662 0.000000
v 0.094474 8.628662 80.000000
v 0.839595 5.989143 0.000000
v 0.839595 5.989143 80.000000
v 2.273785 3.651330 0.000000
v 2.273785 3.651330 80.000000
v 4.289162 1.791082 0.000000
v 4.289162 1.791082 80.000000
v 6.734123 0.548331 0.000000
v 6.734123 0.548331 80.000000
v 9.424752 0.016559 0.000000
v 9.424752 0.016559 80.000000
v 12.158653 0.235768 0.000000
v 12.158653 0.235768 80.000000
v 14.730175 1.189469 0.000000
v 14.730175 1.189469 80.000000
v 16.945879 2.805922 0.000000
v 16.945879 2.805922 80.000000
v 18.639097 4.963532 0.000000
v 18.639097 4.963532 80.000000
v 19.682459 7.500000 0.000000
v 19.682459 7.500000 80.000000
v 24.000000 7.500000 80.000000
v 24.000000 12.500000 80.000000
v 24.000000 12.500000 0.000000
v 24.000000 7.500000 0.000000
vn 0.9248 0.3804 -0.0000
vn 0.7867 0.6174 -0.0000
vn 0.5894 0.8079 -0.0000
vn 0.3477 0.9376 -0.0000
vn 0.0799 0.9968 -0.0000
vn -0.1939 0.9810 -0.0000
vn -0.4531 0.8915 -0.0000
vn -0.6783 0.7348 -0.0000
vn -0.8524 0.5229 -0.0000
vn -0.9624 0.2717 -0.0000
vn -1.0000 -0.0000 -0.0000
vn -0.9624 -0.2717 -0.0000
vn -0.8524 -0.5229 -0.0000
vn -0.6783 -0.7348 -0.0000
vn -0.4531 -0.8915 -0.0000
vn -0.1939 -0.9810 -0.0000
vn 0.0799 -0.9968 -0.0000
vn 0.3477 -0.9376 -0.0000
vn 0.5894 -0.8079 -0.0000
vn 0.7867 -0.6174 -0.0000
vn 0.9248 -0.3804 -0.0000
vn -0.0000 -0.0000 1.0000
vn -0.0000 -0.0000 -1.0000
vn -0.0000 1.0000 -0.0000
vn -0.0000 -1.0000 -0.0000
vn 1.0000 -0.0000 -0.0000
s 0
f 1//1 2//1 3//1
f 1//1 3//1 4//1
f 4//2 3//2 5//2
f 4//2 5//2 6//2
f 6//3 5//3 7//3
f 6//3 7//3 8//3
f 8//4 7//4 9//4
f 8//4 9//4 10//4
f 10//5 9//5 11//5
f 10//5 11//5 12//5
f 12//6 11//6 13//6
f 12//6 13//6 14//6
f 14//7 13//7 15//7
f 14//7 15//7 16//7
f 16//8 15//8 17//8
f 16//8 17//8 18//8
f 18//9 17//9 19//9
f 18//9 19//9 20//9
f 20//10 19//10 21//10
f 20//10 21//10 22//10
f 22//11 21//11 23//11
f 22//11 23//11 24//11
f 24//12 23//12 25//12
f 24//12 25//12 26//12
f 26//13 25//13 27//13
f 26//13 27//13 28//13
f 28//14 27//14 29//14
f 28//14 29//14 30//14
f 30//15 29//15 31//15
f 30//15 31//15 32//15
f 32//16 31//16 33//16
f 32//16 33//16 34//16
f 34//17 33//17 35//17
f 34//17 35//17 36//17
f 36//18 35//18 37//18
f 36//18 37//18 38//18
f 38//19 37//19 39//19
f 38//19 39//19 40//19
f 40//20 39//20 41//20
f 40//20 41//20 42//20
f 42//21 41//21 43//21
f 42//21 43//21 44//21
f 44//22 45//22 46//22
f 24//22 26//22 44//22
f 44//22 26//22 28//22
f 46//22 1//22 44//22
f 44//22 1//22 4//22
f 44//22 4//22 6//22
f 6//22 8//22 44//22
f 44//22 8//22 10//22
f 44//22 10//22 12//22
f 28//22 30//22 44//22
f 44//22 30//22 32//22
f 44//22 32//22 34//22
f 12//22 14//22 44//22
f 44//22 14//22 16//22
f 44//22 16//22 18//22
f 34//22 36//22 44//22
f 44//22 36//22 38//22
f 44//22 38//22 42//22
f 42//22 38//22 40//22
f 18//22 20//22 44//22
f 44//22 20//22 22//22
f 44//22 22//22 24//22
f 2//23 47//23 48//23
f 39//23 37//23 41//23
f 41//23 37//23 35//23
f 41//23 35//23 43//23
f 11//23 9//23 33//23
f 33//23 9//23 7//23
f 48//23 43//23 2//23
f 2//23 43//23 35//23
f 2//23 35//23 3//23
f 3//23 35//23 33//23
f 3//23 33//23 5//23
f 5//23 33//23 7//23
f 33//23 31//23 11//23
f 11//23 31//23 29//23
f 11//23 29//23 27//23
f 27//23 25//23 11//23
f 11//23 25//23 23//23
f 11//23 23//23 21//23
f 21//23 19//23 17//23
f 17//23 15//23 21//23
f 21//23 15//23 13//23
f 21//23 13//23 11//23
f 46//24 47//24 1//24
f 1//24 47//24 2//24
f 48//25 45//25 43//25
f 43//25 45//25 44//25
f 48//26 47//26 45//26
f 45//26 47//26 46//26
