# Blender 4.4.0
# www.blender.org
mtllib Kl4i.mtl
o Kl4i
v 10.000000 0.000000 40.000000
v 10.000000 0.000000 80.000000
v 7.965440 0.209159 80.000000
v 10.682424 0.023312 40.000000
v 7.965440 0.209159 0.000000
v 10.682424 0.023312 0.000000
v 13.348796 0.577390 0.000000
v 13.348796 0.577390 40.000000
v 15.766803 1.830301 0.000000
v 15.766803 1.830301 40.000000
v 17.757113 3.689121 0.000000
v 17.757113 3.689121 40.000000
v 19.172112 6.015989 0.000000
v 19.172112 6.015989 40.000000
v 19.906858 8.638333 0.000000
v 19.906858 8.638333 40.000000
v 20.000000 10.000000 0.000000
v 19.906858 11.361667 40.000000
v 10.682424 19.976688 0.000000
v 13.348796 19.422609 40.000000
v 13.348796 19.422609 0.000000
v 15.766803 18.169699 40.000000
v 15.766803 18.169699 0.000000
v 17.757113 16.310879 40.000000
v 17.757113 16.310879 0.000000
v 19.172112 13.984011 40.000000
v 19.172112 13.984011 0.000000
v 19.906858 11.361667 0.000000
v 7.965440 19.790840 80.000000
v 10.000000 20.000000 80.000000
v 10.000000 20.000000 40.000000
v 5.399350 1.121148 80.000000
v 5.399350 1.121148 0.000000
v 3.174469 2.691640 80.000000
v 3.174469 2.691640 0.000000
v 1.455806 4.804161 80.000000
v 1.455806 4.804161 0.000000
v 0.370827 7.302032 80.000000
v 0.370827 7.302032 0.000000
v 0.000000 10.000000 80.000000
v 0.000000 10.000000 0.000000
v 0.370827 12.697968 80.000000
v 0.370827 12.697968 0.000000
v 1.455806 15.195839 80.000000
v 1.455806 15.195839 0.000000
v 3.174469 17.308359 80.000000
v 3.174469 17.308359 0.000000
v 5.399350 18.878853 80.000000
v 5.399350 18.878853 0.000000
v 7.965440 19.790840 0.000000
v 10.682424 19.976688 40.000000
v 10.000000 10.000000 0.000000
vn -0.1023 -0.9948 -0.0000
vn 0.0341 -0.9994 -0.0070
vn -0.0682 -0.9977 -0.0000
vn 0.2035 -0.9791 -0.0000
vn 0.4601 -0.8879 -0.0000
vn 0.6826 -0.7308 -0.0000
vn 0.8544 -0.5196 -0.0000
vn 0.9629 -0.2698 -0.0000
vn 0.9977 -0.0682 -0.0000
vn 1.0000 -0.0000 0.0023
vn 0.2035 0.9791 -0.0000
vn 0.4601 0.8879 -0.0000
vn 0.6826 0.7308 -0.0000
vn 0.8544 0.5196 -0.0000
vn 0.9629 0.2698 -0.0000
vn 0.9977 0.0682 -0.0000
vn -0.1023 0.9948 -0.0000
vn -0.3349 -0.9423 -0.0000
vn -0.5767 -0.8170 -0.0000
vn -0.7757 -0.6311 -0.0000
vn -0.9172 -0.3984 -0.0000
vn -0.9907 -0.1362 -0.0000
vn -0.9907 0.1362 -0.0000
vn -0.9172 0.3984 -0.0000
vn -0.7757 0.6311 -0.0000
vn -0.5767 0.8170 -0.0000
vn -0.3349 0.9423 -0.0000
vn -0.0682 0.9977 -0.0017
vn 0.0341 0.9994 -0.0000
vn -0.0000 -0.0000 1.0000
vn -0.0000 -0.0000 -1.0000
vn 1.0000 -0.0000 -0.0000
s 0
f 1//1 2//1 3//1
f 4//2 1//2 5//2
f 5//3 6//3 4//3
f 4//4 6//4 7//4
f 4//4 7//4 8//4
f 8//5 7//5 9//5
f 8//5 9//5 10//5
f 10//6 9//6 11//6
f 10//6 11//6 12//6
f 12//7 11//7 13//7
f 12//7 13//7 14//7
f 14//8 13//8 15//8
f 14//8 15//8 16//8
f 16//9 15//9 17//9
f 16//10 17//10 18//10
f 19//11 20//11 21//11
f 21//12 20//12 22//12
f 21//12 22//12 23//12
f 23//13 22//13 24//13
f 23//13 24//13 25//13
f 25//14 24//14 26//14
f 25//14 26//14 27//14
f 27//15 26//15 18//15
f 27//15 18//15 28//15
f 28//16 18//16 17//16
f 29//17 30//17 31//17
f 1//1 3//1 5//1
f 5//18 3//18 32//18
f 5//18 32//18 33//18
f 33//19 32//19 34//19
f 33//19 34//19 35//19
f 35//20 34//20 36//20
f 35//20 36//20 37//20
f 37//21 36//21 38//21
f 37//21 38//21 39//21
f 39//22 38//22 40//22
f 39//22 40//22 41//22
f 41//23 40//23 42//23
f 41//23 42//23 43//23
f 43//24 42//24 44//24
f 43//24 44//24 45//24
f 45//25 44//25 46//25
f 45//25 46//25 47//25
f 47//26 46//26 48//26
f 47//26 48//26 49//26
f 49//27 48//27 29//27
f 49//27 29//27 50//27
f 50//17 29//17 31//17
f 50//28 31//28 19//28
f 19//29 31//29 51//29
f 19//11 51//11 20//11
f 3//30 2//30 29//30
f 29//30 2//30 30//30
f 40//30 38//30 42//30
f 42//30 38//30 44//30
f 44//30 38//30 46//30
f 46//30 38//30 36//30
f 46//30 36//30 34//30
f 29//30 48//30 3//30
f 3//30 48//30 46//30
f 3//30 46//30 32//30
f 32//30 46//30 34//30
f 27//31 28//31 52//31
f 52//31 28//31 17//31
f 52//31 17//31 15//31
f 21//31 23//31 52//31
f 52//31 23//31 25//31
f 52//31 25//31 27//31
f 49//31 50//31 52//31
f 52//31 50//31 19//31
f 52//31 19//31 21//31
f 43//31 45//31 52//31
f 52//31 45//31 47//31
f 52//31 47//31 49//31
f 37//31 39//31 52//31
f 52//31 39//31 41//31
f 52//31 41//31 43//31
f 5//31 33//31 52//31
f 52//31 33//31 35//31
f 52//31 35//31 37//31
f 9//31 7//31 52//31
f 52//31 7//31 6//31
f 52//31 6//31 5//31
f 15//31 13//31 52//31
f 52//31 13//31 11//31
f 52//31 11//31 9//31
f 10//30 12//30 26//30
f 4//30 24//30 22//30
f 24//30 4//30 26//30
f 26//30 4//30 8//30
f 26//30 8//30 10//30
f 31//30 1//30 51//30
f 51//30 1//30 4//30
f 51//30 4//30 20//30
f 20//30 4//30 22//30
f 12//30 14//30 26//30
f 26//30 14//30 16//30
f 26//30 16//30 18//30
f 1//32 31//32 2//32
f 2//32 31//32 30//32
