# https://github.com/mikedh/trimesh
v 10.00000000 0.00000000 40.00000000
v 10.00000000 0.00000000 80.00000000
v 7.96544000 0.20915900 80.00000000
v 10.68242400 0.02331200 40.00000000
v 7.96544000 0.20915900 0.00000000
v 10.68242400 0.02331200 0.00000000
v 13.34879600 0.57739000 0.00000000
v 13.34879600 0.57739000 40.00000000
v 15.76680300 1.83030100 0.00000000
v 15.76680300 1.83030100 40.00000000
v 17.75711300 3.68912100 0.00000000
v 17.75711300 3.68912100 40.00000000
v 19.17211200 6.01598900 0.00000000
v 19.17211200 6.01598900 40.00000000
v 19.90685800 8.63833300 0.00000000
v 19.90685800 8.63833300 40.00000000
v 20.00000000 10.00000000 0.00000000
v 19.90685800 11.36166700 40.00000000
v 10.68242400 19.97668800 0.00000000
v 13.34879600 19.42260900 40.00000000
v 13.34879600 19.42260900 0.00000000
v 15.76680300 18.16969900 40.00000000
v 15.76680300 18.16969900 0.00000000
v 17.75711300 16.31087900 40.00000000
v 17.75711300 16.31087900 0.00000000
v 19.17211200 13.98401100 40.00000000
v 19.17211200 13.98401100 0.00000000
v 19.90685800 11.36166700 0.00000000
v 7.96544000 19.79084000 80.00000000
v 10.00000000 20.00000000 80.00000000
v 10.00000000 20.00000000 40.00000000
v 5.39935000 1.12114800 80.00000000
v 5.39935000 1.12114800 0.00000000
v 3.17446900 2.69164000 80.00000000
v 3.17446900 2.69164000 0.00000000
v 1.45580600 4.80416100 80.00000000
v 1.45580600 4.80416100 0.00000000
v 0.37082700 7.30203200 80.00000000
v 0.37082700 7.30203200 0.00000000
v 0.00000000 10.00000000 80.00000000
v 0.00000000 10.00000000 0.00000000
v 0.37082700 12.69796800 80.00000000
v 0.37082700 12.69796800 0.00000000
v 1.45580600 15.19583900 80.00000000
v 1.45580600 15.19583900 0.00000000
v 3.17446900 17.30835900 80.00000000
v 3.17446900 17.30835900 0.00000000
v 5.39935000 18.87885300 80.00000000
v 5.39935000 18.87885300 0.00000000
v 7.96544000 19.79084000 0.00000000
v 10.68242400 19.97668800 40.00000000
f 6 5 1
f 12 14 2
f 4 8 2
f 19 50 31
f 10 8 2
f 10 12 2
f 16 15 17
f 16 18 17
f 16 14 2
f 51 30 20
f 28 18 17
f 26 30 18
f 26 30 24
f 22 30 24
f 22 30 20
f 42 41 43
f 42 41 40
f 38 41 39
f 38 41 40
f 4 6 1
f 4 2 1
f 4 6 7
f 4 8 7
f 3 2 1
f 3 5 1
f 33 3 32
f 33 3 5
f 33 32 34
f 33 35 34
f 10 7 9
f 10 8 7
f 11 10 9
f 11 10 12
f 11 13 14
f 11 12 14
f 16 15 13
f 16 13 14
f 30 16 2
f 30 16 18
f 44 45 47
f 44 46 47
f 44 42 43
f 44 45 43
f 37 38 39
f 37 36 38
f 37 36 34
f 37 35 34
f 51 19 21
f 51 20 21
f 51 19 31
f 51 30 31
f 29 30 31
f 29 50 31
f 28 6 5
f 28 49 47
f 28 41 39
f 28 15 17
f 28 7 9
f 28 45 47
f 28 19 21
f 28 6 7
f 28 33 5
f 28 11 9
f 28 41 43
f 28 23 21
f 28 15 13
f 28 37 39
f 28 19 50
f 28 49 50
f 28 45 43
f 28 33 35
f 28 11 13
f 28 27 25
f 28 23 25
f 28 37 35
f 26 27 25
f 26 25 24
f 26 28 27
f 26 28 18
f 22 23 25
f 22 25 24
f 22 23 21
f 22 20 21
f 48 3 2
f 48 42 40
f 48 38 40
f 48 30 2
f 48 36 34
f 48 32 34
f 48 36 38
f 48 3 32
f 48 44 46
f 48 44 42
f 48 29 30
f 48 49 47
f 48 46 47
f 48 49 50
f 48 29 50

