ISO-10303-21;
HEADER;
FILE_DESCRIPTION (( 'STEP AP214' ),
    '1' );
FILE_NAME ('Qf1i.STEP',
    '2025-09-08T12:29:35',
    ( '' ),
    ( '' ),
    'SwSTEP 2.0',
    'SolidWorks 2024',
    '' );
FILE_SCHEMA (( 'AUTOMOTIVE_DESIGN' ));
ENDSEC;

DATA;
#1 = CARTESIAN_POINT ( 'NONE',  ( 75.00000000000002842, 4.999999999999990230, 5.000000000000000000 ) ) ;
#2 = VECTOR ( 'NONE', #354, 1000.000000000000000 ) ;
#3 = DIRECTION ( 'NONE',  ( -0.000000000000000000, -0.000000000000000000, 1.000000000000000000 ) ) ;
#4 = DIRECTION ( 'NONE',  ( -6.938893903907228378E-16, 1.000000000000000000, -0.000000000000000000 ) ) ;
#5 = EDGE_LOOP ( 'NONE', ( #263, #210, #380, #298 ) ) ;
#6 = EDGE_CURVE ( 'NONE', #423, #182, #155, .T. ) ;
#7 = LINE ( 'NONE', #294, #47 ) ;
#8 = ADVANCED_FACE ( 'NONE', ( #231 ), #335, .F. ) ;
#9 = VERTEX_POINT ( 'NONE', #371 ) ;
#10 = CARTESIAN_POINT ( 'NONE',  ( 5.000000000000000000, 75.00000000000000000, 10.00000000000000000 ) ) ;
#11 = VECTOR ( 'NONE', #344, 1000.000000000000000 ) ;
#12 = VECTOR ( 'NONE', #304, 1000.000000000000000 ) ;
#13 = APPLICATION_CONTEXT ( 'automotive_design' ) ;
#14 = LINE ( 'NONE', #415, #12 ) ;
#15 = SURFACE_STYLE_USAGE ( .BOTH. , #18 ) ;
#16 = APPLICATION_PROTOCOL_DEFINITION ( 'draft international standard', 'automotive_design', 1998, #13 ) ;
#17 = EDGE_CURVE ( 'NONE', #106, #219, #438, .T. ) ;
#18 = SURFACE_SIDE_STYLE ('',( #347 ) ) ;
#19 = VECTOR ( 'NONE', #258, 1000.000000000000000 ) ;
#20 = CARTESIAN_POINT ( 'NONE',  ( 0.000000000000000000, 0.000000000000000000, 10.00000000000000000 ) ) ;
#21 = VECTOR ( 'NONE', #163, 1000.000000000000000 ) ;
#22 = ORIENTED_EDGE ( 'NONE', *, *, #251, .F. ) ;
#23 = DIRECTION ( 'NONE',  ( 0.000000000000000000, 0.000000000000000000, 1.000000000000000000 ) ) ;
#24 = EDGE_CURVE ( 'NONE', #315, #216, #188, .T. ) ;
#25 = ORIENTED_EDGE ( 'NONE', *, *, #281, .T. ) ;
#26 = EDGE_CURVE ( 'NONE', #182, #468, #265, .T. ) ;
#27 = CARTESIAN_POINT ( 'NONE',  ( 0.000000000000000000, 0.000000000000000000, 10.00000000000000000 ) ) ;
#28 = VERTEX_POINT ( 'NONE', #40 ) ;
#29 = CARTESIAN_POINT ( 'NONE',  ( 10.00000000000000000, 69.99999999999998579, 10.00000000000000000 ) ) ;
#30 = VECTOR ( 'NONE', #192, 1000.000000000000000 ) ;
#31 = ORIENTED_EDGE ( 'NONE', *, *, #24, .T. ) ;
#32 = PLANE ( 'NONE',  #167 ) ;
#33 = ORIENTED_EDGE ( 'NONE', *, *, #95, .T. ) ;
#34 = ORIENTED_EDGE ( 'NONE', *, *, #95, .F. ) ;
#35 = LINE ( 'NONE', #361, #127 ) ;
#36 = CARTESIAN_POINT ( 'NONE',  ( 5.000000000000007994, 4.999999999999990230, 10.00000000000000000 ) ) ;
#37 = AXIS2_PLACEMENT_3D ( 'NONE', #406, #116, #333 ) ;
#38 = VECTOR ( 'NONE', #255, 1000.000000000000000 ) ;
#39 = DIRECTION ( 'NONE',  ( 0.000000000000000000, 0.000000000000000000, -1.000000000000000000 ) ) ;
#40 = CARTESIAN_POINT ( 'NONE',  ( 10.00000000000000711, 9.999999999999991118, 10.00000000000000000 ) ) ;
#41 = EDGE_CURVE ( 'NONE', #55, #468, #153, .T. ) ;
#42 = CARTESIAN_POINT ( 'NONE',  ( 10.00000000000000000, 69.99999999999998579, 5.000000000000000000 ) ) ;
#43 = EDGE_LOOP ( 'NONE', ( #254, #162, #270, #244 ) ) ;
#44 = ORIENTED_EDGE ( 'NONE', *, *, #323, .T. ) ;
#45 = CARTESIAN_POINT ( 'NONE',  ( 0.000000000000000000, 0.000000000000000000, 0.000000000000000000 ) ) ;
#46 = ORIENTED_EDGE ( 'NONE', *, *, #148, .F. ) ;
#47 = VECTOR ( 'NONE', #236, 1000.000000000000000 ) ;
#48 = ORIENTED_EDGE ( 'NONE', *, *, #316, .T. ) ;
#49 = EDGE_CURVE ( 'NONE', #468, #212, #83, .T. ) ;
#50 = AXIS2_PLACEMENT_3D ( 'NONE', #442, #126, #275 ) ;
#51 = CARTESIAN_POINT ( 'NONE',  ( 5.000000000000000000, 75.00000000000000000, 5.000000000000000000 ) ) ;
#52 = SHAPE_DEFINITION_REPRESENTATION ( #88, #400 ) ;
#53 = ORIENTED_EDGE ( 'NONE', *, *, #17, .T. ) ;
#54 = PLANE ( 'NONE',  #205 ) ;
#55 = VERTEX_POINT ( 'NONE', #36 ) ;
#56 = DIRECTION ( 'NONE',  ( -1.982541115402065110E-16, 1.000000000000000000, 0.000000000000000000 ) ) ;
#57 = CARTESIAN_POINT ( 'NONE',  ( 5.000000000000000000, 75.00000000000000000, 5.000000000000000000 ) ) ;
#58 = FACE_OUTER_BOUND ( 'NONE', #63, .T. ) ;
#59 = ADVANCED_FACE ( 'NONE', ( #193 ), #341, .F. ) ;
#60 = FACE_OUTER_BOUND ( 'NONE', #369, .T. ) ;
#61 = ORIENTED_EDGE ( 'NONE', *, *, #41, .F. ) ;
#62 = CARTESIAN_POINT ( 'NONE',  ( 70.00000000000000000, 9.999999999999991118, 5.000000000000000000 ) ) ;
#63 = EDGE_LOOP ( 'NONE', ( #145, #460, #357, #250 ) ) ;
#64 = CARTESIAN_POINT ( 'NONE',  ( 0.000000000000000000, 0.000000000000000000, 10.00000000000000000 ) ) ;
#65 = ORIENTED_EDGE ( 'NONE', *, *, #17, .F. ) ;
#66 = CARTESIAN_POINT ( 'NONE',  ( 0.000000000000000000, 80.00000000000000000, 10.00000000000000000 ) ) ;
#67 = VECTOR ( 'NONE', #432, 1000.000000000000000 ) ;
#68 = ORIENTED_EDGE ( 'NONE', *, *, #407, .F. ) ;
#69 = VECTOR ( 'NONE', #393, 1000.000000000000000 ) ;
#70 = PLANE ( 'NONE',  #194 ) ;
#71 = ORIENTED_EDGE ( 'NONE', *, *, #49, .T. ) ;
#72 = DIRECTION ( 'NONE',  ( -0.000000000000000000, -0.000000000000000000, 1.000000000000000000 ) ) ;
#73 = LINE ( 'NONE', #339, #224 ) ;
#74 = EDGE_CURVE ( 'NONE', #84, #225, #73, .T. ) ;
#75 = CARTESIAN_POINT ( 'NONE',  ( 69.99999999999997158, 69.99999999999998579, 5.000000000000000000 ) ) ;
#76 = EDGE_CURVE ( 'NONE', #87, #216, #303, .T. ) ;
#77 = LINE ( 'NONE', #408, #363 ) ;
#78 = VECTOR ( 'NONE', #72, 1000.000000000000000 ) ;
#79 = CARTESIAN_POINT ( 'NONE',  ( 0.000000000000000000, 80.00000000000000000, 10.00000000000000000 ) ) ;
#80 = ORIENTED_EDGE ( 'NONE', *, *, #174, .F. ) ;
#81 = VERTEX_POINT ( 'NONE', #51 ) ;
#82 = DIRECTION ( 'NONE',  ( 0.000000000000000000, 1.000000000000000000, 0.000000000000000000 ) ) ;
#83 = LINE ( 'NONE', #230, #19 ) ;
#84 = VERTEX_POINT ( 'NONE', #268 ) ;
#85 = VECTOR ( 'NONE', #358, 1000.000000000000000 ) ;
#86 = CARTESIAN_POINT ( 'NONE',  ( 0.000000000000000000, 0.000000000000000000, 0.000000000000000000 ) ) ;
#87 = VERTEX_POINT ( 'NONE', #112 ) ;
#88 = PRODUCT_DEFINITION_SHAPE ( 'NONE', 'NONE',  #203 ) ;
#89 = FACE_OUTER_BOUND ( 'NONE', #456, .T. ) ;
#90 = FACE_OUTER_BOUND ( 'NONE', #291, .T. ) ;
#91 =( NAMED_UNIT ( * ) SI_UNIT ( $, .STERADIAN. ) SOLID_ANGLE_UNIT ( ) );
#92 = CARTESIAN_POINT ( 'NONE',  ( 80.00000000000000000, 80.00000000000000000, 10.00000000000000000 ) ) ;
#93 = CARTESIAN_POINT ( 'NONE',  ( 70.00000000000000000, 9.999999999999991118, 5.000000000000000000 ) ) ;
#94 = EDGE_CURVE ( 'NONE', #190, #109, #77, .T. ) ;
#95 = EDGE_CURVE ( 'NONE', #81, #423, #7, .T. ) ;
#96 = FACE_OUTER_BOUND ( 'NONE', #125, .T. ) ;
#97 = ORIENTED_EDGE ( 'NONE', *, *, #6, .F. ) ;
#98 =( GEOMETRIC_REPRESENTATION_CONTEXT ( 3 ) GLOBAL_UNCERTAINTY_ASSIGNED_CONTEXT ( ( #151 ) ) GLOBAL_UNIT_ASSIGNED_CONTEXT ( ( #122, #235, #91 ) ) REPRESENTATION_CONTEXT ( 'NONE', 'WORKASPACE' ) );
#99 = PRODUCT_RELATED_PRODUCT_CATEGORY ( 'part', '', ( #266 ) ) ;
#100 = AXIS2_PLACEMENT_3D ( 'NONE', #397, #184, #430 ) ;
#101 = CARTESIAN_POINT ( 'NONE',  ( 75.00000000000001421, 75.00000000000000000, 5.000000000000000000 ) ) ;
#102 = ORIENTED_EDGE ( 'NONE', *, *, #175, .T. ) ;
#103 = LINE ( 'NONE', #389, #214 ) ;
#104 = ORIENTED_EDGE ( 'NONE', *, *, #444, .T. ) ;
#105 = DIRECTION ( 'NONE',  ( 0.000000000000000000, -0.000000000000000000, 1.000000000000000000 ) ) ;
#106 = VERTEX_POINT ( 'NONE', #384 ) ;
#107 = EDGE_CURVE ( 'NONE', #315, #9, #165, .T. ) ;
#108 = CARTESIAN_POINT ( 'NONE',  ( 80.00000000000000000, 0.000000000000000000, 10.00000000000000000 ) ) ;
#109 = VERTEX_POINT ( 'NONE', #378 ) ;
#110 = MECHANICAL_DESIGN_GEOMETRIC_PRESENTATION_REPRESENTATION (  '', ( #136 ), #416 ) ;
#111 = LINE ( 'NONE', #399, #292 ) ;
#112 = CARTESIAN_POINT ( 'NONE',  ( 80.00000000000000000, 80.00000000000000000, 0.000000000000000000 ) ) ;
#113 = EDGE_CURVE ( 'NONE', #190, #150, #383, .T. ) ;
#114 = ADVANCED_FACE ( 'NONE', ( #58 ), #413, .T. ) ;
#115 = LINE ( 'NONE', #120, #226 ) ;
#116 = DIRECTION ( 'NONE',  ( 0.000000000000000000, -1.000000000000000000, 0.000000000000000000 ) ) ;
#117 = LINE ( 'NONE', #189, #402 ) ;
#118 = PRODUCT_DEFINITION_FORMATION_WITH_SPECIFIED_SOURCE ( 'ANY', '', #266, .NOT_KNOWN. ) ;
#119 = DIRECTION ( 'NONE',  ( 1.000000000000000000, 0.000000000000000000, 0.000000000000000000 ) ) ;
#120 = CARTESIAN_POINT ( 'NONE',  ( 80.00000000000000000, 0.000000000000000000, 0.000000000000000000 ) ) ;
#121 = CARTESIAN_POINT ( 'NONE',  ( 0.000000000000000000, 80.00000000000000000, 10.00000000000000000 ) ) ;
#122 =( LENGTH_UNIT ( ) NAMED_UNIT ( * ) SI_UNIT ( .MILLI., .METRE. ) );
#123 = DIRECTION ( 'NONE',  ( -1.000000000000000000, -0.000000000000000000, -0.000000000000000000 ) ) ;
#124 = ADVANCED_FACE ( 'NONE', ( #237 ), #129, .T. ) ;
#125 = EDGE_LOOP ( 'NONE', ( #25, #345, #143, #200 ) ) ;
#126 = DIRECTION ( 'NONE',  ( 1.000000000000000000, 6.938893903907228378E-16, 0.000000000000000000 ) ) ;
#127 = VECTOR ( 'NONE', #152, 1000.000000000000000 ) ;
#128 = ADVANCED_FACE ( 'NONE', ( #348 ), #54, .F. ) ;
#129 = PLANE ( 'NONE',  #312 ) ;
#130 = AXIS2_PLACEMENT_3D ( 'NONE', #197, #158, #238 ) ;
#131 =( NAMED_UNIT ( * ) PLANE_ANGLE_UNIT ( ) SI_UNIT ( $, .RADIAN. ) );
#132 = CARTESIAN_POINT ( 'NONE',  ( 0.000000000000000000, 80.00000000000000000, 10.00000000000000000 ) ) ;
#133 = ORIENTED_EDGE ( 'NONE', *, *, #185, .T. ) ;
#134 = CARTESIAN_POINT ( 'NONE',  ( 10.00000000000000000, 69.99999999999998579, 10.00000000000000000 ) ) ;
#135 = VERTEX_POINT ( 'NONE', #93 ) ;
#136 = STYLED_ITEM ( 'NONE', ( #310 ), #171 ) ;
#137 = DIRECTION ( 'NONE',  ( 1.156482317317871478E-16, -1.000000000000000000, 0.000000000000000000 ) ) ;
#138 = VERTEX_POINT ( 'NONE', #86 ) ;
#139 = EDGE_CURVE ( 'NONE', #81, #359, #242, .T. ) ;
#140 = DIRECTION ( 'NONE',  ( 1.000000000000000000, 0.000000000000000000, 0.000000000000000000 ) ) ;
#141 = ORIENTED_EDGE ( 'NONE', *, *, #217, .F. ) ;
#142 = CARTESIAN_POINT ( 'NONE',  ( 10.00000000000000000, 69.99999999999998579, 5.000000000000000000 ) ) ;
#143 = ORIENTED_EDGE ( 'NONE', *, *, #74, .T. ) ;
#144 = LINE ( 'NONE', #329, #409 ) ;
#145 = ORIENTED_EDGE ( 'NONE', *, *, #74, .F. ) ;
#146 = ADVANCED_FACE ( 'NONE', ( #89 ), #309, .F. ) ;
#147 = PRESENTATION_LAYER_ASSIGNMENT (  '', '', ( #136 ) ) ;
#148 = EDGE_CURVE ( 'NONE', #280, #135, #14, .T. ) ;
#149 = DIRECTION ( 'NONE',  ( -0.000000000000000000, -0.000000000000000000, -1.000000000000000000 ) ) ;
#150 = VERTEX_POINT ( 'NONE', #92 ) ;
#151 = UNCERTAINTY_MEASURE_WITH_UNIT (LENGTH_MEASURE( 1.000000000000000082E-05 ), #122, 'distance_accuracy_value', 'NONE');
#152 = DIRECTION ( 'NONE',  ( -0.000000000000000000, -1.000000000000000000, -0.000000000000000000 ) ) ;
#153 = LINE ( 'NONE', #435, #262 ) ;
#154 = DIRECTION ( 'NONE',  ( 1.000000000000000000, 0.000000000000000000, 0.000000000000000000 ) ) ;
#155 = LINE ( 'NONE', #256, #67 ) ;
#156 = DIRECTION ( 'NONE',  ( -0.000000000000000000, -0.000000000000000000, 1.000000000000000000 ) ) ;
#157 = EDGE_LOOP ( 'NONE', ( #425, #65, #452, #102 ) ) ;
#158 = DIRECTION ( 'NONE',  ( -0.000000000000000000, 1.000000000000000000, 0.000000000000000000 ) ) ;
#159 = CARTESIAN_POINT ( 'NONE',  ( 75.00000000000001421, 75.00000000000000000, 5.000000000000000000 ) ) ;
#160 = EDGE_CURVE ( 'NONE', #212, #359, #346, .T. ) ;
#161 = ADVANCED_FACE ( 'NONE', ( #308, #90 ), #410, .F. ) ;
#162 = ORIENTED_EDGE ( 'NONE', *, *, #76, .F. ) ;
#163 = DIRECTION ( 'NONE',  ( -1.000000000000000000, -0.000000000000000000, -0.000000000000000000 ) ) ;
#164 = CARTESIAN_POINT ( 'NONE',  ( 0.000000000000000000, 0.000000000000000000, 0.000000000000000000 ) ) ;
#165 = LINE ( 'NONE', #201, #11 ) ;
#166 = CARTESIAN_POINT ( 'NONE',  ( 80.00000000000000000, 0.000000000000000000, 10.00000000000000000 ) ) ;
#167 = AXIS2_PLACEMENT_3D ( 'NONE', #108, #279, #23 ) ;
#168 = DIRECTION ( 'NONE',  ( 1.156482317317871478E-16, -1.000000000000000000, 0.000000000000000000 ) ) ;
#169 = LINE ( 'NONE', #253, #69 ) ;
#170 = ORIENTED_EDGE ( 'NONE', *, *, #160, .F. ) ;
#171 = MANIFOLD_SOLID_BREP ( 'Schnitt-Linear austragen1', #213 ) ;
#172 = DIRECTION ( 'NONE',  ( 0.000000000000000000, 0.000000000000000000, -1.000000000000000000 ) ) ;
#173 = ORIENTED_EDGE ( 'NONE', *, *, #217, .T. ) ;
#174 = EDGE_CURVE ( 'NONE', #9, #138, #342, .T. ) ;
#175 = EDGE_CURVE ( 'NONE', #280, #28, #206, .T. ) ;
#176 = VECTOR ( 'NONE', #137, 1000.000000000000000 ) ;
#177 = CARTESIAN_POINT ( 'NONE',  ( 5.000000000000000000, 75.00000000000000000, 10.00000000000000000 ) ) ;
#178 = EDGE_LOOP ( 'NONE', ( #33, #392, #173, #133 ) ) ;
#179 = EDGE_LOOP ( 'NONE', ( #287, #296, #421, #53 ) ) ;
#180 = ADVANCED_FACE ( 'NONE', ( #424 ), #32, .F. ) ;
#181 = PLANE ( 'NONE',  #186 ) ;
#182 = VERTEX_POINT ( 'NONE', #249 ) ;
#183 = DIRECTION ( 'NONE',  ( -0.000000000000000000, -0.000000000000000000, 1.000000000000000000 ) ) ;
#184 = DIRECTION ( 'NONE',  ( -1.000000000000000000, -1.115179377413661563E-16, 0.000000000000000000 ) ) ;
#185 = EDGE_CURVE ( 'NONE', #276, #81, #169, .T. ) ;
#186 = AXIS2_PLACEMENT_3D ( 'NONE', #396, #39, #467 ) ;
#187 = DIRECTION ( 'NONE',  ( 1.000000000000000000, 0.000000000000000000, 0.000000000000000000 ) ) ;
#188 = LINE ( 'NONE', #121, #232 ) ;
#189 = CARTESIAN_POINT ( 'NONE',  ( 10.00000000000000711, 9.999999999999991118, 10.00000000000000000 ) ) ;
#190 = VERTEX_POINT ( 'NONE', #317 ) ;
#191 = ORIENTED_EDGE ( 'NONE', *, *, #41, .T. ) ;
#192 = DIRECTION ( 'NONE',  ( -1.000000000000000000, -0.000000000000000000, -0.000000000000000000 ) ) ;
#193 = FACE_OUTER_BOUND ( 'NONE', #207, .T. ) ;
#194 = AXIS2_PLACEMENT_3D ( 'NONE', #132, #462, #313 ) ;
#195 = DIRECTION ( 'NONE',  ( -0.000000000000000000, -0.000000000000000000, -1.000000000000000000 ) ) ;
#196 = ORIENTED_EDGE ( 'NONE', *, *, #49, .F. ) ;
#197 = CARTESIAN_POINT ( 'NONE',  ( 5.000000000000000000, 75.00000000000000000, 5.000000000000000000 ) ) ;
#198 = ADVANCED_FACE ( 'NONE', ( #324 ), #387, .F. ) ;
#199 = VECTOR ( 'NONE', #306, 1000.000000000000000 ) ;
#200 = ORIENTED_EDGE ( 'NONE', *, *, #458, .T. ) ;
#201 = CARTESIAN_POINT ( 'NONE',  ( 0.000000000000000000, 0.000000000000000000, 10.00000000000000000 ) ) ;
#202 = DIRECTION ( 'NONE',  ( -1.000000000000000000, 0.000000000000000000, -0.000000000000000000 ) ) ;
#203 = PRODUCT_DEFINITION ( 'UNKNOWN', '', #118, #222 ) ;
#204 = DIRECTION ( 'NONE',  ( 0.000000000000000000, -0.000000000000000000, -1.000000000000000000 ) ) ;
#205 = AXIS2_PLACEMENT_3D ( 'NONE', #159, #271, #56 ) ;
#206 = LINE ( 'NONE', #356, #272 ) ;
#207 = EDGE_LOOP ( 'NONE', ( #274, #463, #34, #441 ) ) ;
#208 = PLANE ( 'NONE',  #382 ) ;
#209 = ADVANCED_FACE ( 'NONE', ( #422 ), #70, .F. ) ;
#210 = ORIENTED_EDGE ( 'NONE', *, *, #175, .F. ) ;
#211 = CARTESIAN_POINT ( 'NONE',  ( 0.000000000000000000, 80.00000000000000000, 0.000000000000000000 ) ) ;
#212 = VERTEX_POINT ( 'NONE', #215 ) ;
#213 = CLOSED_SHELL ( 'NONE', ( #302, #198, #180, #209, #161, #395, #59, #146, #128, #8, #367, #269, #453, #114, #124, #234 ) ) ;
#214 = VECTOR ( 'NONE', #455, 1000.000000000000000 ) ;
#215 = CARTESIAN_POINT ( 'NONE',  ( 75.00000000000001421, 75.00000000000000000, 10.00000000000000000 ) ) ;
#216 = VERTEX_POINT ( 'NONE', #211 ) ;
#217 = EDGE_CURVE ( 'NONE', #182, #276, #103, .T. ) ;
#218 = LINE ( 'NONE', #177, #2 ) ;
#219 = VERTEX_POINT ( 'NONE', #134 ) ;
#220 = CARTESIAN_POINT ( 'NONE',  ( 75.00000000000001421, 75.00000000000000000, 5.000000000000000000 ) ) ;
#221 = EDGE_LOOP ( 'NONE', ( #336, #246, #401, #355 ) ) ;
#222 = PRODUCT_DEFINITION_CONTEXT ( 'detailed design', #13, 'design' ) ;
#223 = FACE_OUTER_BOUND ( 'NONE', #179, .T. ) ;
#224 = VECTOR ( 'NONE', #4, 1000.000000000000000 ) ;
#225 = VERTEX_POINT ( 'NONE', #451 ) ;
#226 = VECTOR ( 'NONE', #82, 1000.000000000000000 ) ;
#227 = LINE ( 'NONE', #79, #85 ) ;
#228 = ORIENTED_EDGE ( 'NONE', *, *, #160, .T. ) ;
#229 = CARTESIAN_POINT ( 'NONE',  ( 10.00000000000000000, 69.99999999999998579, 10.00000000000000000 ) ) ;
#230 = CARTESIAN_POINT ( 'NONE',  ( 75.00000000000001421, 75.00000000000000000, 10.00000000000000000 ) ) ;
#231 = FACE_OUTER_BOUND ( 'NONE', #388, .T. ) ;
#232 = VECTOR ( 'NONE', #470, 1000.000000000000000 ) ;
#233 = VECTOR ( 'NONE', #149, 1000.000000000000000 ) ;
#234 = ADVANCED_FACE ( 'NONE', ( #96 ), #418, .F. ) ;
#235 =( NAMED_UNIT ( * ) PLANE_ANGLE_UNIT ( ) SI_UNIT ( $, .RADIAN. ) );
#236 = DIRECTION ( 'NONE',  ( 1.115179377413661563E-16, -1.000000000000000000, 0.000000000000000000 ) ) ;
#237 = FACE_OUTER_BOUND ( 'NONE', #5, .T. ) ;
#238 = DIRECTION ( 'NONE',  ( 0.000000000000000000, -0.000000000000000000, 1.000000000000000000 ) ) ;
#239 = AXIS2_PLACEMENT_3D ( 'NONE', #164, #311, #273 ) ;
#240 = APPLICATION_PROTOCOL_DEFINITION ( 'draft international standard', 'automotive_design', 1998, #433 ) ;
#241 = DIRECTION ( 'NONE',  ( 0.000000000000000000, 0.000000000000000000, -1.000000000000000000 ) ) ;
#242 = LINE ( 'NONE', #57, #199 ) ;
#243 = LINE ( 'NONE', #62, #450 ) ;
#244 = ORIENTED_EDGE ( 'NONE', *, *, #444, .F. ) ;
#245 = PLANE ( 'NONE',  #285 ) ;
#246 = ORIENTED_EDGE ( 'NONE', *, *, #316, .F. ) ;
#247 = CARTESIAN_POINT ( 'NONE',  ( 0.000000000000000000, 0.000000000000000000, 10.00000000000000000 ) ) ;
#248 = ORIENTED_EDGE ( 'NONE', *, *, #26, .T. ) ;
#249 = CARTESIAN_POINT ( 'NONE',  ( 75.00000000000002842, 4.999999999999990230, 5.000000000000000000 ) ) ;
#250 = ORIENTED_EDGE ( 'NONE', *, *, #331, .T. ) ;
#251 = EDGE_CURVE ( 'NONE', #359, #55, #218, .T. ) ;
#252 = VECTOR ( 'NONE', #168, 1000.000000000000000 ) ;
#253 = CARTESIAN_POINT ( 'NONE',  ( 5.000000000000000000, 75.00000000000000000, 5.000000000000000000 ) ) ;
#254 = ORIENTED_EDGE ( 'NONE', *, *, #323, .F. ) ;
#255 = DIRECTION ( 'NONE',  ( -6.938893903907228378E-16, 1.000000000000000000, -0.000000000000000000 ) ) ;
#256 = CARTESIAN_POINT ( 'NONE',  ( 5.000000000000007994, 4.999999999999990230, 5.000000000000000000 ) ) ;
#257 = LINE ( 'NONE', #471, #78 ) ;
#258 = DIRECTION ( 'NONE',  ( -1.982541115402065110E-16, 1.000000000000000000, -0.000000000000000000 ) ) ;
#259 = AXIS2_PLACEMENT_3D ( 'NONE', #469, #267, #297 ) ;
#260 = EDGE_CURVE ( 'NONE', #135, #84, #243, .T. ) ;
#261 = FACE_OUTER_BOUND ( 'NONE', #178, .T. ) ;
#262 = VECTOR ( 'NONE', #119, 1000.000000000000000 ) ;
#263 = ORIENTED_EDGE ( 'NONE', *, *, #454, .F. ) ;
#264 = LINE ( 'NONE', #229, #30 ) ;
#265 = LINE ( 'NONE', #1, #284 ) ;
#266 = PRODUCT ( 'Qf1i', 'Qf1i', '', ( #375 ) ) ;
#267 = DIRECTION ( 'NONE',  ( -0.000000000000000000, 1.000000000000000000, 0.000000000000000000 ) ) ;
#268 = CARTESIAN_POINT ( 'NONE',  ( 70.00000000000000000, 9.999999999999991118, 10.00000000000000000 ) ) ;
#269 = ADVANCED_FACE ( 'NONE', ( #459 ), #208, .T. ) ;
#270 = ORIENTED_EDGE ( 'NONE', *, *, #443, .F. ) ;
#271 = DIRECTION ( 'NONE',  ( 1.000000000000000000, 1.982541115402065110E-16, 0.000000000000000000 ) ) ;
#272 = VECTOR ( 'NONE', #286, 1000.000000000000000 ) ;
#273 = DIRECTION ( 'NONE',  ( 1.000000000000000000, 0.000000000000000000, 0.000000000000000000 ) ) ;
#274 = ORIENTED_EDGE ( 'NONE', *, *, #251, .T. ) ;
#275 = DIRECTION ( 'NONE',  ( -6.938893903907228378E-16, 1.000000000000000000, 0.000000000000000000 ) ) ;
#276 = VERTEX_POINT ( 'NONE', #101 ) ;
#277 = DIRECTION ( 'NONE',  ( 0.000000000000000000, -1.000000000000000000, 0.000000000000000000 ) ) ;
#278 = VECTOR ( 'NONE', #366, 1000.000000000000000 ) ;
#279 = DIRECTION ( 'NONE',  ( -1.000000000000000000, 0.000000000000000000, 0.000000000000000000 ) ) ;
#280 = VERTEX_POINT ( 'NONE', #350 ) ;
#281 = EDGE_CURVE ( 'NONE', #219, #28, #385, .T. ) ;
#282 = DIRECTION ( 'NONE',  ( 0.000000000000000000, 0.000000000000000000, -1.000000000000000000 ) ) ;
#283 = ORIENTED_EDGE ( 'NONE', *, *, #377, .F. ) ;
#284 = VECTOR ( 'NONE', #156, 1000.000000000000000 ) ;
#285 = AXIS2_PLACEMENT_3D ( 'NONE', #27, #140, #172 ) ;
#286 = DIRECTION ( 'NONE',  ( -0.000000000000000000, -0.000000000000000000, 1.000000000000000000 ) ) ;
#287 = ORIENTED_EDGE ( 'NONE', *, *, #458, .F. ) ;
#288 = DIRECTION ( 'NONE',  ( -1.000000000000000000, 0.000000000000000000, -0.000000000000000000 ) ) ;
#289 = ORIENTED_EDGE ( 'NONE', *, *, #76, .T. ) ;
#290 = DIRECTION ( 'NONE',  ( -1.000000000000000000, -1.156482317317871478E-16, 0.000000000000000000 ) ) ;
#291 = EDGE_LOOP ( 'NONE', ( #351, #373, #390, #376 ) ) ;
#292 = VECTOR ( 'NONE', #183, 1000.000000000000000 ) ;
#293 = LINE ( 'NONE', #45, #305 ) ;
#294 = CARTESIAN_POINT ( 'NONE',  ( 5.000000000000000000, 75.00000000000000000, 5.000000000000000000 ) ) ;
#295 = DIRECTION ( 'NONE',  ( -0.000000000000000000, 0.000000000000000000, 1.000000000000000000 ) ) ;
#296 = ORIENTED_EDGE ( 'NONE', *, *, #331, .F. ) ;
#297 = DIRECTION ( 'NONE',  ( 0.000000000000000000, -0.000000000000000000, 1.000000000000000000 ) ) ;
#298 = ORIENTED_EDGE ( 'NONE', *, *, #260, .T. ) ;
#299 = CARTESIAN_POINT ( 'NONE',  ( 80.00000000000000000, 80.00000000000000000, 10.00000000000000000 ) ) ;
#300 = ORIENTED_EDGE ( 'NONE', *, *, #185, .F. ) ;
#301 = DIRECTION ( 'NONE',  ( 1.000000000000000000, 0.000000000000000000, 0.000000000000000000 ) ) ;
#302 = ADVANCED_FACE ( 'NONE', ( #60 ), #245, .F. ) ;
#303 = LINE ( 'NONE', #440, #448 ) ;
#304 = DIRECTION ( 'NONE',  ( 1.000000000000000000, 0.000000000000000000, 0.000000000000000000 ) ) ;
#305 = VECTOR ( 'NONE', #187, 1000.000000000000000 ) ;
#306 = DIRECTION ( 'NONE',  ( -0.000000000000000000, -0.000000000000000000, 1.000000000000000000 ) ) ;
#307 = COLOUR_RGB ( '',0.7921568627450980005, 0.8196078431372548767, 0.9333333333333333481 ) ;
#308 = FACE_BOUND ( 'NONE', #427, .T. ) ;
#309 = PLANE ( 'NONE',  #130 ) ;
#310 = PRESENTATION_STYLE_ASSIGNMENT (( #15 ) ) ;
#311 = DIRECTION ( 'NONE',  ( 0.000000000000000000, 0.000000000000000000, 1.000000000000000000 ) ) ;
#312 = AXIS2_PLACEMENT_3D ( 'NONE', #447, #277, #204 ) ;
#313 = DIRECTION ( 'NONE',  ( 0.000000000000000000, -0.000000000000000000, -1.000000000000000000 ) ) ;
#314 = EDGE_CURVE ( 'NONE', #106, #280, #391, .T. ) ;
#315 = VERTEX_POINT ( 'NONE', #66 ) ;
#316 = EDGE_CURVE ( 'NONE', #150, #87, #326, .T. ) ;
#317 = CARTESIAN_POINT ( 'NONE',  ( 80.00000000000000000, 0.000000000000000000, 10.00000000000000000 ) ) ;
#318 = EDGE_LOOP ( 'NONE', ( #104, #394, #283, #330 ) ) ;
#319 = CARTESIAN_POINT ( 'NONE',  ( 10.00000000000000000, 69.99999999999998579, 5.000000000000000000 ) ) ;
#320 = EDGE_LOOP ( 'NONE', ( #68, #372, #46, #340 ) ) ;
#321 = DIRECTION ( 'NONE',  ( 1.156482317317871478E-16, -1.000000000000000000, 0.000000000000000000 ) ) ;
#322 = ORIENTED_EDGE ( 'NONE', *, *, #360, .F. ) ;
#323 = EDGE_CURVE ( 'NONE', #216, #138, #35, .T. ) ;
#324 = FACE_OUTER_BOUND ( 'NONE', #318, .T. ) ;
#325 = ORIENTED_EDGE ( 'NONE', *, *, #412, .T. ) ;
#326 = LINE ( 'NONE', #299, #233 ) ;
#327 = EDGE_LOOP ( 'NONE', ( #289, #362, #322, #48 ) ) ;
#328 = AXIS2_PLACEMENT_3D ( 'NONE', #247, #352, #105 ) ;
#329 = CARTESIAN_POINT ( 'NONE',  ( 0.000000000000000000, 0.000000000000000000, 10.00000000000000000 ) ) ;
#330 = ORIENTED_EDGE ( 'NONE', *, *, #174, .T. ) ;
#331 = EDGE_CURVE ( 'NONE', #419, #225, #111, .T. ) ;
#332 = FACE_BOUND ( 'NONE', #320, .T. ) ;
#333 = DIRECTION ( 'NONE',  ( 0.000000000000000000, -0.000000000000000000, -1.000000000000000000 ) ) ;
#334 = LINE ( 'NONE', #405, #38 ) ;
#335 = PLANE ( 'NONE',  #37 ) ;
#336 = ORIENTED_EDGE ( 'NONE', *, *, #443, .T. ) ;
#337 = LINE ( 'NONE', #220, #457 ) ;
#338 = AXIS2_PLACEMENT_3D ( 'NONE', #446, #241, #202 ) ;
#339 = CARTESIAN_POINT ( 'NONE',  ( 69.99999999999997158, 69.99999999999998579, 10.00000000000000000 ) ) ;
#340 = ORIENTED_EDGE ( 'NONE', *, *, #314, .F. ) ;
#341 = PLANE ( 'NONE',  #100 ) ;
#342 = LINE ( 'NONE', #20, #466 ) ;
#343 = ORIENTED_EDGE ( 'NONE', *, *, #107, .F. ) ;
#344 = DIRECTION ( 'NONE',  ( -0.000000000000000000, -1.000000000000000000, -0.000000000000000000 ) ) ;
#345 = ORIENTED_EDGE ( 'NONE', *, *, #454, .T. ) ;
#346 = LINE ( 'NONE', #10, #21 ) ;
#347 = SURFACE_STYLE_FILL_AREA ( #445 ) ;
#348 = FACE_OUTER_BOUND ( 'NONE', #411, .T. ) ;
#349 = AXIS2_PLACEMENT_3D ( 'NONE', #403, #295, #154 ) ;
#350 = CARTESIAN_POINT ( 'NONE',  ( 10.00000000000000711, 9.999999999999991118, 5.000000000000000000 ) ) ;
#351 = ORIENTED_EDGE ( 'NONE', *, *, #107, .T. ) ;
#352 = DIRECTION ( 'NONE',  ( 0.000000000000000000, 1.000000000000000000, 0.000000000000000000 ) ) ;
#353 = ORIENTED_EDGE ( 'NONE', *, *, #139, .F. ) ;
#354 = DIRECTION ( 'NONE',  ( 1.115179377413661563E-16, -1.000000000000000000, 0.000000000000000000 ) ) ;
#355 = ORIENTED_EDGE ( 'NONE', *, *, #94, .T. ) ;
#356 = CARTESIAN_POINT ( 'NONE',  ( 10.00000000000000711, 9.999999999999991118, 5.000000000000000000 ) ) ;
#357 = ORIENTED_EDGE ( 'NONE', *, *, #379, .T. ) ;
#358 = DIRECTION ( 'NONE',  ( -1.000000000000000000, -0.000000000000000000, -0.000000000000000000 ) ) ;
#359 = VERTEX_POINT ( 'NONE', #434 ) ;
#360 = EDGE_CURVE ( 'NONE', #150, #315, #227, .T. ) ;
#361 = CARTESIAN_POINT ( 'NONE',  ( 0.000000000000000000, 0.000000000000000000, 0.000000000000000000 ) ) ;
#362 = ORIENTED_EDGE ( 'NONE', *, *, #24, .F. ) ;
#363 = VECTOR ( 'NONE', #195, 1000.000000000000000 ) ;
#364 = VECTOR ( 'NONE', #429, 1000.000000000000000 ) ;
#365 = PLANE ( 'NONE',  #259 ) ;
#366 = DIRECTION ( 'NONE',  ( -0.000000000000000000, -0.000000000000000000, 1.000000000000000000 ) ) ;
#367 = ADVANCED_FACE ( 'NONE', ( #332, #261 ), #464, .T. ) ;
#368 = LINE ( 'NONE', #42, #364 ) ;
#369 = EDGE_LOOP ( 'NONE', ( #44, #80, #343, #31 ) ) ;
#370 = CARTESIAN_POINT ( 'NONE',  ( 5.000000000000007994, 4.999999999999990230, 5.000000000000000000 ) ) ;
#371 = CARTESIAN_POINT ( 'NONE',  ( 0.000000000000000000, 0.000000000000000000, 10.00000000000000000 ) ) ;
#372 = ORIENTED_EDGE ( 'NONE', *, *, #379, .F. ) ;
#373 = ORIENTED_EDGE ( 'NONE', *, *, #377, .T. ) ;
#374 = FILL_AREA_STYLE_COLOUR ( '', #307 ) ;
#375 = PRODUCT_CONTEXT ( 'NONE', #433, 'mechanical' ) ;
#376 = ORIENTED_EDGE ( 'NONE', *, *, #360, .T. ) ;
#377 = EDGE_CURVE ( 'NONE', #9, #190, #144, .T. ) ;
#378 = CARTESIAN_POINT ( 'NONE',  ( 80.00000000000000000, 0.000000000000000000, 0.000000000000000000 ) ) ;
#379 = EDGE_CURVE ( 'NONE', #135, #419, #334, .T. ) ;
#380 = ORIENTED_EDGE ( 'NONE', *, *, #148, .T. ) ;
#381 = DIRECTION ( 'NONE',  ( 0.000000000000000000, 1.000000000000000000, 0.000000000000000000 ) ) ;
#382 = AXIS2_PLACEMENT_3D ( 'NONE', #142, #290, #321 ) ;
#383 = LINE ( 'NONE', #166, #436 ) ;
#384 = CARTESIAN_POINT ( 'NONE',  ( 10.00000000000000000, 69.99999999999998579, 5.000000000000000000 ) ) ;
#385 = LINE ( 'NONE', #29, #252 ) ;
#386 = ORIENTED_EDGE ( 'NONE', *, *, #461, .F. ) ;
#387 = PLANE ( 'NONE',  #328 ) ;
#388 = EDGE_LOOP ( 'NONE', ( #191, #465, #97, #325 ) ) ;
#389 = CARTESIAN_POINT ( 'NONE',  ( 75.00000000000001421, 75.00000000000000000, 5.000000000000000000 ) ) ;
#390 = ORIENTED_EDGE ( 'NONE', *, *, #113, .T. ) ;
#391 = LINE ( 'NONE', #319, #176 ) ;
#392 = ORIENTED_EDGE ( 'NONE', *, *, #6, .T. ) ;
#393 = DIRECTION ( 'NONE',  ( -1.000000000000000000, -0.000000000000000000, -0.000000000000000000 ) ) ;
#394 = ORIENTED_EDGE ( 'NONE', *, *, #94, .F. ) ;
#395 = ADVANCED_FACE ( 'NONE', ( #431 ), #181, .T. ) ;
#396 = CARTESIAN_POINT ( 'NONE',  ( 0.000000000000000000, 0.000000000000000000, 0.000000000000000000 ) ) ;
#397 = CARTESIAN_POINT ( 'NONE',  ( 5.000000000000000000, 75.00000000000000000, 5.000000000000000000 ) ) ;
#398 = UNCERTAINTY_MEASURE_WITH_UNIT (LENGTH_MEASURE( 1.000000000000000082E-05 ), #449, 'distance_accuracy_value', 'NONE');
#399 = CARTESIAN_POINT ( 'NONE',  ( 69.99999999999997158, 69.99999999999998579, 5.000000000000000000 ) ) ;
#400 = ADVANCED_BREP_SHAPE_REPRESENTATION ( 'Qf1i', ( #171, #239 ), #98 ) ;
#401 = ORIENTED_EDGE ( 'NONE', *, *, #113, .F. ) ;
#402 = VECTOR ( 'NONE', #437, 1000.000000000000000 ) ;
#403 = CARTESIAN_POINT ( 'NONE',  ( 0.000000000000000000, 0.000000000000000000, 5.000000000000000000 ) ) ;
#404 = CARTESIAN_POINT ( 'NONE',  ( 10.00000000000000000, 69.99999999999998579, 5.000000000000000000 ) ) ;
#405 = CARTESIAN_POINT ( 'NONE',  ( 69.99999999999997158, 69.99999999999998579, 5.000000000000000000 ) ) ;
#406 = CARTESIAN_POINT ( 'NONE',  ( 5.000000000000007994, 4.999999999999990230, 5.000000000000000000 ) ) ;
#407 = EDGE_CURVE ( 'NONE', #419, #106, #368, .T. ) ;
#408 = CARTESIAN_POINT ( 'NONE',  ( 80.00000000000000000, 0.000000000000000000, 10.00000000000000000 ) ) ;
#409 = VECTOR ( 'NONE', #301, 1000.000000000000000 ) ;
#410 = PLANE ( 'NONE',  #338 ) ;
#411 = EDGE_LOOP ( 'NONE', ( #71, #386, #141, #248 ) ) ;
#412 = EDGE_CURVE ( 'NONE', #423, #55, #257, .T. ) ;
#413 = PLANE ( 'NONE',  #50 ) ;
#414 = ORIENTED_EDGE ( 'NONE', *, *, #461, .T. ) ;
#415 = CARTESIAN_POINT ( 'NONE',  ( 10.00000000000000711, 9.999999999999991118, 5.000000000000000000 ) ) ;
#416 =( GEOMETRIC_REPRESENTATION_CONTEXT ( 3 ) GLOBAL_UNCERTAINTY_ASSIGNED_CONTEXT ( ( #398 ) ) GLOBAL_UNIT_ASSIGNED_CONTEXT ( ( #449, #131, #417 ) ) REPRESENTATION_CONTEXT ( 'NONE', 'WORKASPACE' ) );
#417 =( NAMED_UNIT ( * ) SI_UNIT ( $, .STERADIAN. ) SOLID_ANGLE_UNIT ( ) );
#418 = PLANE ( 'NONE',  #428 ) ;
#419 = VERTEX_POINT ( 'NONE', #75 ) ;
#420 = DIRECTION ( 'NONE',  ( -0.000000000000000000, -0.000000000000000000, 1.000000000000000000 ) ) ;
#421 = ORIENTED_EDGE ( 'NONE', *, *, #407, .T. ) ;
#422 = FACE_OUTER_BOUND ( 'NONE', #327, .T. ) ;
#423 = VERTEX_POINT ( 'NONE', #370 ) ;
#424 = FACE_OUTER_BOUND ( 'NONE', #221, .T. ) ;
#425 = ORIENTED_EDGE ( 'NONE', *, *, #281, .F. ) ;
#426 = DIRECTION ( 'NONE',  ( -0.000000000000000000, -0.000000000000000000, -1.000000000000000000 ) ) ;
#427 = EDGE_LOOP ( 'NONE', ( #61, #22, #170, #196 ) ) ;
#428 = AXIS2_PLACEMENT_3D ( 'NONE', #64, #282, #288 ) ;
#429 = DIRECTION ( 'NONE',  ( -1.000000000000000000, -0.000000000000000000, -0.000000000000000000 ) ) ;
#430 = DIRECTION ( 'NONE',  ( 1.115179377413661563E-16, -1.000000000000000000, 0.000000000000000000 ) ) ;
#431 = FACE_OUTER_BOUND ( 'NONE', #43, .T. ) ;
#432 = DIRECTION ( 'NONE',  ( 1.000000000000000000, 0.000000000000000000, 0.000000000000000000 ) ) ;
#433 = APPLICATION_CONTEXT ( 'automotive_design' ) ;
#434 = CARTESIAN_POINT ( 'NONE',  ( 5.000000000000000000, 75.00000000000000000, 10.00000000000000000 ) ) ;
#435 = CARTESIAN_POINT ( 'NONE',  ( 5.000000000000007994, 4.999999999999990230, 10.00000000000000000 ) ) ;
#436 = VECTOR ( 'NONE', #381, 1000.000000000000000 ) ;
#437 = DIRECTION ( 'NONE',  ( 1.000000000000000000, 0.000000000000000000, 0.000000000000000000 ) ) ;
#438 = LINE ( 'NONE', #404, #278 ) ;
#439 = CARTESIAN_POINT ( 'NONE',  ( 75.00000000000002842, 4.999999999999990230, 10.00000000000000000 ) ) ;
#440 = CARTESIAN_POINT ( 'NONE',  ( 0.000000000000000000, 80.00000000000000000, 0.000000000000000000 ) ) ;
#441 = ORIENTED_EDGE ( 'NONE', *, *, #139, .T. ) ;
#442 = CARTESIAN_POINT ( 'NONE',  ( 69.99999999999997158, 69.99999999999998579, 5.000000000000000000 ) ) ;
#443 = EDGE_CURVE ( 'NONE', #109, #87, #115, .T. ) ;
#444 = EDGE_CURVE ( 'NONE', #138, #109, #293, .T. ) ;
#445 = FILL_AREA_STYLE ('',( #374 ) ) ;
#446 = CARTESIAN_POINT ( 'NONE',  ( 0.000000000000000000, 0.000000000000000000, 10.00000000000000000 ) ) ;
#447 = CARTESIAN_POINT ( 'NONE',  ( 10.00000000000000711, 9.999999999999991118, 5.000000000000000000 ) ) ;
#448 = VECTOR ( 'NONE', #123, 1000.000000000000000 ) ;
#449 =( LENGTH_UNIT ( ) NAMED_UNIT ( * ) SI_UNIT ( .MILLI., .METRE. ) );
#450 = VECTOR ( 'NONE', #420, 1000.000000000000000 ) ;
#451 = CARTESIAN_POINT ( 'NONE',  ( 69.99999999999997158, 69.99999999999998579, 10.00000000000000000 ) ) ;
#452 = ORIENTED_EDGE ( 'NONE', *, *, #314, .T. ) ;
#453 = ADVANCED_FACE ( 'NONE', ( #223 ), #365, .T. ) ;
#454 = EDGE_CURVE ( 'NONE', #28, #84, #117, .T. ) ;
#455 = DIRECTION ( 'NONE',  ( -1.982541115402065110E-16, 1.000000000000000000, -0.000000000000000000 ) ) ;
#456 = EDGE_LOOP ( 'NONE', ( #228, #353, #300, #414 ) ) ;
#457 = VECTOR ( 'NONE', #3, 1000.000000000000000 ) ;
#458 = EDGE_CURVE ( 'NONE', #225, #219, #264, .T. ) ;
#459 = FACE_OUTER_BOUND ( 'NONE', #157, .T. ) ;
#460 = ORIENTED_EDGE ( 'NONE', *, *, #260, .F. ) ;
#461 = EDGE_CURVE ( 'NONE', #276, #212, #337, .T. ) ;
#462 = DIRECTION ( 'NONE',  ( 0.000000000000000000, -1.000000000000000000, 0.000000000000000000 ) ) ;
#463 = ORIENTED_EDGE ( 'NONE', *, *, #412, .F. ) ;
#464 = PLANE ( 'NONE',  #349 ) ;
#465 = ORIENTED_EDGE ( 'NONE', *, *, #26, .F. ) ;
#466 = VECTOR ( 'NONE', #426, 1000.000000000000000 ) ;
#467 = DIRECTION ( 'NONE',  ( -1.000000000000000000, 0.000000000000000000, -0.000000000000000000 ) ) ;
#468 = VERTEX_POINT ( 'NONE', #439 ) ;
#469 = CARTESIAN_POINT ( 'NONE',  ( 10.00000000000000000, 69.99999999999998579, 5.000000000000000000 ) ) ;
#470 = DIRECTION ( 'NONE',  ( -0.000000000000000000, -0.000000000000000000, -1.000000000000000000 ) ) ;
#471 = CARTESIAN_POINT ( 'NONE',  ( 5.000000000000007994, 4.999999999999990230, 5.000000000000000000 ) ) ;
ENDSEC;
END-ISO-10303-21;
