# Blender 4.4.0
# www.blender.org
mtllib Qf1i.mtl
o Qf1i
v 0.000000 0.000000 10.000000
v 0.000000 80.000000 10.000000
v 0.000000 0.000000 0.000000
v 0.000000 80.000000 0.000000
v 80.000000 0.000000 10.000000
v 80.000000 0.000000 0.000000
v 80.000000 80.000000 10.000000
v 80.000000 80.000000 0.000000
v 5.000000 75.000000 10.000000
v 5.000000 5.000000 10.000000
v 75.000000 5.000000 10.000000
v 75.000000 75.000000 10.000000
v 5.000000 5.000000 5.000000
v 5.000000 75.000000 5.000000
v 75.000000 75.000000 5.000000
v 75.000000 5.000000 5.000000
v 10.000000 70.000000 5.000000
v 10.000000 10.000000 5.000000
v 70.000000 10.000000 5.000000
v 70.000000 70.000000 5.000000
v 10.000000 70.000000 10.000000
v 10.000000 10.000000 10.000000
v 70.000000 70.000000 10.000000
v 70.000000 10.000000 10.000000
vn -1.0000 -0.0000 -0.0000
vn -0.0000 -1.0000 -0.0000
vn 1.0000 -0.0000 -0.0000
vn -0.0000 1.0000 -0.0000
vn -0.0000 -0.0000 1.0000
vn -0.0000 -0.0000 -1.0000
s 0
f 1//1 2//1 3//1
f 3//1 2//1 4//1
f 5//2 1//2 6//2
f 6//2 1//2 3//2
f 7//3 5//3 8//3
f 8//3 5//3 6//3
f 2//4 7//4 4//4
f 4//4 7//4 8//4
f 9//5 2//5 10//5
f 10//5 2//5 1//5
f 10//5 1//5 11//5
f 11//5 1//5 5//5
f 11//5 5//5 12//5
f 12//5 5//5 7//5
f 12//5 7//5 9//5
f 9//5 7//5 2//5
f 8//6 6//6 4//6
f 4//6 6//6 3//6
f 13//3 14//3 10//3
f 10//3 14//3 9//3
f 14//2 15//2 9//2
f 9//2 15//2 12//2
f 15//1 16//1 12//1
f 12//1 16//1 11//1
f 16//4 13//4 11//4
f 11//4 13//4 10//4
f 17//5 14//5 18//5
f 18//5 14//5 13//5
f 18//5 13//5 19//5
f 19//5 13//5 16//5
f 19//5 16//5 20//5
f 20//5 16//5 15//5
f 20//5 15//5 17//5
f 17//5 15//5 14//5
f 17//1 18//1 21//1
f 21//1 18//1 22//1
f 20//4 17//4 23//4
f 23//4 17//4 21//4
f 19//3 20//3 24//3
f 24//3 20//3 23//3
f 18//2 19//2 22//2
f 22//2 19//2 24//2
f 24//5 23//5 22//5
f 22//5 23//5 21//5
