ISO-10303-21;
HEADER;
FILE_DESCRIPTION (( 'STEP AP214' ),
    '1' );
FILE_NAME ('Qf2a.STEP',
    '2025-09-08T23:12:18',
    ( '' ),
    ( '' ),
    'SwSTEP 2.0',
    'SolidWorks 2024',
    '' );
FILE_SCHEMA (( 'AUTOMOTIVE_DESIGN' ));
ENDSEC;

DATA;
#1 = SHAPE_DEFINITION_REPRESENTATION ( #224, #156 ) ;
#2 = ADVANCED_FACE ( 'NONE', ( #19 ), #103, .F. ) ;
#3 = DIRECTION ( 'NONE',  ( 1.000000000000000000, 0.000000000000000000, 0.000000000000000000 ) ) ;
#4 = ORIENTED_EDGE ( 'NONE', *, *, #183, .F. ) ;
#5 = ORIENTED_EDGE ( 'NONE', *, *, #277, .T. ) ;
#6 = DIRECTION ( 'NONE',  ( -1.000000000000000000, 0.000000000000000000, 0.000000000000000000 ) ) ;
#7 = VERTEX_POINT ( 'NONE', #98 ) ;
#8 = VECTOR ( 'NONE', #59, 1000.000000000000000 ) ;
#9 = CARTESIAN_POINT ( 'NONE',  ( 0.000000000000000000, 80.00000000000000000, 10.00000000000000000 ) ) ;
#10 = ORIENTED_EDGE ( 'NONE', *, *, #16, .F. ) ;
#11 = CYLINDRICAL_SURFACE ( 'NONE', #121, 20.00000000000000355 ) ;
#12 = CARTESIAN_POINT ( 'NONE',  ( 80.00000000000000000, 0.000000000000000000, 0.000000000000000000 ) ) ;
#13 = DIRECTION ( 'NONE',  ( 1.000000000000000000, 0.000000000000000000, 0.000000000000000000 ) ) ;
#14 = DIRECTION ( 'NONE',  ( 0.000000000000000000, 0.000000000000000000, 1.000000000000000000 ) ) ;
#15 = EDGE_LOOP ( 'NONE', ( #5, #230, #235, #118 ) ) ;
#16 = EDGE_CURVE ( 'NONE', #290, #112, #285, .T. ) ;
#17 = DIRECTION ( 'NONE',  ( 0.000000000000000000, -1.000000000000000000, 0.000000000000000000 ) ) ;
#18 =( NAMED_UNIT ( * ) SI_UNIT ( $, .STERADIAN. ) SOLID_ANGLE_UNIT ( ) );
#19 = FACE_OUTER_BOUND ( 'NONE', #283, .T. ) ;
#20 = AXIS2_PLACEMENT_3D ( 'NONE', #197, #189, #106 ) ;
#21 = DIRECTION ( 'NONE',  ( -1.000000000000000000, 0.000000000000000000, 0.000000000000000000 ) ) ;
#22 = CARTESIAN_POINT ( 'NONE',  ( 80.00000000000000000, 80.00000000000000000, 0.000000000000000000 ) ) ;
#23 = DIRECTION ( 'NONE',  ( -1.000000000000000000, 0.000000000000000000, 0.000000000000000000 ) ) ;
#24 = ORIENTED_EDGE ( 'NONE', *, *, #29, .T. ) ;
#25 = PLANE ( 'NONE',  #97 ) ;
#26 = VECTOR ( 'NONE', #195, 1000.000000000000000 ) ;
#27 = EDGE_LOOP ( 'NONE', ( #147, #89, #165, #255 ) ) ;
#28 = ORIENTED_EDGE ( 'NONE', *, *, #231, .T. ) ;
#29 = EDGE_CURVE ( 'NONE', #237, #51, #186, .T. ) ;
#30 = COLOUR_RGB ( '',0.7921568627450980005, 0.8196078431372548767, 0.9333333333333333481 ) ;
#31 = VERTEX_POINT ( 'NONE', #142 ) ;
#32 = FACE_OUTER_BOUND ( 'NONE', #145, .T. ) ;
#33 = LINE ( 'NONE', #169, #233 ) ;
#34 = ORIENTED_EDGE ( 'NONE', *, *, #47, .T. ) ;
#35 =( GEOMETRIC_REPRESENTATION_CONTEXT ( 3 ) GLOBAL_UNCERTAINTY_ASSIGNED_CONTEXT ( ( #80 ) ) GLOBAL_UNIT_ASSIGNED_CONTEXT ( ( #125, #239, #18 ) ) REPRESENTATION_CONTEXT ( 'NONE', 'WORKASPACE' ) );
#36 = CARTESIAN_POINT ( 'NONE',  ( 80.00000000000000000, 0.000000000000000000, 0.000000000000000000 ) ) ;
#37 = ORIENTED_EDGE ( 'NONE', *, *, #74, .F. ) ;
#38 = DIRECTION ( 'NONE',  ( 1.000000000000000000, 0.000000000000000000, 0.000000000000000000 ) ) ;
#39 = CARTESIAN_POINT ( 'NONE',  ( 0.000000000000000000, 80.00000000000000000, 0.000000000000000000 ) ) ;
#40 = LINE ( 'NONE', #36, #92 ) ;
#41 = ORIENTED_EDGE ( 'NONE', *, *, #104, .T. ) ;
#42 = CARTESIAN_POINT ( 'NONE',  ( 80.00000000000000000, 0.000000000000000000, 10.00000000000000000 ) ) ;
#43 = DIRECTION ( 'NONE',  ( 1.000000000000000000, 0.000000000000000000, 0.000000000000000000 ) ) ;
#44 = ADVANCED_FACE ( 'NONE', ( #32 ), #124, .T. ) ;
#45 = CLOSED_SHELL ( 'NONE', ( #138, #44, #78, #250, #270, #64, #2, #99, #236 ) ) ;
#46 = CARTESIAN_POINT ( 'NONE',  ( 80.00000000000000000, 40.00000000000000000, 10.00000000000000000 ) ) ;
#47 = EDGE_CURVE ( 'NONE', #144, #208, #93, .T. ) ;
#48 = PRODUCT_DEFINITION_FORMATION_WITH_SPECIFIED_SOURCE ( 'ANY', '', #246, .NOT_KNOWN. ) ;
#49 = DIRECTION ( 'NONE',  ( 0.000000000000000000, 1.000000000000000000, 0.000000000000000000 ) ) ;
#50 = CARTESIAN_POINT ( 'NONE',  ( 80.00000000000000000, 80.00000000000000000, 10.00000000000000000 ) ) ;
#51 = VERTEX_POINT ( 'NONE', #179 ) ;
#52 = DIRECTION ( 'NONE',  ( 0.000000000000000000, 0.000000000000000000, 1.000000000000000000 ) ) ;
#53 = DIRECTION ( 'NONE',  ( 0.000000000000000000, 0.000000000000000000, 1.000000000000000000 ) ) ;
#54 = CARTESIAN_POINT ( 'NONE',  ( 80.00000000000000000, 20.00000000000000000, 0.000000000000000000 ) ) ;
#55 = EDGE_LOOP ( 'NONE', ( #57, #227, #240, #96 ) ) ;
#56 = FACE_OUTER_BOUND ( 'NONE', #27, .T. ) ;
#57 = ORIENTED_EDGE ( 'NONE', *, *, #171, .F. ) ;
#58 = CIRCLE ( 'NONE', #221, 20.00000000000000355 ) ;
#59 = DIRECTION ( 'NONE',  ( 0.000000000000000000, 1.000000000000000000, 0.000000000000000000 ) ) ;
#60 = DIRECTION ( 'NONE',  ( -1.000000000000000000, 0.000000000000000000, 0.000000000000000000 ) ) ;
#61 = AXIS2_PLACEMENT_3D ( 'NONE', #262, #109, #288 ) ;
#62 = SURFACE_SIDE_STYLE ('',( #102 ) ) ;
#63 = PLANE ( 'NONE',  #247 ) ;
#64 = ADVANCED_FACE ( 'NONE', ( #184 ), #256, .F. ) ;
#65 = PRESENTATION_LAYER_ASSIGNMENT (  '', '', ( #194 ) ) ;
#66 =( NAMED_UNIT ( * ) PLANE_ANGLE_UNIT ( ) SI_UNIT ( $, .RADIAN. ) );
#67 = ORIENTED_EDGE ( 'NONE', *, *, #190, .T. ) ;
#68 = CARTESIAN_POINT ( 'NONE',  ( 0.000000000000000000, 80.00000000000000000, 10.00000000000000000 ) ) ;
#69 = DIRECTION ( 'NONE',  ( 0.000000000000000000, -1.000000000000000000, 0.000000000000000000 ) ) ;
#70 = CARTESIAN_POINT ( 'NONE',  ( 0.000000000000000000, 0.000000000000000000, 10.00000000000000000 ) ) ;
#71 = DIRECTION ( 'NONE',  ( 0.000000000000000000, 0.000000000000000000, -1.000000000000000000 ) ) ;
#72 = ORIENTED_EDGE ( 'NONE', *, *, #171, .T. ) ;
#73 = CARTESIAN_POINT ( 'NONE',  ( 80.00000000000000000, 20.00000000000000000, 0.000000000000000000 ) ) ;
#74 = EDGE_CURVE ( 'NONE', #141, #237, #175, .T. ) ;
#75 = CYLINDRICAL_SURFACE ( 'NONE', #61, 20.00000000000000355 ) ;
#76 = DIRECTION ( 'NONE',  ( 0.000000000000000000, -1.000000000000000000, 0.000000000000000000 ) ) ;
#77 = AXIS2_PLACEMENT_3D ( 'NONE', #159, #71, #188 ) ;
#78 = ADVANCED_FACE ( 'NONE', ( #273 ), #207, .F. ) ;
#79 = SURFACE_STYLE_USAGE ( .BOTH. , #62 ) ;
#80 = UNCERTAINTY_MEASURE_WITH_UNIT (LENGTH_MEASURE( 1.000000000000000082E-05 ), #125, 'distance_accuracy_value', 'NONE');
#81 = CARTESIAN_POINT ( 'NONE',  ( 80.00000000000000000, 80.00000000000000000, 10.00000000000000000 ) ) ;
#82 = VECTOR ( 'NONE', #43, 1000.000000000000000 ) ;
#83 = VECTOR ( 'NONE', #192, 1000.000000000000000 ) ;
#84 = CARTESIAN_POINT ( 'NONE',  ( 0.000000000000000000, 0.000000000000000000, 0.000000000000000000 ) ) ;
#85 = CARTESIAN_POINT ( 'NONE',  ( 80.00000000000000000, 40.00000000000000000, 0.000000000000000000 ) ) ;
#86 = PRODUCT_CONTEXT ( 'NONE', #94, 'mechanical' ) ;
#87 = PRODUCT_RELATED_PRODUCT_CATEGORY ( 'part', '', ( #246 ) ) ;
#88 = VERTEX_POINT ( 'NONE', #9 ) ;
#89 = ORIENTED_EDGE ( 'NONE', *, *, #104, .F. ) ;
#90 = EDGE_LOOP ( 'NONE', ( #67, #164, #276, #41 ) ) ;
#91 = VECTOR ( 'NONE', #122, 1000.000000000000000 ) ;
#92 = VECTOR ( 'NONE', #284, 1000.000000000000000 ) ;
#93 = LINE ( 'NONE', #12, #91 ) ;
#94 = APPLICATION_CONTEXT ( 'automotive_design' ) ;
#95 = DIRECTION ( 'NONE',  ( 0.000000000000000000, -1.000000000000000000, 0.000000000000000000 ) ) ;
#96 = ORIENTED_EDGE ( 'NONE', *, *, #196, .T. ) ;
#97 = AXIS2_PLACEMENT_3D ( 'NONE', #157, #174, #220 ) ;
#98 = CARTESIAN_POINT ( 'NONE',  ( 100.0000000000000000, 40.00000000000000000, 10.00000000000000000 ) ) ;
#99 = ADVANCED_FACE ( 'NONE', ( #163 ), #279, .F. ) ;
#100 = DIRECTION ( 'NONE',  ( 0.000000000000000000, 0.000000000000000000, -1.000000000000000000 ) ) ;
#101 = DIRECTION ( 'NONE',  ( 0.000000000000000000, 0.000000000000000000, -1.000000000000000000 ) ) ;
#102 = SURFACE_STYLE_FILL_AREA ( #287 ) ;
#103 = PLANE ( 'NONE',  #20 ) ;
#104 = EDGE_CURVE ( 'NONE', #88, #31, #182, .T. ) ;
#105 = LINE ( 'NONE', #132, #26 ) ;
#106 = DIRECTION ( 'NONE',  ( 0.000000000000000000, 0.000000000000000000, 1.000000000000000000 ) ) ;
#107 = UNCERTAINTY_MEASURE_WITH_UNIT (LENGTH_MEASURE( 1.000000000000000082E-05 ), #272, 'distance_accuracy_value', 'NONE');
#108 = MECHANICAL_DESIGN_GEOMETRIC_PRESENTATION_REPRESENTATION (  '', ( #194 ), #35 ) ;
#109 = DIRECTION ( 'NONE',  ( 0.000000000000000000, 0.000000000000000000, 1.000000000000000000 ) ) ;
#110 = LINE ( 'NONE', #131, #83 ) ;
#111 = EDGE_CURVE ( 'NONE', #144, #290, #225, .T. ) ;
#112 = VERTEX_POINT ( 'NONE', #50 ) ;
#113 = FACE_OUTER_BOUND ( 'NONE', #15, .T. ) ;
#114 = VECTOR ( 'NONE', #238, 1000.000000000000000 ) ;
#115 = EDGE_CURVE ( 'NONE', #133, #251, #204, .T. ) ;
#116 = AXIS2_PLACEMENT_3D ( 'NONE', #84, #136, #3 ) ;
#117 = CARTESIAN_POINT ( 'NONE',  ( 80.00000000000000000, 60.00000000000000000, 10.00000000000000000 ) ) ;
#118 = ORIENTED_EDGE ( 'NONE', *, *, #115, .T. ) ;
#119 = CARTESIAN_POINT ( 'NONE',  ( 80.00000000000000000, 60.00000000000000000, 0.000000000000000000 ) ) ;
#120 = ORIENTED_EDGE ( 'NONE', *, *, #29, .F. ) ;
#121 = AXIS2_PLACEMENT_3D ( 'NONE', #266, #127, #38 ) ;
#122 = DIRECTION ( 'NONE',  ( 0.000000000000000000, 1.000000000000000000, 0.000000000000000000 ) ) ;
#123 = PRODUCT_DEFINITION ( 'UNKNOWN', '', #48, #265 ) ;
#124 = PLANE ( 'NONE',  #155 ) ;
#125 =( LENGTH_UNIT ( ) NAMED_UNIT ( * ) SI_UNIT ( .MILLI., .METRE. ) );
#126 = ORIENTED_EDGE ( 'NONE', *, *, #196, .F. ) ;
#127 = DIRECTION ( 'NONE',  ( 0.000000000000000000, 0.000000000000000000, 1.000000000000000000 ) ) ;
#128 = ORIENTED_EDGE ( 'NONE', *, *, #162, .F. ) ;
#129 = FILL_AREA_STYLE_COLOUR ( '', #30 ) ;
#130 = VERTEX_POINT ( 'NONE', #275 ) ;
#131 = CARTESIAN_POINT ( 'NONE',  ( 0.000000000000000000, 0.000000000000000000, 10.00000000000000000 ) ) ;
#132 = CARTESIAN_POINT ( 'NONE',  ( 80.00000000000000000, 0.000000000000000000, 10.00000000000000000 ) ) ;
#133 = VERTEX_POINT ( 'NONE', #70 ) ;
#134 = DIRECTION ( 'NONE',  ( -0.000000000000000000, 1.000000000000000000, 0.000000000000000000 ) ) ;
#135 = APPLICATION_CONTEXT ( 'automotive_design' ) ;
#136 = DIRECTION ( 'NONE',  ( 0.000000000000000000, 0.000000000000000000, 1.000000000000000000 ) ) ;
#137 = VECTOR ( 'NONE', #21, 1000.000000000000000 ) ;
#138 = ADVANCED_FACE ( 'NONE', ( #252 ), #11, .T. ) ;
#139 = CARTESIAN_POINT ( 'NONE',  ( 0.000000000000000000, 0.000000000000000000, 10.00000000000000000 ) ) ;
#140 = CARTESIAN_POINT ( 'NONE',  ( 0.000000000000000000, 0.000000000000000000, 10.00000000000000000 ) ) ;
#141 = VERTEX_POINT ( 'NONE', #146 ) ;
#142 = CARTESIAN_POINT ( 'NONE',  ( 0.000000000000000000, 80.00000000000000000, 0.000000000000000000 ) ) ;
#143 = LINE ( 'NONE', #39, #137 ) ;
#144 = VERTEX_POINT ( 'NONE', #172 ) ;
#145 = EDGE_LOOP ( 'NONE', ( #212, #193, #154, #203, #151, #128, #167 ) ) ;
#146 = CARTESIAN_POINT ( 'NONE',  ( 100.0000000000000000, 40.00000000000000000, 0.000000000000000000 ) ) ;
#147 = ORIENTED_EDGE ( 'NONE', *, *, #150, .T. ) ;
#148 = CARTESIAN_POINT ( 'NONE',  ( 0.000000000000000000, 80.00000000000000000, 10.00000000000000000 ) ) ;
#149 = AXIS2_PLACEMENT_3D ( 'NONE', #85, #222, #200 ) ;
#150 = EDGE_CURVE ( 'NONE', #208, #31, #143, .T. ) ;
#151 = ORIENTED_EDGE ( 'NONE', *, *, #74, .T. ) ;
#152 = EDGE_LOOP ( 'NONE', ( #24, #4, #206, #218 ) ) ;
#153 = APPLICATION_PROTOCOL_DEFINITION ( 'draft international standard', 'automotive_design', 1998, #135 ) ;
#154 = ORIENTED_EDGE ( 'NONE', *, *, #47, .F. ) ;
#155 = AXIS2_PLACEMENT_3D ( 'NONE', #211, #101, #95 ) ;
#156 = ADVANCED_BREP_SHAPE_REPRESENTATION ( 'Qf2a', ( #160, #116 ), #278 ) ;
#157 = CARTESIAN_POINT ( 'NONE',  ( 0.000000000000000000, 80.00000000000000000, 10.00000000000000000 ) ) ;
#158 = CIRCLE ( 'NONE', #223, 20.00000000000000355 ) ;
#159 = CARTESIAN_POINT ( 'NONE',  ( 80.00000000000000000, 40.00000000000000000, 0.000000000000000000 ) ) ;
#160 = MANIFOLD_SOLID_BREP ( 'NONE', #45 ) ;
#161 = DIRECTION ( 'NONE',  ( 0.000000000000000000, 0.000000000000000000, 1.000000000000000000 ) ) ;
#162 = EDGE_CURVE ( 'NONE', #130, #237, #40, .T. ) ;
#163 = FACE_OUTER_BOUND ( 'NONE', #152, .T. ) ;
#164 = ORIENTED_EDGE ( 'NONE', *, *, #115, .F. ) ;
#165 = ORIENTED_EDGE ( 'NONE', *, *, #201, .F. ) ;
#166 = LINE ( 'NONE', #81, #209 ) ;
#167 = ORIENTED_EDGE ( 'NONE', *, *, #277, .F. ) ;
#168 = LINE ( 'NONE', #148, #114 ) ;
#169 = CARTESIAN_POINT ( 'NONE',  ( 100.0000000000000000, 40.00000000000000000, 0.000000000000000000 ) ) ;
#170 = LINE ( 'NONE', #198, #181 ) ;
#171 = EDGE_CURVE ( 'NONE', #141, #7, #33, .T. ) ;
#172 = CARTESIAN_POINT ( 'NONE',  ( 80.00000000000000000, 60.00000000000000000, 0.000000000000000000 ) ) ;
#173 = APPLICATION_PROTOCOL_DEFINITION ( 'draft international standard', 'automotive_design', 1998, #94 ) ;
#174 = DIRECTION ( 'NONE',  ( 0.000000000000000000, -1.000000000000000000, 0.000000000000000000 ) ) ;
#175 = CIRCLE ( 'NONE', #77, 20.00000000000000355 ) ;
#176 = ORIENTED_EDGE ( 'NONE', *, *, #183, .T. ) ;
#177 = EDGE_CURVE ( 'NONE', #257, #130, #105, .T. ) ;
#178 = ORIENTED_EDGE ( 'NONE', *, *, #214, .T. ) ;
#179 = CARTESIAN_POINT ( 'NONE',  ( 80.00000000000000000, 20.00000000000000000, 10.00000000000000000 ) ) ;
#180 = ORIENTED_EDGE ( 'NONE', *, *, #242, .F. ) ;
#181 = VECTOR ( 'NONE', #213, 1000.000000000000000 ) ;
#182 = LINE ( 'NONE', #68, #271 ) ;
#183 = EDGE_CURVE ( 'NONE', #257, #51, #170, .T. ) ;
#184 = FACE_OUTER_BOUND ( 'NONE', #90, .T. ) ;
#185 = CARTESIAN_POINT ( 'NONE',  ( 0.000000000000000000, 0.000000000000000000, 10.00000000000000000 ) ) ;
#186 = LINE ( 'NONE', #73, #254 ) ;
#187 = VECTOR ( 'NONE', #76, 1000.000000000000000 ) ;
#188 = DIRECTION ( 'NONE',  ( -1.000000000000000000, 0.000000000000000000, 0.000000000000000000 ) ) ;
#189 = DIRECTION ( 'NONE',  ( -1.000000000000000000, 0.000000000000000000, 0.000000000000000000 ) ) ;
#190 = EDGE_CURVE ( 'NONE', #31, #251, #217, .T. ) ;
#191 = DIRECTION ( 'NONE',  ( 0.000000000000000000, 0.000000000000000000, -1.000000000000000000 ) ) ;
#192 = DIRECTION ( 'NONE',  ( 1.000000000000000000, 0.000000000000000000, 0.000000000000000000 ) ) ;
#193 = ORIENTED_EDGE ( 'NONE', *, *, #150, .F. ) ;
#194 = STYLED_ITEM ( 'NONE', ( #282 ), #160 ) ;
#195 = DIRECTION ( 'NONE',  ( 0.000000000000000000, 0.000000000000000000, -1.000000000000000000 ) ) ;
#196 = EDGE_CURVE ( 'NONE', #290, #7, #58, .T. ) ;
#197 = CARTESIAN_POINT ( 'NONE',  ( 80.00000000000000000, 0.000000000000000000, 10.00000000000000000 ) ) ;
#198 = CARTESIAN_POINT ( 'NONE',  ( 80.00000000000000000, 0.000000000000000000, 10.00000000000000000 ) ) ;
#199 = ORIENTED_EDGE ( 'NONE', *, *, #201, .T. ) ;
#200 = DIRECTION ( 'NONE',  ( -1.000000000000000000, 0.000000000000000000, 0.000000000000000000 ) ) ;
#201 = EDGE_CURVE ( 'NONE', #112, #88, #168, .T. ) ;
#202 =( NAMED_UNIT ( * ) SI_UNIT ( $, .STERADIAN. ) SOLID_ANGLE_UNIT ( ) );
#203 = ORIENTED_EDGE ( 'NONE', *, *, #289, .T. ) ;
#204 = LINE ( 'NONE', #140, #261 ) ;
#205 = AXIS2_PLACEMENT_3D ( 'NONE', #210, #13, #49 ) ;
#206 = ORIENTED_EDGE ( 'NONE', *, *, #177, .T. ) ;
#207 = PLANE ( 'NONE',  #286 ) ;
#208 = VERTEX_POINT ( 'NONE', #22 ) ;
#209 = VECTOR ( 'NONE', #258, 1000.000000000000000 ) ;
#210 = CARTESIAN_POINT ( 'NONE',  ( 0.000000000000000000, 0.000000000000000000, 10.00000000000000000 ) ) ;
#211 = CARTESIAN_POINT ( 'NONE',  ( 0.000000000000000000, 0.000000000000000000, 0.000000000000000000 ) ) ;
#212 = ORIENTED_EDGE ( 'NONE', *, *, #190, .F. ) ;
#213 = DIRECTION ( 'NONE',  ( 0.000000000000000000, 1.000000000000000000, 0.000000000000000000 ) ) ;
#214 = EDGE_CURVE ( 'NONE', #133, #257, #110, .T. ) ;
#215 = EDGE_LOOP ( 'NONE', ( #37, #72, #260, #120 ) ) ;
#216 = CARTESIAN_POINT ( 'NONE',  ( 0.000000000000000000, 0.000000000000000000, 0.000000000000000000 ) ) ;
#217 = LINE ( 'NONE', #216, #274 ) ;
#218 = ORIENTED_EDGE ( 'NONE', *, *, #162, .T. ) ;
#219 = LINE ( 'NONE', #241, #82 ) ;
#220 = DIRECTION ( 'NONE',  ( 0.000000000000000000, 0.000000000000000000, -1.000000000000000000 ) ) ;
#221 = AXIS2_PLACEMENT_3D ( 'NONE', #264, #191, #60 ) ;
#222 = DIRECTION ( 'NONE',  ( 0.000000000000000000, 0.000000000000000000, -1.000000000000000000 ) ) ;
#223 = AXIS2_PLACEMENT_3D ( 'NONE', #46, #245, #23 ) ;
#224 = PRODUCT_DEFINITION_SHAPE ( 'NONE', 'NONE',  #123 ) ;
#225 = LINE ( 'NONE', #119, #244 ) ;
#226 = DIRECTION ( 'NONE',  ( 0.000000000000000000, 0.000000000000000000, -1.000000000000000000 ) ) ;
#227 = ORIENTED_EDGE ( 'NONE', *, *, #289, .F. ) ;
#228 = AXIS2_PLACEMENT_3D ( 'NONE', #253, #6, #52 ) ;
#229 = EDGE_LOOP ( 'NONE', ( #28, #178, #176, #263, #126, #249, #199 ) ) ;
#230 = ORIENTED_EDGE ( 'NONE', *, *, #177, .F. ) ;
#231 = EDGE_CURVE ( 'NONE', #88, #133, #259, .T. ) ;
#232 = CARTESIAN_POINT ( 'NONE',  ( 80.00000000000000000, 0.000000000000000000, 10.00000000000000000 ) ) ;
#233 = VECTOR ( 'NONE', #14, 1000.000000000000000 ) ;
#234 = FACE_OUTER_BOUND ( 'NONE', #215, .T. ) ;
#235 = ORIENTED_EDGE ( 'NONE', *, *, #214, .F. ) ;
#236 = ADVANCED_FACE ( 'NONE', ( #234 ), #75, .T. ) ;
#237 = VERTEX_POINT ( 'NONE', #54 ) ;
#238 = DIRECTION ( 'NONE',  ( -1.000000000000000000, 0.000000000000000000, 0.000000000000000000 ) ) ;
#239 =( NAMED_UNIT ( * ) PLANE_ANGLE_UNIT ( ) SI_UNIT ( $, .RADIAN. ) );
#240 = ORIENTED_EDGE ( 'NONE', *, *, #111, .T. ) ;
#241 = CARTESIAN_POINT ( 'NONE',  ( 0.000000000000000000, 0.000000000000000000, 0.000000000000000000 ) ) ;
#242 = EDGE_CURVE ( 'NONE', #112, #208, #166, .T. ) ;
#243 = DIRECTION ( 'NONE',  ( 1.000000000000000000, 0.000000000000000000, 0.000000000000000000 ) ) ;
#244 = VECTOR ( 'NONE', #161, 1000.000000000000000 ) ;
#245 = DIRECTION ( 'NONE',  ( 0.000000000000000000, 0.000000000000000000, -1.000000000000000000 ) ) ;
#246 = PRODUCT ( 'Qf2a', 'Qf2a', '', ( #86 ) ) ;
#247 = AXIS2_PLACEMENT_3D ( 'NONE', #139, #134, #243 ) ;
#248 = DIRECTION ( 'NONE',  ( 0.000000000000000000, 0.000000000000000000, -1.000000000000000000 ) ) ;
#249 = ORIENTED_EDGE ( 'NONE', *, *, #16, .T. ) ;
#250 = ADVANCED_FACE ( 'NONE', ( #56 ), #25, .F. ) ;
#251 = VERTEX_POINT ( 'NONE', #269 ) ;
#252 = FACE_OUTER_BOUND ( 'NONE', #55, .T. ) ;
#253 = CARTESIAN_POINT ( 'NONE',  ( 80.00000000000000000, 0.000000000000000000, 10.00000000000000000 ) ) ;
#254 = VECTOR ( 'NONE', #53, 1000.000000000000000 ) ;
#255 = ORIENTED_EDGE ( 'NONE', *, *, #242, .T. ) ;
#256 = PLANE ( 'NONE',  #205 ) ;
#257 = VERTEX_POINT ( 'NONE', #42 ) ;
#258 = DIRECTION ( 'NONE',  ( 0.000000000000000000, 0.000000000000000000, -1.000000000000000000 ) ) ;
#259 = LINE ( 'NONE', #280, #187 ) ;
#260 = ORIENTED_EDGE ( 'NONE', *, *, #268, .T. ) ;
#261 = VECTOR ( 'NONE', #226, 1000.000000000000000 ) ;
#262 = CARTESIAN_POINT ( 'NONE',  ( 80.00000000000000000, 40.00000000000000000, 0.000000000000000000 ) ) ;
#263 = ORIENTED_EDGE ( 'NONE', *, *, #268, .F. ) ;
#264 = CARTESIAN_POINT ( 'NONE',  ( 80.00000000000000000, 40.00000000000000000, 10.00000000000000000 ) ) ;
#265 = PRODUCT_DEFINITION_CONTEXT ( 'detailed design', #135, 'design' ) ;
#266 = CARTESIAN_POINT ( 'NONE',  ( 80.00000000000000000, 40.00000000000000000, 0.000000000000000000 ) ) ;
#267 = CIRCLE ( 'NONE', #149, 20.00000000000000355 ) ;
#268 = EDGE_CURVE ( 'NONE', #7, #51, #158, .T. ) ;
#269 = CARTESIAN_POINT ( 'NONE',  ( 0.000000000000000000, 0.000000000000000000, 0.000000000000000000 ) ) ;
#270 = ADVANCED_FACE ( 'NONE', ( #113 ), #63, .F. ) ;
#271 = VECTOR ( 'NONE', #248, 1000.000000000000000 ) ;
#272 =( LENGTH_UNIT ( ) NAMED_UNIT ( * ) SI_UNIT ( .MILLI., .METRE. ) );
#273 = FACE_OUTER_BOUND ( 'NONE', #229, .T. ) ;
#274 = VECTOR ( 'NONE', #17, 1000.000000000000000 ) ;
#275 = CARTESIAN_POINT ( 'NONE',  ( 80.00000000000000000, 0.000000000000000000, 0.000000000000000000 ) ) ;
#276 = ORIENTED_EDGE ( 'NONE', *, *, #231, .F. ) ;
#277 = EDGE_CURVE ( 'NONE', #251, #130, #219, .T. ) ;
#278 =( GEOMETRIC_REPRESENTATION_CONTEXT ( 3 ) GLOBAL_UNCERTAINTY_ASSIGNED_CONTEXT ( ( #107 ) ) GLOBAL_UNIT_ASSIGNED_CONTEXT ( ( #272, #66, #202 ) ) REPRESENTATION_CONTEXT ( 'NONE', 'WORKASPACE' ) );
#279 = PLANE ( 'NONE',  #228 ) ;
#280 = CARTESIAN_POINT ( 'NONE',  ( 0.000000000000000000, 0.000000000000000000, 10.00000000000000000 ) ) ;
#281 = ORIENTED_EDGE ( 'NONE', *, *, #111, .F. ) ;
#282 = PRESENTATION_STYLE_ASSIGNMENT (( #79 ) ) ;
#283 = EDGE_LOOP ( 'NONE', ( #281, #34, #180, #10 ) ) ;
#284 = DIRECTION ( 'NONE',  ( 0.000000000000000000, 1.000000000000000000, 0.000000000000000000 ) ) ;
#285 = LINE ( 'NONE', #232, #8 ) ;
#286 = AXIS2_PLACEMENT_3D ( 'NONE', #185, #100, #69 ) ;
#287 = FILL_AREA_STYLE ('',( #129 ) ) ;
#288 = DIRECTION ( 'NONE',  ( 1.000000000000000000, 0.000000000000000000, 0.000000000000000000 ) ) ;
#289 = EDGE_CURVE ( 'NONE', #144, #141, #267, .T. ) ;
#290 = VERTEX_POINT ( 'NONE', #117 ) ;
ENDSEC;
END-ISO-10303-21;
