# Blender 4.4.0
# www.blender.org
mtllib Qf2a.mtl
o Qf2a
v 80.000000 0.000000 10.000000
v 80.000000 0.000000 0.000000
v 80.000000 20.000000 10.000000
v 80.000000 20.000000 0.000000
v 80.000000 80.000000 0.000000
v 80.000000 80.000000 10.000000
v 80.000000 60.000000 0.000000
v 80.000000 60.000000 10.000000
v 0.000000 0.000000 10.000000
v 0.000000 80.000000 10.000000
v 0.000000 0.000000 0.000000
v 0.000000 80.000000 0.000000
v 84.786308 20.581163 10.000000
v 89.294464 22.290880 10.000000
v 93.262459 25.029785 10.000000
v 96.459679 28.638706 10.000000
v 98.700325 32.907902 10.000000
v 99.854179 37.589268 10.000000
v 99.854179 42.410736 10.000000
v 98.700325 47.092098 10.000000
v 96.459679 51.361298 10.000000
v 93.262459 54.970215 10.000000
v 89.294464 57.709122 10.000000
v 84.786308 59.418835 10.000000
v 84.786308 20.581163 0.000000
v 93.262459 54.970215 0.000000
v 99.854179 37.589268 0.000000
v 89.294464 57.709122 0.000000
v 84.786308 59.418835 0.000000
v 96.459679 51.361298 0.000000
v 98.700325 47.092098 0.000000
v 99.854179 42.410736 0.000000
v 98.700325 32.907902 0.000000
v 96.459679 28.638706 0.000000
v 93.262459 25.029785 0.000000
v 89.294464 22.290880 0.000000
vn 1.0000 -0.0000 -0.0000
vn -1.0000 -0.0000 -0.0000
vn -0.0000 -1.0000 -0.0000
vn -0.0000 1.0000 -0.0000
vn -0.0000 -0.0000 1.0000
vn -0.0000 -0.0000 -1.0000
vn 0.1205 0.9927 -0.0000
vn 0.3546 0.9350 -0.0000
vn 0.5681 0.8230 -0.0000
vn 0.7485 0.6631 -0.0000
vn 0.8855 0.4647 -0.0000
vn 0.9709 0.2393 -0.0000
vn 0.9709 -0.2393 -0.0000
vn 0.8855 -0.4647 -0.0000
vn 0.7485 -0.6631 -0.0000
vn 0.5681 -0.8230 -0.0000
vn 0.3546 -0.9350 -0.0000
vn 0.1205 -0.9927 -0.0000
s 0
f 1//1 2//1 3//1
f 3//1 2//1 4//1
f 5//1 6//1 7//1
f 7//1 6//1 8//1
f 9//2 10//2 11//2
f 11//2 10//2 12//2
f 1//3 9//3 2//3
f 2//3 9//3 11//3
f 10//4 6//4 12//4
f 12//4 6//4 5//4
f 10//5 9//5 1//5
f 1//5 3//5 10//5
f 10//5 3//5 8//5
f 10//5 8//5 6//5
f 3//5 13//5 8//5
f 8//5 13//5 14//5
f 8//5 14//5 15//5
f 15//5 16//5 8//5
f 8//5 16//5 17//5
f 8//5 17//5 18//5
f 19//5 20//5 18//5
f 18//5 20//5 21//5
f 18//5 21//5 22//5
f 22//5 23//5 18//5
f 18//5 23//5 24//5
f 18//5 24//5 8//5
f 25//6 4//6 7//6
f 2//6 11//6 4//6
f 4//6 11//6 12//6
f 4//6 12//6 7//6
f 7//6 12//6 5//6
f 26//6 27//6 28//6
f 28//6 27//6 29//6
f 26//6 30//6 27//6
f 27//6 30//6 31//6
f 27//6 31//6 32//6
f 29//6 27//6 7//6
f 7//6 27//6 33//6
f 7//6 33//6 34//6
f 34//6 35//6 7//6
f 7//6 35//6 36//6
f 7//6 36//6 25//6
f 7//7 8//7 24//7
f 7//7 24//7 29//7
f 29//8 24//8 23//8
f 29//8 23//8 28//8
f 28//9 23//9 22//9
f 28//9 22//9 26//9
f 26//10 22//10 21//10
f 26//10 21//10 30//10
f 30//11 21//11 20//11
f 30//11 20//11 31//11
f 31//12 20//12 19//12
f 31//12 19//12 32//12
f 32//1 19//1 18//1
f 32//1 18//1 27//1
f 27//13 18//13 17//13
f 27//13 17//13 33//13
f 33//14 17//14 16//14
f 33//14 16//14 34//14
f 34//15 16//15 15//15
f 34//15 15//15 35//15
f 35//16 15//16 14//16
f 35//16 14//16 36//16
f 36//17 14//17 13//17
f 36//17 13//17 25//17
f 25//18 13//18 3//18
f 25//18 3//18 4//18
