# https://github.com/mikedh/trimesh
v 80.00000000 0.00000000 10.00000000
v 80.00000000 0.00000000 0.00000000
v 80.00000000 80.00000000 0.00000000
v 80.00000000 80.00000000 10.00000000
v 0.00000000 0.00000000 10.00000000
v 0.00000000 80.00000000 10.00000000
v 0.00000000 0.00000000 0.00000000
v 0.00000000 80.00000000 0.00000000
v 96.45967900 28.63870600 10.00000000
v 98.70032500 32.90790200 10.00000000
v 99.85417900 37.58926800 10.00000000
v 99.85417900 42.41073600 10.00000000
v 98.70032500 47.09209800 10.00000000
v 96.45967900 51.36129800 10.00000000
v 99.85417900 37.58926800 0.00000000
v 96.45967900 51.36129800 0.00000000
v 98.70032500 47.09209800 0.00000000
v 99.85417900 42.41073600 0.00000000
v 98.70032500 32.90790200 0.00000000
v 96.45967900 28.63870600 0.00000000
f 7 1 2
f 7 1 5
f 8 4 6
f 8 4 3
f 8 6 5
f 8 7 5
f 20 1 2
f 20 9 1
f 12 18 15
f 12 15 11
f 12 18 17
f 12 13 17
f 19 18 15
f 19 8 3
f 19 7 2
f 19 20 2
f 19 8 7
f 19 16 3
f 19 18 17
f 19 16 17
f 19 10 11
f 19 15 11
f 19 20 9
f 19 10 9
f 14 6 5
f 14 1 5
f 14 10 11
f 14 4 6
f 14 9 1
f 14 12 11
f 14 10 9
f 14 12 13
f 14 4 3
f 14 16 3
f 14 13 17
f 14 16 17

