# Blender 4.4.0
# www.blender.org
mtllib Qf4i.mtl
o Qf4i
v 0.000000 0.000000 10.000000
v 0.000000 80.000000 10.000000
v 0.000000 0.000000 0.000000
v 0.000000 80.000000 0.000000
v 80.000000 0.000000 10.000000
v 80.000000 0.000000 0.000000
v 80.000000 80.000000 10.000000
v 80.000000 80.000000 0.000000
v 5.000000 75.000000 10.000000
v 5.000000 5.000000 10.000000
v 75.000000 5.000000 10.000000
v 75.000000 75.000000 10.000000
v 65.877853 11.909830 0.000000
v 68.090172 14.122148 0.000000
v 65.877853 51.909832 0.000000
v 68.090172 54.122147 0.000000
v 63.090168 29.510565 0.000000
v 14.122148 68.090172 0.000000
v 11.909830 65.877853 0.000000
v 50.000000 20.000000 0.000000
v 50.489433 16.909830 0.000000
v 51.909832 14.122148 0.000000
v 54.122147 11.909830 0.000000
v 56.909828 10.489435 0.000000
v 60.000000 10.000000 0.000000
v 63.090168 10.489435 0.000000
v 25.877851 68.090172 0.000000
v 23.090170 69.510567 0.000000
v 20.000000 70.000000 0.000000
v 16.909830 69.510567 0.000000
v 69.510567 16.909830 0.000000
v 70.000000 20.000000 0.000000
v 69.510567 23.090170 0.000000
v 68.090172 25.877851 0.000000
v 51.909832 65.877853 0.000000
v 25.877851 51.909832 0.000000
v 54.122147 68.090172 0.000000
v 28.090170 54.122147 0.000000
v 10.489435 56.909828 0.000000
v 10.000000 60.000000 0.000000
v 10.489435 63.090168 0.000000
v 11.909830 54.122147 0.000000
v 14.122148 51.909832 0.000000
v 16.909830 50.489433 0.000000
v 70.000000 60.000000 0.000000
v 69.510567 56.909828 0.000000
v 65.877853 28.090170 0.000000
v 69.510567 63.090168 0.000000
v 68.090172 65.877853 0.000000
v 65.877853 68.090172 0.000000
v 50.489433 63.090168 0.000000
v 50.000000 60.000000 0.000000
v 23.090170 50.489433 0.000000
v 50.489433 56.909828 0.000000
v 63.090168 69.510567 0.000000
v 60.000000 70.000000 0.000000
v 56.909828 69.510567 0.000000
v 29.510565 56.909828 0.000000
v 30.000000 60.000000 0.000000
v 29.510565 63.090168 0.000000
v 28.090170 65.877853 0.000000
v 51.909832 54.122147 0.000000
v 20.000000 50.000000 0.000000
v 54.122147 51.909832 0.000000
v 56.909828 29.510565 0.000000
v 56.909828 50.489433 0.000000
v 60.000000 30.000000 0.000000
v 60.000000 50.000000 0.000000
v 63.090168 50.489433 0.000000
v 54.122147 28.090170 0.000000
v 51.909832 25.877851 0.000000
v 50.489433 23.090170 0.000000
v 5.000000 5.000000 5.000000
v 5.000000 75.000000 5.000000
v 75.000000 75.000000 5.000000
v 75.000000 5.000000 5.000000
v 68.090172 25.877851 5.000000
v 69.510567 23.090170 5.000000
v 70.000000 20.000000 5.000000
v 60.000000 70.000000 5.000000
v 56.909828 69.510567 5.000000
v 63.090168 69.510567 5.000000
v 65.877853 68.090172 5.000000
v 68.090172 65.877853 5.000000
v 56.909828 29.510565 5.000000
v 69.510567 56.909828 5.000000
v 68.090172 54.122147 5.000000
v 69.510567 63.090168 5.000000
v 70.000000 60.000000 5.000000
v 56.909828 50.489433 5.000000
v 29.510565 56.909828 5.000000
v 28.090170 54.122147 5.000000
v 20.000000 70.000000 5.000000
v 23.090170 69.510567 5.000000
v 54.122147 68.090172 5.000000
v 60.000000 30.000000 5.000000
v 63.090168 29.510565 5.000000
v 65.877853 28.090170 5.000000
v 65.877853 51.909832 5.000000
v 51.909832 25.877851 5.000000
v 54.122147 28.090170 5.000000
v 63.090168 50.489433 5.000000
v 60.000000 50.000000 5.000000
v 50.489433 23.090170 5.000000
v 69.510567 16.909830 5.000000
v 68.090172 14.122148 5.000000
v 65.877853 11.909830 5.000000
v 11.909830 54.122147 5.000000
v 14.122148 51.909832 5.000000
v 16.909830 50.489433 5.000000
v 11.909830 65.877853 5.000000
v 14.122148 68.090172 5.000000
v 16.909830 69.510567 5.000000
v 30.000000 60.000000 5.000000
v 54.122147 51.909832 5.000000
v 51.909832 54.122147 5.000000
v 50.000000 20.000000 5.000000
v 25.877851 51.909832 5.000000
v 23.090170 50.489433 5.000000
v 63.090168 10.489435 5.000000
v 60.000000 10.000000 5.000000
v 50.489433 56.909828 5.000000
v 50.000000 60.000000 5.000000
v 29.510565 63.090168 5.000000
v 25.877851 68.090172 5.000000
v 28.090170 65.877853 5.000000
v 51.909832 65.877853 5.000000
v 50.489433 63.090168 5.000000
v 56.909828 10.489435 5.000000
v 54.122147 11.909830 5.000000
v 51.909832 14.122148 5.000000
v 10.489435 56.909828 5.000000
v 10.000000 60.000000 5.000000
v 10.489435 63.090168 5.000000
v 20.000000 50.000000 5.000000
v 50.489433 16.909830 5.000000
vn -1.0000 -0.0000 -0.0000
vn -0.0000 -1.0000 -0.0000
vn 1.0000 -0.0000 -0.0000
vn -0.0000 1.0000 -0.0000
vn -0.0000 -0.0000 1.0000
vn -0.0000 -0.0000 -1.0000
vn -0.9877 -0.1564 -0.0000
vn -0.8910 -0.4540 -0.0000
vn -0.7071 -0.7071 -0.0000
vn -0.4540 -0.8910 -0.0000
vn -0.1564 -0.9877 -0.0000
vn 0.1564 -0.9877 -0.0000
vn 0.4540 -0.8910 -0.0000
vn 0.7071 -0.7071 -0.0000
vn 0.8910 -0.4540 -0.0000
vn 0.9877 -0.1564 -0.0000
vn 0.9877 0.1564 -0.0000
vn 0.8910 0.4540 -0.0000
vn 0.7071 0.7071 -0.0000
vn 0.4540 0.8910 -0.0000
vn 0.1564 0.9877 -0.0000
vn -0.1564 0.9877 -0.0000
vn -0.4540 0.8910 -0.0000
vn -0.7071 0.7071 -0.0000
vn -0.8910 0.4540 -0.0000
vn -0.9877 0.1564 -0.0000
s 0
f 1//1 2//1 3//1
f 3//1 2//1 4//1
f 5//2 1//2 6//2
f 6//2 1//2 3//2
f 7//3 5//3 8//3
f 8//3 5//3 6//3
f 2//4 7//4 4//4
f 4//4 7//4 8//4
f 9//5 2//5 10//5
f 10//5 2//5 1//5
f 10//5 1//5 11//5
f 11//5 1//5 5//5
f 11//5 5//5 12//5
f 12//5 5//5 7//5
f 12//5 7//5 9//5
f 9//5 7//5 2//5
f 13//6 14//6 6//6
f 15//6 16//6 17//6
f 18//6 19//6 4//6
f 20//6 21//6 3//6
f 3//6 21//6 22//6
f 3//6 22//6 23//6
f 23//6 24//6 3//6
f 3//6 24//6 25//6
f 3//6 25//6 6//6
f 6//6 25//6 26//6
f 6//6 26//6 13//6
f 27//6 28//6 8//6
f 8//6 28//6 29//6
f 8//6 29//6 4//6
f 4//6 29//6 30//6
f 4//6 30//6 18//6
f 14//6 31//6 6//6
f 6//6 31//6 32//6
f 6//6 32//6 8//6
f 8//6 32//6 33//6
f 8//6 33//6 34//6
f 35//6 36//6 37//6
f 37//6 36//6 38//6
f 39//6 3//6 40//6
f 40//6 3//6 4//6
f 40//6 4//6 41//6
f 41//6 4//6 19//6
f 39//6 42//6 3//6
f 3//6 42//6 43//6
f 3//6 43//6 44//6
f 45//6 8//6 46//6
f 46//6 8//6 34//6
f 46//6 34//6 16//6
f 16//6 34//6 47//6
f 16//6 47//6 17//6
f 45//6 48//6 8//6
f 8//6 48//6 49//6
f 8//6 49//6 50//6
f 35//6 51//6 36//6
f 36//6 51//6 52//6
f 36//6 52//6 53//6
f 53//6 52//6 54//6
f 50//6 55//6 8//6
f 8//6 55//6 56//6
f 8//6 56//6 57//6
f 38//6 58//6 37//6
f 37//6 58//6 59//6
f 37//6 59//6 57//6
f 57//6 59//6 60//6
f 57//6 60//6 8//6
f 8//6 60//6 61//6
f 8//6 61//6 27//6
f 54//6 62//6 53//6
f 53//6 62//6 3//6
f 53//6 3//6 63//6
f 63//6 3//6 44//6
f 62//6 64//6 65//6
f 65//6 64//6 66//6
f 65//6 66//6 67//6
f 67//6 66//6 68//6
f 67//6 68//6 17//6
f 17//6 68//6 69//6
f 17//6 69//6 15//6
f 65//6 70//6 62//6
f 62//6 70//6 71//6
f 62//6 71//6 3//6
f 3//6 71//6 72//6
f 3//6 72//6 20//6
f 73//3 74//3 10//3
f 10//3 74//3 9//3
f 74//2 75//2 9//2
f 9//2 75//2 12//2
f 75//1 76//1 12//1
f 12//1 76//1 11//1
f 76//4 73//4 11//4
f 11//4 73//4 10//4
f 77//5 78//5 75//5
f 75//5 78//5 79//5
f 75//5 79//5 76//5
f 75//5 74//5 80//5
f 80//5 74//5 81//5
f 80//5 82//5 75//5
f 75//5 82//5 83//5
f 75//5 83//5 84//5
f 85//5 86//5 87//5
f 84//5 88//5 75//5
f 75//5 88//5 89//5
f 75//5 89//5 86//5
f 90//5 91//5 92//5
f 93//5 94//5 74//5
f 74//5 94//5 95//5
f 74//5 95//5 81//5
f 85//5 96//5 86//5
f 86//5 96//5 97//5
f 86//5 97//5 75//5
f 75//5 97//5 98//5
f 75//5 98//5 77//5
f 99//5 100//5 87//5
f 87//5 100//5 101//5
f 87//5 101//5 85//5
f 99//5 102//5 100//5
f 100//5 102//5 103//5
f 100//5 103//5 104//5
f 79//5 105//5 76//5
f 76//5 105//5 106//5
f 76//5 106//5 107//5
f 108//5 73//5 109//5
f 109//5 73//5 110//5
f 111//5 112//5 74//5
f 74//5 112//5 113//5
f 74//5 113//5 93//5
f 91//5 90//5 114//5
f 114//5 90//5 115//5
f 114//5 115//5 116//5
f 103//5 90//5 104//5
f 104//5 90//5 92//5
f 104//5 92//5 117//5
f 117//5 92//5 118//5
f 117//5 118//5 119//5
f 107//5 120//5 76//5
f 76//5 120//5 121//5
f 76//5 121//5 73//5
f 116//5 122//5 114//5
f 114//5 122//5 123//5
f 114//5 123//5 124//5
f 94//5 125//5 95//5
f 95//5 125//5 126//5
f 95//5 126//5 127//5
f 127//5 126//5 124//5
f 127//5 124//5 128//5
f 128//5 124//5 123//5
f 121//5 129//5 73//5
f 73//5 129//5 130//5
f 73//5 130//5 131//5
f 108//5 132//5 73//5
f 73//5 132//5 133//5
f 73//5 133//5 74//5
f 74//5 133//5 134//5
f 74//5 134//5 111//5
f 110//5 73//5 135//5
f 135//5 73//5 131//5
f 135//5 131//5 119//5
f 119//5 131//5 136//5
f 119//5 136//5 117//5
f 32//7 79//7 33//7
f 33//7 79//7 78//7
f 33//8 78//8 34//8
f 34//8 78//8 77//8
f 34//9 77//9 47//9
f 47//9 77//9 98//9
f 47//10 98//10 17//10
f 17//10 98//10 97//10
f 17//11 97//11 67//11
f 67//11 97//11 96//11
f 67//12 96//12 65//12
f 65//12 96//12 85//12
f 65//13 85//13 70//13
f 70//13 85//13 101//13
f 70//14 101//14 71//14
f 71//14 101//14 100//14
f 71//15 100//15 72//15
f 72//15 100//15 104//15
f 72//16 104//16 20//16
f 20//16 104//16 117//16
f 20//17 117//17 21//17
f 21//17 117//17 136//17
f 21//18 136//18 22//18
f 22//18 136//18 131//18
f 22//19 131//19 23//19
f 23//19 131//19 130//19
f 23//20 130//20 24//20
f 24//20 130//20 129//20
f 24//21 129//21 25//21
f 25//21 129//21 121//21
f 25//22 121//22 26//22
f 26//22 121//22 120//22
f 26//23 120//23 13//23
f 13//23 120//23 107//23
f 13//24 107//24 14//24
f 14//24 107//24 106//24
f 14//25 106//25 31//25
f 31//25 106//25 105//25
f 31//26 105//26 32//26
f 32//26 105//26 79//26
f 45//7 89//7 48//7
f 48//7 89//7 88//7
f 48//8 88//8 49//8
f 49//8 88//8 84//8
f 49//9 84//9 50//9
f 50//9 84//9 83//9
f 50//10 83//10 55//10
f 55//10 83//10 82//10
f 55//11 82//11 56//11
f 56//11 82//11 80//11
f 56//12 80//12 57//12
f 57//12 80//12 81//12
f 57//13 81//13 37//13
f 37//13 81//13 95//13
f 37//14 95//14 35//14
f 35//14 95//14 127//14
f 35//15 127//15 51//15
f 51//15 127//15 128//15
f 51//16 128//16 52//16
f 52//16 128//16 123//16
f 52//17 123//17 54//17
f 54//17 123//17 122//17
f 54//18 122//18 62//18
f 62//18 122//18 116//18
f 62//19 116//19 64//19
f 64//19 116//19 115//19
f 64//20 115//20 66//20
f 66//20 115//20 90//20
f 66//21 90//21 68//21
f 68//21 90//21 103//21
f 68//22 103//22 69//22
f 69//22 103//22 102//22
f 69//23 102//23 15//23
f 15//23 102//23 99//23
f 15//24 99//24 16//24
f 16//24 99//24 87//24
f 16//25 87//25 46//25
f 46//25 87//25 86//25
f 46//26 86//26 45//26
f 45//26 86//26 89//26
f 59//7 114//7 60//7
f 60//7 114//7 124//7
f 60//8 124//8 61//8
f 61//8 124//8 126//8
f 61//9 126//9 27//9
f 27//9 126//9 125//9
f 27//10 125//10 28//10
f 28//10 125//10 94//10
f 28//11 94//11 29//11
f 29//11 94//11 93//11
f 29//12 93//12 30//12
f 30//12 93//12 113//12
f 30//13 113//13 18//13
f 18//13 113//13 112//13
f 18//14 112//14 19//14
f 19//14 112//14 111//14
f 19//15 111//15 41//15
f 41//15 111//15 134//15
f 41//16 134//16 40//16
f 40//16 134//16 133//16
f 40//17 133//17 39//17
f 39//17 133//17 132//17
f 39//18 132//18 42//18
f 42//18 132//18 108//18
f 42//19 108//19 43//19
f 43//19 108//19 109//19
f 43//20 109//20 44//20
f 44//20 109//20 110//20
f 44//21 110//21 63//21
f 63//21 110//21 135//21
f 63//22 135//22 53//22
f 53//22 135//22 119//22
f 53//23 119//23 36//23
f 36//23 119//23 118//23
f 36//24 118//24 38//24
f 38//24 118//24 92//24
f 38//25 92//25 58//25
f 58//25 92//25 91//25
f 58//26 91//26 59//26
f 59//26 91//26 114//26
