# Blender 4.4.0
# www.blender.org
mtllib Qk1a.mtl
o Qk1a
v 3.000000 11.142138 23.327173
v 3.000000 11.983158 22.716137
v 3.000000 3.000000 0.000000
v 3.000000 13.000000 22.500000
v 3.000000 23.000000 0.000000
v 3.000000 14.016842 22.716137
v 3.000000 11.530537 27.022543
v 3.000000 10.834936 26.250000
v 3.000000 3.000000 30.000000
v 3.000000 10.513696 25.261322
v 3.000000 10.622359 24.227457
v 3.000000 15.165063 26.250000
v 3.000000 14.469463 27.022543
v 3.000000 23.000000 30.000000
v 3.000000 13.519779 27.445368
v 3.000000 12.480221 27.445368
v 3.000000 14.857862 23.327173
v 3.000000 15.377641 24.227457
v 3.000000 15.486305 25.261322
v 11.530537 3.000000 22.977459
v 10.834936 3.000000 23.750000
v 10.622359 3.000000 25.772541
v 11.142138 3.000000 26.672827
v 10.513696 3.000000 24.738678
v 14.857862 3.000000 26.672827
v 15.377641 3.000000 25.772541
v 23.000000 3.000000 30.000000
v 15.486305 3.000000 24.738678
v 23.000000 3.000000 0.000000
v 15.165063 3.000000 23.750000
v 14.469463 3.000000 22.977459
v 13.519779 3.000000 22.554630
v 12.480221 3.000000 22.554630
v 11.983158 3.000000 27.283865
v 13.000000 3.000000 27.500000
v 14.016842 3.000000 27.283865
v 23.000000 12.480221 22.554630
v 23.000000 13.519779 22.554630
v 23.000000 23.000000 0.000000
v 23.000000 14.469463 22.977459
v 23.000000 11.530537 22.977459
v 23.000000 10.834936 23.750000
v 23.000000 10.513696 24.738678
v 23.000000 10.622359 25.772541
v 23.000000 11.142138 26.672827
v 23.000000 11.983158 27.283865
v 23.000000 13.000000 27.500000
v 23.000000 23.000000 30.000000
v 23.000000 14.016842 27.283865
v 23.000000 14.857862 26.672827
v 23.000000 15.377641 25.772541
v 23.000000 15.486305 24.738678
v 23.000000 15.165063 23.750000
v 15.486305 23.000000 25.261322
v 15.165063 23.000000 26.250000
v 15.377641 23.000000 24.227457
v 14.857862 23.000000 23.327173
v 14.469463 23.000000 27.022543
v 13.519779 23.000000 27.445368
v 12.480221 23.000000 27.445368
v 11.530537 23.000000 27.022543
v 10.834936 23.000000 26.250000
v 10.513696 23.000000 25.261322
v 10.622359 23.000000 24.227457
v 11.142138 23.000000 23.327173
v 11.983158 23.000000 22.716137
v 13.000000 23.000000 22.500000
v 14.016842 23.000000 22.716137
v 13.000000 26.000000 27.500000
v 12.480221 26.000000 27.445368
v 11.530537 26.000000 27.022543
v 10.834936 26.000000 26.250000
v 10.513696 26.000000 25.261322
v 10.622359 26.000000 24.227457
v 11.142138 26.000000 23.327173
v 11.983158 26.000000 22.716137
v 13.000000 26.000000 22.500000
v 14.016842 26.000000 22.716137
v 14.857862 26.000000 23.327173
v 15.377641 26.000000 24.227457
v 15.486305 26.000000 25.261322
v 15.165063 26.000000 26.250000
v 14.469463 26.000000 27.022543
v 13.519779 26.000000 27.445368
v 13.000000 26.000000 25.000000
v 26.000000 13.000000 22.500000
v 26.000000 12.480221 22.554630
v 26.000000 11.530537 22.977459
v 26.000000 10.834936 23.750000
v 26.000000 10.513696 24.738678
v 26.000000 10.622359 25.772541
v 26.000000 11.142138 26.672827
v 26.000000 11.983158 27.283865
v 26.000000 13.000000 27.500000
v 26.000000 14.016842 27.283865
v 26.000000 14.857862 26.672827
v 26.000000 15.377641 25.772541
v 26.000000 15.486305 24.738678
v 26.000000 15.165063 23.750000
v 26.000000 14.469463 22.977459
v 26.000000 13.519779 22.554630
v 26.000000 13.000000 25.000000
v 0.000000 13.000000 27.500000
v 0.000000 12.480221 27.445368
v 0.000000 11.530537 27.022543
v 0.000000 10.834936 26.250000
v 0.000000 10.513696 25.261322
v 0.000000 10.622359 24.227457
v 0.000000 11.142138 23.327173
v 0.000000 11.983158 22.716137
v 0.000000 13.000000 22.500000
v 0.000000 14.016842 22.716137
v 0.000000 14.857862 23.327173
v 0.000000 15.377641 24.227457
v 0.000000 15.486305 25.261322
v 0.000000 15.165063 26.250000
v 0.000000 14.469463 27.022543
v 0.000000 13.519779 27.445368
v 0.000000 13.000000 25.000000
v 13.000000 0.000000 22.500000
v 12.480221 0.000000 22.554630
v 11.530537 0.000000 22.977459
v 10.834936 0.000000 23.750000
v 10.513696 0.000000 24.738678
v 10.622359 0.000000 25.772541
v 11.142138 0.000000 26.672827
v 11.983158 0.000000 27.283865
v 13.000000 0.000000 27.500000
v 14.016842 0.000000 27.283865
v 14.857862 0.000000 26.672827
v 15.377641 0.000000 25.772541
v 15.486305 0.000000 24.738678
v 15.165063 0.000000 23.750000
v 14.469463 0.000000 22.977459
v 13.519779 0.000000 22.554630
v 13.000000 0.000000 25.000000
vn -1.0000 -0.0000 -0.0000
vn -0.0000 -1.0000 -0.0000
vn 1.0000 -0.0000 -0.0000
vn -0.0000 1.0000 -0.0000
vn -0.0000 -0.0000 1.0000
vn -0.0000 -0.0000 -1.0000
vn -0.1045 -0.0000 0.9945
vn -0.4067 -0.0000 0.9135
vn -0.7431 -0.0000 0.6691
vn -0.9511 -0.0000 0.3090
vn -0.9945 -0.0000 -0.1045
vn -0.8660 -0.0000 -0.5000
vn -0.5878 -0.0000 -0.8090
vn -0.2079 -0.0000 -0.9781
vn 0.2079 -0.0000 -0.9781
vn 0.5878 -0.0000 -0.8090
vn 0.8660 -0.0000 -0.5000
vn 0.9945 -0.0000 -0.1045
vn 0.9511 -0.0000 0.3090
vn 0.7431 -0.0000 0.6691
vn 0.4067 -0.0000 0.9135
vn 0.1045 -0.0000 0.9945
vn -0.0000 -0.0182 0.9998
vn -0.0000 -0.1045 -0.9945
vn -0.0000 -0.4067 -0.9135
vn -0.0000 -0.7431 -0.6691
vn -0.0000 -0.9511 -0.3090
vn -0.0000 -0.9945 0.1045
vn -0.0000 -0.8660 0.5000
vn -0.0000 -0.5878 0.8090
vn -0.0000 -0.2079 0.9781
vn -0.0000 0.2079 0.9781
vn -0.0000 0.5878 0.8090
vn -0.0000 0.8660 0.5000
vn -0.0000 0.9945 0.1045
vn -0.0000 0.9511 -0.3090
vn -0.0000 0.7431 -0.6691
vn -0.0000 0.4067 -0.9135
vn -0.0000 0.1045 -0.9945
vn -0.0182 -0.0000 -0.9998
vn -0.0000 -0.1045 0.9945
vn -0.0000 -0.4067 0.9135
vn -0.0000 -0.7431 0.6691
vn -0.0000 -0.9511 0.3090
vn -0.0000 -0.9945 -0.1045
vn -0.0000 -0.8660 -0.5000
vn -0.0000 -0.5878 -0.8090
vn -0.0000 -0.2079 -0.9781
vn -0.0000 0.2079 -0.9781
vn -0.0000 0.5878 -0.8090
vn -0.0000 0.8660 -0.5000
vn -0.0000 0.9945 -0.1045
vn -0.0000 0.9511 0.3090
vn -0.0000 0.7431 0.6691
vn -0.0000 0.4067 0.9135
vn -0.0000 0.1045 0.9945
vn 0.0182 -0.0000 0.9998
vn -0.1045 -0.0000 -0.9945
vn -0.4067 -0.0000 -0.9135
vn -0.7431 -0.0000 -0.6691
vn -0.9511 -0.0000 -0.3090
vn -0.9945 -0.0000 0.1045
vn -0.8660 -0.0000 0.5000
vn -0.5878 -0.0000 0.8090
vn -0.2079 -0.0000 0.9781
vn 0.2079 -0.0000 0.9781
vn 0.5878 -0.0000 0.8090
vn 0.8660 -0.0000 0.5000
vn 0.9945 -0.0000 0.1045
vn 0.9511 -0.0000 -0.3090
vn 0.7431 -0.0000 -0.6691
vn 0.4067 -0.0000 -0.9135
vn 0.1045 -0.0000 -0.9945
vn -0.0000 0.0182 -0.9998
s 0
f 1//1 2//1 3//1
f 3//1 2//1 4//1
f 3//1 4//1 5//1
f 5//1 4//1 6//1
f 7//1 8//1 9//1
f 9//1 8//1 10//1
f 9//1 10//1 3//1
f 3//1 10//1 11//1
f 3//1 11//1 1//1
f 12//1 13//1 14//1
f 14//1 13//1 15//1
f 14//1 15//1 9//1
f 9//1 15//1 16//1
f 9//1 16//1 7//1
f 6//1 17//1 5//1
f 5//1 17//1 18//1
f 5//1 18//1 14//1
f 14//1 18//1 19//1
f 14//1 19//1 12//1
f 3//2 20//2 21//2
f 22//2 23//2 9//2
f 3//2 21//2 9//2
f 9//2 21//2 24//2
f 9//2 24//2 22//2
f 25//2 26//2 27//2
f 27//2 26//2 28//2
f 27//2 28//2 29//2
f 29//2 28//2 30//2
f 30//2 31//2 29//2
f 29//2 31//2 32//2
f 29//2 32//2 3//2
f 3//2 32//2 33//2
f 3//2 33//2 20//2
f 23//2 34//2 9//2
f 9//2 34//2 35//2
f 9//2 35//2 27//2
f 27//2 35//2 36//2
f 27//2 36//2 25//2
f 37//3 29//3 38//3
f 38//3 29//3 39//3
f 38//3 39//3 40//3
f 37//3 41//3 29//3
f 29//3 41//3 42//3
f 29//3 42//3 27//3
f 42//3 43//3 27//3
f 27//3 43//3 44//3
f 27//3 44//3 45//3
f 45//3 46//3 27//3
f 27//3 46//3 47//3
f 27//3 47//3 48//3
f 48//3 47//3 49//3
f 48//3 49//3 50//3
f 50//3 51//3 48//3
f 48//3 51//3 52//3
f 48//3 52//3 39//3
f 39//3 52//3 53//3
f 39//3 53//3 40//3
f 48//4 54//4 55//4
f 54//4 48//4 56//4
f 56//4 48//4 39//4
f 56//4 39//4 57//4
f 55//4 58//4 48//4
f 48//4 58//4 59//4
f 48//4 59//4 14//4
f 14//4 59//4 60//4
f 14//4 60//4 61//4
f 61//4 62//4 14//4
f 14//4 62//4 63//4
f 14//4 63//4 5//4
f 5//4 63//4 64//4
f 5//4 64//4 65//4
f 65//4 66//4 5//4
f 5//4 66//4 67//4
f 5//4 67//4 39//4
f 39//4 67//4 68//4
f 39//4 68//4 57//4
f 27//5 48//5 9//5
f 9//5 48//5 14//5
f 39//6 29//6 5//6
f 5//6 29//6 3//6
f 69//7 70//7 60//7
f 60//8 70//8 71//8
f 60//8 71//8 61//8
f 61//9 71//9 72//9
f 61//9 72//9 62//9
f 62//10 72//10 73//10
f 62//10 73//10 63//10
f 63//11 73//11 74//11
f 63//11 74//11 64//11
f 64//12 74//12 75//12
f 64//12 75//12 65//12
f 65//13 75//13 76//13
f 65//13 76//13 66//13
f 66//14 76//14 77//14
f 66//14 77//14 67//14
f 67//15 77//15 78//15
f 67//15 78//15 68//15
f 68//16 78//16 79//16
f 68//16 79//16 57//16
f 57//17 79//17 80//17
f 57//17 80//17 56//17
f 56//18 80//18 81//18
f 56//18 81//18 54//18
f 54//19 81//19 82//19
f 54//19 82//19 55//19
f 55//20 82//20 83//20
f 55//20 83//20 58//20
f 58//21 83//21 84//21
f 58//21 84//21 59//21
f 59//22 84//22 69//22
f 59//23 69//23 60//23
f 69//4 84//4 85//4
f 72//4 71//4 85//4
f 85//4 71//4 70//4
f 85//4 70//4 69//4
f 75//4 74//4 85//4
f 85//4 74//4 73//4
f 85//4 73//4 72//4
f 78//4 77//4 85//4
f 85//4 77//4 76//4
f 85//4 76//4 75//4
f 81//4 80//4 85//4
f 85//4 80//4 79//4
f 85//4 79//4 78//4
f 84//4 83//4 85//4
f 85//4 83//4 82//4
f 85//4 82//4 81//4
f 86//24 87//24 37//24
f 37//25 87//25 88//25
f 37//25 88//25 41//25
f 41//26 88//26 89//26
f 41//26 89//26 42//26
f 42//27 89//27 90//27
f 42//27 90//27 43//27
f 43//28 90//28 91//28
f 43//28 91//28 44//28
f 44//29 91//29 92//29
f 44//29 92//29 45//29
f 45//30 92//30 93//30
f 45//30 93//30 46//30
f 46//31 93//31 94//31
f 46//31 94//31 47//31
f 47//32 94//32 95//32
f 47//32 95//32 49//32
f 49//33 95//33 96//33
f 49//33 96//33 50//33
f 50//34 96//34 97//34
f 50//34 97//34 51//34
f 51//35 97//35 98//35
f 51//35 98//35 52//35
f 52//36 98//36 99//36
f 52//36 99//36 53//36
f 53//37 99//37 100//37
f 53//37 100//37 40//37
f 40//38 100//38 101//38
f 40//38 101//38 38//38
f 38//39 101//39 86//39
f 38//40 86//40 37//40
f 86//3 101//3 102//3
f 89//3 88//3 102//3
f 102//3 88//3 87//3
f 102//3 87//3 86//3
f 92//3 91//3 102//3
f 102//3 91//3 90//3
f 102//3 90//3 89//3
f 95//3 94//3 102//3
f 102//3 94//3 93//3
f 102//3 93//3 92//3
f 98//3 97//3 102//3
f 102//3 97//3 96//3
f 102//3 96//3 95//3
f 101//3 100//3 102//3
f 102//3 100//3 99//3
f 102//3 99//3 98//3
f 103//41 104//41 16//41
f 16//42 104//42 105//42
f 16//42 105//42 7//42
f 7//43 105//43 106//43
f 7//43 106//43 8//43
f 8//44 106//44 107//44
f 8//44 107//44 10//44
f 10//45 107//45 108//45
f 10//45 108//45 11//45
f 11//46 108//46 109//46
f 11//46 109//46 1//46
f 1//47 109//47 110//47
f 1//47 110//47 2//47
f 2//48 110//48 111//48
f 2//48 111//48 4//48
f 4//49 111//49 112//49
f 4//49 112//49 6//49
f 6//50 112//50 113//50
f 6//50 113//50 17//50
f 17//51 113//51 114//51
f 17//51 114//51 18//51
f 18//52 114//52 115//52
f 18//52 115//52 19//52
f 19//53 115//53 116//53
f 19//53 116//53 12//53
f 12//54 116//54 117//54
f 12//54 117//54 13//54
f 13//55 117//55 118//55
f 13//55 118//55 15//55
f 15//56 118//56 103//56
f 15//57 103//57 16//57
f 103//1 118//1 119//1
f 106//1 105//1 119//1
f 119//1 105//1 104//1
f 119//1 104//1 103//1
f 109//1 108//1 119//1
f 119//1 108//1 107//1
f 119//1 107//1 106//1
f 112//1 111//1 119//1
f 119//1 111//1 110//1
f 119//1 110//1 109//1
f 115//1 114//1 119//1
f 119//1 114//1 113//1
f 119//1 113//1 112//1
f 118//1 117//1 119//1
f 119//1 117//1 116//1
f 119//1 116//1 115//1
f 120//58 121//58 33//58
f 33//59 121//59 122//59
f 33//59 122//59 20//59
f 20//60 122//60 123//60
f 20//60 123//60 21//60
f 21//61 123//61 124//61
f 21//61 124//61 24//61
f 24//62 124//62 125//62
f 24//62 125//62 22//62
f 22//63 125//63 126//63
f 22//63 126//63 23//63
f 23//64 126//64 127//64
f 23//64 127//64 34//64
f 34//65 127//65 128//65
f 34//65 128//65 35//65
f 35//66 128//66 129//66
f 35//66 129//66 36//66
f 36//67 129//67 130//67
f 36//67 130//67 25//67
f 25//68 130//68 131//68
f 25//68 131//68 26//68
f 26//69 131//69 132//69
f 26//69 132//69 28//69
f 28//70 132//70 133//70
f 28//70 133//70 30//70
f 30//71 133//71 134//71
f 30//71 134//71 31//71
f 31//72 134//72 135//72
f 31//72 135//72 32//72
f 32//73 135//73 120//73
f 32//74 120//74 33//74
f 120//2 135//2 136//2
f 123//2 122//2 136//2
f 136//2 122//2 121//2
f 136//2 121//2 120//2
f 126//2 125//2 136//2
f 136//2 125//2 124//2
f 136//2 124//2 123//2
f 129//2 128//2 136//2
f 136//2 128//2 127//2
f 136//2 127//2 126//2
f 132//2 131//2 136//2
f 136//2 131//2 130//2
f 136//2 130//2 129//2
f 135//2 134//2 136//2
f 136//2 134//2 133//2
f 136//2 133//2 132//2
