# https://github.com/mikedh/trimesh
v 3.00000000 3.00000000 0.00000000
v 3.00000000 23.00000000 0.00000000
v 3.00000000 3.00000000 30.00000000
v 3.00000000 23.00000000 30.00000000
v 23.00000000 3.00000000 30.00000000
v 23.00000000 3.00000000 0.00000000
v 23.00000000 23.00000000 0.00000000
v 23.00000000 23.00000000 30.00000000
v 13.00000000 26.00000000 27.50000000
v 12.48022100 26.00000000 27.44536800
v 11.53053700 26.00000000 27.02254300
v 10.83493600 26.00000000 26.25000000
v 10.51369600 26.00000000 25.26132200
v 10.62235900 26.00000000 24.22745700
v 11.14213800 26.00000000 23.32717300
v 11.98315800 26.00000000 22.71613700
v 13.00000000 26.00000000 22.50000000
v 14.01684200 26.00000000 22.71613700
v 14.85786200 26.00000000 23.32717300
v 15.37764100 26.00000000 24.22745700
v 15.48630500 26.00000000 25.26132200
v 15.16506300 26.00000000 26.25000000
v 14.46946300 26.00000000 27.02254300
v 13.51977900 26.00000000 27.44536800
v 26.00000000 13.00000000 22.50000000
v 26.00000000 12.48022100 22.55463000
v 26.00000000 11.53053700 22.97745900
v 26.00000000 10.83493600 23.75000000
v 26.00000000 10.51369600 24.73867800
v 26.00000000 10.62235900 25.77254100
v 26.00000000 11.14213800 26.67282700
v 26.00000000 11.98315800 27.28386500
v 26.00000000 13.00000000 27.50000000
v 26.00000000 14.01684200 27.28386500
v 26.00000000 14.85786200 26.67282700
v 26.00000000 15.37764100 25.77254100
v 26.00000000 15.48630500 24.73867800
v 26.00000000 15.16506300 23.75000000
v 26.00000000 14.46946300 22.97745900
v 26.00000000 13.51977900 22.55463000
v 0.00000000 13.00000000 27.50000000
v 0.00000000 12.48022100 27.44536800
v 0.00000000 11.53053700 27.02254300
v 0.00000000 10.83493600 26.25000000
v 0.00000000 10.51369600 25.26132200
v 0.00000000 10.62235900 24.22745700
v 0.00000000 11.14213800 23.32717300
v 0.00000000 11.98315800 22.71613700
v 0.00000000 13.00000000 22.50000000
v 0.00000000 14.01684200 22.71613700
v 0.00000000 14.85786200 23.32717300
v 0.00000000 15.37764100 24.22745700
v 0.00000000 15.48630500 25.26132200
v 0.00000000 15.16506300 26.25000000
v 0.00000000 14.46946300 27.02254300
v 0.00000000 13.51977900 27.44536800
v 13.00000000 0.00000000 22.50000000
v 12.48022100 0.00000000 22.55463000
v 11.53053700 0.00000000 22.97745900
v 10.83493600 0.00000000 23.75000000
v 10.51369600 0.00000000 24.73867800
v 10.62235900 0.00000000 25.77254100
v 11.14213800 0.00000000 26.67282700
v 11.98315800 0.00000000 27.28386500
v 13.00000000 0.00000000 27.50000000
v 14.01684200 0.00000000 27.28386500
v 14.85786200 0.00000000 26.67282700
v 15.37764100 0.00000000 25.77254100
v 15.48630500 0.00000000 24.73867800
v 15.16506300 0.00000000 23.75000000
v 14.46946300 0.00000000 22.97745900
v 13.51977900 0.00000000 22.55463000
f 3 45 1
f 6 1 57
f 6 7 25
f 49 2 1
f 4 3 41
f 8 4 9
f 17 7 2
f 65 3 5
f 29 6 5
f 53 4 2
f 13 4 2
f 21 8 7
f 69 6 5
f 61 3 1
f 42 3 41
f 42 43 3
f 44 3 45
f 44 43 3
f 33 8 5
f 46 45 1
f 46 47 1
f 48 49 1
f 48 47 1
f 26 6 25
f 26 27 6
f 28 29 6
f 28 27 6
f 37 8 7
f 50 49 2
f 50 51 2
f 52 53 2
f 52 51 2
f 56 4 41
f 56 55 4
f 54 53 4
f 54 55 4
f 10 4 9
f 10 11 4
f 12 13 4
f 12 11 4
f 16 17 2
f 16 15 2
f 14 13 2
f 14 15 2
f 24 8 9
f 24 23 8
f 22 21 8
f 22 23 8
f 18 17 7
f 18 19 7
f 20 21 7
f 20 19 7
f 72 6 57
f 72 71 6
f 70 69 6
f 70 71 6
f 66 65 5
f 66 67 5
f 68 69 5
f 68 67 5
f 58 1 57
f 58 59 1
f 60 61 1
f 60 59 1
f 64 65 3
f 64 63 3
f 62 61 3
f 62 63 3
f 30 29 5
f 30 31 5
f 32 33 5
f 32 31 5
f 40 7 25
f 40 39 7
f 38 37 7
f 38 39 7
f 34 33 8
f 34 35 8
f 36 37 8
f 36 35 8
f 6 7 2
f 6 2 1
f 8 4 3
f 8 3 5
f 54 44 45
f 54 52 53
f 54 42 41
f 54 46 45
f 54 48 49
f 54 42 43
f 54 44 43
f 54 46 47
f 54 48 47
f 54 50 49
f 54 56 41
f 54 50 51
f 54 52 51
f 54 56 55
f 20 22 21
f 20 12 13
f 20 14 13
f 20 10 9
f 20 16 17
f 20 24 9
f 20 18 17
f 20 10 11
f 20 12 11
f 20 16 15
f 20 14 15
f 20 24 23
f 20 22 23
f 20 18 19
f 62 60 61
f 62 70 69
f 62 68 69
f 62 72 57
f 62 66 65
f 62 58 57
f 62 64 65
f 62 72 71
f 62 70 71
f 62 66 67
f 62 68 67
f 62 58 59
f 62 60 59
f 62 64 63
f 36 32 33
f 36 28 29
f 36 26 25
f 36 26 27
f 36 28 27
f 36 30 29
f 36 38 37
f 36 30 31
f 36 32 31
f 36 40 25
f 36 34 33
f 36 40 39
f 36 38 39
f 36 34 35

