ISO-10303-21;
HEADER;
FILE_DESCRIPTION (( 'STEP AP214' ),
    '1' );
FILE_NAME ('Qk1a.STEP',
    '2026-01-25T10:47:03',
    ( '' ),
    ( '' ),
    'SwSTEP 2.0',
    'SolidWorks 2024',
    '' );
FILE_SCHEMA (( 'AUTOMOTIVE_DESIGN' ));
ENDSEC;

DATA;
#1 = PRODUCT ( 'Qk1a', 'Qk1a', '', ( #156 ) ) ;
#2 = CARTESIAN_POINT ( 'NONE',  ( 0.000000000000000000, 13.00000000000000178, 25.00000000000000000 ) ) ;
#3 = ORIENTED_EDGE ( 'NONE', *, *, #358, .T. ) ;
#4 = PLANE ( 'NONE',  #372 ) ;
#5 = ORIENTED_EDGE ( 'NONE', *, *, #143, .F. ) ;
#6 = EDGE_CURVE ( 'NONE', #337, #183, #202, .T. ) ;
#7 = DIRECTION ( 'NONE',  ( 0.000000000000000000, -1.000000000000000000, 0.000000000000000000 ) ) ;
#8 = DIRECTION ( 'NONE',  ( -1.000000000000000000, 0.000000000000000000, -0.000000000000000000 ) ) ;
#9 = AXIS2_PLACEMENT_3D ( 'NONE', #169, #446, #8 ) ;
#10 = AXIS2_PLACEMENT_3D ( 'NONE', #427, #274, #386 ) ;
#11 = CARTESIAN_POINT ( 'NONE',  ( 3.000000000000000000, 23.00000000000000000, 30.00000000000000000 ) ) ;
#12 = ADVANCED_FACE ( 'NONE', ( #127 ), #53, .T. ) ;
#13 = DIRECTION ( 'NONE',  ( 0.000000000000000000, 0.000000000000000000, 1.000000000000000000 ) ) ;
#14 = DIRECTION ( 'NONE',  ( 0.000000000000000000, 0.000000000000000000, -1.000000000000000000 ) ) ;
#15 = AXIS2_PLACEMENT_3D ( 'NONE', #75, #115, #351 ) ;
#16 = COLOUR_RGB ( '',0.7921568627450980005, 0.8196078431372548767, 0.9333333333333333481 ) ;
#17 = DIRECTION ( 'NONE',  ( 0.000000000000000000, 0.000000000000000000, 1.000000000000000000 ) ) ;
#18 = VECTOR ( 'NONE', #73, 1000.000000000000000 ) ;
#19 = CARTESIAN_POINT ( 'NONE',  ( 13.00000000000000178, 3.000000000000000000, 27.50000000000000000 ) ) ;
#20 = CARTESIAN_POINT ( 'NONE',  ( 13.00000000000000178, 26.00000000000000000, 25.00000000000000000 ) ) ;
#21 = FACE_OUTER_BOUND ( 'NONE', #37, .T. ) ;
#22 = CARTESIAN_POINT ( 'NONE',  ( 0.000000000000000000, 13.00000000000000178, 25.00000000000000000 ) ) ;
#23 = VERTEX_POINT ( 'NONE', #324 ) ;
#24 = AXIS2_PLACEMENT_3D ( 'NONE', #59, #292, #369 ) ;
#25 = CARTESIAN_POINT ( 'NONE',  ( 23.00000000000000000, 3.000000000000000000, 30.00000000000000000 ) ) ;
#26 = CYLINDRICAL_SURFACE ( 'NONE', #322, 2.499999999999998668 ) ;
#27 = ORIENTED_EDGE ( 'NONE', *, *, #360, .T. ) ;
#28 = APPLICATION_CONTEXT ( 'automotive_design' ) ;
#29 = ADVANCED_FACE ( 'NONE', ( #91 ), #286, .F. ) ;
#30 = CARTESIAN_POINT ( 'NONE',  ( 13.00000000000000178, 0.000000000000000000, 27.50000000000000000 ) ) ;
#31 = CARTESIAN_POINT ( 'NONE',  ( 26.00000000000000000, 13.00000000000000178, 25.00000000000000000 ) ) ;
#32 = ORIENTED_EDGE ( 'NONE', *, *, #485, .F. ) ;
#33 = EDGE_LOOP ( 'NONE', ( #216, #147, #425, #112 ) ) ;
#34 = APPLICATION_PROTOCOL_DEFINITION ( 'draft international standard', 'automotive_design', 1998, #247 ) ;
#35 = AXIS2_PLACEMENT_3D ( 'NONE', #31, #378, #255 ) ;
#36 = FACE_OUTER_BOUND ( 'NONE', #33, .T. ) ;
#37 = EDGE_LOOP ( 'NONE', ( #86, #311, #397, #340 ) ) ;
#38 = CARTESIAN_POINT ( 'NONE',  ( 13.00000000000000178, 0.000000000000000000, 25.00000000000000000 ) ) ;
#39 = EDGE_LOOP ( 'NONE', ( #140, #225, #314, #119 ) ) ;
#40 = CARTESIAN_POINT ( 'NONE',  ( 0.000000000000000000, 13.00000000000000178, 22.50000000000000355 ) ) ;
#41 = ORIENTED_EDGE ( 'NONE', *, *, #54, .T. ) ;
#42 =( GEOMETRIC_REPRESENTATION_CONTEXT ( 3 ) GLOBAL_UNCERTAINTY_ASSIGNED_CONTEXT ( ( #102 ) ) GLOBAL_UNIT_ASSIGNED_CONTEXT ( ( #429, #385, #422 ) ) REPRESENTATION_CONTEXT ( 'NONE', 'WORKASPACE' ) );
#43 = DIRECTION ( 'NONE',  ( -0.000000000000000000, -0.000000000000000000, -1.000000000000000000 ) ) ;
#44 = ORIENTED_EDGE ( 'NONE', *, *, #189, .T. ) ;
#45 = VECTOR ( 'NONE', #96, 1000.000000000000000 ) ;
#46 = PLANE ( 'NONE',  #266 ) ;
#47 = EDGE_LOOP ( 'NONE', ( #32, #226 ) ) ;
#48 = EDGE_CURVE ( 'NONE', #114, #183, #141, .T. ) ;
#49 = VECTOR ( 'NONE', #43, 1000.000000000000000 ) ;
#50 = DIRECTION ( 'NONE',  ( -1.000000000000000000, -0.000000000000000000, -0.000000000000000000 ) ) ;
#51 = ORIENTED_EDGE ( 'NONE', *, *, #250, .F. ) ;
#52 = FACE_BOUND ( 'NONE', #384, .T. ) ;
#53 = PLANE ( 'NONE',  #388 ) ;
#54 = EDGE_CURVE ( 'NONE', #183, #114, #272, .T. ) ;
#55 = VECTOR ( 'NONE', #195, 1000.000000000000000 ) ;
#56 = DIRECTION ( 'NONE',  ( -0.000000000000000000, -1.000000000000000000, -0.000000000000000000 ) ) ;
#57 = DIRECTION ( 'NONE',  ( 0.000000000000000000, 0.000000000000000000, 1.000000000000000000 ) ) ;
#58 = CARTESIAN_POINT ( 'NONE',  ( 26.00000000000000000, 13.00000000000000178, 25.00000000000000000 ) ) ;
#59 = CARTESIAN_POINT ( 'NONE',  ( 13.00000000000000178, 0.000000000000000000, 25.00000000000000000 ) ) ;
#60 = DIRECTION ( 'NONE',  ( 0.000000000000000000, 0.000000000000000000, 1.000000000000000000 ) ) ;
#61 = EDGE_CURVE ( 'NONE', #431, #337, #125, .T. ) ;
#62 = VECTOR ( 'NONE', #81, 1000.000000000000000 ) ;
#63 = FACE_OUTER_BOUND ( 'NONE', #242, .T. ) ;
#64 = DIRECTION ( 'NONE',  ( -0.000000000000000000, -1.000000000000000000, -0.000000000000000000 ) ) ;
#65 = ORIENTED_EDGE ( 'NONE', *, *, #68, .F. ) ;
#66 = DIRECTION ( 'NONE',  ( -0.000000000000000000, 1.000000000000000000, -0.000000000000000000 ) ) ;
#67 = ORIENTED_EDGE ( 'NONE', *, *, #497, .T. ) ;
#68 = EDGE_CURVE ( 'NONE', #321, #415, #187, .T. ) ;
#69 = AXIS2_PLACEMENT_3D ( 'NONE', #2, #442, #87 ) ;
#70 = ORIENTED_EDGE ( 'NONE', *, *, #327, .F. ) ;
#71 = EDGE_CURVE ( 'NONE', #321, #164, #456, .T. ) ;
#72 = AXIS2_PLACEMENT_3D ( 'NONE', #201, #130, #168 ) ;
#73 = DIRECTION ( 'NONE',  ( -1.000000000000000000, -0.000000000000000000, -0.000000000000000000 ) ) ;
#74 = VERTEX_POINT ( 'NONE', #213 ) ;
#75 = CARTESIAN_POINT ( 'NONE',  ( 13.00000000000000178, 0.000000000000000000, 25.00000000000000000 ) ) ;
#76 = VERTEX_POINT ( 'NONE', #335 ) ;
#77 = CARTESIAN_POINT ( 'NONE',  ( 13.00000000000000178, 26.00000000000000000, 25.00000000000000000 ) ) ;
#78 = ORIENTED_EDGE ( 'NONE', *, *, #231, .F. ) ;
#79 = CARTESIAN_POINT ( 'NONE',  ( 3.000000000000000000, 3.000000000000000000, 30.00000000000000000 ) ) ;
#80 = ORIENTED_EDGE ( 'NONE', *, *, #54, .F. ) ;
#81 = DIRECTION ( 'NONE',  ( -0.000000000000000000, -0.000000000000000000, -1.000000000000000000 ) ) ;
#82 = EDGE_LOOP ( 'NONE', ( #362, #277, #149, #343 ) ) ;
#83 = VECTOR ( 'NONE', #470, 1000.000000000000000 ) ;
#84 = ADVANCED_FACE ( 'NONE', ( #178 ), #26, .T. ) ;
#85 = DIRECTION ( 'NONE',  ( 0.000000000000000000, 1.000000000000000000, 0.000000000000000000 ) ) ;
#86 = ORIENTED_EDGE ( 'NONE', *, *, #358, .F. ) ;
#87 = DIRECTION ( 'NONE',  ( 0.000000000000000000, 0.000000000000000000, -1.000000000000000000 ) ) ;
#88 = EDGE_LOOP ( 'NONE', ( #307, #279, #124, #319 ) ) ;
#89 = AXIS2_PLACEMENT_3D ( 'NONE', #38, #313, #473 ) ;
#90 = DIRECTION ( 'NONE',  ( 0.000000000000000000, 0.000000000000000000, 1.000000000000000000 ) ) ;
#91 = FACE_OUTER_BOUND ( 'NONE', #296, .T. ) ;
#92 = EDGE_CURVE ( 'NONE', #121, #443, #254, .T. ) ;
#93 = CARTESIAN_POINT ( 'NONE',  ( 13.00000000000000178, 26.00000000000000000, 25.00000000000000000 ) ) ;
#94 = AXIS2_PLACEMENT_3D ( 'NONE', #138, #253, #14 ) ;
#95 = DIRECTION ( 'NONE',  ( 1.000000000000000000, -0.000000000000000000, -0.000000000000000000 ) ) ;
#96 = DIRECTION ( 'NONE',  ( 1.000000000000000000, 0.000000000000000000, 0.000000000000000000 ) ) ;
#97 = EDGE_CURVE ( 'NONE', #394, #357, #495, .T. ) ;
#98 = DIRECTION ( 'NONE',  ( -1.000000000000000000, 0.000000000000000000, 0.000000000000000000 ) ) ;
#99 = AXIS2_PLACEMENT_3D ( 'NONE', #22, #339, #493 ) ;
#100 = FACE_BOUND ( 'NONE', #387, .T. ) ;
#101 = ORIENTED_EDGE ( 'NONE', *, *, #71, .T. ) ;
#102 = UNCERTAINTY_MEASURE_WITH_UNIT (LENGTH_MEASURE( 1.000000000000000082E-05 ), #429, 'distance_accuracy_value', 'NONE');
#103 = CARTESIAN_POINT ( 'NONE',  ( 13.00000000000000178, 26.00000000000000000, 25.00000000000000000 ) ) ;
#104 = VERTEX_POINT ( 'NONE', #306 ) ;
#105 = EDGE_CURVE ( 'NONE', #104, #472, #260, .T. ) ;
#106 = FILL_AREA_STYLE_COLOUR ( '', #16 ) ;
#107 = CARTESIAN_POINT ( 'NONE',  ( 13.00000000000000178, 26.00000000000000000, 22.50000000000000355 ) ) ;
#108 = ORIENTED_EDGE ( 'NONE', *, *, #143, .T. ) ;
#109 = AXIS2_PLACEMENT_3D ( 'NONE', #298, #98, #57 ) ;
#110 = CARTESIAN_POINT ( 'NONE',  ( 13.00000000000000178, 0.000000000000000000, 27.50000000000000000 ) ) ;
#111 = LINE ( 'NONE', #79, #55 ) ;
#112 = ORIENTED_EDGE ( 'NONE', *, *, #71, .F. ) ;
#113 = AXIS2_PLACEMENT_3D ( 'NONE', #93, #56, #235 ) ;
#114 = VERTEX_POINT ( 'NONE', #430 ) ;
#115 = DIRECTION ( 'NONE',  ( 0.000000000000000000, -1.000000000000000000, 0.000000000000000000 ) ) ;
#116 = ORIENTED_EDGE ( 'NONE', *, *, #194, .F. ) ;
#117 = ADVANCED_BREP_SHAPE_REPRESENTATION ( 'Qk1a', ( #489, #420 ), #42 ) ;
#118 = PLANE ( 'NONE',  #15 ) ;
#119 = ORIENTED_EDGE ( 'NONE', *, *, #48, .T. ) ;
#120 = CARTESIAN_POINT ( 'NONE',  ( 26.00000000000000000, 13.00000000000000178, 25.00000000000000000 ) ) ;
#121 = VERTEX_POINT ( 'NONE', #40 ) ;
#122 = EDGE_CURVE ( 'NONE', #443, #23, #383, .T. ) ;
#123 = CARTESIAN_POINT ( 'NONE',  ( 23.00000000000000000, 23.00000000000000000, 30.00000000000000000 ) ) ;
#124 = ORIENTED_EDGE ( 'NONE', *, *, #105, .F. ) ;
#125 = CIRCLE ( 'NONE', #35, 2.499999999999998668 ) ;
#126 = CYLINDRICAL_SURFACE ( 'NONE', #401, 2.499999999999998668 ) ;
#127 = FACE_OUTER_BOUND ( 'NONE', #218, .T. ) ;
#128 = FACE_OUTER_BOUND ( 'NONE', #375, .T. ) ;
#129 = DIRECTION ( 'NONE',  ( 1.000000000000000000, -0.000000000000000000, -0.000000000000000000 ) ) ;
#130 = DIRECTION ( 'NONE',  ( -1.000000000000000000, -0.000000000000000000, -0.000000000000000000 ) ) ;
#131 = PRODUCT_DEFINITION_FORMATION_WITH_SPECIFIED_SOURCE ( 'ANY', '', #1, .NOT_KNOWN. ) ;
#132 = DIRECTION ( 'NONE',  ( 0.000000000000000000, 1.000000000000000000, 0.000000000000000000 ) ) ;
#133 = CARTESIAN_POINT ( 'NONE',  ( 3.000000000000000000, 23.00000000000000000, 30.00000000000000000 ) ) ;
#134 = AXIS2_PLACEMENT_3D ( 'NONE', #285, #50, #163 ) ;
#135 = ADVANCED_FACE ( 'NONE', ( #36 ), #184, .T. ) ;
#136 = PLANE ( 'NONE',  #109 ) ;
#137 = EDGE_CURVE ( 'NONE', #104, #158, #111, .T. ) ;
#138 = CARTESIAN_POINT ( 'NONE',  ( 13.00000000000000178, 0.000000000000000000, 25.00000000000000000 ) ) ;
#139 = DIRECTION ( 'NONE',  ( 0.000000000000000000, 0.000000000000000000, -1.000000000000000000 ) ) ;
#140 = ORIENTED_EDGE ( 'NONE', *, *, #6, .F. ) ;
#141 = CIRCLE ( 'NONE', #432, 2.499999999999998668 ) ;
#142 = LINE ( 'NONE', #449, #380 ) ;
#143 = EDGE_CURVE ( 'NONE', #76, #158, #468, .T. ) ;
#144 = DIRECTION ( 'NONE',  ( -1.000000000000000000, -0.000000000000000000, -0.000000000000000000 ) ) ;
#145 = VERTEX_POINT ( 'NONE', #233 ) ;
#146 = CARTESIAN_POINT ( 'NONE',  ( 3.000000000000000000, 23.00000000000000000, 30.00000000000000000 ) ) ;
#147 = ORIENTED_EDGE ( 'NONE', *, *, #370, .T. ) ;
#148 = DIRECTION ( 'NONE',  ( 0.000000000000000000, 0.000000000000000000, -1.000000000000000000 ) ) ;
#149 = ORIENTED_EDGE ( 'NONE', *, *, #97, .F. ) ;
#150 = DIRECTION ( 'NONE',  ( -0.000000000000000000, -1.000000000000000000, -0.000000000000000000 ) ) ;
#151 = EDGE_LOOP ( 'NONE', ( #301, #355, #299, #476 ) ) ;
#152 = EDGE_CURVE ( 'NONE', #164, #145, #230, .T. ) ;
#153 = CIRCLE ( 'NONE', #500, 2.499999999999998668 ) ;
#154 = DIRECTION ( 'NONE',  ( 0.000000000000000000, 0.000000000000000000, 1.000000000000000000 ) ) ;
#155 = VERTEX_POINT ( 'NONE', #224 ) ;
#156 = PRODUCT_CONTEXT ( 'NONE', #247, 'mechanical' ) ;
#157 = LINE ( 'NONE', #348, #297 ) ;
#158 = VERTEX_POINT ( 'NONE', #342 ) ;
#159 = PRESENTATION_LAYER_ASSIGNMENT (  '', '', ( #305 ) ) ;
#160 = DIRECTION ( 'NONE',  ( -0.000000000000000000, -1.000000000000000000, -0.000000000000000000 ) ) ;
#161 = EDGE_LOOP ( 'NONE', ( #462, #65, #101, #428 ) ) ;
#162 = EDGE_CURVE ( 'NONE', #431, #114, #157, .T. ) ;
#163 = DIRECTION ( 'NONE',  ( 0.000000000000000000, 0.000000000000000000, -1.000000000000000000 ) ) ;
#164 = VERTEX_POINT ( 'NONE', #270 ) ;
#165 = CARTESIAN_POINT ( 'NONE',  ( 13.00000000000000178, 0.000000000000000000, 25.00000000000000000 ) ) ;
#166 = CARTESIAN_POINT ( 'NONE',  ( 26.00000000000000000, 13.00000000000000178, 22.50000000000000355 ) ) ;
#167 = VECTOR ( 'NONE', #144, 1000.000000000000000 ) ;
#168 = DIRECTION ( 'NONE',  ( 0.000000000000000000, 0.000000000000000000, -1.000000000000000000 ) ) ;
#169 = CARTESIAN_POINT ( 'NONE',  ( 3.000000000000000000, 3.000000000000000000, 30.00000000000000000 ) ) ;
#170 = LINE ( 'NONE', #241, #62 ) ;
#171 = DIRECTION ( 'NONE',  ( 0.000000000000000000, 0.000000000000000000, -1.000000000000000000 ) ) ;
#172 = CARTESIAN_POINT ( 'NONE',  ( 26.00000000000000000, 13.00000000000000178, 22.50000000000000355 ) ) ;
#173 = ADVANCED_FACE ( 'NONE', ( #471 ), #118, .T. ) ;
#174 = CIRCLE ( 'NONE', #448, 2.499999999999998668 ) ;
#175 = DIRECTION ( 'NONE',  ( -0.000000000000000000, 1.000000000000000000, -0.000000000000000000 ) ) ;
#176 = CIRCLE ( 'NONE', #444, 2.499999999999998668 ) ;
#177 = DIRECTION ( 'NONE',  ( 0.000000000000000000, 1.000000000000000000, 0.000000000000000000 ) ) ;
#178 = FACE_OUTER_BOUND ( 'NONE', #457, .T. ) ;
#179 = PLANE ( 'NONE',  #261 ) ;
#180 = ORIENTED_EDGE ( 'NONE', *, *, #92, .T. ) ;
#181 = LINE ( 'NONE', #484, #398 ) ;
#182 = LINE ( 'NONE', #424, #18 ) ;
#183 = VERTEX_POINT ( 'NONE', #316 ) ;
#184 = CYLINDRICAL_SURFACE ( 'NONE', #207, 2.499999999999998668 ) ;
#185 = EDGE_LOOP ( 'NONE', ( #78, #469, #41, #268 ) ) ;
#186 = ADVANCED_FACE ( 'NONE', ( #228 ), #381, .T. ) ;
#187 = CIRCLE ( 'NONE', #365, 2.499999999999998668 ) ;
#188 = LINE ( 'NONE', #499, #505 ) ;
#189 = EDGE_CURVE ( 'NONE', #357, #104, #354, .T. ) ;
#190 = CARTESIAN_POINT ( 'NONE',  ( 3.000000000000000000, 3.000000000000000000, 0.000000000000000000 ) ) ;
#191 = VERTEX_POINT ( 'NONE', #30 ) ;
#192 = CARTESIAN_POINT ( 'NONE',  ( 3.000000000000000000, 3.000000000000000000, 30.00000000000000000 ) ) ;
#193 = ORIENTED_EDGE ( 'NONE', *, *, #137, .F. ) ;
#194 = EDGE_CURVE ( 'NONE', #464, #76, #182, .T. ) ;
#195 = DIRECTION ( 'NONE',  ( -0.000000000000000000, -0.000000000000000000, -1.000000000000000000 ) ) ;
#196 = ORIENTED_EDGE ( 'NONE', *, *, #122, .T. ) ;
#197 = CIRCLE ( 'NONE', #219, 2.499999999999998668 ) ;
#198 = PLANE ( 'NONE',  #423 ) ;
#199 = ORIENTED_EDGE ( 'NONE', *, *, #426, .T. ) ;
#200 = AXIS2_PLACEMENT_3D ( 'NONE', #206, #479, #326 ) ;
#201 = CARTESIAN_POINT ( 'NONE',  ( 3.000000000000000000, 13.00000000000000178, 25.00000000000000000 ) ) ;
#202 = LINE ( 'NONE', #166, #411 ) ;
#203 = DIRECTION ( 'NONE',  ( 0.000000000000000000, 0.000000000000000000, -1.000000000000000000 ) ) ;
#204 = ORIENTED_EDGE ( 'NONE', *, *, #338, .T. ) ;
#205 = AXIS2_PLACEMENT_3D ( 'NONE', #252, #221, #453 ) ;
#206 = CARTESIAN_POINT ( 'NONE',  ( 3.000000000000000000, 3.000000000000000000, 30.00000000000000000 ) ) ;
#207 = AXIS2_PLACEMENT_3D ( 'NONE', #77, #150, #148 ) ;
#208 = CARTESIAN_POINT ( 'NONE',  ( 13.00000000000000178, 26.00000000000000000, 22.50000000000000355 ) ) ;
#209 = EDGE_CURVE ( 'NONE', #443, #121, #214, .T. ) ;
#210 = CARTESIAN_POINT ( 'NONE',  ( 13.00000000000000178, 3.000000000000000000, 25.00000000000000000 ) ) ;
#211 = CARTESIAN_POINT ( 'NONE',  ( 13.00000000000000178, 26.00000000000000000, 27.50000000000000000 ) ) ;
#212 = CARTESIAN_POINT ( 'NONE',  ( 3.000000000000000000, 3.000000000000000000, 0.000000000000000000 ) ) ;
#213 = CARTESIAN_POINT ( 'NONE',  ( 13.00000000000000178, 3.000000000000000000, 22.50000000000000355 ) ) ;
#214 = CIRCLE ( 'NONE', #332, 2.499999999999998668 ) ;
#215 = DIRECTION ( 'NONE',  ( 0.000000000000000000, 0.000000000000000000, -1.000000000000000000 ) ) ;
#216 = ORIENTED_EDGE ( 'NONE', *, *, #426, .F. ) ;
#217 = CYLINDRICAL_SURFACE ( 'NONE', #507, 2.499999999999998668 ) ;
#218 = EDGE_LOOP ( 'NONE', ( #5, #116, #498, #349 ) ) ;
#219 = AXIS2_PLACEMENT_3D ( 'NONE', #407, #175, #331 ) ;
#220 = DIRECTION ( 'NONE',  ( 1.000000000000000000, -0.000000000000000000, -0.000000000000000000 ) ) ;
#221 = DIRECTION ( 'NONE',  ( 1.000000000000000000, -0.000000000000000000, -0.000000000000000000 ) ) ;
#222 = ORIENTED_EDGE ( 'NONE', *, *, #209, .F. ) ;
#223 = ADVANCED_FACE ( 'NONE', ( #244, #246 ), #4, .F. ) ;
#224 = CARTESIAN_POINT ( 'NONE',  ( 3.000000000000000000, 13.00000000000000178, 22.50000000000000355 ) ) ;
#225 = ORIENTED_EDGE ( 'NONE', *, *, #61, .F. ) ;
#226 = ORIENTED_EDGE ( 'NONE', *, *, #288, .F. ) ;
#227 = VECTOR ( 'NONE', #220, 1000.000000000000000 ) ;
#228 = FACE_OUTER_BOUND ( 'NONE', #275, .T. ) ;
#229 = ORIENTED_EDGE ( 'NONE', *, *, #231, .T. ) ;
#230 = CIRCLE ( 'NONE', #10, 2.499999999999998668 ) ;
#231 = EDGE_CURVE ( 'NONE', #337, #431, #284, .T. ) ;
#232 = CARTESIAN_POINT ( 'NONE',  ( 0.000000000000000000, 0.000000000000000000, 0.000000000000000000 ) ) ;
#233 = CARTESIAN_POINT ( 'NONE',  ( 13.00000000000000178, 23.00000000000000000, 27.50000000000000000 ) ) ;
#234 = ORIENTED_EDGE ( 'NONE', *, *, #436, .F. ) ;
#235 = DIRECTION ( 'NONE',  ( 0.000000000000000000, 0.000000000000000000, -1.000000000000000000 ) ) ;
#236 = EDGE_LOOP ( 'NONE', ( #435, #70, #264, #504 ) ) ;
#237 = CIRCLE ( 'NONE', #465, 2.499999999999998668 ) ;
#238 = DIRECTION ( 'NONE',  ( 0.000000000000000000, -1.000000000000000000, 0.000000000000000000 ) ) ;
#239 = ORIENTED_EDGE ( 'NONE', *, *, #152, .F. ) ;
#240 = VECTOR ( 'NONE', #393, 1000.000000000000000 ) ;
#241 = CARTESIAN_POINT ( 'NONE',  ( 23.00000000000000000, 3.000000000000000000, 30.00000000000000000 ) ) ;
#242 = EDGE_LOOP ( 'NONE', ( #400, #229 ) ) ;
#243 = EDGE_CURVE ( 'NONE', #478, #191, #153, .T. ) ;
#244 = FACE_BOUND ( 'NONE', #403, .T. ) ;
#245 = CARTESIAN_POINT ( 'NONE',  ( 3.000000000000000000, 3.000000000000000000, 0.000000000000000000 ) ) ;
#246 = FACE_OUTER_BOUND ( 'NONE', #82, .T. ) ;
#247 = APPLICATION_CONTEXT ( 'automotive_design' ) ;
#248 = ADVANCED_FACE ( 'NONE', ( #287, #437 ), #46, .F. ) ;
#249 = DIRECTION ( 'NONE',  ( 0.000000000000000000, 0.000000000000000000, 1.000000000000000000 ) ) ;
#250 = EDGE_CURVE ( 'NONE', #155, #23, #467, .T. ) ;
#251 = LINE ( 'NONE', #329, #330 ) ;
#252 = CARTESIAN_POINT ( 'NONE',  ( 23.00000000000000000, 13.00000000000000178, 25.00000000000000000 ) ) ;
#253 = DIRECTION ( 'NONE',  ( 0.000000000000000000, -1.000000000000000000, 0.000000000000000000 ) ) ;
#254 = CIRCLE ( 'NONE', #99, 2.499999999999998668 ) ;
#255 = DIRECTION ( 'NONE',  ( 0.000000000000000000, 0.000000000000000000, -1.000000000000000000 ) ) ;
#256 = FACE_OUTER_BOUND ( 'NONE', #236, .T. ) ;
#257 = ORIENTED_EDGE ( 'NONE', *, *, #209, .T. ) ;
#258 = CARTESIAN_POINT ( 'NONE',  ( 0.000000000000000000, 13.00000000000000178, 25.00000000000000000 ) ) ;
#259 = EDGE_LOOP ( 'NONE', ( #180, #257 ) ) ;
#260 = LINE ( 'NONE', #192, #454 ) ;
#261 = AXIS2_PLACEMENT_3D ( 'NONE', #293, #368, #215 ) ;
#262 = EDGE_CURVE ( 'NONE', #472, #271, #170, .T. ) ;
#263 = CARTESIAN_POINT ( 'NONE',  ( 3.000000000000000000, 3.000000000000000000, 30.00000000000000000 ) ) ;
#264 = ORIENTED_EDGE ( 'NONE', *, *, #497, .F. ) ;
#265 = PRODUCT_DEFINITION ( 'UNKNOWN', '', #131, #416 ) ;
#266 = AXIS2_PLACEMENT_3D ( 'NONE', #323, #481, #445 ) ;
#267 =( NAMED_UNIT ( * ) PLANE_ANGLE_UNIT ( ) SI_UNIT ( $, .RADIAN. ) );
#268 = ORIENTED_EDGE ( 'NONE', *, *, #162, .F. ) ;
#269 = LINE ( 'NONE', #110, #83 ) ;
#270 = CARTESIAN_POINT ( 'NONE',  ( 13.00000000000000178, 23.00000000000000000, 22.50000000000000355 ) ) ;
#271 = VERTEX_POINT ( 'NONE', #447 ) ;
#272 = CIRCLE ( 'NONE', #205, 2.499999999999998668 ) ;
#273 = PRESENTATION_STYLE_ASSIGNMENT (( #347 ) ) ;
#274 = DIRECTION ( 'NONE',  ( -0.000000000000000000, 1.000000000000000000, -0.000000000000000000 ) ) ;
#275 = EDGE_LOOP ( 'NONE', ( #345, #3, #317, #282 ) ) ;
#276 = DIRECTION ( 'NONE',  ( 0.000000000000000000, 0.000000000000000000, 1.000000000000000000 ) ) ;
#277 = ORIENTED_EDGE ( 'NONE', *, *, #360, .F. ) ;
#278 = DIRECTION ( 'NONE',  ( 0.000000000000000000, -0.000000000000000000, -1.000000000000000000 ) ) ;
#279 = ORIENTED_EDGE ( 'NONE', *, *, #262, .F. ) ;
#280 = EDGE_CURVE ( 'NONE', #23, #155, #308, .T. ) ;
#281 = CYLINDRICAL_SURFACE ( 'NONE', #69, 2.499999999999998668 ) ;
#282 = ORIENTED_EDGE ( 'NONE', *, *, #503, .F. ) ;
#283 = ADVANCED_FACE ( 'NONE', ( #128 ), #198, .T. ) ;
#284 = CIRCLE ( 'NONE', #359, 2.499999999999998668 ) ;
#285 = CARTESIAN_POINT ( 'NONE',  ( 3.000000000000000000, 13.00000000000000178, 25.00000000000000000 ) ) ;
#286 = PLANE ( 'NONE',  #9 ) ;
#287 = FACE_BOUND ( 'NONE', #47, .T. ) ;
#288 = EDGE_CURVE ( 'NONE', #74, #352, #176, .T. ) ;
#289 = MECHANICAL_DESIGN_GEOMETRIC_PRESENTATION_REPRESENTATION (  '', ( #305 ), #353 ) ;
#290 = CARTESIAN_POINT ( 'NONE',  ( 13.00000000000000178, 0.000000000000000000, 22.50000000000000355 ) ) ;
#291 = AXIS2_PLACEMENT_3D ( 'NONE', #258, #418, #377 ) ;
#292 = DIRECTION ( 'NONE',  ( -0.000000000000000000, 1.000000000000000000, -0.000000000000000000 ) ) ;
#293 = CARTESIAN_POINT ( 'NONE',  ( 26.00000000000000000, 13.00000000000000178, 25.00000000000000000 ) ) ;
#294 = LINE ( 'NONE', #211, #486 ) ;
#295 = VECTOR ( 'NONE', #64, 1000.000000000000000 ) ;
#296 = EDGE_LOOP ( 'NONE', ( #44, #438, #67, #496 ) ) ;
#297 = VECTOR ( 'NONE', #434, 1000.000000000000000 ) ;
#298 = CARTESIAN_POINT ( 'NONE',  ( 23.00000000000000000, 3.000000000000000000, 30.00000000000000000 ) ) ;
#299 = ORIENTED_EDGE ( 'NONE', *, *, #417, .T. ) ;
#300 = DIRECTION ( 'NONE',  ( -0.000000000000000000, -1.000000000000000000, -0.000000000000000000 ) ) ;
#301 = ORIENTED_EDGE ( 'NONE', *, *, #122, .F. ) ;
#302 = ADVANCED_FACE ( 'NONE', ( #52, #399 ), #366, .F. ) ;
#303 = ADVANCED_FACE ( 'NONE', ( #483 ), #328, .T. ) ;
#304 = ORIENTED_EDGE ( 'NONE', *, *, #280, .F. ) ;
#305 = STYLED_ITEM ( 'NONE', ( #273 ), #489 ) ;
#306 = CARTESIAN_POINT ( 'NONE',  ( 3.000000000000000000, 3.000000000000000000, 30.00000000000000000 ) ) ;
#307 = ORIENTED_EDGE ( 'NONE', *, *, #408, .T. ) ;
#308 = CIRCLE ( 'NONE', #72, 2.499999999999998668 ) ;
#309 =( NAMED_UNIT ( * ) SI_UNIT ( $, .STERADIAN. ) SOLID_ANGLE_UNIT ( ) );
#310 = DIRECTION ( 'NONE',  ( 1.000000000000000000, 0.000000000000000000, 0.000000000000000000 ) ) ;
#311 = ORIENTED_EDGE ( 'NONE', *, *, #338, .F. ) ;
#312 = APPLICATION_PROTOCOL_DEFINITION ( 'draft international standard', 'automotive_design', 1998, #28 ) ;
#313 = DIRECTION ( 'NONE',  ( -0.000000000000000000, 1.000000000000000000, -0.000000000000000000 ) ) ;
#314 = ORIENTED_EDGE ( 'NONE', *, *, #162, .T. ) ;
#315 = VECTOR ( 'NONE', #487, 1000.000000000000000 ) ;
#316 = CARTESIAN_POINT ( 'NONE',  ( 23.00000000000000000, 13.00000000000000178, 22.50000000000000355 ) ) ;
#317 = ORIENTED_EDGE ( 'NONE', *, *, #288, .T. ) ;
#318 = DIRECTION ( 'NONE',  ( 1.000000000000000000, 0.000000000000000000, 0.000000000000000000 ) ) ;
#319 = ORIENTED_EDGE ( 'NONE', *, *, #137, .T. ) ;
#320 = CARTESIAN_POINT ( 'NONE',  ( 13.00000000000000178, 26.00000000000000000, 25.00000000000000000 ) ) ;
#321 = VERTEX_POINT ( 'NONE', #208 ) ;
#322 = AXIS2_PLACEMENT_3D ( 'NONE', #373, #491, #139 ) ;
#323 = CARTESIAN_POINT ( 'NONE',  ( 3.000000000000000000, 3.000000000000000000, 30.00000000000000000 ) ) ;
#324 = CARTESIAN_POINT ( 'NONE',  ( 3.000000000000000000, 13.00000000000000178, 27.50000000000000000 ) ) ;
#325 = ADVANCED_FACE ( 'NONE', ( #367 ), #126, .T. ) ;
#326 = DIRECTION ( 'NONE',  ( 0.000000000000000000, 0.000000000000000000, -1.000000000000000000 ) ) ;
#327 = EDGE_CURVE ( 'NONE', #394, #464, #396, .T. ) ;
#328 = CYLINDRICAL_SURFACE ( 'NONE', #113, 2.499999999999998668 ) ;
#329 = CARTESIAN_POINT ( 'NONE',  ( 13.00000000000000178, 0.000000000000000000, 22.50000000000000355 ) ) ;
#330 = VECTOR ( 'NONE', #66, 1000.000000000000000 ) ;
#331 = DIRECTION ( 'NONE',  ( 0.000000000000000000, 0.000000000000000000, -1.000000000000000000 ) ) ;
#332 = AXIS2_PLACEMENT_3D ( 'NONE', #402, #363, #13 ) ;
#333 = ADVANCED_FACE ( 'NONE', ( #356 ), #281, .T. ) ;
#334 = CARTESIAN_POINT ( 'NONE',  ( 26.00000000000000000, 13.00000000000000178, 27.50000000000000000 ) ) ;
#335 = CARTESIAN_POINT ( 'NONE',  ( 3.000000000000000000, 23.00000000000000000, 0.000000000000000000 ) ) ;
#336 = FACE_OUTER_BOUND ( 'NONE', #259, .T. ) ;
#337 = VERTEX_POINT ( 'NONE', #172 ) ;
#338 = EDGE_CURVE ( 'NONE', #191, #478, #421, .T. ) ;
#339 = DIRECTION ( 'NONE',  ( -1.000000000000000000, 0.000000000000000000, 0.000000000000000000 ) ) ;
#340 = ORIENTED_EDGE ( 'NONE', *, *, #485, .T. ) ;
#341 = PRODUCT_RELATED_PRODUCT_CATEGORY ( 'part', '', ( #1 ) ) ;
#342 = CARTESIAN_POINT ( 'NONE',  ( 3.000000000000000000, 3.000000000000000000, 0.000000000000000000 ) ) ;
#343 = ORIENTED_EDGE ( 'NONE', *, *, #327, .T. ) ;
#344 = DIRECTION ( 'NONE',  ( 0.000000000000000000, 0.000000000000000000, 1.000000000000000000 ) ) ;
#345 = ORIENTED_EDGE ( 'NONE', *, *, #243, .F. ) ;
#346 = CLOSED_SHELL ( 'NONE', ( #186, #84, #325, #135, #302, #248, #439, #223, #29, #12, #303, #283, #376, #450, #333, #466, #395, #173 ) ) ;
#347 = SURFACE_STYLE_USAGE ( .BOTH. , #463 ) ;
#348 = CARTESIAN_POINT ( 'NONE',  ( 26.00000000000000000, 13.00000000000000178, 27.50000000000000000 ) ) ;
#349 = ORIENTED_EDGE ( 'NONE', *, *, #408, .F. ) ;
#350 = DIRECTION ( 'NONE',  ( 0.000000000000000000, 1.000000000000000000, 0.000000000000000000 ) ) ;
#351 = DIRECTION ( 'NONE',  ( 0.000000000000000000, -0.000000000000000000, -1.000000000000000000 ) ) ;
#352 = VERTEX_POINT ( 'NONE', #19 ) ;
#353 =( GEOMETRIC_REPRESENTATION_CONTEXT ( 3 ) GLOBAL_UNCERTAINTY_ASSIGNED_CONTEXT ( ( #459 ) ) GLOBAL_UNIT_ASSIGNED_CONTEXT ( ( #502, #267, #309 ) ) REPRESENTATION_CONTEXT ( 'NONE', 'WORKASPACE' ) );
#354 = LINE ( 'NONE', #263, #240 ) ;
#355 = ORIENTED_EDGE ( 'NONE', *, *, #92, .F. ) ;
#356 = FACE_OUTER_BOUND ( 'NONE', #151, .T. ) ;
#357 = VERTEX_POINT ( 'NONE', #133 ) ;
#358 = EDGE_CURVE ( 'NONE', #478, #74, #251, .T. ) ;
#359 = AXIS2_PLACEMENT_3D ( 'NONE', #406, #318, #203 ) ;
#360 = EDGE_CURVE ( 'NONE', #357, #76, #409, .T. ) ;
#361 = DIRECTION ( 'NONE',  ( -1.000000000000000000, -0.000000000000000000, -0.000000000000000000 ) ) ;
#362 = ORIENTED_EDGE ( 'NONE', *, *, #194, .T. ) ;
#363 = DIRECTION ( 'NONE',  ( -1.000000000000000000, 0.000000000000000000, 0.000000000000000000 ) ) ;
#364 = DIRECTION ( 'NONE',  ( 0.000000000000000000, 0.000000000000000000, -1.000000000000000000 ) ) ;
#365 = AXIS2_PLACEMENT_3D ( 'NONE', #20, #413, #60 ) ;
#366 = PLANE ( 'NONE',  #200 ) ;
#367 = FACE_OUTER_BOUND ( 'NONE', #185, .T. ) ;
#368 = DIRECTION ( 'NONE',  ( 1.000000000000000000, 0.000000000000000000, 0.000000000000000000 ) ) ;
#369 = DIRECTION ( 'NONE',  ( 0.000000000000000000, 0.000000000000000000, 1.000000000000000000 ) ) ;
#370 = EDGE_CURVE ( 'NONE', #415, #145, #294, .T. ) ;
#371 = CARTESIAN_POINT ( 'NONE',  ( 13.00000000000000178, 26.00000000000000000, 27.50000000000000000 ) ) ;
#372 = AXIS2_PLACEMENT_3D ( 'NONE', #11, #238, #278 ) ;
#373 = CARTESIAN_POINT ( 'NONE',  ( 0.000000000000000000, 13.00000000000000178, 25.00000000000000000 ) ) ;
#374 = CARTESIAN_POINT ( 'NONE',  ( 23.00000000000000000, 23.00000000000000000, 0.000000000000000000 ) ) ;
#375 = EDGE_LOOP ( 'NONE', ( #382, #199 ) ) ;
#376 = ADVANCED_FACE ( 'NONE', ( #490 ), #217, .T. ) ;
#377 = DIRECTION ( 'NONE',  ( 0.000000000000000000, 0.000000000000000000, 1.000000000000000000 ) ) ;
#378 = DIRECTION ( 'NONE',  ( 1.000000000000000000, 0.000000000000000000, 0.000000000000000000 ) ) ;
#379 = ORIENTED_EDGE ( 'NONE', *, *, #48, .F. ) ;
#380 = VECTOR ( 'NONE', #95, 1000.000000000000000 ) ;
#381 = CYLINDRICAL_SURFACE ( 'NONE', #89, 2.499999999999998668 ) ;
#382 = ORIENTED_EDGE ( 'NONE', *, *, #68, .T. ) ;
#383 = LINE ( 'NONE', #390, #227 ) ;
#384 = EDGE_LOOP ( 'NONE', ( #51, #304 ) ) ;
#385 =( NAMED_UNIT ( * ) PLANE_ANGLE_UNIT ( ) SI_UNIT ( $, .RADIAN. ) );
#386 = DIRECTION ( 'NONE',  ( 0.000000000000000000, 0.000000000000000000, -1.000000000000000000 ) ) ;
#387 = EDGE_LOOP ( 'NONE', ( #379, #80 ) ) ;
#388 = AXIS2_PLACEMENT_3D ( 'NONE', #245, #364, #405 ) ;
#389 = SHAPE_DEFINITION_REPRESENTATION ( #461, #117 ) ;
#390 = CARTESIAN_POINT ( 'NONE',  ( 0.000000000000000000, 13.00000000000000178, 27.50000000000000000 ) ) ;
#391 = ORIENTED_EDGE ( 'NONE', *, *, #243, .T. ) ;
#392 = DIRECTION ( 'NONE',  ( 1.000000000000000000, 0.000000000000000000, 0.000000000000000000 ) ) ;
#393 = DIRECTION ( 'NONE',  ( -0.000000000000000000, -1.000000000000000000, -0.000000000000000000 ) ) ;
#394 = VERTEX_POINT ( 'NONE', #412 ) ;
#395 = ADVANCED_FACE ( 'NONE', ( #21 ), #488, .T. ) ;
#396 = LINE ( 'NONE', #123, #49 ) ;
#397 = ORIENTED_EDGE ( 'NONE', *, *, #503, .T. ) ;
#398 = VECTOR ( 'NONE', #132, 1000.000000000000000 ) ;
#399 = FACE_OUTER_BOUND ( 'NONE', #501, .T. ) ;
#400 = ORIENTED_EDGE ( 'NONE', *, *, #61, .T. ) ;
#401 = AXIS2_PLACEMENT_3D ( 'NONE', #120, #361, #276 ) ;
#402 = CARTESIAN_POINT ( 'NONE',  ( 0.000000000000000000, 13.00000000000000178, 25.00000000000000000 ) ) ;
#403 = EDGE_LOOP ( 'NONE', ( #239, #234 ) ) ;
#404 = CARTESIAN_POINT ( 'NONE',  ( 13.00000000000000178, 3.000000000000000000, 25.00000000000000000 ) ) ;
#405 = DIRECTION ( 'NONE',  ( -1.000000000000000000, 0.000000000000000000, -0.000000000000000000 ) ) ;
#406 = CARTESIAN_POINT ( 'NONE',  ( 26.00000000000000000, 13.00000000000000178, 25.00000000000000000 ) ) ;
#407 = CARTESIAN_POINT ( 'NONE',  ( 13.00000000000000178, 23.00000000000000000, 25.00000000000000000 ) ) ;
#408 = EDGE_CURVE ( 'NONE', #158, #271, #451, .T. ) ;
#409 = LINE ( 'NONE', #492, #315 ) ;
#410 = DIRECTION ( 'NONE',  ( 0.000000000000000000, 0.000000000000000000, 1.000000000000000000 ) ) ;
#411 = VECTOR ( 'NONE', #480, 1000.000000000000000 ) ;
#412 = CARTESIAN_POINT ( 'NONE',  ( 23.00000000000000000, 23.00000000000000000, 30.00000000000000000 ) ) ;
#413 = DIRECTION ( 'NONE',  ( 0.000000000000000000, 1.000000000000000000, 0.000000000000000000 ) ) ;
#414 = CARTESIAN_POINT ( 'NONE',  ( 0.000000000000000000, 13.00000000000000178, 27.50000000000000000 ) ) ;
#415 = VERTEX_POINT ( 'NONE', #371 ) ;
#416 = PRODUCT_DEFINITION_CONTEXT ( 'detailed design', #28, 'design' ) ;
#417 = EDGE_CURVE ( 'NONE', #121, #155, #142, .T. ) ;
#418 = DIRECTION ( 'NONE',  ( -1.000000000000000000, 0.000000000000000000, 0.000000000000000000 ) ) ;
#419 = ORIENTED_EDGE ( 'NONE', *, *, #189, .F. ) ;
#420 = AXIS2_PLACEMENT_3D ( 'NONE', #232, #344, #392 ) ;
#421 = CIRCLE ( 'NONE', #94, 2.499999999999998668 ) ;
#422 =( NAMED_UNIT ( * ) SI_UNIT ( $, .STERADIAN. ) SOLID_ANGLE_UNIT ( ) );
#423 = AXIS2_PLACEMENT_3D ( 'NONE', #320, #85, #477 ) ;
#424 = CARTESIAN_POINT ( 'NONE',  ( 3.000000000000000000, 23.00000000000000000, 0.000000000000000000 ) ) ;
#425 = ORIENTED_EDGE ( 'NONE', *, *, #436, .T. ) ;
#426 = EDGE_CURVE ( 'NONE', #415, #321, #174, .T. ) ;
#427 = CARTESIAN_POINT ( 'NONE',  ( 13.00000000000000178, 23.00000000000000000, 25.00000000000000000 ) ) ;
#428 = ORIENTED_EDGE ( 'NONE', *, *, #152, .T. ) ;
#429 =( LENGTH_UNIT ( ) NAMED_UNIT ( * ) SI_UNIT ( .MILLI., .METRE. ) );
#430 = CARTESIAN_POINT ( 'NONE',  ( 23.00000000000000000, 13.00000000000000178, 27.50000000000000000 ) ) ;
#431 = VERTEX_POINT ( 'NONE', #334 ) ;
#432 = AXIS2_PLACEMENT_3D ( 'NONE', #482, #129, #410 ) ;
#433 = VECTOR ( 'NONE', #160, 1000.000000000000000 ) ;
#434 = DIRECTION ( 'NONE',  ( -1.000000000000000000, -0.000000000000000000, -0.000000000000000000 ) ) ;
#435 = ORIENTED_EDGE ( 'NONE', *, *, #475, .T. ) ;
#436 = EDGE_CURVE ( 'NONE', #145, #164, #197, .T. ) ;
#437 = FACE_OUTER_BOUND ( 'NONE', #88, .T. ) ;
#438 = ORIENTED_EDGE ( 'NONE', *, *, #105, .T. ) ;
#439 = ADVANCED_FACE ( 'NONE', ( #100, #256 ), #136, .F. ) ;
#440 = DIRECTION ( 'NONE',  ( -0.000000000000000000, -1.000000000000000000, -0.000000000000000000 ) ) ;
#441 = EDGE_LOOP ( 'NONE', ( #204, #391 ) ) ;
#442 = DIRECTION ( 'NONE',  ( 1.000000000000000000, -0.000000000000000000, -0.000000000000000000 ) ) ;
#443 = VERTEX_POINT ( 'NONE', #414 ) ;
#444 = AXIS2_PLACEMENT_3D ( 'NONE', #404, #440, #90 ) ;
#445 = DIRECTION ( 'NONE',  ( 0.000000000000000000, -0.000000000000000000, 1.000000000000000000 ) ) ;
#446 = DIRECTION ( 'NONE',  ( 0.000000000000000000, 0.000000000000000000, -1.000000000000000000 ) ) ;
#447 = CARTESIAN_POINT ( 'NONE',  ( 23.00000000000000000, 3.000000000000000000, 0.000000000000000000 ) ) ;
#448 = AXIS2_PLACEMENT_3D ( 'NONE', #103, #177, #17 ) ;
#449 = CARTESIAN_POINT ( 'NONE',  ( 0.000000000000000000, 13.00000000000000178, 22.50000000000000355 ) ) ;
#450 = ADVANCED_FACE ( 'NONE', ( #63 ), #179, .T. ) ;
#451 = LINE ( 'NONE', #212, #45 ) ;
#452 = DIRECTION ( 'NONE',  ( -1.000000000000000000, -0.000000000000000000, -0.000000000000000000 ) ) ;
#453 = DIRECTION ( 'NONE',  ( 0.000000000000000000, 0.000000000000000000, 1.000000000000000000 ) ) ;
#454 = VECTOR ( 'NONE', #310, 1000.000000000000000 ) ;
#455 = DIRECTION ( 'NONE',  ( -0.000000000000000000, -1.000000000000000000, -0.000000000000000000 ) ) ;
#456 = LINE ( 'NONE', #107, #295 ) ;
#457 = EDGE_LOOP ( 'NONE', ( #222, #196, #506, #474 ) ) ;
#458 = PLANE ( 'NONE',  #291 ) ;
#459 = UNCERTAINTY_MEASURE_WITH_UNIT (LENGTH_MEASURE( 1.000000000000000082E-05 ), #502, 'distance_accuracy_value', 'NONE');
#460 = FILL_AREA_STYLE ('',( #106 ) ) ;
#461 = PRODUCT_DEFINITION_SHAPE ( 'NONE', 'NONE',  #265 ) ;
#462 = ORIENTED_EDGE ( 'NONE', *, *, #370, .F. ) ;
#463 = SURFACE_SIDE_STYLE ('',( #494 ) ) ;
#464 = VERTEX_POINT ( 'NONE', #374 ) ;
#465 = AXIS2_PLACEMENT_3D ( 'NONE', #210, #300, #154 ) ;
#466 = ADVANCED_FACE ( 'NONE', ( #336 ), #458, .T. ) ;
#467 = CIRCLE ( 'NONE', #134, 2.499999999999998668 ) ;
#468 = LINE ( 'NONE', #190, #433 ) ;
#469 = ORIENTED_EDGE ( 'NONE', *, *, #6, .T. ) ;
#470 = DIRECTION ( 'NONE',  ( -0.000000000000000000, 1.000000000000000000, -0.000000000000000000 ) ) ;
#471 = FACE_OUTER_BOUND ( 'NONE', #441, .T. ) ;
#472 = VERTEX_POINT ( 'NONE', #25 ) ;
#473 = DIRECTION ( 'NONE',  ( 0.000000000000000000, 0.000000000000000000, 1.000000000000000000 ) ) ;
#474 = ORIENTED_EDGE ( 'NONE', *, *, #417, .F. ) ;
#475 = EDGE_CURVE ( 'NONE', #271, #464, #181, .T. ) ;
#476 = ORIENTED_EDGE ( 'NONE', *, *, #250, .T. ) ;
#477 = DIRECTION ( 'NONE',  ( 0.000000000000000000, -0.000000000000000000, 1.000000000000000000 ) ) ;
#478 = VERTEX_POINT ( 'NONE', #290 ) ;
#479 = DIRECTION ( 'NONE',  ( 1.000000000000000000, 0.000000000000000000, 0.000000000000000000 ) ) ;
#480 = DIRECTION ( 'NONE',  ( -1.000000000000000000, -0.000000000000000000, -0.000000000000000000 ) ) ;
#481 = DIRECTION ( 'NONE',  ( 0.000000000000000000, 1.000000000000000000, 0.000000000000000000 ) ) ;
#482 = CARTESIAN_POINT ( 'NONE',  ( 23.00000000000000000, 13.00000000000000178, 25.00000000000000000 ) ) ;
#483 = FACE_OUTER_BOUND ( 'NONE', #161, .T. ) ;
#484 = CARTESIAN_POINT ( 'NONE',  ( 23.00000000000000000, 3.000000000000000000, 0.000000000000000000 ) ) ;
#485 = EDGE_CURVE ( 'NONE', #352, #74, #237, .T. ) ;
#486 = VECTOR ( 'NONE', #455, 1000.000000000000000 ) ;
#487 = DIRECTION ( 'NONE',  ( -0.000000000000000000, -0.000000000000000000, -1.000000000000000000 ) ) ;
#488 = CYLINDRICAL_SURFACE ( 'NONE', #24, 2.499999999999998668 ) ;
#489 = MANIFOLD_SOLID_BREP ( 'Körper-Verschieben/Kopieren1', #346 ) ;
#490 = FACE_OUTER_BOUND ( 'NONE', #39, .T. ) ;
#491 = DIRECTION ( 'NONE',  ( 1.000000000000000000, -0.000000000000000000, -0.000000000000000000 ) ) ;
#492 = CARTESIAN_POINT ( 'NONE',  ( 3.000000000000000000, 23.00000000000000000, 30.00000000000000000 ) ) ;
#493 = DIRECTION ( 'NONE',  ( 0.000000000000000000, 0.000000000000000000, 1.000000000000000000 ) ) ;
#494 = SURFACE_STYLE_FILL_AREA ( #460 ) ;
#495 = LINE ( 'NONE', #146, #167 ) ;
#496 = ORIENTED_EDGE ( 'NONE', *, *, #97, .T. ) ;
#497 = EDGE_CURVE ( 'NONE', #472, #394, #188, .T. ) ;
#498 = ORIENTED_EDGE ( 'NONE', *, *, #475, .F. ) ;
#499 = CARTESIAN_POINT ( 'NONE',  ( 23.00000000000000000, 3.000000000000000000, 30.00000000000000000 ) ) ;
#500 = AXIS2_PLACEMENT_3D ( 'NONE', #165, #7, #171 ) ;
#501 = EDGE_LOOP ( 'NONE', ( #108, #193, #419, #27 ) ) ;
#502 =( LENGTH_UNIT ( ) NAMED_UNIT ( * ) SI_UNIT ( .MILLI., .METRE. ) );
#503 = EDGE_CURVE ( 'NONE', #191, #352, #269, .T. ) ;
#504 = ORIENTED_EDGE ( 'NONE', *, *, #262, .T. ) ;
#505 = VECTOR ( 'NONE', #350, 1000.000000000000000 ) ;
#506 = ORIENTED_EDGE ( 'NONE', *, *, #280, .T. ) ;
#507 = AXIS2_PLACEMENT_3D ( 'NONE', #58, #452, #249 ) ;
ENDSEC;
END-ISO-10303-21;
