ISO-10303-21;
HEADER;
FILE_DESCRIPTION (( 'STEP AP214' ),
    '1' );
FILE_NAME ('Qk2i.STEP',
    '2025-09-08T12:27:26',
    ( '' ),
    ( '' ),
    'SwSTEP 2.0',
    'SolidWorks 2024',
    '' );
FILE_SCHEMA (( 'AUTOMOTIVE_DESIGN' ));
ENDSEC;

DATA;
#1 = ORIENTED_EDGE ( 'NONE', *, *, #302, .T. ) ;
#2 = PRODUCT_DEFINITION ( 'UNKNOWN', '', #58, #24 ) ;
#3 = EDGE_LOOP ( 'NONE', ( #141, #16, #283, #117 ) ) ;
#4 = VERTEX_POINT ( 'NONE', #26 ) ;
#5 = LINE ( 'NONE', #143, #194 ) ;
#6 = EDGE_CURVE ( 'NONE', #292, #187, #295, .T. ) ;
#7 = DIRECTION ( 'NONE',  ( 1.000000000000000000, 0.000000000000000000, 0.000000000000000000 ) ) ;
#8 = CARTESIAN_POINT ( 'NONE',  ( 0.000000000000000000, 0.000000000000000000, 30.00000000000000000 ) ) ;
#9 = ADVANCED_FACE ( 'NONE', ( #239 ), #169, .F. ) ;
#10 = CARTESIAN_POINT ( 'NONE',  ( 0.000000000000000000, 0.000000000000000000, 0.000000000000000000 ) ) ;
#11 = DIRECTION ( 'NONE',  ( -1.000000000000000000, 0.000000000000000000, -0.000000000000000000 ) ) ;
#12 = ORIENTED_EDGE ( 'NONE', *, *, #243, .T. ) ;
#13 = DIRECTION ( 'NONE',  ( -1.000000000000000000, -8.673617379884034239E-17, 0.000000000000000000 ) ) ;
#14 = VECTOR ( 'NONE', #42, 1000.000000000000000 ) ;
#15 = CARTESIAN_POINT ( 'NONE',  ( 22.50000000000000355, 2.500000000000001776, 0.000000000000000000 ) ) ;
#16 = ORIENTED_EDGE ( 'NONE', *, *, #227, .T. ) ;
#17 = ORIENTED_EDGE ( 'NONE', *, *, #280, .T. ) ;
#18 = CARTESIAN_POINT ( 'NONE',  ( 0.000000000000000000, 0.000000000000000000, 30.00000000000000000 ) ) ;
#19 = ORIENTED_EDGE ( 'NONE', *, *, #41, .T. ) ;
#20 = AXIS2_PLACEMENT_3D ( 'NONE', #257, #107, #279 ) ;
#21 = CARTESIAN_POINT ( 'NONE',  ( 17.50000000000000000, 0.000000000000000000, 30.00000000000000000 ) ) ;
#22 = DIRECTION ( 'NONE',  ( -0.000000000000000000, -0.000000000000000000, -1.000000000000000000 ) ) ;
#23 = ORIENTED_EDGE ( 'NONE', *, *, #291, .T. ) ;
#24 = PRODUCT_DEFINITION_CONTEXT ( 'detailed design', #65, 'design' ) ;
#25 = SURFACE_SIDE_STYLE ('',( #287 ) ) ;
#26 = CARTESIAN_POINT ( 'NONE',  ( 20.00000000000000000, 2.500000000000001332, 30.00000000000000000 ) ) ;
#27 = AXIS2_PLACEMENT_3D ( 'NONE', #15, #277, #206 ) ;
#28 = PRESENTATION_LAYER_ASSIGNMENT (  '', '', ( #265 ) ) ;
#29 = ORIENTED_EDGE ( 'NONE', *, *, #299, .F. ) ;
#30 = DIRECTION ( 'NONE',  ( 0.000000000000000000, 0.000000000000000000, 1.000000000000000000 ) ) ;
#31 = APPLICATION_CONTEXT ( 'automotive_design' ) ;
#32 = VECTOR ( 'NONE', #208, 1000.000000000000000 ) ;
#33 = LINE ( 'NONE', #204, #14 ) ;
#34 = DIRECTION ( 'NONE',  ( 0.000000000000000000, 0.000000000000000000, 1.000000000000000000 ) ) ;
#35 = CARTESIAN_POINT ( 'NONE',  ( 0.000000000000000000, 0.000000000000000000, 30.00000000000000000 ) ) ;
#36 = VECTOR ( 'NONE', #235, 1000.000000000000000 ) ;
#37 = DIRECTION ( 'NONE',  ( 0.000000000000000000, 1.000000000000000000, 0.000000000000000000 ) ) ;
#38 = CARTESIAN_POINT ( 'NONE',  ( 20.00000000000000000, 17.50000000000000000, 30.00000000000000000 ) ) ;
#39 = EDGE_LOOP ( 'NONE', ( #189, #241, #300, #12 ) ) ;
#40 = PRODUCT_CONTEXT ( 'NONE', #31, 'mechanical' ) ;
#41 = EDGE_CURVE ( 'NONE', #221, #74, #246, .T. ) ;
#42 = DIRECTION ( 'NONE',  ( 1.000000000000000000, 8.673617379884034239E-17, 0.000000000000000000 ) ) ;
#43 = CARTESIAN_POINT ( 'NONE',  ( 0.000000000000000000, 20.00000000000000000, 30.00000000000000000 ) ) ;
#44 = ORIENTED_EDGE ( 'NONE', *, *, #310, .F. ) ;
#45 = LINE ( 'NONE', #135, #36 ) ;
#46 = PRODUCT_RELATED_PRODUCT_CATEGORY ( 'part', '', ( #55 ) ) ;
#47 = CARTESIAN_POINT ( 'NONE',  ( 0.000000000000000000, 0.000000000000000000, 30.00000000000000000 ) ) ;
#48 = VECTOR ( 'NONE', #80, 1000.000000000000000 ) ;
#49 = DIRECTION ( 'NONE',  ( 0.000000000000000000, 0.000000000000000000, 1.000000000000000000 ) ) ;
#50 = COLOUR_RGB ( '',0.7921568627450980005, 0.8196078431372548767, 0.9333333333333333481 ) ;
#51 = ORIENTED_EDGE ( 'NONE', *, *, #99, .T. ) ;
#52 = ADVANCED_FACE ( 'NONE', ( #269 ), #263, .F. ) ;
#53 = VERTEX_POINT ( 'NONE', #244 ) ;
#54 = ORIENTED_EDGE ( 'NONE', *, *, #75, .T. ) ;
#55 = PRODUCT ( 'Qk2i', 'Qk2i', '', ( #40 ) ) ;
#56 = ORIENTED_EDGE ( 'NONE', *, *, #160, .T. ) ;
#57 = VECTOR ( 'NONE', #150, 1000.000000000000000 ) ;
#58 = PRODUCT_DEFINITION_FORMATION_WITH_SPECIFIED_SOURCE ( 'ANY', '', #55, .NOT_KNOWN. ) ;
#59 = LINE ( 'NONE', #128, #57 ) ;
#60 = CARTESIAN_POINT ( 'NONE',  ( 17.50000000000000000, 17.50000000000000000, 30.00000000000000000 ) ) ;
#61 =( NAMED_UNIT ( * ) PLANE_ANGLE_UNIT ( ) SI_UNIT ( $, .RADIAN. ) );
#62 = LINE ( 'NONE', #303, #253 ) ;
#63 = VECTOR ( 'NONE', #274, 1000.000000000000000 ) ;
#64 = CARTESIAN_POINT ( 'NONE',  ( 0.000000000000000000, 20.00000000000000000, 0.000000000000000000 ) ) ;
#65 = APPLICATION_CONTEXT ( 'automotive_design' ) ;
#66 = ORIENTED_EDGE ( 'NONE', *, *, #93, .T. ) ;
#67 = ADVANCED_FACE ( 'NONE', ( #200 ), #296, .F. ) ;
#68 = CARTESIAN_POINT ( 'NONE',  ( 17.50000000000000000, 20.00000000000000000, 0.000000000000000000 ) ) ;
#69 = AXIS2_PLACEMENT_3D ( 'NONE', #314, #264, #49 ) ;
#70 = PLANE ( 'NONE',  #275 ) ;
#71 = ORIENTED_EDGE ( 'NONE', *, *, #140, .F. ) ;
#72 = FILL_AREA_STYLE ('',( #190 ) ) ;
#73 = VERTEX_POINT ( 'NONE', #138 ) ;
#74 = VERTEX_POINT ( 'NONE', #21 ) ;
#75 = EDGE_CURVE ( 'NONE', #4, #98, #317, .T. ) ;
#76 = ORIENTED_EDGE ( 'NONE', *, *, #140, .T. ) ;
#77 = ORIENTED_EDGE ( 'NONE', *, *, #148, .T. ) ;
#78 = VECTOR ( 'NONE', #155, 1000.000000000000000 ) ;
#79 = AXIS2_PLACEMENT_3D ( 'NONE', #47, #168, #145 ) ;
#80 = DIRECTION ( 'NONE',  ( -0.000000000000000000, -0.000000000000000000, 1.000000000000000000 ) ) ;
#81 = CARTESIAN_POINT ( 'NONE',  ( 22.50000000000000355, 2.500000000000001776, 30.00000000000000000 ) ) ;
#82 = FACE_OUTER_BOUND ( 'NONE', #110, .T. ) ;
#83 = DIRECTION ( 'NONE',  ( 1.000000000000000000, 0.000000000000000000, 0.000000000000000000 ) ) ;
#84 = EDGE_CURVE ( 'NONE', #121, #182, #106, .T. ) ;
#85 = CARTESIAN_POINT ( 'NONE',  ( 17.50000000000000000, 22.50000000000000355, 30.00000000000000000 ) ) ;
#86 = EDGE_LOOP ( 'NONE', ( #66, #164, #266, #54, #44, #131, #76, #156 ) ) ;
#87 = DIRECTION ( 'NONE',  ( 0.000000000000000000, 0.000000000000000000, -1.000000000000000000 ) ) ;
#88 = ORIENTED_EDGE ( 'NONE', *, *, #6, .T. ) ;
#89 = DIRECTION ( 'NONE',  ( 0.000000000000000000, 1.000000000000000000, 0.000000000000000000 ) ) ;
#90 = DIRECTION ( 'NONE',  ( 0.000000000000000000, 0.000000000000000000, 1.000000000000000000 ) ) ;
#91 = CARTESIAN_POINT ( 'NONE',  ( 20.00000000000000000, 0.000000000000000000, 30.00000000000000000 ) ) ;
#92 = DIRECTION ( 'NONE',  ( -0.000000000000000000, -0.000000000000000000, 1.000000000000000000 ) ) ;
#93 = EDGE_CURVE ( 'NONE', #211, #74, #62, .T. ) ;
#94 = DIRECTION ( 'NONE',  ( 0.000000000000000000, 0.000000000000000000, -1.000000000000000000 ) ) ;
#95 = UNCERTAINTY_MEASURE_WITH_UNIT (LENGTH_MEASURE( 1.000000000000000082E-05 ), #250, 'distance_accuracy_value', 'NONE');
#96 = VECTOR ( 'NONE', #92, 1000.000000000000000 ) ;
#97 = CARTESIAN_POINT ( 'NONE',  ( 17.50000000000000000, 17.50000000000000000, 0.000000000000000000 ) ) ;
#98 = VERTEX_POINT ( 'NONE', #38 ) ;
#99 = EDGE_CURVE ( 'NONE', #315, #123, #174, .T. ) ;
#100 = EDGE_LOOP ( 'NONE', ( #51, #306, #229, #217 ) ) ;
#101 = AXIS2_PLACEMENT_3D ( 'NONE', #304, #34, #7 ) ;
#102 = APPLICATION_PROTOCOL_DEFINITION ( 'draft international standard', 'automotive_design', 1998, #31 ) ;
#103 = DIRECTION ( 'NONE',  ( -1.000000000000000000, -0.000000000000000000, -0.000000000000000000 ) ) ;
#104 =( GEOMETRIC_REPRESENTATION_CONTEXT ( 3 ) GLOBAL_UNCERTAINTY_ASSIGNED_CONTEXT ( ( #162 ) ) GLOBAL_UNIT_ASSIGNED_CONTEXT ( ( #233, #218, #313 ) ) REPRESENTATION_CONTEXT ( 'NONE', 'WORKASPACE' ) );
#105 = CARTESIAN_POINT ( 'NONE',  ( 20.00000000000000000, 2.500000000000001332, 0.000000000000000000 ) ) ;
#106 = LINE ( 'NONE', #153, #78 ) ;
#107 = DIRECTION ( 'NONE',  ( 0.000000000000000000, -1.000000000000000000, 0.000000000000000000 ) ) ;
#108 = CARTESIAN_POINT ( 'NONE',  ( 17.50000000000000000, 22.50000000000000355, 0.000000000000000000 ) ) ;
#109 = ORIENTED_EDGE ( 'NONE', *, *, #198, .T. ) ;
#110 = EDGE_LOOP ( 'NONE', ( #71, #77, #213, #219 ) ) ;
#111 = CARTESIAN_POINT ( 'NONE',  ( 17.50000000000000000, 2.500000000000001332, 0.000000000000000000 ) ) ;
#112 = ORIENTED_EDGE ( 'NONE', *, *, #186, .T. ) ;
#113 = CLOSED_SHELL ( 'NONE', ( #67, #267, #297, #129, #9, #260, #152, #52, #234, #122 ) ) ;
#114 =( GEOMETRIC_REPRESENTATION_CONTEXT ( 3 ) GLOBAL_UNCERTAINTY_ASSIGNED_CONTEXT ( ( #95 ) ) GLOBAL_UNIT_ASSIGNED_CONTEXT ( ( #250, #61, #256 ) ) REPRESENTATION_CONTEXT ( 'NONE', 'WORKASPACE' ) );
#115 = CARTESIAN_POINT ( 'NONE',  ( 0.000000000000000000, 0.000000000000000000, 0.000000000000000000 ) ) ;
#116 = DIRECTION ( 'NONE',  ( 0.000000000000000000, -1.000000000000000000, 0.000000000000000000 ) ) ;
#117 = ORIENTED_EDGE ( 'NONE', *, *, #247, .F. ) ;
#118 = CARTESIAN_POINT ( 'NONE',  ( 17.50000000000000000, 17.50000000000000000, 0.000000000000000000 ) ) ;
#119 = ORIENTED_EDGE ( 'NONE', *, *, #84, .F. ) ;
#120 = VECTOR ( 'NONE', #30, 1000.000000000000000 ) ;
#121 = VERTEX_POINT ( 'NONE', #68 ) ;
#122 = ADVANCED_FACE ( 'NONE', ( #157 ), #301, .F. ) ;
#123 = VERTEX_POINT ( 'NONE', #60 ) ;
#124 = CARTESIAN_POINT ( 'NONE',  ( 0.000000000000000000, 0.000000000000000000, 0.000000000000000000 ) ) ;
#125 = VECTOR ( 'NONE', #83, 1000.000000000000000 ) ;
#126 = PRODUCT_DEFINITION_SHAPE ( 'NONE', 'NONE',  #2 ) ;
#127 = DIRECTION ( 'NONE',  ( 0.000000000000000000, -1.000000000000000000, 0.000000000000000000 ) ) ;
#128 = CARTESIAN_POINT ( 'NONE',  ( 0.000000000000000000, 0.000000000000000000, 0.000000000000000000 ) ) ;
#129 = ADVANCED_FACE ( 'NONE', ( #82 ), #130, .F. ) ;
#130 = PLANE ( 'NONE',  #20 ) ;
#131 = ORIENTED_EDGE ( 'NONE', *, *, #99, .F. ) ;
#132 = CARTESIAN_POINT ( 'NONE',  ( 0.000000000000000000, 20.00000000000000000, 30.00000000000000000 ) ) ;
#133 = LINE ( 'NONE', #81, #165 ) ;
#134 = ADVANCED_BREP_SHAPE_REPRESENTATION ( 'Qk2i', ( #249, #101 ), #114 ) ;
#135 = CARTESIAN_POINT ( 'NONE',  ( 17.50000000000000000, 2.500000000000001332, 30.00000000000000000 ) ) ;
#136 = EDGE_LOOP ( 'NONE', ( #29, #88, #17, #146 ) ) ;
#137 = CARTESIAN_POINT ( 'NONE',  ( 17.50000000000000000, 2.500000000000001332, 0.000000000000000000 ) ) ;
#138 = CARTESIAN_POINT ( 'NONE',  ( 17.50000000000000000, 17.50000000000000000, 0.000000000000000000 ) ) ;
#139 = VECTOR ( 'NONE', #309, 1000.000000000000000 ) ;
#140 = EDGE_CURVE ( 'NONE', #315, #311, #175, .T. ) ;
#141 = ORIENTED_EDGE ( 'NONE', *, *, #160, .F. ) ;
#142 = CARTESIAN_POINT ( 'NONE',  ( 17.50000000000000000, 0.000000000000000000, 30.00000000000000000 ) ) ;
#143 = CARTESIAN_POINT ( 'NONE',  ( 17.50000000000000000, 2.500000000000001332, 0.000000000000000000 ) ) ;
#144 = EDGE_CURVE ( 'NONE', #292, #184, #33, .T. ) ;
#145 = DIRECTION ( 'NONE',  ( 0.000000000000000000, 0.000000000000000000, -1.000000000000000000 ) ) ;
#146 = ORIENTED_EDGE ( 'NONE', *, *, #41, .F. ) ;
#147 = CARTESIAN_POINT ( 'NONE',  ( 17.50000000000000000, 20.00000000000000000, 30.00000000000000000 ) ) ;
#148 = EDGE_CURVE ( 'NONE', #315, #121, #225, .T. ) ;
#149 = VECTOR ( 'NONE', #37, 1000.000000000000000 ) ;
#150 = DIRECTION ( 'NONE',  ( -0.000000000000000000, -1.000000000000000000, -0.000000000000000000 ) ) ;
#151 = DIRECTION ( 'NONE',  ( -0.000000000000000000, 0.000000000000000000, 1.000000000000000000 ) ) ;
#152 = ADVANCED_FACE ( 'NONE', ( #254 ), #255, .F. ) ;
#153 = CARTESIAN_POINT ( 'NONE',  ( 0.000000000000000000, 20.00000000000000000, 0.000000000000000000 ) ) ;
#154 = SHAPE_DEFINITION_REPRESENTATION ( #126, #134 ) ;
#155 = DIRECTION ( 'NONE',  ( -1.000000000000000000, -0.000000000000000000, -0.000000000000000000 ) ) ;
#156 = ORIENTED_EDGE ( 'NONE', *, *, #193, .T. ) ;
#157 = FACE_OUTER_BOUND ( 'NONE', #178, .T. ) ;
#158 = FACE_OUTER_BOUND ( 'NONE', #205, .T. ) ;
#159 = PRESENTATION_STYLE_ASSIGNMENT (( #268 ) ) ;
#160 = EDGE_CURVE ( 'NONE', #73, #53, #179, .T. ) ;
#161 = ORIENTED_EDGE ( 'NONE', *, *, #93, .F. ) ;
#162 = UNCERTAINTY_MEASURE_WITH_UNIT (LENGTH_MEASURE( 1.000000000000000082E-05 ), #233, 'distance_accuracy_value', 'NONE');
#163 = FACE_OUTER_BOUND ( 'NONE', #245, .T. ) ;
#164 = ORIENTED_EDGE ( 'NONE', *, *, #280, .F. ) ;
#165 = VECTOR ( 'NONE', #13, 1000.000000000000000 ) ;
#166 = DIRECTION ( 'NONE',  ( -1.000000000000000000, 0.000000000000000000, -0.000000000000000000 ) ) ;
#167 = DIRECTION ( 'NONE',  ( -1.000000000000000000, 0.000000000000000000, -0.000000000000000000 ) ) ;
#168 = DIRECTION ( 'NONE',  ( 1.000000000000000000, 0.000000000000000000, 0.000000000000000000 ) ) ;
#169 = PLANE ( 'NONE',  #288 ) ;
#170 = EDGE_CURVE ( 'NONE', #4, #184, #202, .T. ) ;
#171 = DIRECTION ( 'NONE',  ( 1.000000000000000000, 0.000000000000000000, 0.000000000000000000 ) ) ;
#172 = VECTOR ( 'NONE', #22, 1000.000000000000000 ) ;
#173 = CARTESIAN_POINT ( 'NONE',  ( 20.00000000000000000, 0.000000000000000000, 0.000000000000000000 ) ) ;
#174 = LINE ( 'NONE', #85, #259 ) ;
#175 = LINE ( 'NONE', #132, #281 ) ;
#176 = CARTESIAN_POINT ( 'NONE',  ( 17.50000000000000000, 17.50000000000000000, 0.000000000000000000 ) ) ;
#177 = AXIS2_PLACEMENT_3D ( 'NONE', #108, #11, #151 ) ;
#178 = EDGE_LOOP ( 'NONE', ( #112, #270, #298, #285 ) ) ;
#179 = LINE ( 'NONE', #176, #125 ) ;
#180 = ORIENTED_EDGE ( 'NONE', *, *, #170, .T. ) ;
#181 = DIRECTION ( 'NONE',  ( -1.000000000000000000, 0.000000000000000000, -0.000000000000000000 ) ) ;
#182 = VERTEX_POINT ( 'NONE', #64 ) ;
#183 = CARTESIAN_POINT ( 'NONE',  ( 20.00000000000000000, 17.50000000000000000, 30.00000000000000000 ) ) ;
#184 = VERTEX_POINT ( 'NONE', #105 ) ;
#185 = LINE ( 'NONE', #18, #214 ) ;
#186 = EDGE_CURVE ( 'NONE', #4, #187, #133, .T. ) ;
#187 = VERTEX_POINT ( 'NONE', #252 ) ;
#188 = CARTESIAN_POINT ( 'NONE',  ( 0.000000000000000000, 0.000000000000000000, 30.00000000000000000 ) ) ;
#189 = ORIENTED_EDGE ( 'NONE', *, *, #201, .T. ) ;
#190 = FILL_AREA_STYLE_COLOUR ( '', #50 ) ;
#191 = ORIENTED_EDGE ( 'NONE', *, *, #201, .F. ) ;
#192 = VECTOR ( 'NONE', #276, 1000.000000000000000 ) ;
#193 = EDGE_CURVE ( 'NONE', #311, #211, #230, .T. ) ;
#194 = VECTOR ( 'NONE', #197, 1000.000000000000000 ) ;
#195 = ORIENTED_EDGE ( 'NONE', *, *, #299, .T. ) ;
#196 = ORIENTED_EDGE ( 'NONE', *, *, #144, .F. ) ;
#197 = DIRECTION ( 'NONE',  ( 0.000000000000000000, -1.000000000000000000, 0.000000000000000000 ) ) ;
#198 = EDGE_CURVE ( 'NONE', #184, #53, #312, .T. ) ;
#199 = CARTESIAN_POINT ( 'NONE',  ( 17.50000000000000000, 17.50000000000000000, 30.00000000000000000 ) ) ;
#200 = FACE_OUTER_BOUND ( 'NONE', #39, .T. ) ;
#201 = EDGE_CURVE ( 'NONE', #182, #209, #59, .T. ) ;
#202 = LINE ( 'NONE', #282, #307 ) ;
#203 = CARTESIAN_POINT ( 'NONE',  ( 17.50000000000000000, 0.000000000000000000, 0.000000000000000000 ) ) ;
#204 = CARTESIAN_POINT ( 'NONE',  ( -2.168404344971008128E-16, 2.499999999999999556, 0.000000000000000000 ) ) ;
#205 = EDGE_LOOP ( 'NONE', ( #195, #261, #191, #119, #236, #56, #286, #196 ) ) ;
#206 = DIRECTION ( 'NONE',  ( -1.000000000000000000, -8.673617379884034239E-17, 0.000000000000000000 ) ) ;
#207 = EDGE_CURVE ( 'NONE', #73, #121, #224, .T. ) ;
#208 = DIRECTION ( 'NONE',  ( -0.000000000000000000, -1.000000000000000000, -0.000000000000000000 ) ) ;
#209 = VERTEX_POINT ( 'NONE', #10 ) ;
#210 = LINE ( 'NONE', #118, #96 ) ;
#211 = VERTEX_POINT ( 'NONE', #8 ) ;
#212 = AXIS2_PLACEMENT_3D ( 'NONE', #97, #116, #216 ) ;
#213 = ORIENTED_EDGE ( 'NONE', *, *, #84, .T. ) ;
#214 = VECTOR ( 'NONE', #316, 1000.000000000000000 ) ;
#215 = FACE_OUTER_BOUND ( 'NONE', #222, .T. ) ;
#216 = DIRECTION ( 'NONE',  ( 0.000000000000000000, -0.000000000000000000, -1.000000000000000000 ) ) ;
#217 = ORIENTED_EDGE ( 'NONE', *, *, #148, .F. ) ;
#218 =( NAMED_UNIT ( * ) PLANE_ANGLE_UNIT ( ) SI_UNIT ( $, .RADIAN. ) );
#219 = ORIENTED_EDGE ( 'NONE', *, *, #243, .F. ) ;
#220 = CARTESIAN_POINT ( 'NONE',  ( 0.000000000000000000, 20.00000000000000000, 30.00000000000000000 ) ) ;
#221 = VERTEX_POINT ( 'NONE', #203 ) ;
#222 = EDGE_LOOP ( 'NONE', ( #1, #19, #161, #23 ) ) ;
#223 = DIRECTION ( 'NONE',  ( 0.000000000000000000, 1.000000000000000000, 0.000000000000000000 ) ) ;
#224 = LINE ( 'NONE', #251, #231 ) ;
#225 = LINE ( 'NONE', #305, #139 ) ;
#226 = ORIENTED_EDGE ( 'NONE', *, *, #247, .T. ) ;
#227 = EDGE_CURVE ( 'NONE', #73, #123, #210, .T. ) ;
#228 = DIRECTION ( 'NONE',  ( 0.000000000000000000, 0.000000000000000000, -1.000000000000000000 ) ) ;
#229 = ORIENTED_EDGE ( 'NONE', *, *, #207, .T. ) ;
#230 = LINE ( 'NONE', #35, #32 ) ;
#231 = VECTOR ( 'NONE', #223, 1000.000000000000000 ) ;
#232 = ORIENTED_EDGE ( 'NONE', *, *, #75, .F. ) ;
#233 =( LENGTH_UNIT ( ) NAMED_UNIT ( * ) SI_UNIT ( .MILLI., .METRE. ) );
#234 = ADVANCED_FACE ( 'NONE', ( #242 ), #70, .F. ) ;
#235 = DIRECTION ( 'NONE',  ( 0.000000000000000000, -1.000000000000000000, 0.000000000000000000 ) ) ;
#236 = ORIENTED_EDGE ( 'NONE', *, *, #207, .F. ) ;
#237 = PLANE ( 'NONE',  #294 ) ;
#238 = AXIS2_PLACEMENT_3D ( 'NONE', #188, #89, #262 ) ;
#239 = FACE_OUTER_BOUND ( 'NONE', #86, .T. ) ;
#240 = DIRECTION ( 'NONE',  ( -0.000000000000000000, 0.000000000000000000, 1.000000000000000000 ) ) ;
#241 = ORIENTED_EDGE ( 'NONE', *, *, #291, .F. ) ;
#242 = FACE_OUTER_BOUND ( 'NONE', #136, .T. ) ;
#243 = EDGE_CURVE ( 'NONE', #311, #182, #318, .T. ) ;
#244 = CARTESIAN_POINT ( 'NONE',  ( 20.00000000000000000, 17.50000000000000000, 0.000000000000000000 ) ) ;
#245 = EDGE_LOOP ( 'NONE', ( #232, #180, #109, #226 ) ) ;
#246 = LINE ( 'NONE', #142, #120 ) ;
#247 = EDGE_CURVE ( 'NONE', #53, #98, #293, .T. ) ;
#248 = LINE ( 'NONE', #199, #63 ) ;
#249 = MANIFOLD_SOLID_BREP ( 'Schnitt-Linear austragen1', #113 ) ;
#250 =( LENGTH_UNIT ( ) NAMED_UNIT ( * ) SI_UNIT ( .MILLI., .METRE. ) );
#251 = CARTESIAN_POINT ( 'NONE',  ( 17.50000000000000000, 0.000000000000000000, -0.000000000000000000 ) ) ;
#252 = CARTESIAN_POINT ( 'NONE',  ( 17.50000000000000000, 2.500000000000001332, 30.00000000000000000 ) ) ;
#253 = VECTOR ( 'NONE', #284, 1000.000000000000000 ) ;
#254 = FACE_OUTER_BOUND ( 'NONE', #100, .T. ) ;
#255 = PLANE ( 'NONE',  #177 ) ;
#256 =( NAMED_UNIT ( * ) SI_UNIT ( $, .STERADIAN. ) SOLID_ANGLE_UNIT ( ) );
#257 = CARTESIAN_POINT ( 'NONE',  ( 0.000000000000000000, 20.00000000000000000, 30.00000000000000000 ) ) ;
#258 = PLANE ( 'NONE',  #238 ) ;
#259 = VECTOR ( 'NONE', #127, 1000.000000000000000 ) ;
#260 = ADVANCED_FACE ( 'NONE', ( #158 ), #237, .T. ) ;
#261 = ORIENTED_EDGE ( 'NONE', *, *, #302, .F. ) ;
#262 = DIRECTION ( 'NONE',  ( 0.000000000000000000, -0.000000000000000000, 1.000000000000000000 ) ) ;
#263 = PLANE ( 'NONE',  #212 ) ;
#264 = DIRECTION ( 'NONE',  ( -1.000000000000000000, 0.000000000000000000, 0.000000000000000000 ) ) ;
#265 = STYLED_ITEM ( 'NONE', ( #159 ), #249 ) ;
#266 = ORIENTED_EDGE ( 'NONE', *, *, #186, .F. ) ;
#267 = ADVANCED_FACE ( 'NONE', ( #215 ), #258, .F. ) ;
#268 = SURFACE_STYLE_USAGE ( .BOTH. , #25 ) ;
#269 = FACE_OUTER_BOUND ( 'NONE', #3, .T. ) ;
#270 = ORIENTED_EDGE ( 'NONE', *, *, #6, .F. ) ;
#271 = LINE ( 'NONE', #124, #289 ) ;
#272 = CARTESIAN_POINT ( 'NONE',  ( 0.000000000000000000, 0.000000000000000000, 30.00000000000000000 ) ) ;
#273 = VECTOR ( 'NONE', #90, 1000.000000000000000 ) ;
#274 = DIRECTION ( 'NONE',  ( 1.000000000000000000, 0.000000000000000000, 0.000000000000000000 ) ) ;
#275 = AXIS2_PLACEMENT_3D ( 'NONE', #137, #166, #240 ) ;
#276 = DIRECTION ( 'NONE',  ( 0.000000000000000000, 1.000000000000000000, 0.000000000000000000 ) ) ;
#277 = DIRECTION ( 'NONE',  ( -8.673617379884034239E-17, 1.000000000000000000, 0.000000000000000000 ) ) ;
#278 = APPLICATION_PROTOCOL_DEFINITION ( 'draft international standard', 'automotive_design', 1998, #65 ) ;
#279 = DIRECTION ( 'NONE',  ( 0.000000000000000000, -0.000000000000000000, -1.000000000000000000 ) ) ;
#280 = EDGE_CURVE ( 'NONE', #187, #74, #45, .T. ) ;
#281 = VECTOR ( 'NONE', #103, 1000.000000000000000 ) ;
#282 = CARTESIAN_POINT ( 'NONE',  ( 20.00000000000000000, 2.500000000000001332, 30.00000000000000000 ) ) ;
#283 = ORIENTED_EDGE ( 'NONE', *, *, #310, .T. ) ;
#284 = DIRECTION ( 'NONE',  ( 1.000000000000000000, 0.000000000000000000, 0.000000000000000000 ) ) ;
#285 = ORIENTED_EDGE ( 'NONE', *, *, #170, .F. ) ;
#286 = ORIENTED_EDGE ( 'NONE', *, *, #198, .F. ) ;
#287 = SURFACE_STYLE_FILL_AREA ( #72 ) ;
#288 = AXIS2_PLACEMENT_3D ( 'NONE', #272, #94, #167 ) ;
#289 = VECTOR ( 'NONE', #171, 1000.000000000000000 ) ;
#290 = PLANE ( 'NONE',  #69 ) ;
#291 = EDGE_CURVE ( 'NONE', #211, #209, #185, .T. ) ;
#292 = VERTEX_POINT ( 'NONE', #111 ) ;
#293 = LINE ( 'NONE', #183, #273 ) ;
#294 = AXIS2_PLACEMENT_3D ( 'NONE', #115, #87, #181 ) ;
#295 = LINE ( 'NONE', #319, #48 ) ;
#296 = PLANE ( 'NONE',  #79 ) ;
#297 = ADVANCED_FACE ( 'NONE', ( #163 ), #290, .F. ) ;
#298 = ORIENTED_EDGE ( 'NONE', *, *, #144, .T. ) ;
#299 = EDGE_CURVE ( 'NONE', #292, #221, #5, .T. ) ;
#300 = ORIENTED_EDGE ( 'NONE', *, *, #193, .F. ) ;
#301 = PLANE ( 'NONE',  #27 ) ;
#302 = EDGE_CURVE ( 'NONE', #209, #221, #271, .T. ) ;
#303 = CARTESIAN_POINT ( 'NONE',  ( 0.000000000000000000, 0.000000000000000000, 30.00000000000000000 ) ) ;
#304 = CARTESIAN_POINT ( 'NONE',  ( 0.000000000000000000, 0.000000000000000000, 0.000000000000000000 ) ) ;
#305 = CARTESIAN_POINT ( 'NONE',  ( 17.50000000000000000, 20.00000000000000000, 30.00000000000000000 ) ) ;
#306 = ORIENTED_EDGE ( 'NONE', *, *, #227, .F. ) ;
#307 = VECTOR ( 'NONE', #228, 1000.000000000000000 ) ;
#308 = MECHANICAL_DESIGN_GEOMETRIC_PRESENTATION_REPRESENTATION (  '', ( #265 ), #104 ) ;
#309 = DIRECTION ( 'NONE',  ( 0.000000000000000000, 0.000000000000000000, -1.000000000000000000 ) ) ;
#310 = EDGE_CURVE ( 'NONE', #123, #98, #248, .T. ) ;
#311 = VERTEX_POINT ( 'NONE', #220 ) ;
#312 = LINE ( 'NONE', #173, #192 ) ;
#313 =( NAMED_UNIT ( * ) SI_UNIT ( $, .STERADIAN. ) SOLID_ANGLE_UNIT ( ) );
#314 = CARTESIAN_POINT ( 'NONE',  ( 20.00000000000000000, 0.000000000000000000, 30.00000000000000000 ) ) ;
#315 = VERTEX_POINT ( 'NONE', #147 ) ;
#316 = DIRECTION ( 'NONE',  ( -0.000000000000000000, -0.000000000000000000, -1.000000000000000000 ) ) ;
#317 = LINE ( 'NONE', #91, #149 ) ;
#318 = LINE ( 'NONE', #43, #172 ) ;
#319 = CARTESIAN_POINT ( 'NONE',  ( 17.50000000000000000, 2.500000000000001332, 0.000000000000000000 ) ) ;
ENDSEC;
END-ISO-10303-21;
