# Blender 4.4.0
# www.blender.org
mtllib Qk2i.mtl
o Qk2i
v 0.000000 0.000000 30.000000
v 0.000000 20.000000 30.000000
v 0.000000 0.000000 0.000000
v 0.000000 20.000000 0.000000
v 17.500000 0.000000 30.000000
v 17.500000 0.000000 0.000000
v 20.000000 2.500000 0.000000
v 20.000000 17.500000 0.000000
v 20.000000 2.500000 30.000000
v 20.000000 17.500000 30.000000
v 17.500000 20.000000 0.000000
v 17.500000 20.000000 30.000000
v 17.500000 2.500000 30.000000
v 17.500000 17.500000 30.000000
v 17.500000 17.500000 0.000000
v 17.500000 2.500000 0.000000
vn -1.0000 -0.0000 -0.0000
vn -0.0000 -1.0000 -0.0000
vn 1.0000 -0.0000 -0.0000
vn -0.0000 1.0000 -0.0000
vn -0.0000 -0.0000 1.0000
vn -0.0000 -0.0000 -1.0000
s 0
f 1//1 2//1 3//1
f 3//1 2//1 4//1
f 5//2 1//2 6//2
f 6//2 1//2 3//2
f 7//3 8//3 9//3
f 9//3 8//3 10//3
f 11//4 4//4 12//4
f 12//4 4//4 2//4
f 1//5 5//5 2//5
f 2//5 5//5 13//5
f 12//5 2//5 14//5
f 14//5 2//5 13//5
f 14//5 13//5 10//5
f 10//5 13//5 9//5
f 4//6 11//6 3//6
f 3//6 11//6 15//6
f 6//6 3//6 16//6
f 16//6 3//6 15//6
f 16//6 15//6 7//6
f 7//6 15//6 8//6
f 15//3 11//3 14//3
f 14//3 11//3 12//3
f 14//4 10//4 15//4
f 15//4 10//4 8//4
f 13//3 5//3 16//3
f 16//3 5//3 6//3
f 16//2 7//2 13//2
f 13//2 7//2 9//2
