# https://github.com/mikedh/trimesh
v 0.00000000 0.00000000 30.00000000
v 0.00000000 20.00000000 30.00000000
v 0.00000000 0.00000000 0.00000000
v 0.00000000 20.00000000 0.00000000
v 17.50000000 0.00000000 30.00000000
v 17.50000000 0.00000000 0.00000000
v 20.00000000 2.50000000 0.00000000
v 20.00000000 17.50000000 0.00000000
v 20.00000000 2.50000000 30.00000000
v 20.00000000 17.50000000 30.00000000
v 17.50000000 20.00000000 0.00000000
v 17.50000000 20.00000000 30.00000000
f 4 3 1
f 4 2 1
f 5 3 1
f 5 6 3
f 5 6 7
f 5 9 7
f 10 2 1
f 10 12 2
f 10 5 1
f 10 5 9
f 11 4 2
f 11 12 2
f 8 4 3
f 8 6 7
f 8 6 3
f 8 11 4
f 8 9 7
f 8 10 9
f 8 10 12
f 8 11 12

