# https://github.com/mikedh/trimesh
v 20.00000000 0.00000000 0.00000000
v 20.00000000 20.00000000 0.00000000
v 20.00000000 20.00000000 30.00000000
v 20.00000000 0.00000000 30.00000000
v 0.00000000 0.00000000 30.00000000
v 0.00000000 20.00000000 30.00000000
v 0.00000000 0.00000000 0.00000000
v 0.00000000 20.00000000 0.00000000
v 23.00000000 0.00000000 27.00000000
v 23.00000000 0.00000000 18.00000000
v 23.00000000 20.00000000 18.00000000
v 23.00000000 20.00000000 27.00000000
f 6 7 5
f 6 7 8
f 6 4 5
f 6 4 3
f 2 7 1
f 2 7 8
f 9 4 5
f 9 7 5
f 9 7 1
f 9 10 1
f 9 4 3
f 9 12 3
f 11 9 10
f 11 9 12
f 11 6 8
f 11 12 3
f 11 6 3
f 11 2 8
f 11 10 1
f 11 2 1

