# Blender 4.4.0
# www.blender.org
mtllib Qk4a.mtl
o Qk4a
v 20.000000 20.000000 24.000000
v 20.000000 0.000000 24.000000
v 20.000000 20.000000 21.000000
v 20.000000 0.000000 21.000000
v 20.000000 0.000000 0.000000
v 20.000000 20.000000 0.000000
v 20.000000 0.000000 18.000000
v 20.000000 20.000000 18.000000
v 20.000000 20.000000 30.000000
v 20.000000 0.000000 30.000000
v 20.000000 20.000000 27.000000
v 20.000000 0.000000 27.000000
v 0.000000 0.000000 30.000000
v 0.000000 20.000000 30.000000
v 0.000000 0.000000 0.000000
v 0.000000 20.000000 0.000000
v 23.000000 0.000000 24.000000
v 23.000000 0.000000 27.000000
v 23.000000 0.000000 21.000000
v 23.000000 0.000000 18.000000
v 23.000000 20.000000 21.000000
v 23.000000 20.000000 18.000000
v 23.000000 20.000000 24.000000
v 23.000000 20.000000 27.000000
vn 1.0000 -0.0000 -0.0000
vn -1.0000 -0.0000 -0.0000
vn -0.0000 -1.0000 -0.0000
vn -0.0000 1.0000 -0.0000
vn -0.0000 -0.0000 1.0000
vn -0.0000 -0.0000 -1.0000
s 0
f 1//1 2//1 3//1
f 3//1 2//1 4//1
f 5//1 6//1 7//1
f 7//1 6//1 8//1
f 9//1 10//1 11//1
f 11//1 10//1 12//1
f 13//2 14//2 15//2
f 15//2 14//2 16//2
f 12//3 10//3 13//3
f 2//3 17//3 18//3
f 15//3 5//3 13//3
f 13//3 5//3 7//3
f 18//3 12//3 2//3
f 2//3 12//3 13//3
f 2//3 13//3 4//3
f 4//3 13//3 7//3
f 4//3 7//3 19//3
f 19//3 7//3 20//3
f 8//4 6//4 16//4
f 14//4 9//4 16//4
f 16//4 9//4 11//4
f 3//4 21//4 22//4
f 22//4 8//4 3//4
f 3//4 8//4 16//4
f 3//4 16//4 1//4
f 1//4 16//4 11//4
f 1//4 11//4 23//4
f 23//4 11//4 24//4
f 10//5 9//5 13//5
f 13//5 9//5 14//5
f 6//6 5//6 16//6
f 16//6 5//6 15//6
f 18//5 24//5 12//5
f 12//5 24//5 11//5
f 23//6 17//6 1//6
f 1//6 17//6 2//6
f 17//1 23//1 18//1
f 18//1 23//1 24//1
f 19//5 21//5 4//5
f 4//5 21//5 3//5
f 22//6 20//6 8//6
f 8//6 20//6 7//6
f 20//1 22//1 19//1
f 19//1 22//1 21//1
