ISO-10303-21;
HEADER;
FILE_DESCRIPTION (( 'STEP AP214' ),
    '1' );
FILE_NAME ('Qk4a.STEP',
    '2025-09-08T12:26:15',
    ( '' ),
    ( '' ),
    'SwSTEP 2.0',
    'SolidWorks 2024',
    '' );
FILE_SCHEMA (( 'AUTOMOTIVE_DESIGN' ));
ENDSEC;

DATA;
#1 = VECTOR ( 'NONE', #334, 1000.000000000000000 ) ;
#2 = ORIENTED_EDGE ( 'NONE', *, *, #434, .F. ) ;
#3 = EDGE_CURVE ( 'NONE', #416, #425, #163, .T. ) ;
#4 = DIRECTION ( 'NONE',  ( 0.000000000000000000, 1.000000000000000000, 1.734723475976806848E-16 ) ) ;
#5 = EDGE_LOOP ( 'NONE', ( #131, #287, #112, #122, #134, #82, #399, #115, #241, #191, #391, #275 ) ) ;
#6 = ORIENTED_EDGE ( 'NONE', *, *, #303, .T. ) ;
#7 = DIRECTION ( 'NONE',  ( 0.000000000000000000, 0.000000000000000000, -1.000000000000000000 ) ) ;
#8 = VECTOR ( 'NONE', #76, 1000.000000000000000 ) ;
#9 = VECTOR ( 'NONE', #39, 1000.000000000000000 ) ;
#10 = VERTEX_POINT ( 'NONE', #65 ) ;
#11 = APPLICATION_CONTEXT ( 'automotive_design' ) ;
#12 = LINE ( 'NONE', #429, #143 ) ;
#13 = CARTESIAN_POINT ( 'NONE',  ( 23.00000000000000000, 20.00000000000000000, 18.00000000000000355 ) ) ;
#14 = CARTESIAN_POINT ( 'NONE',  ( 20.00000000000000000, 20.00000000000000000, 30.00000000000000000 ) ) ;
#15 = DIRECTION ( 'NONE',  ( -1.000000000000000000, -0.000000000000000000, -0.000000000000000000 ) ) ;
#16 = CARTESIAN_POINT ( 'NONE',  ( 20.00000000000000000, 20.00000000000000000, 24.00000000000000000 ) ) ;
#17 = ORIENTED_EDGE ( 'NONE', *, *, #378, .T. ) ;
#18 = PRODUCT_DEFINITION_FORMATION_WITH_SPECIFIED_SOURCE ( 'ANY', '', #50, .NOT_KNOWN. ) ;
#19 = DIRECTION ( 'NONE',  ( 0.000000000000000000, -1.000000000000000000, 0.000000000000000000 ) ) ;
#20 = ORIENTED_EDGE ( 'NONE', *, *, #70, .F. ) ;
#21 = CARTESIAN_POINT ( 'NONE',  ( 23.00000000000000000, 0.000000000000000000, 0.000000000000000000 ) ) ;
#22 = DIRECTION ( 'NONE',  ( -0.000000000000000000, -0.000000000000000000, -1.000000000000000000 ) ) ;
#23 = CARTESIAN_POINT ( 'NONE',  ( 23.00000000000000000, 20.00000000000000000, 21.00000000000000000 ) ) ;
#24 = VECTOR ( 'NONE', #184, 1000.000000000000000 ) ;
#25 = VECTOR ( 'NONE', #46, 1000.000000000000000 ) ;
#26 = EDGE_CURVE ( 'NONE', #45, #127, #135, .T. ) ;
#27 = CARTESIAN_POINT ( 'NONE',  ( 20.00000000000000000, 0.000000000000000000, 30.00000000000000000 ) ) ;
#28 = DIRECTION ( 'NONE',  ( 1.000000000000000000, 0.000000000000000000, 0.000000000000000000 ) ) ;
#29 = LINE ( 'NONE', #447, #361 ) ;
#30 = SHAPE_DEFINITION_REPRESENTATION ( #281, #56 ) ;
#31 = PLANE ( 'NONE',  #343 ) ;
#32 = DIRECTION ( 'NONE',  ( 1.000000000000000000, 0.000000000000000000, 0.000000000000000000 ) ) ;
#33 = STYLED_ITEM ( 'NONE', ( #192 ), #69 ) ;
#34 = VECTOR ( 'NONE', #422, 1000.000000000000000 ) ;
#35 = LINE ( 'NONE', #450, #25 ) ;
#36 = DIRECTION ( 'NONE',  ( 0.000000000000000000, 1.000000000000000000, 0.000000000000000000 ) ) ;
#37 = PRODUCT_CONTEXT ( 'NONE', #11, 'mechanical' ) ;
#38 = VERTEX_POINT ( 'NONE', #256 ) ;
#39 = DIRECTION ( 'NONE',  ( -0.000000000000000000, -0.000000000000000000, -1.000000000000000000 ) ) ;
#40 = ORIENTED_EDGE ( 'NONE', *, *, #238, .F. ) ;
#41 = EDGE_CURVE ( 'NONE', #156, #326, #393, .T. ) ;
#42 = VERTEX_POINT ( 'NONE', #395 ) ;
#43 = UNCERTAINTY_MEASURE_WITH_UNIT (LENGTH_MEASURE( 1.000000000000000082E-05 ), #362, 'distance_accuracy_value', 'NONE');
#44 = VECTOR ( 'NONE', #133, 1000.000000000000000 ) ;
#45 = VERTEX_POINT ( 'NONE', #354 ) ;
#46 = DIRECTION ( 'NONE',  ( -1.000000000000000000, -0.000000000000000000, -0.000000000000000000 ) ) ;
#47 = ORIENTED_EDGE ( 'NONE', *, *, #94, .F. ) ;
#48 = ORIENTED_EDGE ( 'NONE', *, *, #385, .T. ) ;
#49 = EDGE_CURVE ( 'NONE', #10, #374, #99, .T. ) ;
#50 = PRODUCT ( 'Qk4a', 'Qk4a', '', ( #37 ) ) ;
#51 = LINE ( 'NONE', #16, #63 ) ;
#52 =( GEOMETRIC_REPRESENTATION_CONTEXT ( 3 ) GLOBAL_UNCERTAINTY_ASSIGNED_CONTEXT ( ( #43 ) ) GLOBAL_UNIT_ASSIGNED_CONTEXT ( ( #362, #296, #101 ) ) REPRESENTATION_CONTEXT ( 'NONE', 'WORKASPACE' ) );
#53 = VECTOR ( 'NONE', #141, 1000.000000000000000 ) ;
#54 = ORIENTED_EDGE ( 'NONE', *, *, #316, .F. ) ;
#55 = DIRECTION ( 'NONE',  ( -0.000000000000000000, -0.000000000000000000, -1.000000000000000000 ) ) ;
#56 = ADVANCED_BREP_SHAPE_REPRESENTATION ( 'Qk4a', ( #69, #445 ), #240 ) ;
#57 = EDGE_CURVE ( 'NONE', #423, #311, #290, .T. ) ;
#58 = DIRECTION ( 'NONE',  ( 0.000000000000000000, 0.000000000000000000, -1.000000000000000000 ) ) ;
#59 = DIRECTION ( 'NONE',  ( 0.000000000000000000, -1.000000000000000000, -1.734723475976807094E-16 ) ) ;
#60 = PRODUCT_DEFINITION ( 'UNKNOWN', '', #18, #81 ) ;
#61 = VERTEX_POINT ( 'NONE', #292 ) ;
#62 = ORIENTED_EDGE ( 'NONE', *, *, #336, .F. ) ;
#63 = VECTOR ( 'NONE', #257, 1000.000000000000000 ) ;
#64 = PLANE ( 'NONE',  #225 ) ;
#65 = CARTESIAN_POINT ( 'NONE',  ( 0.000000000000000000, 0.000000000000000000, 30.00000000000000000 ) ) ;
#66 = PLANE ( 'NONE',  #165 ) ;
#67 = DIRECTION ( 'NONE',  ( -1.000000000000000000, -0.000000000000000000, -0.000000000000000000 ) ) ;
#68 = CARTESIAN_POINT ( 'NONE',  ( 23.00000000000000000, 20.00000000000000000, 18.00000000000000355 ) ) ;
#69 = MANIFOLD_SOLID_BREP ( 'Aufsatz-Linear austragen5', #379 ) ;
#70 = EDGE_CURVE ( 'NONE', #38, #386, #194, .T. ) ;
#71 = LINE ( 'NONE', #338, #417 ) ;
#72 = DIRECTION ( 'NONE',  ( 1.000000000000000000, 0.000000000000000000, 0.000000000000000000 ) ) ;
#73 = DIRECTION ( 'NONE',  ( 0.000000000000000000, 0.000000000000000000, 1.000000000000000000 ) ) ;
#74 = VERTEX_POINT ( 'NONE', #13 ) ;
#75 = CARTESIAN_POINT ( 'NONE',  ( 20.00000000000000000, 0.000000000000000000, 0.000000000000000000 ) ) ;
#76 = DIRECTION ( 'NONE',  ( -0.000000000000000000, 1.000000000000000000, -0.000000000000000000 ) ) ;
#77 = ORIENTED_EDGE ( 'NONE', *, *, #415, .F. ) ;
#78 = AXIS2_PLACEMENT_3D ( 'NONE', #245, #426, #388 ) ;
#79 = DIRECTION ( 'NONE',  ( 0.000000000000000000, 1.000000000000000000, 0.000000000000000000 ) ) ;
#80 = ORIENTED_EDGE ( 'NONE', *, *, #427, .T. ) ;
#81 = PRODUCT_DEFINITION_CONTEXT ( 'detailed design', #107, 'design' ) ;
#82 = ORIENTED_EDGE ( 'NONE', *, *, #420, .F. ) ;
#83 = ORIENTED_EDGE ( 'NONE', *, *, #87, .T. ) ;
#84 = ORIENTED_EDGE ( 'NONE', *, *, #178, .T. ) ;
#85 = CARTESIAN_POINT ( 'NONE',  ( 20.00000000000000000, 0.000000000000000000, 30.00000000000000000 ) ) ;
#86 = EDGE_LOOP ( 'NONE', ( #83, #211, #219, #152 ) ) ;
#87 = EDGE_CURVE ( 'NONE', #148, #42, #443, .T. ) ;
#88 = DIRECTION ( 'NONE',  ( 0.000000000000000000, -1.000000000000000000, -1.734723475976807094E-16 ) ) ;
#89 = ORIENTED_EDGE ( 'NONE', *, *, #145, .F. ) ;
#90 = LINE ( 'NONE', #155, #173 ) ;
#91 = VECTOR ( 'NONE', #365, 1000.000000000000000 ) ;
#92 = VECTOR ( 'NONE', #7, 1000.000000000000000 ) ;
#93 = EDGE_LOOP ( 'NONE', ( #6, #428, #48, #84 ) ) ;
#94 = EDGE_CURVE ( 'NONE', #10, #156, #307, .T. ) ;
#95 = CARTESIAN_POINT ( 'NONE',  ( 20.00000000000000000, 0.000000000000000000, 30.00000000000000000 ) ) ;
#96 = EDGE_LOOP ( 'NONE', ( #80, #269, #244, #278 ) ) ;
#97 = DIRECTION ( 'NONE',  ( 0.000000000000000000, 0.000000000000000000, -1.000000000000000000 ) ) ;
#98 = CARTESIAN_POINT ( 'NONE',  ( 0.000000000000000000, 0.000000000000000000, 30.00000000000000000 ) ) ;
#99 = LINE ( 'NONE', #98, #24 ) ;
#100 = AXIS2_PLACEMENT_3D ( 'NONE', #264, #36, #331 ) ;
#101 =( NAMED_UNIT ( * ) SI_UNIT ( $, .STERADIAN. ) SOLID_ANGLE_UNIT ( ) );
#102 = CARTESIAN_POINT ( 'NONE',  ( 20.00000000000000000, 0.000000000000000000, 24.00000000000000000 ) ) ;
#103 = EDGE_CURVE ( 'NONE', #421, #42, #201, .T. ) ;
#104 = PLANE ( 'NONE',  #433 ) ;
#105 = CARTESIAN_POINT ( 'NONE',  ( 0.000000000000000000, 20.00000000000000000, 0.000000000000000000 ) ) ;
#106 = APPLICATION_PROTOCOL_DEFINITION ( 'draft international standard', 'automotive_design', 1998, #11 ) ;
#107 = APPLICATION_CONTEXT ( 'automotive_design' ) ;
#108 = CARTESIAN_POINT ( 'NONE',  ( 20.00000000000000000, 20.00000000000000000, 24.00000000000000000 ) ) ;
#109 = CARTESIAN_POINT ( 'NONE',  ( 0.000000000000000000, 0.000000000000000000, 0.000000000000000000 ) ) ;
#110 = VECTOR ( 'NONE', #239, 1000.000000000000000 ) ;
#111 = DIRECTION ( 'NONE',  ( 0.000000000000000000, -1.000000000000000000, -1.734723475976806848E-16 ) ) ;
#112 = ORIENTED_EDGE ( 'NONE', *, *, #288, .F. ) ;
#113 = CARTESIAN_POINT ( 'NONE',  ( 23.00000000000000000, 0.000000000000000000, 20.99999999999999645 ) ) ;
#114 = CARTESIAN_POINT ( 'NONE',  ( 23.00000000000000000, 0.000000000000000000, 0.000000000000000000 ) ) ;
#115 = ORIENTED_EDGE ( 'NONE', *, *, #250, .T. ) ;
#116 = VECTOR ( 'NONE', #442, 1000.000000000000000 ) ;
#117 = AXIS2_PLACEMENT_3D ( 'NONE', #222, #19, #293 ) ;
#118 = ORIENTED_EDGE ( 'NONE', *, *, #300, .F. ) ;
#119 = DIRECTION ( 'NONE',  ( 0.000000000000000000, 0.000000000000000000, -1.000000000000000000 ) ) ;
#120 = ORIENTED_EDGE ( 'NONE', *, *, #420, .T. ) ;
#121 = LINE ( 'NONE', #85, #276 ) ;
#122 = ORIENTED_EDGE ( 'NONE', *, *, #336, .T. ) ;
#123 = VECTOR ( 'NONE', #356, 1000.000000000000000 ) ;
#124 = VECTOR ( 'NONE', #216, 1000.000000000000000 ) ;
#125 = ADVANCED_FACE ( 'NONE', ( #304 ), #66, .F. ) ;
#126 = PLANE ( 'NONE',  #78 ) ;
#127 = VERTEX_POINT ( 'NONE', #105 ) ;
#128 = DIRECTION ( 'NONE',  ( -0.000000000000000000, -0.000000000000000000, -1.000000000000000000 ) ) ;
#129 = EDGE_LOOP ( 'NONE', ( #384, #249, #54, #318 ) ) ;
#130 = CARTESIAN_POINT ( 'NONE',  ( 23.00000000000000000, 20.00000000000000000, 24.00000000000000000 ) ) ;
#131 = ORIENTED_EDGE ( 'NONE', *, *, #26, .T. ) ;
#132 = ORIENTED_EDGE ( 'NONE', *, *, #70, .T. ) ;
#133 = DIRECTION ( 'NONE',  ( 0.000000000000000000, -1.000000000000000000, -1.734723475976807094E-16 ) ) ;
#134 = ORIENTED_EDGE ( 'NONE', *, *, #136, .F. ) ;
#135 = LINE ( 'NONE', #398, #360 ) ;
#136 = EDGE_CURVE ( 'NONE', #61, #345, #71, .T. ) ;
#137 = DIRECTION ( 'NONE',  ( 0.000000000000000000, 0.000000000000000000, -1.000000000000000000 ) ) ;
#138 = LINE ( 'NONE', #439, #53 ) ;
#139 = LINE ( 'NONE', #175, #1 ) ;
#140 = ADVANCED_FACE ( 'NONE', ( #144 ), #298, .F. ) ;
#141 = DIRECTION ( 'NONE',  ( -1.000000000000000000, -0.000000000000000000, -0.000000000000000000 ) ) ;
#142 = LINE ( 'NONE', #410, #196 ) ;
#143 = VECTOR ( 'NONE', #59, 1000.000000000000000 ) ;
#144 = FACE_OUTER_BOUND ( 'NONE', #223, .T. ) ;
#145 = EDGE_CURVE ( 'NONE', #381, #177, #138, .T. ) ;
#146 = ORIENTED_EDGE ( 'NONE', *, *, #242, .F. ) ;
#147 = CARTESIAN_POINT ( 'NONE',  ( 0.000000000000000000, 0.000000000000000000, 0.000000000000000000 ) ) ;
#148 = VERTEX_POINT ( 'NONE', #235 ) ;
#149 = ADVANCED_FACE ( 'NONE', ( #266 ), #203, .F. ) ;
#150 = LINE ( 'NONE', #279, #34 ) ;
#151 = ORIENTED_EDGE ( 'NONE', *, *, #167, .F. ) ;
#152 = ORIENTED_EDGE ( 'NONE', *, *, #246, .T. ) ;
#153 = COLOUR_RGB ( '',0.7921568627450980005, 0.8196078431372548767, 0.9333333333333333481 ) ;
#154 = VECTOR ( 'NONE', #230, 1000.000000000000000 ) ;
#155 = CARTESIAN_POINT ( 'NONE',  ( 20.00000000000000000, 20.00000000000000000, 30.00000000000000000 ) ) ;
#156 = VERTEX_POINT ( 'NONE', #372 ) ;
#157 = CARTESIAN_POINT ( 'NONE',  ( 23.00000000000000000, 0.000000000000000000, 18.00000000000000355 ) ) ;
#158 = ADVANCED_FACE ( 'NONE', ( #342 ), #31, .T. ) ;
#159 = SURFACE_STYLE_FILL_AREA ( #258 ) ;
#160 = PLANE ( 'NONE',  #380 ) ;
#161 = ORIENTED_EDGE ( 'NONE', *, *, #427, .F. ) ;
#162 = LINE ( 'NONE', #352, #92 ) ;
#163 = LINE ( 'NONE', #221, #124 ) ;
#164 = LINE ( 'NONE', #408, #154 ) ;
#165 = AXIS2_PLACEMENT_3D ( 'NONE', #27, #375, #73 ) ;
#166 = CARTESIAN_POINT ( 'NONE',  ( 23.00000000000000000, 20.00000000000000000, 24.00000000000000000 ) ) ;
#167 = EDGE_CURVE ( 'NONE', #311, #38, #367, .T. ) ;
#168 = CARTESIAN_POINT ( 'NONE',  ( 20.00000000000000000, 0.000000000000000000, 26.99999999999999645 ) ) ;
#169 = PLANE ( 'NONE',  #400 ) ;
#170 = CARTESIAN_POINT ( 'NONE',  ( 20.00000000000000000, 0.000000000000000000, 30.00000000000000000 ) ) ;
#171 = CARTESIAN_POINT ( 'NONE',  ( 20.00000000000000000, 20.00000000000000000, 18.00000000000000355 ) ) ;
#172 = PRESENTATION_LAYER_ASSIGNMENT (  '', '', ( #33 ) ) ;
#173 = VECTOR ( 'NONE', #128, 1000.000000000000000 ) ;
#174 = DIRECTION ( 'NONE',  ( 0.000000000000000000, 0.000000000000000000, -1.000000000000000000 ) ) ;
#175 = CARTESIAN_POINT ( 'NONE',  ( 23.00000000000000000, 0.000000000000000000, 23.99999999999999645 ) ) ;
#176 = DIRECTION ( 'NONE',  ( 1.000000000000000000, 0.000000000000000000, 0.000000000000000000 ) ) ;
#177 = VERTEX_POINT ( 'NONE', #108 ) ;
#178 = EDGE_CURVE ( 'NONE', #74, #209, #232, .T. ) ;
#179 = EDGE_LOOP ( 'NONE', ( #17, #407, #346, #120 ) ) ;
#180 = VERTEX_POINT ( 'NONE', #335 ) ;
#181 = ORIENTED_EDGE ( 'NONE', *, *, #214, .F. ) ;
#182 = ORIENTED_EDGE ( 'NONE', *, *, #57, .F. ) ;
#183 = PLANE ( 'NONE',  #261 ) ;
#184 = DIRECTION ( 'NONE',  ( -0.000000000000000000, -0.000000000000000000, -1.000000000000000000 ) ) ;
#185 = CARTESIAN_POINT ( 'NONE',  ( 0.000000000000000000, 0.000000000000000000, 0.000000000000000000 ) ) ;
#186 = SURFACE_SIDE_STYLE ('',( #159 ) ) ;
#187 = DIRECTION ( 'NONE',  ( -1.000000000000000000, -0.000000000000000000, -0.000000000000000000 ) ) ;
#188 = ORIENTED_EDGE ( 'NONE', *, *, #242, .T. ) ;
#189 = DIRECTION ( 'NONE',  ( -1.000000000000000000, 0.000000000000000000, -0.000000000000000000 ) ) ;
#190 = VECTOR ( 'NONE', #366, 1000.000000000000000 ) ;
#191 = ORIENTED_EDGE ( 'NONE', *, *, #178, .F. ) ;
#192 = PRESENTATION_STYLE_ASSIGNMENT (( #226 ) ) ;
#193 = EDGE_CURVE ( 'NONE', #74, #386, #29, .T. ) ;
#194 = LINE ( 'NONE', #171, #8 ) ;
#195 = DIRECTION ( 'NONE',  ( 0.000000000000000000, -1.000000000000000000, -1.734723475976807094E-16 ) ) ;
#196 = VECTOR ( 'NONE', #197, 1000.000000000000000 ) ;
#197 = DIRECTION ( 'NONE',  ( -0.000000000000000000, -1.000000000000000000, -0.000000000000000000 ) ) ;
#198 = CARTESIAN_POINT ( 'NONE',  ( 0.000000000000000000, 0.000000000000000000, 30.00000000000000000 ) ) ;
#199 = DIRECTION ( 'NONE',  ( -0.000000000000000000, -0.000000000000000000, 1.000000000000000000 ) ) ;
#200 = DIRECTION ( 'NONE',  ( 0.000000000000000000, 0.000000000000000000, -1.000000000000000000 ) ) ;
#201 = LINE ( 'NONE', #409, #91 ) ;
#202 = EDGE_LOOP ( 'NONE', ( #20, #347, #348, #207 ) ) ;
#203 = PLANE ( 'NONE',  #100 ) ;
#204 =( NAMED_UNIT ( * ) SI_UNIT ( $, .STERADIAN. ) SOLID_ANGLE_UNIT ( ) );
#205 = VECTOR ( 'NONE', #67, 1000.000000000000000 ) ;
#206 = ADVANCED_FACE ( 'NONE', ( #237 ), #169, .F. ) ;
#207 = ORIENTED_EDGE ( 'NONE', *, *, #359, .F. ) ;
#208 = ADVANCED_FACE ( 'NONE', ( #227 ), #104, .F. ) ;
#209 = VERTEX_POINT ( 'NONE', #364 ) ;
#210 = CARTESIAN_POINT ( 'NONE',  ( 23.00000000000000000, 20.00000000000000000, 27.00000000000000000 ) ) ;
#211 = ORIENTED_EDGE ( 'NONE', *, *, #383, .F. ) ;
#212 = LINE ( 'NONE', #390, #319 ) ;
#213 = ORIENTED_EDGE ( 'NONE', *, *, #94, .T. ) ;
#214 = EDGE_CURVE ( 'NONE', #315, #381, #164, .T. ) ;
#215 = DIRECTION ( 'NONE',  ( -1.000000000000000000, 0.000000000000000000, 0.000000000000000000 ) ) ;
#216 = DIRECTION ( 'NONE',  ( -1.000000000000000000, -0.000000000000000000, -0.000000000000000000 ) ) ;
#217 = AXIS2_PLACEMENT_3D ( 'NONE', #166, #401, #111 ) ;
#218 = CARTESIAN_POINT ( 'NONE',  ( 20.00000000000000000, 20.00000000000000000, 26.99999999999999645 ) ) ;
#219 = ORIENTED_EDGE ( 'NONE', *, *, #303, .F. ) ;
#220 = PLANE ( 'NONE',  #117 ) ;
#221 = CARTESIAN_POINT ( 'NONE',  ( 23.00000000000000000, 0.000000000000000000, 26.99999999999999645 ) ) ;
#222 = CARTESIAN_POINT ( 'NONE',  ( 0.000000000000000000, 20.00000000000000000, 30.00000000000000000 ) ) ;
#223 = EDGE_LOOP ( 'NONE', ( #309, #89, #181, #430 ) ) ;
#224 = VECTOR ( 'NONE', #58, 1000.000000000000000 ) ;
#225 = AXIS2_PLACEMENT_3D ( 'NONE', #198, #28, #200 ) ;
#226 = SURFACE_STYLE_USAGE ( .BOTH. , #186 ) ;
#227 = FACE_OUTER_BOUND ( 'NONE', #86, .T. ) ;
#228 = CARTESIAN_POINT ( 'NONE',  ( 20.00000000000000000, 20.00000000000000000, 21.00000000000000000 ) ) ;
#229 = LINE ( 'NONE', #233, #190 ) ;
#230 = DIRECTION ( 'NONE',  ( -0.000000000000000000, 1.000000000000000000, 1.734723475976807094E-16 ) ) ;
#231 = DIRECTION ( 'NONE',  ( -1.000000000000000000, -0.000000000000000000, -0.000000000000000000 ) ) ;
#232 = LINE ( 'NONE', #369, #424 ) ;
#233 = CARTESIAN_POINT ( 'NONE',  ( 0.000000000000000000, 20.00000000000000000, 30.00000000000000000 ) ) ;
#234 = ADVANCED_FACE ( 'NONE', ( #263 ), #64, .F. ) ;
#235 = CARTESIAN_POINT ( 'NONE',  ( 20.00000000000000000, 20.00000000000000000, 21.00000000000000000 ) ) ;
#236 = ORIENTED_EDGE ( 'NONE', *, *, #49, .T. ) ;
#237 = FACE_OUTER_BOUND ( 'NONE', #271, .T. ) ;
#238 = EDGE_CURVE ( 'NONE', #382, #45, #446, .T. ) ;
#239 = DIRECTION ( 'NONE',  ( -0.000000000000000000, -0.000000000000000000, 1.000000000000000000 ) ) ;
#240 =( GEOMETRIC_REPRESENTATION_CONTEXT ( 3 ) GLOBAL_UNCERTAINTY_ASSIGNED_CONTEXT ( ( #312 ) ) GLOBAL_UNIT_ASSIGNED_CONTEXT ( ( #448, #441, #204 ) ) REPRESENTATION_CONTEXT ( 'NONE', 'WORKASPACE' ) );
#241 = ORIENTED_EDGE ( 'NONE', *, *, #246, .F. ) ;
#242 = EDGE_CURVE ( 'NONE', #374, #382, #310, .T. ) ;
#243 = FACE_OUTER_BOUND ( 'NONE', #314, .T. ) ;
#244 = ORIENTED_EDGE ( 'NONE', *, *, #403, .F. ) ;
#245 = CARTESIAN_POINT ( 'NONE',  ( 20.00000000000000000, 0.000000000000000000, 30.00000000000000000 ) ) ;
#246 = EDGE_CURVE ( 'NONE', #209, #148, #35, .T. ) ;
#247 = ORIENTED_EDGE ( 'NONE', *, *, #378, .F. ) ;
#248 = FACE_OUTER_BOUND ( 'NONE', #129, .T. ) ;
#249 = ORIENTED_EDGE ( 'NONE', *, *, #250, .F. ) ;
#250 = EDGE_CURVE ( 'NONE', #177, #148, #272, .T. ) ;
#251 = FACE_OUTER_BOUND ( 'NONE', #5, .T. ) ;
#252 = ORIENTED_EDGE ( 'NONE', *, *, #383, .T. ) ;
#253 = ADVANCED_FACE ( 'NONE', ( #277 ), #414, .T. ) ;
#254 = VECTOR ( 'NONE', #187, 1000.000000000000000 ) ;
#255 = CARTESIAN_POINT ( 'NONE',  ( 23.00000000000000000, 0.000000000000000000, 23.99999999999999645 ) ) ;
#256 = CARTESIAN_POINT ( 'NONE',  ( 20.00000000000000000, 0.000000000000000000, 18.00000000000000355 ) ) ;
#257 = DIRECTION ( 'NONE',  ( -0.000000000000000000, 1.000000000000000000, 1.734723475976807094E-16 ) ) ;
#258 = FILL_AREA_STYLE ('',( #435 ) ) ;
#259 = EDGE_LOOP ( 'NONE', ( #188, #77, #151, #182, #252, #377, #2, #118, #358, #419, #47, #236 ) ) ;
#260 = VECTOR ( 'NONE', #195, 1000.000000000000000 ) ;
#261 = AXIS2_PLACEMENT_3D ( 'NONE', #396, #97, #189 ) ;
#262 = CARTESIAN_POINT ( 'NONE',  ( 0.000000000000000000, 0.000000000000000000, 30.00000000000000000 ) ) ;
#263 = FACE_OUTER_BOUND ( 'NONE', #96, .T. ) ;
#264 = CARTESIAN_POINT ( 'NONE',  ( 0.000000000000000000, 0.000000000000000000, 30.00000000000000000 ) ) ;
#265 = DIRECTION ( 'NONE',  ( -0.000000000000000000, -1.000000000000000000, -0.000000000000000000 ) ) ;
#266 = FACE_OUTER_BOUND ( 'NONE', #259, .T. ) ;
#267 = VECTOR ( 'NONE', #88, 1000.000000000000000 ) ;
#268 = CARTESIAN_POINT ( 'NONE',  ( 20.00000000000000000, 20.00000000000000000, 18.00000000000000355 ) ) ;
#269 = ORIENTED_EDGE ( 'NONE', *, *, #49, .F. ) ;
#270 = DIRECTION ( 'NONE',  ( -1.000000000000000000, 0.000000000000000000, -0.000000000000000000 ) ) ;
#271 = EDGE_LOOP ( 'NONE', ( #273, #213, #294, #282 ) ) ;
#272 = LINE ( 'NONE', #313, #9 ) ;
#273 = ORIENTED_EDGE ( 'NONE', *, *, #403, .T. ) ;
#274 = DIRECTION ( 'NONE',  ( 0.000000000000000000, 1.734723475976806848E-16, -1.000000000000000000 ) ) ;
#275 = ORIENTED_EDGE ( 'NONE', *, *, #359, .T. ) ;
#276 = VECTOR ( 'NONE', #357, 1000.000000000000000 ) ;
#277 = FACE_OUTER_BOUND ( 'NONE', #179, .T. ) ;
#278 = ORIENTED_EDGE ( 'NONE', *, *, #436, .T. ) ;
#279 = CARTESIAN_POINT ( 'NONE',  ( 0.000000000000000000, 20.00000000000000000, 30.00000000000000000 ) ) ;
#280 = EDGE_LOOP ( 'NONE', ( #132, #353, #285, #411 ) ) ;
#281 = PRODUCT_DEFINITION_SHAPE ( 'NONE', 'NONE',  #60 ) ;
#282 = ORIENTED_EDGE ( 'NONE', *, *, #288, .T. ) ;
#283 = MECHANICAL_DESIGN_GEOMETRIC_PRESENTATION_REPRESENTATION (  '', ( #33 ), #52 ) ;
#284 = ADVANCED_FACE ( 'NONE', ( #243 ), #308, .F. ) ;
#285 = ORIENTED_EDGE ( 'NONE', *, *, #385, .F. ) ;
#286 = CARTESIAN_POINT ( 'NONE',  ( 20.00000000000000000, 20.00000000000000000, 27.00000000000000000 ) ) ;
#287 = ORIENTED_EDGE ( 'NONE', *, *, #436, .F. ) ;
#288 = EDGE_CURVE ( 'NONE', #326, #180, #150, .T. ) ;
#289 = CARTESIAN_POINT ( 'NONE',  ( 23.00000000000000000, 0.000000000000000000, 20.99999999999999645 ) ) ;
#290 = LINE ( 'NONE', #322, #224 ) ;
#291 = CARTESIAN_POINT ( 'NONE',  ( 23.00000000000000000, 20.00000000000000000, 21.00000000000000000 ) ) ;
#292 = CARTESIAN_POINT ( 'NONE',  ( 23.00000000000000000, 20.00000000000000000, 27.00000000000000000 ) ) ;
#293 = DIRECTION ( 'NONE',  ( 0.000000000000000000, -0.000000000000000000, -1.000000000000000000 ) ) ;
#294 = ORIENTED_EDGE ( 'NONE', *, *, #41, .T. ) ;
#295 = EDGE_CURVE ( 'NONE', #156, #425, #121, .T. ) ;
#296 =( NAMED_UNIT ( * ) PLANE_ANGLE_UNIT ( ) SI_UNIT ( $, .RADIAN. ) );
#297 = AXIS2_PLACEMENT_3D ( 'NONE', #114, #176, #119 ) ;
#298 = PLANE ( 'NONE',  #217 ) ;
#299 = DIRECTION ( 'NONE',  ( -0.000000000000000000, 0.000000000000000000, 1.000000000000000000 ) ) ;
#300 = EDGE_CURVE ( 'NONE', #416, #315, #162, .T. ) ;
#301 = CARTESIAN_POINT ( 'NONE',  ( 0.000000000000000000, 0.000000000000000000, 30.00000000000000000 ) ) ;
#302 = CARTESIAN_POINT ( 'NONE',  ( 0.000000000000000000, 0.000000000000000000, 30.00000000000000000 ) ) ;
#303 = EDGE_CURVE ( 'NONE', #209, #423, #431, .T. ) ;
#304 = FACE_OUTER_BOUND ( 'NONE', #202, .T. ) ;
#305 = VECTOR ( 'NONE', #373, 1000.000000000000000 ) ;
#306 = ORIENTED_EDGE ( 'NONE', *, *, #349, .F. ) ;
#307 = LINE ( 'NONE', #262, #116 ) ;
#308 = PLANE ( 'NONE',  #418 ) ;
#309 = ORIENTED_EDGE ( 'NONE', *, *, #316, .T. ) ;
#310 = LINE ( 'NONE', #147, #438 ) ;
#311 = VERTEX_POINT ( 'NONE', #157 ) ;
#312 = UNCERTAINTY_MEASURE_WITH_UNIT (LENGTH_MEASURE( 1.000000000000000082E-05 ), #448, 'distance_accuracy_value', 'NONE');
#313 = CARTESIAN_POINT ( 'NONE',  ( 20.00000000000000000, 20.00000000000000000, 30.00000000000000000 ) ) ;
#314 = EDGE_LOOP ( 'NONE', ( #340, #324, #247, #389 ) ) ;
#315 = VERTEX_POINT ( 'NONE', #255 ) ;
#316 = EDGE_CURVE ( 'NONE', #421, #177, #51, .T. ) ;
#317 = FACE_OUTER_BOUND ( 'NONE', #351, .T. ) ;
#318 = ORIENTED_EDGE ( 'NONE', *, *, #103, .T. ) ;
#319 = VECTOR ( 'NONE', #55, 1000.000000000000000 ) ;
#320 = FACE_OUTER_BOUND ( 'NONE', #328, .T. ) ;
#321 = ADVANCED_FACE ( 'NONE', ( #317 ), #183, .T. ) ;
#322 = CARTESIAN_POINT ( 'NONE',  ( 23.00000000000000000, 0.000000000000000000, 20.99999999999999645 ) ) ;
#323 = LINE ( 'NONE', #289, #254 ) ;
#324 = ORIENTED_EDGE ( 'NONE', *, *, #3, .F. ) ;
#325 = LINE ( 'NONE', #68, #305 ) ;
#326 = VERTEX_POINT ( 'NONE', #14 ) ;
#327 = VECTOR ( 'NONE', #79, 1000.000000000000000 ) ;
#328 = EDGE_LOOP ( 'NONE', ( #306, #62, #437, #449 ) ) ;
#329 = ADVANCED_FACE ( 'NONE', ( #251 ), #220, .F. ) ;
#330 = ADVANCED_FACE ( 'NONE', ( #320 ), #126, .F. ) ;
#331 = DIRECTION ( 'NONE',  ( 0.000000000000000000, -0.000000000000000000, 1.000000000000000000 ) ) ;
#332 = CARTESIAN_POINT ( 'NONE',  ( 23.00000000000000000, 20.00000000000000000, 18.00000000000000355 ) ) ;
#333 = VECTOR ( 'NONE', #265, 1000.000000000000000 ) ;
#334 = DIRECTION ( 'NONE',  ( -1.000000000000000000, -0.000000000000000000, -0.000000000000000000 ) ) ;
#335 = CARTESIAN_POINT ( 'NONE',  ( 0.000000000000000000, 20.00000000000000000, 30.00000000000000000 ) ) ;
#336 = EDGE_CURVE ( 'NONE', #326, #345, #212, .T. ) ;
#337 = APPLICATION_PROTOCOL_DEFINITION ( 'draft international standard', 'automotive_design', 1998, #107 ) ;
#338 = CARTESIAN_POINT ( 'NONE',  ( 23.00000000000000000, 20.00000000000000000, 27.00000000000000000 ) ) ;
#339 = PLANE ( 'NONE',  #394 ) ;
#340 = ORIENTED_EDGE ( 'NONE', *, *, #349, .T. ) ;
#341 = DIRECTION ( 'NONE',  ( 1.000000000000000000, 0.000000000000000000, 0.000000000000000000 ) ) ;
#342 = FACE_OUTER_BOUND ( 'NONE', #93, .T. ) ;
#343 = AXIS2_PLACEMENT_3D ( 'NONE', #21, #406, #137 ) ;
#344 = CARTESIAN_POINT ( 'NONE',  ( 23.00000000000000000, 0.000000000000000000, 26.99999999999999645 ) ) ;
#345 = VERTEX_POINT ( 'NONE', #218 ) ;
#346 = ORIENTED_EDGE ( 'NONE', *, *, #214, .T. ) ;
#347 = ORIENTED_EDGE ( 'NONE', *, *, #415, .T. ) ;
#348 = ORIENTED_EDGE ( 'NONE', *, *, #238, .T. ) ;
#349 = EDGE_CURVE ( 'NONE', #345, #425, #350, .T. ) ;
#350 = LINE ( 'NONE', #286, #267 ) ;
#351 = EDGE_LOOP ( 'NONE', ( #161, #451, #40, #146 ) ) ;
#352 = CARTESIAN_POINT ( 'NONE',  ( 23.00000000000000000, 0.000000000000000000, 26.99999999999999645 ) ) ;
#353 = ORIENTED_EDGE ( 'NONE', *, *, #193, .F. ) ;
#354 = CARTESIAN_POINT ( 'NONE',  ( 20.00000000000000000, 20.00000000000000000, 0.000000000000000000 ) ) ;
#355 = DIRECTION ( 'NONE',  ( 0.000000000000000000, 0.000000000000000000, 1.000000000000000000 ) ) ;
#356 = DIRECTION ( 'NONE',  ( 0.000000000000000000, 1.000000000000000000, 0.000000000000000000 ) ) ;
#357 = DIRECTION ( 'NONE',  ( -0.000000000000000000, -0.000000000000000000, -1.000000000000000000 ) ) ;
#358 = ORIENTED_EDGE ( 'NONE', *, *, #3, .T. ) ;
#359 = EDGE_CURVE ( 'NONE', #386, #45, #90, .T. ) ;
#360 = VECTOR ( 'NONE', #15, 1000.000000000000000 ) ;
#361 = VECTOR ( 'NONE', #412, 1000.000000000000000 ) ;
#362 =( LENGTH_UNIT ( ) NAMED_UNIT ( * ) SI_UNIT ( .MILLI., .METRE. ) );
#363 = ADVANCED_FACE ( 'NONE', ( #248 ), #160, .F. ) ;
#364 = CARTESIAN_POINT ( 'NONE',  ( 23.00000000000000000, 20.00000000000000000, 21.00000000000000000 ) ) ;
#365 = DIRECTION ( 'NONE',  ( -0.000000000000000000, -0.000000000000000000, -1.000000000000000000 ) ) ;
#366 = DIRECTION ( 'NONE',  ( -0.000000000000000000, -0.000000000000000000, -1.000000000000000000 ) ) ;
#367 = LINE ( 'NONE', #404, #205 ) ;
#368 = LINE ( 'NONE', #402, #110 ) ;
#369 = CARTESIAN_POINT ( 'NONE',  ( 23.00000000000000000, 20.00000000000000000, 21.00000000000000000 ) ) ;
#370 = DIRECTION ( 'NONE',  ( 0.000000000000000000, 0.000000000000000000, 1.000000000000000000 ) ) ;
#371 = DIRECTION ( 'NONE',  ( 0.000000000000000000, 1.000000000000000000, 1.734723475976806848E-16 ) ) ;
#372 = CARTESIAN_POINT ( 'NONE',  ( 20.00000000000000000, 0.000000000000000000, 30.00000000000000000 ) ) ;
#373 = DIRECTION ( 'NONE',  ( -0.000000000000000000, 1.000000000000000000, -0.000000000000000000 ) ) ;
#374 = VERTEX_POINT ( 'NONE', #185 ) ;
#375 = DIRECTION ( 'NONE',  ( -1.000000000000000000, 0.000000000000000000, 0.000000000000000000 ) ) ;
#376 = LINE ( 'NONE', #302, #333 ) ;
#377 = ORIENTED_EDGE ( 'NONE', *, *, #103, .F. ) ;
#378 = EDGE_CURVE ( 'NONE', #61, #416, #12, .T. ) ;
#379 = CLOSED_SHELL ( 'NONE', ( #363, #125, #330, #234, #149, #329, #206, #321, #284, #140, #253, #208, #405, #158 ) ) ;
#380 = AXIS2_PLACEMENT_3D ( 'NONE', #95, #215, #355 ) ;
#381 = VERTEX_POINT ( 'NONE', #130 ) ;
#382 = VERTEX_POINT ( 'NONE', #392 ) ;
#383 = EDGE_CURVE ( 'NONE', #423, #42, #323, .T. ) ;
#384 = ORIENTED_EDGE ( 'NONE', *, *, #87, .F. ) ;
#385 = EDGE_CURVE ( 'NONE', #311, #74, #325, .T. ) ;
#386 = VERTEX_POINT ( 'NONE', #268 ) ;
#387 = VECTOR ( 'NONE', #22, 1000.000000000000000 ) ;
#388 = DIRECTION ( 'NONE',  ( 0.000000000000000000, 0.000000000000000000, 1.000000000000000000 ) ) ;
#389 = ORIENTED_EDGE ( 'NONE', *, *, #136, .T. ) ;
#390 = CARTESIAN_POINT ( 'NONE',  ( 20.00000000000000000, 20.00000000000000000, 30.00000000000000000 ) ) ;
#391 = ORIENTED_EDGE ( 'NONE', *, *, #193, .T. ) ;
#392 = CARTESIAN_POINT ( 'NONE',  ( 20.00000000000000000, 0.000000000000000000, 0.000000000000000000 ) ) ;
#393 = LINE ( 'NONE', #432, #123 ) ;
#394 = AXIS2_PLACEMENT_3D ( 'NONE', #332, #299, #32 ) ;
#395 = CARTESIAN_POINT ( 'NONE',  ( 20.00000000000000000, 0.000000000000000000, 20.99999999999999645 ) ) ;
#396 = CARTESIAN_POINT ( 'NONE',  ( 0.000000000000000000, 0.000000000000000000, 0.000000000000000000 ) ) ;
#397 = DIRECTION ( 'NONE',  ( 0.000000000000000000, 1.734723475976806848E-16, -1.000000000000000000 ) ) ;
#398 = CARTESIAN_POINT ( 'NONE',  ( 0.000000000000000000, 20.00000000000000000, 0.000000000000000000 ) ) ;
#399 = ORIENTED_EDGE ( 'NONE', *, *, #145, .T. ) ;
#400 = AXIS2_PLACEMENT_3D ( 'NONE', #301, #174, #270 ) ;
#401 = DIRECTION ( 'NONE',  ( 0.000000000000000000, -1.734723475976806848E-16, 1.000000000000000000 ) ) ;
#402 = CARTESIAN_POINT ( 'NONE',  ( 23.00000000000000000, 20.00000000000000000, 27.00000000000000000 ) ) ;
#403 = EDGE_CURVE ( 'NONE', #180, #10, #376, .T. ) ;
#404 = CARTESIAN_POINT ( 'NONE',  ( 23.00000000000000000, 0.000000000000000000, 18.00000000000000355 ) ) ;
#405 = ADVANCED_FACE ( 'NONE', ( #444 ), #339, .F. ) ;
#406 = DIRECTION ( 'NONE',  ( 1.000000000000000000, 0.000000000000000000, 0.000000000000000000 ) ) ;
#407 = ORIENTED_EDGE ( 'NONE', *, *, #300, .T. ) ;
#408 = CARTESIAN_POINT ( 'NONE',  ( 23.00000000000000000, 20.00000000000000000, 24.00000000000000000 ) ) ;
#409 = CARTESIAN_POINT ( 'NONE',  ( 20.00000000000000000, 0.000000000000000000, 30.00000000000000000 ) ) ;
#410 = CARTESIAN_POINT ( 'NONE',  ( 0.000000000000000000, 0.000000000000000000, 0.000000000000000000 ) ) ;
#411 = ORIENTED_EDGE ( 'NONE', *, *, #167, .T. ) ;
#412 = DIRECTION ( 'NONE',  ( -1.000000000000000000, -0.000000000000000000, -0.000000000000000000 ) ) ;
#413 = LINE ( 'NONE', #170, #387 ) ;
#414 = PLANE ( 'NONE',  #297 ) ;
#415 = EDGE_CURVE ( 'NONE', #38, #382, #413, .T. ) ;
#416 = VERTEX_POINT ( 'NONE', #344 ) ;
#417 = VECTOR ( 'NONE', #231, 1000.000000000000000 ) ;
#418 = AXIS2_PLACEMENT_3D ( 'NONE', #210, #274, #4 ) ;
#419 = ORIENTED_EDGE ( 'NONE', *, *, #295, .F. ) ;
#420 = EDGE_CURVE ( 'NONE', #381, #61, #368, .T. ) ;
#421 = VERTEX_POINT ( 'NONE', #102 ) ;
#422 = DIRECTION ( 'NONE',  ( -1.000000000000000000, -0.000000000000000000, -0.000000000000000000 ) ) ;
#423 = VERTEX_POINT ( 'NONE', #113 ) ;
#424 = VECTOR ( 'NONE', #199, 1000.000000000000000 ) ;
#425 = VERTEX_POINT ( 'NONE', #168 ) ;
#426 = DIRECTION ( 'NONE',  ( -1.000000000000000000, 0.000000000000000000, 0.000000000000000000 ) ) ;
#427 = EDGE_CURVE ( 'NONE', #127, #374, #142, .T. ) ;
#428 = ORIENTED_EDGE ( 'NONE', *, *, #57, .T. ) ;
#429 = CARTESIAN_POINT ( 'NONE',  ( 23.00000000000000000, 20.00000000000000000, 27.00000000000000000 ) ) ;
#430 = ORIENTED_EDGE ( 'NONE', *, *, #434, .T. ) ;
#431 = LINE ( 'NONE', #291, #44 ) ;
#432 = CARTESIAN_POINT ( 'NONE',  ( 20.00000000000000000, 0.000000000000000000, 30.00000000000000000 ) ) ;
#433 = AXIS2_PLACEMENT_3D ( 'NONE', #23, #397, #371 ) ;
#434 = EDGE_CURVE ( 'NONE', #315, #421, #139, .T. ) ;
#435 = FILL_AREA_STYLE_COLOUR ( '', #153 ) ;
#436 = EDGE_CURVE ( 'NONE', #180, #127, #229, .T. ) ;
#437 = ORIENTED_EDGE ( 'NONE', *, *, #41, .F. ) ;
#438 = VECTOR ( 'NONE', #341, 1000.000000000000000 ) ;
#439 = CARTESIAN_POINT ( 'NONE',  ( 23.00000000000000000, 20.00000000000000000, 24.00000000000000000 ) ) ;
#440 = PRODUCT_RELATED_PRODUCT_CATEGORY ( 'part', '', ( #50 ) ) ;
#441 =( NAMED_UNIT ( * ) PLANE_ANGLE_UNIT ( ) SI_UNIT ( $, .RADIAN. ) );
#442 = DIRECTION ( 'NONE',  ( 1.000000000000000000, 0.000000000000000000, 0.000000000000000000 ) ) ;
#443 = LINE ( 'NONE', #228, #260 ) ;
#444 = FACE_OUTER_BOUND ( 'NONE', #280, .T. ) ;
#445 = AXIS2_PLACEMENT_3D ( 'NONE', #109, #370, #72 ) ;
#446 = LINE ( 'NONE', #75, #327 ) ;
#447 = CARTESIAN_POINT ( 'NONE',  ( 23.00000000000000000, 20.00000000000000000, 18.00000000000000355 ) ) ;
#448 =( LENGTH_UNIT ( ) NAMED_UNIT ( * ) SI_UNIT ( .MILLI., .METRE. ) );
#449 = ORIENTED_EDGE ( 'NONE', *, *, #295, .T. ) ;
#450 = CARTESIAN_POINT ( 'NONE',  ( 23.00000000000000000, 20.00000000000000000, 21.00000000000000000 ) ) ;
#451 = ORIENTED_EDGE ( 'NONE', *, *, #26, .F. ) ;
ENDSEC;
END-ISO-10303-21;
