# Blender 4.4.0
# www.blender.org
mtllib Ql1i.mtl
o Ql1i
v 0.000000 0.000000 80.000000
v 0.000000 5.000000 80.000000
v 0.000000 5.000000 40.000000
v 0.000000 15.000000 80.000000
v 0.000000 20.000000 80.000000
v 0.000000 15.000000 40.000000
v 0.000000 20.000000 0.000000
v 0.000000 0.000000 0.000000
v 20.000000 0.000000 80.000000
v 15.000000 0.000000 80.000000
v 15.000000 0.000000 40.000000
v 5.000000 0.000000 80.000000
v 5.000000 0.000000 40.000000
v 20.000000 0.000000 0.000000
v 20.000000 20.000000 80.000000
v 20.000000 15.000000 80.000000
v 20.000000 15.000000 40.000000
v 20.000000 5.000000 80.000000
v 20.000000 5.000000 40.000000
v 20.000000 20.000000 0.000000
v 5.000000 20.000000 80.000000
v 5.000000 20.000000 40.000000
v 15.000000 20.000000 80.000000
v 15.000000 20.000000 40.000000
v 18.086582 14.619398 80.000000
v 5.380602 18.086582 80.000000
v 1.913417 5.380602 80.000000
v 18.086582 5.380602 80.000000
v 14.619398 1.913417 80.000000
v 15.380602 11.913417 80.000000
v 10.000000 15.000000 80.000000
v 15.000000 10.000000 80.000000
v 10.000000 5.000000 80.000000
v 11.913417 4.619398 80.000000
v 13.535534 3.535534 80.000000
v 16.464466 6.464466 80.000000
v 15.380602 8.086582 80.000000
v 14.619398 18.086582 80.000000
v 16.464466 13.535534 80.000000
v 13.535534 16.464466 80.000000
v 11.913417 15.380602 80.000000
v 0.000000 15.000000 80.000000
v 1.913417 14.619398 80.000000
v 6.464466 16.464466 80.000000
v 3.535534 13.535534 80.000000
v 8.086582 15.380602 80.000000
v 4.619398 11.913417 80.000000
v 8.086582 4.619398 80.000000
v 5.000000 10.000000 80.000000
v 4.619398 8.086582 80.000000
v 6.464466 3.535534 80.000000
v 3.535534 6.464466 80.000000
v 5.380602 1.913417 80.000000
v 5.000000 0.000000 80.000000
v 11.913417 15.380602 40.000000
v 13.535534 16.464466 40.000000
v 14.619398 18.086582 40.000000
v 5.380602 18.086582 40.000000
v 6.464466 16.464466 40.000000
v 8.086582 15.380602 40.000000
v 10.000000 15.000000 40.000000
v 1.913417 14.619398 40.000000
v 0.000000 15.000000 40.000000
v -0.000000 5.000000 40.000000
v 5.000000 10.000000 40.000000
v 4.619398 11.913417 40.000000
v 4.619398 8.086582 40.000000
v 3.535534 13.535534 40.000000
v 3.535534 6.464466 40.000000
v 1.913417 5.380602 40.000000
v -0.000000 5.000000 80.000000
v 18.086582 14.619398 40.000000
v 16.464466 6.464466 40.000000
v 18.086582 5.380602 40.000000
v 15.380602 8.086582 40.000000
v 15.000000 10.000000 40.000000
v 15.380602 11.913417 40.000000
v 16.464466 13.535534 40.000000
v 13.535534 3.535534 40.000000
v 5.380602 1.913417 40.000000
v 14.619398 1.913417 40.000000
v 5.000000 0.000000 40.000000
v 8.086582 4.619398 40.000000
v 6.464466 3.535534 40.000000
v 10.000000 5.000000 40.000000
v 11.913417 4.619398 40.000000
vn -1.0000 -0.0000 -0.0000
vn -0.0000 -1.0000 -0.0000
vn 1.0000 -0.0000 -0.0000
vn -0.0000 1.0000 -0.0000
vn -0.0000 -0.0000 1.0000
vn -0.0000 -0.0000 -1.0000
vn 0.9808 0.1951 -0.0000
vn 0.8315 0.5556 -0.0000
vn 0.5556 0.8315 -0.0000
vn 0.1951 0.9808 -0.0000
vn -0.1951 0.9808 -0.0000
vn -0.5556 0.8315 -0.0000
vn -0.8315 0.5556 -0.0000
vn -0.9808 0.1951 -0.0000
vn -0.9808 -0.1951 -0.0000
vn -0.8315 -0.5556 -0.0000
vn -0.5556 -0.8315 -0.0000
vn -0.1951 -0.9808 -0.0000
vn 0.1951 -0.9808 -0.0000
vn 0.5556 -0.8315 -0.0000
vn 0.8315 -0.5556 -0.0000
vn 0.9808 -0.1951 -0.0000
s 0
f 1//1 2//1 3//1
f 4//1 5//1 6//1
f 6//1 5//1 7//1
f 6//1 7//1 3//1
f 3//1 7//1 8//1
f 3//1 8//1 1//1
f 9//2 10//2 11//2
f 12//2 1//2 13//2
f 13//2 1//2 8//2
f 13//2 8//2 11//2
f 11//2 8//2 14//2
f 11//2 14//2 9//2
f 15//3 16//3 17//3
f 18//3 9//3 19//3
f 19//3 9//3 14//3
f 19//3 14//3 17//3
f 17//3 14//3 20//3
f 17//3 20//3 15//3
f 5//4 21//4 22//4
f 23//4 15//4 24//4
f 24//4 15//4 20//4
f 24//4 20//4 22//4
f 22//4 20//4 7//4
f 22//4 7//4 5//4
f 25//5 16//5 15//5
f 26//5 21//5 5//5
f 27//5 2//5 1//5
f 9//5 18//5 10//5
f 10//5 18//5 28//5
f 10//5 28//5 29//5
f 30//5 31//5 32//5
f 32//5 31//5 33//5
f 32//5 33//5 34//5
f 29//5 28//5 35//5
f 35//5 28//5 36//5
f 35//5 36//5 34//5
f 34//5 36//5 37//5
f 34//5 37//5 32//5
f 15//5 23//5 25//5
f 25//5 23//5 38//5
f 25//5 38//5 39//5
f 39//5 38//5 40//5
f 39//5 40//5 30//5
f 30//5 40//5 41//5
f 30//5 41//5 31//5
f 5//5 42//5 26//5
f 26//5 42//5 43//5
f 26//5 43//5 44//5
f 44//5 43//5 45//5
f 44//5 45//5 46//5
f 46//5 45//5 47//5
f 46//5 47//5 31//5
f 31//5 47//5 48//5
f 31//5 48//5 33//5
f 47//5 49//5 48//5
f 48//5 49//5 50//5
f 48//5 50//5 51//5
f 51//5 50//5 52//5
f 51//5 52//5 53//5
f 53//5 52//5 27//5
f 53//5 27//5 54//5
f 54//5 27//5 1//5
f 20//6 14//6 7//6
f 7//6 14//6 8//6
f 55//5 56//5 57//5
f 58//5 59//5 60//5
f 24//5 22//5 57//5
f 57//5 22//5 58//5
f 58//5 60//5 57//5
f 57//5 60//5 61//5
f 57//5 61//5 55//5
f 22//7 21//7 58//7
f 58//7 21//7 26//7
f 58//8 26//8 59//8
f 59//8 26//8 44//8
f 59//9 44//9 60//9
f 60//9 44//9 46//9
f 60//10 46//10 61//10
f 61//10 46//10 31//10
f 61//11 31//11 55//11
f 55//11 31//11 41//11
f 55//12 41//12 56//12
f 56//12 41//12 40//12
f 56//13 40//13 57//13
f 57//13 40//13 38//13
f 57//14 38//14 24//14
f 24//14 38//14 23//14
f 62//5 63//5 64//5
f 65//5 66//5 67//5
f 67//5 66//5 68//5
f 67//5 68//5 69//5
f 69//5 68//5 62//5
f 69//5 62//5 70//5
f 70//5 62//5 64//5
f 64//11 71//11 70//11
f 70//11 71//11 27//11
f 70//12 27//12 69//12
f 69//12 27//12 52//12
f 69//13 52//13 67//13
f 67//13 52//13 50//13
f 67//14 50//14 65//14
f 65//14 50//14 49//14
f 65//15 49//15 66//15
f 66//15 49//15 47//15
f 66//16 47//16 68//16
f 68//16 47//16 45//16
f 68//17 45//17 62//17
f 62//17 45//17 43//17
f 62//18 43//18 63//18
f 63//18 43//18 42//18
f 19//5 17//5 72//5
f 73//5 74//5 75//5
f 75//5 74//5 19//5
f 76//5 75//5 77//5
f 77//5 75//5 19//5
f 77//5 19//5 78//5
f 78//5 19//5 72//5
f 17//19 16//19 72//19
f 72//19 16//19 25//19
f 72//20 25//20 78//20
f 78//20 25//20 39//20
f 78//21 39//21 77//21
f 77//21 39//21 30//21
f 77//22 30//22 76//22
f 76//22 30//22 32//22
f 76//7 32//7 75//7
f 75//7 32//7 37//7
f 75//8 37//8 73//8
f 73//8 37//8 36//8
f 73//9 36//9 74//9
f 74//9 36//9 28//9
f 74//10 28//10 19//10
f 19//10 28//10 18//10
f 79//5 80//5 81//5
f 81//5 80//5 82//5
f 81//5 82//5 11//5
f 83//5 84//5 85//5
f 85//5 84//5 80//5
f 85//5 80//5 86//5
f 86//5 80//5 79//5
f 11//15 10//15 81//15
f 81//15 10//15 29//15
f 81//16 29//16 79//16
f 79//16 29//16 35//16
f 79//17 35//17 86//17
f 86//17 35//17 34//17
f 86//18 34//18 85//18
f 85//18 34//18 33//18
f 85//19 33//19 83//19
f 83//19 33//19 48//19
f 83//20 48//20 84//20
f 84//20 48//20 51//20
f 84//21 51//21 80//21
f 80//21 51//21 53//21
f 80//22 53//22 82//22
f 82//22 53//22 54//22
