ISO-10303-21;
HEADER;
FILE_DESCRIPTION (( 'STEP AP214' ),
    '1' );
FILE_NAME ('Ql1i.STEP',
    '2025-09-08T12:25:55',
    ( '' ),
    ( '' ),
    'SwSTEP 2.0',
    'SolidWorks 2024',
    '' );
FILE_SCHEMA (( 'AUTOMOTIVE_DESIGN' ));
ENDSEC;

DATA;
#1 = CARTESIAN_POINT ( 'NONE',  ( 0.000000000000000000, 0.000000000000000000, 80.00000000000000000 ) ) ;
#2 = CIRCLE ( 'NONE', #45, 4.999999999999999112 ) ;
#3 = ORIENTED_EDGE ( 'NONE', *, *, #298, .T. ) ;
#4 = FACE_OUTER_BOUND ( 'NONE', #321, .T. ) ;
#5 = ORIENTED_EDGE ( 'NONE', *, *, #194, .T. ) ;
#6 = PRODUCT_CONTEXT ( 'NONE', #117, 'mechanical' ) ;
#7 = FACE_OUTER_BOUND ( 'NONE', #310, .T. ) ;
#8 = ORIENTED_EDGE ( 'NONE', *, *, #88, .F. ) ;
#9 = EDGE_CURVE ( 'NONE', #85, #420, #254, .T. ) ;
#10 = CARTESIAN_POINT ( 'NONE',  ( 20.00000000000000000, 10.00000000000000000, 40.00000000000000000 ) ) ;
#11 = VECTOR ( 'NONE', #403, 1000.000000000000000 ) ;
#12 = ORIENTED_EDGE ( 'NONE', *, *, #454, .T. ) ;
#13 = VECTOR ( 'NONE', #115, 1000.000000000000000 ) ;
#14 = CARTESIAN_POINT ( 'NONE',  ( 20.00000000000000000, 0.000000000000000000, 40.00000000000000000 ) ) ;
#15 = EDGE_LOOP ( 'NONE', ( #159, #82, #96, #205 ) ) ;
#16 = DIRECTION ( 'NONE',  ( 1.000000000000000000, 0.000000000000000000, -0.000000000000000000 ) ) ;
#17 = VERTEX_POINT ( 'NONE', #283 ) ;
#18 = DIRECTION ( 'NONE',  ( 0.000000000000000000, 1.000000000000000000, 0.000000000000000000 ) ) ;
#19 = VERTEX_POINT ( 'NONE', #324 ) ;
#20 = EDGE_CURVE ( 'NONE', #53, #87, #439, .T. ) ;
#21 = VECTOR ( 'NONE', #399, 1000.000000000000000 ) ;
#22 = LINE ( 'NONE', #440, #452 ) ;
#23 = LINE ( 'NONE', #446, #342 ) ;
#24 = EDGE_CURVE ( 'NONE', #19, #478, #33, .T. ) ;
#25 = CARTESIAN_POINT ( 'NONE',  ( 0.000000000000000000, 20.00000000000000000, 80.00000000000000000 ) ) ;
#26 = VECTOR ( 'NONE', #450, 1000.000000000000000 ) ;
#27 = AXIS2_PLACEMENT_3D ( 'NONE', #123, #457, #192 ) ;
#28 = CARTESIAN_POINT ( 'NONE',  ( 20.00000000000000000, 4.999999999999999112, 40.00000000000000000 ) ) ;
#29 = ORIENTED_EDGE ( 'NONE', *, *, #9, .T. ) ;
#30 = CARTESIAN_POINT ( 'NONE',  ( 15.00000000000000000, 0.000000000000000000, 80.00000000000000000 ) ) ;
#31 = CARTESIAN_POINT ( 'NONE',  ( 0.000000000000000000, 20.00000000000000000, 0.000000000000000000 ) ) ;
#32 = CARTESIAN_POINT ( 'NONE',  ( 0.000000000000000000, 0.000000000000000000, 80.00000000000000000 ) ) ;
#33 = LINE ( 'NONE', #219, #125 ) ;
#34 = LINE ( 'NONE', #42, #381 ) ;
#35 = STYLED_ITEM ( 'NONE', ( #101 ), #375 ) ;
#36 = VECTOR ( 'NONE', #183, 1000.000000000000000 ) ;
#37 = ORIENTED_EDGE ( 'NONE', *, *, #56, .T. ) ;
#38 = VERTEX_POINT ( 'NONE', #256 ) ;
#39 = FACE_OUTER_BOUND ( 'NONE', #380, .T. ) ;
#40 = EDGE_CURVE ( 'NONE', #356, #100, #23, .T. ) ;
#41 = ORIENTED_EDGE ( 'NONE', *, *, #146, .T. ) ;
#42 = CARTESIAN_POINT ( 'NONE',  ( 20.00000000000000000, 0.000000000000000000, 0.000000000000000000 ) ) ;
#43 = AXIS2_PLACEMENT_3D ( 'NONE', #482, #102, #248 ) ;
#44 = FACE_OUTER_BOUND ( 'NONE', #265, .T. ) ;
#45 = AXIS2_PLACEMENT_3D ( 'NONE', #307, #422, #459 ) ;
#46 = ORIENTED_EDGE ( 'NONE', *, *, #309, .T. ) ;
#47 = ORIENTED_EDGE ( 'NONE', *, *, #67, .F. ) ;
#48 = CARTESIAN_POINT ( 'NONE',  ( 0.000000000000000000, 0.000000000000000000, 0.000000000000000000 ) ) ;
#49 = CARTESIAN_POINT ( 'NONE',  ( 20.00000000000000000, 0.000000000000000000, 80.00000000000000000 ) ) ;
#50 = EDGE_LOOP ( 'NONE', ( #198, #3 ) ) ;
#51 = DIRECTION ( 'NONE',  ( 1.000000000000000000, 0.000000000000000000, 0.000000000000000000 ) ) ;
#52 = VECTOR ( 'NONE', #401, 1000.000000000000000 ) ;
#53 = VERTEX_POINT ( 'NONE', #31 ) ;
#54 = UNCERTAINTY_MEASURE_WITH_UNIT (LENGTH_MEASURE( 1.000000000000000082E-05 ), #211, 'distance_accuracy_value', 'NONE');
#55 = DIRECTION ( 'NONE',  ( 1.000000000000000000, 0.000000000000000000, 0.000000000000000000 ) ) ;
#56 = EDGE_CURVE ( 'NONE', #193, #236, #292, .T. ) ;
#57 = ORIENTED_EDGE ( 'NONE', *, *, #257, .T. ) ;
#58 = FACE_OUTER_BOUND ( 'NONE', #374, .T. ) ;
#59 = ORIENTED_EDGE ( 'NONE', *, *, #170, .F. ) ;
#60 = LINE ( 'NONE', #161, #111 ) ;
#61 = VERTEX_POINT ( 'NONE', #330 ) ;
#62 = VECTOR ( 'NONE', #181, 1000.000000000000000 ) ;
#63 = DIRECTION ( 'NONE',  ( 0.000000000000000000, -1.000000000000000000, 0.000000000000000000 ) ) ;
#64 = CARTESIAN_POINT ( 'NONE',  ( 20.00000000000000000, 20.00000000000000000, 0.000000000000000000 ) ) ;
#65 = DIRECTION ( 'NONE',  ( 1.000000000000000000, 0.000000000000000000, 0.000000000000000000 ) ) ;
#66 = LINE ( 'NONE', #286, #11 ) ;
#67 = EDGE_CURVE ( 'NONE', #17, #236, #66, .T. ) ;
#68 = DIRECTION ( 'NONE',  ( 1.000000000000000000, 0.000000000000000000, 0.000000000000000000 ) ) ;
#69 = AXIS2_PLACEMENT_3D ( 'NONE', #360, #404, #73 ) ;
#70 = AXIS2_PLACEMENT_3D ( 'NONE', #48, #311, #200 ) ;
#71 = LINE ( 'NONE', #28, #233 ) ;
#72 = DIRECTION ( 'NONE',  ( 1.000000000000000000, 0.000000000000000000, 0.000000000000000000 ) ) ;
#73 = DIRECTION ( 'NONE',  ( 1.000000000000000000, 0.000000000000000000, 0.000000000000000000 ) ) ;
#74 = DIRECTION ( 'NONE',  ( 0.000000000000000000, 0.000000000000000000, -1.000000000000000000 ) ) ;
#75 = PLANE ( 'NONE',  #318 ) ;
#76 = EDGE_LOOP ( 'NONE', ( #453, #152, #470, #177 ) ) ;
#77 = CARTESIAN_POINT ( 'NONE',  ( 20.00000000000000000, 10.00000000000000000, 40.00000000000000000 ) ) ;
#78 = AXIS2_PLACEMENT_3D ( 'NONE', #158, #299, #121 ) ;
#79 = PRODUCT_DEFINITION_FORMATION_WITH_SPECIFIED_SOURCE ( 'ANY', '', #384, .NOT_KNOWN. ) ;
#80 = ORIENTED_EDGE ( 'NONE', *, *, #338, .F. ) ;
#81 = LINE ( 'NONE', #32, #186 ) ;
#82 = ORIENTED_EDGE ( 'NONE', *, *, #350, .F. ) ;
#83 = CARTESIAN_POINT ( 'NONE',  ( 0.000000000000000000, 0.000000000000000000, 0.000000000000000000 ) ) ;
#84 = DIRECTION ( 'NONE',  ( 0.000000000000000000, 0.000000000000000000, -1.000000000000000000 ) ) ;
#85 = VERTEX_POINT ( 'NONE', #322 ) ;
#86 = CIRCLE ( 'NONE', #421, 5.000000000000000888 ) ;
#87 = VERTEX_POINT ( 'NONE', #435 ) ;
#88 = EDGE_CURVE ( 'NONE', #353, #19, #436, .T. ) ;
#89 = CARTESIAN_POINT ( 'NONE',  ( 0.000000000000000000, 10.00000000000000000, 40.00000000000000000 ) ) ;
#90 = ORIENTED_EDGE ( 'NONE', *, *, #280, .T. ) ;
#91 =( NAMED_UNIT ( * ) SI_UNIT ( $, .STERADIAN. ) SOLID_ANGLE_UNIT ( ) );
#92 = DIRECTION ( 'NONE',  ( 0.000000000000000000, 0.000000000000000000, 1.000000000000000000 ) ) ;
#93 = ORIENTED_EDGE ( 'NONE', *, *, #24, .T. ) ;
#94 = EDGE_CURVE ( 'NONE', #456, #394, #396, .T. ) ;
#95 = CARTESIAN_POINT ( 'NONE',  ( 20.00000000000000000, 0.000000000000000000, 80.00000000000000000 ) ) ;
#96 = ORIENTED_EDGE ( 'NONE', *, *, #494, .T. ) ;
#97 = DIRECTION ( 'NONE',  ( -1.000000000000000000, -0.000000000000000000, -0.000000000000000000 ) ) ;
#98 = EDGE_LOOP ( 'NONE', ( #120, #223, #489, #262, #417, #368, #59, #493 ) ) ;
#99 = CARTESIAN_POINT ( 'NONE',  ( 5.000000000000000888, 20.00000000000000000, 40.00000000000000000 ) ) ;
#100 = VERTEX_POINT ( 'NONE', #214 ) ;
#101 = PRESENTATION_STYLE_ASSIGNMENT (( #215 ) ) ;
#102 = DIRECTION ( 'NONE',  ( 1.000000000000000000, 0.000000000000000000, 0.000000000000000000 ) ) ;
#103 = EDGE_CURVE ( 'NONE', #394, #356, #216, .T. ) ;
#104 = VECTOR ( 'NONE', #352, 1000.000000000000000 ) ;
#105 = CARTESIAN_POINT ( 'NONE',  ( 0.000000000000000000, 0.000000000000000000, 40.00000000000000000 ) ) ;
#106 = DIRECTION ( 'NONE',  ( -0.000000000000000000, -1.000000000000000000, -0.000000000000000000 ) ) ;
#107 = LINE ( 'NONE', #288, #21 ) ;
#108 = ADVANCED_FACE ( 'NONE', ( #148 ), #405, .F. ) ;
#109 = FACE_OUTER_BOUND ( 'NONE', #98, .T. ) ;
#110 = DIRECTION ( 'NONE',  ( -1.000000000000000000, -0.000000000000000000, -0.000000000000000000 ) ) ;
#111 = VECTOR ( 'NONE', #387, 1000.000000000000000 ) ;
#112 = CARTESIAN_POINT ( 'NONE',  ( 20.00000000000000000, 15.00000000000000178, 40.00000000000000000 ) ) ;
#113 = PRODUCT_RELATED_PRODUCT_CATEGORY ( 'part', '', ( #384 ) ) ;
#114 =( NAMED_UNIT ( * ) PLANE_ANGLE_UNIT ( ) SI_UNIT ( $, .RADIAN. ) );
#115 = DIRECTION ( 'NONE',  ( -0.000000000000000000, -0.000000000000000000, 1.000000000000000000 ) ) ;
#116 = ORIENTED_EDGE ( 'NONE', *, *, #372, .T. ) ;
#117 = APPLICATION_CONTEXT ( 'automotive_design' ) ;
#118 = CARTESIAN_POINT ( 'NONE',  ( 5.000000000000000888, 10.00000000000000000, 80.00000000000000000 ) ) ;
#119 = VECTOR ( 'NONE', #97, 1000.000000000000000 ) ;
#120 = ORIENTED_EDGE ( 'NONE', *, *, #275, .F. ) ;
#121 = DIRECTION ( 'NONE',  ( 1.000000000000000000, 0.000000000000000000, -0.000000000000000000 ) ) ;
#122 = EDGE_LOOP ( 'NONE', ( #80, #93, #172, #12, #315, #339, #231, #41 ) ) ;
#123 = CARTESIAN_POINT ( 'NONE',  ( 10.00000000000000000, 0.000000000000000000, 40.00000000000000000 ) ) ;
#124 = VERTEX_POINT ( 'NONE', #398 ) ;
#125 = VECTOR ( 'NONE', #479, 1000.000000000000000 ) ;
#126 = LINE ( 'NONE', #466, #104 ) ;
#127 = VECTOR ( 'NONE', #272, 1000.000000000000000 ) ;
#128 = ORIENTED_EDGE ( 'NONE', *, *, #243, .T. ) ;
#129 = DIRECTION ( 'NONE',  ( 1.000000000000000000, 0.000000000000000000, 0.000000000000000000 ) ) ;
#130 = ORIENTED_EDGE ( 'NONE', *, *, #309, .F. ) ;
#131 = PRODUCT_DEFINITION_CONTEXT ( 'detailed design', #167, 'design' ) ;
#132 = DIRECTION ( 'NONE',  ( 0.000000000000000000, 0.000000000000000000, 1.000000000000000000 ) ) ;
#133 = ORIENTED_EDGE ( 'NONE', *, *, #271, .T. ) ;
#134 = CARTESIAN_POINT ( 'NONE',  ( 5.000000000000000888, 20.00000000000000000, 80.00000000000000000 ) ) ;
#135 = VERTEX_POINT ( 'NONE', #64 ) ;
#136 = DIRECTION ( 'NONE',  ( -1.000000000000000000, 0.000000000000000000, 0.000000000000000000 ) ) ;
#137 = FILL_AREA_STYLE_COLOUR ( '', #357 ) ;
#138 = ORIENTED_EDGE ( 'NONE', *, *, #190, .T. ) ;
#139 = PLANE ( 'NONE',  #247 ) ;
#140 = DIRECTION ( 'NONE',  ( 0.000000000000000000, 0.000000000000000000, 1.000000000000000000 ) ) ;
#141 = EDGE_CURVE ( 'NONE', #135, #53, #143, .T. ) ;
#142 = CYLINDRICAL_SURFACE ( 'NONE', #69, 4.999999999999999112 ) ;
#143 = LINE ( 'NONE', #289, #232 ) ;
#144 = CARTESIAN_POINT ( 'NONE',  ( 0.000000000000000000, 10.00000000000000000, 40.00000000000000000 ) ) ;
#145 = CARTESIAN_POINT ( 'NONE',  ( 0.000000000000000000, 0.000000000000000000, 0.000000000000000000 ) ) ;
#146 = EDGE_CURVE ( 'NONE', #303, #353, #264, .T. ) ;
#147 = DIRECTION ( 'NONE',  ( -0.000000000000000000, -0.000000000000000000, 1.000000000000000000 ) ) ;
#148 = FACE_OUTER_BOUND ( 'NONE', #425, .T. ) ;
#149 = DIRECTION ( 'NONE',  ( 0.000000000000000000, 0.000000000000000000, 1.000000000000000000 ) ) ;
#150 = CARTESIAN_POINT ( 'NONE',  ( 0.000000000000000000, 15.00000000000000178, 80.00000000000000000 ) ) ;
#151 = ADVANCED_FACE ( 'NONE', ( #44 ), #334, .T. ) ;
#152 = ORIENTED_EDGE ( 'NONE', *, *, #56, .F. ) ;
#153 = CARTESIAN_POINT ( 'NONE',  ( 0.000000000000000000, 15.00000000000000178, 40.00000000000000000 ) ) ;
#154 = ORIENTED_EDGE ( 'NONE', *, *, #454, .F. ) ;
#155 = DIRECTION ( 'NONE',  ( 0.000000000000000000, 0.000000000000000000, -1.000000000000000000 ) ) ;
#156 = ORIENTED_EDGE ( 'NONE', *, *, #359, .F. ) ;
#157 = ADVANCED_FACE ( 'NONE', ( #208 ), #281, .F. ) ;
#158 = CARTESIAN_POINT ( 'NONE',  ( 10.00000000000000000, 20.00000000000000000, 40.00000000000000000 ) ) ;
#159 = ORIENTED_EDGE ( 'NONE', *, *, #372, .F. ) ;
#160 = EDGE_CURVE ( 'NONE', #244, #166, #314, .T. ) ;
#161 = CARTESIAN_POINT ( 'NONE',  ( 0.000000000000000000, 0.000000000000000000, 80.00000000000000000 ) ) ;
#162 = ORIENTED_EDGE ( 'NONE', *, *, #88, .T. ) ;
#163 = VECTOR ( 'NONE', #84, 1000.000000000000000 ) ;
#164 = VECTOR ( 'NONE', #203, 1000.000000000000000 ) ;
#165 = CARTESIAN_POINT ( 'NONE',  ( 20.00000000000000000, 0.000000000000000000, 80.00000000000000000 ) ) ;
#166 = VERTEX_POINT ( 'NONE', #469 ) ;
#167 = APPLICATION_CONTEXT ( 'automotive_design' ) ;
#168 = LINE ( 'NONE', #464, #127 ) ;
#169 = ORIENTED_EDGE ( 'NONE', *, *, #359, .T. ) ;
#170 = EDGE_CURVE ( 'NONE', #371, #85, #171, .T. ) ;
#171 = LINE ( 'NONE', #49, #388 ) ;
#172 = ORIENTED_EDGE ( 'NONE', *, *, #419, .F. ) ;
#173 = LINE ( 'NONE', #14, #164 ) ;
#174 = ORIENTED_EDGE ( 'NONE', *, *, #146, .F. ) ;
#175 = CIRCLE ( 'NONE', #488, 4.999999999999999112 ) ;
#176 = DIRECTION ( 'NONE',  ( 0.000000000000000000, 1.000000000000000000, 0.000000000000000000 ) ) ;
#177 = ORIENTED_EDGE ( 'NONE', *, *, #389, .F. ) ;
#178 = DIRECTION ( 'NONE',  ( 0.000000000000000000, 0.000000000000000000, -1.000000000000000000 ) ) ;
#179 = CARTESIAN_POINT ( 'NONE',  ( 10.00000000000000000, 0.000000000000000000, 40.00000000000000000 ) ) ;
#180 = LINE ( 'NONE', #105, #260 ) ;
#181 = DIRECTION ( 'NONE',  ( -0.000000000000000000, -0.000000000000000000, -1.000000000000000000 ) ) ;
#182 = DIRECTION ( 'NONE',  ( 0.000000000000000000, 0.000000000000000000, -1.000000000000000000 ) ) ;
#183 = DIRECTION ( 'NONE',  ( 1.000000000000000000, 0.000000000000000000, 0.000000000000000000 ) ) ;
#184 = CARTESIAN_POINT ( 'NONE',  ( 5.000000000000000888, 20.00000000000000000, 40.00000000000000000 ) ) ;
#185 = AXIS2_PLACEMENT_3D ( 'NONE', #349, #355, #235 ) ;
#186 = VECTOR ( 'NONE', #455, 1000.000000000000000 ) ;
#187 = DIRECTION ( 'NONE',  ( 0.000000000000000000, 1.000000000000000000, 0.000000000000000000 ) ) ;
#188 = ORIENTED_EDGE ( 'NONE', *, *, #141, .T. ) ;
#189 = PLANE ( 'NONE',  #78 ) ;
#190 = EDGE_CURVE ( 'NONE', #492, #394, #126, .T. ) ;
#191 = ORIENTED_EDGE ( 'NONE', *, *, #40, .T. ) ;
#192 = DIRECTION ( 'NONE',  ( 1.000000000000000000, 0.000000000000000000, 0.000000000000000000 ) ) ;
#193 = VERTEX_POINT ( 'NONE', #134 ) ;
#194 = EDGE_CURVE ( 'NONE', #420, #193, #323, .T. ) ;
#195 = VECTOR ( 'NONE', #106, 1000.000000000000000 ) ;
#196 = CARTESIAN_POINT ( 'NONE',  ( 0.000000000000000000, 0.000000000000000000, 80.00000000000000000 ) ) ;
#197 = ORIENTED_EDGE ( 'NONE', *, *, #389, .T. ) ;
#198 = ORIENTED_EDGE ( 'NONE', *, *, #67, .T. ) ;
#199 = CARTESIAN_POINT ( 'NONE',  ( 0.000000000000000000, 15.00000000000000178, 40.00000000000000000 ) ) ;
#200 = DIRECTION ( 'NONE',  ( 1.000000000000000000, 0.000000000000000000, 0.000000000000000000 ) ) ;
#201 = LINE ( 'NONE', #269, #119 ) ;
#202 = ORIENTED_EDGE ( 'NONE', *, *, #251, .F. ) ;
#203 = DIRECTION ( 'NONE',  ( 0.000000000000000000, 1.000000000000000000, -0.000000000000000000 ) ) ;
#204 = ADVANCED_FACE ( 'NONE', ( #7 ), #308, .T. ) ;
#205 = ORIENTED_EDGE ( 'NONE', *, *, #316, .F. ) ;
#206 = PLANE ( 'NONE',  #185 ) ;
#207 = ORIENTED_EDGE ( 'NONE', *, *, #94, .F. ) ;
#208 = FACE_OUTER_BOUND ( 'NONE', #449, .T. ) ;
#209 = CLOSED_SHELL ( 'NONE', ( #306, #108, #447, #377, #426, #442, #204, #412, #295, #151, #157, #473, #237, #273, #430 ) ) ;
#210 = CIRCLE ( 'NONE', #462, 5.000000000000000888 ) ;
#211 =( LENGTH_UNIT ( ) NAMED_UNIT ( * ) SI_UNIT ( .MILLI., .METRE. ) );
#212 = ORIENTED_EDGE ( 'NONE', *, *, #141, .F. ) ;
#213 =( NAMED_UNIT ( * ) PLANE_ANGLE_UNIT ( ) SI_UNIT ( $, .RADIAN. ) );
#214 = CARTESIAN_POINT ( 'NONE',  ( 0.000000000000000000, 4.999999999999999112, 40.00000000000000000 ) ) ;
#215 = SURFACE_STYLE_USAGE ( .BOTH. , #400 ) ;
#216 = CIRCLE ( 'NONE', #240, 5.000000000000000888 ) ;
#217 = AXIS2_PLACEMENT_3D ( 'NONE', #241, #132, #432 ) ;
#218 = CARTESIAN_POINT ( 'NONE',  ( 10.00000000000000000, 20.00000000000000000, 40.00000000000000000 ) ) ;
#219 = CARTESIAN_POINT ( 'NONE',  ( 5.000000000000001776, 0.000000000000000000, 40.00000000000000000 ) ) ;
#220 = DIRECTION ( 'NONE',  ( -1.000000000000000000, 0.000000000000000000, -0.000000000000000000 ) ) ;
#221 = EDGE_CURVE ( 'NONE', #100, #492, #480, .T. ) ;
#222 = CARTESIAN_POINT ( 'NONE',  ( 15.00000000000000000, 20.00000000000000000, 80.00000000000000000 ) ) ;
#223 = ORIENTED_EDGE ( 'NONE', *, *, #316, .T. ) ;
#224 = VECTOR ( 'NONE', #312, 1000.000000000000000 ) ;
#225 = AXIS2_PLACEMENT_3D ( 'NONE', #333, #261, #228 ) ;
#226 = FACE_OUTER_BOUND ( 'NONE', #458, .T. ) ;
#227 = ORIENTED_EDGE ( 'NONE', *, *, #354, .T. ) ;
#228 = DIRECTION ( 'NONE',  ( 0.000000000000000000, -0.000000000000000000, -1.000000000000000000 ) ) ;
#229 = ORIENTED_EDGE ( 'NONE', *, *, #170, .T. ) ;
#230 = CARTESIAN_POINT ( 'NONE',  ( 5.000000000000001776, 0.000000000000000000, 80.00000000000000000 ) ) ;
#231 = ORIENTED_EDGE ( 'NONE', *, *, #290, .F. ) ;
#232 = VECTOR ( 'NONE', #441, 1000.000000000000000 ) ;
#233 = VECTOR ( 'NONE', #249, 1000.000000000000000 ) ;
#234 = ORIENTED_EDGE ( 'NONE', *, *, #243, .F. ) ;
#235 = DIRECTION ( 'NONE',  ( 1.000000000000000000, 0.000000000000000000, -0.000000000000000000 ) ) ;
#236 = VERTEX_POINT ( 'NONE', #99 ) ;
#237 = ADVANCED_FACE ( 'NONE', ( #274 ), #245, .F. ) ;
#238 = APPLICATION_PROTOCOL_DEFINITION ( 'draft international standard', 'automotive_design', 1998, #117 ) ;
#239 = DIRECTION ( 'NONE',  ( -0.000000000000000000, -0.000000000000000000, 1.000000000000000000 ) ) ;
#240 = AXIS2_PLACEMENT_3D ( 'NONE', #328, #74, #486 ) ;
#241 = CARTESIAN_POINT ( 'NONE',  ( 0.000000000000000000, 10.00000000000000000, 40.00000000000000000 ) ) ;
#242 = CARTESIAN_POINT ( 'NONE',  ( 0.000000000000000000, 10.00000000000000000, 40.00000000000000000 ) ) ;
#243 = EDGE_CURVE ( 'NONE', #356, #124, #60, .T. ) ;
#244 = VERTEX_POINT ( 'NONE', #95 ) ;
#245 = CYLINDRICAL_SURFACE ( 'NONE', #370, 5.000000000000000888 ) ;
#246 = DIRECTION ( 'NONE',  ( 1.000000000000000000, 0.000000000000000000, 0.000000000000000000 ) ) ;
#247 = AXIS2_PLACEMENT_3D ( 'NONE', #481, #253, #402 ) ;
#248 = DIRECTION ( 'NONE',  ( 0.000000000000000000, 0.000000000000000000, -1.000000000000000000 ) ) ;
#249 = DIRECTION ( 'NONE',  ( -0.000000000000000000, -0.000000000000000000, 1.000000000000000000 ) ) ;
#250 = DIRECTION ( 'NONE',  ( -1.000000000000000000, 0.000000000000000000, 0.000000000000000000 ) ) ;
#251 = EDGE_CURVE ( 'NONE', #303, #478, #2, .T. ) ;
#252 = CARTESIAN_POINT ( 'NONE',  ( 20.00000000000000000, 10.00000000000000000, 40.00000000000000000 ) ) ;
#253 = DIRECTION ( 'NONE',  ( -1.000000000000000000, 0.000000000000000000, 0.000000000000000000 ) ) ;
#254 = LINE ( 'NONE', #25, #285 ) ;
#255 = DIRECTION ( 'NONE',  ( 1.000000000000000000, 0.000000000000000000, 0.000000000000000000 ) ) ;
#256 = CARTESIAN_POINT ( 'NONE',  ( 20.00000000000000000, 4.999999999999999112, 40.00000000000000000 ) ) ;
#257 = EDGE_CURVE ( 'NONE', #193, #484, #201, .T. ) ;
#258 = LINE ( 'NONE', #1, #301 ) ;
#259 = ORIENTED_EDGE ( 'NONE', *, *, #190, .F. ) ;
#260 = VECTOR ( 'NONE', #255, 1000.000000000000000 ) ;
#261 = DIRECTION ( 'NONE',  ( 0.000000000000000000, -1.000000000000000000, 0.000000000000000000 ) ) ;
#262 = ORIENTED_EDGE ( 'NONE', *, *, #160, .T. ) ;
#263 = DIRECTION ( 'NONE',  ( 1.000000000000000000, 0.000000000000000000, -0.000000000000000000 ) ) ;
#264 = LINE ( 'NONE', #407, #163 ) ;
#265 = EDGE_LOOP ( 'NONE', ( #169, #428, #133 ) ) ;
#266 = CYLINDRICAL_SURFACE ( 'NONE', #27, 4.999999999999999112 ) ;
#267 = ORIENTED_EDGE ( 'NONE', *, *, #20, .F. ) ;
#268 = AXIS2_PLACEMENT_3D ( 'NONE', #196, #337, #304 ) ;
#269 = CARTESIAN_POINT ( 'NONE',  ( 0.000000000000000000, 20.00000000000000000, 80.00000000000000000 ) ) ;
#270 = VERTEX_POINT ( 'NONE', #199 ) ;
#271 = EDGE_CURVE ( 'NONE', #492, #270, #210, .T. ) ;
#272 = DIRECTION ( 'NONE',  ( -0.000000000000000000, -1.000000000000000000, -0.000000000000000000 ) ) ;
#273 = ADVANCED_FACE ( 'NONE', ( #58 ), #206, .T. ) ;
#274 = FACE_OUTER_BOUND ( 'NONE', #15, .T. ) ;
#275 = EDGE_CURVE ( 'NONE', #38, #336, #173, .T. ) ;
#276 = AXIS2_PLACEMENT_3D ( 'NONE', #474, #393, #136 ) ;
#277 = CARTESIAN_POINT ( 'NONE',  ( 0.000000000000000000, 0.000000000000000000, 0.000000000000000000 ) ) ;
#278 = CIRCLE ( 'NONE', #343, 5.000000000000000888 ) ;
#279 = EDGE_LOOP ( 'NONE', ( #313, #138, #207, #345 ) ) ;
#280 = EDGE_CURVE ( 'NONE', #85, #135, #385, .T. ) ;
#281 = CYLINDRICAL_SURFACE ( 'NONE', #472, 5.000000000000000888 ) ;
#282 = SURFACE_STYLE_FILL_AREA ( #434 ) ;
#283 = CARTESIAN_POINT ( 'NONE',  ( 15.00000000000000000, 20.00000000000000000, 40.00000000000000000 ) ) ;
#284 = DIRECTION ( 'NONE',  ( 0.000000000000000000, 0.000000000000000000, 1.000000000000000000 ) ) ;
#285 = VECTOR ( 'NONE', #110, 1000.000000000000000 ) ;
#286 = CARTESIAN_POINT ( 'NONE',  ( 0.000000000000000000, 20.00000000000000000, 40.00000000000000000 ) ) ;
#287 = EDGE_CURVE ( 'NONE', #484, #456, #168, .T. ) ;
#288 = CARTESIAN_POINT ( 'NONE',  ( 20.00000000000000000, 15.00000000000000178, 40.00000000000000000 ) ) ;
#289 = CARTESIAN_POINT ( 'NONE',  ( 0.000000000000000000, 20.00000000000000000, 0.000000000000000000 ) ) ;
#290 = EDGE_CURVE ( 'NONE', #303, #244, #424, .T. ) ;
#291 = LINE ( 'NONE', #438, #62 ) ;
#292 = LINE ( 'NONE', #184, #52 ) ;
#293 = CARTESIAN_POINT ( 'NONE',  ( 0.000000000000000000, 0.000000000000000000, 80.00000000000000000 ) ) ;
#294 = VECTOR ( 'NONE', #63, 1000.000000000000000 ) ;
#295 = ADVANCED_FACE ( 'NONE', ( #365 ), #142, .F. ) ;
#296 = CARTESIAN_POINT ( 'NONE',  ( 20.00000000000000000, 10.00000000000000000, 80.00000000000000000 ) ) ;
#297 = ORIENTED_EDGE ( 'NONE', *, *, #416, .T. ) ;
#298 = EDGE_CURVE ( 'NONE', #236, #17, #175, .T. ) ;
#299 = DIRECTION ( 'NONE',  ( 0.000000000000000000, 0.000000000000000000, 1.000000000000000000 ) ) ;
#300 = ORIENTED_EDGE ( 'NONE', *, *, #9, .F. ) ;
#301 = VECTOR ( 'NONE', #448, 1000.000000000000000 ) ;
#302 = LINE ( 'NONE', #153, #26 ) ;
#303 = VERTEX_POINT ( 'NONE', #30 ) ;
#304 = DIRECTION ( 'NONE',  ( 0.000000000000000000, -0.000000000000000000, 1.000000000000000000 ) ) ;
#305 = ORIENTED_EDGE ( 'NONE', *, *, #24, .F. ) ;
#306 = ADVANCED_FACE ( 'NONE', ( #444 ), #485, .F. ) ;
#307 = CARTESIAN_POINT ( 'NONE',  ( 10.00000000000000000, 0.000000000000000000, 80.00000000000000000 ) ) ;
#308 = PLANE ( 'NONE',  #429 ) ;
#309 = EDGE_CURVE ( 'NONE', #484, #53, #291, .T. ) ;
#310 = EDGE_LOOP ( 'NONE', ( #267, #212, #351, #414 ) ) ;
#311 = DIRECTION ( 'NONE',  ( 0.000000000000000000, 0.000000000000000000, 1.000000000000000000 ) ) ;
#312 = DIRECTION ( 'NONE',  ( -0.000000000000000000, -0.000000000000000000, -1.000000000000000000 ) ) ;
#313 = ORIENTED_EDGE ( 'NONE', *, *, #271, .F. ) ;
#314 = LINE ( 'NONE', #165, #224 ) ;
#315 = ORIENTED_EDGE ( 'NONE', *, *, #476, .T. ) ;
#316 = EDGE_CURVE ( 'NONE', #38, #61, #71, .T. ) ;
#317 = CARTESIAN_POINT ( 'NONE',  ( 20.00000000000000000, 20.00000000000000000, 80.00000000000000000 ) ) ;
#318 = AXIS2_PLACEMENT_3D ( 'NONE', #77, #373, #263 ) ;
#319 = ORIENTED_EDGE ( 'NONE', *, *, #338, .T. ) ;
#320 = CARTESIAN_POINT ( 'NONE',  ( 15.00000000000000000, 0.000000000000000000, 40.00000000000000000 ) ) ;
#321 = EDGE_LOOP ( 'NONE', ( #378, #116 ) ) ;
#322 = CARTESIAN_POINT ( 'NONE',  ( 20.00000000000000000, 20.00000000000000000, 80.00000000000000000 ) ) ;
#323 = CIRCLE ( 'NONE', #276, 4.999999999999999112 ) ;
#324 = CARTESIAN_POINT ( 'NONE',  ( 5.000000000000001776, 0.000000000000000000, 40.00000000000000000 ) ) ;
#325 = ORIENTED_EDGE ( 'NONE', *, *, #290, .T. ) ;
#326 = ADVANCED_BREP_SHAPE_REPRESENTATION ( 'Ql1i', ( #375, #70 ), #437 ) ;
#327 = DIRECTION ( 'NONE',  ( 0.000000000000000000, 0.000000000000000000, 1.000000000000000000 ) ) ;
#328 = CARTESIAN_POINT ( 'NONE',  ( 0.000000000000000000, 10.00000000000000000, 80.00000000000000000 ) ) ;
#329 = CARTESIAN_POINT ( 'NONE',  ( 0.000000000000000000, 20.00000000000000000, 80.00000000000000000 ) ) ;
#330 = CARTESIAN_POINT ( 'NONE',  ( 20.00000000000000000, 4.999999999999999112, 80.00000000000000000 ) ) ;
#331 = VECTOR ( 'NONE', #347, 1000.000000000000000 ) ;
#332 = AXIS2_PLACEMENT_3D ( 'NONE', #344, #155, #220 ) ;
#333 = CARTESIAN_POINT ( 'NONE',  ( 0.000000000000000000, 20.00000000000000000, 80.00000000000000000 ) ) ;
#334 = PLANE ( 'NONE',  #395 ) ;
#335 = PRODUCT_DEFINITION_SHAPE ( 'NONE', 'NONE',  #468 ) ;
#336 = VERTEX_POINT ( 'NONE', #112 ) ;
#337 = DIRECTION ( 'NONE',  ( 0.000000000000000000, 1.000000000000000000, 0.000000000000000000 ) ) ;
#338 = EDGE_CURVE ( 'NONE', #19, #353, #180, .T. ) ;
#339 = ORIENTED_EDGE ( 'NONE', *, *, #160, .F. ) ;
#340 = PLANE ( 'NONE',  #332 ) ;
#341 = ORIENTED_EDGE ( 'NONE', *, *, #287, .T. ) ;
#342 = VECTOR ( 'NONE', #178, 1000.000000000000000 ) ;
#343 = AXIS2_PLACEMENT_3D ( 'NONE', #296, #149, #487 ) ;
#344 = CARTESIAN_POINT ( 'NONE',  ( 0.000000000000000000, 0.000000000000000000, 80.00000000000000000 ) ) ;
#345 = ORIENTED_EDGE ( 'NONE', *, *, #416, .F. ) ;
#346 = ORIENTED_EDGE ( 'NONE', *, *, #20, .T. ) ;
#347 = DIRECTION ( 'NONE',  ( -0.000000000000000000, -0.000000000000000000, -1.000000000000000000 ) ) ;
#348 = APPLICATION_PROTOCOL_DEFINITION ( 'draft international standard', 'automotive_design', 1998, #167 ) ;
#349 = CARTESIAN_POINT ( 'NONE',  ( 10.00000000000000000, 0.000000000000000000, 40.00000000000000000 ) ) ;
#350 = EDGE_CURVE ( 'NONE', #371, #336, #107, .T. ) ;
#351 = ORIENTED_EDGE ( 'NONE', *, *, #491, .F. ) ;
#352 = DIRECTION ( 'NONE',  ( -0.000000000000000000, -0.000000000000000000, 1.000000000000000000 ) ) ;
#353 = VERTEX_POINT ( 'NONE', #320 ) ;
#354 = EDGE_CURVE ( 'NONE', #244, #61, #22, .T. ) ;
#355 = DIRECTION ( 'NONE',  ( 0.000000000000000000, 0.000000000000000000, 1.000000000000000000 ) ) ;
#356 = VERTEX_POINT ( 'NONE', #483 ) ;
#357 = COLOUR_RGB ( '',0.7921568627450980005, 0.8196078431372548767, 0.9333333333333333481 ) ;
#358 = DIRECTION ( 'NONE',  ( 1.000000000000000000, 0.000000000000000000, 0.000000000000000000 ) ) ;
#359 = EDGE_CURVE ( 'NONE', #270, #100, #443, .T. ) ;
#360 = CARTESIAN_POINT ( 'NONE',  ( 10.00000000000000000, 20.00000000000000000, 40.00000000000000000 ) ) ;
#361 =( NAMED_UNIT ( * ) SI_UNIT ( $, .STERADIAN. ) SOLID_ANGLE_UNIT ( ) );
#362 = CARTESIAN_POINT ( 'NONE',  ( 0.000000000000000000, 0.000000000000000000, 40.00000000000000000 ) ) ;
#363 = PRESENTATION_LAYER_ASSIGNMENT (  '', '', ( #35 ) ) ;
#364 = EDGE_LOOP ( 'NONE', ( #465, #202, #325, #227, #467, #229, #29, #5, #57, #341, #460, #391, #128 ) ) ;
#365 = FACE_OUTER_BOUND ( 'NONE', #76, .T. ) ;
#366 = CARTESIAN_POINT ( 'NONE',  ( 0.000000000000000000, 10.00000000000000000, 80.00000000000000000 ) ) ;
#367 = PLANE ( 'NONE',  #268 ) ;
#368 = ORIENTED_EDGE ( 'NONE', *, *, #280, .F. ) ;
#369 = LINE ( 'NONE', #83, #36 ) ;
#370 = AXIS2_PLACEMENT_3D ( 'NONE', #10, #427, #51 ) ;
#371 = VERTEX_POINT ( 'NONE', #477 ) ;
#372 = EDGE_CURVE ( 'NONE', #336, #38, #86, .T. ) ;
#373 = DIRECTION ( 'NONE',  ( 0.000000000000000000, 0.000000000000000000, 1.000000000000000000 ) ) ;
#374 = EDGE_LOOP ( 'NONE', ( #319, #162 ) ) ;
#375 = MANIFOLD_SOLID_BREP ( 'Schnitt-Linear austragen1', #209 ) ;
#376 = CARTESIAN_POINT ( 'NONE',  ( 15.00000000000000000, 20.00000000000000000, 40.00000000000000000 ) ) ;
#377 = ADVANCED_FACE ( 'NONE', ( #109 ), #139, .F. ) ;
#378 = ORIENTED_EDGE ( 'NONE', *, *, #275, .T. ) ;
#379 = FACE_OUTER_BOUND ( 'NONE', #122, .T. ) ;
#380 = EDGE_LOOP ( 'NONE', ( #8, #174, #383, #305 ) ) ;
#381 = VECTOR ( 'NONE', #187, 1000.000000000000000 ) ;
#382 = SHAPE_DEFINITION_REPRESENTATION ( #335, #326 ) ;
#383 = ORIENTED_EDGE ( 'NONE', *, *, #251, .T. ) ;
#384 = PRODUCT ( 'Ql1i', 'Ql1i', '', ( #6 ) ) ;
#385 = LINE ( 'NONE', #317, #331 ) ;
#386 = ORIENTED_EDGE ( 'NONE', *, *, #221, .F. ) ;
#387 = DIRECTION ( 'NONE',  ( -0.000000000000000000, -1.000000000000000000, -0.000000000000000000 ) ) ;
#388 = VECTOR ( 'NONE', #18, 1000.000000000000000 ) ;
#389 = EDGE_CURVE ( 'NONE', #17, #420, #415, .T. ) ;
#390 = DIRECTION ( 'NONE',  ( 0.000000000000000000, 0.000000000000000000, 1.000000000000000000 ) ) ;
#391 = ORIENTED_EDGE ( 'NONE', *, *, #103, .T. ) ;
#392 = DIRECTION ( 'NONE',  ( 0.000000000000000000, 0.000000000000000000, -1.000000000000000000 ) ) ;
#393 = DIRECTION ( 'NONE',  ( 0.000000000000000000, 0.000000000000000000, -1.000000000000000000 ) ) ;
#394 = VERTEX_POINT ( 'NONE', #118 ) ;
#395 = AXIS2_PLACEMENT_3D ( 'NONE', #409, #92, #16 ) ;
#396 = CIRCLE ( 'NONE', #451, 5.000000000000000888 ) ;
#397 = MECHANICAL_DESIGN_GEOMETRIC_PRESENTATION_REPRESENTATION (  '', ( #35 ), #461 ) ;
#398 = CARTESIAN_POINT ( 'NONE',  ( 0.000000000000000000, 0.000000000000000000, 80.00000000000000000 ) ) ;
#399 = DIRECTION ( 'NONE',  ( 0.000000000000000000, 0.000000000000000000, -1.000000000000000000 ) ) ;
#400 = SURFACE_SIDE_STYLE ('',( #282 ) ) ;
#401 = DIRECTION ( 'NONE',  ( 0.000000000000000000, 0.000000000000000000, -1.000000000000000000 ) ) ;
#402 = DIRECTION ( 'NONE',  ( 0.000000000000000000, 0.000000000000000000, 1.000000000000000000 ) ) ;
#403 = DIRECTION ( 'NONE',  ( -1.000000000000000000, 0.000000000000000000, 0.000000000000000000 ) ) ;
#404 = DIRECTION ( 'NONE',  ( -0.000000000000000000, -0.000000000000000000, 1.000000000000000000 ) ) ;
#405 = PLANE ( 'NONE',  #43 ) ;
#406 =( LENGTH_UNIT ( ) NAMED_UNIT ( * ) SI_UNIT ( .MILLI., .METRE. ) );
#407 = CARTESIAN_POINT ( 'NONE',  ( 15.00000000000000000, 0.000000000000000000, 40.00000000000000000 ) ) ;
#408 = PLANE ( 'NONE',  #225 ) ;
#409 = CARTESIAN_POINT ( 'NONE',  ( 0.000000000000000000, 10.00000000000000000, 40.00000000000000000 ) ) ;
#410 = VECTOR ( 'NONE', #358, 1000.000000000000000 ) ;
#411 = ORIENTED_EDGE ( 'NONE', *, *, #257, .F. ) ;
#412 = ADVANCED_FACE ( 'NONE', ( #418 ), #189, .T. ) ;
#413 = FACE_OUTER_BOUND ( 'NONE', #364, .T. ) ;
#414 = ORIENTED_EDGE ( 'NONE', *, *, #476, .F. ) ;
#415 = LINE ( 'NONE', #376, #13 ) ;
#416 = EDGE_CURVE ( 'NONE', #270, #456, #302, .T. ) ;
#417 = ORIENTED_EDGE ( 'NONE', *, *, #491, .T. ) ;
#418 = FACE_OUTER_BOUND ( 'NONE', #50, .T. ) ;
#419 = EDGE_CURVE ( 'NONE', #124, #478, #258, .T. ) ;
#420 = VERTEX_POINT ( 'NONE', #222 ) ;
#421 = AXIS2_PLACEMENT_3D ( 'NONE', #252, #284, #65 ) ;
#422 = DIRECTION ( 'NONE',  ( 0.000000000000000000, 0.000000000000000000, 1.000000000000000000 ) ) ;
#423 = ORIENTED_EDGE ( 'NONE', *, *, #287, .F. ) ;
#424 = LINE ( 'NONE', #293, #410 ) ;
#425 = EDGE_LOOP ( 'NONE', ( #156, #297, #423, #46, #346, #154, #234, #191 ) ) ;
#426 = ADVANCED_FACE ( 'NONE', ( #226 ), #408, .F. ) ;
#427 = DIRECTION ( 'NONE',  ( -0.000000000000000000, -0.000000000000000000, 1.000000000000000000 ) ) ;
#428 = ORIENTED_EDGE ( 'NONE', *, *, #221, .T. ) ;
#429 = AXIS2_PLACEMENT_3D ( 'NONE', #277, #392, #431 ) ;
#430 = ADVANCED_FACE ( 'NONE', ( #39 ), #266, .F. ) ;
#431 = DIRECTION ( 'NONE',  ( -1.000000000000000000, 0.000000000000000000, -0.000000000000000000 ) ) ;
#432 = DIRECTION ( 'NONE',  ( 1.000000000000000000, 0.000000000000000000, 0.000000000000000000 ) ) ;
#433 = ORIENTED_EDGE ( 'NONE', *, *, #40, .F. ) ;
#434 = FILL_AREA_STYLE ('',( #137 ) ) ;
#435 = CARTESIAN_POINT ( 'NONE',  ( 0.000000000000000000, 0.000000000000000000, 0.000000000000000000 ) ) ;
#436 = CIRCLE ( 'NONE', #471, 4.999999999999999112 ) ;
#437 =( GEOMETRIC_REPRESENTATION_CONTEXT ( 3 ) GLOBAL_UNCERTAINTY_ASSIGNED_CONTEXT ( ( #463 ) ) GLOBAL_UNIT_ASSIGNED_CONTEXT ( ( #406, #114, #91 ) ) REPRESENTATION_CONTEXT ( 'NONE', 'WORKASPACE' ) );
#438 = CARTESIAN_POINT ( 'NONE',  ( 0.000000000000000000, 20.00000000000000000, 80.00000000000000000 ) ) ;
#439 = LINE ( 'NONE', #145, #195 ) ;
#440 = CARTESIAN_POINT ( 'NONE',  ( 20.00000000000000000, 0.000000000000000000, 80.00000000000000000 ) ) ;
#441 = DIRECTION ( 'NONE',  ( -1.000000000000000000, -0.000000000000000000, -0.000000000000000000 ) ) ;
#442 = ADVANCED_FACE ( 'NONE', ( #413 ), #340, .F. ) ;
#443 = LINE ( 'NONE', #362, #294 ) ;
#444 = FACE_OUTER_BOUND ( 'NONE', #279, .T. ) ;
#445 = AXIS2_PLACEMENT_3D ( 'NONE', #144, #147, #246 ) ;
#446 = CARTESIAN_POINT ( 'NONE',  ( 0.000000000000000000, 4.999999999999999112, 40.00000000000000000 ) ) ;
#447 = ADVANCED_FACE ( 'NONE', ( #379 ), #367, .F. ) ;
#448 = DIRECTION ( 'NONE',  ( 1.000000000000000000, 0.000000000000000000, 0.000000000000000000 ) ) ;
#449 = EDGE_LOOP ( 'NONE', ( #259, #386, #433, #475 ) ) ;
#450 = DIRECTION ( 'NONE',  ( -0.000000000000000000, -0.000000000000000000, 1.000000000000000000 ) ) ;
#451 = AXIS2_PLACEMENT_3D ( 'NONE', #366, #182, #250 ) ;
#452 = VECTOR ( 'NONE', #176, 1000.000000000000000 ) ;
#453 = ORIENTED_EDGE ( 'NONE', *, *, #298, .F. ) ;
#454 = EDGE_CURVE ( 'NONE', #124, #87, #81, .T. ) ;
#455 = DIRECTION ( 'NONE',  ( -0.000000000000000000, -0.000000000000000000, -1.000000000000000000 ) ) ;
#456 = VERTEX_POINT ( 'NONE', #150 ) ;
#457 = DIRECTION ( 'NONE',  ( -0.000000000000000000, -0.000000000000000000, 1.000000000000000000 ) ) ;
#458 = EDGE_LOOP ( 'NONE', ( #47, #197, #300, #90, #188, #130, #411, #37 ) ) ;
#459 = DIRECTION ( 'NONE',  ( 1.000000000000000000, 0.000000000000000000, 0.000000000000000000 ) ) ;
#460 = ORIENTED_EDGE ( 'NONE', *, *, #94, .T. ) ;
#461 =( GEOMETRIC_REPRESENTATION_CONTEXT ( 3 ) GLOBAL_UNCERTAINTY_ASSIGNED_CONTEXT ( ( #54 ) ) GLOBAL_UNIT_ASSIGNED_CONTEXT ( ( #211, #213, #361 ) ) REPRESENTATION_CONTEXT ( 'NONE', 'WORKASPACE' ) );
#462 = AXIS2_PLACEMENT_3D ( 'NONE', #89, #390, #55 ) ;
#463 = UNCERTAINTY_MEASURE_WITH_UNIT (LENGTH_MEASURE( 1.000000000000000082E-05 ), #406, 'distance_accuracy_value', 'NONE');
#464 = CARTESIAN_POINT ( 'NONE',  ( 0.000000000000000000, 0.000000000000000000, 80.00000000000000000 ) ) ;
#465 = ORIENTED_EDGE ( 'NONE', *, *, #419, .T. ) ;
#466 = CARTESIAN_POINT ( 'NONE',  ( 5.000000000000000888, 10.00000000000000000, 40.00000000000000000 ) ) ;
#467 = ORIENTED_EDGE ( 'NONE', *, *, #494, .F. ) ;
#468 = PRODUCT_DEFINITION ( 'UNKNOWN', '', #79, #131 ) ;
#469 = CARTESIAN_POINT ( 'NONE',  ( 20.00000000000000000, 0.000000000000000000, 0.000000000000000000 ) ) ;
#470 = ORIENTED_EDGE ( 'NONE', *, *, #194, .F. ) ;
#471 = AXIS2_PLACEMENT_3D ( 'NONE', #179, #140, #72 ) ;
#472 = AXIS2_PLACEMENT_3D ( 'NONE', #242, #239, #129 ) ;
#473 = ADVANCED_FACE ( 'NONE', ( #4 ), #75, .T. ) ;
#474 = CARTESIAN_POINT ( 'NONE',  ( 10.00000000000000000, 20.00000000000000000, 80.00000000000000000 ) ) ;
#475 = ORIENTED_EDGE ( 'NONE', *, *, #103, .F. ) ;
#476 = EDGE_CURVE ( 'NONE', #87, #166, #369, .T. ) ;
#477 = CARTESIAN_POINT ( 'NONE',  ( 20.00000000000000000, 15.00000000000000178, 80.00000000000000000 ) ) ;
#478 = VERTEX_POINT ( 'NONE', #230 ) ;
#479 = DIRECTION ( 'NONE',  ( -0.000000000000000000, -0.000000000000000000, 1.000000000000000000 ) ) ;
#480 = CIRCLE ( 'NONE', #217, 5.000000000000000888 ) ;
#481 = CARTESIAN_POINT ( 'NONE',  ( 20.00000000000000000, 0.000000000000000000, 80.00000000000000000 ) ) ;
#482 = CARTESIAN_POINT ( 'NONE',  ( 0.000000000000000000, 0.000000000000000000, 80.00000000000000000 ) ) ;
#483 = CARTESIAN_POINT ( 'NONE',  ( 0.000000000000000000, 4.999999999999999112, 80.00000000000000000 ) ) ;
#484 = VERTEX_POINT ( 'NONE', #329 ) ;
#485 = CYLINDRICAL_SURFACE ( 'NONE', #445, 5.000000000000000888 ) ;
#486 = DIRECTION ( 'NONE',  ( -1.000000000000000000, 0.000000000000000000, 0.000000000000000000 ) ) ;
#487 = DIRECTION ( 'NONE',  ( 1.000000000000000000, 0.000000000000000000, 0.000000000000000000 ) ) ;
#488 = AXIS2_PLACEMENT_3D ( 'NONE', #218, #327, #68 ) ;
#489 = ORIENTED_EDGE ( 'NONE', *, *, #354, .F. ) ;
#490 = CARTESIAN_POINT ( 'NONE',  ( 5.000000000000000888, 10.00000000000000000, 40.00000000000000000 ) ) ;
#491 = EDGE_CURVE ( 'NONE', #166, #135, #34, .T. ) ;
#492 = VERTEX_POINT ( 'NONE', #490 ) ;
#493 = ORIENTED_EDGE ( 'NONE', *, *, #350, .T. ) ;
#494 = EDGE_CURVE ( 'NONE', #371, #61, #278, .T. ) ;
ENDSEC;
END-ISO-10303-21;
