ISO-10303-21;
HEADER;
FILE_DESCRIPTION (( 'STEP AP214' ),
    '1' );
FILE_NAME ('Ql2a.STEP',
    '2025-09-08T12:25:17',
    ( '' ),
    ( '' ),
    'SwSTEP 2.0',
    'SolidWorks 2024',
    '' );
FILE_SCHEMA (( 'AUTOMOTIVE_DESIGN' ));
ENDSEC;

DATA;
#1 = FACE_OUTER_BOUND ( 'NONE', #125, .T. ) ;
#2 = DIRECTION ( 'NONE',  ( -1.000000000000000000, 0.000000000000000000, 0.000000000000000000 ) ) ;
#3 = FACE_OUTER_BOUND ( 'NONE', #346, .T. ) ;
#4 = ORIENTED_EDGE ( 'NONE', *, *, #294, .T. ) ;
#5 = DIRECTION ( 'NONE',  ( -0.000000000000000000, -0.000000000000000000, -1.000000000000000000 ) ) ;
#6 = LINE ( 'NONE', #270, #247 ) ;
#7 = DIRECTION ( 'NONE',  ( 1.000000000000000000, 0.000000000000000000, 0.000000000000000000 ) ) ;
#8 = VECTOR ( 'NONE', #435, 1000.000000000000000 ) ;
#9 = DIRECTION ( 'NONE',  ( 0.000000000000000000, -0.000000000000000000, -1.000000000000000000 ) ) ;
#10 = DIRECTION ( 'NONE',  ( -0.000000000000000000, -0.000000000000000000, -1.000000000000000000 ) ) ;
#11 = ORIENTED_EDGE ( 'NONE', *, *, #34, .F. ) ;
#12 = EDGE_CURVE ( 'NONE', #252, #263, #209, .T. ) ;
#13 = LINE ( 'NONE', #84, #87 ) ;
#14 = ORIENTED_EDGE ( 'NONE', *, *, #400, .T. ) ;
#15 = VECTOR ( 'NONE', #183, 1000.000000000000000 ) ;
#16 = LINE ( 'NONE', #298, #8 ) ;
#17 = LINE ( 'NONE', #366, #219 ) ;
#18 = FACE_OUTER_BOUND ( 'NONE', #259, .T. ) ;
#19 = ADVANCED_FACE ( 'NONE', ( #352 ), #215, .T. ) ;
#20 = ORIENTED_EDGE ( 'NONE', *, *, #213, .F. ) ;
#21 = VECTOR ( 'NONE', #128, 1000.000000000000000 ) ;
#22 = CARTESIAN_POINT ( 'NONE',  ( 20.00000000000000000, 14.00000000000000355, 80.00000000000000000 ) ) ;
#23 = ORIENTED_EDGE ( 'NONE', *, *, #358, .F. ) ;
#24 = CARTESIAN_POINT ( 'NONE',  ( 0.000000000000000000, 0.000000000000000000, 80.00000000000000000 ) ) ;
#25 = ORIENTED_EDGE ( 'NONE', *, *, #63, .T. ) ;
#26 = PRODUCT_RELATED_PRODUCT_CATEGORY ( 'part', '', ( #145 ) ) ;
#27 = EDGE_LOOP ( 'NONE', ( #321, #239, #414, #297 ) ) ;
#28 = AXIS2_PLACEMENT_3D ( 'NONE', #214, #138, #248 ) ;
#29 = LINE ( 'NONE', #378, #274 ) ;
#30 = AXIS2_PLACEMENT_3D ( 'NONE', #173, #286, #429 ) ;
#31 = ORIENTED_EDGE ( 'NONE', *, *, #406, .T. ) ;
#32 = DIRECTION ( 'NONE',  ( 0.000000000000000000, 1.000000000000000000, 0.000000000000000000 ) ) ;
#33 = ORIENTED_EDGE ( 'NONE', *, *, #351, .F. ) ;
#34 = EDGE_CURVE ( 'NONE', #137, #246, #324, .T. ) ;
#35 = PLANE ( 'NONE',  #334 ) ;
#36 = UNCERTAINTY_MEASURE_WITH_UNIT (LENGTH_MEASURE( 1.000000000000000082E-05 ), #377, 'distance_accuracy_value', 'NONE');
#37 = CARTESIAN_POINT ( 'NONE',  ( 20.00000000000000000, 17.00000000000000000, -4.163336342344337027E-14 ) ) ;
#38 = DIRECTION ( 'NONE',  ( 0.000000000000000000, 1.000000000000000000, 0.000000000000000000 ) ) ;
#39 = VERTEX_POINT ( 'NONE', #37 ) ;
#40 = VECTOR ( 'NONE', #71, 1000.000000000000000 ) ;
#41 = AXIS2_PLACEMENT_3D ( 'NONE', #381, #92, #408 ) ;
#42 = LINE ( 'NONE', #179, #283 ) ;
#43 = PLANE ( 'NONE',  #176 ) ;
#44 = LINE ( 'NONE', #218, #217 ) ;
#45 = ADVANCED_FACE ( 'NONE', ( #254 ), #392, .F. ) ;
#46 = CARTESIAN_POINT ( 'NONE',  ( 0.000000000000000000, 0.000000000000000000, 80.00000000000000000 ) ) ;
#47 = PRESENTATION_LAYER_ASSIGNMENT (  '', '', ( #290 ) ) ;
#48 = CARTESIAN_POINT ( 'NONE',  ( 20.00000000000000000, 14.00000000000000355, -4.163336342344337027E-14 ) ) ;
#49 = ADVANCED_FACE ( 'NONE', ( #108 ), #43, .T. ) ;
#50 = MANIFOLD_SOLID_BREP ( 'Aufsatz-Linear austragen6', #54 ) ;
#51 = DIRECTION ( 'NONE',  ( -1.000000000000000000, -0.000000000000000000, -0.000000000000000000 ) ) ;
#52 = CARTESIAN_POINT ( 'NONE',  ( 20.00000000000000000, 0.000000000000000000, 0.000000000000000000 ) ) ;
#53 = AXIS2_PLACEMENT_3D ( 'NONE', #251, #221, #363 ) ;
#54 = CLOSED_SHELL ( 'NONE', ( #45, #235, #149, #223, #307, #191, #280, #49, #19, #342, #262, #323, #116, #185 ) ) ;
#55 = CARTESIAN_POINT ( 'NONE',  ( 22.00000000000000000, 14.00000000000000178, -4.163336342344337027E-14 ) ) ;
#56 = CARTESIAN_POINT ( 'NONE',  ( 0.000000000000000000, 0.000000000000000000, 80.00000000000000000 ) ) ;
#57 = EDGE_CURVE ( 'NONE', #151, #67, #308, .T. ) ;
#58 = EDGE_LOOP ( 'NONE', ( #282, #271, #314, #25 ) ) ;
#59 = CARTESIAN_POINT ( 'NONE',  ( 22.00000000000000000, 6.000000000000000000, -4.163336342344337027E-14 ) ) ;
#60 = ORIENTED_EDGE ( 'NONE', *, *, #451, .T. ) ;
#61 = SURFACE_STYLE_USAGE ( .BOTH. , #241 ) ;
#62 = ORIENTED_EDGE ( 'NONE', *, *, #249, .F. ) ;
#63 = EDGE_CURVE ( 'NONE', #263, #67, #6, .T. ) ;
#64 = DIRECTION ( 'NONE',  ( -0.000000000000000000, -1.000000000000000000, -0.000000000000000000 ) ) ;
#65 = ORIENTED_EDGE ( 'NONE', *, *, #390, .F. ) ;
#66 = DIRECTION ( 'NONE',  ( -0.000000000000000000, 1.000000000000000000, -0.000000000000000000 ) ) ;
#67 = VERTEX_POINT ( 'NONE', #200 ) ;
#68 = APPLICATION_PROTOCOL_DEFINITION ( 'draft international standard', 'automotive_design', 1998, #189 ) ;
#69 =( GEOMETRIC_REPRESENTATION_CONTEXT ( 3 ) GLOBAL_UNCERTAINTY_ASSIGNED_CONTEXT ( ( #211 ) ) GLOBAL_UNIT_ASSIGNED_CONTEXT ( ( #136, #281, #347 ) ) REPRESENTATION_CONTEXT ( 'NONE', 'WORKASPACE' ) );
#70 = VERTEX_POINT ( 'NONE', #243 ) ;
#71 = DIRECTION ( 'NONE',  ( -1.000000000000000000, -0.000000000000000000, -0.000000000000000000 ) ) ;
#72 = ORIENTED_EDGE ( 'NONE', *, *, #434, .F. ) ;
#73 = FACE_OUTER_BOUND ( 'NONE', #387, .T. ) ;
#74 = ORIENTED_EDGE ( 'NONE', *, *, #168, .T. ) ;
#75 = PRODUCT_DEFINITION_SHAPE ( 'NONE', 'NONE',  #328 ) ;
#76 = LINE ( 'NONE', #140, #206 ) ;
#77 = DIRECTION ( 'NONE',  ( 0.000000000000000000, 0.000000000000000000, -1.000000000000000000 ) ) ;
#78 = EDGE_CURVE ( 'NONE', #448, #383, #29, .T. ) ;
#79 = CARTESIAN_POINT ( 'NONE',  ( 0.000000000000000000, 0.000000000000000000, 80.00000000000000000 ) ) ;
#80 = CARTESIAN_POINT ( 'NONE',  ( 20.00000000000000000, 0.000000000000000000, 0.000000000000000000 ) ) ;
#81 = PLANE ( 'NONE',  #114 ) ;
#82 = EDGE_CURVE ( 'NONE', #380, #93, #126, .T. ) ;
#83 = LINE ( 'NONE', #395, #384 ) ;
#84 = CARTESIAN_POINT ( 'NONE',  ( 0.000000000000000000, 20.00000000000000000, 80.00000000000000000 ) ) ;
#85 = CARTESIAN_POINT ( 'NONE',  ( 20.00000000000000000, 14.00000000000000355, -4.163336342344337027E-14 ) ) ;
#86 = VECTOR ( 'NONE', #284, 1000.000000000000000 ) ;
#87 = VECTOR ( 'NONE', #10, 1000.000000000000000 ) ;
#88 = EDGE_CURVE ( 'NONE', #383, #438, #409, .T. ) ;
#89 = VECTOR ( 'NONE', #266, 1000.000000000000000 ) ;
#90 = CARTESIAN_POINT ( 'NONE',  ( 20.00000000000000000, 6.000000000000000000, -4.163336342344337027E-14 ) ) ;
#91 = ORIENTED_EDGE ( 'NONE', *, *, #159, .T. ) ;
#92 = DIRECTION ( 'NONE',  ( 0.000000000000000000, 0.000000000000000000, 1.000000000000000000 ) ) ;
#93 = VERTEX_POINT ( 'NONE', #167 ) ;
#94 = FACE_OUTER_BOUND ( 'NONE', #58, .T. ) ;
#95 = ORIENTED_EDGE ( 'NONE', *, *, #444, .T. ) ;
#96 = FACE_OUTER_BOUND ( 'NONE', #129, .T. ) ;
#97 = ORIENTED_EDGE ( 'NONE', *, *, #63, .F. ) ;
#98 = ORIENTED_EDGE ( 'NONE', *, *, #141, .T. ) ;
#99 =( NAMED_UNIT ( * ) PLANE_ANGLE_UNIT ( ) SI_UNIT ( $, .RADIAN. ) );
#100 = DIRECTION ( 'NONE',  ( 1.000000000000000000, -8.673617379884042375E-16, 0.000000000000000000 ) ) ;
#101 = ORIENTED_EDGE ( 'NONE', *, *, #406, .F. ) ;
#102 = EDGE_CURVE ( 'NONE', #244, #205, #447, .T. ) ;
#103 = AXIS2_PLACEMENT_3D ( 'NONE', #386, #327, #182 ) ;
#104 = CARTESIAN_POINT ( 'NONE',  ( 22.00000000000000000, 3.000000000000000000, -4.163336342344337027E-14 ) ) ;
#105 = VECTOR ( 'NONE', #51, 1000.000000000000000 ) ;
#106 = EDGE_LOOP ( 'NONE', ( #134, #72, #127, #277, #216, #169, #164, #445, #142, #101, #289, #335 ) ) ;
#107 = LINE ( 'NONE', #46, #86 ) ;
#108 = FACE_OUTER_BOUND ( 'NONE', #106, .T. ) ;
#109 = LINE ( 'NONE', #79, #147 ) ;
#110 = DIRECTION ( 'NONE',  ( 0.000000000000000000, -0.000000000000000000, 1.000000000000000000 ) ) ;
#111 = EDGE_CURVE ( 'NONE', #263, #244, #197, .T. ) ;
#112 = CARTESIAN_POINT ( 'NONE',  ( 20.00000000000000000, 6.000000000000000000, 80.00000000000000000 ) ) ;
#113 = VECTOR ( 'NONE', #66, 1000.000000000000000 ) ;
#114 = AXIS2_PLACEMENT_3D ( 'NONE', #231, #121, #365 ) ;
#115 = LINE ( 'NONE', #80, #359 ) ;
#116 = ADVANCED_FACE ( 'NONE', ( #94 ), #416, .T. ) ;
#117 = CARTESIAN_POINT ( 'NONE',  ( 20.00000000000000000, 3.000000000000000000, -4.163336342344337027E-14 ) ) ;
#118 = CARTESIAN_POINT ( 'NONE',  ( 20.00000000000000000, 0.000000000000000000, 80.00000000000000000 ) ) ;
#119 = AXIS2_PLACEMENT_3D ( 'NONE', #59, #276, #245 ) ;
#120 = LINE ( 'NONE', #85, #226 ) ;
#121 = DIRECTION ( 'NONE',  ( -1.000000000000000000, 0.000000000000000000, 0.000000000000000000 ) ) ;
#122 = EDGE_CURVE ( 'NONE', #161, #70, #345, .T. ) ;
#123 = CARTESIAN_POINT ( 'NONE',  ( 20.00000000000000000, 0.000000000000000000, 80.00000000000000000 ) ) ;
#124 = VECTOR ( 'NONE', #278, 1000.000000000000000 ) ;
#125 = EDGE_LOOP ( 'NONE', ( #91, #198, #178, #338 ) ) ;
#126 = LINE ( 'NONE', #272, #261 ) ;
#127 = ORIENTED_EDGE ( 'NONE', *, *, #294, .F. ) ;
#128 = DIRECTION ( 'NONE',  ( 1.000000000000000000, -8.673617379884042375E-16, 0.000000000000000000 ) ) ;
#129 = EDGE_LOOP ( 'NONE', ( #132, #306, #397, #371 ) ) ;
#130 = APPLICATION_PROTOCOL_DEFINITION ( 'draft international standard', 'automotive_design', 1998, #180 ) ;
#131 = CARTESIAN_POINT ( 'NONE',  ( 22.00000000000000000, 17.00000000000000000, -4.163336342344337027E-14 ) ) ;
#132 = ORIENTED_EDGE ( 'NONE', *, *, #82, .T. ) ;
#133 = DIRECTION ( 'NONE',  ( 0.000000000000000000, 0.000000000000000000, 1.000000000000000000 ) ) ;
#134 = ORIENTED_EDGE ( 'NONE', *, *, #82, .F. ) ;
#135 = EDGE_CURVE ( 'NONE', #436, #93, #382, .T. ) ;
#136 =( LENGTH_UNIT ( ) NAMED_UNIT ( * ) SI_UNIT ( .MILLI., .METRE. ) );
#137 = VERTEX_POINT ( 'NONE', #350 ) ;
#138 = DIRECTION ( 'NONE',  ( 0.000000000000000000, 1.000000000000000000, 0.000000000000000000 ) ) ;
#139 = EDGE_LOOP ( 'NONE', ( #190, #442, #212, #425 ) ) ;
#140 = CARTESIAN_POINT ( 'NONE',  ( 20.00000000000000000, 20.00000000000000000, 80.00000000000000000 ) ) ;
#141 = EDGE_CURVE ( 'NONE', #344, #299, #412, .T. ) ;
#142 = ORIENTED_EDGE ( 'NONE', *, *, #12, .F. ) ;
#143 = PLANE ( 'NONE',  #28 ) ;
#144 = FILL_AREA_STYLE_COLOUR ( '', #368 ) ;
#145 = PRODUCT ( 'Ql2a', 'Ql2a', '', ( #234 ) ) ;
#146 = FACE_OUTER_BOUND ( 'NONE', #139, .T. ) ;
#147 = VECTOR ( 'NONE', #255, 1000.000000000000000 ) ;
#148 = LINE ( 'NONE', #360, #15 ) ;
#149 = ADVANCED_FACE ( 'NONE', ( #96 ), #315, .F. ) ;
#150 = LINE ( 'NONE', #402, #420 ) ;
#151 = VERTEX_POINT ( 'NONE', #310 ) ;
#152 = LINE ( 'NONE', #55, #291 ) ;
#153 = VECTOR ( 'NONE', #133, 1000.000000000000000 ) ;
#154 = CARTESIAN_POINT ( 'NONE',  ( 22.00000000000000000, 17.00000000000000000, -4.163336342344337027E-14 ) ) ;
#155 = ORIENTED_EDGE ( 'NONE', *, *, #317, .T. ) ;
#156 = LINE ( 'NONE', #117, #89 ) ;
#157 = LINE ( 'NONE', #433, #207 ) ;
#158 = ORIENTED_EDGE ( 'NONE', *, *, #175, .T. ) ;
#159 = EDGE_CURVE ( 'NONE', #93, #344, #373, .T. ) ;
#160 = CARTESIAN_POINT ( 'NONE',  ( 0.000000000000000000, 0.000000000000000000, 0.000000000000000000 ) ) ;
#161 = VERTEX_POINT ( 'NONE', #22 ) ;
#162 = VERTEX_POINT ( 'NONE', #305 ) ;
#163 = DIRECTION ( 'NONE',  ( 1.000000000000000000, 0.000000000000000000, 0.000000000000000000 ) ) ;
#164 = ORIENTED_EDGE ( 'NONE', *, *, #268, .F. ) ;
#165 = VECTOR ( 'NONE', #32, 1000.000000000000000 ) ;
#166 = AXIS2_PLACEMENT_3D ( 'NONE', #154, #331, #431 ) ;
#167 = CARTESIAN_POINT ( 'NONE',  ( 0.000000000000000000, 0.000000000000000000, 0.000000000000000000 ) ) ;
#168 = EDGE_CURVE ( 'NONE', #246, #436, #109, .T. ) ;
#169 = ORIENTED_EDGE ( 'NONE', *, *, #78, .F. ) ;
#170 = PRESENTATION_STYLE_ASSIGNMENT (( #61 ) ) ;
#171 = PRODUCT_DEFINITION_CONTEXT ( 'detailed design', #189, 'design' ) ;
#172 = CARTESIAN_POINT ( 'NONE',  ( 0.000000000000000000, 20.00000000000000000, 80.00000000000000000 ) ) ;
#173 = CARTESIAN_POINT ( 'NONE',  ( 20.00000000000000000, 14.00000000000000355, -4.163336342344337027E-14 ) ) ;
#174 = ORIENTED_EDGE ( 'NONE', *, *, #175, .F. ) ;
#175 = EDGE_CURVE ( 'NONE', #70, #419, #44, .T. ) ;
#176 = AXIS2_PLACEMENT_3D ( 'NONE', #389, #77, #361 ) ;
#177 = DIRECTION ( 'NONE',  ( 0.000000000000000000, 0.000000000000000000, -1.000000000000000000 ) ) ;
#178 = ORIENTED_EDGE ( 'NONE', *, *, #228, .F. ) ;
#179 = CARTESIAN_POINT ( 'NONE',  ( 20.00000000000000000, 3.000000000000000000, 80.00000000000000000 ) ) ;
#180 = APPLICATION_CONTEXT ( 'automotive_design' ) ;
#181 = ORIENTED_EDGE ( 'NONE', *, *, #256, .T. ) ;
#182 = DIRECTION ( 'NONE',  ( 0.000000000000000000, 0.000000000000000000, 1.000000000000000000 ) ) ;
#183 = DIRECTION ( 'NONE',  ( 0.000000000000000000, 0.000000000000000000, 1.000000000000000000 ) ) ;
#184 = VECTOR ( 'NONE', #339, 1000.000000000000000 ) ;
#185 = ADVANCED_FACE ( 'NONE', ( #325 ), #35, .T. ) ;
#186 = CARTESIAN_POINT ( 'NONE',  ( 20.00000000000000000, 3.000000000000000000, -4.163336342344337027E-14 ) ) ;
#187 = ORIENTED_EDGE ( 'NONE', *, *, #228, .T. ) ;
#188 = DIRECTION ( 'NONE',  ( -0.000000000000000000, -0.000000000000000000, -1.000000000000000000 ) ) ;
#189 = APPLICATION_CONTEXT ( 'automotive_design' ) ;
#190 = ORIENTED_EDGE ( 'NONE', *, *, #122, .F. ) ;
#191 = ADVANCED_FACE ( 'NONE', ( #3 ), #257, .F. ) ;
#192 = DIRECTION ( 'NONE',  ( 0.000000000000000000, 1.000000000000000000, 0.000000000000000000 ) ) ;
#193 = DIRECTION ( 'NONE',  ( 1.000000000000000000, 0.000000000000000000, 0.000000000000000000 ) ) ;
#194 = LINE ( 'NONE', #240, #446 ) ;
#195 = EDGE_CURVE ( 'NONE', #205, #161, #393, .T. ) ;
#196 = ORIENTED_EDGE ( 'NONE', *, *, #434, .T. ) ;
#197 = LINE ( 'NONE', #202, #124 ) ;
#198 = ORIENTED_EDGE ( 'NONE', *, *, #302, .F. ) ;
#199 = PRODUCT_DEFINITION_FORMATION_WITH_SPECIFIED_SOURCE ( 'ANY', '', #145, .NOT_KNOWN. ) ;
#200 = CARTESIAN_POINT ( 'NONE',  ( 22.00000000000000000, 6.000000000000000000, 80.00000000000000000 ) ) ;
#201 = ORIENTED_EDGE ( 'NONE', *, *, #390, .T. ) ;
#202 = CARTESIAN_POINT ( 'NONE',  ( 20.00000000000000000, 6.000000000000000000, -4.163336342344337027E-14 ) ) ;
#203 = ORIENTED_EDGE ( 'NONE', *, *, #256, .F. ) ;
#204 = EDGE_CURVE ( 'NONE', #39, #233, #148, .T. ) ;
#205 = VERTEX_POINT ( 'NONE', #112 ) ;
#206 = VECTOR ( 'NONE', #5, 1000.000000000000000 ) ;
#207 = VECTOR ( 'NONE', #398, 1000.000000000000000 ) ;
#208 = DIRECTION ( 'NONE',  ( 0.000000000000000000, 0.000000000000000000, 1.000000000000000000 ) ) ;
#209 = LINE ( 'NONE', #319, #312 ) ;
#210 = CARTESIAN_POINT ( 'NONE',  ( 20.00000000000000000, 17.00000000000000000, 80.00000000000000000 ) ) ;
#211 = UNCERTAINTY_MEASURE_WITH_UNIT (LENGTH_MEASURE( 1.000000000000000082E-05 ), #136, 'distance_accuracy_value', 'NONE');
#212 = ORIENTED_EDGE ( 'NONE', *, *, #78, .T. ) ;
#213 = EDGE_CURVE ( 'NONE', #137, #376, #76, .T. ) ;
#214 = CARTESIAN_POINT ( 'NONE',  ( 0.000000000000000000, 0.000000000000000000, 80.00000000000000000 ) ) ;
#215 = PLANE ( 'NONE',  #326 ) ;
#216 = ORIENTED_EDGE ( 'NONE', *, *, #88, .F. ) ;
#217 = VECTOR ( 'NONE', #288, 1000.000000000000000 ) ;
#218 = CARTESIAN_POINT ( 'NONE',  ( 22.00000000000000000, 17.00000000000000000, 80.00000000000000000 ) ) ;
#219 = VECTOR ( 'NONE', #192, 1000.000000000000000 ) ;
#220 = ORIENTED_EDGE ( 'NONE', *, *, #102, .T. ) ;
#221 = DIRECTION ( 'NONE',  ( 0.000000000000000000, -1.000000000000000000, 0.000000000000000000 ) ) ;
#222 = PLANE ( 'NONE',  #313 ) ;
#223 = ADVANCED_FACE ( 'NONE', ( #1 ), #143, .F. ) ;
#224 = PLANE ( 'NONE',  #369 ) ;
#225 = AXIS2_PLACEMENT_3D ( 'NONE', #285, #2, #423 ) ;
#226 = VECTOR ( 'NONE', #430, 1000.000000000000000 ) ;
#227 = CARTESIAN_POINT ( 'NONE',  ( 20.00000000000000000, 3.000000000000000000, 0.000000000000000000 ) ) ;
#228 = EDGE_CURVE ( 'NONE', #436, #250, #107, .T. ) ;
#229 = ORIENTED_EDGE ( 'NONE', *, *, #374, .T. ) ;
#230 = DIRECTION ( 'NONE',  ( 0.000000000000000000, 1.000000000000000000, 0.000000000000000000 ) ) ;
#231 = CARTESIAN_POINT ( 'NONE',  ( 20.00000000000000000, 0.000000000000000000, 80.00000000000000000 ) ) ;
#232 = CARTESIAN_POINT ( 'NONE',  ( 20.00000000000000000, 20.00000000000000000, 0.000000000000000000 ) ) ;
#233 = VERTEX_POINT ( 'NONE', #394 ) ;
#234 = PRODUCT_CONTEXT ( 'NONE', #180, 'mechanical' ) ;
#235 = ADVANCED_FACE ( 'NONE', ( #73 ), #293, .F. ) ;
#236 = DIRECTION ( 'NONE',  ( 1.000000000000000000, 0.000000000000000000, 0.000000000000000000 ) ) ;
#237 = ORIENTED_EDGE ( 'NONE', *, *, #444, .F. ) ;
#238 = CARTESIAN_POINT ( 'NONE',  ( 20.00000000000000000, 14.00000000000000355, 80.00000000000000000 ) ) ;
#239 = ORIENTED_EDGE ( 'NONE', *, *, #102, .F. ) ;
#240 = CARTESIAN_POINT ( 'NONE',  ( 20.00000000000000000, 6.000000000000000000, 80.00000000000000000 ) ) ;
#241 = SURFACE_SIDE_STYLE ('',( #279 ) ) ;
#242 = ORIENTED_EDGE ( 'NONE', *, *, #204, .F. ) ;
#243 = CARTESIAN_POINT ( 'NONE',  ( 22.00000000000000000, 14.00000000000000178, 80.00000000000000000 ) ) ;
#244 = VERTEX_POINT ( 'NONE', #362 ) ;
#245 = DIRECTION ( 'NONE',  ( -0.000000000000000000, 0.000000000000000000, -1.000000000000000000 ) ) ;
#246 = VERTEX_POINT ( 'NONE', #426 ) ;
#247 = VECTOR ( 'NONE', #208, 1000.000000000000000 ) ;
#248 = DIRECTION ( 'NONE',  ( 0.000000000000000000, -0.000000000000000000, 1.000000000000000000 ) ) ;
#249 = EDGE_CURVE ( 'NONE', #162, #151, #42, .T. ) ;
#250 = VERTEX_POINT ( 'NONE', #292 ) ;
#251 = CARTESIAN_POINT ( 'NONE',  ( 0.000000000000000000, 20.00000000000000000, 80.00000000000000000 ) ) ;
#252 = VERTEX_POINT ( 'NONE', #104 ) ;
#253 = CARTESIAN_POINT ( 'NONE',  ( 20.00000000000000000, 0.000000000000000000, 80.00000000000000000 ) ) ;
#254 = FACE_OUTER_BOUND ( 'NONE', #27, .T. ) ;
#255 = DIRECTION ( 'NONE',  ( -0.000000000000000000, -1.000000000000000000, -0.000000000000000000 ) ) ;
#256 = EDGE_CURVE ( 'NONE', #419, #233, #322, .T. ) ;
#257 = PLANE ( 'NONE',  #53 ) ;
#258 = DIRECTION ( 'NONE',  ( 0.000000000000000000, -0.000000000000000000, 1.000000000000000000 ) ) ;
#259 = EDGE_LOOP ( 'NONE', ( #98, #95, #269, #341 ) ) ;
#260 = FACE_OUTER_BOUND ( 'NONE', #417, .T. ) ;
#261 = VECTOR ( 'NONE', #64, 1000.000000000000000 ) ;
#262 = ADVANCED_FACE ( 'NONE', ( #146 ), #355, .T. ) ;
#263 = VERTEX_POINT ( 'NONE', #320 ) ;
#264 = LINE ( 'NONE', #123, #267 ) ;
#265 = DIRECTION ( 'NONE',  ( 0.000000000000000000, 1.000000000000000000, 0.000000000000000000 ) ) ;
#266 = DIRECTION ( 'NONE',  ( 0.000000000000000000, 0.000000000000000000, 1.000000000000000000 ) ) ;
#267 = VECTOR ( 'NONE', #230, 1000.000000000000000 ) ;
#268 = EDGE_CURVE ( 'NONE', #244, #448, #115, .T. ) ;
#269 = ORIENTED_EDGE ( 'NONE', *, *, #400, .F. ) ;
#270 = CARTESIAN_POINT ( 'NONE',  ( 22.00000000000000000, 6.000000000000000000, -4.163336342344337027E-14 ) ) ;
#271 = ORIENTED_EDGE ( 'NONE', *, *, #374, .F. ) ;
#272 = CARTESIAN_POINT ( 'NONE',  ( 0.000000000000000000, 0.000000000000000000, 0.000000000000000000 ) ) ;
#273 = ORIENTED_EDGE ( 'NONE', *, *, #122, .T. ) ;
#274 = VECTOR ( 'NONE', #100, 1000.000000000000000 ) ;
#275 = DIRECTION ( 'NONE',  ( -1.000000000000000000, -0.000000000000000000, -0.000000000000000000 ) ) ;
#276 = DIRECTION ( 'NONE',  ( 1.000000000000000000, 0.000000000000000000, -0.000000000000000000 ) ) ;
#277 = ORIENTED_EDGE ( 'NONE', *, *, #317, .F. ) ;
#278 = DIRECTION ( 'NONE',  ( -1.000000000000000000, -0.000000000000000000, -0.000000000000000000 ) ) ;
#279 = SURFACE_STYLE_FILL_AREA ( #427 ) ;
#280 = ADVANCED_FACE ( 'NONE', ( #421 ), #222, .F. ) ;
#281 =( NAMED_UNIT ( * ) PLANE_ANGLE_UNIT ( ) SI_UNIT ( $, .RADIAN. ) );
#282 = ORIENTED_EDGE ( 'NONE', *, *, #57, .F. ) ;
#283 = VECTOR ( 'NONE', #7, 1000.000000000000000 ) ;
#284 = DIRECTION ( 'NONE',  ( 1.000000000000000000, 0.000000000000000000, 0.000000000000000000 ) ) ;
#285 = CARTESIAN_POINT ( 'NONE',  ( 20.00000000000000000, 0.000000000000000000, 80.00000000000000000 ) ) ;
#286 = DIRECTION ( 'NONE',  ( -8.673617379884042375E-16, -1.000000000000000000, 0.000000000000000000 ) ) ;
#287 = DIRECTION ( 'NONE',  ( -0.000000000000000000, 1.000000000000000000, -0.000000000000000000 ) ) ;
#288 = DIRECTION ( 'NONE',  ( -0.000000000000000000, 1.000000000000000000, -0.000000000000000000 ) ) ;
#289 = ORIENTED_EDGE ( 'NONE', *, *, #141, .F. ) ;
#290 = STYLED_ITEM ( 'NONE', ( #170 ), #50 ) ;
#291 = VECTOR ( 'NONE', #336, 1000.000000000000000 ) ;
#292 = CARTESIAN_POINT ( 'NONE',  ( 20.00000000000000000, 0.000000000000000000, 80.00000000000000000 ) ) ;
#293 = PLANE ( 'NONE',  #103 ) ;
#294 = EDGE_CURVE ( 'NONE', #39, #376, #83, .T. ) ;
#295 = CARTESIAN_POINT ( 'NONE',  ( 22.00000000000000000, 14.00000000000000178, -4.163336342344337027E-14 ) ) ;
#296 = CARTESIAN_POINT ( 'NONE',  ( 20.00000000000000000, 17.00000000000000000, -4.163336342344337027E-14 ) ) ;
#297 = ORIENTED_EDGE ( 'NONE', *, *, #396, .T. ) ;
#298 = CARTESIAN_POINT ( 'NONE',  ( 0.000000000000000000, 20.00000000000000000, 0.000000000000000000 ) ) ;
#299 = VERTEX_POINT ( 'NONE', #227 ) ;
#300 = FACE_OUTER_BOUND ( 'NONE', #349, .T. ) ;
#301 = ADVANCED_BREP_SHAPE_REPRESENTATION ( 'Ql2a', ( #50, #41 ), #385 ) ;
#302 = EDGE_CURVE ( 'NONE', #250, #344, #399, .T. ) ;
#303 = AXIS2_PLACEMENT_3D ( 'NONE', #24, #163, #449 ) ;
#304 = ORIENTED_EDGE ( 'NONE', *, *, #88, .T. ) ;
#305 = CARTESIAN_POINT ( 'NONE',  ( 20.00000000000000000, 3.000000000000000000, 80.00000000000000000 ) ) ;
#306 = ORIENTED_EDGE ( 'NONE', *, *, #135, .F. ) ;
#307 = ADVANCED_FACE ( 'NONE', ( #18 ), #81, .F. ) ;
#308 = LINE ( 'NONE', #439, #113 ) ;
#309 = ORIENTED_EDGE ( 'NONE', *, *, #451, .F. ) ;
#310 = CARTESIAN_POINT ( 'NONE',  ( 22.00000000000000000, 3.000000000000000000, 80.00000000000000000 ) ) ;
#311 = EDGE_LOOP ( 'NONE', ( #74, #187, #14, #356, #375, #60, #410, #273, #158, #181, #330, #415 ) ) ;
#312 = VECTOR ( 'NONE', #287, 1000.000000000000000 ) ;
#313 = AXIS2_PLACEMENT_3D ( 'NONE', #353, #177, #391 ) ;
#314 = ORIENTED_EDGE ( 'NONE', *, *, #12, .T. ) ;
#315 = PLANE ( 'NONE',  #303 ) ;
#316 = DIRECTION ( 'NONE',  ( 0.000000000000000000, 1.000000000000000000, 0.000000000000000000 ) ) ;
#317 = EDGE_CURVE ( 'NONE', #438, #39, #403, .T. ) ;
#318 = DIRECTION ( 'NONE',  ( 0.000000000000000000, 1.000000000000000000, 0.000000000000000000 ) ) ;
#319 = CARTESIAN_POINT ( 'NONE',  ( 22.00000000000000000, 6.000000000000000000, -4.163336342344337027E-14 ) ) ;
#320 = CARTESIAN_POINT ( 'NONE',  ( 22.00000000000000000, 6.000000000000000000, -4.163336342344337027E-14 ) ) ;
#321 = ORIENTED_EDGE ( 'NONE', *, *, #195, .F. ) ;
#322 = LINE ( 'NONE', #210, #40 ) ;
#323 = ADVANCED_FACE ( 'NONE', ( #300 ), #224, .T. ) ;
#324 = LINE ( 'NONE', #172, #357 ) ;
#325 = FACE_OUTER_BOUND ( 'NONE', #332, .T. ) ;
#326 = AXIS2_PLACEMENT_3D ( 'NONE', #354, #316, #110 ) ;
#327 = DIRECTION ( 'NONE',  ( -1.000000000000000000, 0.000000000000000000, 0.000000000000000000 ) ) ;
#328 = PRODUCT_DEFINITION ( 'UNKNOWN', '', #199, #171 ) ;
#329 = LINE ( 'NONE', #186, #340 ) ;
#330 = ORIENTED_EDGE ( 'NONE', *, *, #422, .T. ) ;
#331 = DIRECTION ( 'NONE',  ( 1.000000000000000000, 0.000000000000000000, -0.000000000000000000 ) ) ;
#332 = EDGE_LOOP ( 'NONE', ( #62, #237, #31, #229 ) ) ;
#333 = PLANE ( 'NONE',  #166 ) ;
#334 = AXIS2_PLACEMENT_3D ( 'NONE', #424, #388, #9 ) ;
#335 = ORIENTED_EDGE ( 'NONE', *, *, #159, .F. ) ;
#336 = DIRECTION ( 'NONE',  ( 0.000000000000000000, 0.000000000000000000, 1.000000000000000000 ) ) ;
#337 = DIRECTION ( 'NONE',  ( 0.000000000000000000, 0.000000000000000000, 1.000000000000000000 ) ) ;
#338 = ORIENTED_EDGE ( 'NONE', *, *, #135, .T. ) ;
#339 = DIRECTION ( 'NONE',  ( -0.000000000000000000, -0.000000000000000000, -1.000000000000000000 ) ) ;
#340 = VECTOR ( 'NONE', #193, 1000.000000000000000 ) ;
#341 = ORIENTED_EDGE ( 'NONE', *, *, #302, .T. ) ;
#342 = ADVANCED_FACE ( 'NONE', ( #260 ), #333, .T. ) ;
#343 = CARTESIAN_POINT ( 'NONE',  ( 20.00000000000000000, 0.000000000000000000, 0.000000000000000000 ) ) ;
#344 = VERTEX_POINT ( 'NONE', #52 ) ;
#345 = LINE ( 'NONE', #238, #21 ) ;
#346 = EDGE_LOOP ( 'NONE', ( #196, #23, #11, #407 ) ) ;
#347 =( NAMED_UNIT ( * ) SI_UNIT ( $, .STERADIAN. ) SOLID_ANGLE_UNIT ( ) );
#348 = VECTOR ( 'NONE', #443, 1000.000000000000000 ) ;
#349 = EDGE_LOOP ( 'NONE', ( #309, #97, #440, #220 ) ) ;
#350 = CARTESIAN_POINT ( 'NONE',  ( 20.00000000000000000, 20.00000000000000000, 80.00000000000000000 ) ) ;
#351 = EDGE_CURVE ( 'NONE', #383, #70, #152, .T. ) ;
#352 = FACE_OUTER_BOUND ( 'NONE', #405, .T. ) ;
#353 = CARTESIAN_POINT ( 'NONE',  ( 0.000000000000000000, 0.000000000000000000, 80.00000000000000000 ) ) ;
#354 = CARTESIAN_POINT ( 'NONE',  ( 20.00000000000000000, 17.00000000000000000, -4.163336342344337027E-14 ) ) ;
#355 = PLANE ( 'NONE',  #30 ) ;
#356 = ORIENTED_EDGE ( 'NONE', *, *, #249, .T. ) ;
#357 = VECTOR ( 'NONE', #450, 1000.000000000000000 ) ;
#358 = EDGE_CURVE ( 'NONE', #246, #380, #13, .T. ) ;
#359 = VECTOR ( 'NONE', #38, 1000.000000000000000 ) ;
#360 = CARTESIAN_POINT ( 'NONE',  ( 20.00000000000000000, 17.00000000000000000, -4.163336342344337027E-14 ) ) ;
#361 = DIRECTION ( 'NONE',  ( -1.000000000000000000, 0.000000000000000000, -0.000000000000000000 ) ) ;
#362 = CARTESIAN_POINT ( 'NONE',  ( 20.00000000000000000, 6.000000000000000000, -4.163336342344337027E-14 ) ) ;
#363 = DIRECTION ( 'NONE',  ( 0.000000000000000000, -0.000000000000000000, -1.000000000000000000 ) ) ;
#364 = CARTESIAN_POINT ( 'NONE',  ( 0.000000000000000000, 20.00000000000000000, 0.000000000000000000 ) ) ;
#365 = DIRECTION ( 'NONE',  ( 0.000000000000000000, 0.000000000000000000, 1.000000000000000000 ) ) ;
#366 = CARTESIAN_POINT ( 'NONE',  ( 20.00000000000000000, 0.000000000000000000, 80.00000000000000000 ) ) ;
#367 = CARTESIAN_POINT ( 'NONE',  ( 22.00000000000000000, 17.00000000000000000, -4.163336342344337027E-14 ) ) ;
#368 = COLOUR_RGB ( '',0.7921568627450980005, 0.8196078431372548767, 0.9333333333333333481 ) ;
#369 = AXIS2_PLACEMENT_3D ( 'NONE', #90, #265, #258 ) ;
#370 = CARTESIAN_POINT ( 'NONE',  ( 22.00000000000000000, 17.00000000000000000, 80.00000000000000000 ) ) ;
#371 = ORIENTED_EDGE ( 'NONE', *, *, #358, .T. ) ;
#372 = SHAPE_DEFINITION_REPRESENTATION ( #75, #301 ) ;
#373 = LINE ( 'NONE', #160, #413 ) ;
#374 = EDGE_CURVE ( 'NONE', #252, #151, #150, .T. ) ;
#375 = ORIENTED_EDGE ( 'NONE', *, *, #57, .T. ) ;
#376 = VERTEX_POINT ( 'NONE', #232 ) ;
#377 =( LENGTH_UNIT ( ) NAMED_UNIT ( * ) SI_UNIT ( .MILLI., .METRE. ) );
#378 = CARTESIAN_POINT ( 'NONE',  ( 20.00000000000000000, 14.00000000000000355, -4.163336342344337027E-14 ) ) ;
#379 = ORIENTED_EDGE ( 'NONE', *, *, #422, .F. ) ;
#380 = VERTEX_POINT ( 'NONE', #364 ) ;
#381 = CARTESIAN_POINT ( 'NONE',  ( 0.000000000000000000, 0.000000000000000000, 0.000000000000000000 ) ) ;
#382 = LINE ( 'NONE', #418, #184 ) ;
#383 = VERTEX_POINT ( 'NONE', #295 ) ;
#384 = VECTOR ( 'NONE', #437, 1000.000000000000000 ) ;
#385 =( GEOMETRIC_REPRESENTATION_CONTEXT ( 3 ) GLOBAL_UNCERTAINTY_ASSIGNED_CONTEXT ( ( #36 ) ) GLOBAL_UNIT_ASSIGNED_CONTEXT ( ( #377, #99, #411 ) ) REPRESENTATION_CONTEXT ( 'NONE', 'WORKASPACE' ) );
#386 = CARTESIAN_POINT ( 'NONE',  ( 20.00000000000000000, 0.000000000000000000, 80.00000000000000000 ) ) ;
#387 = EDGE_LOOP ( 'NONE', ( #242, #4, #20, #379 ) ) ;
#388 = DIRECTION ( 'NONE',  ( 0.000000000000000000, -1.000000000000000000, 0.000000000000000000 ) ) ;
#389 = CARTESIAN_POINT ( 'NONE',  ( 0.000000000000000000, 0.000000000000000000, 0.000000000000000000 ) ) ;
#390 = EDGE_CURVE ( 'NONE', #438, #419, #157, .T. ) ;
#391 = DIRECTION ( 'NONE',  ( -1.000000000000000000, 0.000000000000000000, -0.000000000000000000 ) ) ;
#392 = PLANE ( 'NONE',  #225 ) ;
#393 = LINE ( 'NONE', #253, #428 ) ;
#394 = CARTESIAN_POINT ( 'NONE',  ( 20.00000000000000000, 17.00000000000000000, 80.00000000000000000 ) ) ;
#395 = CARTESIAN_POINT ( 'NONE',  ( 20.00000000000000000, 0.000000000000000000, 0.000000000000000000 ) ) ;
#396 = EDGE_CURVE ( 'NONE', #448, #161, #120, .T. ) ;
#397 = ORIENTED_EDGE ( 'NONE', *, *, #168, .F. ) ;
#398 = DIRECTION ( 'NONE',  ( 0.000000000000000000, 0.000000000000000000, 1.000000000000000000 ) ) ;
#399 = LINE ( 'NONE', #118, #404 ) ;
#400 = EDGE_CURVE ( 'NONE', #250, #162, #264, .T. ) ;
#401 = ORIENTED_EDGE ( 'NONE', *, *, #204, .T. ) ;
#402 = CARTESIAN_POINT ( 'NONE',  ( 22.00000000000000000, 3.000000000000000000, -4.163336342344337027E-14 ) ) ;
#403 = LINE ( 'NONE', #296, #105 ) ;
#404 = VECTOR ( 'NONE', #188, 1000.000000000000000 ) ;
#405 = EDGE_LOOP ( 'NONE', ( #203, #65, #155, #401 ) ) ;
#406 = EDGE_CURVE ( 'NONE', #299, #252, #329, .T. ) ;
#407 = ORIENTED_EDGE ( 'NONE', *, *, #213, .T. ) ;
#408 = DIRECTION ( 'NONE',  ( 1.000000000000000000, 0.000000000000000000, 0.000000000000000000 ) ) ;
#409 = LINE ( 'NONE', #131, #348 ) ;
#410 = ORIENTED_EDGE ( 'NONE', *, *, #195, .T. ) ;
#411 =( NAMED_UNIT ( * ) SI_UNIT ( $, .STERADIAN. ) SOLID_ANGLE_UNIT ( ) );
#412 = LINE ( 'NONE', #343, #165 ) ;
#413 = VECTOR ( 'NONE', #236, 1000.000000000000000 ) ;
#414 = ORIENTED_EDGE ( 'NONE', *, *, #268, .T. ) ;
#415 = ORIENTED_EDGE ( 'NONE', *, *, #34, .T. ) ;
#416 = PLANE ( 'NONE',  #119 ) ;
#417 = EDGE_LOOP ( 'NONE', ( #174, #33, #304, #201 ) ) ;
#418 = CARTESIAN_POINT ( 'NONE',  ( 0.000000000000000000, 0.000000000000000000, 80.00000000000000000 ) ) ;
#419 = VERTEX_POINT ( 'NONE', #370 ) ;
#420 = VECTOR ( 'NONE', #337, 1000.000000000000000 ) ;
#421 = FACE_OUTER_BOUND ( 'NONE', #311, .T. ) ;
#422 = EDGE_CURVE ( 'NONE', #233, #137, #17, .T. ) ;
#423 = DIRECTION ( 'NONE',  ( 0.000000000000000000, 0.000000000000000000, 1.000000000000000000 ) ) ;
#424 = CARTESIAN_POINT ( 'NONE',  ( 20.00000000000000000, 3.000000000000000000, -4.163336342344337027E-14 ) ) ;
#425 = ORIENTED_EDGE ( 'NONE', *, *, #351, .T. ) ;
#426 = CARTESIAN_POINT ( 'NONE',  ( 0.000000000000000000, 20.00000000000000000, 80.00000000000000000 ) ) ;
#427 = FILL_AREA_STYLE ('',( #144 ) ) ;
#428 = VECTOR ( 'NONE', #318, 1000.000000000000000 ) ;
#429 = DIRECTION ( 'NONE',  ( 1.000000000000000000, -8.673617379884042375E-16, 0.000000000000000000 ) ) ;
#430 = DIRECTION ( 'NONE',  ( 0.000000000000000000, 0.000000000000000000, 1.000000000000000000 ) ) ;
#431 = DIRECTION ( 'NONE',  ( -0.000000000000000000, 0.000000000000000000, -1.000000000000000000 ) ) ;
#432 = MECHANICAL_DESIGN_GEOMETRIC_PRESENTATION_REPRESENTATION (  '', ( #290 ), #69 ) ;
#433 = CARTESIAN_POINT ( 'NONE',  ( 22.00000000000000000, 17.00000000000000000, -4.163336342344337027E-14 ) ) ;
#434 = EDGE_CURVE ( 'NONE', #376, #380, #16, .T. ) ;
#435 = DIRECTION ( 'NONE',  ( -1.000000000000000000, -0.000000000000000000, -0.000000000000000000 ) ) ;
#436 = VERTEX_POINT ( 'NONE', #56 ) ;
#437 = DIRECTION ( 'NONE',  ( 0.000000000000000000, 1.000000000000000000, 0.000000000000000000 ) ) ;
#438 = VERTEX_POINT ( 'NONE', #367 ) ;
#439 = CARTESIAN_POINT ( 'NONE',  ( 22.00000000000000000, 6.000000000000000000, 80.00000000000000000 ) ) ;
#440 = ORIENTED_EDGE ( 'NONE', *, *, #111, .T. ) ;
#441 = CARTESIAN_POINT ( 'NONE',  ( 20.00000000000000000, 6.000000000000000000, -4.163336342344337027E-14 ) ) ;
#442 = ORIENTED_EDGE ( 'NONE', *, *, #396, .F. ) ;
#443 = DIRECTION ( 'NONE',  ( -0.000000000000000000, 1.000000000000000000, -0.000000000000000000 ) ) ;
#444 = EDGE_CURVE ( 'NONE', #299, #162, #156, .T. ) ;
#445 = ORIENTED_EDGE ( 'NONE', *, *, #111, .F. ) ;
#446 = VECTOR ( 'NONE', #275, 1000.000000000000000 ) ;
#447 = LINE ( 'NONE', #441, #153 ) ;
#448 = VERTEX_POINT ( 'NONE', #48 ) ;
#449 = DIRECTION ( 'NONE',  ( 0.000000000000000000, 0.000000000000000000, -1.000000000000000000 ) ) ;
#450 = DIRECTION ( 'NONE',  ( -1.000000000000000000, -0.000000000000000000, -0.000000000000000000 ) ) ;
#451 = EDGE_CURVE ( 'NONE', #67, #205, #194, .T. ) ;
ENDSEC;
END-ISO-10303-21;
