# https://github.com/mikedh/trimesh
v 20.00000000 20.00000000 0.00000000
v 20.00000000 20.00000000 80.00000000
v 0.00000000 0.00000000 80.00000000
v 0.00000000 20.00000000 80.00000000
v 0.00000000 0.00000000 0.00000000
v 0.00000000 20.00000000 0.00000000
v 20.00000000 0.00000000 80.00000000
v 20.00000000 0.00000000 0.00000000
v 22.00000000 17.00000000 80.00000000
v 22.00000000 3.00000000 80.00000000
v 22.00000000 17.00000000 0.00000000
v 22.00000000 3.00000000 0.00000000
f 6 2 4
f 6 2 1
f 6 4 3
f 6 5 3
f 9 11 1
f 9 2 1
f 10 7 3
f 10 4 3
f 10 2 4
f 10 9 2
f 10 12 11
f 10 9 11
f 8 12 11
f 8 11 1
f 8 6 1
f 8 6 5
f 8 7 3
f 8 5 3
f 8 10 7
f 8 10 12

