# Blender 4.4.0
# www.blender.org
mtllib Ql2a.mtl
o Ql2a
v 20.000000 6.000000 0.000000
v 20.000000 14.000000 0.000000
v 20.000000 6.000000 80.000000
v 20.000000 14.000000 80.000000
v 20.000000 20.000000 0.000000
v 20.000000 20.000000 80.000000
v 20.000000 17.000000 0.000000
v 20.000000 17.000000 80.000000
v 0.000000 0.000000 80.000000
v 0.000000 20.000000 80.000000
v 0.000000 0.000000 0.000000
v 0.000000 20.000000 0.000000
v 20.000000 0.000000 80.000000
v 20.000000 0.000000 0.000000
v 20.000000 3.000000 80.000000
v 20.000000 3.000000 0.000000
v 22.000000 14.000000 80.000000
v 22.000000 17.000000 80.000000
v 22.000000 6.000000 80.000000
v 22.000000 3.000000 80.000000
v 22.000000 17.000000 0.000000
v 22.000000 14.000000 0.000000
v 20.000000 17.000000 0.000000
v 20.000000 14.000000 0.000000
v 20.000000 6.000000 0.000000
v 22.000000 6.000000 0.000000
v 22.000000 3.000000 0.000000
v 22.000000 17.000000 0.000000
v 22.000000 14.000000 0.000000
v 22.000000 6.000000 0.000000
v 22.000000 3.000000 0.000000
vn 1.0000 -0.0000 -0.0000
vn -1.0000 -0.0000 -0.0000
vn -0.0000 -1.0000 -0.0000
vn -0.0000 1.0000 -0.0000
vn -0.0000 -0.0000 1.0000
vn -0.0000 -0.0000 -1.0000
s 0
f 1//1 2//1 3//1
f 3//1 2//1 4//1
f 5//1 6//1 7//1
f 7//1 6//1 8//1
f 9//2 10//2 11//2
f 11//2 10//2 12//2
f 13//3 9//3 14//3
f 14//3 9//3 11//3
f 15//1 13//1 16//1
f 16//1 13//1 14//1
f 10//4 6//4 12//4
f 12//4 6//4 5//4
f 8//5 6//5 10//5
f 4//5 17//5 18//5
f 9//5 13//5 10//5
f 10//5 13//5 15//5
f 18//5 8//5 4//5
f 4//5 8//5 10//5
f 4//5 10//5 3//5
f 3//5 10//5 15//5
f 3//5 15//5 19//5
f 19//5 15//5 20//5
f 16//6 14//6 11//6
f 21//6 22//6 23//6
f 23//6 22//6 24//6
f 25//6 26//6 27//6
f 27//6 16//6 25//6
f 25//6 16//6 11//6
f 25//6 11//6 24//6
f 24//6 11//6 12//6
f 24//6 12//6 23//6
f 23//6 12//6 5//6
f 28//4 7//4 18//4
f 18//4 7//4 8//4
f 29//1 28//1 17//1
f 17//1 28//1 18//1
f 2//3 29//3 4//3
f 4//3 29//3 17//3
f 30//4 1//4 19//4
f 19//4 1//4 3//4
f 31//1 30//1 20//1
f 20//1 30//1 19//1
f 16//3 31//3 15//3
f 15//3 31//3 20//3
