# Blender 4.4.0
# www.blender.org
mtllib Ql4i.mtl
o Ql4i
v 20.000000 20.000000 10.000000
v 20.000000 20.000000 0.000000
v 0.000000 20.000000 10.000000
v 0.000000 20.000000 0.000000
v 0.000000 10.000000 10.000000
v 0.000000 0.000000 0.000000
v 0.000000 10.000000 30.000000
v 0.000000 0.000000 80.000000
v 0.000000 20.000000 30.000000
v 0.000000 20.000000 80.000000
v 20.000000 0.000000 80.000000
v 20.000000 0.000000 0.000000
v 20.000000 10.000000 30.000000
v 20.000000 20.000000 30.000000
v 20.000000 20.000000 80.000000
v 20.000000 10.000000 10.000000
vn -0.0000 1.0000 -0.0000
vn -1.0000 -0.0000 -0.0000
vn -0.0000 -1.0000 -0.0000
vn 1.0000 -0.0000 -0.0000
vn -0.0000 -0.0000 1.0000
vn -0.0000 -0.0000 -1.0000
s 0
f 1//1 2//1 3//1
f 3//1 2//1 4//1
f 3//2 4//2 5//2
f 5//2 4//2 6//2
f 5//2 6//2 7//2
f 7//2 6//2 8//2
f 7//2 8//2 9//2
f 9//2 8//2 10//2
f 11//3 8//3 12//3
f 12//3 8//3 6//3
f 13//4 14//4 15//4
f 12//4 2//4 1//4
f 1//4 16//4 12//4
f 12//4 16//4 13//4
f 12//4 13//4 11//4
f 11//4 13//4 15//4
f 9//1 10//1 14//1
f 14//1 10//1 15//1
f 11//5 15//5 8//5
f 8//5 15//5 10//5
f 2//6 12//6 4//6
f 4//6 12//6 6//6
f 16//5 1//5 5//5
f 5//5 1//5 3//5
f 14//6 13//6 9//6
f 9//6 13//6 7//6
f 13//1 16//1 7//1
f 7//1 16//1 5//1
