ISO-10303-21;
HEADER;
FILE_DESCRIPTION (( 'STEP AP214' ),
    '1' );
FILE_NAME ('Ql4i.STEP',
    '2025-09-08T12:24:52',
    ( '' ),
    ( '' ),
    'SwSTEP 2.0',
    'SolidWorks 2024',
    '' );
FILE_SCHEMA (( 'AUTOMOTIVE_DESIGN' ));
ENDSEC;

DATA;
#1 = CARTESIAN_POINT ( 'NONE',  ( 0.000000000000000000, 0.000000000000000000, 0.000000000000000000 ) ) ;
#2 = ORIENTED_EDGE ( 'NONE', *, *, #117, .F. ) ;
#3 = DIRECTION ( 'NONE',  ( 0.000000000000000000, 1.000000000000000000, -6.938893903907228378E-16 ) ) ;
#4 = VERTEX_POINT ( 'NONE', #236 ) ;
#5 = DIRECTION ( 'NONE',  ( 0.000000000000000000, 0.000000000000000000, 1.000000000000000000 ) ) ;
#6 = ORIENTED_EDGE ( 'NONE', *, *, #310, .F. ) ;
#7 = LINE ( 'NONE', #150, #24 ) ;
#8 = PRESENTATION_LAYER_ASSIGNMENT (  '', '', ( #284 ) ) ;
#9 = VECTOR ( 'NONE', #247, 1000.000000000000000 ) ;
#10 = VERTEX_POINT ( 'NONE', #42 ) ;
#11 = EDGE_LOOP ( 'NONE', ( #239, #176, #80, #103 ) ) ;
#12 = DIRECTION ( 'NONE',  ( 1.000000000000000000, 0.000000000000000000, 0.000000000000000000 ) ) ;
#13 = DIRECTION ( 'NONE',  ( 0.000000000000000000, 0.000000000000000000, 1.000000000000000000 ) ) ;
#14 = CARTESIAN_POINT ( 'NONE',  ( 0.000000000000000000, 0.000000000000000000, 80.00000000000000000 ) ) ;
#15 = CARTESIAN_POINT ( 'NONE',  ( 0.000000000000000000, 0.000000000000000000, 80.00000000000000000 ) ) ;
#16 = APPLICATION_PROTOCOL_DEFINITION ( 'draft international standard', 'automotive_design', 1998, #274 ) ;
#17 = DIRECTION ( 'NONE',  ( 0.000000000000000000, 1.000000000000000000, 0.000000000000000000 ) ) ;
#18 = LINE ( 'NONE', #47, #289 ) ;
#19 = DIRECTION ( 'NONE',  ( 0.000000000000000000, -1.000000000000000000, 0.000000000000000000 ) ) ;
#20 = CARTESIAN_POINT ( 'NONE',  ( 0.000000000000000000, 10.00000000000000178, 30.00000000000000711 ) ) ;
#21 = LINE ( 'NONE', #191, #285 ) ;
#22 = ADVANCED_FACE ( 'NONE', ( #188 ), #137, .F. ) ;
#23 = AXIS2_PLACEMENT_3D ( 'NONE', #185, #183, #282 ) ;
#24 = VECTOR ( 'NONE', #273, 1000.000000000000000 ) ;
#25 = LINE ( 'NONE', #193, #218 ) ;
#26 = EDGE_CURVE ( 'NONE', #4, #108, #216, .T. ) ;
#27 = DIRECTION ( 'NONE',  ( -0.000000000000000000, 1.000000000000000000, -6.938893903907229364E-16 ) ) ;
#28 = LINE ( 'NONE', #153, #302 ) ;
#29 = VERTEX_POINT ( 'NONE', #94 ) ;
#30 = AXIS2_PLACEMENT_3D ( 'NONE', #146, #19, #313 ) ;
#31 = PRODUCT_DEFINITION ( 'UNKNOWN', '', #85, #224 ) ;
#32 = VECTOR ( 'NONE', #59, 1000.000000000000000 ) ;
#33 = DIRECTION ( 'NONE',  ( -1.000000000000000000, 0.000000000000000000, -0.000000000000000000 ) ) ;
#34 = CARTESIAN_POINT ( 'NONE',  ( 20.00000000000000000, 0.000000000000000000, 80.00000000000000000 ) ) ;
#35 = ORIENTED_EDGE ( 'NONE', *, *, #62, .F. ) ;
#36 = CARTESIAN_POINT ( 'NONE',  ( 20.00000000000000000, 20.00000000000000000, 9.999999999999994671 ) ) ;
#37 = ORIENTED_EDGE ( 'NONE', *, *, #213, .F. ) ;
#38 = ORIENTED_EDGE ( 'NONE', *, *, #71, .T. ) ;
#39 = DIRECTION ( 'NONE',  ( 1.000000000000000000, 0.000000000000000000, 0.000000000000000000 ) ) ;
#40 = PLANE ( 'NONE',  #23 ) ;
#41 = LINE ( 'NONE', #14, #245 ) ;
#42 = CARTESIAN_POINT ( 'NONE',  ( 20.00000000000000000, 10.00000000000000000, 10.00000000000000178 ) ) ;
#43 = VECTOR ( 'NONE', #27, 1000.000000000000000 ) ;
#44 = FACE_OUTER_BOUND ( 'NONE', #263, .T. ) ;
#45 = PLANE ( 'NONE',  #30 ) ;
#46 = EDGE_CURVE ( 'NONE', #233, #161, #67, .T. ) ;
#47 = CARTESIAN_POINT ( 'NONE',  ( 0.000000000000000000, 20.00000000000000000, 80.00000000000000000 ) ) ;
#48 =( GEOMETRIC_REPRESENTATION_CONTEXT ( 3 ) GLOBAL_UNCERTAINTY_ASSIGNED_CONTEXT ( ( #149 ) ) GLOBAL_UNIT_ASSIGNED_CONTEXT ( ( #81, #299, #303 ) ) REPRESENTATION_CONTEXT ( 'NONE', 'WORKASPACE' ) );
#49 = CARTESIAN_POINT ( 'NONE',  ( 0.000000000000000000, 20.00000000000000000, 0.000000000000000000 ) ) ;
#50 = ADVANCED_FACE ( 'NONE', ( #286 ), #40, .F. ) ;
#51 = ADVANCED_FACE ( 'NONE', ( #118 ), #72, .F. ) ;
#52 = UNCERTAINTY_MEASURE_WITH_UNIT (LENGTH_MEASURE( 1.000000000000000082E-05 ), #119, 'distance_accuracy_value', 'NONE');
#53 = DIRECTION ( 'NONE',  ( -0.000000000000000000, -0.000000000000000000, -1.000000000000000000 ) ) ;
#54 = EDGE_LOOP ( 'NONE', ( #160, #174, #87, #180 ) ) ;
#55 = DIRECTION ( 'NONE',  ( -1.000000000000000000, 0.000000000000000000, 0.000000000000000000 ) ) ;
#56 = ORIENTED_EDGE ( 'NONE', *, *, #205, .T. ) ;
#57 = EDGE_CURVE ( 'NONE', #89, #10, #114, .T. ) ;
#58 = ORIENTED_EDGE ( 'NONE', *, *, #205, .F. ) ;
#59 = DIRECTION ( 'NONE',  ( -0.000000000000000000, 1.000000000000000000, -6.938893903907229364E-16 ) ) ;
#60 = ORIENTED_EDGE ( 'NONE', *, *, #122, .F. ) ;
#61 = ORIENTED_EDGE ( 'NONE', *, *, #46, .F. ) ;
#62 = EDGE_CURVE ( 'NONE', #161, #29, #91, .T. ) ;
#63 = AXIS2_PLACEMENT_3D ( 'NONE', #140, #13, #39 ) ;
#64 = LINE ( 'NONE', #116, #249 ) ;
#65 = EDGE_CURVE ( 'NONE', #201, #233, #41, .T. ) ;
#66 = DIRECTION ( 'NONE',  ( 0.000000000000000000, 1.000000000000000000, 0.000000000000000000 ) ) ;
#67 = LINE ( 'NONE', #184, #260 ) ;
#68 = VECTOR ( 'NONE', #17, 1000.000000000000000 ) ;
#69 = SURFACE_STYLE_USAGE ( .BOTH. , #208 ) ;
#70 = VECTOR ( 'NONE', #76, 1000.000000000000000 ) ;
#71 = EDGE_CURVE ( 'NONE', #227, #281, #64, .T. ) ;
#72 = PLANE ( 'NONE',  #203 ) ;
#73 = MANIFOLD_SOLID_BREP ( 'Schnitt-Linear austragen1', #261 ) ;
#74 = DIRECTION ( 'NONE',  ( -0.000000000000000000, -0.000000000000000000, -1.000000000000000000 ) ) ;
#75 = AXIS2_PLACEMENT_3D ( 'NONE', #130, #251, #109 ) ;
#76 = DIRECTION ( 'NONE',  ( -1.000000000000000000, -0.000000000000000000, -0.000000000000000000 ) ) ;
#77 = CARTESIAN_POINT ( 'NONE',  ( 0.000000000000000000, 20.00000000000000000, 0.000000000000000000 ) ) ;
#78 = DIRECTION ( 'NONE',  ( -1.000000000000000000, -0.000000000000000000, -0.000000000000000000 ) ) ;
#79 = VECTOR ( 'NONE', #305, 1000.000000000000000 ) ;
#80 = ORIENTED_EDGE ( 'NONE', *, *, #100, .F. ) ;
#81 =( LENGTH_UNIT ( ) NAMED_UNIT ( * ) SI_UNIT ( .MILLI., .METRE. ) );
#82 = ORIENTED_EDGE ( 'NONE', *, *, #57, .T. ) ;
#83 = DIRECTION ( 'NONE',  ( 0.000000000000000000, 1.000000000000000000, 0.000000000000000000 ) ) ;
#84 = VERTEX_POINT ( 'NONE', #189 ) ;
#85 = PRODUCT_DEFINITION_FORMATION_WITH_SPECIFIED_SOURCE ( 'ANY', '', #182, .NOT_KNOWN. ) ;
#86 = LINE ( 'NONE', #179, #124 ) ;
#87 = ORIENTED_EDGE ( 'NONE', *, *, #199, .T. ) ;
#88 = EDGE_CURVE ( 'NONE', #4, #262, #212, .T. ) ;
#89 = VERTEX_POINT ( 'NONE', #311 ) ;
#90 = DIRECTION ( 'NONE',  ( -1.000000000000000000, -0.000000000000000000, -0.000000000000000000 ) ) ;
#91 = LINE ( 'NONE', #258, #68 ) ;
#92 = ADVANCED_FACE ( 'NONE', ( #172 ), #243, .F. ) ;
#93 = ORIENTED_EDGE ( 'NONE', *, *, #71, .F. ) ;
#94 = CARTESIAN_POINT ( 'NONE',  ( 20.00000000000000000, 20.00000000000000000, 0.000000000000000000 ) ) ;
#95 = ADVANCED_FACE ( 'NONE', ( #316 ), #45, .F. ) ;
#96 = ORIENTED_EDGE ( 'NONE', *, *, #117, .T. ) ;
#97 = CARTESIAN_POINT ( 'NONE',  ( 0.000000000000000000, 0.000000000000000000, 0.000000000000000000 ) ) ;
#98 = DIRECTION ( 'NONE',  ( 0.000000000000000000, 8.673617379884034239E-17, 1.000000000000000000 ) ) ;
#99 =( NAMED_UNIT ( * ) SI_UNIT ( $, .STERADIAN. ) SOLID_ANGLE_UNIT ( ) );
#100 = EDGE_CURVE ( 'NONE', #10, #131, #21, .T. ) ;
#101 = DIRECTION ( 'NONE',  ( -0.000000000000000000, -0.000000000000000000, -1.000000000000000000 ) ) ;
#102 = CARTESIAN_POINT ( 'NONE',  ( 20.00000000000000000, 20.00000000000000000, 30.00000000000000000 ) ) ;
#103 = ORIENTED_EDGE ( 'NONE', *, *, #317, .T. ) ;
#104 = CARTESIAN_POINT ( 'NONE',  ( 20.00000000000000000, 20.00000000000000000, 9.999999999999994671 ) ) ;
#105 = EDGE_LOOP ( 'NONE', ( #128, #82, #162, #56, #295, #136, #304, #272 ) ) ;
#106 = LINE ( 'NONE', #271, #256 ) ;
#107 = EDGE_CURVE ( 'NONE', #281, #113, #244, .T. ) ;
#108 = VERTEX_POINT ( 'NONE', #147 ) ;
#109 = DIRECTION ( 'NONE',  ( 0.000000000000000000, -8.673617379884034239E-17, -1.000000000000000000 ) ) ;
#110 = EDGE_LOOP ( 'NONE', ( #231, #93, #276, #241, #157, #60, #96, #250 ) ) ;
#111 = VECTOR ( 'NONE', #290, 1000.000000000000000 ) ;
#112 = CARTESIAN_POINT ( 'NONE',  ( 20.00000000000000000, 20.00000000000000000, 30.00000000000000000 ) ) ;
#113 = VERTEX_POINT ( 'NONE', #20 ) ;
#114 = LINE ( 'NONE', #163, #79 ) ;
#115 = DIRECTION ( 'NONE',  ( 1.000000000000000000, 0.000000000000000000, 0.000000000000000000 ) ) ;
#116 = CARTESIAN_POINT ( 'NONE',  ( 0.000000000000000000, 20.00000000000000000, 9.999999999999994671 ) ) ;
#117 = EDGE_CURVE ( 'NONE', #108, #84, #168, .T. ) ;
#118 = FACE_OUTER_BOUND ( 'NONE', #255, .T. ) ;
#119 =( LENGTH_UNIT ( ) NAMED_UNIT ( * ) SI_UNIT ( .MILLI., .METRE. ) );
#120 = DIRECTION ( 'NONE',  ( 0.000000000000000000, 8.673617379884034239E-17, 1.000000000000000000 ) ) ;
#121 = DIRECTION ( 'NONE',  ( -1.000000000000000000, -0.000000000000000000, -0.000000000000000000 ) ) ;
#122 = EDGE_CURVE ( 'NONE', #108, #201, #25, .T. ) ;
#123 = CARTESIAN_POINT ( 'NONE',  ( 0.000000000000000000, 10.00000000000000000, 10.00000000000000178 ) ) ;
#124 = VECTOR ( 'NONE', #83, 1000.000000000000000 ) ;
#125 = LINE ( 'NONE', #267, #270 ) ;
#126 = PLANE ( 'NONE',  #75 ) ;
#127 = ADVANCED_BREP_SHAPE_REPRESENTATION ( 'Ql4i', ( #73, #63 ), #48 ) ;
#128 = ORIENTED_EDGE ( 'NONE', *, *, #223, .F. ) ;
#129 = COLOUR_RGB ( '',0.7921568627450980005, 0.8196078431372548767, 0.9333333333333333481 ) ;
#130 = CARTESIAN_POINT ( 'NONE',  ( 20.00000000000000000, 10.00000000000000000, 10.00000000000000178 ) ) ;
#131 = VERTEX_POINT ( 'NONE', #315 ) ;
#132 = DIRECTION ( 'NONE',  ( 0.000000000000000000, 0.000000000000000000, -1.000000000000000000 ) ) ;
#133 = EDGE_LOOP ( 'NONE', ( #207, #248, #2, #257 ) ) ;
#134 = CARTESIAN_POINT ( 'NONE',  ( 0.000000000000000000, 20.00000000000000000, 30.00000000000000000 ) ) ;
#135 = ORIENTED_EDGE ( 'NONE', *, *, #223, .T. ) ;
#136 = ORIENTED_EDGE ( 'NONE', *, *, #199, .F. ) ;
#137 = PLANE ( 'NONE',  #154 ) ;
#138 = ORIENTED_EDGE ( 'NONE', *, *, #190, .F. ) ;
#139 = FILL_AREA_STYLE ('',( #164 ) ) ;
#140 = CARTESIAN_POINT ( 'NONE',  ( 0.000000000000000000, 0.000000000000000000, 0.000000000000000000 ) ) ;
#141 = DIRECTION ( 'NONE',  ( -1.000000000000000000, 0.000000000000000000, -0.000000000000000000 ) ) ;
#142 = AXIS2_PLACEMENT_3D ( 'NONE', #312, #291, #266 ) ;
#143 = EDGE_CURVE ( 'NONE', #131, #113, #125, .T. ) ;
#144 = CARTESIAN_POINT ( 'NONE',  ( 20.00000000000000000, 0.000000000000000000, 0.000000000000000000 ) ) ;
#145 = ADVANCED_FACE ( 'NONE', ( #44 ), #264, .F. ) ;
#146 = CARTESIAN_POINT ( 'NONE',  ( 0.000000000000000000, 20.00000000000000000, 80.00000000000000000 ) ) ;
#147 = CARTESIAN_POINT ( 'NONE',  ( 0.000000000000000000, 20.00000000000000000, 80.00000000000000000 ) ) ;
#148 = AXIS2_PLACEMENT_3D ( 'NONE', #158, #132, #33 ) ;
#149 = UNCERTAINTY_MEASURE_WITH_UNIT (LENGTH_MEASURE( 1.000000000000000082E-05 ), #81, 'distance_accuracy_value', 'NONE');
#150 = CARTESIAN_POINT ( 'NONE',  ( 20.00000000000000000, 10.00000000000000000, 10.00000000000000178 ) ) ;
#151 = LINE ( 'NONE', #226, #9 ) ;
#152 = EDGE_LOOP ( 'NONE', ( #229, #178, #58, #252 ) ) ;
#153 = CARTESIAN_POINT ( 'NONE',  ( 20.00000000000000000, 20.00000000000000000, 80.00000000000000000 ) ) ;
#154 = AXIS2_PLACEMENT_3D ( 'NONE', #15, #12, #306 ) ;
#155 = VECTOR ( 'NONE', #78, 1000.000000000000000 ) ;
#156 = FACE_OUTER_BOUND ( 'NONE', #198, .T. ) ;
#157 = ORIENTED_EDGE ( 'NONE', *, *, #65, .F. ) ;
#158 = CARTESIAN_POINT ( 'NONE',  ( 0.000000000000000000, 0.000000000000000000, 0.000000000000000000 ) ) ;
#159 = EDGE_CURVE ( 'NONE', #227, #301, #18, .T. ) ;
#160 = ORIENTED_EDGE ( 'NONE', *, *, #122, .T. ) ;
#161 = VERTEX_POINT ( 'NONE', #144 ) ;
#162 = ORIENTED_EDGE ( 'NONE', *, *, #100, .T. ) ;
#163 = CARTESIAN_POINT ( 'NONE',  ( 20.00000000000000000, 20.00000000000000000, 9.999999999999994671 ) ) ;
#164 = FILL_AREA_STYLE_COLOUR ( '', #129 ) ;
#165 = PRESENTATION_STYLE_ASSIGNMENT (( #69 ) ) ;
#166 = DIRECTION ( 'NONE',  ( -0.000000000000000000, -0.000000000000000000, -1.000000000000000000 ) ) ;
#167 = EDGE_CURVE ( 'NONE', #29, #301, #194, .T. ) ;
#168 = LINE ( 'NONE', #220, #111 ) ;
#169 = VECTOR ( 'NONE', #74, 1000.000000000000000 ) ;
#170 = DIRECTION ( 'NONE',  ( 0.000000000000000000, 0.000000000000000000, -1.000000000000000000 ) ) ;
#171 =( NAMED_UNIT ( * ) PLANE_ANGLE_UNIT ( ) SI_UNIT ( $, .RADIAN. ) );
#172 = FACE_OUTER_BOUND ( 'NONE', #54, .T. ) ;
#173 = FACE_OUTER_BOUND ( 'NONE', #11, .T. ) ;
#174 = ORIENTED_EDGE ( 'NONE', *, *, #215, .T. ) ;
#175 = EDGE_CURVE ( 'NONE', #262, #84, #269, .T. ) ;
#176 = ORIENTED_EDGE ( 'NONE', *, *, #143, .F. ) ;
#177 = CARTESIAN_POINT ( 'NONE',  ( 20.00000000000000000, 0.000000000000000000, 80.00000000000000000 ) ) ;
#178 = ORIENTED_EDGE ( 'NONE', *, *, #175, .F. ) ;
#179 = CARTESIAN_POINT ( 'NONE',  ( 20.00000000000000000, 0.000000000000000000, 80.00000000000000000 ) ) ;
#180 = ORIENTED_EDGE ( 'NONE', *, *, #26, .T. ) ;
#181 = DIRECTION ( 'NONE',  ( 0.000000000000000000, -1.000000000000000000, 6.938893903907228378E-16 ) ) ;
#182 = PRODUCT ( 'Ql4i', 'Ql4i', '', ( #240 ) ) ;
#183 = DIRECTION ( 'NONE',  ( -0.000000000000000000, 6.938893903907230350E-16, 1.000000000000000000 ) ) ;
#184 = CARTESIAN_POINT ( 'NONE',  ( 0.000000000000000000, 0.000000000000000000, 0.000000000000000000 ) ) ;
#185 = CARTESIAN_POINT ( 'NONE',  ( 20.00000000000000000, 20.00000000000000000, 30.00000000000000000 ) ) ;
#186 = MECHANICAL_DESIGN_GEOMETRIC_PRESENTATION_REPRESENTATION (  '', ( #284 ), #265 ) ;
#187 = VECTOR ( 'NONE', #232, 1000.000000000000000 ) ;
#188 = FACE_OUTER_BOUND ( 'NONE', #110, .T. ) ;
#189 = CARTESIAN_POINT ( 'NONE',  ( 0.000000000000000000, 20.00000000000000000, 30.00000000000000711 ) ) ;
#190 = EDGE_CURVE ( 'NONE', #301, #233, #242, .T. ) ;
#191 = CARTESIAN_POINT ( 'NONE',  ( 20.00000000000000000, 10.00000000000000000, 10.00000000000000178 ) ) ;
#192 = VECTOR ( 'NONE', #98, 1000.000000000000000 ) ;
#193 = CARTESIAN_POINT ( 'NONE',  ( 0.000000000000000000, 0.000000000000000000, 80.00000000000000000 ) ) ;
#194 = LINE ( 'NONE', #77, #70 ) ;
#195 = PLANE ( 'NONE',  #234 ) ;
#196 = ORIENTED_EDGE ( 'NONE', *, *, #167, .F. ) ;
#197 = DIRECTION ( 'NONE',  ( -0.000000000000000000, -0.000000000000000000, -1.000000000000000000 ) ) ;
#198 = EDGE_LOOP ( 'NONE', ( #138, #196, #35, #61 ) ) ;
#199 = EDGE_CURVE ( 'NONE', #259, #4, #86, .T. ) ;
#200 = DIRECTION ( 'NONE',  ( -0.000000000000000000, -1.000000000000000000, -0.000000000000000000 ) ) ;
#201 = VERTEX_POINT ( 'NONE', #225 ) ;
#202 = CARTESIAN_POINT ( 'NONE',  ( 0.000000000000000000, 20.00000000000000000, 9.999999999999994671 ) ) ;
#203 = AXIS2_PLACEMENT_3D ( 'NONE', #210, #66, #283 ) ;
#204 = AXIS2_PLACEMENT_3D ( 'NONE', #34, #55, #5 ) ;
#205 = EDGE_CURVE ( 'NONE', #131, #262, #228, .T. ) ;
#206 = LINE ( 'NONE', #134, #43 ) ;
#207 = ORIENTED_EDGE ( 'NONE', *, *, #88, .T. ) ;
#208 = SURFACE_SIDE_STYLE ('',( #214 ) ) ;
#209 = ADVANCED_FACE ( 'NONE', ( #156 ), #300, .T. ) ;
#210 = CARTESIAN_POINT ( 'NONE',  ( 0.000000000000000000, 0.000000000000000000, 80.00000000000000000 ) ) ;
#211 = PRODUCT_DEFINITION_SHAPE ( 'NONE', 'NONE',  #31 ) ;
#212 = LINE ( 'NONE', #221, #169 ) ;
#213 = EDGE_CURVE ( 'NONE', #259, #161, #106, .T. ) ;
#214 = SURFACE_STYLE_FILL_AREA ( #139 ) ;
#215 = EDGE_CURVE ( 'NONE', #201, #259, #151, .T. ) ;
#216 = LINE ( 'NONE', #237, #217 ) ;
#217 = VECTOR ( 'NONE', #90, 1000.000000000000000 ) ;
#218 = VECTOR ( 'NONE', #219, 1000.000000000000000 ) ;
#219 = DIRECTION ( 'NONE',  ( -0.000000000000000000, -1.000000000000000000, -0.000000000000000000 ) ) ;
#220 = CARTESIAN_POINT ( 'NONE',  ( 0.000000000000000000, 20.00000000000000000, 80.00000000000000000 ) ) ;
#221 = CARTESIAN_POINT ( 'NONE',  ( 20.00000000000000000, 20.00000000000000000, 80.00000000000000000 ) ) ;
#222 = CARTESIAN_POINT ( 'NONE',  ( 0.000000000000000000, 0.000000000000000000, 80.00000000000000000 ) ) ;
#223 = EDGE_CURVE ( 'NONE', #89, #29, #28, .T. ) ;
#224 = PRODUCT_DEFINITION_CONTEXT ( 'detailed design', #246, 'design' ) ;
#225 = CARTESIAN_POINT ( 'NONE',  ( 0.000000000000000000, 0.000000000000000000, 80.00000000000000000 ) ) ;
#226 = CARTESIAN_POINT ( 'NONE',  ( 0.000000000000000000, 0.000000000000000000, 80.00000000000000000 ) ) ;
#227 = VERTEX_POINT ( 'NONE', #202 ) ;
#228 = LINE ( 'NONE', #112, #32 ) ;
#229 = ORIENTED_EDGE ( 'NONE', *, *, #278, .T. ) ;
#230 = PLANE ( 'NONE',  #204 ) ;
#231 = ORIENTED_EDGE ( 'NONE', *, *, #107, .F. ) ;
#232 = DIRECTION ( 'NONE',  ( -1.000000000000000000, -0.000000000000000000, -0.000000000000000000 ) ) ;
#233 = VERTEX_POINT ( 'NONE', #1 ) ;
#234 = AXIS2_PLACEMENT_3D ( 'NONE', #36, #277, #3 ) ;
#235 = EDGE_LOOP ( 'NONE', ( #38, #275, #280, #254 ) ) ;
#236 = CARTESIAN_POINT ( 'NONE',  ( 20.00000000000000000, 20.00000000000000000, 80.00000000000000000 ) ) ;
#237 = CARTESIAN_POINT ( 'NONE',  ( 0.000000000000000000, 20.00000000000000000, 80.00000000000000000 ) ) ;
#238 = APPLICATION_PROTOCOL_DEFINITION ( 'draft international standard', 'automotive_design', 1998, #246 ) ;
#239 = ORIENTED_EDGE ( 'NONE', *, *, #107, .T. ) ;
#240 = PRODUCT_CONTEXT ( 'NONE', #274, 'mechanical' ) ;
#241 = ORIENTED_EDGE ( 'NONE', *, *, #190, .T. ) ;
#242 = LINE ( 'NONE', #97, #314 ) ;
#243 = PLANE ( 'NONE',  #288 ) ;
#244 = LINE ( 'NONE', #123, #192 ) ;
#245 = VECTOR ( 'NONE', #166, 1000.000000000000000 ) ;
#246 = APPLICATION_CONTEXT ( 'automotive_design' ) ;
#247 = DIRECTION ( 'NONE',  ( 1.000000000000000000, 0.000000000000000000, 0.000000000000000000 ) ) ;
#248 = ORIENTED_EDGE ( 'NONE', *, *, #175, .T. ) ;
#249 = VECTOR ( 'NONE', #181, 1000.000000000000000 ) ;
#250 = ORIENTED_EDGE ( 'NONE', *, *, #278, .F. ) ;
#251 = DIRECTION ( 'NONE',  ( 0.000000000000000000, -1.000000000000000000, 8.673617379884034239E-17 ) ) ;
#252 = ORIENTED_EDGE ( 'NONE', *, *, #143, .T. ) ;
#253 = LINE ( 'NONE', #104, #187 ) ;
#254 = ORIENTED_EDGE ( 'NONE', *, *, #310, .T. ) ;
#255 = EDGE_LOOP ( 'NONE', ( #308, #37, #319, #298 ) ) ;
#256 = VECTOR ( 'NONE', #53, 1000.000000000000000 ) ;
#257 = ORIENTED_EDGE ( 'NONE', *, *, #26, .F. ) ;
#258 = CARTESIAN_POINT ( 'NONE',  ( 20.00000000000000000, 0.000000000000000000, 0.000000000000000000 ) ) ;
#259 = VERTEX_POINT ( 'NONE', #177 ) ;
#260 = VECTOR ( 'NONE', #115, 1000.000000000000000 ) ;
#261 = CLOSED_SHELL ( 'NONE', ( #145, #22, #51, #297, #95, #92, #209, #293, #50, #268 ) ) ;
#262 = VERTEX_POINT ( 'NONE', #102 ) ;
#263 = EDGE_LOOP ( 'NONE', ( #279, #6, #135, #309 ) ) ;
#264 = PLANE ( 'NONE',  #142 ) ;
#265 =( GEOMETRIC_REPRESENTATION_CONTEXT ( 3 ) GLOBAL_UNCERTAINTY_ASSIGNED_CONTEXT ( ( #52 ) ) GLOBAL_UNIT_ASSIGNED_CONTEXT ( ( #119, #171, #99 ) ) REPRESENTATION_CONTEXT ( 'NONE', 'WORKASPACE' ) );
#266 = DIRECTION ( 'NONE',  ( 0.000000000000000000, -0.000000000000000000, -1.000000000000000000 ) ) ;
#267 = CARTESIAN_POINT ( 'NONE',  ( 20.00000000000000000, 10.00000000000000178, 30.00000000000000711 ) ) ;
#268 = ADVANCED_FACE ( 'NONE', ( #173 ), #126, .F. ) ;
#269 = LINE ( 'NONE', #292, #155 ) ;
#270 = VECTOR ( 'NONE', #121, 1000.000000000000000 ) ;
#271 = CARTESIAN_POINT ( 'NONE',  ( 20.00000000000000000, 0.000000000000000000, 80.00000000000000000 ) ) ;
#272 = ORIENTED_EDGE ( 'NONE', *, *, #62, .T. ) ;
#273 = DIRECTION ( 'NONE',  ( -1.000000000000000000, -0.000000000000000000, -0.000000000000000000 ) ) ;
#274 = APPLICATION_CONTEXT ( 'automotive_design' ) ;
#275 = ORIENTED_EDGE ( 'NONE', *, *, #317, .F. ) ;
#276 = ORIENTED_EDGE ( 'NONE', *, *, #159, .T. ) ;
#277 = DIRECTION ( 'NONE',  ( 0.000000000000000000, -6.938893903907228378E-16, -1.000000000000000000 ) ) ;
#278 = EDGE_CURVE ( 'NONE', #113, #84, #206, .T. ) ;
#279 = ORIENTED_EDGE ( 'NONE', *, *, #159, .F. ) ;
#280 = ORIENTED_EDGE ( 'NONE', *, *, #57, .F. ) ;
#281 = VERTEX_POINT ( 'NONE', #294 ) ;
#282 = DIRECTION ( 'NONE',  ( 0.000000000000000000, -1.000000000000000000, 6.938893903907230350E-16 ) ) ;
#283 = DIRECTION ( 'NONE',  ( 0.000000000000000000, -0.000000000000000000, 1.000000000000000000 ) ) ;
#284 = STYLED_ITEM ( 'NONE', ( #165 ), #73 ) ;
#285 = VECTOR ( 'NONE', #120, 1000.000000000000000 ) ;
#286 = FACE_OUTER_BOUND ( 'NONE', #152, .T. ) ;
#287 = PRODUCT_RELATED_PRODUCT_CATEGORY ( 'part', '', ( #182 ) ) ;
#288 = AXIS2_PLACEMENT_3D ( 'NONE', #222, #170, #141 ) ;
#289 = VECTOR ( 'NONE', #101, 1000.000000000000000 ) ;
#290 = DIRECTION ( 'NONE',  ( -0.000000000000000000, -0.000000000000000000, -1.000000000000000000 ) ) ;
#291 = DIRECTION ( 'NONE',  ( 0.000000000000000000, -1.000000000000000000, 0.000000000000000000 ) ) ;
#292 = CARTESIAN_POINT ( 'NONE',  ( 20.00000000000000000, 20.00000000000000000, 30.00000000000000000 ) ) ;
#293 = ADVANCED_FACE ( 'NONE', ( #296 ), #195, .F. ) ;
#294 = CARTESIAN_POINT ( 'NONE',  ( 0.000000000000000000, 10.00000000000000000, 10.00000000000000178 ) ) ;
#295 = ORIENTED_EDGE ( 'NONE', *, *, #88, .F. ) ;
#296 = FACE_OUTER_BOUND ( 'NONE', #235, .T. ) ;
#297 = ADVANCED_FACE ( 'NONE', ( #318 ), #230, .F. ) ;
#298 = ORIENTED_EDGE ( 'NONE', *, *, #65, .T. ) ;
#299 =( NAMED_UNIT ( * ) PLANE_ANGLE_UNIT ( ) SI_UNIT ( $, .RADIAN. ) );
#300 = PLANE ( 'NONE',  #148 ) ;
#301 = VERTEX_POINT ( 'NONE', #49 ) ;
#302 = VECTOR ( 'NONE', #197, 1000.000000000000000 ) ;
#303 =( NAMED_UNIT ( * ) SI_UNIT ( $, .STERADIAN. ) SOLID_ANGLE_UNIT ( ) );
#304 = ORIENTED_EDGE ( 'NONE', *, *, #213, .T. ) ;
#305 = DIRECTION ( 'NONE',  ( 0.000000000000000000, -1.000000000000000000, 6.938893903907228378E-16 ) ) ;
#306 = DIRECTION ( 'NONE',  ( 0.000000000000000000, 0.000000000000000000, -1.000000000000000000 ) ) ;
#307 = SHAPE_DEFINITION_REPRESENTATION ( #211, #127 ) ;
#308 = ORIENTED_EDGE ( 'NONE', *, *, #46, .T. ) ;
#309 = ORIENTED_EDGE ( 'NONE', *, *, #167, .T. ) ;
#310 = EDGE_CURVE ( 'NONE', #89, #227, #253, .T. ) ;
#311 = CARTESIAN_POINT ( 'NONE',  ( 20.00000000000000000, 20.00000000000000000, 9.999999999999994671 ) ) ;
#312 = CARTESIAN_POINT ( 'NONE',  ( 0.000000000000000000, 20.00000000000000000, 80.00000000000000000 ) ) ;
#313 = DIRECTION ( 'NONE',  ( 0.000000000000000000, -0.000000000000000000, -1.000000000000000000 ) ) ;
#314 = VECTOR ( 'NONE', #200, 1000.000000000000000 ) ;
#315 = CARTESIAN_POINT ( 'NONE',  ( 20.00000000000000000, 10.00000000000000178, 30.00000000000000711 ) ) ;
#316 = FACE_OUTER_BOUND ( 'NONE', #133, .T. ) ;
#317 = EDGE_CURVE ( 'NONE', #10, #281, #7, .T. ) ;
#318 = FACE_OUTER_BOUND ( 'NONE', #105, .T. ) ;
#319 = ORIENTED_EDGE ( 'NONE', *, *, #215, .F. ) ;
ENDSEC;
END-ISO-10303-21;
