# Blender 4.4.0
# www.blender.org
mtllib Rf1a.mtl
o Rf1a
v 0.000000 0.000000 10.000000
v 0.000000 80.000000 10.000000
v 0.000000 0.000000 0.000000
v 0.000000 80.000000 0.000000
v 60.000000 0.000000 10.000000
v 60.000000 0.000000 0.000000
v 60.000000 80.000000 10.000000
v 60.000000 80.000000 0.000000
v 34.000000 66.928200 10.000000
v 36.128357 65.142303 10.000000
v 37.517540 22.736162 10.000000
v 38.000000 20.000000 10.000000
v 37.517540 17.263840 10.000000
v 36.128357 14.857699 10.000000
v 37.517540 62.736160 10.000000
v 38.000000 60.000000 10.000000
v 37.517540 57.263840 10.000000
v 36.128357 25.142302 10.000000
v 23.871645 25.142302 10.000000
v 34.000000 53.071796 10.000000
v 22.482458 22.736162 10.000000
v 31.389185 52.121540 10.000000
v 28.610815 52.121540 10.000000
v 28.610815 12.121538 10.000000
v 31.389185 12.121538 10.000000
v 34.000000 13.071796 10.000000
v 26.000000 13.071796 10.000000
v 23.871645 14.857699 10.000000
v 22.482458 17.263840 10.000000
v 22.482458 62.736160 10.000000
v 23.871645 65.142303 10.000000
v 26.000000 26.928204 10.000000
v 28.610815 27.878462 10.000000
v 36.128357 54.857697 10.000000
v 31.389185 27.878462 10.000000
v 34.000000 26.928204 10.000000
v 26.000000 53.071796 10.000000
v 22.000000 20.000000 10.000000
v 23.871645 54.857697 10.000000
v 22.482458 57.263840 10.000000
v 22.000000 60.000000 10.000000
v 26.000000 66.928200 10.000000
v 28.610815 67.878464 10.000000
v 31.389185 67.878464 10.000000
v 36.778835 17.532707 25.000000
v 35.526157 15.363005 25.000000
v 33.606941 13.752594 25.000000
v 31.252678 12.895712 25.000000
v 28.747322 12.895712 25.000000
v 26.393057 13.752594 25.000000
v 24.473845 15.363005 25.000000
v 23.221167 17.532707 25.000000
v 22.786116 20.000000 25.000000
v 23.221167 22.467293 25.000000
v 24.473845 24.636995 25.000000
v 26.393057 26.247406 25.000000
v 28.747322 27.104288 25.000000
v 31.252678 27.104288 25.000000
v 33.606941 26.247406 25.000000
v 35.526157 24.636995 25.000000
v 36.778835 22.467293 25.000000
v 37.213882 20.000000 25.000000
v 30.000000 20.000000 25.000000
v 36.778835 57.532707 25.000000
v 35.526157 55.363007 25.000000
v 33.606941 53.752594 25.000000
v 31.252678 52.895714 25.000000
v 28.747322 52.895714 25.000000
v 26.393057 53.752594 25.000000
v 24.473845 55.363007 25.000000
v 23.221167 57.532707 25.000000
v 22.786116 60.000000 25.000000
v 23.221167 62.467293 25.000000
v 24.473845 64.637001 25.000000
v 26.393057 66.247406 25.000000
v 28.747322 67.104286 25.000000
v 31.252678 67.104286 25.000000
v 33.606941 66.247406 25.000000
v 35.526157 64.637001 25.000000
v 36.778835 62.467293 25.000000
v 37.213882 60.000000 25.000000
v 30.000000 60.000000 25.000000
vn -1.0000 -0.0000 -0.0000
vn -0.0000 -1.0000 -0.0000
vn 1.0000 -0.0000 -0.0000
vn -0.0000 1.0000 -0.0000
vn -0.0000 -0.0000 1.0000
vn -0.0000 -0.0000 -1.0000
vn 0.9835 -0.1734 0.0515
vn 0.8649 -0.4993 0.0515
vn 0.6419 -0.7650 0.0515
vn 0.3416 -0.9384 0.0515
vn -0.0000 -0.9987 0.0515
vn -0.3416 -0.9384 0.0515
vn -0.6419 -0.7650 0.0515
vn -0.8649 -0.4993 0.0515
vn -0.9835 -0.1734 0.0515
vn -0.9835 0.1734 0.0515
vn -0.8649 0.4993 0.0515
vn -0.6419 0.7650 0.0515
vn -0.3416 0.9384 0.0515
vn -0.0000 0.9987 0.0515
vn 0.3416 0.9384 0.0515
vn 0.6419 0.7650 0.0515
vn 0.8649 0.4993 0.0515
vn 0.9835 0.1734 0.0515
s 0
f 1//1 2//1 3//1
f 3//1 2//1 4//1
f 5//2 1//2 6//2
f 6//2 1//2 3//2
f 7//3 5//3 8//3
f 8//3 5//3 6//3
f 2//4 7//4 4//4
f 4//4 7//4 8//4
f 9//5 10//5 7//5
f 11//5 12//5 5//5
f 5//5 12//5 13//5
f 5//5 13//5 14//5
f 10//5 15//5 7//5
f 7//5 15//5 16//5
f 7//5 16//5 5//5
f 5//5 16//5 17//5
f 5//5 17//5 11//5
f 11//5 17//5 18//5
f 19//5 20//5 21//5
f 21//5 20//5 22//5
f 21//5 22//5 23//5
f 24//5 1//5 25//5
f 25//5 1//5 5//5
f 25//5 5//5 26//5
f 26//5 5//5 14//5
f 24//5 27//5 1//5
f 1//5 27//5 28//5
f 1//5 28//5 29//5
f 30//5 31//5 2//5
f 19//5 32//5 20//5
f 20//5 32//5 33//5
f 20//5 33//5 34//5
f 34//5 33//5 35//5
f 34//5 35//5 17//5
f 17//5 35//5 36//5
f 17//5 36//5 18//5
f 23//5 37//5 21//5
f 21//5 37//5 1//5
f 21//5 1//5 38//5
f 38//5 1//5 29//5
f 37//5 39//5 1//5
f 1//5 39//5 40//5
f 1//5 40//5 2//5
f 2//5 40//5 41//5
f 2//5 41//5 30//5
f 31//5 42//5 2//5
f 2//5 42//5 43//5
f 2//5 43//5 7//5
f 7//5 43//5 44//5
f 7//5 44//5 9//5
f 8//6 6//6 4//6
f 4//6 6//6 3//6
f 12//7 45//7 13//7
f 13//8 45//8 46//8
f 13//8 46//8 14//8
f 14//9 46//9 47//9
f 14//9 47//9 26//9
f 26//10 47//10 48//10
f 26//10 48//10 25//10
f 25//11 48//11 49//11
f 25//11 49//11 24//11
f 24//12 49//12 50//12
f 24//12 50//12 27//12
f 27//13 50//13 51//13
f 27//13 51//13 28//13
f 28//14 51//14 52//14
f 28//14 52//14 29//14
f 29//15 52//15 53//15
f 29//15 53//15 38//15
f 38//16 53//16 54//16
f 38//16 54//16 21//16
f 21//17 54//17 55//17
f 21//17 55//17 19//17
f 19//18 55//18 56//18
f 19//18 56//18 32//18
f 32//19 56//19 57//19
f 32//19 57//19 33//19
f 33//20 57//20 58//20
f 33//20 58//20 35//20
f 35//21 58//21 59//21
f 35//21 59//21 36//21
f 36//22 59//22 60//22
f 36//22 60//22 18//22
f 18//23 60//23 61//23
f 18//23 61//23 11//23
f 11//24 61//24 62//24
f 11//24 62//24 12//24
f 12//7 62//7 45//7
f 46//5 45//5 63//5
f 63//5 45//5 62//5
f 63//5 62//5 61//5
f 49//5 48//5 63//5
f 63//5 48//5 47//5
f 63//5 47//5 46//5
f 52//5 51//5 63//5
f 63//5 51//5 50//5
f 63//5 50//5 49//5
f 55//5 54//5 63//5
f 63//5 54//5 53//5
f 63//5 53//5 52//5
f 58//5 57//5 63//5
f 63//5 57//5 56//5
f 63//5 56//5 55//5
f 61//5 60//5 63//5
f 63//5 60//5 59//5
f 63//5 59//5 58//5
f 16//7 64//7 17//7
f 17//8 64//8 65//8
f 17//8 65//8 34//8
f 34//9 65//9 66//9
f 34//9 66//9 20//9
f 20//10 66//10 67//10
f 20//10 67//10 22//10
f 22//11 67//11 68//11
f 22//11 68//11 23//11
f 23//12 68//12 69//12
f 23//12 69//12 37//12
f 37//13 69//13 70//13
f 37//13 70//13 39//13
f 39//14 70//14 71//14
f 39//14 71//14 40//14
f 40//15 71//15 72//15
f 40//15 72//15 41//15
f 41//16 72//16 73//16
f 41//16 73//16 30//16
f 30//17 73//17 74//17
f 30//17 74//17 31//17
f 31//18 74//18 75//18
f 31//18 75//18 42//18
f 42//19 75//19 76//19
f 42//19 76//19 43//19
f 43//20 76//20 77//20
f 43//20 77//20 44//20
f 44//21 77//21 78//21
f 44//21 78//21 9//21
f 9//22 78//22 79//22
f 9//22 79//22 10//22
f 10//23 79//23 80//23
f 10//23 80//23 15//23
f 15//24 80//24 81//24
f 15//24 81//24 16//24
f 16//7 81//7 64//7
f 65//5 64//5 82//5
f 82//5 64//5 81//5
f 82//5 81//5 80//5
f 68//5 67//5 82//5
f 82//5 67//5 66//5
f 82//5 66//5 65//5
f 71//5 70//5 82//5
f 82//5 70//5 69//5
f 82//5 69//5 68//5
f 74//5 73//5 82//5
f 82//5 73//5 72//5
f 82//5 72//5 71//5
f 77//5 76//5 82//5
f 82//5 76//5 75//5
f 82//5 75//5 74//5
f 80//5 79//5 82//5
f 82//5 79//5 78//5
f 82//5 78//5 77//5
