# https://github.com/mikedh/trimesh
v 0.00000000 0.00000000 10.00000000
v 0.00000000 80.00000000 10.00000000
v 0.00000000 0.00000000 0.00000000
v 0.00000000 80.00000000 0.00000000
v 60.00000000 0.00000000 10.00000000
v 60.00000000 0.00000000 0.00000000
v 60.00000000 80.00000000 10.00000000
v 60.00000000 80.00000000 0.00000000
v 36.77883500 17.53270700 25.00000000
v 35.52615700 15.36300500 25.00000000
v 33.60694100 13.75259400 25.00000000
v 31.25267800 12.89571200 25.00000000
v 28.74732200 12.89571200 25.00000000
v 26.39305700 13.75259400 25.00000000
v 24.47384500 15.36300500 25.00000000
v 23.22116700 17.53270700 25.00000000
v 22.78611600 20.00000000 25.00000000
v 37.21388200 20.00000000 25.00000000
v 22.78611600 60.00000000 25.00000000
v 23.22116700 62.46729300 25.00000000
v 24.47384500 64.63700100 25.00000000
v 26.39305700 66.24740600 25.00000000
v 28.74732200 67.10428600 25.00000000
v 31.25267800 67.10428600 25.00000000
v 33.60694100 66.24740600 25.00000000
v 35.52615700 64.63700100 25.00000000
v 36.77883500 62.46729300 25.00000000
v 37.21388200 60.00000000 25.00000000
f 10 9 5
f 18 9 5
f 11 12 5
f 11 10 5
f 26 27 7
f 28 27 7
f 13 14 1
f 16 17 1
f 25 24 7
f 25 26 7
f 19 20 2
f 15 14 1
f 15 16 1
f 23 22 2
f 21 20 2
f 21 22 2
f 4 3 1
f 4 2 1
f 28 7 5
f 28 18 5
f 6 3 1
f 6 5 1
f 13 5 1
f 13 12 5
f 19 2 1
f 19 17 1
f 8 4 2
f 8 7 2
f 8 7 5
f 8 6 5
f 8 4 3
f 8 6 3
f 23 7 2
f 23 24 7
f 21 28 27
f 21 10 9
f 21 18 9
f 21 11 12
f 21 26 27
f 21 25 24
f 21 11 10
f 21 13 12
f 21 16 17
f 21 19 17
f 21 28 18
f 21 13 14
f 21 15 14
f 21 25 26
f 21 19 20
f 21 23 24
f 21 15 16
f 21 23 22

