ISO-10303-21;
HEADER;
FILE_DESCRIPTION (( 'STEP AP214' ),
    '1' );
FILE_NAME ('Rf1a.STEP',
    '2025-09-08T12:23:44',
    ( '' ),
    ( '' ),
    'SwSTEP 2.0',
    'SolidWorks 2024',
    '' );
FILE_SCHEMA (( 'AUTOMOTIVE_DESIGN' ));
ENDSEC;

DATA;
#1 = EDGE_LOOP ( 'NONE', ( #109, #26, #172, #211 ) ) ;
#2 = AXIS2_PLACEMENT_3D ( 'NONE', #206, #258, #288 ) ;
#3 = MANIFOLD_SOLID_BREP ( 'Aufsatz-Linear austragen8', #21 ) ;
#4 = ORIENTED_EDGE ( 'NONE', *, *, #266, .T. ) ;
#5 = AXIS2_PLACEMENT_3D ( 'NONE', #107, #315, #229 ) ;
#6 = CARTESIAN_POINT ( 'NONE',  ( 30.00000000000000000, 20.00000000000000000, 25.00000000000000000 ) ) ;
#7 = PRODUCT_DEFINITION_CONTEXT ( 'detailed design', #322, 'design' ) ;
#8 = SURFACE_STYLE_FILL_AREA ( #36 ) ;
#9 = CARTESIAN_POINT ( 'NONE',  ( 0.000000000000000000, 0.000000000000000000, 10.00000000000000000 ) ) ;
#10 = EDGE_CURVE ( 'NONE', #145, #152, #37, .T. ) ;
#11 = LINE ( 'NONE', #154, #332 ) ;
#12 = DIRECTION ( 'NONE',  ( -0.000000000000000000, -0.000000000000000000, -1.000000000000000000 ) ) ;
#13 = VECTOR ( 'NONE', #243, 1000.000000000000114 ) ;
#14 = VERTEX_POINT ( 'NONE', #19 ) ;
#15 = DIRECTION ( 'NONE',  ( -0.000000000000000000, 0.000000000000000000, 1.000000000000000000 ) ) ;
#16 = EDGE_CURVE ( 'NONE', #166, #14, #264, .T. ) ;
#17 = CARTESIAN_POINT ( 'NONE',  ( 30.00000000000000000, 20.00000000000000000, 10.00000000000000000 ) ) ;
#18 = CARTESIAN_POINT ( 'NONE',  ( 0.000000000000000000, 0.000000000000000000, 0.000000000000000000 ) ) ;
#19 = CARTESIAN_POINT ( 'NONE',  ( 0.000000000000000000, 80.00000000000000000, 0.000000000000000000 ) ) ;
#20 = DIRECTION ( 'NONE',  ( 1.000000000000000000, 0.000000000000000000, 0.000000000000000000 ) ) ;
#21 = CLOSED_SHELL ( 'NONE', ( #31, #233, #194, #177, #72, #65, #222, #245, #309, #327, #240, #143 ) ) ;
#22 = CARTESIAN_POINT ( 'NONE',  ( 0.000000000000000000, 80.00000000000000000, 10.00000000000000000 ) ) ;
#23 = VECTOR ( 'NONE', #189, 1000.000000000000000 ) ;
#24 = CARTESIAN_POINT ( 'NONE',  ( 60.00000000000000000, 0.000000000000000000, 0.000000000000000000 ) ) ;
#25 = PRESENTATION_STYLE_ASSIGNMENT (( #259 ) ) ;
#26 = ORIENTED_EDGE ( 'NONE', *, *, #164, .T. ) ;
#27 = DIRECTION ( 'NONE',  ( -1.000000000000000000, 0.000000000000000000, 0.000000000000000000 ) ) ;
#28 = CARTESIAN_POINT ( 'NONE',  ( 30.00000000000000000, 20.00000000000000000, 10.00000000000000000 ) ) ;
#29 =( GEOMETRIC_REPRESENTATION_CONTEXT ( 3 ) GLOBAL_UNCERTAINTY_ASSIGNED_CONTEXT ( ( #71 ) ) GLOBAL_UNIT_ASSIGNED_CONTEXT ( ( #284, #179, #138 ) ) REPRESENTATION_CONTEXT ( 'NONE', 'WORKASPACE' ) );
#30 = AXIS2_PLACEMENT_3D ( 'NONE', #180, #112, #117 ) ;
#31 = ADVANCED_FACE ( 'NONE', ( #136 ), #144, .T. ) ;
#32 = ORIENTED_EDGE ( 'NONE', *, *, #207, .T. ) ;
#33 = VECTOR ( 'NONE', #88, 1000.000000000000000 ) ;
#34 = CIRCLE ( 'NONE', #135, 7.213883310754377831 ) ;
#35 = EDGE_CURVE ( 'NONE', #152, #145, #215, .T. ) ;
#36 = FILL_AREA_STYLE ('',( #193 ) ) ;
#37 = CIRCLE ( 'NONE', #5, 8.000000000000000000 ) ;
#38 = DIRECTION ( 'NONE',  ( 0.000000000000000000, 0.000000000000000000, 1.000000000000000000 ) ) ;
#39 = EDGE_CURVE ( 'NONE', #248, #14, #338, .T. ) ;
#40 = EDGE_LOOP ( 'NONE', ( #298, #121 ) ) ;
#41 = CARTESIAN_POINT ( 'NONE',  ( 38.00000000000000000, 60.00000000000000000, 10.00000000000000000 ) ) ;
#42 = ORIENTED_EDGE ( 'NONE', *, *, #99, .T. ) ;
#43 = EDGE_LOOP ( 'NONE', ( #55, #196 ) ) ;
#44 = PLANE ( 'NONE',  #142 ) ;
#45 = EDGE_LOOP ( 'NONE', ( #105, #96, #302, #246 ) ) ;
#46 = EDGE_LOOP ( 'NONE', ( #84, #132, #219, #83 ) ) ;
#47 = EDGE_CURVE ( 'NONE', #80, #145, #56, .T. ) ;
#48 = DIRECTION ( 'NONE',  ( 1.000000000000000000, 0.000000000000000000, 0.000000000000000000 ) ) ;
#49 = VECTOR ( 'NONE', #185, 1000.000000000000000 ) ;
#50 = DIRECTION ( 'NONE',  ( -1.000000000000000000, -0.000000000000000000, -0.000000000000000000 ) ) ;
#51 = CARTESIAN_POINT ( 'NONE',  ( 22.78611668924562039, 20.00000000000000000, 25.00000000000000000 ) ) ;
#52 = CARTESIAN_POINT ( 'NONE',  ( 22.00000000000000000, 60.00000000000000000, 10.00000000000000000 ) ) ;
#53 = ORIENTED_EDGE ( 'NONE', *, *, #99, .F. ) ;
#54 = DIRECTION ( 'NONE',  ( 0.000000000000000000, 0.000000000000000000, 1.000000000000000000 ) ) ;
#55 = ORIENTED_EDGE ( 'NONE', *, *, #257, .F. ) ;
#56 = LINE ( 'NONE', #52, #331 ) ;
#57 = CARTESIAN_POINT ( 'NONE',  ( 60.00000000000000000, 0.000000000000000000, 10.00000000000000000 ) ) ;
#58 = DIRECTION ( 'NONE',  ( -0.000000000000000000, -0.000000000000000000, -1.000000000000000000 ) ) ;
#59 = AXIS2_PLACEMENT_3D ( 'NONE', #197, #334, #220 ) ;
#60 = EDGE_CURVE ( 'NONE', #188, #119, #184, .T. ) ;
#61 =( NAMED_UNIT ( * ) SI_UNIT ( $, .STERADIAN. ) SOLID_ANGLE_UNIT ( ) );
#62 = DIRECTION ( 'NONE',  ( 0.000000000000000000, 0.000000000000000000, 1.000000000000000000 ) ) ;
#63 = EDGE_LOOP ( 'NONE', ( #272, #344 ) ) ;
#64 = EDGE_CURVE ( 'NONE', #68, #306, #34, .T. ) ;
#65 = ADVANCED_FACE ( 'NONE', ( #232 ), #131, .F. ) ;
#66 = VECTOR ( 'NONE', #151, 1000.000000000000000 ) ;
#67 = ORIENTED_EDGE ( 'NONE', *, *, #39, .F. ) ;
#68 = VERTEX_POINT ( 'NONE', #91 ) ;
#69 = PRODUCT_DEFINITION ( 'UNKNOWN', '', #262, #7 ) ;
#70 = CONICAL_SURFACE ( 'NONE', #295, 8.000000000000000000, 0.05235987755982992459 ) ;
#71 = UNCERTAINTY_MEASURE_WITH_UNIT (LENGTH_MEASURE( 1.000000000000000082E-05 ), #284, 'distance_accuracy_value', 'NONE');
#72 = ADVANCED_FACE ( 'NONE', ( #113 ), #289, .F. ) ;
#73 = DIRECTION ( 'NONE',  ( 1.000000000000000000, 0.000000000000000000, 0.000000000000000000 ) ) ;
#74 = SURFACE_SIDE_STYLE ('',( #8 ) ) ;
#75 = AXIS2_PLACEMENT_3D ( 'NONE', #186, #234, #181 ) ;
#76 = CARTESIAN_POINT ( 'NONE',  ( 30.00000000000000000, 20.00000000000000000, 10.00000000000000000 ) ) ;
#77 = EDGE_LOOP ( 'NONE', ( #273, #190, #103, #32 ) ) ;
#78 = EDGE_CURVE ( 'NONE', #214, #166, #90, .T. ) ;
#79 = CARTESIAN_POINT ( 'NONE',  ( 60.00000000000000000, 0.000000000000000000, 0.000000000000000000 ) ) ;
#80 = VERTEX_POINT ( 'NONE', #155 ) ;
#81 = VERTEX_POINT ( 'NONE', #79 ) ;
#82 = DIRECTION ( 'NONE',  ( -0.05233595624294388321, -6.409306129323715567E-18, -0.9986295347545739443 ) ) ;
#83 = ORIENTED_EDGE ( 'NONE', *, *, #118, .T. ) ;
#84 = ORIENTED_EDGE ( 'NONE', *, *, #261, .T. ) ;
#85 = DIRECTION ( 'NONE',  ( 1.000000000000000000, 0.000000000000000000, 0.000000000000000000 ) ) ;
#86 = AXIS2_PLACEMENT_3D ( 'NONE', #18, #260, #285 ) ;
#87 = CARTESIAN_POINT ( 'NONE',  ( 0.000000000000000000, 0.000000000000000000, 0.000000000000000000 ) ) ;
#88 = DIRECTION ( 'NONE',  ( -0.000000000000000000, -0.000000000000000000, -1.000000000000000000 ) ) ;
#89 = CARTESIAN_POINT ( 'NONE',  ( 30.00000000000000000, 60.00000000000000000, 25.00000000000000000 ) ) ;
#90 = LINE ( 'NONE', #183, #202 ) ;
#91 = CARTESIAN_POINT ( 'NONE',  ( 37.21388331075437605, 20.00000000000000000, 25.00000000000000000 ) ) ;
#92 = AXIS2_PLACEMENT_3D ( 'NONE', #175, #313, #279 ) ;
#93 = CARTESIAN_POINT ( 'NONE',  ( 0.000000000000000000, 0.000000000000000000, 0.000000000000000000 ) ) ;
#94 = CARTESIAN_POINT ( 'NONE',  ( 60.00000000000000000, 80.00000000000000000, 10.00000000000000000 ) ) ;
#95 = VECTOR ( 'NONE', #178, 1000.000000000000000 ) ;
#96 = ORIENTED_EDGE ( 'NONE', *, *, #254, .F. ) ;
#97 = PRESENTATION_LAYER_ASSIGNMENT (  '', '', ( #122 ) ) ;
#98 = ORIENTED_EDGE ( 'NONE', *, *, #164, .F. ) ;
#99 = EDGE_CURVE ( 'NONE', #166, #173, #11, .T. ) ;
#100 = DIRECTION ( 'NONE',  ( 0.000000000000000000, 0.000000000000000000, -1.000000000000000000 ) ) ;
#101 = LINE ( 'NONE', #41, #13 ) ;
#102 = EDGE_LOOP ( 'NONE', ( #98, #127, #4, #192 ) ) ;
#103 = ORIENTED_EDGE ( 'NONE', *, *, #294, .F. ) ;
#104 = FACE_OUTER_BOUND ( 'NONE', #63, .T. ) ;
#105 = ORIENTED_EDGE ( 'NONE', *, *, #47, .F. ) ;
#106 = FACE_OUTER_BOUND ( 'NONE', #268, .T. ) ;
#107 = CARTESIAN_POINT ( 'NONE',  ( 30.00000000000000000, 60.00000000000000000, 10.00000000000000000 ) ) ;
#108 = CARTESIAN_POINT ( 'NONE',  ( 30.00000000000000000, 60.00000000000000000, 10.00000000000000000 ) ) ;
#109 = ORIENTED_EDGE ( 'NONE', *, *, #169, .F. ) ;
#110 = DIRECTION ( 'NONE',  ( -0.05233595624294388321, -6.409306129323715567E-18, -0.9986295347545739443 ) ) ;
#111 = EDGE_CURVE ( 'NONE', #173, #241, #149, .T. ) ;
#112 = DIRECTION ( 'NONE',  ( 0.000000000000000000, 0.000000000000000000, 1.000000000000000000 ) ) ;
#113 = FACE_OUTER_BOUND ( 'NONE', #77, .T. ) ;
#114 = ADVANCED_BREP_SHAPE_REPRESENTATION ( 'Rf1a', ( #3, #230 ), #267 ) ;
#115 = AXIS2_PLACEMENT_3D ( 'NONE', #17, #160, #337 ) ;
#116 = VERTEX_POINT ( 'NONE', #171 ) ;
#117 = DIRECTION ( 'NONE',  ( 1.000000000000000000, 0.000000000000000000, 0.000000000000000000 ) ) ;
#118 = EDGE_CURVE ( 'NONE', #173, #116, #168, .T. ) ;
#119 = VERTEX_POINT ( 'NONE', #125 ) ;
#120 = UNCERTAINTY_MEASURE_WITH_UNIT (LENGTH_MEASURE( 1.000000000000000082E-05 ), #342, 'distance_accuracy_value', 'NONE');
#121 = ORIENTED_EDGE ( 'NONE', *, *, #10, .F. ) ;
#122 = STYLED_ITEM ( 'NONE', ( #25 ), #3 ) ;
#123 = AXIS2_PLACEMENT_3D ( 'NONE', #208, #341, #201 ) ;
#124 = CARTESIAN_POINT ( 'NONE',  ( 60.00000000000000000, 0.000000000000000000, 10.00000000000000000 ) ) ;
#125 = CARTESIAN_POINT ( 'NONE',  ( 38.00000000000000000, 20.00000000000000000, 10.00000000000000000 ) ) ;
#126 = CARTESIAN_POINT ( 'NONE',  ( 38.00000000000000000, 60.00000000000000000, 10.00000000000000000 ) ) ;
#127 = ORIENTED_EDGE ( 'NONE', *, *, #64, .F. ) ;
#128 = DIRECTION ( 'NONE',  ( 1.000000000000000000, 0.000000000000000000, 0.000000000000000000 ) ) ;
#129 = ORIENTED_EDGE ( 'NONE', *, *, #294, .T. ) ;
#130 = CARTESIAN_POINT ( 'NONE',  ( 22.00000000000000000, 20.00000000000000000, 10.00000000000000000 ) ) ;
#131 = PLANE ( 'NONE',  #123 ) ;
#132 = ORIENTED_EDGE ( 'NONE', *, *, #207, .F. ) ;
#133 = CARTESIAN_POINT ( 'NONE',  ( 0.000000000000000000, 80.00000000000000000, 0.000000000000000000 ) ) ;
#134 = APPLICATION_PROTOCOL_DEFINITION ( 'draft international standard', 'automotive_design', 1998, #213 ) ;
#135 = AXIS2_PLACEMENT_3D ( 'NONE', #286, #283, #343 ) ;
#136 = FACE_OUTER_BOUND ( 'NONE', #224, .T. ) ;
#137 = DIRECTION ( 'NONE',  ( 0.000000000000000000, 1.000000000000000000, 0.000000000000000000 ) ) ;
#138 =( NAMED_UNIT ( * ) SI_UNIT ( $, .STERADIAN. ) SOLID_ANGLE_UNIT ( ) );
#139 = ORIENTED_EDGE ( 'NONE', *, *, #16, .F. ) ;
#140 = PRODUCT_CONTEXT ( 'NONE', #213, 'mechanical' ) ;
#141 = LINE ( 'NONE', #57, #238 ) ;
#142 = AXIS2_PLACEMENT_3D ( 'NONE', #247, #48, #195 ) ;
#143 = ADVANCED_FACE ( 'NONE', ( #104 ), #146, .T. ) ;
#144 = CONICAL_SURFACE ( 'NONE', #212, 8.000000000000000000, 0.05235987755982992459 ) ;
#145 = VERTEX_POINT ( 'NONE', #255 ) ;
#146 = PLANE ( 'NONE',  #316 ) ;
#147 = ORIENTED_EDGE ( 'NONE', *, *, #321, .T. ) ;
#148 = DIRECTION ( 'NONE',  ( 1.000000000000000000, 0.000000000000000000, -0.000000000000000000 ) ) ;
#149 = LINE ( 'NONE', #218, #165 ) ;
#150 = ORIENTED_EDGE ( 'NONE', *, *, #290, .F. ) ;
#151 = DIRECTION ( 'NONE',  ( -0.000000000000000000, -1.000000000000000000, -0.000000000000000000 ) ) ;
#152 = VERTEX_POINT ( 'NONE', #126 ) ;
#153 = VECTOR ( 'NONE', #314, 1000.000000000000000 ) ;
#154 = CARTESIAN_POINT ( 'NONE',  ( 0.000000000000000000, 0.000000000000000000, 10.00000000000000000 ) ) ;
#155 = CARTESIAN_POINT ( 'NONE',  ( 22.78611668924562039, 60.00000000000000000, 25.00000000000000000 ) ) ;
#156 = PLANE ( 'NONE',  #2 ) ;
#157 = DIRECTION ( 'NONE',  ( 1.000000000000000000, 0.000000000000000000, 0.000000000000000000 ) ) ;
#158 = VECTOR ( 'NONE', #311, 1000.000000000000000 ) ;
#159 = CARTESIAN_POINT ( 'NONE',  ( 30.00000000000000000, 20.00000000000000000, 10.00000000000000000 ) ) ;
#160 = DIRECTION ( 'NONE',  ( -0.000000000000000000, -0.000000000000000000, 1.000000000000000000 ) ) ;
#161 = EDGE_CURVE ( 'NONE', #249, #152, #101, .T. ) ;
#162 = LINE ( 'NONE', #24, #49 ) ;
#163 = AXIS2_PLACEMENT_3D ( 'NONE', #216, #100, #251 ) ;
#164 = EDGE_CURVE ( 'NONE', #306, #188, #282, .T. ) ;
#165 = VECTOR ( 'NONE', #73, 1000.000000000000000 ) ;
#166 = VERTEX_POINT ( 'NONE', #274 ) ;
#167 = CARTESIAN_POINT ( 'NONE',  ( 0.000000000000000000, 0.000000000000000000, 10.00000000000000000 ) ) ;
#168 = LINE ( 'NONE', #167, #95 ) ;
#169 = EDGE_CURVE ( 'NONE', #306, #68, #271, .T. ) ;
#170 = ORIENTED_EDGE ( 'NONE', *, *, #319, .F. ) ;
#171 = CARTESIAN_POINT ( 'NONE',  ( 0.000000000000000000, 0.000000000000000000, 0.000000000000000000 ) ) ;
#172 = ORIENTED_EDGE ( 'NONE', *, *, #60, .T. ) ;
#173 = VERTEX_POINT ( 'NONE', #9 ) ;
#174 = CARTESIAN_POINT ( 'NONE',  ( 60.00000000000000000, 80.00000000000000000, 10.00000000000000000 ) ) ;
#175 = CARTESIAN_POINT ( 'NONE',  ( 60.00000000000000000, 0.000000000000000000, 10.00000000000000000 ) ) ;
#176 = AXIS2_PLACEMENT_3D ( 'NONE', #159, #347, #20 ) ;
#177 = ADVANCED_FACE ( 'NONE', ( #276 ), #270, .F. ) ;
#178 = DIRECTION ( 'NONE',  ( -0.000000000000000000, -0.000000000000000000, -1.000000000000000000 ) ) ;
#179 =( NAMED_UNIT ( * ) PLANE_ANGLE_UNIT ( ) SI_UNIT ( $, .RADIAN. ) );
#180 = CARTESIAN_POINT ( 'NONE',  ( 30.00000000000000000, 60.00000000000000000, 25.00000000000000000 ) ) ;
#181 = DIRECTION ( 'NONE',  ( -1.000000000000000000, 0.000000000000000000, 0.000000000000000000 ) ) ;
#182 = LINE ( 'NONE', #93, #153 ) ;
#183 = CARTESIAN_POINT ( 'NONE',  ( 0.000000000000000000, 80.00000000000000000, 10.00000000000000000 ) ) ;
#184 = CIRCLE ( 'NONE', #115, 8.000000000000000000 ) ;
#185 = DIRECTION ( 'NONE',  ( 0.000000000000000000, 1.000000000000000000, 0.000000000000000000 ) ) ;
#186 = CARTESIAN_POINT ( 'NONE',  ( 30.00000000000000000, 60.00000000000000000, 10.00000000000000000 ) ) ;
#187 = DIRECTION ( 'NONE',  ( 1.000000000000000000, 0.000000000000000000, 0.000000000000000000 ) ) ;
#188 = VERTEX_POINT ( 'NONE', #130 ) ;
#189 = DIRECTION ( 'NONE',  ( -0.000000000000000000, -0.000000000000000000, -1.000000000000000000 ) ) ;
#190 = ORIENTED_EDGE ( 'NONE', *, *, #321, .F. ) ;
#191 = FACE_OUTER_BOUND ( 'NONE', #45, .T. ) ;
#192 = ORIENTED_EDGE ( 'NONE', *, *, #257, .T. ) ;
#193 = FILL_AREA_STYLE_COLOUR ( '', #280 ) ;
#194 = ADVANCED_FACE ( 'NONE', ( #106 ), #44, .F. ) ;
#195 = DIRECTION ( 'NONE',  ( 0.000000000000000000, 0.000000000000000000, -1.000000000000000000 ) ) ;
#196 = ORIENTED_EDGE ( 'NONE', *, *, #60, .F. ) ;
#197 = CARTESIAN_POINT ( 'NONE',  ( 0.000000000000000000, 0.000000000000000000, 10.00000000000000000 ) ) ;
#198 = EDGE_LOOP ( 'NONE', ( #42, #301, #129, #333 ) ) ;
#199 = LINE ( 'NONE', #305, #66 ) ;
#200 = FACE_OUTER_BOUND ( 'NONE', #1, .T. ) ;
#201 = DIRECTION ( 'NONE',  ( 0.000000000000000000, -0.000000000000000000, -1.000000000000000000 ) ) ;
#202 = VECTOR ( 'NONE', #50, 1000.000000000000000 ) ;
#203 = ORIENTED_EDGE ( 'NONE', *, *, #47, .T. ) ;
#204 = PRODUCT ( 'Rf1a', 'Rf1a', '', ( #140 ) ) ;
#205 = SHAPE_DEFINITION_REPRESENTATION ( #269, #114 ) ;
#206 = CARTESIAN_POINT ( 'NONE',  ( 0.000000000000000000, 0.000000000000000000, 25.00000000000000000 ) ) ;
#207 = EDGE_CURVE ( 'NONE', #241, #81, #330, .T. ) ;
#208 = CARTESIAN_POINT ( 'NONE',  ( 0.000000000000000000, 80.00000000000000000, 10.00000000000000000 ) ) ;
#209 = VECTOR ( 'NONE', #303, 1000.000000000000000 ) ;
#210 = FACE_OUTER_BOUND ( 'NONE', #102, .T. ) ;
#211 = ORIENTED_EDGE ( 'NONE', *, *, #266, .F. ) ;
#212 = AXIS2_PLACEMENT_3D ( 'NONE', #256, #58, #227 ) ;
#213 = APPLICATION_CONTEXT ( 'automotive_design' ) ;
#214 = VERTEX_POINT ( 'NONE', #174 ) ;
#215 = CIRCLE ( 'NONE', #75, 8.000000000000000000 ) ;
#216 = CARTESIAN_POINT ( 'NONE',  ( 0.000000000000000000, 0.000000000000000000, 10.00000000000000000 ) ) ;
#217 = EDGE_CURVE ( 'NONE', #14, #116, #199, .T. ) ;
#218 = CARTESIAN_POINT ( 'NONE',  ( 0.000000000000000000, 0.000000000000000000, 10.00000000000000000 ) ) ;
#219 = ORIENTED_EDGE ( 'NONE', *, *, #111, .F. ) ;
#220 = DIRECTION ( 'NONE',  ( 0.000000000000000000, -0.000000000000000000, 1.000000000000000000 ) ) ;
#221 = ORIENTED_EDGE ( 'NONE', *, *, #161, .F. ) ;
#222 = ADVANCED_FACE ( 'NONE', ( #299, #225, #278 ), #336, .F. ) ;
#223 = CARTESIAN_POINT ( 'NONE',  ( 30.00000000000000000, 60.00000000000000000, 25.00000000000000000 ) ) ;
#224 = EDGE_LOOP ( 'NONE', ( #170, #203, #325, #221 ) ) ;
#225 = FACE_BOUND ( 'NONE', #43, .T. ) ;
#226 = EDGE_LOOP ( 'NONE', ( #296, #139, #235, #147 ) ) ;
#227 = DIRECTION ( 'NONE',  ( 1.000000000000000000, 0.000000000000000000, 0.000000000000000000 ) ) ;
#228 = FACE_OUTER_BOUND ( 'NONE', #277, .T. ) ;
#229 = DIRECTION ( 'NONE',  ( -1.000000000000000000, 0.000000000000000000, 0.000000000000000000 ) ) ;
#230 = AXIS2_PLACEMENT_3D ( 'NONE', #87, #54, #157 ) ;
#231 = LINE ( 'NONE', #291, #346 ) ;
#232 = FACE_OUTER_BOUND ( 'NONE', #226, .T. ) ;
#233 = ADVANCED_FACE ( 'NONE', ( #200 ), #70, .T. ) ;
#234 = DIRECTION ( 'NONE',  ( -0.000000000000000000, -0.000000000000000000, 1.000000000000000000 ) ) ;
#235 = ORIENTED_EDGE ( 'NONE', *, *, #78, .F. ) ;
#236 = DIRECTION ( 'NONE',  ( 0.05233595624294388321, 0.000000000000000000, -0.9986295347545739443 ) ) ;
#237 = CARTESIAN_POINT ( 'NONE',  ( 37.21388331075437605, 60.00000000000000000, 25.00000000000000000 ) ) ;
#238 = VECTOR ( 'NONE', #137, 1000.000000000000000 ) ;
#239 = ORIENTED_EDGE ( 'NONE', *, *, #169, .T. ) ;
#240 = ADVANCED_FACE ( 'NONE', ( #191 ), #292, .T. ) ;
#241 = VERTEX_POINT ( 'NONE', #297 ) ;
#242 = ORIENTED_EDGE ( 'NONE', *, *, #261, .F. ) ;
#243 = DIRECTION ( 'NONE',  ( 0.05233595624294388321, 0.000000000000000000, -0.9986295347545739443 ) ) ;
#244 = AXIS2_PLACEMENT_3D ( 'NONE', #108, #307, #85 ) ;
#245 = ADVANCED_FACE ( 'NONE', ( #318 ), #310, .T. ) ;
#246 = ORIENTED_EDGE ( 'NONE', *, *, #35, .T. ) ;
#247 = CARTESIAN_POINT ( 'NONE',  ( 0.000000000000000000, 0.000000000000000000, 10.00000000000000000 ) ) ;
#248 = VERTEX_POINT ( 'NONE', #312 ) ;
#249 = VERTEX_POINT ( 'NONE', #237 ) ;
#250 = CARTESIAN_POINT ( 'NONE',  ( 22.00000000000000000, 20.00000000000000000, 10.00000000000000000 ) ) ;
#251 = DIRECTION ( 'NONE',  ( -1.000000000000000000, 0.000000000000000000, -0.000000000000000000 ) ) ;
#252 = ORIENTED_EDGE ( 'NONE', *, *, #217, .T. ) ;
#253 = AXIS2_PLACEMENT_3D ( 'NONE', #28, #263, #27 ) ;
#254 = EDGE_CURVE ( 'NONE', #249, #80, #300, .T. ) ;
#255 = CARTESIAN_POINT ( 'NONE',  ( 22.00000000000000000, 60.00000000000000000, 10.00000000000000000 ) ) ;
#256 = CARTESIAN_POINT ( 'NONE',  ( 30.00000000000000000, 60.00000000000000000, 10.00000000000000000 ) ) ;
#257 = EDGE_CURVE ( 'NONE', #119, #188, #339, .T. ) ;
#258 = DIRECTION ( 'NONE',  ( -0.000000000000000000, 0.000000000000000000, 1.000000000000000000 ) ) ;
#259 = SURFACE_STYLE_USAGE ( .BOTH. , #74 ) ;
#260 = DIRECTION ( 'NONE',  ( 0.000000000000000000, 0.000000000000000000, -1.000000000000000000 ) ) ;
#261 = EDGE_CURVE ( 'NONE', #116, #81, #182, .T. ) ;
#262 = PRODUCT_DEFINITION_FORMATION_WITH_SPECIFIED_SOURCE ( 'ANY', '', #204, .NOT_KNOWN. ) ;
#263 = DIRECTION ( 'NONE',  ( -0.000000000000000000, -0.000000000000000000, 1.000000000000000000 ) ) ;
#264 = LINE ( 'NONE', #22, #33 ) ;
#265 = LINE ( 'NONE', #94, #23 ) ;
#266 = EDGE_CURVE ( 'NONE', #68, #119, #231, .T. ) ;
#267 =( GEOMETRIC_REPRESENTATION_CONTEXT ( 3 ) GLOBAL_UNCERTAINTY_ASSIGNED_CONTEXT ( ( #120 ) ) GLOBAL_UNIT_ASSIGNED_CONTEXT ( ( #342, #317, #61 ) ) REPRESENTATION_CONTEXT ( 'NONE', 'WORKASPACE' ) );
#268 = EDGE_LOOP ( 'NONE', ( #252, #329, #53, #304 ) ) ;
#269 = PRODUCT_DEFINITION_SHAPE ( 'NONE', 'NONE',  #69 ) ;
#270 = PLANE ( 'NONE',  #59 ) ;
#271 = CIRCLE ( 'NONE', #324, 7.213883310754377831 ) ;
#272 = ORIENTED_EDGE ( 'NONE', *, *, #254, .T. ) ;
#273 = ORIENTED_EDGE ( 'NONE', *, *, #290, .T. ) ;
#274 = CARTESIAN_POINT ( 'NONE',  ( 0.000000000000000000, 80.00000000000000000, 10.00000000000000000 ) ) ;
#275 = ORIENTED_EDGE ( 'NONE', *, *, #217, .F. ) ;
#276 = FACE_OUTER_BOUND ( 'NONE', #46, .T. ) ;
#277 = EDGE_LOOP ( 'NONE', ( #293, #239 ) ) ;
#278 = FACE_OUTER_BOUND ( 'NONE', #198, .T. ) ;
#279 = DIRECTION ( 'NONE',  ( 0.000000000000000000, 0.000000000000000000, 1.000000000000000000 ) ) ;
#280 = COLOUR_RGB ( '',0.7921568627450980005, 0.8196078431372548767, 0.9333333333333333481 ) ;
#281 = CONICAL_SURFACE ( 'NONE', #176, 8.000000000000000000, 0.05235987755982992459 ) ;
#282 = LINE ( 'NONE', #250, #308 ) ;
#283 = DIRECTION ( 'NONE',  ( -0.000000000000000000, 0.000000000000000000, 1.000000000000000000 ) ) ;
#284 =( LENGTH_UNIT ( ) NAMED_UNIT ( * ) SI_UNIT ( .MILLI., .METRE. ) );
#285 = DIRECTION ( 'NONE',  ( -1.000000000000000000, 0.000000000000000000, -0.000000000000000000 ) ) ;
#286 = CARTESIAN_POINT ( 'NONE',  ( 30.00000000000000000, 20.00000000000000000, 25.00000000000000000 ) ) ;
#287 = MECHANICAL_DESIGN_GEOMETRIC_PRESENTATION_REPRESENTATION (  '', ( #122 ), #29 ) ;
#288 = DIRECTION ( 'NONE',  ( 1.000000000000000000, 0.000000000000000000, 0.000000000000000000 ) ) ;
#289 = PLANE ( 'NONE',  #92 ) ;
#290 = EDGE_CURVE ( 'NONE', #81, #248, #162, .T. ) ;
#291 = CARTESIAN_POINT ( 'NONE',  ( 38.00000000000000000, 20.00000000000000000, 10.00000000000000000 ) ) ;
#292 = CONICAL_SURFACE ( 'NONE', #244, 8.000000000000000000, 0.05235987755982992459 ) ;
#293 = ORIENTED_EDGE ( 'NONE', *, *, #64, .T. ) ;
#294 = EDGE_CURVE ( 'NONE', #241, #214, #141, .T. ) ;
#295 = AXIS2_PLACEMENT_3D ( 'NONE', #76, #12, #128 ) ;
#296 = ORIENTED_EDGE ( 'NONE', *, *, #39, .T. ) ;
#297 = CARTESIAN_POINT ( 'NONE',  ( 60.00000000000000000, 0.000000000000000000, 10.00000000000000000 ) ) ;
#298 = ORIENTED_EDGE ( 'NONE', *, *, #35, .F. ) ;
#299 = FACE_BOUND ( 'NONE', #40, .T. ) ;
#300 = CIRCLE ( 'NONE', #323, 7.213883310754377831 ) ;
#301 = ORIENTED_EDGE ( 'NONE', *, *, #111, .T. ) ;
#302 = ORIENTED_EDGE ( 'NONE', *, *, #161, .T. ) ;
#303 = DIRECTION ( 'NONE',  ( -0.000000000000000000, -0.000000000000000000, -1.000000000000000000 ) ) ;
#304 = ORIENTED_EDGE ( 'NONE', *, *, #16, .T. ) ;
#305 = CARTESIAN_POINT ( 'NONE',  ( 0.000000000000000000, 0.000000000000000000, 0.000000000000000000 ) ) ;
#306 = VERTEX_POINT ( 'NONE', #51 ) ;
#307 = DIRECTION ( 'NONE',  ( -0.000000000000000000, -0.000000000000000000, -1.000000000000000000 ) ) ;
#308 = VECTOR ( 'NONE', #82, 1000.000000000000114 ) ;
#309 = ADVANCED_FACE ( 'NONE', ( #210 ), #281, .T. ) ;
#310 = PLANE ( 'NONE',  #86 ) ;
#311 = DIRECTION ( 'NONE',  ( -1.000000000000000000, -0.000000000000000000, -0.000000000000000000 ) ) ;
#312 = CARTESIAN_POINT ( 'NONE',  ( 60.00000000000000000, 80.00000000000000000, 0.000000000000000000 ) ) ;
#313 = DIRECTION ( 'NONE',  ( -1.000000000000000000, 0.000000000000000000, 0.000000000000000000 ) ) ;
#314 = DIRECTION ( 'NONE',  ( 1.000000000000000000, 0.000000000000000000, 0.000000000000000000 ) ) ;
#315 = DIRECTION ( 'NONE',  ( -0.000000000000000000, -0.000000000000000000, 1.000000000000000000 ) ) ;
#316 = AXIS2_PLACEMENT_3D ( 'NONE', #223, #38, #148 ) ;
#317 =( NAMED_UNIT ( * ) PLANE_ANGLE_UNIT ( ) SI_UNIT ( $, .RADIAN. ) );
#318 = FACE_OUTER_BOUND ( 'NONE', #335, .T. ) ;
#319 = EDGE_CURVE ( 'NONE', #80, #249, #320, .T. ) ;
#320 = CIRCLE ( 'NONE', #30, 7.213883310754377831 ) ;
#321 = EDGE_CURVE ( 'NONE', #214, #248, #265, .T. ) ;
#322 = APPLICATION_CONTEXT ( 'automotive_design' ) ;
#323 = AXIS2_PLACEMENT_3D ( 'NONE', #89, #62, #187 ) ;
#324 = AXIS2_PLACEMENT_3D ( 'NONE', #6, #15, #326 ) ;
#325 = ORIENTED_EDGE ( 'NONE', *, *, #10, .T. ) ;
#326 = DIRECTION ( 'NONE',  ( 1.000000000000000000, 0.000000000000000000, 0.000000000000000000 ) ) ;
#327 = ADVANCED_FACE ( 'NONE', ( #228 ), #156, .T. ) ;
#328 = DIRECTION ( 'NONE',  ( -0.000000000000000000, -1.000000000000000000, -0.000000000000000000 ) ) ;
#329 = ORIENTED_EDGE ( 'NONE', *, *, #118, .F. ) ;
#330 = LINE ( 'NONE', #124, #209 ) ;
#331 = VECTOR ( 'NONE', #110, 1000.000000000000114 ) ;
#332 = VECTOR ( 'NONE', #328, 1000.000000000000000 ) ;
#333 = ORIENTED_EDGE ( 'NONE', *, *, #78, .T. ) ;
#334 = DIRECTION ( 'NONE',  ( 0.000000000000000000, 1.000000000000000000, 0.000000000000000000 ) ) ;
#335 = EDGE_LOOP ( 'NONE', ( #275, #67, #150, #242 ) ) ;
#336 = PLANE ( 'NONE',  #163 ) ;
#337 = DIRECTION ( 'NONE',  ( -1.000000000000000000, 0.000000000000000000, 0.000000000000000000 ) ) ;
#338 = LINE ( 'NONE', #133, #158 ) ;
#339 = CIRCLE ( 'NONE', #253, 8.000000000000000000 ) ;
#340 = APPLICATION_PROTOCOL_DEFINITION ( 'draft international standard', 'automotive_design', 1998, #322 ) ;
#341 = DIRECTION ( 'NONE',  ( 0.000000000000000000, -1.000000000000000000, 0.000000000000000000 ) ) ;
#342 =( LENGTH_UNIT ( ) NAMED_UNIT ( * ) SI_UNIT ( .MILLI., .METRE. ) );
#343 = DIRECTION ( 'NONE',  ( 1.000000000000000000, 0.000000000000000000, 0.000000000000000000 ) ) ;
#344 = ORIENTED_EDGE ( 'NONE', *, *, #319, .T. ) ;
#345 = PRODUCT_RELATED_PRODUCT_CATEGORY ( 'part', '', ( #204 ) ) ;
#346 = VECTOR ( 'NONE', #236, 1000.000000000000114 ) ;
#347 = DIRECTION ( 'NONE',  ( -0.000000000000000000, -0.000000000000000000, -1.000000000000000000 ) ) ;
ENDSEC;
END-ISO-10303-21;
