# https://github.com/mikedh/trimesh
v 0.00000000 4.38219400 0.00000000
v 0.00000000 75.61780500 10.00000000
v 0.00000000 75.61780500 0.00000000
v 60.00000000 0.00000000 0.00000000
v 60.00000000 0.00000000 10.00000000
v 7.26279900 0.00000000 10.00000000
v 7.26279900 0.00000000 0.00000000
v 60.00000000 80.00000000 0.00000000
v 60.00000000 80.00000000 10.00000000
v 7.26279900 80.00000000 0.00000000
v 7.26279900 80.00000000 10.00000000
v 0.00000000 4.38219400 10.00000000
f 10 8 4
f 10 7 4
f 10 1 7
f 10 1 3
f 9 8 4
f 9 5 4
f 6 7 4
f 6 5 4
f 11 3 2
f 11 10 3
f 11 10 8
f 11 9 8
f 12 1 3
f 12 3 2
f 12 9 5
f 12 11 2
f 12 6 5
f 12 11 9
f 12 1 7
f 12 6 7

