# Blender 4.4.0
# www.blender.org
mtllib Rf2i.mtl
o Rf2i
v 0.000000 7.575211 10.000000
v 0.000000 7.575211 0.000000
v 0.000000 4.382194 10.000000
v 0.000000 4.382194 0.000000
v 0.000000 35.585606 10.000000
v 0.000000 35.585606 0.000000
v 0.000000 18.343674 10.000000
v 0.000000 18.343674 0.000000
v 0.000000 61.656326 10.000000
v 0.000000 61.656326 0.000000
v 0.000000 44.414394 10.000000
v 0.000000 44.414394 0.000000
v 0.000000 75.617805 10.000000
v 0.000000 75.617805 0.000000
v 0.000000 72.424789 10.000000
v 0.000000 72.424789 0.000000
v 60.000000 0.000000 0.000000
v 60.000000 0.000000 10.000000
v 38.309990 0.000000 0.000000
v 38.309990 0.000000 10.000000
v 7.262799 0.000000 10.000000
v 7.262799 0.000000 0.000000
v 30.603765 0.000000 10.000000
v 30.603765 0.000000 0.000000
v 60.000000 80.000000 0.000000
v 60.000000 80.000000 10.000000
v 60.000000 74.265663 0.000000
v 60.000000 74.265663 10.000000
v 60.000000 49.608742 10.000000
v 60.000000 49.608742 0.000000
v 60.000000 60.516987 10.000000
v 60.000000 60.516987 0.000000
v 60.000000 33.435265 10.000000
v 60.000000 33.435265 0.000000
v 60.000000 46.564739 10.000000
v 60.000000 46.564739 0.000000
v 60.000000 19.483011 10.000000
v 60.000000 19.483011 0.000000
v 60.000000 30.391256 10.000000
v 60.000000 30.391256 0.000000
v 60.000000 5.734335 10.000000
v 60.000000 5.734335 0.000000
v 7.262799 80.000000 0.000000
v 7.262799 80.000000 10.000000
v 30.603765 80.000000 0.000000
v 30.603765 80.000000 10.000000
v 38.309990 80.000000 10.000000
v 38.309990 80.000000 0.000000
v 52.815716 33.435265 10.000000
v 7.316166 40.000000 10.000000
v 7.076015 7.575211 10.000000
v 0.000000 4.382194 10.000000
v 0.000000 35.585606 10.000000
v 7.076015 18.343674 10.000000
v 30.603765 2.494383 10.000000
v 38.309990 2.494383 10.000000
v 52.815716 19.483011 10.000000
v 52.815716 30.391256 10.000000
v 52.815716 49.608742 10.000000
v 52.815716 46.564739 10.000000
v 52.815716 60.516987 10.000000
v 38.309990 77.505615 10.000000
v 30.603765 77.505615 10.000000
v 0.000000 44.414394 10.000000
v 0.000000 75.617805 10.000000
v 7.076015 72.424789 10.000000
v 7.076015 61.656326 10.000000
v 7.076015 72.424789 0.000000
v 0.000000 75.617805 0.000000
v 52.815716 33.435265 0.000000
v 7.316166 40.000000 0.000000
v 52.815716 30.391256 0.000000
v 52.815716 19.483011 0.000000
v 38.309990 2.494383 0.000000
v 30.603765 2.494383 0.000000
v 7.076015 61.656326 0.000000
v 52.815716 60.516987 0.000000
v 52.815716 46.564739 0.000000
v 52.815716 49.608742 0.000000
v 0.000000 35.585606 0.000000
v 0.000000 4.382194 0.000000
v 7.076015 7.575211 0.000000
v 7.076015 18.343674 0.000000
v 30.603765 77.505615 0.000000
v 38.309990 77.505615 0.000000
v 0.000000 75.617805 10.000000
v 0.000000 75.617805 0.000000
v 0.000000 44.414394 0.000000
v 0.000000 44.414394 10.000000
v 0.000000 35.585606 10.000000
v 0.000000 35.585606 0.000000
v 0.000000 4.382194 0.000000
vn -1.0000 -0.0000 -0.0000
vn -0.0000 -1.0000 -0.0000
vn 1.0000 -0.0000 -0.0000
vn -0.0000 1.0000 -0.0000
vn -0.0000 -0.0000 1.0000
vn -0.0000 -0.0000 -1.0000
vn -0.5166 0.8562 -0.0000
vn -0.5166 -0.8562 -0.0000
vn 0.8863 0.4631 -0.0000
vn 0.8863 -0.4631 -0.0000
s 0
f 1//1 2//1 3//1
f 3//1 2//1 4//1
f 5//1 6//1 7//1
f 7//1 6//1 8//1
f 9//1 10//1 11//1
f 11//1 10//1 12//1
f 13//1 14//1 15//1
f 15//1 14//1 16//1
f 17//2 18//2 19//2
f 19//2 18//2 20//2
f 21//2 22//2 23//2
f 23//2 22//2 24//2
f 25//3 26//3 27//3
f 27//3 26//3 28//3
f 29//3 30//3 31//3
f 31//3 30//3 32//3
f 33//3 34//3 35//3
f 35//3 34//3 36//3
f 37//3 38//3 39//3
f 39//3 38//3 40//3
f 18//3 17//3 41//3
f 41//3 17//3 42//3
f 43//4 44//4 45//4
f 45//4 44//4 46//4
f 26//4 25//4 47//4
f 47//4 25//4 48//4
f 49//5 33//5 50//5
f 28//5 26//5 47//5
f 51//5 1//5 52//5
f 53//5 7//5 54//5
f 55//5 56//5 57//5
f 37//5 39//5 57//5
f 57//5 39//5 58//5
f 59//5 50//5 60//5
f 60//5 50//5 33//5
f 60//5 33//5 35//5
f 28//5 47//5 61//5
f 61//5 47//5 62//5
f 61//5 62//5 63//5
f 29//5 31//5 59//5
f 59//5 31//5 61//5
f 59//5 61//5 50//5
f 50//5 61//5 63//5
f 50//5 63//5 64//5
f 57//5 56//5 41//5
f 41//5 56//5 20//5
f 41//5 20//5 18//5
f 65//5 15//5 44//5
f 44//5 15//5 66//5
f 52//5 21//5 51//5
f 51//5 21//5 23//5
f 51//5 23//5 54//5
f 54//5 23//5 55//5
f 54//5 55//5 53//5
f 53//5 55//5 57//5
f 53//5 57//5 50//5
f 50//5 57//5 58//5
f 50//5 58//5 49//5
f 9//5 64//5 67//5
f 67//5 64//5 63//5
f 67//5 63//5 66//5
f 66//5 63//5 46//5
f 66//5 46//5 44//5
f 68//6 16//6 69//6
f 34//6 70//6 71//6
f 71//6 70//6 72//6
f 73//6 74//6 75//6
f 12//6 10//6 71//6
f 71//6 10//6 76//6
f 71//6 76//6 77//6
f 36//6 34//6 78//6
f 78//6 34//6 71//6
f 78//6 71//6 79//6
f 79//6 71//6 77//6
f 79//6 77//6 30//6
f 30//6 77//6 32//6
f 74//6 73//6 19//6
f 19//6 73//6 42//6
f 19//6 42//6 17//6
f 40//6 38//6 72//6
f 72//6 38//6 73//6
f 72//6 73//6 71//6
f 71//6 73//6 75//6
f 71//6 75//6 80//6
f 81//6 2//6 22//6
f 22//6 2//6 82//6
f 8//6 80//6 83//6
f 83//6 80//6 75//6
f 83//6 75//6 82//6
f 82//6 75//6 24//6
f 82//6 24//6 22//6
f 69//6 43//6 68//6
f 68//6 43//6 45//6
f 68//6 45//6 76//6
f 76//6 45//6 84//6
f 76//6 84//6 77//6
f 77//6 84//6 85//6
f 77//6 85//6 27//6
f 27//6 85//6 48//6
f 27//6 48//6 25//6
f 44//7 43//7 86//7
f 86//7 43//7 87//7
f 68//2 66//2 16//2
f 16//2 66//2 15//2
f 68//1 76//1 66//1
f 66//1 76//1 67//1
f 67//4 76//4 9//4
f 9//4 76//4 10//4
f 71//8 50//8 88//8
f 88//8 50//8 89//8
f 50//7 71//7 90//7
f 90//7 71//7 91//7
f 83//2 54//2 8//2
f 8//2 54//2 7//2
f 83//1 82//1 54//1
f 54//1 82//1 51//1
f 51//4 82//4 1//4
f 1//4 82//4 2//4
f 22//8 21//8 92//8
f 92//8 21//8 52//8
f 75//3 55//3 24//3
f 24//3 55//3 23//3
f 75//2 74//2 55//2
f 55//2 74//2 56//2
f 56//1 74//1 20//1
f 20//1 74//1 19//1
f 73//9 57//9 42//9
f 42//9 57//9 41//9
f 73//2 38//2 57//2
f 57//2 38//2 37//2
f 40//4 72//4 39//4
f 39//4 72//4 58//4
f 72//3 70//3 58//3
f 58//3 70//3 49//3
f 70//2 34//2 49//2
f 49//2 34//2 33//2
f 36//4 78//4 35//4
f 35//4 78//4 60//4
f 78//3 79//3 60//3
f 60//3 79//3 59//3
f 79//2 30//2 59//2
f 59//2 30//2 29//2
f 32//4 77//4 31//4
f 31//4 77//4 61//4
f 61//10 77//10 28//10
f 28//10 77//10 27//10
f 63//3 84//3 46//3
f 46//3 84//3 45//3
f 85//1 62//1 48//1
f 48//1 62//1 47//1
f 85//4 84//4 62//4
f 62//4 84//4 63//4
