ISO-10303-21;
HEADER;
FILE_DESCRIPTION (( 'STEP AP214' ),
    '1' );
FILE_NAME ('Rf2i.STEP',
    '2025-09-08T12:23:04',
    ( '' ),
    ( '' ),
    'SwSTEP 2.0',
    'SolidWorks 2024',
    '' );
FILE_SCHEMA (( 'AUTOMOTIVE_DESIGN' ));
ENDSEC;

DATA;
#1 = DIRECTION ( 'NONE',  ( 0.000000000000000000, 0.000000000000000000, 1.000000000000000000 ) ) ;
#2 = DIRECTION ( 'NONE',  ( -0.000000000000000000, 1.000000000000000000, 0.000000000000000000 ) ) ;
#3 = VECTOR ( 'NONE', #1301, 1000.000000000000000 ) ;
#4 = ORIENTED_EDGE ( 'NONE', *, *, #839, .F. ) ;
#5 = VECTOR ( 'NONE', #816, 1000.000000000000000 ) ;
#6 = VECTOR ( 'NONE', #570, 1000.000000000000000 ) ;
#7 = CARTESIAN_POINT ( 'NONE',  ( 60.00000000000000000, 0.000000000000000000, 10.00000000000000000 ) ) ;
#8 =( LENGTH_UNIT ( ) NAMED_UNIT ( * ) SI_UNIT ( .MILLI., .METRE. ) );
#9 = ORIENTED_EDGE ( 'NONE', *, *, #100, .F. ) ;
#10 = DIRECTION ( 'NONE',  ( 0.4631263658287110285, -0.8862922595139206550, 0.000000000000000000 ) ) ;
#11 = CARTESIAN_POINT ( 'NONE',  ( 30.60376472791041280, 2.494383353432922057, 0.000000000000000000 ) ) ;
#12 = ORIENTED_EDGE ( 'NONE', *, *, #100, .T. ) ;
#13 = DIRECTION ( 'NONE',  ( 1.000000000000000000, 0.000000000000000000, 0.000000000000000000 ) ) ;
#14 = DIRECTION ( 'NONE',  ( 0.8862922595139204329, -0.4631263658287115281, 0.000000000000000000 ) ) ;
#15 = EDGE_CURVE ( 'NONE', #686, #1168, #1133, .T. ) ;
#16 = ORIENTED_EDGE ( 'NONE', *, *, #1338, .T. ) ;
#17 = VERTEX_POINT ( 'NONE', #316 ) ;
#18 = FACE_OUTER_BOUND ( 'NONE', #1027, .T. ) ;
#19 = EDGE_LOOP ( 'NONE', ( #166, #430, #794, #877 ) ) ;
#20 = CARTESIAN_POINT ( 'NONE',  ( 0.000000000000000000, 0.000000000000000000, 10.00000000000000000 ) ) ;
#21 = VERTEX_POINT ( 'NONE', #934 ) ;
#22 = DIRECTION ( 'NONE',  ( -0.000000000000000000, -0.000000000000000000, 1.000000000000000000 ) ) ;
#23 = ORIENTED_EDGE ( 'NONE', *, *, #826, .F. ) ;
#24 = VERTEX_POINT ( 'NONE', #620 ) ;
#25 = FACE_OUTER_BOUND ( 'NONE', #119, .T. ) ;
#26 = ORIENTED_EDGE ( 'NONE', *, *, #846, .T. ) ;
#27 = MECHANICAL_DESIGN_GEOMETRIC_PRESENTATION_REPRESENTATION (  '', ( #1199 ), #855 ) ;
#28 = DIRECTION ( 'NONE',  ( -0.000000000000000000, -0.000000000000000000, 1.000000000000000000 ) ) ;
#29 = VECTOR ( 'NONE', #1322, 1000.000000000000000 ) ;
#30 = VECTOR ( 'NONE', #958, 1000.000000000000000 ) ;
#31 = CARTESIAN_POINT ( 'NONE',  ( 60.00000000000000711, 74.26566441201453017, 10.00000000000000000 ) ) ;
#32 =( NAMED_UNIT ( * ) SI_UNIT ( $, .STERADIAN. ) SOLID_ANGLE_UNIT ( ) );
#33 = VECTOR ( 'NONE', #959, 1000.000000000000000 ) ;
#34 = VECTOR ( 'NONE', #439, 1000.000000000000000 ) ;
#35 = LINE ( 'NONE', #142, #208 ) ;
#36 = EDGE_CURVE ( 'NONE', #116, #683, #746, .T. ) ;
#37 = LINE ( 'NONE', #144, #974 ) ;
#38 = DIRECTION ( 'NONE',  ( 0.000000000000000000, 0.000000000000000000, 1.000000000000000000 ) ) ;
#39 = EDGE_CURVE ( 'NONE', #1294, #590, #636, .T. ) ;
#40 = DIRECTION ( 'NONE',  ( -9.658436044151048737E-16, 1.000000000000000000, 0.000000000000000000 ) ) ;
#41 = VERTEX_POINT ( 'NONE', #1154 ) ;
#42 = PLANE ( 'NONE',  #384 ) ;
#43 = ORIENTED_EDGE ( 'NONE', *, *, #707, .F. ) ;
#44 = FACE_OUTER_BOUND ( 'NONE', #61, .T. ) ;
#45 = PLANE ( 'NONE',  #1242 ) ;
#46 = DIRECTION ( 'NONE',  ( 0.000000000000000000, -1.000000000000000000, 0.000000000000000000 ) ) ;
#47 = EDGE_CURVE ( 'NONE', #1299, #665, #1340, .T. ) ;
#48 = DIRECTION ( 'NONE',  ( -1.000000000000000000, 0.000000000000000000, 0.000000000000000000 ) ) ;
#49 = LINE ( 'NONE', #1282, #341 ) ;
#50 = ORIENTED_EDGE ( 'NONE', *, *, #283, .T. ) ;
#51 = FACE_OUTER_BOUND ( 'NONE', #180, .T. ) ;
#52 = ORIENTED_EDGE ( 'NONE', *, *, #353, .F. ) ;
#53 = DIRECTION ( 'NONE',  ( -0.8562152735254087155, -0.5166192073295471365, 0.000000000000000000 ) ) ;
#54 = LINE ( 'NONE', #882, #189 ) ;
#55 = DIRECTION ( 'NONE',  ( -1.000000000000000000, -9.658436044151048737E-16, 0.000000000000000000 ) ) ;
#56 = DIRECTION ( 'NONE',  ( -1.000000000000000000, 0.000000000000000000, 0.000000000000000000 ) ) ;
#57 = ORIENTED_EDGE ( 'NONE', *, *, #1001, .F. ) ;
#58 = VECTOR ( 'NONE', #46, 1000.000000000000000 ) ;
#59 = VECTOR ( 'NONE', #798, 1000.000000000000114 ) ;
#60 = CARTESIAN_POINT ( 'NONE',  ( 52.81571687984693142, 49.60874225245292024, 0.000000000000000000 ) ) ;
#61 = EDGE_LOOP ( 'NONE', ( #126, #469, #333, #345 ) ) ;
#62 = EDGE_CURVE ( 'NONE', #256, #1315, #322, .T. ) ;
#63 = DIRECTION ( 'NONE',  ( -0.8562152735254089375, -0.5166192073295465814, 0.000000000000000000 ) ) ;
#64 = ORIENTED_EDGE ( 'NONE', *, *, #813, .T. ) ;
#65 = ORIENTED_EDGE ( 'NONE', *, *, #402, .F. ) ;
#66 = LINE ( 'NONE', #291, #1023 ) ;
#67 = LINE ( 'NONE', #871, #801 ) ;
#68 = ORIENTED_EDGE ( 'NONE', *, *, #454, .F. ) ;
#69 = ORIENTED_EDGE ( 'NONE', *, *, #1147, .F. ) ;
#70 = ADVANCED_FACE ( 'NONE', ( #627 ), #647, .F. ) ;
#71 = DIRECTION ( 'NONE',  ( 1.000000000000000000, 0.000000000000000000, 0.000000000000000000 ) ) ;
#72 = ORIENTED_EDGE ( 'NONE', *, *, #484, .T. ) ;
#73 = DIRECTION ( 'NONE',  ( 0.8562152735254088265, -0.5166192073295469145, 0.000000000000000000 ) ) ;
#74 = CARTESIAN_POINT ( 'NONE',  ( 0.000000000000000000, 44.41439458148440167, 10.00000000000000000 ) ) ;
#75 = DIRECTION ( 'NONE',  ( 1.000000000000000000, 0.000000000000000000, 0.000000000000000000 ) ) ;
#76 = ORIENTED_EDGE ( 'NONE', *, *, #161, .T. ) ;
#77 = PRESENTATION_LAYER_ASSIGNMENT (  '', '', ( #1199 ) ) ;
#78 = VECTOR ( 'NONE', #1024, 1000.000000000000000 ) ;
#79 = VECTOR ( 'NONE', #94, 1000.000000000000000 ) ;
#80 = VECTOR ( 'NONE', #354, 1000.000000000000000 ) ;
#81 = ORIENTED_EDGE ( 'NONE', *, *, #1072, .T. ) ;
#82 = LINE ( 'NONE', #597, #364 ) ;
#83 = CARTESIAN_POINT ( 'NONE',  ( -1.750900791040339577, 45.47084499383866074, 0.000000000000000000 ) ) ;
#84 = DIRECTION ( 'NONE',  ( 0.000000000000000000, -1.000000000000000000, 0.000000000000000000 ) ) ;
#85 = CARTESIAN_POINT ( 'NONE',  ( 60.00000000000000000, 19.48301195227428906, 0.000000000000000000 ) ) ;
#86 = EDGE_LOOP ( 'NONE', ( #834, #160, #1006, #64 ) ) ;
#87 = CARTESIAN_POINT ( 'NONE',  ( 0.000000000000000000, 0.000000000000000000, 0.000000000000000000 ) ) ;
#88 = DIRECTION ( 'NONE',  ( -0.000000000000000000, -0.000000000000000000, 1.000000000000000000 ) ) ;
#89 = FACE_OUTER_BOUND ( 'NONE', #997, .T. ) ;
#90 = LINE ( 'NONE', #924, #1197 ) ;
#91 = APPLICATION_PROTOCOL_DEFINITION ( 'draft international standard', 'automotive_design', 1998, #1019 ) ;
#92 = ORIENTED_EDGE ( 'NONE', *, *, #161, .F. ) ;
#93 = ORIENTED_EDGE ( 'NONE', *, *, #967, .F. ) ;
#94 = DIRECTION ( 'NONE',  ( 0.000000000000000000, -0.000000000000000000, 1.000000000000000000 ) ) ;
#95 = COLOUR_RGB ( '',0.7921568627450980005, 0.8196078431372548767, 0.9333333333333333481 ) ;
#96 = AXIS2_PLACEMENT_3D ( 'NONE', #1078, #1171, #1176 ) ;
#97 = VECTOR ( 'NONE', #269, 1000.000000000000000 ) ;
#98 = DIRECTION ( 'NONE',  ( 0.000000000000000000, 1.000000000000000000, 0.000000000000000000 ) ) ;
#99 = ORIENTED_EDGE ( 'NONE', *, *, #1055, .F. ) ;
#100 = EDGE_CURVE ( 'NONE', #1294, #1168, #1143, .T. ) ;
#101 = DIRECTION ( 'NONE',  ( 0.000000000000000000, 1.000000000000000000, 0.000000000000000000 ) ) ;
#102 = APPLICATION_CONTEXT ( 'automotive_design' ) ;
#103 = CARTESIAN_POINT ( 'NONE',  ( 0.000000000000000000, 80.00000000000000000, 0.000000000000000000 ) ) ;
#104 = EDGE_CURVE ( 'NONE', #418, #703, #1049, .T. ) ;
#105 = CARTESIAN_POINT ( 'NONE',  ( 60.00000000000000000, 0.000000000000000000, 10.00000000000000000 ) ) ;
#106 = PLANE ( 'NONE',  #1104 ) ;
#107 = ORIENTED_EDGE ( 'NONE', *, *, #662, .T. ) ;
#108 = CARTESIAN_POINT ( 'NONE',  ( 52.81571687984693853, 60.51698804772570384, 0.000000000000000000 ) ) ;
#109 = PRESENTATION_STYLE_ASSIGNMENT (( #933 ) ) ;
#110 = ORIENTED_EDGE ( 'NONE', *, *, #312, .F. ) ;
#111 = CARTESIAN_POINT ( 'NONE',  ( 60.00000000000000000, 0.000000000000000000, 10.00000000000000000 ) ) ;
#112 = LINE ( 'NONE', #732, #276 ) ;
#113 = CARTESIAN_POINT ( 'NONE',  ( 60.00000000000000000, 74.26566441201451596, 10.00000000000000000 ) ) ;
#114 = VECTOR ( 'NONE', #936, 1000.000000000000000 ) ;
#115 = ADVANCED_FACE ( 'NONE', ( #923 ), #409, .F. ) ;
#116 = VERTEX_POINT ( 'NONE', #528 ) ;
#117 = VECTOR ( 'NONE', #671, 1000.000000000000000 ) ;
#118 = CARTESIAN_POINT ( 'NONE',  ( 0.000000000000000000, 18.34367458943671281, 10.00000000000000000 ) ) ;
#119 = EDGE_LOOP ( 'NONE', ( #273, #699, #140, #228 ) ) ;
#120 = FILL_AREA_STYLE_COLOUR ( '', #95 ) ;
#121 = ORIENTED_EDGE ( 'NONE', *, *, #175, .T. ) ;
#122 = CARTESIAN_POINT ( 'NONE',  ( 0.000000000000000000, 0.000000000000000000, 10.00000000000000000 ) ) ;
#123 = ORIENTED_EDGE ( 'NONE', *, *, #39, .F. ) ;
#124 = CARTESIAN_POINT ( 'NONE',  ( 0.000000000000000000, 0.000000000000000000, 0.000000000000000000 ) ) ;
#125 = DIRECTION ( 'NONE',  ( -1.000000000000000000, -0.000000000000000000, -0.000000000000000000 ) ) ;
#126 = ORIENTED_EDGE ( 'NONE', *, *, #657, .T. ) ;
#127 = LINE ( 'NONE', #573, #209 ) ;
#128 = ORIENTED_EDGE ( 'NONE', *, *, #1221, .F. ) ;
#129 = LINE ( 'NONE', #274, #946 ) ;
#130 = ADVANCED_FACE ( 'NONE', ( #1056 ), #825, .T. ) ;
#131 = ORIENTED_EDGE ( 'NONE', *, *, #1312, .F. ) ;
#132 = FACE_OUTER_BOUND ( 'NONE', #288, .T. ) ;
#133 = LINE ( 'NONE', #670, #861 ) ;
#134 = CARTESIAN_POINT ( 'NONE',  ( 60.00000000000000000, 80.00000000000000000, 10.00000000000000000 ) ) ;
#135 = AXIS2_PLACEMENT_3D ( 'NONE', #1239, #742, #1093 ) ;
#136 = CARTESIAN_POINT ( 'NONE',  ( 52.81571687984693142, 30.39125774754708331, 0.000000000000000000 ) ) ;
#137 = AXIS2_PLACEMENT_3D ( 'NONE', #996, #1026, #1220 ) ;
#138 = ORIENTED_EDGE ( 'NONE', *, *, #1231, .F. ) ;
#139 = PLANE ( 'NONE',  #453 ) ;
#140 = ORIENTED_EDGE ( 'NONE', *, *, #813, .F. ) ;
#141 = EDGE_CURVE ( 'NONE', #891, #339, #660, .T. ) ;
#142 = CARTESIAN_POINT ( 'NONE',  ( 7.076014860067608048, 72.42478871211119440, 0.000000000000000000 ) ) ;
#143 = EDGE_CURVE ( 'NONE', #438, #339, #639, .T. ) ;
#144 = CARTESIAN_POINT ( 'NONE',  ( -33.44857283120454383, 55.43576105840698887, 0.000000000000000000 ) ) ;
#145 = PLANE ( 'NONE',  #96 ) ;
#146 = ORIENTED_EDGE ( 'NONE', *, *, #401, .F. ) ;
#147 = LINE ( 'NONE', #275, #941 ) ;
#148 = CARTESIAN_POINT ( 'NONE',  ( 7.316166356981231189, 40.00000000000000000, 0.000000000000000000 ) ) ;
#149 = DIRECTION ( 'NONE',  ( -0.4631263658287110285, 0.8862922595139206550, 0.000000000000000000 ) ) ;
#150 = CARTESIAN_POINT ( 'NONE',  ( 7.076014860067608048, 7.575211287888820699, 10.00000000000000000 ) ) ;
#151 = CARTESIAN_POINT ( 'NONE',  ( 60.00000000000000000, 0.000000000000000000, 0.000000000000000000 ) ) ;
#152 = CARTESIAN_POINT ( 'NONE',  ( 30.60376472791041280, 0.000000000000000000, 10.00000000000000000 ) ) ;
#153 = DIRECTION ( 'NONE',  ( 1.000000000000000000, 0.000000000000000000, 0.000000000000000000 ) ) ;
#154 = LINE ( 'NONE', #266, #1120 ) ;
#155 = ORIENTED_EDGE ( 'NONE', *, *, #631, .T. ) ;
#156 = LINE ( 'NONE', #452, #651 ) ;
#157 = EDGE_CURVE ( 'NONE', #438, #972, #1058, .T. ) ;
#158 = VECTOR ( 'NONE', #1153, 1000.000000000000000 ) ;
#159 = PLANE ( 'NONE',  #1081 ) ;
#160 = ORIENTED_EDGE ( 'NONE', *, *, #790, .F. ) ;
#161 = EDGE_CURVE ( 'NONE', #1268, #1071, #1065, .T. ) ;
#162 = CARTESIAN_POINT ( 'NONE',  ( 60.00000000000000000, 30.39125774754708686, 0.000000000000000000 ) ) ;
#163 = CLOSED_SHELL ( 'NONE', ( #1005, #676, #1192, #1259, #315, #1038, #1011, #70, #115, #848, #694, #868, #1201, #466, #953, #1209, #365, #821, #811, #600, #870, #295, #1074, #1150, #297, #1129, #1228, #761, #284, #577, #1077, #196, #824, #213, #939, #1283, #419, #973, #130, #489, #378 ) ) ;
#164 = DIRECTION ( 'NONE',  ( 0.000000000000000000, 1.000000000000000000, 0.000000000000000000 ) ) ;
#165 = LINE ( 'NONE', #1103, #380 ) ;
#166 = ORIENTED_EDGE ( 'NONE', *, *, #422, .F. ) ;
#167 = CARTESIAN_POINT ( 'NONE',  ( 7.076014860067608048, 72.42478871211119440, 0.000000000000000000 ) ) ;
#168 = EDGE_CURVE ( 'NONE', #572, #1160, #1085, .T. ) ;
#169 = CARTESIAN_POINT ( 'NONE',  ( 30.60376472791041280, 2.494383353432922057, 0.000000000000000000 ) ) ;
#170 = ORIENTED_EDGE ( 'NONE', *, *, #826, .T. ) ;
#171 = DIRECTION ( 'NONE',  ( 0.000000000000000000, 0.000000000000000000, 1.000000000000000000 ) ) ;
#172 = EDGE_CURVE ( 'NONE', #1114, #630, #844, .T. ) ;
#173 = VERTEX_POINT ( 'NONE', #951 ) ;
#174 = LINE ( 'NONE', #487, #1305 ) ;
#175 = EDGE_CURVE ( 'NONE', #872, #540, #751, .T. ) ;
#176 = DIRECTION ( 'NONE',  ( 0.000000000000000000, 0.000000000000000000, -1.000000000000000000 ) ) ;
#177 = ORIENTED_EDGE ( 'NONE', *, *, #919, .T. ) ;
#178 = ORIENTED_EDGE ( 'NONE', *, *, #1216, .F. ) ;
#179 = EDGE_CURVE ( 'NONE', #256, #1088, #1258, .T. ) ;
#180 = EDGE_LOOP ( 'NONE', ( #494, #995, #710, #1189 ) ) ;
#181 = ORIENTED_EDGE ( 'NONE', *, *, #1110, .T. ) ;
#182 = DIRECTION ( 'NONE',  ( 0.000000000000000000, -0.000000000000000000, 1.000000000000000000 ) ) ;
#183 = PLANE ( 'NONE',  #1225 ) ;
#184 = DIRECTION ( 'NONE',  ( -9.658436044151048737E-16, -1.000000000000000000, 0.000000000000000000 ) ) ;
#185 = ORIENTED_EDGE ( 'NONE', *, *, #39, .T. ) ;
#186 = ORIENTED_EDGE ( 'NONE', *, *, #248, .F. ) ;
#187 = VECTOR ( 'NONE', #514, 1000.000000000000000 ) ;
#188 = CARTESIAN_POINT ( 'NONE',  ( 52.81571687984693142, 49.60874225245292024, 0.000000000000000000 ) ) ;
#189 = VECTOR ( 'NONE', #786, 1000.000000000000000 ) ;
#190 = ORIENTED_EDGE ( 'NONE', *, *, #141, .T. ) ;
#191 = LINE ( 'NONE', #501, #601 ) ;
#192 = CARTESIAN_POINT ( 'NONE',  ( 7.262798844342302829, 0.000000000000000000, 10.00000000000000000 ) ) ;
#193 = EDGE_CURVE ( 'NONE', #668, #1117, #1035, .T. ) ;
#194 = DIRECTION ( 'NONE',  ( -0.000000000000000000, -0.000000000000000000, 1.000000000000000000 ) ) ;
#195 = VERTEX_POINT ( 'NONE', #1151 ) ;
#196 = ADVANCED_FACE ( 'NONE', ( #503 ), #1224, .T. ) ;
#197 = CARTESIAN_POINT ( 'NONE',  ( 7.076014860067608048, 7.575211287888820699, 0.000000000000000000 ) ) ;
#198 = DIRECTION ( 'NONE',  ( -1.000000000000000000, 0.000000000000000000, 0.000000000000000000 ) ) ;
#199 = DIRECTION ( 'NONE',  ( 0.000000000000000000, 0.000000000000000000, -1.000000000000000000 ) ) ;
#200 = ORIENTED_EDGE ( 'NONE', *, *, #1248, .F. ) ;
#201 = EDGE_CURVE ( 'NONE', #1013, #1010, #840, .T. ) ;
#202 = EDGE_CURVE ( 'NONE', #957, #565, #612, .T. ) ;
#203 = DIRECTION ( 'NONE',  ( 0.000000000000000000, 0.000000000000000000, -1.000000000000000000 ) ) ;
#204 = EDGE_CURVE ( 'NONE', #1227, #259, #1146, .T. ) ;
#205 = VECTOR ( 'NONE', #22, 1000.000000000000000 ) ;
#206 = AXIS2_PLACEMENT_3D ( 'NONE', #1237, #184, #308 ) ;
#207 = EDGE_CURVE ( 'NONE', #895, #1117, #938, .T. ) ;
#208 = VECTOR ( 'NONE', #458, 1000.000000000000000 ) ;
#209 = VECTOR ( 'NONE', #149, 1000.000000000000227 ) ;
#210 = CARTESIAN_POINT ( 'NONE',  ( 0.000000000000000000, 0.000000000000000000, 0.000000000000000000 ) ) ;
#211 = AXIS2_PLACEMENT_3D ( 'NONE', #800, #270, #1178 ) ;
#212 = ORIENTED_EDGE ( 'NONE', *, *, #641, .T. ) ;
#213 = ADVANCED_FACE ( 'NONE', ( #1050 ), #106, .T. ) ;
#214 = DIRECTION ( 'NONE',  ( -1.000000000000000000, 0.000000000000000000, 0.000000000000000000 ) ) ;
#215 = LINE ( 'NONE', #935, #1196 ) ;
#216 = UNCERTAINTY_MEASURE_WITH_UNIT (LENGTH_MEASURE( 1.000000000000000082E-05 ), #8, 'distance_accuracy_value', 'NONE');
#217 = CARTESIAN_POINT ( 'NONE',  ( 60.00000000000000000, 0.000000000000000000, 10.00000000000000000 ) ) ;
#218 = VERTEX_POINT ( 'NONE', #1250 ) ;
#219 = PLANE ( 'NONE',  #1046 ) ;
#220 = CARTESIAN_POINT ( 'NONE',  ( 52.81571687984693142, 33.43526109754215270, 0.000000000000000000 ) ) ;
#221 = ORIENTED_EDGE ( 'NONE', *, *, #157, .F. ) ;
#222 = DIRECTION ( 'NONE',  ( -0.8562152735254087155, -0.5166192073295471365, 0.000000000000000000 ) ) ;
#223 = EDGE_CURVE ( 'NONE', #41, #1268, #112, .T. ) ;
#224 = PLANE ( 'NONE',  #835 ) ;
#225 = CARTESIAN_POINT ( 'NONE',  ( 0.000000000000000000, 80.00000000000000000, 0.000000000000000000 ) ) ;
#226 = ORIENTED_EDGE ( 'NONE', *, *, #454, .T. ) ;
#227 = DIRECTION ( 'NONE',  ( -1.000000000000000000, 0.000000000000000000, 0.000000000000000000 ) ) ;
#228 = ORIENTED_EDGE ( 'NONE', *, *, #402, .T. ) ;
#229 = EDGE_CURVE ( 'NONE', #367, #241, #336, .T. ) ;
#230 = DIRECTION ( 'NONE',  ( 0.000000000000000000, 0.000000000000000000, -1.000000000000000000 ) ) ;
#231 = ORIENTED_EDGE ( 'NONE', *, *, #372, .T. ) ;
#232 = VECTOR ( 'NONE', #101, 1000.000000000000000 ) ;
#233 = VECTOR ( 'NONE', #198, 1000.000000000000000 ) ;
#234 = FACE_OUTER_BOUND ( 'NONE', #926, .T. ) ;
#235 = ORIENTED_EDGE ( 'NONE', *, *, #626, .T. ) ;
#236 = FACE_OUTER_BOUND ( 'NONE', #842, .T. ) ;
#237 = CARTESIAN_POINT ( 'NONE',  ( 30.60376472791041635, 80.00000000000000000, 0.000000000000000000 ) ) ;
#238 = ORIENTED_EDGE ( 'NONE', *, *, #1338, .F. ) ;
#239 = PRODUCT_CONTEXT ( 'NONE', #1019, 'mechanical' ) ;
#240 = CARTESIAN_POINT ( 'NONE',  ( 52.81571687984693853, 60.51698804772570384, 10.00000000000000000 ) ) ;
#241 = VERTEX_POINT ( 'NONE', #431 ) ;
#242 = CARTESIAN_POINT ( 'NONE',  ( 52.81571687984693142, 30.39125774754708331, 0.000000000000000000 ) ) ;
#243 = EDGE_CURVE ( 'NONE', #1160, #173, #215, .T. ) ;
#244 = ADVANCED_BREP_SHAPE_REPRESENTATION ( 'Rf2i', ( #1070, #492 ), #512 ) ;
#245 = CARTESIAN_POINT ( 'NONE',  ( 38.30999224496512312, 2.494383353432922057, 0.000000000000000000 ) ) ;
#246 = EDGE_CURVE ( 'NONE', #1114, #892, #331, .T. ) ;
#247 = CARTESIAN_POINT ( 'NONE',  ( 0.000000000000000000, 0.000000000000000000, 10.00000000000000000 ) ) ;
#248 = EDGE_CURVE ( 'NONE', #1010, #289, #538, .T. ) ;
#249 = EDGE_LOOP ( 'NONE', ( #146, #769, #1025, #1009 ) ) ;
#250 = ORIENTED_EDGE ( 'NONE', *, *, #246, .T. ) ;
#251 = CARTESIAN_POINT ( 'NONE',  ( 7.076014860067608048, 18.34367458943671281, 10.00000000000000000 ) ) ;
#252 = AXIS2_PLACEMENT_3D ( 'NONE', #978, #985, #1174 ) ;
#253 = CARTESIAN_POINT ( 'NONE',  ( 38.30999224496513023, 80.00000000000000000, 0.000000000000000000 ) ) ;
#254 = VECTOR ( 'NONE', #532, 1000.000000000000000 ) ;
#255 = DIRECTION ( 'NONE',  ( 0.000000000000000000, -0.000000000000000000, 1.000000000000000000 ) ) ;
#256 = VERTEX_POINT ( 'NONE', #237 ) ;
#257 = CARTESIAN_POINT ( 'NONE',  ( 38.30999224496513023, 0.000000000000000000, 0.000000000000000000 ) ) ;
#258 = VECTOR ( 'NONE', #970, 1000.000000000000000 ) ;
#259 = VERTEX_POINT ( 'NONE', #659 ) ;
#260 = DIRECTION ( 'NONE',  ( 0.000000000000000000, -1.000000000000000000, 0.000000000000000000 ) ) ;
#261 = LINE ( 'NONE', #148, #755 ) ;
#262 = LINE ( 'NONE', #991, #599 ) ;
#263 = FACE_OUTER_BOUND ( 'NONE', #467, .T. ) ;
#264 = PLANE ( 'NONE',  #1016 ) ;
#265 = EDGE_CURVE ( 'NONE', #17, #572, #35, .T. ) ;
#266 = CARTESIAN_POINT ( 'NONE',  ( 52.81571687984693142, 33.43526109754215270, 0.000000000000000000 ) ) ;
#267 = DIRECTION ( 'NONE',  ( -0.000000000000000000, -0.000000000000000000, 1.000000000000000000 ) ) ;
#268 = ORIENTED_EDGE ( 'NONE', *, *, #919, .F. ) ;
#269 = DIRECTION ( 'NONE',  ( -1.000000000000000000, 0.000000000000000000, 0.000000000000000000 ) ) ;
#270 = DIRECTION ( 'NONE',  ( 1.000000000000000000, 0.000000000000000000, 0.000000000000000000 ) ) ;
#271 = ORIENTED_EDGE ( 'NONE', *, *, #1216, .T. ) ;
#272 = ORIENTED_EDGE ( 'NONE', *, *, #981, .F. ) ;
#273 = ORIENTED_EDGE ( 'NONE', *, *, #422, .T. ) ;
#274 = CARTESIAN_POINT ( 'NONE',  ( 52.81571687984693142, 30.39125774754708331, 10.00000000000000000 ) ) ;
#275 = CARTESIAN_POINT ( 'NONE',  ( 7.076014860067608048, 18.34367458943671281, 10.00000000000000000 ) ) ;
#276 = VECTOR ( 'NONE', #948, 1000.000000000000000 ) ;
#277 = VECTOR ( 'NONE', #281, 1000.000000000000000 ) ;
#278 = AXIS2_PLACEMENT_3D ( 'NONE', #188, #71, #287 ) ;
#279 = VERTEX_POINT ( 'NONE', #251 ) ;
#280 = ORIENTED_EDGE ( 'NONE', *, *, #223, .F. ) ;
#281 = DIRECTION ( 'NONE',  ( 0.000000000000000000, 0.000000000000000000, -1.000000000000000000 ) ) ;
#282 = DIRECTION ( 'NONE',  ( 1.000000000000000000, 0.000000000000000000, 0.000000000000000000 ) ) ;
#283 = EDGE_CURVE ( 'NONE', #1010, #540, #867, .T. ) ;
#284 = ADVANCED_FACE ( 'NONE', ( #1076 ), #560, .T. ) ;
#285 = ORIENTED_EDGE ( 'NONE', *, *, #470, .T. ) ;
#286 = DIRECTION ( 'NONE',  ( 8.350765299561409969E-16, -1.000000000000000000, 0.000000000000000000 ) ) ;
#287 = DIRECTION ( 'NONE',  ( 0.000000000000000000, 0.000000000000000000, -1.000000000000000000 ) ) ;
#288 = EDGE_LOOP ( 'NONE', ( #1121, #1066, #1243, #990 ) ) ;
#289 = VERTEX_POINT ( 'NONE', #242 ) ;
#290 = LINE ( 'NONE', #1021, #778 ) ;
#291 = CARTESIAN_POINT ( 'NONE',  ( 1.938407641767275758, 3.212606511048293534, 0.000000000000000000 ) ) ;
#292 = EDGE_CURVE ( 'NONE', #21, #368, #350, .T. ) ;
#293 = CARTESIAN_POINT ( 'NONE',  ( 38.30999224496513023, 80.00000000000000000, 10.00000000000000000 ) ) ;
#294 = VERTEX_POINT ( 'NONE', #1272 ) ;
#295 = ADVANCED_FACE ( 'NONE', ( #44 ), #463, .T. ) ;
#296 = ORIENTED_EDGE ( 'NONE', *, *, #413, .T. ) ;
#297 = ADVANCED_FACE ( 'NONE', ( #1184 ), #1092, .T. ) ;
#298 = CARTESIAN_POINT ( 'NONE',  ( 52.81571687984693853, 19.48301195227428906, 10.00000000000000000 ) ) ;
#299 = DIRECTION ( 'NONE',  ( -0.000000000000000000, -1.000000000000000000, -0.000000000000000000 ) ) ;
#300 = CARTESIAN_POINT ( 'NONE',  ( -1.750900791040339355, 18.34367458943671281, 10.00000000000000000 ) ) ;
#301 = EDGE_LOOP ( 'NONE', ( #93, #865, #849, #26 ) ) ;
#302 = VECTOR ( 'NONE', #1246, 1000.000000000000000 ) ;
#303 = CARTESIAN_POINT ( 'NONE',  ( -4.336808689942017736E-16, 44.41439458148440167, 10.00000000000000000 ) ) ;
#304 = DIRECTION ( 'NONE',  ( 0.000000000000000000, 1.000000000000000000, 0.000000000000000000 ) ) ;
#305 = CARTESIAN_POINT ( 'NONE',  ( -8.673617379884035472E-15, 75.61780606119178572, 0.000000000000000000 ) ) ;
#306 = CARTESIAN_POINT ( 'NONE',  ( 0.000000000000000000, 75.61780606119178572, 10.00000000000000000 ) ) ;
#307 = PLANE ( 'NONE',  #799 ) ;
#308 = DIRECTION ( 'NONE',  ( 1.000000000000000000, -9.658436044151048737E-16, 0.000000000000000000 ) ) ;
#309 = EDGE_CURVE ( 'NONE', #195, #895, #905, .T. ) ;
#310 = EDGE_CURVE ( 'NONE', #724, #845, #400, .T. ) ;
#311 = DIRECTION ( 'NONE',  ( 1.000000000000000000, -0.000000000000000000, 0.000000000000000000 ) ) ;
#312 = EDGE_CURVE ( 'NONE', #784, #630, #1128, .T. ) ;
#313 = CARTESIAN_POINT ( 'NONE',  ( 7.076014860067608048, 7.575211287888820699, 0.000000000000000000 ) ) ;
#314 = VERTEX_POINT ( 'NONE', #698 ) ;
#315 = ADVANCED_FACE ( 'NONE', ( #1033 ), #791, .F. ) ;
#316 = CARTESIAN_POINT ( 'NONE',  ( 7.076014860067608048, 72.42478871211119440, 0.000000000000000000 ) ) ;
#317 = VECTOR ( 'NONE', #56, 1000.000000000000000 ) ;
#318 = AXIS2_PLACEMENT_3D ( 'NONE', #1247, #819, #832 ) ;
#319 = CARTESIAN_POINT ( 'NONE',  ( -5.204170427930421283E-15, 35.58560541851560544, 10.00000000000000000 ) ) ;
#320 = ORIENTED_EDGE ( 'NONE', *, *, #1206, .T. ) ;
#321 = CARTESIAN_POINT ( 'NONE',  ( 60.00000000000000000, 0.000000000000000000, 10.00000000000000000 ) ) ;
#322 = LINE ( 'NONE', #103, #578 ) ;
#323 = EDGE_CURVE ( 'NONE', #24, #116, #1298, .T. ) ;
#324 = FACE_OUTER_BOUND ( 'NONE', #391, .T. ) ;
#325 = DIRECTION ( 'NONE',  ( 0.000000000000000000, 1.000000000000000000, 0.000000000000000000 ) ) ;
#326 = VERTEX_POINT ( 'NONE', #897 ) ;
#327 = LINE ( 'NONE', #525, #729 ) ;
#328 = LINE ( 'NONE', #965, #205 ) ;
#329 = EDGE_CURVE ( 'NONE', #550, #665, #1205, .T. ) ;
#330 = ORIENTED_EDGE ( 'NONE', *, *, #347, .F. ) ;
#331 = LINE ( 'NONE', #1155, #618 ) ;
#332 = LINE ( 'NONE', #122, #33 ) ;
#333 = ORIENTED_EDGE ( 'NONE', *, *, #511, .T. ) ;
#334 = ORIENTED_EDGE ( 'NONE', *, *, #966, .T. ) ;
#335 = ORIENTED_EDGE ( 'NONE', *, *, #201, .T. ) ;
#336 = LINE ( 'NONE', #1144, #1041 ) ;
#337 = AXIS2_PLACEMENT_3D ( 'NONE', #245, #530, #1327 ) ;
#338 = VECTOR ( 'NONE', #75, 1000.000000000000000 ) ;
#339 = VERTEX_POINT ( 'NONE', #569 ) ;
#340 = AXIS2_PLACEMENT_3D ( 'NONE', #111, #214, #1 ) ;
#341 = VECTOR ( 'NONE', #992, 1000.000000000000000 ) ;
#342 = EDGE_LOOP ( 'NONE', ( #1105, #752, #477, #1270 ) ) ;
#343 = DIRECTION ( 'NONE',  ( -1.000000000000000000, 0.000000000000000000, -0.000000000000000000 ) ) ;
#344 = EDGE_LOOP ( 'NONE', ( #435, #110, #653, #1306 ) ) ;
#345 = ORIENTED_EDGE ( 'NONE', *, *, #1321, .F. ) ;
#346 = CARTESIAN_POINT ( 'NONE',  ( 7.316166356981231189, 40.00000000000000000, 0.000000000000000000 ) ) ;
#347 = EDGE_CURVE ( 'NONE', #527, #116, #986, .T. ) ;
#348 = EDGE_LOOP ( 'NONE', ( #1252, #170, #803, #809, #1263, #1152, #896, #155, #704, #483, #107, #1069, #1166, #1213, #754, #1316, #16, #250, #212, #697, #643, #737, #1265, #1030, #121, #480, #226, #1068, #781, #506, #734, #1118, #1157, #712, #537, #1113, #912, #426, #76 ) ) ;
#349 = EDGE_LOOP ( 'NONE', ( #682, #1059, #975, #1177 ) ) ;
#350 = LINE ( 'NONE', #886, #730 ) ;
#351 = PLANE ( 'NONE',  #252 ) ;
#352 = DIRECTION ( 'NONE',  ( -0.000000000000000000, -1.000000000000000000, -0.000000000000000000 ) ) ;
#353 = EDGE_CURVE ( 'NONE', #1037, #703, #54, .T. ) ;
#354 = DIRECTION ( 'NONE',  ( -0.000000000000000000, -1.000000000000000000, -0.000000000000000000 ) ) ;
#355 = ORIENTED_EDGE ( 'NONE', *, *, #520, .T. ) ;
#356 = DIRECTION ( 'NONE',  ( 1.000000000000000000, 8.350765299561409969E-16, 0.000000000000000000 ) ) ;
#357 = ORIENTED_EDGE ( 'NONE', *, *, #141, .F. ) ;
#358 = DIRECTION ( 'NONE',  ( -0.8562152735254087155, -0.5166192073295470255, 0.000000000000000000 ) ) ;
#359 = LINE ( 'NONE', #776, #1245 ) ;
#360 = VECTOR ( 'NONE', #541, 1000.000000000000000 ) ;
#361 = PLANE ( 'NONE',  #531 ) ;
#362 = ORIENTED_EDGE ( 'NONE', *, *, #650, .F. ) ;
#363 = DIRECTION ( 'NONE',  ( 0.000000000000000000, 0.000000000000000000, 1.000000000000000000 ) ) ;
#364 = VECTOR ( 'NONE', #1123, 1000.000000000000000 ) ;
#365 = ADVANCED_FACE ( 'NONE', ( #1096 ), #575, .T. ) ;
#366 = CARTESIAN_POINT ( 'NONE',  ( 0.000000000000000000, 0.000000000000000000, 0.000000000000000000 ) ) ;
#367 = VERTEX_POINT ( 'NONE', #1309 ) ;
#368 = VERTEX_POINT ( 'NONE', #603 ) ;
#369 = FACE_OUTER_BOUND ( 'NONE', #1132, .T. ) ;
#370 = LINE ( 'NONE', #884, #3 ) ;
#371 = ORIENTED_EDGE ( 'NONE', *, *, #1165, .F. ) ;
#372 = EDGE_CURVE ( 'NONE', #367, #218, #290, .T. ) ;
#373 = LINE ( 'NONE', #478, #921 ) ;
#374 = CARTESIAN_POINT ( 'NONE',  ( 30.60376472791041280, 2.494383353432922057, 0.000000000000000000 ) ) ;
#375 = ORIENTED_EDGE ( 'NONE', *, *, #312, .T. ) ;
#376 = EDGE_LOOP ( 'NONE', ( #235, #1061, #850, #1241 ) ) ;
#377 = ORIENTED_EDGE ( 'NONE', *, *, #484, .F. ) ;
#378 = ADVANCED_FACE ( 'NONE', ( #386 ), #392, .T. ) ;
#379 = CARTESIAN_POINT ( 'NONE',  ( 7.076014860067608048, 18.34367458943671281, 0.000000000000000000 ) ) ;
#380 = VECTOR ( 'NONE', #1273, 1000.000000000000000 ) ;
#381 = CARTESIAN_POINT ( 'NONE',  ( 30.60376472791041280, -1.660262152094377219, 0.000000000000000000 ) ) ;
#382 = AXIS2_PLACEMENT_3D ( 'NONE', #831, #1126, #203 ) ;
#383 = VECTOR ( 'NONE', #267, 1000.000000000000000 ) ;
#384 = AXIS2_PLACEMENT_3D ( 'NONE', #1296, #479, #770 ) ;
#385 = ORIENTED_EDGE ( 'NONE', *, *, #104, .T. ) ;
#386 = FACE_OUTER_BOUND ( 'NONE', #847, .T. ) ;
#387 = DIRECTION ( 'NONE',  ( 0.000000000000000000, -0.000000000000000000, -1.000000000000000000 ) ) ;
#388 = LINE ( 'NONE', #807, #649 ) ;
#389 = ORIENTED_EDGE ( 'NONE', *, *, #394, .F. ) ;
#390 = ORIENTED_EDGE ( 'NONE', *, *, #993, .T. ) ;
#391 = EDGE_LOOP ( 'NONE', ( #320, #1017, #722, #543 ) ) ;
#392 = PLANE ( 'NONE',  #515 ) ;
#393 = CARTESIAN_POINT ( 'NONE',  ( -1.750900791040339577, 45.47084499383866074, 10.00000000000000000 ) ) ;
#394 = EDGE_CURVE ( 'NONE', #640, #630, #82, .T. ) ;
#395 = PLANE ( 'NONE',  #278 ) ;
#396 = CARTESIAN_POINT ( 'NONE',  ( 38.30999224496513023, 77.50561664656707705, 0.000000000000000000 ) ) ;
#397 = CARTESIAN_POINT ( 'NONE',  ( 7.262798844342302829, 0.000000000000000000, 0.000000000000000000 ) ) ;
#398 = CARTESIAN_POINT ( 'NONE',  ( 38.30999224496513023, 77.50561664656707705, 10.00000000000000000 ) ) ;
#399 = EDGE_CURVE ( 'NONE', #683, #645, #498, .T. ) ;
#400 = LINE ( 'NONE', #1325, #1020 ) ;
#401 = EDGE_CURVE ( 'NONE', #218, #872, #907, .T. ) ;
#402 = EDGE_CURVE ( 'NONE', #437, #1227, #191, .T. ) ;
#403 = VECTOR ( 'NONE', #325, 1000.000000000000000 ) ;
#404 = CARTESIAN_POINT ( 'NONE',  ( 0.000000000000000000, 0.000000000000000000, 0.000000000000000000 ) ) ;
#405 = DIRECTION ( 'NONE',  ( 0.000000000000000000, 0.000000000000000000, -1.000000000000000000 ) ) ;
#406 = VECTOR ( 'NONE', #1341, 1000.000000000000000 ) ;
#407 = CARTESIAN_POINT ( 'NONE',  ( -1.750900791040339577, 72.42478871211119440, 10.00000000000000000 ) ) ;
#408 = CARTESIAN_POINT ( 'NONE',  ( 30.60376472791041635, 77.50561664656707705, 0.000000000000000000 ) ) ;
#409 = PLANE ( 'NONE',  #340 ) ;
#410 = PRODUCT_DEFINITION_SHAPE ( 'NONE', 'NONE',  #1335 ) ;
#411 = LINE ( 'NONE', #950, #406 ) ;
#412 = CARTESIAN_POINT ( 'NONE',  ( 60.00000000000000000, 30.39125774754708686, 10.00000000000000000 ) ) ;
#413 = EDGE_CURVE ( 'NONE', #788, #433, #909, .T. ) ;
#414 = DIRECTION ( 'NONE',  ( -0.000000000000000000, -1.000000000000000000, -0.000000000000000000 ) ) ;
#415 = CARTESIAN_POINT ( 'NONE',  ( 7.076014860067608048, 61.65632541056329075, 0.000000000000000000 ) ) ;
#416 = PRODUCT_DEFINITION_CONTEXT ( 'detailed design', #102, 'design' ) ;
#417 = CARTESIAN_POINT ( 'NONE',  ( 52.81571687984693142, 46.56473890245784730, 10.00000000000000000 ) ) ;
#418 = VERTEX_POINT ( 'NONE', #460 ) ;
#419 = ADVANCED_FACE ( 'NONE', ( #369 ), #465, .T. ) ;
#420 = LINE ( 'NONE', #1067, #488 ) ;
#421 = CARTESIAN_POINT ( 'NONE',  ( 19.64614142217318005, 32.56039673487147468, 0.000000000000000000 ) ) ;
#422 = EDGE_CURVE ( 'NONE', #1227, #21, #373, .T. ) ;
#423 = AXIS2_PLACEMENT_3D ( 'NONE', #559, #461, #63 ) ;
#424 = DIRECTION ( 'NONE',  ( 0.000000000000000000, 0.000000000000000000, 1.000000000000000000 ) ) ;
#425 = CARTESIAN_POINT ( 'NONE',  ( 52.81571687984693142, 46.56473890245784730, 0.000000000000000000 ) ) ;
#426 = ORIENTED_EDGE ( 'NONE', *, *, #223, .T. ) ;
#427 = EDGE_CURVE ( 'NONE', #289, #1082, #1000, .T. ) ;
#428 = DIRECTION ( 'NONE',  ( -1.000000000000000000, 0.000000000000000000, 0.000000000000000000 ) ) ;
#429 = CARTESIAN_POINT ( 'NONE',  ( 30.60376472791041635, 80.00000000000000000, 10.00000000000000000 ) ) ;
#430 = ORIENTED_EDGE ( 'NONE', *, *, #204, .T. ) ;
#431 = CARTESIAN_POINT ( 'NONE',  ( 60.00000000000000711, 5.734335587985431637, 0.000000000000000000 ) ) ;
#432 = CARTESIAN_POINT ( 'NONE',  ( 30.60376472791041280, 0.000000000000000000, 10.00000000000000000 ) ) ;
#433 = VERTEX_POINT ( 'NONE', #779 ) ;
#434 = DIRECTION ( 'NONE',  ( 0.000000000000000000, 0.000000000000000000, -1.000000000000000000 ) ) ;
#435 = ORIENTED_EDGE ( 'NONE', *, *, #172, .T. ) ;
#436 = DIRECTION ( 'NONE',  ( 1.000000000000000000, 0.000000000000000000, 0.000000000000000000 ) ) ;
#437 = VERTEX_POINT ( 'NONE', #889 ) ;
#438 = VERTEX_POINT ( 'NONE', #987 ) ;
#439 = DIRECTION ( 'NONE',  ( -0.000000000000000000, -0.000000000000000000, 1.000000000000000000 ) ) ;
#440 = VERTEX_POINT ( 'NONE', #253 ) ;
#441 = DIRECTION ( 'NONE',  ( -0.000000000000000000, -1.000000000000000000, -0.000000000000000000 ) ) ;
#442 = EDGE_LOOP ( 'NONE', ( #588, #268, #81, #947 ) ) ;
#443 = CARTESIAN_POINT ( 'NONE',  ( 59.99999999999999289, 49.60874225245291314, 10.00000000000000000 ) ) ;
#444 = VERTEX_POINT ( 'NONE', #473 ) ;
#445 = EDGE_CURVE ( 'NONE', #1168, #602, #1275, .T. ) ;
#446 = DIRECTION ( 'NONE',  ( -0.000000000000000000, -0.000000000000000000, 1.000000000000000000 ) ) ;
#447 = AXIS2_PLACEMENT_3D ( 'NONE', #108, #14, #1060 ) ;
#448 = DIRECTION ( 'NONE',  ( -1.000000000000000000, -0.000000000000000000, -0.000000000000000000 ) ) ;
#449 = LINE ( 'NONE', #366, #977 ) ;
#450 = ORIENTED_EDGE ( 'NONE', *, *, #1339, .F. ) ;
#451 = VECTOR ( 'NONE', #608, 1000.000000000000000 ) ;
#452 = CARTESIAN_POINT ( 'NONE',  ( 30.60376472791041635, 77.50561664656707705, 10.00000000000000000 ) ) ;
#453 = AXIS2_PLACEMENT_3D ( 'NONE', #1173, #343, #1062 ) ;
#454 = EDGE_CURVE ( 'NONE', #1082, #1232, #129, .T. ) ;
#455 = PLANE ( 'NONE',  #447 ) ;
#456 = CARTESIAN_POINT ( 'NONE',  ( 38.30999224496513023, 0.000000000000000000, -0.000000000000000000 ) ) ;
#457 = ORIENTED_EDGE ( 'NONE', *, *, #1312, .T. ) ;
#458 = DIRECTION ( 'NONE',  ( -0.000000000000000000, -0.000000000000000000, 1.000000000000000000 ) ) ;
#459 = EDGE_CURVE ( 'NONE', #368, #259, #49, .T. ) ;
#460 = CARTESIAN_POINT ( 'NONE',  ( 7.316166356981231189, 40.00000000000000000, 0.000000000000000000 ) ) ;
#461 = DIRECTION ( 'NONE',  ( -0.5166192073295465814, 0.8562152735254089375, 0.000000000000000000 ) ) ;
#462 = ORIENTED_EDGE ( 'NONE', *, *, #984, .F. ) ;
#463 = PLANE ( 'NONE',  #1083 ) ;
#464 = DIRECTION ( 'NONE',  ( -0.000000000000000000, -0.000000000000000000, -1.000000000000000000 ) ) ;
#465 = PLANE ( 'NONE',  #1125 ) ;
#466 = ADVANCED_FACE ( 'NONE', ( #549 ), #361, .F. ) ;
#467 = EDGE_LOOP ( 'NONE', ( #585, #99, #285, #280 ) ) ;
#468 = PLANE ( 'NONE',  #211 ) ;
#469 = ORIENTED_EDGE ( 'NONE', *, *, #646, .F. ) ;
#470 = EDGE_CURVE ( 'NONE', #788, #1268, #1291, .T. ) ;
#471 = CARTESIAN_POINT ( 'NONE',  ( 60.00000000000000000, 80.00000000000000000, 10.00000000000000000 ) ) ;
#472 = ORIENTED_EDGE ( 'NONE', *, *, #830, .F. ) ;
#473 = CARTESIAN_POINT ( 'NONE',  ( 60.00000000000000711, 5.734335587985460947, 10.00000000000000000 ) ) ;
#474 = EDGE_CURVE ( 'NONE', #1079, #326, #677, .T. ) ;
#475 = DIRECTION ( 'NONE',  ( -8.350765299561409969E-16, 1.000000000000000000, 0.000000000000000000 ) ) ;
#476 = VECTOR ( 'NONE', #583, 1000.000000000000000 ) ;
#477 = ORIENTED_EDGE ( 'NONE', *, *, #309, .F. ) ;
#478 = CARTESIAN_POINT ( 'NONE',  ( 38.30999224496513023, 0.000000000000000000, 10.00000000000000000 ) ) ;
#479 = DIRECTION ( 'NONE',  ( 0.000000000000000000, 1.000000000000000000, 0.000000000000000000 ) ) ;
#480 = ORIENTED_EDGE ( 'NONE', *, *, #1249, .T. ) ;
#481 = FACE_OUTER_BOUND ( 'NONE', #376, .T. ) ;
#482 = FACE_OUTER_BOUND ( 'NONE', #344, .T. ) ;
#483 = ORIENTED_EDGE ( 'NONE', *, *, #47, .T. ) ;
#484 = EDGE_CURVE ( 'NONE', #927, #527, #684, .T. ) ;
#485 = EDGE_CURVE ( 'NONE', #1071, #1088, #156, .T. ) ;
#486 = ORIENTED_EDGE ( 'NONE', *, *, #922, .T. ) ;
#487 = CARTESIAN_POINT ( 'NONE',  ( 7.076014860067608048, 18.34367458943671281, 0.000000000000000000 ) ) ;
#488 = VECTOR ( 'NONE', #227, 1000.000000000000000 ) ;
#489 = ADVANCED_FACE ( 'NONE', ( #263 ), #145, .T. ) ;
#490 = LINE ( 'NONE', #313, #797 ) ;
#491 = EDGE_CURVE ( 'NONE', #891, #41, #982, .T. ) ;
#492 = AXIS2_PLACEMENT_3D ( 'NONE', #124, #758, #13 ) ;
#493 = VECTOR ( 'NONE', #1326, 1000.000000000000114 ) ;
#494 = ORIENTED_EDGE ( 'NONE', *, *, #626, .F. ) ;
#495 = EDGE_LOOP ( 'NONE', ( #221, #533, #357, #854 ) ) ;
#496 = VECTOR ( 'NONE', #713, 1000.000000000000000 ) ;
#497 = ORIENTED_EDGE ( 'NONE', *, *, #748, .F. ) ;
#498 = LINE ( 'NONE', #1214, #696 ) ;
#499 = DIRECTION ( 'NONE',  ( 0.8562152735254087155, -0.5166192073295470255, 0.000000000000000000 ) ) ;
#500 =( NAMED_UNIT ( * ) SI_UNIT ( $, .STERADIAN. ) SOLID_ANGLE_UNIT ( ) );
#501 = CARTESIAN_POINT ( 'NONE',  ( 38.30999224496512312, 2.494383353432922057, 0.000000000000000000 ) ) ;
#502 = LINE ( 'NONE', #815, #451 ) ;
#503 = FACE_OUTER_BOUND ( 'NONE', #661, .T. ) ;
#504 = DIRECTION ( 'NONE',  ( 0.000000000000000000, 0.000000000000000000, 1.000000000000000000 ) ) ;
#505 = EDGE_CURVE ( 'NONE', #259, #241, #564, .T. ) ;
#506 = ORIENTED_EDGE ( 'NONE', *, *, #967, .T. ) ;
#507 = CARTESIAN_POINT ( 'NONE',  ( 52.81571687984693142, 49.60874225245292024, 10.00000000000000000 ) ) ;
#508 = DIRECTION ( 'NONE',  ( 1.000000000000000000, 0.000000000000000000, 0.000000000000000000 ) ) ;
#509 = ORIENTED_EDGE ( 'NONE', *, *, #764, .F. ) ;
#510 = AXIS2_PLACEMENT_3D ( 'NONE', #87, #1233, #723 ) ;
#511 = EDGE_CURVE ( 'NONE', #607, #279, #174, .T. ) ;
#512 =( GEOMETRIC_REPRESENTATION_CONTEXT ( 3 ) GLOBAL_UNCERTAINTY_ASSIGNED_CONTEXT ( ( #930 ) ) GLOBAL_UNIT_ASSIGNED_CONTEXT ( ( #1210, #719, #500 ) ) REPRESENTATION_CONTEXT ( 'NONE', 'WORKASPACE' ) );
#513 = AXIS2_PLACEMENT_3D ( 'NONE', #1235, #311, #1136 ) ;
#514 = DIRECTION ( 'NONE',  ( -0.8562152735254087155, 0.5166192073295470255, 0.000000000000000000 ) ) ;
#515 = AXIS2_PLACEMENT_3D ( 'NONE', #1222, #805, #182 ) ;
#516 = DIRECTION ( 'NONE',  ( -1.000000000000000000, 0.000000000000000000, 0.000000000000000000 ) ) ;
#517 = ORIENTED_EDGE ( 'NONE', *, *, #36, .F. ) ;
#518 = EDGE_CURVE ( 'NONE', #602, #572, #591, .T. ) ;
#519 = DIRECTION ( 'NONE',  ( -0.000000000000000000, 0.000000000000000000, 1.000000000000000000 ) ) ;
#520 = EDGE_CURVE ( 'NONE', #1342, #1099, #1200, .T. ) ;
#521 = FACE_OUTER_BOUND ( 'NONE', #442, .T. ) ;
#522 = DIRECTION ( 'NONE',  ( 1.000000000000000000, 0.000000000000000000, 0.000000000000000000 ) ) ;
#523 = DIRECTION ( 'NONE',  ( 0.000000000000000000, -0.000000000000000000, 1.000000000000000000 ) ) ;
#524 = EDGE_LOOP ( 'NONE', ( #680, #841, #190, #1219 ) ) ;
#525 = CARTESIAN_POINT ( 'NONE',  ( 0.000000000000000000, 4.382193938808221390, 10.00000000000000000 ) ) ;
#526 = FACE_OUTER_BOUND ( 'NONE', #349, .T. ) ;
#527 = VERTEX_POINT ( 'NONE', #1116 ) ;
#528 = CARTESIAN_POINT ( 'NONE',  ( 0.000000000000000000, 7.575211287888820699, 10.00000000000000000 ) ) ;
#529 = AXIS2_PLACEMENT_3D ( 'NONE', #20, #851, #255 ) ;
#530 = DIRECTION ( 'NONE',  ( -1.000000000000000000, -1.670153059912281994E-15, 0.000000000000000000 ) ) ;
#531 = AXIS2_PLACEMENT_3D ( 'NONE', #768, #666, #1086 ) ;
#532 = DIRECTION ( 'NONE',  ( 0.000000000000000000, 0.000000000000000000, -1.000000000000000000 ) ) ;
#533 = ORIENTED_EDGE ( 'NONE', *, *, #143, .T. ) ;
#534 = PLANE ( 'NONE',  #1140 ) ;
#535 = EDGE_LOOP ( 'NONE', ( #762, #1212, #9, #185 ) ) ;
#536 = LINE ( 'NONE', #220, #158 ) ;
#537 = ORIENTED_EDGE ( 'NONE', *, *, #1001, .T. ) ;
#538 = LINE ( 'NONE', #1164, #30 ) ;
#539 = CARTESIAN_POINT ( 'NONE',  ( 7.262798844342309934, 80.00000000000000000, 10.00000000000000000 ) ) ;
#540 = VERTEX_POINT ( 'NONE', #1022 ) ;
#541 = DIRECTION ( 'NONE',  ( -1.000000000000000000, -9.658436044151048737E-16, 0.000000000000000000 ) ) ;
#542 = EDGE_CURVE ( 'NONE', #195, #668, #1215, .T. ) ;
#543 = ORIENTED_EDGE ( 'NONE', *, *, #1122, .T. ) ;
#544 = DIRECTION ( 'NONE',  ( -1.000000000000000000, -4.829218022075519438E-16, 0.000000000000000000 ) ) ;
#545 = ORIENTED_EDGE ( 'NONE', *, *, #846, .F. ) ;
#546 = DIRECTION ( 'NONE',  ( 1.000000000000000000, 0.000000000000000000, 0.000000000000000000 ) ) ;
#547 = ORIENTED_EDGE ( 'NONE', *, *, #474, .F. ) ;
#548 = APPLICATION_PROTOCOL_DEFINITION ( 'draft international standard', 'automotive_design', 1998, #102 ) ;
#549 = FACE_OUTER_BOUND ( 'NONE', #348, .T. ) ;
#550 = VERTEX_POINT ( 'NONE', #820 ) ;
#551 = DIRECTION ( 'NONE',  ( 0.000000000000000000, 1.000000000000000000, 0.000000000000000000 ) ) ;
#552 = ORIENTED_EDGE ( 'NONE', *, *, #459, .T. ) ;
#553 = AXIS2_PLACEMENT_3D ( 'NONE', #1236, #637, #519 ) ;
#554 = DIRECTION ( 'NONE',  ( -1.000000000000000000, -9.658436044151048737E-16, 0.000000000000000000 ) ) ;
#555 = CARTESIAN_POINT ( 'NONE',  ( 60.00000000000000000, 0.000000000000000000, 0.000000000000000000 ) ) ;
#556 = VECTOR ( 'NONE', #286, 1000.000000000000000 ) ;
#557 = CARTESIAN_POINT ( 'NONE',  ( 38.30999224496513023, 77.50561664656707705, 0.000000000000000000 ) ) ;
#558 = AXIS2_PLACEMENT_3D ( 'NONE', #374, #1008, #793 ) ;
#559 = CARTESIAN_POINT ( 'NONE',  ( 10.01442285001459354, 81.66026215209437567, 0.000000000000000000 ) ) ;
#560 = PLANE ( 'NONE',  #1304 ) ;
#561 = EDGE_CURVE ( 'NONE', #724, #438, #901, .T. ) ;
#562 = LINE ( 'NONE', #1293, #1101 ) ;
#563 = LINE ( 'NONE', #346, #383 ) ;
#564 = LINE ( 'NONE', #151, #881 ) ;
#565 = VERTEX_POINT ( 'NONE', #915 ) ;
#566 = LINE ( 'NONE', #571, #317 ) ;
#567 = DIRECTION ( 'NONE',  ( 0.000000000000000000, -1.000000000000000000, 0.000000000000000000 ) ) ;
#568 = DIRECTION ( 'NONE',  ( -0.000000000000000000, 1.000000000000000000, -0.000000000000000000 ) ) ;
#569 = CARTESIAN_POINT ( 'NONE',  ( 60.00000000000000000, 80.00000000000000000, 0.000000000000000000 ) ) ;
#570 = DIRECTION ( 'NONE',  ( -0.000000000000000000, -0.000000000000000000, 1.000000000000000000 ) ) ;
#571 = CARTESIAN_POINT ( 'NONE',  ( 7.076014860067608048, 61.65632541056329075, 0.000000000000000000 ) ) ;
#572 = VERTEX_POINT ( 'NONE', #1229 ) ;
#573 = CARTESIAN_POINT ( 'NONE',  ( 63.86399987291617464, -1.660262152094377219, 10.00000000000000000 ) ) ;
#574 = ORIENTED_EDGE ( 'NONE', *, *, #711, .F. ) ;
#575 = PLANE ( 'NONE',  #1331 ) ;
#576 = DIRECTION ( 'NONE',  ( -1.000000000000000000, -0.000000000000000000, -0.000000000000000000 ) ) ;
#577 = ADVANCED_FACE ( 'NONE', ( #1208 ), #1329, .T. ) ;
#578 = VECTOR ( 'NONE', #1334, 1000.000000000000000 ) ;
#579 = PLANE ( 'NONE',  #423 ) ;
#580 = VECTOR ( 'NONE', #1300, 999.9999999999998863 ) ;
#581 = DIRECTION ( 'NONE',  ( 0.000000000000000000, -0.000000000000000000, 1.000000000000000000 ) ) ;
#582 = ORIENTED_EDGE ( 'NONE', *, *, #179, .F. ) ;
#583 = DIRECTION ( 'NONE',  ( 0.000000000000000000, -1.000000000000000000, 0.000000000000000000 ) ) ;
#584 = LINE ( 'NONE', #1202, #774 ) ;
#585 = ORIENTED_EDGE ( 'NONE', *, *, #1240, .T. ) ;
#586 = ORIENTED_EDGE ( 'NONE', *, *, #1159, .F. ) ;
#587 = EDGE_CURVE ( 'NONE', #17, #771, #1014, .T. ) ;
#588 = ORIENTED_EDGE ( 'NONE', *, *, #725, .F. ) ;
#589 = CARTESIAN_POINT ( 'NONE',  ( 60.00000000000000000, 5.734335587985473381, 10.00000000000000000 ) ) ;
#590 = VERTEX_POINT ( 'NONE', #1007 ) ;
#591 = LINE ( 'NONE', #407, #1064 ) ;
#592 = VERTEX_POINT ( 'NONE', #910 ) ;
#593 = CARTESIAN_POINT ( 'NONE',  ( 0.000000000000000000, 7.575211287888820699, 10.00000000000000000 ) ) ;
#594 = EDGE_CURVE ( 'NONE', #640, #675, #66, .T. ) ;
#595 = ORIENTED_EDGE ( 'NONE', *, *, #62, .F. ) ;
#596 = EDGE_LOOP ( 'NONE', ( #1297, #1172, #1203, #961 ) ) ;
#597 = CARTESIAN_POINT ( 'NONE',  ( 0.000000000000000000, 0.000000000000000000, 0.000000000000000000 ) ) ;
#598 = DIRECTION ( 'NONE',  ( 0.000000000000000000, 1.000000000000000000, 0.000000000000000000 ) ) ;
#599 = VECTOR ( 'NONE', #1257, 1000.000000000000000 ) ;
#600 = ADVANCED_FACE ( 'NONE', ( #481 ), #183, .T. ) ;
#601 = VECTOR ( 'NONE', #1028, 1000.000000000000000 ) ;
#602 = VERTEX_POINT ( 'NONE', #893 ) ;
#603 = CARTESIAN_POINT ( 'NONE',  ( 60.00000000000000000, 0.000000000000000000, 10.00000000000000000 ) ) ;
#604 = LINE ( 'NONE', #1029, #233 ) ;
#605 = CARTESIAN_POINT ( 'NONE',  ( 52.81571687984693142, 49.60874225245292024, 0.000000000000000000 ) ) ;
#606 = ORIENTED_EDGE ( 'NONE', *, *, #1255, .T. ) ;
#607 = VERTEX_POINT ( 'NONE', #379 ) ;
#608 = DIRECTION ( 'NONE',  ( 0.000000000000000000, -1.000000000000000000, 0.000000000000000000 ) ) ;
#609 = CARTESIAN_POINT ( 'NONE',  ( 60.00000000000000000, 0.000000000000000000, 0.000000000000000000 ) ) ;
#610 = EDGE_CURVE ( 'NONE', #804, #1299, #908, .T. ) ;
#611 = ORIENTED_EDGE ( 'NONE', *, *, #1057, .F. ) ;
#612 = LINE ( 'NONE', #1139, #403 ) ;
#613 = PLANE ( 'NONE',  #206 ) ;
#614 = VECTOR ( 'NONE', #125, 1000.000000000000000 ) ;
#615 = LINE ( 'NONE', #1044, #878 ) ;
#616 = ORIENTED_EDGE ( 'NONE', *, *, #329, .F. ) ;
#617 = VECTOR ( 'NONE', #176, 1000.000000000000000 ) ;
#618 = VECTOR ( 'NONE', #648, 1000.000000000000000 ) ;
#619 = VECTOR ( 'NONE', #171, 1000.000000000000000 ) ;
#620 = CARTESIAN_POINT ( 'NONE',  ( 0.000000000000000000, 7.575211287888820699, 0.000000000000000000 ) ) ;
#621 = VECTOR ( 'NONE', #1091, 1000.000000000000000 ) ;
#622 = ORIENTED_EDGE ( 'NONE', *, *, #984, .T. ) ;
#623 = CARTESIAN_POINT ( 'NONE',  ( -1.084202172485504434E-16, 4.382193938808221390, 0.000000000000000000 ) ) ;
#624 = VERTEX_POINT ( 'NONE', #1223 ) ;
#625 = LINE ( 'NONE', #971, #614 ) ;
#626 = EDGE_CURVE ( 'NONE', #804, #703, #1318, .T. ) ;
#627 = FACE_OUTER_BOUND ( 'NONE', #1198, .T. ) ;
#628 = ORIENTED_EDGE ( 'NONE', *, *, #1072, .F. ) ;
#629 = DIRECTION ( 'NONE',  ( 0.000000000000000000, 1.000000000000000000, 0.000000000000000000 ) ) ;
#630 = VERTEX_POINT ( 'NONE', #810 ) ;
#631 = EDGE_CURVE ( 'NONE', #173, #804, #700, .T. ) ;
#632 = CARTESIAN_POINT ( 'NONE',  ( 0.000000000000000000, 0.000000000000000000, 10.00000000000000000 ) ) ;
#633 = DIRECTION ( 'NONE',  ( -4.829218022075519438E-16, 1.000000000000000000, 0.000000000000000000 ) ) ;
#634 = ORIENTED_EDGE ( 'NONE', *, *, #1256, .F. ) ;
#635 = ORIENTED_EDGE ( 'NONE', *, *, #179, .T. ) ;
#636 = LINE ( 'NONE', #404, #692 ) ;
#637 = DIRECTION ( 'NONE',  ( -1.000000000000000000, 0.000000000000000000, -0.000000000000000000 ) ) ;
#638 = FACE_OUTER_BOUND ( 'NONE', #759, .T. ) ;
#639 = LINE ( 'NONE', #555, #920 ) ;
#640 = VERTEX_POINT ( 'NONE', #397 ) ;
#641 = EDGE_CURVE ( 'NONE', #892, #624, #714, .T. ) ;
#642 = FACE_OUTER_BOUND ( 'NONE', #495, .T. ) ;
#643 = ORIENTED_EDGE ( 'NONE', *, *, #292, .T. ) ;
#644 = SURFACE_STYLE_FILL_AREA ( #1053 ) ;
#645 = VERTEX_POINT ( 'NONE', #192 ) ;
#646 = EDGE_CURVE ( 'NONE', #607, #314, #604, .T. ) ;
#647 = PLANE ( 'NONE',  #318 ) ;
#648 = DIRECTION ( 'NONE',  ( -8.350765299561409969E-16, 1.000000000000000000, 0.000000000000000000 ) ) ;
#649 = VECTOR ( 'NONE', #194, 1000.000000000000000 ) ;
#650 = EDGE_CURVE ( 'NONE', #607, #927, #502, .T. ) ;
#651 = VECTOR ( 'NONE', #763, 1000.000000000000000 ) ;
#652 = CARTESIAN_POINT ( 'NONE',  ( 7.076014860067608048, 72.42478871211119440, 10.00000000000000000 ) ) ;
#653 = ORIENTED_EDGE ( 'NONE', *, *, #790, .T. ) ;
#654 = PLANE ( 'NONE',  #529 ) ;
#655 = ORIENTED_EDGE ( 'NONE', *, *, #62, .T. ) ;
#656 = PLANE ( 'NONE',  #795 ) ;
#657 = EDGE_CURVE ( 'NONE', #969, #314, #90, .T. ) ;
#658 = ORIENTED_EDGE ( 'NONE', *, *, #1087, .F. ) ;
#659 = CARTESIAN_POINT ( 'NONE',  ( 60.00000000000000000, 0.000000000000000000, 0.000000000000000000 ) ) ;
#660 = LINE ( 'NONE', #134, #1261 ) ;
#661 = EDGE_LOOP ( 'NONE', ( #68, #918, #1045, #177 ) ) ;
#662 = EDGE_CURVE ( 'NONE', #665, #969, #332, .T. ) ;
#663 = ORIENTED_EDGE ( 'NONE', *, *, #265, .T. ) ;
#664 = CARTESIAN_POINT ( 'NONE',  ( 59.99999999999999289, 49.60874225245291314, 0.000000000000000000 ) ) ;
#665 = VERTEX_POINT ( 'NONE', #319 ) ;
#666 = DIRECTION ( 'NONE',  ( 0.000000000000000000, 0.000000000000000000, -1.000000000000000000 ) ) ;
#667 = ORIENTED_EDGE ( 'NONE', *, *, #202, .T. ) ;
#668 = VERTEX_POINT ( 'NONE', #736 ) ;
#669 = VECTOR ( 'NONE', #1187, 1000.000000000000000 ) ;
#670 = CARTESIAN_POINT ( 'NONE',  ( 60.00000000000000000, 60.51698804772571094, 10.00000000000000000 ) ) ;
#671 = DIRECTION ( 'NONE',  ( -1.000000000000000000, 0.000000000000000000, 0.000000000000000000 ) ) ;
#672 = CARTESIAN_POINT ( 'NONE',  ( 0.000000000000000000, 80.00000000000000000, 10.00000000000000000 ) ) ;
#673 = VERTEX_POINT ( 'NONE', #417 ) ;
#674 = DIRECTION ( 'NONE',  ( 0.000000000000000000, -0.000000000000000000, -1.000000000000000000 ) ) ;
#675 = VERTEX_POINT ( 'NONE', #623 ) ;
#676 = ADVANCED_FACE ( 'NONE', ( #638 ), #307, .F. ) ;
#677 = LINE ( 'NONE', #1090, #1180 ) ;
#678 = LINE ( 'NONE', #456, #715 ) ;
#679 = FACE_OUTER_BOUND ( 'NONE', #86, .T. ) ;
#680 = ORIENTED_EDGE ( 'NONE', *, *, #1240, .F. ) ;
#681 = DIRECTION ( 'NONE',  ( -0.000000000000000000, -0.000000000000000000, 1.000000000000000000 ) ) ;
#682 = ORIENTED_EDGE ( 'NONE', *, *, #1249, .F. ) ;
#683 = VERTEX_POINT ( 'NONE', #726 ) ;
#684 = LINE ( 'NONE', #1097, #1266 ) ;
#685 = CARTESIAN_POINT ( 'NONE',  ( 0.000000000000000000, 80.00000000000000000, 10.00000000000000000 ) ) ;
#686 = VERTEX_POINT ( 'NONE', #539 ) ;
#687 = FACE_OUTER_BOUND ( 'NONE', #596, .T. ) ;
#688 = EDGE_CURVE ( 'NONE', #624, #21, #411, .T. ) ;
#689 = VECTOR ( 'NONE', #739, 1000.000000000000000 ) ;
#690 = ORIENTED_EDGE ( 'NONE', *, *, #202, .F. ) ;
#691 = PRODUCT_DEFINITION_FORMATION_WITH_SPECIFIED_SOURCE ( 'ANY', '', #1302, .NOT_KNOWN. ) ;
#692 = VECTOR ( 'NONE', #1039, 1000.000000000000000 ) ;
#693 = CARTESIAN_POINT ( 'NONE',  ( 52.81571687984693853, 19.48301195227428906, 0.000000000000000000 ) ) ;
#694 = ADVANCED_FACE ( 'NONE', ( #18 ), #1138, .F. ) ;
#695 = LINE ( 'NONE', #1108, #916 ) ;
#696 = VECTOR ( 'NONE', #73, 1000.000000000000000 ) ;
#697 = ORIENTED_EDGE ( 'NONE', *, *, #688, .T. ) ;
#698 = CARTESIAN_POINT ( 'NONE',  ( 0.000000000000000000, 18.34367458943671281, 0.000000000000000000 ) ) ;
#699 = ORIENTED_EDGE ( 'NONE', *, *, #688, .F. ) ;
#700 = LINE ( 'NONE', #1034, #818 ) ;
#701 = EDGE_CURVE ( 'NONE', #339, #440, #743, .T. ) ;
#702 = CARTESIAN_POINT ( 'NONE',  ( 7.076014860067608048, 61.65632541056329075, 10.00000000000000000 ) ) ;
#703 = VERTEX_POINT ( 'NONE', #1274 ) ;
#704 = ORIENTED_EDGE ( 'NONE', *, *, #610, .T. ) ;
#705 = EDGE_LOOP ( 'NONE', ( #462, #517, #852, #334 ) ) ;
#706 = ORIENTED_EDGE ( 'NONE', *, *, #885, .F. ) ;
#707 = EDGE_CURVE ( 'NONE', #444, #218, #127, .T. ) ;
#708 = DIRECTION ( 'NONE',  ( -0.000000000000000000, -0.000000000000000000, 1.000000000000000000 ) ) ;
#709 = CARTESIAN_POINT ( 'NONE',  ( 59.99999999999999289, 49.60874225245291314, 0.000000000000000000 ) ) ;
#710 = ORIENTED_EDGE ( 'NONE', *, *, #1206, .F. ) ;
#711 = EDGE_CURVE ( 'NONE', #550, #314, #449, .T. ) ;
#712 = ORIENTED_EDGE ( 'NONE', *, *, #839, .T. ) ;
#713 = DIRECTION ( 'NONE',  ( 1.000000000000000000, 0.000000000000000000, 0.000000000000000000 ) ) ;
#714 = LINE ( 'NONE', #1124, #1043 ) ;
#715 = VECTOR ( 'NONE', #551, 1000.000000000000000 ) ;
#716 = LINE ( 'NONE', #293, #617 ) ;
#717 = VECTOR ( 'NONE', #48, 1000.000000000000000 ) ;
#718 = DIRECTION ( 'NONE',  ( 1.000000000000000000, 0.000000000000000000, 0.000000000000000000 ) ) ;
#719 =( NAMED_UNIT ( * ) PLANE_ANGLE_UNIT ( ) SI_UNIT ( $, .RADIAN. ) );
#720 = CARTESIAN_POINT ( 'NONE',  ( 10.01442285001459354, 81.66026215209437567, 10.00000000000000000 ) ) ;
#721 = LINE ( 'NONE', #507, #1040 ) ;
#722 = ORIENTED_EDGE ( 'NONE', *, *, #1094, .F. ) ;
#723 = DIRECTION ( 'NONE',  ( -1.000000000000000000, 0.000000000000000000, -0.000000000000000000 ) ) ;
#724 = VERTEX_POINT ( 'NONE', #1281 ) ;
#725 = EDGE_CURVE ( 'NONE', #1232, #895, #1267, .T. ) ;
#726 = CARTESIAN_POINT ( 'NONE',  ( 2.168404344971008868E-16, 4.382193938808221390, 10.00000000000000000 ) ) ;
#727 = CARTESIAN_POINT ( 'NONE',  ( 7.262798844342309934, 80.00000000000000000, 0.000000000000000000 ) ) ;
#728 = EDGE_CURVE ( 'NONE', #418, #1299, #563, .T. ) ;
#729 = VECTOR ( 'NONE', #1158, 1000.000000000000000 ) ;
#730 = VECTOR ( 'NONE', #153, 1000.000000000000000 ) ;
#731 = VECTOR ( 'NONE', #598, 1000.000000000000000 ) ;
#732 = CARTESIAN_POINT ( 'NONE',  ( 38.30999224496513023, 81.66026215209437567, 10.00000000000000000 ) ) ;
#733 = EDGE_CURVE ( 'NONE', #972, #891, #359, .T. ) ;
#734 = ORIENTED_EDGE ( 'NONE', *, *, #764, .T. ) ;
#735 = CARTESIAN_POINT ( 'NONE',  ( 38.30999224496512312, 2.494383353432922057, 0.000000000000000000 ) ) ;
#736 = CARTESIAN_POINT ( 'NONE',  ( 60.00000000000000000, 46.56473890245784730, 0.000000000000000000 ) ) ;
#737 = ORIENTED_EDGE ( 'NONE', *, *, #1003, .T. ) ;
#738 = EDGE_CURVE ( 'NONE', #592, #1342, #968, .T. ) ;
#739 = DIRECTION ( 'NONE',  ( 0.000000000000000000, 1.000000000000000000, 0.000000000000000000 ) ) ;
#740 = LINE ( 'NONE', #664, #302 ) ;
#741 = CARTESIAN_POINT ( 'NONE',  ( 7.316166356981231189, 40.00000000000000000, 10.00000000000000000 ) ) ;
#742 = DIRECTION ( 'NONE',  ( 0.000000000000000000, -1.000000000000000000, 0.000000000000000000 ) ) ;
#743 = LINE ( 'NONE', #225, #1163 ) ;
#744 = ORIENTED_EDGE ( 'NONE', *, *, #922, .F. ) ;
#745 = EDGE_LOOP ( 'NONE', ( #486, #1323, #231, #43 ) ) ;
#746 = LINE ( 'NONE', #838, #976 ) ;
#747 = DIRECTION ( 'NONE',  ( -1.000000000000000000, 0.000000000000000000, 0.000000000000000000 ) ) ;
#748 = EDGE_CURVE ( 'NONE', #1099, #1079, #262, .T. ) ;
#749 = ORIENTED_EDGE ( 'NONE', *, *, #399, .F. ) ;
#750 = DIRECTION ( 'NONE',  ( 0.000000000000000000, 0.000000000000000000, -1.000000000000000000 ) ) ;
#751 = LINE ( 'NONE', #1156, #1287 ) ;
#752 = ORIENTED_EDGE ( 'NONE', *, *, #207, .F. ) ;
#753 = CARTESIAN_POINT ( 'NONE',  ( 60.00000000000000000, 19.48301195227428906, 0.000000000000000000 ) ) ;
#754 = ORIENTED_EDGE ( 'NONE', *, *, #36, .T. ) ;
#755 = VECTOR ( 'NONE', #53, 1000.000000000000114 ) ;
#756 = VECTOR ( 'NONE', #1107, 1000.000000000000000 ) ;
#757 = ORIENTED_EDGE ( 'NONE', *, *, #993, .F. ) ;
#758 = DIRECTION ( 'NONE',  ( 0.000000000000000000, 0.000000000000000000, 1.000000000000000000 ) ) ;
#759 = EDGE_LOOP ( 'NONE', ( #1251, #1095, #616, #1313 ) ) ;
#760 = CARTESIAN_POINT ( 'NONE',  ( 52.81571687984693142, 30.39125774754708331, 10.00000000000000000 ) ) ;
#761 = ADVANCED_FACE ( 'NONE', ( #25 ), #1169, .T. ) ;
#762 = ORIENTED_EDGE ( 'NONE', *, *, #1110, .F. ) ;
#763 = DIRECTION ( 'NONE',  ( 0.000000000000000000, 1.000000000000000000, 0.000000000000000000 ) ) ;
#764 = EDGE_CURVE ( 'NONE', #673, #1099, #721, .T. ) ;
#765 = ORIENTED_EDGE ( 'NONE', *, *, #1055, .T. ) ;
#766 = DIRECTION ( 'NONE',  ( -0.5166192073295470255, 0.8562152735254087155, 0.000000000000000000 ) ) ;
#767 = CARTESIAN_POINT ( 'NONE',  ( 52.81571687984693142, 33.43526109754215270, 10.00000000000000000 ) ) ;
#768 = CARTESIAN_POINT ( 'NONE',  ( 0.000000000000000000, 0.000000000000000000, 10.00000000000000000 ) ) ;
#769 = ORIENTED_EDGE ( 'NONE', *, *, #372, .F. ) ;
#770 = DIRECTION ( 'NONE',  ( 0.000000000000000000, -0.000000000000000000, 1.000000000000000000 ) ) ;
#771 = VERTEX_POINT ( 'NONE', #949 ) ;
#772 = ORIENTED_EDGE ( 'NONE', *, *, #323, .T. ) ;
#773 = EDGE_LOOP ( 'NONE', ( #622, #1207, #1284, #749 ) ) ;
#774 = VECTOR ( 'NONE', #1183, 1000.000000000000000 ) ;
#775 = CARTESIAN_POINT ( 'NONE',  ( 60.00000000000000000, 19.48301195227428906, 10.00000000000000000 ) ) ;
#776 = CARTESIAN_POINT ( 'NONE',  ( 60.00000000000000000, 0.000000000000000000, 10.00000000000000000 ) ) ;
#777 = VECTOR ( 'NONE', #1330, 1000.000000000000000 ) ;
#778 = VECTOR ( 'NONE', #1317, 1000.000000000000000 ) ;
#779 = CARTESIAN_POINT ( 'NONE',  ( 30.60376472791041635, 77.50561664656707705, 0.000000000000000000 ) ) ;
#780 = FACE_OUTER_BOUND ( 'NONE', #880, .T. ) ;
#781 = ORIENTED_EDGE ( 'NONE', *, *, #207, .T. ) ;
#782 = DIRECTION ( 'NONE',  ( 0.000000000000000000, -0.000000000000000000, -1.000000000000000000 ) ) ;
#783 = FACE_OUTER_BOUND ( 'NONE', #955, .T. ) ;
#784 = VERTEX_POINT ( 'NONE', #11 ) ;
#785 = ORIENTED_EDGE ( 'NONE', *, *, #701, .F. ) ;
#786 = DIRECTION ( 'NONE',  ( -0.000000000000000000, -1.000000000000000000, -0.000000000000000000 ) ) ;
#787 = CARTESIAN_POINT ( 'NONE',  ( 60.00000000000000711, 46.56473890245784730, 10.00000000000000000 ) ) ;
#788 = VERTEX_POINT ( 'NONE', #1145 ) ;
#789 = DIRECTION ( 'NONE',  ( -0.4631263658287110285, 0.8862922595139206550, 0.000000000000000000 ) ) ;
#790 = EDGE_CURVE ( 'NONE', #784, #892, #1137, .T. ) ;
#791 = PLANE ( 'NONE',  #998 ) ;
#792 = FACE_OUTER_BOUND ( 'NONE', #1063, .T. ) ;
#793 = DIRECTION ( 'NONE',  ( 0.000000000000000000, -0.000000000000000000, -1.000000000000000000 ) ) ;
#794 = ORIENTED_EDGE ( 'NONE', *, *, #459, .F. ) ;
#795 = AXIS2_PLACEMENT_3D ( 'NONE', #866, #633, #544 ) ;
#796 = EDGE_LOOP ( 'NONE', ( #181, #757, #663, #944 ) ) ;
#797 = VECTOR ( 'NONE', #516, 1000.000000000000000 ) ;
#798 = DIRECTION ( 'NONE',  ( 0.8562152735254087155, -0.5166192073295471365, 0.000000000000000000 ) ) ;
#799 = AXIS2_PLACEMENT_3D ( 'NONE', #1336, #522, #750 ) ;
#800 = CARTESIAN_POINT ( 'NONE',  ( 0.000000000000000000, 0.000000000000000000, 10.00000000000000000 ) ) ;
#801 = VECTOR ( 'NONE', #1292, 1000.000000000000000 ) ;
#802 = EDGE_LOOP ( 'NONE', ( #497, #940, #812, #606 ) ) ;
#803 = ORIENTED_EDGE ( 'NONE', *, *, #15, .T. ) ;
#804 = VERTEX_POINT ( 'NONE', #303 ) ;
#805 = DIRECTION ( 'NONE',  ( 0.000000000000000000, 1.000000000000000000, 0.000000000000000000 ) ) ;
#806 = DIRECTION ( 'NONE',  ( -0.8562152735254088265, 0.5166192073295469145, 0.000000000000000000 ) ) ;
#807 = CARTESIAN_POINT ( 'NONE',  ( 30.60376472791041635, 77.50561664656707705, 0.000000000000000000 ) ) ;
#808 = ORIENTED_EDGE ( 'NONE', *, *, #15, .F. ) ;
#809 = ORIENTED_EDGE ( 'NONE', *, *, #445, .T. ) ;
#810 = CARTESIAN_POINT ( 'NONE',  ( 30.60376472791041280, 0.000000000000000000, 0.000000000000000000 ) ) ;
#811 = ADVANCED_FACE ( 'NONE', ( #324 ), #224, .T. ) ;
#812 = ORIENTED_EDGE ( 'NONE', *, *, #1057, .T. ) ;
#813 = EDGE_CURVE ( 'NONE', #437, #624, #1238, .T. ) ;
#814 = CARTESIAN_POINT ( 'NONE',  ( 30.60376472791041280, 2.555648565257757191E-14, 0.000000000000000000 ) ) ;
#815 = CARTESIAN_POINT ( 'NONE',  ( 7.076014860067608048, 18.34367458943671281, 0.000000000000000000 ) ) ;
#816 = DIRECTION ( 'NONE',  ( 0.000000000000000000, 0.000000000000000000, 1.000000000000000000 ) ) ;
#817 = AXIS2_PLACEMENT_3D ( 'NONE', #1134, #1320, #199 ) ;
#818 = VECTOR ( 'NONE', #299, 1000.000000000000000 ) ;
#819 = DIRECTION ( 'NONE',  ( -1.000000000000000000, 0.000000000000000000, 0.000000000000000000 ) ) ;
#820 = CARTESIAN_POINT ( 'NONE',  ( -5.204170427930421283E-15, 35.58560541851560544, 0.000000000000000000 ) ) ;
#821 = ADVANCED_FACE ( 'NONE', ( #132 ), #828, .T. ) ;
#822 = LINE ( 'NONE', #709, #29 ) ;
#823 = ORIENTED_EDGE ( 'NONE', *, *, #511, .F. ) ;
#824 = ADVANCED_FACE ( 'NONE', ( #521 ), #929, .T. ) ;
#825 = PLANE ( 'NONE',  #513 ) ;
#826 = EDGE_CURVE ( 'NONE', #1088, #686, #562, .T. ) ;
#827 = DIRECTION ( 'NONE',  ( -0.000000000000000000, 1.000000000000000000, -0.000000000000000000 ) ) ;
#828 = PLANE ( 'NONE',  #553 ) ;
#829 = CARTESIAN_POINT ( 'NONE',  ( 60.00000000000000711, 46.56473890245784730, 0.000000000000000000 ) ) ;
#830 = EDGE_CURVE ( 'NONE', #1294, #1315, #37, .T. ) ;
#831 = CARTESIAN_POINT ( 'NONE',  ( 0.000000000000000000, 0.000000000000000000, 10.00000000000000000 ) ) ;
#832 = DIRECTION ( 'NONE',  ( 0.000000000000000000, 0.000000000000000000, 1.000000000000000000 ) ) ;
#833 = DIRECTION ( 'NONE',  ( 0.000000000000000000, 1.000000000000000000, 0.000000000000000000 ) ) ;
#834 = ORIENTED_EDGE ( 'NONE', *, *, #641, .F. ) ;
#835 = AXIS2_PLACEMENT_3D ( 'NONE', #415, #833, #914 ) ;
#836 = LINE ( 'NONE', #321, #689 ) ;
#837 = VECTOR ( 'NONE', #1211, 1000.000000000000000 ) ;
#838 = CARTESIAN_POINT ( 'NONE',  ( 0.000000000000000000, 0.000000000000000000, 10.00000000000000000 ) ) ;
#839 = EDGE_CURVE ( 'NONE', #326, #845, #133, .T. ) ;
#840 = LINE ( 'NONE', #609, #232 ) ;
#841 = ORIENTED_EDGE ( 'NONE', *, *, #491, .F. ) ;
#842 = EDGE_LOOP ( 'NONE', ( #371, #823, #1170, #72 ) ) ;
#843 = ORIENTED_EDGE ( 'NONE', *, *, #981, .T. ) ;
#844 = LINE ( 'NONE', #432, #254 ) ;
#845 = VERTEX_POINT ( 'NONE', #873 ) ;
#846 = EDGE_CURVE ( 'NONE', #592, #673, #165, .T. ) ;
#847 = EDGE_LOOP ( 'NONE', ( #92, #887, #296, #1115 ) ) ;
#848 = ADVANCED_FACE ( 'NONE', ( #792 ), #351, .F. ) ;
#849 = ORIENTED_EDGE ( 'NONE', *, *, #1147, .T. ) ;
#850 = ORIENTED_EDGE ( 'NONE', *, *, #728, .T. ) ;
#851 = DIRECTION ( 'NONE',  ( 0.000000000000000000, 1.000000000000000000, 0.000000000000000000 ) ) ;
#852 = ORIENTED_EDGE ( 'NONE', *, *, #323, .F. ) ;
#853 = CARTESIAN_POINT ( 'NONE',  ( 52.81571687984693142, 49.60874225245292024, 10.00000000000000000 ) ) ;
#854 = ORIENTED_EDGE ( 'NONE', *, *, #733, .F. ) ;
#855 =( GEOMETRIC_REPRESENTATION_CONTEXT ( 3 ) GLOBAL_UNCERTAINTY_ASSIGNED_CONTEXT ( ( #216 ) ) GLOBAL_UNIT_ASSIGNED_CONTEXT ( ( #8, #1264, #32 ) ) REPRESENTATION_CONTEXT ( 'NONE', 'WORKASPACE' ) );
#856 = VECTOR ( 'NONE', #98, 1000.000000000000000 ) ;
#857 = VECTOR ( 'NONE', #38, 1000.000000000000000 ) ;
#858 = AXIS2_PLACEMENT_3D ( 'NONE', #693, #84, #387 ) ;
#859 = PRODUCT_RELATED_PRODUCT_CATEGORY ( 'part', '', ( #1302 ) ) ;
#860 = CARTESIAN_POINT ( 'NONE',  ( 7.316166356981231189, 40.00000000000000000, 0.000000000000000000 ) ) ;
#861 = VECTOR ( 'NONE', #554, 1000.000000000000000 ) ;
#862 = ORIENTED_EDGE ( 'NONE', *, *, #175, .F. ) ;
#863 = CARTESIAN_POINT ( 'NONE',  ( 60.00000000000000000, 60.51698804772571094, 0.000000000000000000 ) ) ;
#864 = LINE ( 'NONE', #932, #360 ) ;
#865 = ORIENTED_EDGE ( 'NONE', *, *, #193, .F. ) ;
#866 = CARTESIAN_POINT ( 'NONE',  ( 60.00000000000000000, 30.39125774754708686, 0.000000000000000000 ) ) ;
#867 = LINE ( 'NONE', #162, #1141 ) ;
#868 = ADVANCED_FACE ( 'NONE', ( #783 ), #45, .F. ) ;
#869 = CARTESIAN_POINT ( 'NONE',  ( 0.000000000000000000, 80.00000000000000000, 10.00000000000000000 ) ) ;
#870 = ADVANCED_FACE ( 'NONE', ( #687 ), #1289, .T. ) ;
#871 = CARTESIAN_POINT ( 'NONE',  ( 52.81571687984693142, 30.39125774754708331, 0.000000000000000000 ) ) ;
#872 = VERTEX_POINT ( 'NONE', #775 ) ;
#873 = CARTESIAN_POINT ( 'NONE',  ( 52.81571687984693853, 60.51698804772570384, 10.00000000000000000 ) ) ;
#874 = DIRECTION ( 'NONE',  ( -1.000000000000000000, -0.000000000000000000, -0.000000000000000000 ) ) ;
#875 = ORIENTED_EDGE ( 'NONE', *, *, #738, .F. ) ;
#876 = FACE_OUTER_BOUND ( 'NONE', #524, .T. ) ;
#877 = ORIENTED_EDGE ( 'NONE', *, *, #292, .F. ) ;
#878 = VECTOR ( 'NONE', #441, 1000.000000000000000 ) ;
#879 = CARTESIAN_POINT ( 'NONE',  ( 30.60376472791041280, 2.494383353432922057, 10.00000000000000000 ) ) ;
#880 = EDGE_LOOP ( 'NONE', ( #12, #808, #271, #472 ) ) ;
#881 = VECTOR ( 'NONE', #304, 1000.000000000000000 ) ;
#882 = CARTESIAN_POINT ( 'NONE',  ( 0.000000000000000000, 0.000000000000000000, 0.000000000000000000 ) ) ;
#883 = DIRECTION ( 'NONE',  ( 0.000000000000000000, 0.000000000000000000, 1.000000000000000000 ) ) ;
#884 = CARTESIAN_POINT ( 'NONE',  ( 0.000000000000000000, 72.42478871211119440, 10.00000000000000000 ) ) ;
#885 = EDGE_CURVE ( 'NONE', #418, #550, #261, .T. ) ;
#886 = CARTESIAN_POINT ( 'NONE',  ( 0.000000000000000000, 0.000000000000000000, 10.00000000000000000 ) ) ;
#887 = ORIENTED_EDGE ( 'NONE', *, *, #470, .F. ) ;
#888 = DIRECTION ( 'NONE',  ( 0.000000000000000000, -1.000000000000000000, 0.000000000000000000 ) ) ;
#889 = CARTESIAN_POINT ( 'NONE',  ( 38.30999224496512312, 2.494383353432922057, 0.000000000000000000 ) ) ;
#890 = PLANE ( 'NONE',  #558 ) ;
#891 = VERTEX_POINT ( 'NONE', #471 ) ;
#892 = VERTEX_POINT ( 'NONE', #879 ) ;
#893 = CARTESIAN_POINT ( 'NONE',  ( 0.000000000000000000, 72.42478871211119440, 10.00000000000000000 ) ) ;
#894 = LINE ( 'NONE', #994, #621 ) ;
#895 = VERTEX_POINT ( 'NONE', #1185 ) ;
#896 = ORIENTED_EDGE ( 'NONE', *, *, #243, .T. ) ;
#897 = CARTESIAN_POINT ( 'NONE',  ( 60.00000000000000000, 60.51698804772571094, 10.00000000000000000 ) ) ;
#898 = VECTOR ( 'NONE', #436, 1000.000000000000000 ) ;
#899 = ORIENTED_EDGE ( 'NONE', *, *, #1122, .F. ) ;
#900 = VECTOR ( 'NONE', #1194, 1000.000000000000000 ) ;
#901 = LINE ( 'NONE', #1130, #580 ) ;
#902 = AXIS2_PLACEMENT_3D ( 'NONE', #105, #937, #424 ) ;
#903 = LINE ( 'NONE', #1217, #1102 ) ;
#904 = ORIENTED_EDGE ( 'NONE', *, *, #201, .F. ) ;
#905 = LINE ( 'NONE', #913, #900 ) ;
#906 = ORIENTED_EDGE ( 'NONE', *, *, #310, .T. ) ;
#907 = LINE ( 'NONE', #298, #496 ) ;
#908 = LINE ( 'NONE', #393, #59 ) ;
#909 = LINE ( 'NONE', #396, #97 ) ;
#910 = CARTESIAN_POINT ( 'NONE',  ( 52.81571687984693142, 46.56473890245784730, 0.000000000000000000 ) ) ;
#911 = DIRECTION ( 'NONE',  ( -0.000000000000000000, -0.000000000000000000, 1.000000000000000000 ) ) ;
#912 = ORIENTED_EDGE ( 'NONE', *, *, #491, .T. ) ;
#913 = CARTESIAN_POINT ( 'NONE',  ( 60.00000000000000711, 33.43526109754215270, 0.000000000000000000 ) ) ;
#914 = DIRECTION ( 'NONE',  ( 0.000000000000000000, -0.000000000000000000, 1.000000000000000000 ) ) ;
#915 = CARTESIAN_POINT ( 'NONE',  ( 60.00000000000000000, 60.51698804772571094, 0.000000000000000000 ) ) ;
#916 = VECTOR ( 'NONE', #504, 1000.000000000000000 ) ;
#917 = LINE ( 'NONE', #408, #856 ) ;
#918 = ORIENTED_EDGE ( 'NONE', *, *, #427, .F. ) ;
#919 = EDGE_CURVE ( 'NONE', #294, #1232, #154, .T. ) ;
#920 = VECTOR ( 'NONE', #980, 1000.000000000000000 ) ;
#921 = VECTOR ( 'NONE', #883, 1000.000000000000000 ) ;
#922 = EDGE_CURVE ( 'NONE', #444, #241, #1119, .T. ) ;
#923 = FACE_OUTER_BOUND ( 'NONE', #342, .T. ) ;
#924 = CARTESIAN_POINT ( 'NONE',  ( 0.000000000000000000, 18.34367458943671281, 10.00000000000000000 ) ) ;
#925 = PLANE ( 'NONE',  #382 ) ;
#926 = EDGE_LOOP ( 'NONE', ( #1161, #238, #138, #1290 ) ) ;
#927 = VERTEX_POINT ( 'NONE', #197 ) ;
#928 = CARTESIAN_POINT ( 'NONE',  ( 30.60376472791041280, 2.494383353432922057, 0.000000000000000000 ) ) ;
#929 = PLANE ( 'NONE',  #135 ) ;
#930 = UNCERTAINTY_MEASURE_WITH_UNIT (LENGTH_MEASURE( 1.000000000000000082E-05 ), #1210, 'distance_accuracy_value', 'NONE');
#931 = ORIENTED_EDGE ( 'NONE', *, *, #1112, .F. ) ;
#932 = CARTESIAN_POINT ( 'NONE',  ( 60.00000000000000000, 60.51698804772571094, 0.000000000000000000 ) ) ;
#933 = SURFACE_STYLE_USAGE ( .BOTH. , #956 ) ;
#934 = CARTESIAN_POINT ( 'NONE',  ( 38.30999224496513023, 0.000000000000000000, 10.00000000000000000 ) ) ;
#935 = CARTESIAN_POINT ( 'NONE',  ( 7.076014860067608048, 61.65632541056329075, 10.00000000000000000 ) ) ;
#936 = DIRECTION ( 'NONE',  ( -0.000000000000000000, -0.000000000000000000, 1.000000000000000000 ) ) ;
#937 = DIRECTION ( 'NONE',  ( -1.000000000000000000, 0.000000000000000000, 0.000000000000000000 ) ) ;
#938 = LINE ( 'NONE', #217, #1328 ) ;
#939 = ADVANCED_FACE ( 'NONE', ( #1012 ), #395, .T. ) ;
#940 = ORIENTED_EDGE ( 'NONE', *, *, #520, .F. ) ;
#941 = VECTOR ( 'NONE', #983, 1000.000000000000000 ) ;
#942 = DIRECTION ( 'NONE',  ( 1.000000000000000000, 0.000000000000000000, 0.000000000000000000 ) ) ;
#943 = LINE ( 'NONE', #1271, #898 ) ;
#944 = ORIENTED_EDGE ( 'NONE', *, *, #518, .F. ) ;
#945 = ORIENTED_EDGE ( 'NONE', *, *, #561, .F. ) ;
#946 = VECTOR ( 'NONE', #1073, 1000.000000000000000 ) ;
#947 = ORIENTED_EDGE ( 'NONE', *, *, #309, .T. ) ;
#948 = DIRECTION ( 'NONE',  ( 0.000000000000000000, -1.000000000000000000, 0.000000000000000000 ) ) ;
#949 = CARTESIAN_POINT ( 'NONE',  ( 7.076014860067608048, 61.65632541056329075, 0.000000000000000000 ) ) ;
#950 = CARTESIAN_POINT ( 'NONE',  ( 38.30999224496512312, 2.494383353432922057, 10.00000000000000000 ) ) ;
#951 = CARTESIAN_POINT ( 'NONE',  ( 0.000000000000000000, 61.65632541056329075, 10.00000000000000000 ) ) ;
#952 = EDGE_LOOP ( 'NONE', ( #635, #1276, #450, #1188 ) ) ;
#953 = ADVANCED_FACE ( 'NONE', ( #89 ), #1032, .T. ) ;
#954 = DIRECTION ( 'NONE',  ( 0.000000000000000000, 0.000000000000000000, 1.000000000000000000 ) ) ;
#955 = EDGE_LOOP ( 'NONE', ( #582, #655, #178, #23 ) ) ;
#956 = SURFACE_SIDE_STYLE ('',( #644 ) ) ;
#957 = VERTEX_POINT ( 'NONE', #1324 ) ;
#958 = DIRECTION ( 'NONE',  ( -1.000000000000000000, -4.829218022075520424E-16, 0.000000000000000000 ) ) ;
#959 = DIRECTION ( 'NONE',  ( -0.000000000000000000, -1.000000000000000000, -0.000000000000000000 ) ) ;
#960 = DIRECTION ( 'NONE',  ( 0.000000000000000000, 1.000000000000000000, 0.000000000000000000 ) ) ;
#961 = ORIENTED_EDGE ( 'NONE', *, *, #885, .T. ) ;
#962 = SHAPE_DEFINITION_REPRESENTATION ( #410, #244 ) ;
#963 = CARTESIAN_POINT ( 'NONE',  ( 0.000000000000000000, 61.65632541056329075, 0.000000000000000000 ) ) ;
#964 = ORIENTED_EDGE ( 'NONE', *, *, #594, .T. ) ;
#965 = CARTESIAN_POINT ( 'NONE',  ( 7.076014860067608048, 61.65632541056329075, 0.000000000000000000 ) ) ;
#966 = EDGE_CURVE ( 'NONE', #24, #675, #615, .T. ) ;
#967 = EDGE_CURVE ( 'NONE', #1117, #673, #625, .T. ) ;
#968 = LINE ( 'NONE', #60, #1195 ) ;
#969 = VERTEX_POINT ( 'NONE', #118 ) ;
#970 = DIRECTION ( 'NONE',  ( -0.000000000000000000, -0.000000000000000000, 1.000000000000000000 ) ) ;
#971 = CARTESIAN_POINT ( 'NONE',  ( 52.81571687984693142, 46.56473890245784730, 10.00000000000000000 ) ) ;
#972 = VERTEX_POINT ( 'NONE', #31 ) ;
#973 = ADVANCED_FACE ( 'NONE', ( #1048 ), #455, .T. ) ;
#974 = VECTOR ( 'NONE', #1280, 1000.000000000000114 ) ;
#975 = ORIENTED_EDGE ( 'NONE', *, *, #248, .T. ) ;
#976 = VECTOR ( 'NONE', #414, 1000.000000000000000 ) ;
#977 = VECTOR ( 'NONE', #352, 1000.000000000000000 ) ;
#978 = CARTESIAN_POINT ( 'NONE',  ( 60.00000000000000000, 0.000000000000000000, 10.00000000000000000 ) ) ;
#979 = VECTOR ( 'NONE', #282, 1000.000000000000000 ) ;
#980 = DIRECTION ( 'NONE',  ( 0.000000000000000000, 1.000000000000000000, 0.000000000000000000 ) ) ;
#981 = EDGE_CURVE ( 'NONE', #565, #724, #864, .T. ) ;
#982 = LINE ( 'NONE', #672, #1288 ) ;
#983 = DIRECTION ( 'NONE',  ( 0.000000000000000000, -1.000000000000000000, 0.000000000000000000 ) ) ;
#984 = EDGE_CURVE ( 'NONE', #683, #675, #327, .T. ) ;
#985 = DIRECTION ( 'NONE',  ( -1.000000000000000000, 0.000000000000000000, 0.000000000000000000 ) ) ;
#986 = LINE ( 'NONE', #150, #717 ) ;
#987 = CARTESIAN_POINT ( 'NONE',  ( 60.00000000000000711, 74.26566441201453017, 0.000000000000000000 ) ) ;
#988 = ORIENTED_EDGE ( 'NONE', *, *, #738, .T. ) ;
#989 = FACE_OUTER_BOUND ( 'NONE', #1018, .T. ) ;
#990 = ORIENTED_EDGE ( 'NONE', *, *, #1094, .T. ) ;
#991 = CARTESIAN_POINT ( 'NONE',  ( 59.99999999999999289, 49.60874225245291314, 10.00000000000000000 ) ) ;
#992 = DIRECTION ( 'NONE',  ( -0.000000000000000000, -0.000000000000000000, -1.000000000000000000 ) ) ;
#993 = EDGE_CURVE ( 'NONE', #17, #590, #420, .T. ) ;
#994 = CARTESIAN_POINT ( 'NONE',  ( 60.00000000000000000, 60.51698804772571094, 0.000000000000000000 ) ) ;
#995 = ORIENTED_EDGE ( 'NONE', *, *, #631, .F. ) ;
#996 = CARTESIAN_POINT ( 'NONE',  ( -1.750900791040339577, 5.438644351162485790, 0.000000000000000000 ) ) ;
#997 = EDGE_LOOP ( 'NONE', ( #595, #634, #1333, #765, #785, #1253, #945, #272, #690, #611, #875, #69, #1106, #628, #586, #186, #904, #658, #1004, #1036, #1051, #65, #128, #375, #389, #964, #1148, #131, #362, #1186, #574, #706, #385, #52, #899, #1127, #390, #123, #1054 ) ) ;
#998 = AXIS2_PLACEMENT_3D ( 'NONE', #1190, #164, #581 ) ;
#999 = CARTESIAN_POINT ( 'NONE',  ( -1.750900791040339577, 72.42478871211119440, 0.000000000000000000 ) ) ;
#1000 = LINE ( 'NONE', #136, #6 ) ;
#1001 = EDGE_CURVE ( 'NONE', #845, #972, #1262, .T. ) ;
#1002 = LINE ( 'NONE', #1098, #1286 ) ;
#1003 = EDGE_CURVE ( 'NONE', #368, #444, #836, .T. ) ;
#1004 = ORIENTED_EDGE ( 'NONE', *, *, #229, .T. ) ;
#1005 = ADVANCED_FACE ( 'NONE', ( #1149 ), #219, .F. ) ;
#1006 = ORIENTED_EDGE ( 'NONE', *, *, #1221, .T. ) ;
#1007 = CARTESIAN_POINT ( 'NONE',  ( 0.000000000000000000, 72.42478871211119440, 0.000000000000000000 ) ) ;
#1008 = DIRECTION ( 'NONE',  ( 0.000000000000000000, -1.000000000000000000, 0.000000000000000000 ) ) ;
#1009 = ORIENTED_EDGE ( 'NONE', *, *, #1248, .T. ) ;
#1010 = VERTEX_POINT ( 'NONE', #1254 ) ;
#1011 = ADVANCED_FACE ( 'NONE', ( #642 ), #534, .F. ) ;
#1012 = FACE_OUTER_BOUND ( 'NONE', #1100, .T. ) ;
#1013 = VERTEX_POINT ( 'NONE', #753 ) ;
#1014 = LINE ( 'NONE', #167, #476 ) ;
#1015 = LINE ( 'NONE', #300, #338 ) ;
#1016 = AXIS2_PLACEMENT_3D ( 'NONE', #685, #1285, #674 ) ;
#1017 = ORIENTED_EDGE ( 'NONE', *, *, #243, .F. ) ;
#1018 = EDGE_LOOP ( 'NONE', ( #772, #330, #377, #457 ) ) ;
#1019 = APPLICATION_CONTEXT ( 'automotive_design' ) ;
#1020 = VECTOR ( 'NONE', #88, 1000.000000000000000 ) ;
#1021 = CARTESIAN_POINT ( 'NONE',  ( 52.81571687984693853, 19.48301195227428906, 0.000000000000000000 ) ) ;
#1022 = CARTESIAN_POINT ( 'NONE',  ( 60.00000000000000000, 30.39125774754708686, 10.00000000000000000 ) ) ;
#1023 = VECTOR ( 'NONE', #806, 1000.000000000000000 ) ;
#1024 = DIRECTION ( 'NONE',  ( -1.000000000000000000, -4.829218022075520424E-16, 0.000000000000000000 ) ) ;
#1025 = ORIENTED_EDGE ( 'NONE', *, *, #1087, .T. ) ;
#1026 = DIRECTION ( 'NONE',  ( -0.5166192073295469145, -0.8562152735254088265, 0.000000000000000000 ) ) ;
#1027 = EDGE_LOOP ( 'NONE', ( #744, #1234, #552, #1031 ) ) ;
#1028 = DIRECTION ( 'NONE',  ( 1.670153059912281994E-15, -1.000000000000000000, 0.000000000000000000 ) ) ;
#1029 = CARTESIAN_POINT ( 'NONE',  ( 0.000000000000000000, 18.34367458943671281, 0.000000000000000000 ) ) ;
#1030 = ORIENTED_EDGE ( 'NONE', *, *, #401, .T. ) ;
#1031 = ORIENTED_EDGE ( 'NONE', *, *, #505, .T. ) ;
#1032 = PLANE ( 'NONE',  #510 ) ;
#1033 = FACE_OUTER_BOUND ( 'NONE', #19, .T. ) ;
#1034 = CARTESIAN_POINT ( 'NONE',  ( 0.000000000000000000, 0.000000000000000000, 10.00000000000000000 ) ) ;
#1035 = LINE ( 'NONE', #829, #777 ) ;
#1036 = ORIENTED_EDGE ( 'NONE', *, *, #505, .F. ) ;
#1037 = VERTEX_POINT ( 'NONE', #963 ) ;
#1038 = ADVANCED_FACE ( 'NONE', ( #234 ), #654, .F. ) ;
#1039 = DIRECTION ( 'NONE',  ( -0.000000000000000000, -1.000000000000000000, -0.000000000000000000 ) ) ;
#1040 = VECTOR ( 'NONE', #827, 1000.000000000000000 ) ;
#1041 = VECTOR ( 'NONE', #10, 1000.000000000000114 ) ;
#1042 = CARTESIAN_POINT ( 'NONE',  ( 52.81571687984693142, 33.43526109754215270, 10.00000000000000000 ) ) ;
#1043 = VECTOR ( 'NONE', #718, 1000.000000000000000 ) ;
#1044 = CARTESIAN_POINT ( 'NONE',  ( 0.000000000000000000, 0.000000000000000000, 0.000000000000000000 ) ) ;
#1045 = ORIENTED_EDGE ( 'NONE', *, *, #1159, .T. ) ;
#1046 = AXIS2_PLACEMENT_3D ( 'NONE', #632, #942, #434 ) ;
#1047 = DIRECTION ( 'NONE',  ( 1.000000000000000000, 0.000000000000000000, 0.000000000000000000 ) ) ;
#1048 = FACE_OUTER_BOUND ( 'NONE', #1278, .T. ) ;
#1049 = LINE ( 'NONE', #421, #187 ) ;
#1050 = FACE_OUTER_BOUND ( 'NONE', #301, .T. ) ;
#1051 = ORIENTED_EDGE ( 'NONE', *, *, #204, .F. ) ;
#1052 = DIRECTION ( 'NONE',  ( 0.4631263658287115281, 0.8862922595139204329, 0.000000000000000000 ) ) ;
#1053 = FILL_AREA_STYLE ('',( #120 ) ) ;
#1054 = ORIENTED_EDGE ( 'NONE', *, *, #830, .T. ) ;
#1055 = EDGE_CURVE ( 'NONE', #788, #440, #678, .T. ) ;
#1056 = FACE_OUTER_BOUND ( 'NONE', #952, .T. ) ;
#1057 = EDGE_CURVE ( 'NONE', #1342, #957, #740, .T. ) ;
#1058 = LINE ( 'NONE', #113, #857 ) ;
#1059 = ORIENTED_EDGE ( 'NONE', *, *, #283, .F. ) ;
#1060 = DIRECTION ( 'NONE',  ( 0.4631263658287115281, 0.8862922595139204329, 0.000000000000000000 ) ) ;
#1061 = ORIENTED_EDGE ( 'NONE', *, *, #104, .F. ) ;
#1062 = DIRECTION ( 'NONE',  ( -0.000000000000000000, 0.000000000000000000, 1.000000000000000000 ) ) ;
#1063 = EDGE_LOOP ( 'NONE', ( #50, #862, #200, #335 ) ) ;
#1064 = VECTOR ( 'NONE', #508, 1000.000000000000000 ) ;
#1065 = LINE ( 'NONE', #1175, #117 ) ;
#1066 = ORIENTED_EDGE ( 'NONE', *, *, #265, .F. ) ;
#1067 = CARTESIAN_POINT ( 'NONE',  ( 0.000000000000000000, 72.42478871211119440, 0.000000000000000000 ) ) ;
#1068 = ORIENTED_EDGE ( 'NONE', *, *, #725, .T. ) ;
#1069 = ORIENTED_EDGE ( 'NONE', *, *, #1321, .T. ) ;
#1070 = MANIFOLD_SOLID_BREP ( 'Schnitt-Linear austragen1', #163 ) ;
#1071 = VERTEX_POINT ( 'NONE', #1080 ) ;
#1072 = EDGE_CURVE ( 'NONE', #294, #195, #536, .T. ) ;
#1073 = DIRECTION ( 'NONE',  ( 0.000000000000000000, 1.000000000000000000, 0.000000000000000000 ) ) ;
#1074 = ADVANCED_FACE ( 'NONE', ( #236 ), #139, .T. ) ;
#1075 = ORIENTED_EDGE ( 'NONE', *, *, #561, .T. ) ;
#1076 = FACE_OUTER_BOUND ( 'NONE', #745, .T. ) ;
#1077 = ADVANCED_FACE ( 'NONE', ( #526 ), #656, .T. ) ;
#1078 = CARTESIAN_POINT ( 'NONE',  ( 38.30999224496513023, 81.66026215209437567, 0.000000000000000000 ) ) ;
#1079 = VERTEX_POINT ( 'NONE', #443 ) ;
#1080 = CARTESIAN_POINT ( 'NONE',  ( 30.60376472791041635, 77.50561664656707705, 10.00000000000000000 ) ) ;
#1081 = AXIS2_PLACEMENT_3D ( 'NONE', #381, #356, #475 ) ;
#1082 = VERTEX_POINT ( 'NONE', #760 ) ;
#1083 = AXIS2_PLACEMENT_3D ( 'NONE', #1279, #260, #782 ) ;
#1084 = VECTOR ( 'NONE', #546, 1000.000000000000000 ) ;
#1085 = LINE ( 'NONE', #652, #58 ) ;
#1086 = DIRECTION ( 'NONE',  ( -1.000000000000000000, 0.000000000000000000, -0.000000000000000000 ) ) ;
#1087 = EDGE_CURVE ( 'NONE', #367, #1013, #943, .T. ) ;
#1088 = VERTEX_POINT ( 'NONE', #429 ) ;
#1089 = CARTESIAN_POINT ( 'NONE',  ( 52.81571687984693142, 46.56473890245784730, 0.000000000000000000 ) ) ;
#1090 = CARTESIAN_POINT ( 'NONE',  ( 60.00000000000000000, 0.000000000000000000, 10.00000000000000000 ) ) ;
#1091 = DIRECTION ( 'NONE',  ( -0.000000000000000000, -0.000000000000000000, 1.000000000000000000 ) ) ;
#1092 = PLANE ( 'NONE',  #137 ) ;
#1093 = DIRECTION ( 'NONE',  ( 0.000000000000000000, -0.000000000000000000, -1.000000000000000000 ) ) ;
#1094 = EDGE_CURVE ( 'NONE', #771, #1160, #328, .T. ) ;
#1095 = ORIENTED_EDGE ( 'NONE', *, *, #662, .F. ) ;
#1096 = FACE_OUTER_BOUND ( 'NONE', #796, .T. ) ;
#1097 = CARTESIAN_POINT ( 'NONE',  ( 7.076014860067608048, 7.575211287888820699, 0.000000000000000000 ) ) ;
#1098 = CARTESIAN_POINT ( 'NONE',  ( 0.000000000000000000, 61.65632541056329075, 10.00000000000000000 ) ) ;
#1099 = VERTEX_POINT ( 'NONE', #853 ) ;
#1100 = EDGE_LOOP ( 'NONE', ( #509, #545, #988, #355 ) ) ;
#1101 = VECTOR ( 'NONE', #448, 1000.000000000000000 ) ;
#1102 = VECTOR ( 'NONE', #1311, 1000.000000000000000 ) ;
#1103 = CARTESIAN_POINT ( 'NONE',  ( 52.81571687984693142, 46.56473890245784730, 0.000000000000000000 ) ) ;
#1104 = AXIS2_PLACEMENT_3D ( 'NONE', #425, #2, #523 ) ;
#1105 = ORIENTED_EDGE ( 'NONE', *, *, #193, .T. ) ;
#1106 = ORIENTED_EDGE ( 'NONE', *, *, #542, .F. ) ;
#1107 = DIRECTION ( 'NONE',  ( -0.000000000000000000, -0.000000000000000000, 1.000000000000000000 ) ) ;
#1108 = CARTESIAN_POINT ( 'NONE',  ( 7.262798844342303717, 0.000000000000000000, 10.00000000000000000 ) ) ;
#1109 = DIRECTION ( 'NONE',  ( -0.5166192073295470255, -0.8562152735254087155, 0.000000000000000000 ) ) ;
#1110 = EDGE_CURVE ( 'NONE', #602, #590, #370, .T. ) ;
#1111 = CARTESIAN_POINT ( 'NONE',  ( -8.673617379884035472E-15, 75.61780606119178572, 10.00000000000000000 ) ) ;
#1112 = EDGE_CURVE ( 'NONE', #565, #326, #894, .T. ) ;
#1113 = ORIENTED_EDGE ( 'NONE', *, *, #733, .T. ) ;
#1114 = VERTEX_POINT ( 'NONE', #152 ) ;
#1115 = ORIENTED_EDGE ( 'NONE', *, *, #1339, .T. ) ;
#1116 = CARTESIAN_POINT ( 'NONE',  ( 7.076014860067608048, 7.575211287888820699, 10.00000000000000000 ) ) ;
#1117 = VERTEX_POINT ( 'NONE', #787 ) ;
#1118 = ORIENTED_EDGE ( 'NONE', *, *, #748, .T. ) ;
#1119 = LINE ( 'NONE', #589, #1308 ) ;
#1120 = VECTOR ( 'NONE', #681, 1000.000000000000000 ) ;
#1121 = ORIENTED_EDGE ( 'NONE', *, *, #168, .F. ) ;
#1122 = EDGE_CURVE ( 'NONE', #771, #1037, #566, .T. ) ;
#1123 = DIRECTION ( 'NONE',  ( 1.000000000000000000, 0.000000000000000000, 0.000000000000000000 ) ) ;
#1124 = CARTESIAN_POINT ( 'NONE',  ( 30.60376472791041280, 2.494383353432922057, 10.00000000000000000 ) ) ;
#1125 = AXIS2_PLACEMENT_3D ( 'NONE', #863, #40, #55 ) ;
#1126 = DIRECTION ( 'NONE',  ( 1.000000000000000000, 0.000000000000000000, 0.000000000000000000 ) ) ;
#1127 = ORIENTED_EDGE ( 'NONE', *, *, #587, .F. ) ;
#1128 = LINE ( 'NONE', #814, #556 ) ;
#1129 = ADVANCED_FACE ( 'NONE', ( #482 ), #159, .T. ) ;
#1130 = CARTESIAN_POINT ( 'NONE',  ( 52.81571687984693853, 60.51698804772570384, 0.000000000000000000 ) ) ;
#1131 = CARTESIAN_POINT ( 'NONE',  ( 30.60376472791041635, 80.00000000000000000, 10.00000000000000000 ) ) ;
#1132 = EDGE_LOOP ( 'NONE', ( #4, #931, #843, #906 ) ) ;
#1133 = LINE ( 'NONE', #720, #493 ) ;
#1134 = CARTESIAN_POINT ( 'NONE',  ( 52.81571687984693142, 30.39125774754708331, 0.000000000000000000 ) ) ;
#1135 = FACE_OUTER_BOUND ( 'NONE', #535, .T. ) ;
#1136 = DIRECTION ( 'NONE',  ( 0.000000000000000000, 0.000000000000000000, -1.000000000000000000 ) ) ;
#1137 = LINE ( 'NONE', #928, #114 ) ;
#1138 = PLANE ( 'NONE',  #902 ) ;
#1139 = CARTESIAN_POINT ( 'NONE',  ( 60.00000000000000000, 0.000000000000000000, 0.000000000000000000 ) ) ;
#1140 = AXIS2_PLACEMENT_3D ( 'NONE', #7, #428, #954 ) ;
#1141 = VECTOR ( 'NONE', #446, 1000.000000000000000 ) ;
#1142 = VECTOR ( 'NONE', #1052, 999.9999999999998863 ) ;
#1143 = LINE ( 'NONE', #306, #79 ) ;
#1144 = CARTESIAN_POINT ( 'NONE',  ( 49.48458400963573212, 25.85785367176411143, 0.000000000000000000 ) ) ;
#1145 = CARTESIAN_POINT ( 'NONE',  ( 38.30999224496513023, 77.50561664656707705, 0.000000000000000000 ) ) ;
#1146 = LINE ( 'NONE', #210, #1162 ) ;
#1147 = EDGE_CURVE ( 'NONE', #668, #592, #1193, .T. ) ;
#1148 = ORIENTED_EDGE ( 'NONE', *, *, #966, .F. ) ;
#1149 = FACE_OUTER_BOUND ( 'NONE', #705, .T. ) ;
#1150 = ADVANCED_FACE ( 'NONE', ( #989 ), #42, .T. ) ;
#1151 = CARTESIAN_POINT ( 'NONE',  ( 60.00000000000000711, 33.43526109754215270, 0.000000000000000000 ) ) ;
#1152 = ORIENTED_EDGE ( 'NONE', *, *, #168, .T. ) ;
#1153 = DIRECTION ( 'NONE',  ( 1.000000000000000000, 0.000000000000000000, 0.000000000000000000 ) ) ;
#1154 = CARTESIAN_POINT ( 'NONE',  ( 38.30999224496513023, 80.00000000000000000, 10.00000000000000000 ) ) ;
#1155 = CARTESIAN_POINT ( 'NONE',  ( 30.60376472791041280, -1.660262152094377219, 10.00000000000000000 ) ) ;
#1156 = CARTESIAN_POINT ( 'NONE',  ( 60.00000000000000000, 0.000000000000000000, 10.00000000000000000 ) ) ;
#1157 = ORIENTED_EDGE ( 'NONE', *, *, #474, .T. ) ;
#1158 = DIRECTION ( 'NONE',  ( 0.000000000000000000, 0.000000000000000000, -1.000000000000000000 ) ) ;
#1159 = EDGE_CURVE ( 'NONE', #289, #294, #67, .T. ) ;
#1160 = VERTEX_POINT ( 'NONE', #702 ) ;
#1161 = ORIENTED_EDGE ( 'NONE', *, *, #172, .F. ) ;
#1162 = VECTOR ( 'NONE', #1047, 1000.000000000000000 ) ;
#1163 = VECTOR ( 'NONE', #874, 1000.000000000000000 ) ;
#1164 = CARTESIAN_POINT ( 'NONE',  ( 60.00000000000000000, 30.39125774754708686, 0.000000000000000000 ) ) ;
#1165 = EDGE_CURVE ( 'NONE', #279, #527, #147, .T. ) ;
#1166 = ORIENTED_EDGE ( 'NONE', *, *, #1165, .T. ) ;
#1167 = DIRECTION ( 'NONE',  ( 0.8862922595139207660, 0.4631263658287110840, 0.000000000000000000 ) ) ;
#1168 = VERTEX_POINT ( 'NONE', #1111 ) ;
#1169 = PLANE ( 'NONE',  #337 ) ;
#1170 = ORIENTED_EDGE ( 'NONE', *, *, #650, .T. ) ;
#1171 = DIRECTION ( 'NONE',  ( -1.000000000000000000, 0.000000000000000000, -0.000000000000000000 ) ) ;
#1172 = ORIENTED_EDGE ( 'NONE', *, *, #47, .F. ) ;
#1173 = CARTESIAN_POINT ( 'NONE',  ( 7.076014860067608048, 18.34367458943671281, 0.000000000000000000 ) ) ;
#1174 = DIRECTION ( 'NONE',  ( 0.000000000000000000, 0.000000000000000000, 1.000000000000000000 ) ) ;
#1175 = CARTESIAN_POINT ( 'NONE',  ( 38.30999224496513023, 77.50561664656707705, 10.00000000000000000 ) ) ;
#1176 = DIRECTION ( 'NONE',  ( -0.000000000000000000, 0.000000000000000000, 1.000000000000000000 ) ) ;
#1177 = ORIENTED_EDGE ( 'NONE', *, *, #427, .T. ) ;
#1178 = DIRECTION ( 'NONE',  ( 0.000000000000000000, 0.000000000000000000, -1.000000000000000000 ) ) ;
#1179 = CARTESIAN_POINT ( 'NONE',  ( 63.86399987291617464, -1.660262152094377219, 0.000000000000000000 ) ) ;
#1180 = VECTOR ( 'NONE', #1269, 1000.000000000000000 ) ;
#1181 = DIRECTION ( 'NONE',  ( 0.000000000000000000, 1.000000000000000000, 0.000000000000000000 ) ) ;
#1182 = ORIENTED_EDGE ( 'NONE', *, *, #157, .T. ) ;
#1183 = DIRECTION ( 'NONE',  ( 0.000000000000000000, 0.000000000000000000, -1.000000000000000000 ) ) ;
#1184 = FACE_OUTER_BOUND ( 'NONE', #773, .T. ) ;
#1185 = CARTESIAN_POINT ( 'NONE',  ( 60.00000000000000711, 33.43526109754215270, 10.00000000000000000 ) ) ;
#1186 = ORIENTED_EDGE ( 'NONE', *, *, #646, .T. ) ;
#1187 = DIRECTION ( 'NONE',  ( -1.000000000000000000, -0.000000000000000000, -0.000000000000000000 ) ) ;
#1188 = ORIENTED_EDGE ( 'NONE', *, *, #1256, .T. ) ;
#1189 = ORIENTED_EDGE ( 'NONE', *, *, #353, .T. ) ;
#1190 = CARTESIAN_POINT ( 'NONE',  ( 0.000000000000000000, 0.000000000000000000, 10.00000000000000000 ) ) ;
#1191 = DIRECTION ( 'NONE',  ( 0.000000000000000000, -0.000000000000000000, -1.000000000000000000 ) ) ;
#1192 = ADVANCED_FACE ( 'NONE', ( #51 ), #468, .F. ) ;
#1193 = LINE ( 'NONE', #1089, #669 ) ;
#1194 = DIRECTION ( 'NONE',  ( -0.000000000000000000, -0.000000000000000000, 1.000000000000000000 ) ) ;
#1195 = VECTOR ( 'NONE', #568, 1000.000000000000000 ) ;
#1196 = VECTOR ( 'NONE', #747, 1000.000000000000000 ) ;
#1197 = VECTOR ( 'NONE', #230, 1000.000000000000000 ) ;
#1198 = EDGE_LOOP ( 'NONE', ( #1204, #547, #1218, #667 ) ) ;
#1199 = STYLED_ITEM ( 'NONE', ( #109 ), #1070 ) ;
#1200 = LINE ( 'NONE', #1319, #756 ) ;
#1201 = ADVANCED_FACE ( 'NONE', ( #876 ), #264, .F. ) ;
#1202 = CARTESIAN_POINT ( 'NONE',  ( 7.262798844342306381, 80.00000000000000000, 10.00000000000000000 ) ) ;
#1203 = ORIENTED_EDGE ( 'NONE', *, *, #728, .F. ) ;
#1204 = ORIENTED_EDGE ( 'NONE', *, *, #1112, .T. ) ;
#1205 = LINE ( 'NONE', #1314, #837 ) ;
#1206 = EDGE_CURVE ( 'NONE', #1037, #173, #1002, .T. ) ;
#1207 = ORIENTED_EDGE ( 'NONE', *, *, #594, .F. ) ;
#1208 = FACE_OUTER_BOUND ( 'NONE', #249, .T. ) ;
#1209 = ADVANCED_FACE ( 'NONE', ( #780 ), #579, .T. ) ;
#1210 =( LENGTH_UNIT ( ) NAMED_UNIT ( * ) SI_UNIT ( .MILLI., .METRE. ) );
#1211 = DIRECTION ( 'NONE',  ( 0.000000000000000000, -0.000000000000000000, 1.000000000000000000 ) ) ;
#1212 = ORIENTED_EDGE ( 'NONE', *, *, #445, .F. ) ;
#1213 = ORIENTED_EDGE ( 'NONE', *, *, #347, .T. ) ;
#1214 = CARTESIAN_POINT ( 'NONE',  ( -1.750900791040339577, 5.438644351162485790, 10.00000000000000000 ) ) ;
#1215 = LINE ( 'NONE', #1310, #731 ) ;
#1216 = EDGE_CURVE ( 'NONE', #686, #1315, #584, .T. ) ;
#1217 = CARTESIAN_POINT ( 'NONE',  ( 0.000000000000000000, 0.000000000000000000, 10.00000000000000000 ) ) ;
#1218 = ORIENTED_EDGE ( 'NONE', *, *, #1255, .F. ) ;
#1219 = ORIENTED_EDGE ( 'NONE', *, *, #701, .T. ) ;
#1220 = DIRECTION ( 'NONE',  ( 0.8562152735254088265, -0.5166192073295469145, 0.000000000000000000 ) ) ;
#1221 = EDGE_CURVE ( 'NONE', #784, #437, #1277, .T. ) ;
#1222 = CARTESIAN_POINT ( 'NONE',  ( 38.30999224496513023, 77.50561664656707705, 0.000000000000000000 ) ) ;
#1223 = CARTESIAN_POINT ( 'NONE',  ( 38.30999224496512312, 2.494383353432922057, 10.00000000000000000 ) ) ;
#1224 = PLANE ( 'NONE',  #817 ) ;
#1225 = AXIS2_PLACEMENT_3D ( 'NONE', #83, #1109, #499 ) ;
#1226 = FACE_OUTER_BOUND ( 'NONE', #802, .T. ) ;
#1227 = VERTEX_POINT ( 'NONE', #257 ) ;
#1228 = ADVANCED_FACE ( 'NONE', ( #679 ), #890, .T. ) ;
#1229 = CARTESIAN_POINT ( 'NONE',  ( 7.076014860067608048, 72.42478871211119440, 10.00000000000000000 ) ) ;
#1230 = LINE ( 'NONE', #412, #78 ) ;
#1231 = EDGE_CURVE ( 'NONE', #640, #645, #695, .T. ) ;
#1232 = VERTEX_POINT ( 'NONE', #1042 ) ;
#1233 = DIRECTION ( 'NONE',  ( 0.000000000000000000, 0.000000000000000000, -1.000000000000000000 ) ) ;
#1234 = ORIENTED_EDGE ( 'NONE', *, *, #1003, .F. ) ;
#1235 = CARTESIAN_POINT ( 'NONE',  ( 30.60376472791041635, 77.50561664656707705, 0.000000000000000000 ) ) ;
#1236 = CARTESIAN_POINT ( 'NONE',  ( 7.076014860067608048, 72.42478871211119440, 0.000000000000000000 ) ) ;
#1237 = CARTESIAN_POINT ( 'NONE',  ( 59.99999999999999289, 49.60874225245291314, 0.000000000000000000 ) ) ;
#1238 = LINE ( 'NONE', #735, #34 ) ;
#1239 = CARTESIAN_POINT ( 'NONE',  ( 52.81571687984693142, 33.43526109754215270, 0.000000000000000000 ) ) ;
#1240 = EDGE_CURVE ( 'NONE', #41, #440, #716, .T. ) ;
#1241 = ORIENTED_EDGE ( 'NONE', *, *, #610, .F. ) ;
#1242 = AXIS2_PLACEMENT_3D ( 'NONE', #869, #567, #1191 ) ;
#1243 = ORIENTED_EDGE ( 'NONE', *, *, #587, .T. ) ;
#1244 = VECTOR ( 'NONE', #222, 1000.000000000000114 ) ;
#1245 = VECTOR ( 'NONE', #1181, 1000.000000000000000 ) ;
#1246 = DIRECTION ( 'NONE',  ( 1.000000000000000000, -9.658436044151048737E-16, -0.000000000000000000 ) ) ;
#1247 = CARTESIAN_POINT ( 'NONE',  ( 60.00000000000000000, 0.000000000000000000, 10.00000000000000000 ) ) ;
#1248 = EDGE_CURVE ( 'NONE', #1013, #872, #1332, .T. ) ;
#1249 = EDGE_CURVE ( 'NONE', #540, #1082, #1230, .T. ) ;
#1250 = CARTESIAN_POINT ( 'NONE',  ( 52.81571687984693853, 19.48301195227428906, 10.00000000000000000 ) ) ;
#1251 = ORIENTED_EDGE ( 'NONE', *, *, #657, .F. ) ;
#1252 = ORIENTED_EDGE ( 'NONE', *, *, #485, .T. ) ;
#1253 = ORIENTED_EDGE ( 'NONE', *, *, #143, .F. ) ;
#1254 = CARTESIAN_POINT ( 'NONE',  ( 60.00000000000000000, 30.39125774754708686, 0.000000000000000000 ) ) ;
#1255 = EDGE_CURVE ( 'NONE', #957, #1079, #822, .T. ) ;
#1256 = EDGE_CURVE ( 'NONE', #433, #256, #917, .T. ) ;
#1257 = DIRECTION ( 'NONE',  ( 1.000000000000000000, -9.658436044151048737E-16, -0.000000000000000000 ) ) ;
#1258 = LINE ( 'NONE', #1131, #5 ) ;
#1259 = ADVANCED_FACE ( 'NONE', ( #1135 ), #925, .F. ) ;
#1260 = VECTOR ( 'NONE', #911, 1000.000000000000000 ) ;
#1261 = VECTOR ( 'NONE', #464, 1000.000000000000000 ) ;
#1262 = LINE ( 'NONE', #240, #1142 ) ;
#1263 = ORIENTED_EDGE ( 'NONE', *, *, #518, .T. ) ;
#1264 =( NAMED_UNIT ( * ) PLANE_ANGLE_UNIT ( ) SI_UNIT ( $, .RADIAN. ) );
#1265 = ORIENTED_EDGE ( 'NONE', *, *, #707, .T. ) ;
#1266 = VECTOR ( 'NONE', #28, 1000.000000000000000 ) ;
#1267 = LINE ( 'NONE', #767, #1084 ) ;
#1268 = VERTEX_POINT ( 'NONE', #398 ) ;
#1269 = DIRECTION ( 'NONE',  ( 0.000000000000000000, 1.000000000000000000, 0.000000000000000000 ) ) ;
#1270 = ORIENTED_EDGE ( 'NONE', *, *, #542, .T. ) ;
#1271 = CARTESIAN_POINT ( 'NONE',  ( 52.81571687984693853, 19.48301195227428906, 0.000000000000000000 ) ) ;
#1272 = CARTESIAN_POINT ( 'NONE',  ( 52.81571687984693142, 33.43526109754215270, 0.000000000000000000 ) ) ;
#1273 = DIRECTION ( 'NONE',  ( -0.000000000000000000, -0.000000000000000000, 1.000000000000000000 ) ) ;
#1274 = CARTESIAN_POINT ( 'NONE',  ( 0.000000000000000000, 44.41439458148440167, 0.000000000000000000 ) ) ;
#1275 = LINE ( 'NONE', #247, #80 ) ;
#1276 = ORIENTED_EDGE ( 'NONE', *, *, #485, .F. ) ;
#1277 = LINE ( 'NONE', #169, #979 ) ;
#1278 = EDGE_LOOP ( 'NONE', ( #1182, #57, #1307, #1075 ) ) ;
#1279 = CARTESIAN_POINT ( 'NONE',  ( -1.750900791040339355, 18.34367458943671281, 0.000000000000000000 ) ) ;
#1280 = DIRECTION ( 'NONE',  ( 0.8562152735254089375, 0.5166192073295465814, 0.000000000000000000 ) ) ;
#1281 = CARTESIAN_POINT ( 'NONE',  ( 52.81571687984693853, 60.51698804772570384, 0.000000000000000000 ) ) ;
#1282 = CARTESIAN_POINT ( 'NONE',  ( 60.00000000000000000, 0.000000000000000000, 10.00000000000000000 ) ) ;
#1283 = ADVANCED_FACE ( 'NONE', ( #1226 ), #613, .T. ) ;
#1284 = ORIENTED_EDGE ( 'NONE', *, *, #1231, .T. ) ;
#1285 = DIRECTION ( 'NONE',  ( 0.000000000000000000, -1.000000000000000000, 0.000000000000000000 ) ) ;
#1286 = VECTOR ( 'NONE', #363, 1000.000000000000000 ) ;
#1287 = VECTOR ( 'NONE', #960, 1000.000000000000000 ) ;
#1288 = VECTOR ( 'NONE', #576, 1000.000000000000000 ) ;
#1289 = PLANE ( 'NONE',  #1303 ) ;
#1290 = ORIENTED_EDGE ( 'NONE', *, *, #394, .T. ) ;
#1291 = LINE ( 'NONE', #557, #258 ) ;
#1292 = DIRECTION ( 'NONE',  ( 0.000000000000000000, 1.000000000000000000, 0.000000000000000000 ) ) ;
#1293 = CARTESIAN_POINT ( 'NONE',  ( 0.000000000000000000, 80.00000000000000000, 10.00000000000000000 ) ) ;
#1294 = VERTEX_POINT ( 'NONE', #305 ) ;
#1295 = DIRECTION ( 'NONE',  ( 0.000000000000000000, -0.000000000000000000, -1.000000000000000000 ) ) ;
#1296 = CARTESIAN_POINT ( 'NONE',  ( 7.076014860067608048, 7.575211287888820699, 0.000000000000000000 ) ) ;
#1297 = ORIENTED_EDGE ( 'NONE', *, *, #329, .T. ) ;
#1298 = LINE ( 'NONE', #593, #619 ) ;
#1299 = VERTEX_POINT ( 'NONE', #1337 ) ;
#1300 = DIRECTION ( 'NONE',  ( 0.4631263658287115281, 0.8862922595139204329, 0.000000000000000000 ) ) ;
#1301 = DIRECTION ( 'NONE',  ( 0.000000000000000000, 0.000000000000000000, -1.000000000000000000 ) ) ;
#1302 = PRODUCT ( 'Rf2i', 'Rf2i', '', ( #239 ) ) ;
#1303 = AXIS2_PLACEMENT_3D ( 'NONE', #860, #766, #358 ) ;
#1304 = AXIS2_PLACEMENT_3D ( 'NONE', #1179, #1167, #789 ) ;
#1305 = VECTOR ( 'NONE', #708, 1000.000000000000000 ) ;
#1306 = ORIENTED_EDGE ( 'NONE', *, *, #246, .F. ) ;
#1307 = ORIENTED_EDGE ( 'NONE', *, *, #310, .F. ) ;
#1308 = VECTOR ( 'NONE', #405, 1000.000000000000000 ) ;
#1309 = CARTESIAN_POINT ( 'NONE',  ( 52.81571687984693853, 19.48301195227428906, 0.000000000000000000 ) ) ;
#1310 = CARTESIAN_POINT ( 'NONE',  ( 60.00000000000000000, 0.000000000000000000, 0.000000000000000000 ) ) ;
#1311 = DIRECTION ( 'NONE',  ( 1.000000000000000000, 0.000000000000000000, 0.000000000000000000 ) ) ;
#1312 = EDGE_CURVE ( 'NONE', #927, #24, #490, .T. ) ;
#1313 = ORIENTED_EDGE ( 'NONE', *, *, #711, .T. ) ;
#1314 = CARTESIAN_POINT ( 'NONE',  ( 0.000000000000000000, 35.58560541851560544, 10.00000000000000000 ) ) ;
#1315 = VERTEX_POINT ( 'NONE', #727 ) ;
#1316 = ORIENTED_EDGE ( 'NONE', *, *, #399, .T. ) ;
#1317 = DIRECTION ( 'NONE',  ( -0.000000000000000000, -0.000000000000000000, 1.000000000000000000 ) ) ;
#1318 = LINE ( 'NONE', #74, #277 ) ;
#1319 = CARTESIAN_POINT ( 'NONE',  ( 52.81571687984693142, 49.60874225245292024, 0.000000000000000000 ) ) ;
#1320 = DIRECTION ( 'NONE',  ( 1.000000000000000000, -0.000000000000000000, 0.000000000000000000 ) ) ;
#1321 = EDGE_CURVE ( 'NONE', #969, #279, #1015, .T. ) ;
#1322 = DIRECTION ( 'NONE',  ( -0.000000000000000000, -0.000000000000000000, 1.000000000000000000 ) ) ;
#1323 = ORIENTED_EDGE ( 'NONE', *, *, #229, .F. ) ;
#1324 = CARTESIAN_POINT ( 'NONE',  ( 59.99999999999999289, 49.60874225245291314, 0.000000000000000000 ) ) ;
#1325 = CARTESIAN_POINT ( 'NONE',  ( 52.81571687984693853, 60.51698804772570384, 0.000000000000000000 ) ) ;
#1326 = DIRECTION ( 'NONE',  ( -0.8562152735254091596, -0.5166192073295465814, 0.000000000000000000 ) ) ;
#1327 = DIRECTION ( 'NONE',  ( 1.670153059912281994E-15, -1.000000000000000000, 0.000000000000000000 ) ) ;
#1328 = VECTOR ( 'NONE', #629, 1000.000000000000000 ) ;
#1329 = PLANE ( 'NONE',  #858 ) ;
#1330 = DIRECTION ( 'NONE',  ( -0.000000000000000000, -0.000000000000000000, 1.000000000000000000 ) ) ;
#1331 = AXIS2_PLACEMENT_3D ( 'NONE', #999, #888, #1295 ) ;
#1332 = LINE ( 'NONE', #85, #1260 ) ;
#1333 = ORIENTED_EDGE ( 'NONE', *, *, #413, .F. ) ;
#1334 = DIRECTION ( 'NONE',  ( -1.000000000000000000, -0.000000000000000000, -0.000000000000000000 ) ) ;
#1335 = PRODUCT_DEFINITION ( 'UNKNOWN', '', #691, #416 ) ;
#1336 = CARTESIAN_POINT ( 'NONE',  ( 0.000000000000000000, 0.000000000000000000, 10.00000000000000000 ) ) ;
#1337 = CARTESIAN_POINT ( 'NONE',  ( 7.316166356981231189, 40.00000000000000000, 10.00000000000000000 ) ) ;
#1338 = EDGE_CURVE ( 'NONE', #645, #1114, #903, .T. ) ;
#1339 = EDGE_CURVE ( 'NONE', #433, #1071, #388, .T. ) ;
#1340 = LINE ( 'NONE', #741, #1244 ) ;
#1341 = DIRECTION ( 'NONE',  ( 1.670153059912281994E-15, -1.000000000000000000, 0.000000000000000000 ) ) ;
#1342 = VERTEX_POINT ( 'NONE', #605 ) ;
ENDSEC;
END-ISO-10303-21;
