# https://github.com/mikedh/trimesh
v 0.00000000 20.00000000 0.00000000
v 0.00000000 20.00000000 60.00000000
v 0.00000000 10.00000000 60.00000000
v 0.00000000 10.00000000 0.00000000
v 80.00000000 10.00000000 60.00000000
v 80.00000000 20.00000000 60.00000000
v 12.12214800 1.90983000 60.00000000
v 21.09017000 0.48943500 60.00000000
v 18.00000000 0.00000000 60.00000000
v 14.90983000 0.48943500 60.00000000
v 21.09017000 29.51056500 60.00000000
v 18.00000000 30.00000000 60.00000000
v 14.90983000 29.51056500 60.00000000
v 12.12214800 28.09017000 60.00000000
v 80.00000000 20.00000000 0.00000000
v 80.00000000 10.00000000 0.00000000
v 14.90983000 0.48943500 0.00000000
v 21.09017000 29.51056500 -0.00000000
v 18.00000000 30.00000000 -0.00000000
v 21.09017000 0.48943500 0.00000000
v 14.90983000 29.51056500 -0.00000000
v 18.00000000 -0.00000000 0.00000000
v 12.12214800 1.90983000 0.00000000
v 12.12214800 28.09017000 -0.00000000
f 3 4 1
f 3 2 1
f 11 19 18
f 11 19 12
f 15 11 18
f 15 11 6
f 22 8 9
f 22 8 20
f 13 19 21
f 13 19 12
f 24 2 1
f 24 14 2
f 24 13 14
f 24 13 21
f 16 8 5
f 16 8 20
f 16 6 5
f 16 15 6
f 23 19 18
f 23 4 1
f 23 22 20
f 23 24 1
f 23 16 20
f 23 19 21
f 23 15 18
f 23 22 17
f 23 24 21
f 23 16 15
f 23 3 4
f 23 7 3
f 10 8 5
f 10 6 5
f 10 11 12
f 10 8 9
f 10 13 12
f 10 3 2
f 10 14 2
f 10 11 6
f 10 7 3
f 10 13 14
f 10 22 17
f 10 22 9
f 10 23 17
f 10 23 7

