# Blender 4.4.0
# www.blender.org
mtllib Rf3a.mtl
o Rf3a
v 8.000000 20.000000 0.000000
v 0.000000 20.000000 0.000000
v 8.000000 20.000000 60.000000
v 0.000000 20.000000 60.000000
v 0.000000 10.000000 60.000000
v 0.000000 10.000000 0.000000
v 8.000000 10.000000 60.000000
v 8.000000 10.000000 0.000000
v 28.000000 10.000000 60.000000
v 80.000000 10.000000 60.000000
v 80.000000 20.000000 60.000000
v 26.090170 25.877851 60.000000
v 23.877851 28.090170 60.000000
v 27.510565 23.090170 60.000000
v 8.489434 6.909830 60.000000
v 28.000000 20.000000 60.000000
v 9.909830 4.122148 60.000000
v 12.122148 1.909830 60.000000
v 23.877851 1.909830 60.000000
v 26.090170 4.122148 60.000000
v 21.090170 0.489435 60.000000
v 27.510565 6.909830 60.000000
v 18.000000 0.000000 60.000000
v 14.909830 0.489435 60.000000
v 8.489434 23.090170 60.000000
v 21.090170 29.510565 60.000000
v 18.000000 30.000000 60.000000
v 14.909830 29.510565 60.000000
v 12.122148 28.090170 60.000000
v 9.909830 25.877851 60.000000
v 80.000000 20.000000 0.000000
v 80.000000 10.000000 0.000000
v 28.000000 20.000000 0.000000
v 80.000000 10.000000 0.000000
v 0.000000 10.000000 0.000000
v 8.000000 10.000000 0.000000
v 12.122148 1.909830 0.000000
v 23.877851 28.090170 -0.000000
v 26.090170 25.877851 -0.000000
v 14.909830 0.489435 0.000000
v 27.510565 6.909830 0.000000
v 28.000000 10.000000 0.000000
v 9.909830 4.122148 0.000000
v 8.489434 6.909830 0.000000
v 27.510565 23.090170 -0.000000
v 8.489434 23.090170 -0.000000
v 21.090170 29.510565 -0.000000
v 18.000000 30.000000 -0.000000
v 26.090170 4.122148 0.000000
v 23.877851 1.909830 0.000000
v 21.090170 0.489435 0.000000
v 14.909830 29.510565 -0.000000
v 9.909830 25.877851 -0.000000
v 12.122148 28.090170 -0.000000
v 18.000000 -0.000000 0.000000
v 0.000000 20.000000 60.000000
v 0.000000 20.000000 0.000000
v 0.000000 10.000000 60.000000
v 0.000000 10.000000 0.000000
v 28.000000 10.000000 0.000000
v 8.489434 6.909830 0.000000
v 9.909830 4.122148 0.000000
v 12.122148 1.909830 0.000000
v 14.909830 0.489435 0.000000
v 18.000000 -0.000000 0.000000
v 18.000000 0.000000 60.000000
v 21.090170 0.489435 0.000000
v 23.877851 1.909830 0.000000
v 26.090170 4.122148 0.000000
v 27.510565 6.909830 0.000000
v 27.510565 23.090170 -0.000000
v 26.090170 25.877851 -0.000000
v 23.877851 28.090170 -0.000000
v 21.090170 29.510565 -0.000000
v 18.000000 30.000000 -0.000000
v 14.909830 29.510565 -0.000000
v 12.122148 28.090170 -0.000000
v 9.909830 25.877851 -0.000000
v 8.489434 23.090170 -0.000000
vn -0.0000 1.0000 -0.0000
vn -0.0000 -1.0000 -0.0000
vn -0.0000 -0.0000 1.0000
vn 1.0000 -0.0000 -0.0000
vn -0.0000 -0.0000 -1.0000
vn -1.0000 -0.0000 -0.0000
vn -0.9877 -0.1564 -0.0000
vn -0.8910 -0.4540 -0.0000
vn -0.7071 -0.7071 -0.0000
vn -0.4540 -0.8910 -0.0000
vn -0.1564 -0.9877 -0.0000
vn 0.1564 -0.9877 -0.0000
vn 0.4540 -0.8910 -0.0000
vn 0.7071 -0.7071 -0.0000
vn 0.8910 -0.4540 -0.0000
vn 0.9877 -0.1564 -0.0000
vn 0.9877 0.1564 -0.0000
vn 0.8910 0.4540 -0.0000
vn 0.7071 0.7071 -0.0000
vn 0.4540 0.8910 -0.0000
vn 0.1564 0.9877 -0.0000
vn -0.1564 0.9877 -0.0000
vn -0.4540 0.8910 -0.0000
vn -0.7071 0.7071 -0.0000
vn -0.8910 0.4540 -0.0000
vn -0.9877 0.1564 -0.0000
s 0
f 1//1 2//1 3//1
f 3//1 2//1 4//1
f 5//2 6//2 7//2
f 7//2 6//2 8//2
f 9//3 10//3 11//3
f 3//3 4//3 5//3
f 12//3 13//3 7//3
f 12//3 7//3 14//3
f 14//3 7//3 15//3
f 14//3 15//3 16//3
f 16//3 15//3 17//3
f 16//3 17//3 18//3
f 19//3 20//3 21//3
f 21//3 20//3 22//3
f 21//3 22//3 23//3
f 11//3 16//3 9//3
f 9//3 16//3 18//3
f 9//3 18//3 22//3
f 22//3 18//3 24//3
f 22//3 24//3 23//3
f 5//3 7//3 3//3
f 3//3 7//3 13//3
f 3//3 13//3 25//3
f 25//3 13//3 26//3
f 25//3 26//3 27//3
f 27//3 28//3 25//3
f 25//3 28//3 29//3
f 25//3 29//3 30//3
f 31//4 11//4 32//4
f 32//4 11//4 10//4
f 33//5 31//5 34//5
f 35//5 2//5 36//5
f 36//5 2//5 1//5
f 37//5 38//5 39//5
f 40//5 37//5 41//5
f 41//5 37//5 42//5
f 37//5 43//5 44//5
f 34//5 42//5 33//5
f 33//5 42//5 37//5
f 33//5 37//5 45//5
f 45//5 37//5 39//5
f 44//5 36//5 37//5
f 37//5 36//5 1//5
f 37//5 1//5 38//5
f 38//5 1//5 46//5
f 38//5 46//5 47//5
f 47//5 46//5 48//5
f 49//5 50//5 51//5
f 48//5 46//5 52//5
f 52//5 46//5 53//5
f 52//5 53//5 54//5
f 49//5 51//5 41//5
f 41//5 51//5 55//5
f 41//5 55//5 40//5
f 56//6 57//6 58//6
f 58//6 57//6 59//6
f 16//1 11//1 33//1
f 33//1 11//1 31//1
f 32//2 10//2 60//2
f 60//2 10//2 9//2
f 7//7 8//7 61//7
f 7//7 61//7 15//7
f 15//8 61//8 62//8
f 15//8 62//8 17//8
f 17//9 62//9 63//9
f 17//9 63//9 18//9
f 18//10 63//10 64//10
f 18//10 64//10 24//10
f 24//11 64//11 65//11
f 24//11 65//11 66//11
f 66//12 65//12 67//12
f 66//12 67//12 21//12
f 21//13 67//13 68//13
f 21//13 68//13 19//13
f 19//14 68//14 69//14
f 19//14 69//14 20//14
f 20//15 69//15 70//15
f 20//15 70//15 22//15
f 22//16 70//16 60//16
f 22//16 60//16 9//16
f 16//17 33//17 71//17
f 16//17 71//17 14//17
f 14//18 71//18 72//18
f 14//18 72//18 12//18
f 12//19 72//19 73//19
f 12//19 73//19 13//19
f 13//20 73//20 74//20
f 13//20 74//20 26//20
f 26//21 74//21 75//21
f 26//21 75//21 27//21
f 27//22 75//22 76//22
f 27//22 76//22 28//22
f 28//23 76//23 77//23
f 28//23 77//23 29//23
f 29//24 77//24 78//24
f 29//24 78//24 30//24
f 30//25 78//25 79//25
f 30//25 79//25 25//25
f 25//26 79//26 1//26
f 25//26 1//26 3//26
