ISO-10303-21;
HEADER;
FILE_DESCRIPTION (( 'STEP AP214' ),
    '1' );
FILE_NAME ('Rf3a.STEP',
    '2026-01-20T23:00:56',
    ( '' ),
    ( '' ),
    'SwSTEP 2.0',
    'SolidWorks 2024',
    '' );
FILE_SCHEMA (( 'AUTOMOTIVE_DESIGN' ));
ENDSEC;

DATA;
#1 = CLOSED_SHELL ( 'NONE', ( #354, #235, #254, #14, #63, #136, #125, #280, #187, #201, #87 ) ) ;
#2 = DIRECTION ( 'NONE',  ( 1.000000000000000000, 3.491481338843133355E-15, 0.000000000000000000 ) ) ;
#3 = EDGE_CURVE ( 'NONE', #316, #45, #234, .T. ) ;
#4 = AXIS2_PLACEMENT_3D ( 'NONE', #189, #219, #331 ) ;
#5 = PLANE ( 'NONE',  #4 ) ;
#6 = STYLED_ITEM ( 'NONE', ( #26 ), #145 ) ;
#7 = DIRECTION ( 'NONE',  ( 1.219044193948983948E-29, -3.491481338843133355E-15, -1.000000000000000000 ) ) ;
#8 = EDGE_CURVE ( 'NONE', #16, #206, #200, .T. ) ;
#9 = DIRECTION ( 'NONE',  ( -1.219044193948983948E-29, 3.491481338843133355E-15, 1.000000000000000000 ) ) ;
#10 = DIRECTION ( 'NONE',  ( 3.469446951953614978E-15, -1.000000000000000000, 3.469446951953614978E-15 ) ) ;
#11 = ORIENTED_EDGE ( 'NONE', *, *, #41, .F. ) ;
#12 = LINE ( 'NONE', #40, #185 ) ;
#13 = EDGE_LOOP ( 'NONE', ( #11, #152, #342, #74 ) ) ;
#14 = ADVANCED_FACE ( 'NONE', ( #271 ), #296, .F. ) ;
#15 = ORIENTED_EDGE ( 'NONE', *, *, #228, .T. ) ;
#16 = VERTEX_POINT ( 'NONE', #352 ) ;
#17 = VECTOR ( 'NONE', #312, 1000.000000000000000 ) ;
#18 = ORIENTED_EDGE ( 'NONE', *, *, #228, .F. ) ;
#19 = SURFACE_SIDE_STYLE ('',( #279 ) ) ;
#20 = FACE_OUTER_BOUND ( 'NONE', #320, .T. ) ;
#21 = LINE ( 'NONE', #242, #294 ) ;
#22 = CARTESIAN_POINT ( 'NONE',  ( 79.99999999999997158, 20.00000000000002487, -2.081668171172168513E-14 ) ) ;
#23 =( NAMED_UNIT ( * ) SI_UNIT ( $, .STERADIAN. ) SOLID_ANGLE_UNIT ( ) );
#24 = EDGE_CURVE ( 'NONE', #173, #179, #184, .T. ) ;
#25 = CARTESIAN_POINT ( 'NONE',  ( -2.255140518769849223E-14, 19.99999999999995381, 59.99999999999997868 ) ) ;
#26 = PRESENTATION_STYLE_ASSIGNMENT (( #52 ) ) ;
#27 = CARTESIAN_POINT ( 'NONE',  ( 79.99999999999997158, 20.00000000000024158, 59.99999999999997868 ) ) ;
#28 = DIRECTION ( 'NONE',  ( 1.219044193948983948E-29, -3.491481338843133355E-15, -1.000000000000000000 ) ) ;
#29 = DIRECTION ( 'NONE',  ( -1.000000000000000000, -3.491481338843133355E-15, 0.000000000000000000 ) ) ;
#30 = CARTESIAN_POINT ( 'NONE',  ( 79.99999999999997158, 20.00000000000002487, -2.081668171172168513E-14 ) ) ;
#31 = DIRECTION ( 'NONE',  ( 3.491481338843133355E-15, -1.000000000000000000, 3.491481338843133355E-15 ) ) ;
#32 = DIRECTION ( 'NONE',  ( 1.219044193948983948E-29, -3.491481338843133355E-15, -1.000000000000000000 ) ) ;
#33 = CARTESIAN_POINT ( 'NONE',  ( 1.908195823574487804E-14, 9.999999999999960920, 60.00000000000001421 ) ) ;
#34 = AXIS2_PLACEMENT_3D ( 'NONE', #276, #31, #141 ) ;
#35 = MECHANICAL_DESIGN_GEOMETRIC_PRESENTATION_REPRESENTATION (  '', ( #6 ), #311 ) ;
#36 = FACE_OUTER_BOUND ( 'NONE', #307, .T. ) ;
#37 = LINE ( 'NONE', #257, #297 ) ;
#38 = CIRCLE ( 'NONE', #91, 10.00000000000000533 ) ;
#39 = ADVANCED_BREP_SHAPE_REPRESENTATION ( 'Rf3a', ( #145, #115 ), #69 ) ;
#40 = CARTESIAN_POINT ( 'NONE',  ( -2.255140518769849223E-14, 19.99999999999974776, -2.081668171172168513E-14 ) ) ;
#41 = EDGE_CURVE ( 'NONE', #288, #206, #131, .T. ) ;
#42 = ORIENTED_EDGE ( 'NONE', *, *, #72, .T. ) ;
#43 = ORIENTED_EDGE ( 'NONE', *, *, #3, .F. ) ;
#44 = ORIENTED_EDGE ( 'NONE', *, *, #151, .T. ) ;
#45 = VERTEX_POINT ( 'NONE', #298 ) ;
#46 = DIRECTION ( 'NONE',  ( 1.000000000000000000, 0.000000000000000000, 0.000000000000000000 ) ) ;
#47 = ORIENTED_EDGE ( 'NONE', *, *, #151, .F. ) ;
#48 = AXIS2_PLACEMENT_3D ( 'NONE', #162, #32, #275 ) ;
#49 = ORIENTED_EDGE ( 'NONE', *, *, #76, .T. ) ;
#50 = CARTESIAN_POINT ( 'NONE',  ( 79.99999999999997158, 20.00000000000002487, -2.081668171172168513E-14 ) ) ;
#51 = DIRECTION ( 'NONE',  ( 1.219044193948983948E-29, -3.491481338843133355E-15, -1.000000000000000000 ) ) ;
#52 = SURFACE_STYLE_USAGE ( .BOTH. , #19 ) ;
#53 = VECTOR ( 'NONE', #57, 1000.000000000000000 ) ;
#54 = AXIS2_PLACEMENT_3D ( 'NONE', #142, #238, #245 ) ;
#55 = LINE ( 'NONE', #25, #78 ) ;
#56 = DIRECTION ( 'NONE',  ( 1.000000000000000000, 3.491481338843133355E-15, 0.000000000000000000 ) ) ;
#57 = DIRECTION ( 'NONE',  ( 1.219044193948983948E-29, -3.491481338843133355E-15, -1.000000000000000000 ) ) ;
#58 = PLANE ( 'NONE',  #188 ) ;
#59 = LINE ( 'NONE', #277, #107 ) ;
#60 = CARTESIAN_POINT ( 'NONE',  ( 7.999999999999956479, 19.99999999999998224, 59.99999999999997868 ) ) ;
#61 = ORIENTED_EDGE ( 'NONE', *, *, #305, .F. ) ;
#62 = DIRECTION ( 'NONE',  ( -3.491481338843133355E-15, 1.000000000000000000, -3.491481338843133355E-15 ) ) ;
#63 = ADVANCED_FACE ( 'NONE', ( #134 ), #269, .F. ) ;
#64 = VECTOR ( 'NONE', #51, 1000.000000000000000 ) ;
#65 = ORIENTED_EDGE ( 'NONE', *, *, #287, .F. ) ;
#66 = CARTESIAN_POINT ( 'NONE',  ( 7.999999999999998224, 9.999999999999779732, 1.387778780781445676E-14 ) ) ;
#67 = EDGE_CURVE ( 'NONE', #290, #86, #158, .T. ) ;
#68 = VERTEX_POINT ( 'NONE', #210 ) ;
#69 =( GEOMETRIC_REPRESENTATION_CONTEXT ( 3 ) GLOBAL_UNCERTAINTY_ASSIGNED_CONTEXT ( ( #80 ) ) GLOBAL_UNIT_ASSIGNED_CONTEXT ( ( #98, #319, #289 ) ) REPRESENTATION_CONTEXT ( 'NONE', 'WORKASPACE' ) );
#70 = VERTEX_POINT ( 'NONE', #103 ) ;
#71 = ORIENTED_EDGE ( 'NONE', *, *, #293, .F. ) ;
#72 = EDGE_CURVE ( 'NONE', #226, #288, #339, .T. ) ;
#73 = EDGE_LOOP ( 'NONE', ( #308, #315, #341, #237 ) ) ;
#74 = ORIENTED_EDGE ( 'NONE', *, *, #116, .F. ) ;
#75 = CARTESIAN_POINT ( 'NONE',  ( 79.99999999999997158, 20.00000000000024158, 59.99999999999997868 ) ) ;
#76 = EDGE_CURVE ( 'NONE', #126, #285, #55, .T. ) ;
#77 = DIRECTION ( 'NONE',  ( 1.219044193948983948E-29, -3.491481338843133355E-15, -1.000000000000000000 ) ) ;
#78 = VECTOR ( 'NONE', #353, 1000.000000000000000 ) ;
#79 = CARTESIAN_POINT ( 'NONE',  ( 79.99999999999997158, 20.00000000000002487, -2.081668171172168513E-14 ) ) ;
#80 = UNCERTAINTY_MEASURE_WITH_UNIT (LENGTH_MEASURE( 1.000000000000000082E-05 ), #98, 'distance_accuracy_value', 'NONE');
#81 = DIRECTION ( 'NONE',  ( 3.469446951953612217E-15, -1.000000000000000000, 3.469446951953612217E-15 ) ) ;
#82 = LINE ( 'NONE', #274, #93 ) ;
#83 = LINE ( 'NONE', #191, #267 ) ;
#84 = FACE_OUTER_BOUND ( 'NONE', #13, .T. ) ;
#85 = FILL_AREA_STYLE ('',( #114 ) ) ;
#86 = VERTEX_POINT ( 'NONE', #50 ) ;
#87 = ADVANCED_FACE ( 'NONE', ( #20 ), #351, .T. ) ;
#88 = LINE ( 'NONE', #284, #17 ) ;
#89 = UNCERTAINTY_MEASURE_WITH_UNIT (LENGTH_MEASURE( 1.000000000000000082E-05 ), #323, 'distance_accuracy_value', 'NONE');
#90 = DIRECTION ( 'NONE',  ( 1.219044193948983948E-29, -3.491481338843133355E-15, -1.000000000000000000 ) ) ;
#91 = AXIS2_PLACEMENT_3D ( 'NONE', #357, #132, #108 ) ;
#92 = ORIENTED_EDGE ( 'NONE', *, *, #8, .F. ) ;
#93 = VECTOR ( 'NONE', #28, 1000.000000000000000 ) ;
#94 = ORIENTED_EDGE ( 'NONE', *, *, #223, .T. ) ;
#95 = ORIENTED_EDGE ( 'NONE', *, *, #171, .F. ) ;
#96 = VERTEX_POINT ( 'NONE', #166 ) ;
#97 = EDGE_CURVE ( 'NONE', #226, #205, #83, .T. ) ;
#98 =( LENGTH_UNIT ( ) NAMED_UNIT ( * ) SI_UNIT ( .MILLI., .METRE. ) );
#99 = ORIENTED_EDGE ( 'NONE', *, *, #174, .F. ) ;
#100 = CARTESIAN_POINT ( 'NONE',  ( -2.255140518769849223E-14, 19.99999999999995381, 59.99999999999997868 ) ) ;
#101 = EDGE_CURVE ( 'NONE', #288, #96, #154, .T. ) ;
#102 = CARTESIAN_POINT ( 'NONE',  ( 17.99999999999998224, 20.00000000000002487, 59.99999999999999289 ) ) ;
#103 = CARTESIAN_POINT ( 'NONE',  ( 27.99999999999998224, 19.99999999999984368, -2.081668171172168513E-14 ) ) ;
#104 = DIRECTION ( 'NONE',  ( 3.491481338843133355E-15, -1.000000000000000000, 3.491481338843133355E-15 ) ) ;
#105 = CARTESIAN_POINT ( 'NONE',  ( 80.00000000000001421, 10.00000000000023803, 60.00000000000001421 ) ) ;
#106 = AXIS2_PLACEMENT_3D ( 'NONE', #112, #304, #218 ) ;
#107 = VECTOR ( 'NONE', #222, 1000.000000000000000 ) ;
#108 = DIRECTION ( 'NONE',  ( -3.469446951953612217E-15, 1.000000000000000000, -3.491481338843133355E-15 ) ) ;
#109 = CARTESIAN_POINT ( 'NONE',  ( 18.00000000000004263, -1.838806884535415520E-13, 4.879260119624578400E-14 ) ) ;
#110 = EDGE_CURVE ( 'NONE', #86, #70, #163, .T. ) ;
#111 = DIRECTION ( 'NONE',  ( -3.469446951953614978E-15, 1.000000000000000000, -3.491481338843133355E-15 ) ) ;
#112 = CARTESIAN_POINT ( 'NONE',  ( -2.255140518769849223E-14, 19.99999999999995381, 59.99999999999997868 ) ) ;
#113 = DIRECTION ( 'NONE',  ( 3.491481338843133355E-15, -1.000000000000000000, 3.491481338843133355E-15 ) ) ;
#114 = FILL_AREA_STYLE_COLOUR ( '', #253 ) ;
#115 = AXIS2_PLACEMENT_3D ( 'NONE', #321, #177, #46 ) ;
#116 = EDGE_CURVE ( 'NONE', #206, #316, #326, .T. ) ;
#117 = LINE ( 'NONE', #221, #345 ) ;
#118 = FACE_OUTER_BOUND ( 'NONE', #334, .T. ) ;
#119 = ORIENTED_EDGE ( 'NONE', *, *, #130, .T. ) ;
#120 = ORIENTED_EDGE ( 'NONE', *, *, #164, .F. ) ;
#121 = ORIENTED_EDGE ( 'NONE', *, *, #240, .F. ) ;
#122 = ORIENTED_EDGE ( 'NONE', *, *, #343, .F. ) ;
#123 = ORIENTED_EDGE ( 'NONE', *, *, #211, .F. ) ;
#124 = AXIS2_PLACEMENT_3D ( 'NONE', #337, #198, #10 ) ;
#125 = ADVANCED_FACE ( 'NONE', ( #140 ), #249, .F. ) ;
#126 = VERTEX_POINT ( 'NONE', #193 ) ;
#127 = AXIS2_PLACEMENT_3D ( 'NONE', #102, #209, #81 ) ;
#128 = ORIENTED_EDGE ( 'NONE', *, *, #3, .T. ) ;
#129 = ORIENTED_EDGE ( 'NONE', *, *, #8, .T. ) ;
#130 = EDGE_CURVE ( 'NONE', #290, #205, #59, .T. ) ;
#131 = LINE ( 'NONE', #243, #64 ) ;
#132 = DIRECTION ( 'NONE',  ( 1.219044193948983948E-29, -3.491481338843133355E-15, -1.000000000000000000 ) ) ;
#133 = DIRECTION ( 'NONE',  ( -3.491481338843133355E-15, 1.000000000000000000, -3.491481338843133355E-15 ) ) ;
#134 = FACE_OUTER_BOUND ( 'NONE', #322, .T. ) ;
#135 = CARTESIAN_POINT ( 'NONE',  ( 18.00000000000001066, 10.00000000000002309, 60.00000000000002842 ) ) ;
#136 = ADVANCED_FACE ( 'NONE', ( #36 ), #58, .F. ) ;
#137 = LINE ( 'NONE', #79, #264 ) ;
#138 = VECTOR ( 'NONE', #207, 1000.000000000000000 ) ;
#139 = CARTESIAN_POINT ( 'NONE',  ( 18.00000000000001066, 9.999999999999815259, 1.387778780781445676E-14 ) ) ;
#140 = FACE_OUTER_BOUND ( 'NONE', #148, .T. ) ;
#141 = DIRECTION ( 'NONE',  ( -1.219044193948983948E-29, 3.491481338843133355E-15, 1.000000000000000000 ) ) ;
#142 = CARTESIAN_POINT ( 'NONE',  ( 17.99999999999998224, 20.00000000000002487, 59.99999999999999289 ) ) ;
#143 = PRODUCT_DEFINITION ( 'UNKNOWN', '', #203, #146 ) ;
#144 = AXIS2_PLACEMENT_3D ( 'NONE', #244, #327, #300 ) ;
#145 = MANIFOLD_SOLID_BREP ( 'Körper-Verschieben/Kopieren2', #1 ) ;
#146 = PRODUCT_DEFINITION_CONTEXT ( 'detailed design', #217, 'design' ) ;
#147 = DIRECTION ( 'NONE',  ( 3.491481338843133355E-15, -1.000000000000000000, 3.491481338843133355E-15 ) ) ;
#148 = EDGE_LOOP ( 'NONE', ( #168, #347, #99, #268 ) ) ;
#149 = ORIENTED_EDGE ( 'NONE', *, *, #171, .T. ) ;
#150 = EDGE_LOOP ( 'NONE', ( #120, #47, #18, #49, #256, #229, #220, #261, #233 ) ) ;
#151 = EDGE_CURVE ( 'NONE', #260, #194, #204, .T. ) ;
#152 = ORIENTED_EDGE ( 'NONE', *, *, #101, .T. ) ;
#153 = EDGE_LOOP ( 'NONE', ( #318, #61, #71, #344 ) ) ;
#154 = CIRCLE ( 'NONE', #48, 9.999999999999998224 ) ;
#155 = ORIENTED_EDGE ( 'NONE', *, *, #174, .T. ) ;
#156 = DIRECTION ( 'NONE',  ( -1.000000000000000000, -3.491481338843133355E-15, 0.000000000000000000 ) ) ;
#157 = CARTESIAN_POINT ( 'NONE',  ( 79.99999999999997158, 20.00000000000024158, 59.99999999999997868 ) ) ;
#158 = LINE ( 'NONE', #239, #282 ) ;
#159 = PRODUCT_RELATED_PRODUCT_CATEGORY ( 'part', '', ( #175 ) ) ;
#160 =( NAMED_UNIT ( * ) PLANE_ANGLE_UNIT ( ) SI_UNIT ( $, .RADIAN. ) );
#161 = CARTESIAN_POINT ( 'NONE',  ( 80.00000000000001421, 10.00000000000023803, 60.00000000000001421 ) ) ;
#162 = CARTESIAN_POINT ( 'NONE',  ( 18.00000000000001066, 10.00000000000002309, 60.00000000000002842 ) ) ;
#163 = LINE ( 'NONE', #30, #227 ) ;
#164 = EDGE_CURVE ( 'NONE', #194, #290, #21, .T. ) ;
#165 = DIRECTION ( 'NONE',  ( 3.491481338843133355E-15, -1.000000000000000000, 3.491481338843133355E-15 ) ) ;
#166 = CARTESIAN_POINT ( 'NONE',  ( 8.000000000000012434, 9.999999999999987566, 60.00000000000002842 ) ) ;
#167 = CARTESIAN_POINT ( 'NONE',  ( 28.00000000000000355, 10.00000000000005684, 60.00000000000002842 ) ) ;
#168 = ORIENTED_EDGE ( 'NONE', *, *, #287, .T. ) ;
#169 = VECTOR ( 'NONE', #215, 1000.000000000000000 ) ;
#170 = CARTESIAN_POINT ( 'NONE',  ( 79.99999999999997158, 20.00000000000024158, 59.99999999999997868 ) ) ;
#171 = EDGE_CURVE ( 'NONE', #173, #70, #38, .T. ) ;
#172 = CARTESIAN_POINT ( 'NONE',  ( 18.00000000000004263, 2.428612866367529932E-14, 60.00000000000005684 ) ) ;
#173 = VERTEX_POINT ( 'NONE', #214 ) ;
#174 = EDGE_CURVE ( 'NONE', #179, #126, #328, .T. ) ;
#175 = PRODUCT ( 'Rf3a', 'Rf3a', '', ( #295 ) ) ;
#176 = EDGE_LOOP ( 'NONE', ( #15, #232, #259, #155 ) ) ;
#177 = DIRECTION ( 'NONE',  ( 0.000000000000000000, 0.000000000000000000, 1.000000000000000000 ) ) ;
#178 = SHAPE_DEFINITION_REPRESENTATION ( #262, #39 ) ;
#179 = VERTEX_POINT ( 'NONE', #183 ) ;
#180 = CARTESIAN_POINT ( 'NONE',  ( 80.00000000000001421, 10.00000000000003020, 1.387778780781445676E-14 ) ) ;
#181 = AXIS2_PLACEMENT_3D ( 'NONE', #325, #77, #186 ) ;
#182 = DIRECTION ( 'NONE',  ( 1.219044193948983948E-29, -3.491481338843133355E-15, -1.000000000000000000 ) ) ;
#183 = CARTESIAN_POINT ( 'NONE',  ( -2.255140518769849223E-14, 19.99999999999974776, -2.081668171172168513E-14 ) ) ;
#184 = LINE ( 'NONE', #22, #310 ) ;
#185 = VECTOR ( 'NONE', #147, 1000.000000000000000 ) ;
#186 = DIRECTION ( 'NONE',  ( -3.469446951953614978E-15, 1.000000000000000000, -3.469446951953614978E-15 ) ) ;
#187 = ADVANCED_FACE ( 'NONE', ( #358 ), #273, .T. ) ;
#188 = AXIS2_PLACEMENT_3D ( 'NONE', #336, #9, #62 ) ;
#189 = CARTESIAN_POINT ( 'NONE',  ( 80.00000000000001421, 10.00000000000023803, 60.00000000000001421 ) ) ;
#190 = PLANE ( 'NONE',  #144 ) ;
#191 = CARTESIAN_POINT ( 'NONE',  ( 80.00000000000001421, 10.00000000000023803, 60.00000000000001421 ) ) ;
#192 = FACE_OUTER_BOUND ( 'NONE', #73, .T. ) ;
#193 = CARTESIAN_POINT ( 'NONE',  ( -2.255140518769849223E-14, 19.99999999999995381, 59.99999999999997868 ) ) ;
#194 = VERTEX_POINT ( 'NONE', #212 ) ;
#195 = FACE_OUTER_BOUND ( 'NONE', #176, .T. ) ;
#196 = APPLICATION_CONTEXT ( 'automotive_design' ) ;
#197 = ORIENTED_EDGE ( 'NONE', *, *, #270, .F. ) ;
#198 = DIRECTION ( 'NONE',  ( 1.219044193948983948E-29, -3.491481338843133355E-15, -1.000000000000000000 ) ) ;
#199 = AXIS2_PLACEMENT_3D ( 'NONE', #105, #113, #333 ) ;
#200 = CIRCLE ( 'NONE', #247, 9.999999999999998224 ) ;
#201 = ADVANCED_FACE ( 'NONE', ( #84 ), #252, .T. ) ;
#202 = ORIENTED_EDGE ( 'NONE', *, *, #223, .F. ) ;
#203 = PRODUCT_DEFINITION_FORMATION_WITH_SPECIFIED_SOURCE ( 'ANY', '', #175, .NOT_KNOWN. ) ;
#204 = CIRCLE ( 'NONE', #54, 10.00000000000000533 ) ;
#205 = VERTEX_POINT ( 'NONE', #161 ) ;
#206 = VERTEX_POINT ( 'NONE', #109 ) ;
#207 = DIRECTION ( 'NONE',  ( -1.000000000000000000, -3.491481338843133355E-15, 0.000000000000000000 ) ) ;
#208 = ORIENTED_EDGE ( 'NONE', *, *, #67, .F. ) ;
#209 = DIRECTION ( 'NONE',  ( 1.219044193948983948E-29, -3.491481338843133355E-15, -1.000000000000000000 ) ) ;
#210 = CARTESIAN_POINT ( 'NONE',  ( 80.00000000000001421, 10.00000000000003020, 1.387778780781445676E-14 ) ) ;
#211 = EDGE_CURVE ( 'NONE', #285, #96, #246, .T. ) ;
#212 = CARTESIAN_POINT ( 'NONE',  ( 27.99999999999998224, 20.00000000000005329, 59.99999999999997868 ) ) ;
#213 = AXIS2_PLACEMENT_3D ( 'NONE', #139, #330, #111 ) ;
#214 = CARTESIAN_POINT ( 'NONE',  ( 7.999999999999956479, 19.99999999999977618, -2.081668171172168513E-14 ) ) ;
#215 = DIRECTION ( 'NONE',  ( 1.000000000000000000, 3.491481338843133355E-15, 0.000000000000000000 ) ) ;
#216 = FACE_OUTER_BOUND ( 'NONE', #230, .T. ) ;
#217 = APPLICATION_CONTEXT ( 'automotive_design' ) ;
#218 = DIRECTION ( 'NONE',  ( 3.491481338843133355E-15, -1.000000000000000000, 3.491481338843133355E-15 ) ) ;
#219 = DIRECTION ( 'NONE',  ( 3.491481338843133355E-15, -1.000000000000000000, 3.491481338843133355E-15 ) ) ;
#220 = ORIENTED_EDGE ( 'NONE', *, *, #72, .F. ) ;
#221 = CARTESIAN_POINT ( 'NONE',  ( 1.908195823574487804E-14, 9.999999999999960920, 60.00000000000001421 ) ) ;
#222 = DIRECTION ( 'NONE',  ( 3.491481338843133355E-15, -1.000000000000000000, 3.491481338843133355E-15 ) ) ;
#223 = EDGE_CURVE ( 'NONE', #86, #68, #137, .T. ) ;
#224 = CYLINDRICAL_SURFACE ( 'NONE', #124, 9.999999999999998224 ) ;
#225 = CARTESIAN_POINT ( 'NONE',  ( 80.00000000000001421, 10.00000000000023803, 60.00000000000001421 ) ) ;
#226 = VERTEX_POINT ( 'NONE', #167 ) ;
#227 = VECTOR ( 'NONE', #29, 1000.000000000000000 ) ;
#228 = EDGE_CURVE ( 'NONE', #126, #260, #306, .T. ) ;
#229 = ORIENTED_EDGE ( 'NONE', *, *, #101, .F. ) ;
#230 = EDGE_LOOP ( 'NONE', ( #122, #123, #65, #43 ) ) ;
#231 = VECTOR ( 'NONE', #90, 1000.000000000000000 ) ;
#232 = ORIENTED_EDGE ( 'NONE', *, *, #240, .T. ) ;
#233 = ORIENTED_EDGE ( 'NONE', *, *, #130, .F. ) ;
#234 = LINE ( 'NONE', #180, #138 ) ;
#235 = ADVANCED_FACE ( 'NONE', ( #195 ), #190, .F. ) ;
#236 = APPLICATION_PROTOCOL_DEFINITION ( 'draft international standard', 'automotive_design', 1998, #196 ) ;
#237 = ORIENTED_EDGE ( 'NONE', *, *, #67, .T. ) ;
#238 = DIRECTION ( 'NONE',  ( 1.219044193948983948E-29, -3.491481338843133355E-15, -1.000000000000000000 ) ) ;
#239 = CARTESIAN_POINT ( 'NONE',  ( 79.99999999999997158, 20.00000000000024158, 59.99999999999997868 ) ) ;
#240 = EDGE_CURVE ( 'NONE', #260, #173, #302, .T. ) ;
#241 = DIRECTION ( 'NONE',  ( 1.219044193948983948E-29, -3.491481338843133355E-15, -1.000000000000000000 ) ) ;
#242 = CARTESIAN_POINT ( 'NONE',  ( 79.99999999999997158, 20.00000000000024158, 59.99999999999997868 ) ) ;
#243 = CARTESIAN_POINT ( 'NONE',  ( 18.00000000000004263, 2.428612866367529932E-14, 60.00000000000005684 ) ) ;
#244 = CARTESIAN_POINT ( 'NONE',  ( 79.99999999999997158, 20.00000000000024158, 59.99999999999997868 ) ) ;
#245 = DIRECTION ( 'NONE',  ( -3.469446951953612217E-15, 1.000000000000000000, -3.469446951953612217E-15 ) ) ;
#246 = LINE ( 'NONE', #329, #169 ) ;
#247 = AXIS2_PLACEMENT_3D ( 'NONE', #348, #182, #292 ) ;
#248 = DIRECTION ( 'NONE',  ( 1.219044193948983948E-29, -3.491481338843133355E-15, -1.000000000000000000 ) ) ;
#249 = PLANE ( 'NONE',  #106 ) ;
#250 = VECTOR ( 'NONE', #309, 1000.000000000000000 ) ;
#251 = ORIENTED_EDGE ( 'NONE', *, *, #116, .T. ) ;
#252 = CYLINDRICAL_SURFACE ( 'NONE', #281, 9.999999999999998224 ) ;
#253 = COLOUR_RGB ( '',0.7921568627450980005, 0.8196078431372548767, 0.9333333333333333481 ) ;
#254 = ADVANCED_FACE ( 'NONE', ( #216 ), #5, .T. ) ;
#255 = LINE ( 'NONE', #338, #231 ) ;
#256 = ORIENTED_EDGE ( 'NONE', *, *, #211, .T. ) ;
#257 = CARTESIAN_POINT ( 'NONE',  ( 27.99999999999997513, 20.00000000000005329, 59.99999999999999289 ) ) ;
#258 = ORIENTED_EDGE ( 'NONE', *, *, #317, .F. ) ;
#259 = ORIENTED_EDGE ( 'NONE', *, *, #24, .T. ) ;
#260 = VERTEX_POINT ( 'NONE', #60 ) ;
#261 = ORIENTED_EDGE ( 'NONE', *, *, #97, .T. ) ;
#262 = PRODUCT_DEFINITION_SHAPE ( 'NONE', 'NONE',  #143 ) ;
#263 = ORIENTED_EDGE ( 'NONE', *, *, #293, .T. ) ;
#264 = VECTOR ( 'NONE', #165, 1000.000000000000000 ) ;
#265 = AXIS2_PLACEMENT_3D ( 'NONE', #157, #156, #133 ) ;
#266 = ORIENTED_EDGE ( 'NONE', *, *, #41, .T. ) ;
#267 = VECTOR ( 'NONE', #56, 1000.000000000000000 ) ;
#268 = ORIENTED_EDGE ( 'NONE', *, *, #317, .T. ) ;
#269 = PLANE ( 'NONE',  #265 ) ;
#270 = EDGE_CURVE ( 'NONE', #226, #16, #82, .T. ) ;
#271 = FACE_OUTER_BOUND ( 'NONE', #150, .T. ) ;
#272 = DIRECTION ( 'NONE',  ( 1.219044193948983948E-29, -3.491481338843133355E-15, -1.000000000000000000 ) ) ;
#273 = PLANE ( 'NONE',  #199 ) ;
#274 = CARTESIAN_POINT ( 'NONE',  ( 28.00000000000000355, 10.00000000000005684, 60.00000000000002842 ) ) ;
#275 = DIRECTION ( 'NONE',  ( -3.469446951953614978E-15, 1.000000000000000000, -3.469446951953614978E-15 ) ) ;
#276 = CARTESIAN_POINT ( 'NONE',  ( 79.99999999999997158, 20.00000000000024158, 59.99999999999997868 ) ) ;
#277 = CARTESIAN_POINT ( 'NONE',  ( 79.99999999999997158, 20.00000000000024158, 59.99999999999997868 ) ) ;
#278 = DIRECTION ( 'NONE',  ( 3.469446951953614978E-15, -1.000000000000000000, 3.469446951953614978E-15 ) ) ;
#279 = SURFACE_STYLE_FILL_AREA ( #85 ) ;
#280 = ADVANCED_FACE ( 'NONE', ( #192 ), #303, .F. ) ;
#281 = AXIS2_PLACEMENT_3D ( 'NONE', #135, #248, #278 ) ;
#282 = VECTOR ( 'NONE', #241, 1000.000000000000000 ) ;
#283 = LINE ( 'NONE', #225, #250 ) ;
#284 = CARTESIAN_POINT ( 'NONE',  ( 80.00000000000001421, 10.00000000000003020, 1.387778780781445676E-14 ) ) ;
#285 = VERTEX_POINT ( 'NONE', #33 ) ;
#286 = ORIENTED_EDGE ( 'NONE', *, *, #332, .T. ) ;
#287 = EDGE_CURVE ( 'NONE', #45, #285, #117, .T. ) ;
#288 = VERTEX_POINT ( 'NONE', #172 ) ;
#289 =( NAMED_UNIT ( * ) SI_UNIT ( $, .STERADIAN. ) SOLID_ANGLE_UNIT ( ) );
#290 = VERTEX_POINT ( 'NONE', #170 ) ;
#291 = AXIS2_PLACEMENT_3D ( 'NONE', #75, #272, #104 ) ;
#292 = DIRECTION ( 'NONE',  ( -3.469446951953614978E-15, 1.000000000000000000, -3.491481338843133355E-15 ) ) ;
#293 = EDGE_CURVE ( 'NONE', #205, #68, #283, .T. ) ;
#294 = VECTOR ( 'NONE', #355, 1000.000000000000000 ) ;
#295 = PRODUCT_CONTEXT ( 'NONE', #196, 'mechanical' ) ;
#296 = PLANE ( 'NONE',  #291 ) ;
#297 = VECTOR ( 'NONE', #7, 1000.000000000000000 ) ;
#298 = CARTESIAN_POINT ( 'NONE',  ( 1.908195823574487804E-14, 9.999999999999751310, 1.387778780781445676E-14 ) ) ;
#299 = PRESENTATION_LAYER_ASSIGNMENT (  '', '', ( #6 ) ) ;
#300 = DIRECTION ( 'NONE',  ( -1.219044193948983948E-29, 3.491481338843133355E-15, 1.000000000000000000 ) ) ;
#301 = VECTOR ( 'NONE', #350, 1000.000000000000000 ) ;
#302 = LINE ( 'NONE', #356, #53 ) ;
#303 = PLANE ( 'NONE',  #34 ) ;
#304 = DIRECTION ( 'NONE',  ( 1.000000000000000000, 3.491481338843133355E-15, 0.000000000000000000 ) ) ;
#305 = EDGE_CURVE ( 'NONE', #68, #16, #88, .T. ) ;
#306 = LINE ( 'NONE', #27, #314 ) ;
#307 = EDGE_LOOP ( 'NONE', ( #340, #129, #251, #128, #258, #313, #149, #349, #94 ) ) ;
#308 = ORIENTED_EDGE ( 'NONE', *, *, #110, .T. ) ;
#309 = DIRECTION ( 'NONE',  ( 1.219044193948983948E-29, -3.491481338843133355E-15, -1.000000000000000000 ) ) ;
#310 = VECTOR ( 'NONE', #324, 1000.000000000000000 ) ;
#311 =( GEOMETRIC_REPRESENTATION_CONTEXT ( 3 ) GLOBAL_UNCERTAINTY_ASSIGNED_CONTEXT ( ( #89 ) ) GLOBAL_UNIT_ASSIGNED_CONTEXT ( ( #323, #160, #23 ) ) REPRESENTATION_CONTEXT ( 'NONE', 'WORKASPACE' ) );
#312 = DIRECTION ( 'NONE',  ( -1.000000000000000000, -3.491481338843133355E-15, 0.000000000000000000 ) ) ;
#313 = ORIENTED_EDGE ( 'NONE', *, *, #24, .F. ) ;
#314 = VECTOR ( 'NONE', #2, 1000.000000000000000 ) ;
#315 = ORIENTED_EDGE ( 'NONE', *, *, #332, .F. ) ;
#316 = VERTEX_POINT ( 'NONE', #66 ) ;
#317 = EDGE_CURVE ( 'NONE', #179, #45, #12, .T. ) ;
#318 = ORIENTED_EDGE ( 'NONE', *, *, #270, .T. ) ;
#319 =( NAMED_UNIT ( * ) PLANE_ANGLE_UNIT ( ) SI_UNIT ( $, .RADIAN. ) );
#320 = EDGE_LOOP ( 'NONE', ( #95, #121, #44, #286 ) ) ;
#321 = CARTESIAN_POINT ( 'NONE',  ( 0.000000000000000000, 0.000000000000000000, 0.000000000000000000 ) ) ;
#322 = EDGE_LOOP ( 'NONE', ( #263, #202, #208, #119 ) ) ;
#323 =( LENGTH_UNIT ( ) NAMED_UNIT ( * ) SI_UNIT ( .MILLI., .METRE. ) );
#324 = DIRECTION ( 'NONE',  ( -1.000000000000000000, -3.491481338843133355E-15, 0.000000000000000000 ) ) ;
#325 = CARTESIAN_POINT ( 'NONE',  ( 18.00000000000001066, 10.00000000000002309, 60.00000000000002842 ) ) ;
#326 = CIRCLE ( 'NONE', #213, 9.999999999999998224 ) ;
#327 = DIRECTION ( 'NONE',  ( 3.491481338843133355E-15, -1.000000000000000000, 3.491481338843133355E-15 ) ) ;
#328 = LINE ( 'NONE', #100, #301 ) ;
#329 = CARTESIAN_POINT ( 'NONE',  ( 80.00000000000001421, 10.00000000000023803, 60.00000000000001421 ) ) ;
#330 = DIRECTION ( 'NONE',  ( 1.219044193948983948E-29, -3.491481338843133355E-15, -1.000000000000000000 ) ) ;
#331 = DIRECTION ( 'NONE',  ( -1.219044193948983948E-29, 3.491481338843133355E-15, 1.000000000000000000 ) ) ;
#332 = EDGE_CURVE ( 'NONE', #194, #70, #37, .T. ) ;
#333 = DIRECTION ( 'NONE',  ( -1.219044193948983948E-29, 3.491481338843133355E-15, 1.000000000000000000 ) ) ;
#334 = EDGE_LOOP ( 'NONE', ( #42, #266, #92, #197 ) ) ;
#335 = DIRECTION ( 'NONE',  ( -1.219044193948983948E-29, 3.491481338843133355E-15, 1.000000000000000000 ) ) ;
#336 = CARTESIAN_POINT ( 'NONE',  ( 79.99999999999997158, 20.00000000000002487, -2.081668171172168513E-14 ) ) ;
#337 = CARTESIAN_POINT ( 'NONE',  ( 18.00000000000001066, 10.00000000000002309, 60.00000000000002842 ) ) ;
#338 = CARTESIAN_POINT ( 'NONE',  ( 8.000000000000012434, 9.999999999999987566, 60.00000000000002842 ) ) ;
#339 = CIRCLE ( 'NONE', #181, 9.999999999999998224 ) ;
#340 = ORIENTED_EDGE ( 'NONE', *, *, #305, .T. ) ;
#341 = ORIENTED_EDGE ( 'NONE', *, *, #164, .T. ) ;
#342 = ORIENTED_EDGE ( 'NONE', *, *, #343, .T. ) ;
#343 = EDGE_CURVE ( 'NONE', #96, #316, #255, .T. ) ;
#344 = ORIENTED_EDGE ( 'NONE', *, *, #97, .F. ) ;
#345 = VECTOR ( 'NONE', #335, 1000.000000000000000 ) ;
#346 = APPLICATION_PROTOCOL_DEFINITION ( 'draft international standard', 'automotive_design', 1998, #217 ) ;
#347 = ORIENTED_EDGE ( 'NONE', *, *, #76, .F. ) ;
#348 = CARTESIAN_POINT ( 'NONE',  ( 18.00000000000001066, 9.999999999999815259, 1.387778780781445676E-14 ) ) ;
#349 = ORIENTED_EDGE ( 'NONE', *, *, #110, .F. ) ;
#350 = DIRECTION ( 'NONE',  ( -1.219044193948983948E-29, 3.491481338843133355E-15, 1.000000000000000000 ) ) ;
#351 = CYLINDRICAL_SURFACE ( 'NONE', #127, 10.00000000000000533 ) ;
#352 = CARTESIAN_POINT ( 'NONE',  ( 28.00000000000000355, 9.999999999999841904, 1.387778780781445676E-14 ) ) ;
#353 = DIRECTION ( 'NONE',  ( 3.491481338843133355E-15, -1.000000000000000000, 3.491481338843133355E-15 ) ) ;
#354 = ADVANCED_FACE ( 'NONE', ( #118 ), #224, .T. ) ;
#355 = DIRECTION ( 'NONE',  ( 1.000000000000000000, 3.491481338843133355E-15, 0.000000000000000000 ) ) ;
#356 = CARTESIAN_POINT ( 'NONE',  ( 7.999999999999956479, 19.99999999999998934, 59.99999999999999289 ) ) ;
#357 = CARTESIAN_POINT ( 'NONE',  ( 17.99999999999998224, 19.99999999999980815, -2.081668171172168513E-14 ) ) ;
#358 = FACE_OUTER_BOUND ( 'NONE', #153, .T. ) ;
ENDSEC;
END-ISO-10303-21;
