ISO-10303-21;
HEADER;
FILE_DESCRIPTION (( 'STEP AP214' ),
    '1' );
FILE_NAME ('Rf4i.STEP',
    '2025-09-08T12:21:40',
    ( '' ),
    ( '' ),
    'SwSTEP 2.0',
    'SolidWorks 2024',
    '' );
FILE_SCHEMA (( 'AUTOMOTIVE_DESIGN' ));
ENDSEC;

DATA;
#1 = LINE ( 'NONE', #189, #443 ) ;
#2 = EDGE_CURVE ( 'NONE', #137, #334, #324, .T. ) ;
#3 = ORIENTED_EDGE ( 'NONE', *, *, #557, .F. ) ;
#4 = VECTOR ( 'NONE', #659, 1000.000000000000000 ) ;
#5 = CARTESIAN_POINT ( 'NONE',  ( 57.50000000000000000, 14.50000000000000000, 5.000000000000000000 ) ) ;
#6 = EDGE_LOOP ( 'NONE', ( #428, #312, #736, #494, #563, #350 ) ) ;
#7 = CARTESIAN_POINT ( 'NONE',  ( 0.000000000000000000, 27.50000000000000000, 5.000000000000000000 ) ) ;
#8 = ADVANCED_FACE ( 'NONE', ( #138 ), #554, .F. ) ;
#9 = ORIENTED_EDGE ( 'NONE', *, *, #273, .T. ) ;
#10 = EDGE_CURVE ( 'NONE', #225, #513, #200, .T. ) ;
#11 = FACE_OUTER_BOUND ( 'NONE', #132, .T. ) ;
#12 = ORIENTED_EDGE ( 'NONE', *, *, #578, .F. ) ;
#13 = AXIS2_PLACEMENT_3D ( 'NONE', #622, #272, #23 ) ;
#14 = AXIS2_PLACEMENT_3D ( 'NONE', #416, #649, #115 ) ;
#15 = VECTOR ( 'NONE', #385, 1000.000000000000000 ) ;
#16 = LINE ( 'NONE', #387, #490 ) ;
#17 = PLANE ( 'NONE',  #240 ) ;
#18 = ADVANCED_FACE ( 'NONE', ( #386 ), #153, .F. ) ;
#19 = ORIENTED_EDGE ( 'NONE', *, *, #187, .T. ) ;
#20 = VERTEX_POINT ( 'NONE', #558 ) ;
#21 = CARTESIAN_POINT ( 'NONE',  ( 60.00000000000000000, 27.50000000000000000, 0.000000000000000000 ) ) ;
#22 = ADVANCED_FACE ( 'NONE', ( #31 ), #277, .F. ) ;
#23 = DIRECTION ( 'NONE',  ( 0.000000000000000000, -0.000000000000000000, -1.000000000000000000 ) ) ;
#24 = ORIENTED_EDGE ( 'NONE', *, *, #47, .T. ) ;
#25 = DIRECTION ( 'NONE',  ( 0.000000000000000000, -1.000000000000000000, 0.000000000000000000 ) ) ;
#26 = CARTESIAN_POINT ( 'NONE',  ( 60.00000000000000000, 0.000000000000000000, 10.00000000000000000 ) ) ;
#27 = LINE ( 'NONE', #627, #309 ) ;
#28 = AXIS2_PLACEMENT_3D ( 'NONE', #141, #747, #276 ) ;
#29 = VECTOR ( 'NONE', #698, 1000.000000000000000 ) ;
#30 = DIRECTION ( 'NONE',  ( -1.000000000000000000, 0.000000000000000000, -0.000000000000000000 ) ) ;
#31 = FACE_OUTER_BOUND ( 'NONE', #570, .T. ) ;
#32 = VERTEX_POINT ( 'NONE', #450 ) ;
#33 = CARTESIAN_POINT ( 'NONE',  ( 57.50000000000000000, 52.50000000000000000, 10.00000000000000000 ) ) ;
#34 = PLANE ( 'NONE',  #196 ) ;
#35 = ORIENTED_EDGE ( 'NONE', *, *, #343, .F. ) ;
#36 = EDGE_LOOP ( 'NONE', ( #504, #315, #448, #176 ) ) ;
#37 = CARTESIAN_POINT ( 'NONE',  ( 2.500000000000009326, 2.500000000000000000, 10.00000000000000000 ) ) ;
#38 = EDGE_CURVE ( 'NONE', #384, #365, #498, .T. ) ;
#39 = DIRECTION ( 'NONE',  ( -1.000000000000000000, -0.000000000000000000, -0.000000000000000000 ) ) ;
#40 = DIRECTION ( 'NONE',  ( -1.000000000000000000, 0.000000000000000000, -0.000000000000000000 ) ) ;
#41 = VERTEX_POINT ( 'NONE', #689 ) ;
#42 = DIRECTION ( 'NONE',  ( 0.000000000000000000, 0.000000000000000000, -1.000000000000000000 ) ) ;
#43 = CARTESIAN_POINT ( 'NONE',  ( 67.53374626969666394, 14.50000000000000000, 0.000000000000000000 ) ) ;
#44 = VECTOR ( 'NONE', #221, 1000.000000000000000 ) ;
#45 = VECTOR ( 'NONE', #230, 1000.000000000000000 ) ;
#46 = DIRECTION ( 'NONE',  ( 0.000000000000000000, -1.000000000000000000, 0.000000000000000000 ) ) ;
#47 = EDGE_CURVE ( 'NONE', #20, #384, #397, .T. ) ;
#48 = ORIENTED_EDGE ( 'NONE', *, *, #2, .F. ) ;
#49 = LINE ( 'NONE', #177, #658 ) ;
#50 =( LENGTH_UNIT ( ) NAMED_UNIT ( * ) SI_UNIT ( .MILLI., .METRE. ) );
#51 = PLANE ( 'NONE',  #585 ) ;
#52 = ORIENTED_EDGE ( 'NONE', *, *, #299, .T. ) ;
#53 = LINE ( 'NONE', #37, #29 ) ;
#54 = CARTESIAN_POINT ( 'NONE',  ( 53.00000000000000000, 77.50000000000000000, 0.000000000000000000 ) ) ;
#55 = EDGE_LOOP ( 'NONE', ( #435, #306, #697, #618 ) ) ;
#56 = DIRECTION ( 'NONE',  ( 0.000000000000000000, 0.000000000000000000, -1.000000000000000000 ) ) ;
#57 = VECTOR ( 'NONE', #231, 1000.000000000000000 ) ;
#58 = VECTOR ( 'NONE', #550, 1000.000000000000000 ) ;
#59 = VERTEX_POINT ( 'NONE', #96 ) ;
#60 = FACE_OUTER_BOUND ( 'NONE', #190, .T. ) ;
#61 = EDGE_CURVE ( 'NONE', #41, #310, #464, .T. ) ;
#62 = CARTESIAN_POINT ( 'NONE',  ( 60.00000000000000000, 0.000000000000000000, 10.00000000000000000 ) ) ;
#63 = ORIENTED_EDGE ( 'NONE', *, *, #109, .F. ) ;
#64 = LINE ( 'NONE', #537, #79 ) ;
#65 = EDGE_CURVE ( 'NONE', #706, #204, #645, .T. ) ;
#66 = EDGE_LOOP ( 'NONE', ( #683, #676, #777, #162, #631, #116, #145, #237, #542, #613, #753, #770 ) ) ;
#67 = ADVANCED_FACE ( 'NONE', ( #584 ), #760, .F. ) ;
#68 = ORIENTED_EDGE ( 'NONE', *, *, #629, .F. ) ;
#69 = COLOUR_RGB ( '',0.7921568627450980005, 0.8196078431372548767, 0.9333333333333333481 ) ;
#70 = DIRECTION ( 'NONE',  ( 1.000000000000000000, 0.000000000000000000, -0.000000000000000000 ) ) ;
#71 = VECTOR ( 'NONE', #528, 1000.000000000000000 ) ;
#72 = VERTEX_POINT ( 'NONE', #453 ) ;
#73 = CARTESIAN_POINT ( 'NONE',  ( 60.00000000000000000, 27.50000000000000000, 10.00000000000000000 ) ) ;
#74 = ORIENTED_EDGE ( 'NONE', *, *, #405, .F. ) ;
#75 = EDGE_CURVE ( 'NONE', #248, #346, #593, .T. ) ;
#76 = CARTESIAN_POINT ( 'NONE',  ( 53.00000000000000000, 0.000000000000000000, 5.000000000000000000 ) ) ;
#77 = VERTEX_POINT ( 'NONE', #178 ) ;
#78 = VECTOR ( 'NONE', #330, 1000.000000000000000 ) ;
#79 = VECTOR ( 'NONE', #546, 1000.000000000000000 ) ;
#80 = DIRECTION ( 'NONE',  ( 0.000000000000000000, -0.000000000000000000, -1.000000000000000000 ) ) ;
#81 = EDGE_CURVE ( 'NONE', #422, #77, #403, .T. ) ;
#82 = CARTESIAN_POINT ( 'NONE',  ( 0.000000000000000000, 0.000000000000000000, 0.000000000000000000 ) ) ;
#83 = VERTEX_POINT ( 'NONE', #641 ) ;
#84 = DIRECTION ( 'NONE',  ( -0.000000000000000000, -0.000000000000000000, -1.000000000000000000 ) ) ;
#85 = CARTESIAN_POINT ( 'NONE',  ( 60.00000000000000000, 0.000000000000000000, 10.00000000000000000 ) ) ;
#86 = EDGE_LOOP ( 'NONE', ( #653, #129, #721, #293 ) ) ;
#87 = VERTEX_POINT ( 'NONE', #228 ) ;
#88 = CARTESIAN_POINT ( 'NONE',  ( 47.00000000000000000, 27.50000000000000000, 5.000000000000000000 ) ) ;
#89 = LINE ( 'NONE', #85, #108 ) ;
#90 = DIRECTION ( 'NONE',  ( 0.000000000000000000, 0.000000000000000000, 1.000000000000000000 ) ) ;
#91 = ADVANCED_FACE ( 'NONE', ( #695 ), #460, .F. ) ;
#92 = CARTESIAN_POINT ( 'NONE',  ( 60.00000000000000000, 65.50000000000000000, 10.00000000000000000 ) ) ;
#93 = VECTOR ( 'NONE', #476, 1000.000000000000000 ) ;
#94 =( NAMED_UNIT ( * ) SI_UNIT ( $, .STERADIAN. ) SOLID_ANGLE_UNIT ( ) );
#95 = APPLICATION_PROTOCOL_DEFINITION ( 'draft international standard', 'automotive_design', 1998, #605 ) ;
#96 = CARTESIAN_POINT ( 'NONE',  ( 53.00000000000000000, 2.500000000000000000, 0.000000000000000000 ) ) ;
#97 = ORIENTED_EDGE ( 'NONE', *, *, #10, .T. ) ;
#98 = EDGE_CURVE ( 'NONE', #204, #752, #236, .T. ) ;
#99 = PLANE ( 'NONE',  #336 ) ;
#100 = CARTESIAN_POINT ( 'NONE',  ( 47.00000000000000000, 27.50000000000000000, 10.00000000000000000 ) ) ;
#101 = CARTESIAN_POINT ( 'NONE',  ( 0.000000000000000000, 0.000000000000000000, 10.00000000000000000 ) ) ;
#102 = DIRECTION ( 'NONE',  ( 1.000000000000000000, 0.000000000000000000, 0.000000000000000000 ) ) ;
#103 = ADVANCED_FACE ( 'NONE', ( #522 ), #289, .F. ) ;
#104 = CARTESIAN_POINT ( 'NONE',  ( 47.00000000000000000, 27.50000000000000000, 0.000000000000000000 ) ) ;
#105 = ORIENTED_EDGE ( 'NONE', *, *, #109, .T. ) ;
#106 = CARTESIAN_POINT ( 'NONE',  ( 0.000000000000000000, 0.000000000000000000, 0.000000000000000000 ) ) ;
#107 = SURFACE_STYLE_USAGE ( .BOTH. , #704 ) ;
#108 = VECTOR ( 'NONE', #392, 1000.000000000000000 ) ;
#109 = EDGE_CURVE ( 'NONE', #149, #334, #709, .T. ) ;
#110 = AXIS2_PLACEMENT_3D ( 'NONE', #331, #222, #349 ) ;
#111 = DIRECTION ( 'NONE',  ( 0.000000000000000000, 1.000000000000000000, 0.000000000000000000 ) ) ;
#112 = VERTEX_POINT ( 'NONE', #104 ) ;
#113 = CARTESIAN_POINT ( 'NONE',  ( 0.000000000000000000, 0.000000000000000000, 10.00000000000000000 ) ) ;
#114 = PRODUCT_RELATED_PRODUCT_CATEGORY ( 'part', '', ( #577 ) ) ;
#115 = DIRECTION ( 'NONE',  ( 0.000000000000000000, 0.000000000000000000, 1.000000000000000000 ) ) ;
#116 = ORIENTED_EDGE ( 'NONE', *, *, #466, .F. ) ;
#117 = CARTESIAN_POINT ( 'NONE',  ( 57.50000000000000000, 2.500000000000000000, 5.000000000000000000 ) ) ;
#118 = CARTESIAN_POINT ( 'NONE',  ( 60.00000000000000000, 2.500000000000000000, 10.00000000000000000 ) ) ;
#119 = ORIENTED_EDGE ( 'NONE', *, *, #538, .T. ) ;
#120 = EDGE_CURVE ( 'NONE', #663, #706, #242, .T. ) ;
#121 = DIRECTION ( 'NONE',  ( 0.000000000000000000, 0.000000000000000000, 1.000000000000000000 ) ) ;
#122 = VECTOR ( 'NONE', #671, 1000.000000000000000 ) ;
#123 = LINE ( 'NONE', #535, #261 ) ;
#124 = UNCERTAINTY_MEASURE_WITH_UNIT (LENGTH_MEASURE( 1.000000000000000082E-05 ), #50, 'distance_accuracy_value', 'NONE');
#125 = ORIENTED_EDGE ( 'NONE', *, *, #399, .F. ) ;
#126 = LINE ( 'NONE', #73, #197 ) ;
#127 = ADVANCED_FACE ( 'NONE', ( #175 ), #596, .F. ) ;
#128 = DIRECTION ( 'NONE',  ( 1.000000000000000000, 0.000000000000000000, 0.000000000000000000 ) ) ;
#129 = ORIENTED_EDGE ( 'NONE', *, *, #625, .F. ) ;
#130 = DIRECTION ( 'NONE',  ( -0.000000000000000000, -0.000000000000000000, 1.000000000000000000 ) ) ;
#131 = EDGE_CURVE ( 'NONE', #379, #559, #474, .T. ) ;
#132 = EDGE_LOOP ( 'NONE', ( #655, #12, #48, #134, #183, #660, #775, #670 ) ) ;
#133 = LINE ( 'NONE', #252, #263 ) ;
#134 = ORIENTED_EDGE ( 'NONE', *, *, #187, .F. ) ;
#135 = DIRECTION ( 'NONE',  ( 0.000000000000000000, -1.000000000000000000, 0.000000000000000000 ) ) ;
#136 = AXIS2_PLACEMENT_3D ( 'NONE', #181, #514, #56 ) ;
#137 = VERTEX_POINT ( 'NONE', #171 ) ;
#138 = FACE_OUTER_BOUND ( 'NONE', #55, .T. ) ;
#139 = ADVANCED_FACE ( 'NONE', ( #590 ), #51, .F. ) ;
#140 = LINE ( 'NONE', #264, #15 ) ;
#141 = CARTESIAN_POINT ( 'NONE',  ( 2.500000000000000000, 77.50000000000000000, 5.000000000000000000 ) ) ;
#142 = CARTESIAN_POINT ( 'NONE',  ( 57.50000000000000000, 52.50000000000000000, 5.000000000000000000 ) ) ;
#143 = CARTESIAN_POINT ( 'NONE',  ( 65.00000000000000000, 52.50000000000000000, 0.000000000000000000 ) ) ;
#144 = CARTESIAN_POINT ( 'NONE',  ( 53.00000000000000000, 77.50000000000000000, 0.000000000000000000 ) ) ;
#145 = ORIENTED_EDGE ( 'NONE', *, *, #765, .T. ) ;
#146 = CARTESIAN_POINT ( 'NONE',  ( 0.000000000000000000, 52.50000000000000000, 5.000000000000000000 ) ) ;
#147 = LINE ( 'NONE', #548, #335 ) ;
#148 = ADVANCED_FACE ( 'NONE', ( #773 ), #468, .F. ) ;
#149 = VERTEX_POINT ( 'NONE', #756 ) ;
#150 = ORIENTED_EDGE ( 'NONE', *, *, #673, .T. ) ;
#151 = DIRECTION ( 'NONE',  ( -1.000000000000000000, 0.000000000000000000, 0.000000000000000000 ) ) ;
#152 = LINE ( 'NONE', #447, #122 ) ;
#153 = PLANE ( 'NONE',  #13 ) ;
#154 = ORIENTED_EDGE ( 'NONE', *, *, #303, .F. ) ;
#155 = VECTOR ( 'NONE', #672, 1000.000000000000000 ) ;
#156 = CARTESIAN_POINT ( 'NONE',  ( 0.000000000000000000, 80.00000000000000000, 0.000000000000000000 ) ) ;
#157 = VECTOR ( 'NONE', #758, 1000.000000000000000 ) ;
#158 = VECTOR ( 'NONE', #723, 1000.000000000000000 ) ;
#159 = FACE_OUTER_BOUND ( 'NONE', #536, .T. ) ;
#160 = DIRECTION ( 'NONE',  ( 0.000000000000000000, 1.000000000000000000, 0.000000000000000000 ) ) ;
#161 = EDGE_CURVE ( 'NONE', #574, #319, #223, .T. ) ;
#162 = ORIENTED_EDGE ( 'NONE', *, *, #779, .F. ) ;
#163 = EDGE_CURVE ( 'NONE', #346, #149, #487, .T. ) ;
#164 = DIRECTION ( 'NONE',  ( -0.000000000000000000, 0.000000000000000000, 1.000000000000000000 ) ) ;
#165 = LINE ( 'NONE', #459, #489 ) ;
#166 = DIRECTION ( 'NONE',  ( 0.000000000000000000, -0.000000000000000000, 1.000000000000000000 ) ) ;
#167 = ORIENTED_EDGE ( 'NONE', *, *, #678, .T. ) ;
#168 = PLANE ( 'NONE',  #211 ) ;
#169 = EDGE_CURVE ( 'NONE', #59, #204, #123, .T. ) ;
#170 = CARTESIAN_POINT ( 'NONE',  ( 2.500000000000000000, 77.50000000000000000, 5.000000000000000000 ) ) ;
#171 = CARTESIAN_POINT ( 'NONE',  ( 2.500000000000000000, 77.50000000000000000, 10.00000000000000000 ) ) ;
#172 = ORIENTED_EDGE ( 'NONE', *, *, #120, .T. ) ;
#173 = DIRECTION ( 'NONE',  ( -0.000000000000000000, -0.000000000000000000, 1.000000000000000000 ) ) ;
#174 = VECTOR ( 'NONE', #396, 1000.000000000000000 ) ;
#175 = FACE_OUTER_BOUND ( 'NONE', #6, .T. ) ;
#176 = ORIENTED_EDGE ( 'NONE', *, *, #673, .F. ) ;
#177 = CARTESIAN_POINT ( 'NONE',  ( 53.00000000000000000, 2.500000000000000000, 0.000000000000000000 ) ) ;
#178 = CARTESIAN_POINT ( 'NONE',  ( 53.00000000000000000, 2.500000000000000000, 5.000000000000000000 ) ) ;
#179 = EDGE_CURVE ( 'NONE', #483, #417, #1, .T. ) ;
#180 = ORIENTED_EDGE ( 'NONE', *, *, #169, .F. ) ;
#181 = CARTESIAN_POINT ( 'NONE',  ( 57.50000000000000000, 2.500000000000000000, 5.000000000000000000 ) ) ;
#182 = EDGE_CURVE ( 'NONE', #365, #371, #388, .T. ) ;
#183 = ORIENTED_EDGE ( 'NONE', *, *, #161, .T. ) ;
#184 = CARTESIAN_POINT ( 'NONE',  ( 57.50000000000000000, 2.500000000000000000, 5.000000000000000000 ) ) ;
#185 =( GEOMETRIC_REPRESENTATION_CONTEXT ( 3 ) GLOBAL_UNCERTAINTY_ASSIGNED_CONTEXT ( ( #124 ) ) GLOBAL_UNIT_ASSIGNED_CONTEXT ( ( #50, #467, #94 ) ) REPRESENTATION_CONTEXT ( 'NONE', 'WORKASPACE' ) );
#186 = ORIENTED_EDGE ( 'NONE', *, *, #423, .T. ) ;
#187 = EDGE_CURVE ( 'NONE', #574, #137, #147, .T. ) ;
#188 = LINE ( 'NONE', #7, #587 ) ;
#189 = CARTESIAN_POINT ( 'NONE',  ( 60.00000000000000000, 0.000000000000000000, 0.000000000000000000 ) ) ;
#190 = EDGE_LOOP ( 'NONE', ( #9, #154, #262, #150 ) ) ;
#191 = DIRECTION ( 'NONE',  ( 0.000000000000000000, 0.000000000000000000, 1.000000000000000000 ) ) ;
#192 = EDGE_CURVE ( 'NONE', #559, #663, #271, .T. ) ;
#193 = ORIENTED_EDGE ( 'NONE', *, *, #323, .T. ) ;
#194 = CARTESIAN_POINT ( 'NONE',  ( 60.00000000000000000, 80.00000000000000000, 0.000000000000000000 ) ) ;
#195 = ORIENTED_EDGE ( 'NONE', *, *, #224, .T. ) ;
#196 = AXIS2_PLACEMENT_3D ( 'NONE', #43, #515, #708 ) ;
#197 = VECTOR ( 'NONE', #121, 1000.000000000000000 ) ;
#198 = CARTESIAN_POINT ( 'NONE',  ( 0.000000000000000000, 65.50000000000000000, 5.000000000000000000 ) ) ;
#199 = EDGE_CURVE ( 'NONE', #663, #752, #89, .T. ) ;
#200 = LINE ( 'NONE', #142, #155 ) ;
#201 = CARTESIAN_POINT ( 'NONE',  ( 67.53374626969666394, 14.50000000000000000, 0.000000000000000000 ) ) ;
#202 = EDGE_LOOP ( 'NONE', ( #597, #167, #737, #257 ) ) ;
#203 = EDGE_CURVE ( 'NONE', #32, #483, #383, .T. ) ;
#204 = VERTEX_POINT ( 'NONE', #501 ) ;
#205 = CARTESIAN_POINT ( 'NONE',  ( 60.00000000000000000, 52.50000000000000000, 10.00000000000000000 ) ) ;
#206 = PLANE ( 'NONE',  #28 ) ;
#207 = PLANE ( 'NONE',  #473 ) ;
#208 = ORIENTED_EDGE ( 'NONE', *, *, #493, .F. ) ;
#209 = ORIENTED_EDGE ( 'NONE', *, *, #169, .T. ) ;
#210 = VECTOR ( 'NONE', #39, 1000.000000000000000 ) ;
#211 = AXIS2_PLACEMENT_3D ( 'NONE', #113, #592, #643 ) ;
#212 = LINE ( 'NONE', #441, #274 ) ;
#213 = ADVANCED_FACE ( 'NONE', ( #259 ), #206, .F. ) ;
#214 = CARTESIAN_POINT ( 'NONE',  ( 60.00000000000000000, 14.50000000000000000, 10.00000000000000000 ) ) ;
#215 = ORIENTED_EDGE ( 'NONE', *, *, #423, .F. ) ;
#216 = ORIENTED_EDGE ( 'NONE', *, *, #203, .F. ) ;
#217 = FACE_OUTER_BOUND ( 'NONE', #602, .T. ) ;
#218 = DIRECTION ( 'NONE',  ( 0.000000000000000000, -0.000000000000000000, 1.000000000000000000 ) ) ;
#219 = ORIENTED_EDGE ( 'NONE', *, *, #615, .T. ) ;
#220 = DIRECTION ( 'NONE',  ( -1.000000000000000000, 0.000000000000000000, 0.000000000000000000 ) ) ;
#221 = DIRECTION ( 'NONE',  ( -1.000000000000000000, 0.000000000000000000, 0.000000000000000000 ) ) ;
#222 = DIRECTION ( 'NONE',  ( 0.000000000000000000, 0.000000000000000000, 1.000000000000000000 ) ) ;
#223 = LINE ( 'NONE', #62, #4 ) ;
#224 = EDGE_CURVE ( 'NONE', #248, #365, #434, .T. ) ;
#225 = VERTEX_POINT ( 'NONE', #553 ) ;
#226 = FACE_OUTER_BOUND ( 'NONE', #509, .T. ) ;
#227 = LINE ( 'NONE', #754, #44 ) ;
#228 = CARTESIAN_POINT ( 'NONE',  ( 57.50000000000000000, 27.50000000000000000, 5.000000000000000000 ) ) ;
#229 = ORIENTED_EDGE ( 'NONE', *, *, #696, .F. ) ;
#230 = DIRECTION ( 'NONE',  ( 1.000000000000000000, 0.000000000000000000, 0.000000000000000000 ) ) ;
#231 = DIRECTION ( 'NONE',  ( -1.000000000000000000, -0.000000000000000000, -0.000000000000000000 ) ) ;
#232 = DIRECTION ( 'NONE',  ( -0.000000000000000000, -1.000000000000000000, -0.000000000000000000 ) ) ;
#233 = ORIENTED_EDGE ( 'NONE', *, *, #728, .T. ) ;
#234 = CARTESIAN_POINT ( 'NONE',  ( 0.000000000000000000, 0.000000000000000000, 10.00000000000000000 ) ) ;
#235 = LINE ( 'NONE', #100, #174 ) ;
#236 = LINE ( 'NONE', #118, #472 ) ;
#237 = ORIENTED_EDGE ( 'NONE', *, *, #182, .F. ) ;
#238 = DIRECTION ( 'NONE',  ( 1.000000000000000000, -0.000000000000000000, 0.000000000000000000 ) ) ;
#239 = EDGE_CURVE ( 'NONE', #149, #77, #621, .T. ) ;
#240 = AXIS2_PLACEMENT_3D ( 'NONE', #628, #507, #326 ) ;
#241 = VECTOR ( 'NONE', #471, 1000.000000000000000 ) ;
#242 = LINE ( 'NONE', #580, #352 ) ;
#243 = ORIENTED_EDGE ( 'NONE', *, *, #294, .F. ) ;
#244 = CARTESIAN_POINT ( 'NONE',  ( 60.00000000000000000, 0.000000000000000000, 0.000000000000000000 ) ) ;
#245 = ORIENTED_EDGE ( 'NONE', *, *, #120, .F. ) ;
#246 = CARTESIAN_POINT ( 'NONE',  ( 0.000000000000000000, 0.000000000000000000, 5.000000000000000000 ) ) ;
#247 = ADVANCED_FACE ( 'NONE', ( #11 ), #17, .F. ) ;
#248 = VERTEX_POINT ( 'NONE', #733 ) ;
#249 = LINE ( 'NONE', #184, #158 ) ;
#250 = ORIENTED_EDGE ( 'NONE', *, *, #410, .T. ) ;
#251 = EDGE_CURVE ( 'NONE', #346, #137, #152, .T. ) ;
#252 = CARTESIAN_POINT ( 'NONE',  ( 60.00000000000000000, 0.000000000000000000, 0.000000000000000000 ) ) ;
#253 = DIRECTION ( 'NONE',  ( 0.000000000000000000, 1.000000000000000000, 0.000000000000000000 ) ) ;
#254 = ORIENTED_EDGE ( 'NONE', *, *, #299, .F. ) ;
#255 =( LENGTH_UNIT ( ) NAMED_UNIT ( * ) SI_UNIT ( .MILLI., .METRE. ) );
#256 = PRODUCT_DEFINITION ( 'UNKNOWN', '', #287, #601 ) ;
#257 = ORIENTED_EDGE ( 'NONE', *, *, #608, .T. ) ;
#258 = ADVANCED_FACE ( 'NONE', ( #565 ), #556, .T. ) ;
#259 = FACE_OUTER_BOUND ( 'NONE', #360, .T. ) ;
#260 = VECTOR ( 'NONE', #682, 1000.000000000000000 ) ;
#261 = VECTOR ( 'NONE', #128, 1000.000000000000000 ) ;
#262 = ORIENTED_EDGE ( 'NONE', *, *, #359, .F. ) ;
#263 = VECTOR ( 'NONE', #302, 1000.000000000000000 ) ;
#264 = CARTESIAN_POINT ( 'NONE',  ( 53.00000000000000000, 77.50000000000000000, 0.000000000000000000 ) ) ;
#265 = ADVANCED_FACE ( 'NONE', ( #217 ), #451, .F. ) ;
#266 = DIRECTION ( 'NONE',  ( 1.214306433183764966E-16, -1.000000000000000000, 0.000000000000000000 ) ) ;
#267 = LINE ( 'NONE', #143, #425 ) ;
#268 = ORIENTED_EDGE ( 'NONE', *, *, #534, .T. ) ;
#269 = ADVANCED_FACE ( 'NONE', ( #159 ), #34, .F. ) ;
#270 = LINE ( 'NONE', #146, #370 ) ;
#271 = LINE ( 'NONE', #739, #377 ) ;
#272 = DIRECTION ( 'NONE',  ( 0.000000000000000000, -1.000000000000000000, 0.000000000000000000 ) ) ;
#273 = EDGE_CURVE ( 'NONE', #742, #374, #573, .T. ) ;
#274 = VECTOR ( 'NONE', #325, 1000.000000000000000 ) ;
#275 = CARTESIAN_POINT ( 'NONE',  ( 57.50000000000000000, 65.50000000000000000, 5.000000000000000000 ) ) ;
#276 = DIRECTION ( 'NONE',  ( 1.214306433183764966E-16, -1.000000000000000000, 0.000000000000000000 ) ) ;
#277 = PLANE ( 'NONE',  #452 ) ;
#278 = ORIENTED_EDGE ( 'NONE', *, *, #696, .T. ) ;
#279 = LINE ( 'NONE', #351, #746 ) ;
#280 = CARTESIAN_POINT ( 'NONE',  ( 0.000000000000000000, 80.00000000000000000, 0.000000000000000000 ) ) ;
#281 = DIRECTION ( 'NONE',  ( 0.000000000000000000, 1.000000000000000000, 0.000000000000000000 ) ) ;
#282 = LINE ( 'NONE', #717, #241 ) ;
#283 = LINE ( 'NONE', #288, #517 ) ;
#284 = CARTESIAN_POINT ( 'NONE',  ( 57.50000000000000000, 2.500000000000000000, 10.00000000000000000 ) ) ;
#285 = PLANE ( 'NONE',  #353 ) ;
#286 = AXIS2_PLACEMENT_3D ( 'NONE', #619, #496, #80 ) ;
#287 = PRODUCT_DEFINITION_FORMATION_WITH_SPECIFIED_SOURCE ( 'ANY', '', #577, .NOT_KNOWN. ) ;
#288 = CARTESIAN_POINT ( 'NONE',  ( 53.00000000000000000, 65.50000000000000000, 10.00000000000000000 ) ) ;
#289 = PLANE ( 'NONE',  #679 ) ;
#290 = ORIENTED_EDGE ( 'NONE', *, *, #314, .F. ) ;
#291 = LINE ( 'NONE', #767, #45 ) ;
#292 = CARTESIAN_POINT ( 'NONE',  ( 47.00000000000000000, 52.50000000000000000, 0.000000000000000000 ) ) ;
#293 = ORIENTED_EDGE ( 'NONE', *, *, #665, .T. ) ;
#294 = EDGE_CURVE ( 'NONE', #112, #461, #463, .T. ) ;
#295 = DIRECTION ( 'NONE',  ( -0.000000000000000000, -1.000000000000000000, -0.000000000000000000 ) ) ;
#296 = DIRECTION ( 'NONE',  ( -1.000000000000000000, 0.000000000000000000, -0.000000000000000000 ) ) ;
#297 = ORIENTED_EDGE ( 'NONE', *, *, #75, .F. ) ;
#298 = PLANE ( 'NONE',  #482 ) ;
#299 = EDGE_CURVE ( 'NONE', #408, #547, #165, .T. ) ;
#300 = VECTOR ( 'NONE', #363, 1000.000000000000000 ) ;
#301 = ORIENTED_EDGE ( 'NONE', *, *, #251, .F. ) ;
#302 = DIRECTION ( 'NONE',  ( 0.000000000000000000, 1.000000000000000000, 0.000000000000000000 ) ) ;
#303 = EDGE_CURVE ( 'NONE', #379, #374, #583, .T. ) ;
#304 = ORIENTED_EDGE ( 'NONE', *, *, #179, .F. ) ;
#305 = LINE ( 'NONE', #424, #668 ) ;
#306 = ORIENTED_EDGE ( 'NONE', *, *, #203, .T. ) ;
#307 = DIRECTION ( 'NONE',  ( 0.000000000000000000, 0.000000000000000000, 1.000000000000000000 ) ) ;
#308 = CARTESIAN_POINT ( 'NONE',  ( 2.500000000000000000, 77.50000000000000000, 5.000000000000000000 ) ) ;
#309 = VECTOR ( 'NONE', #151, 1000.000000000000000 ) ;
#310 = VERTEX_POINT ( 'NONE', #637 ) ;
#311 = CARTESIAN_POINT ( 'NONE',  ( 60.00000000000000000, 80.00000000000000000, 10.00000000000000000 ) ) ;
#312 = ORIENTED_EDGE ( 'NONE', *, *, #294, .T. ) ;
#313 = CARTESIAN_POINT ( 'NONE',  ( 60.00000000000000000, 2.500000000000000000, 10.00000000000000000 ) ) ;
#314 = EDGE_CURVE ( 'NONE', #310, #495, #235, .T. ) ;
#315 = ORIENTED_EDGE ( 'NONE', *, *, #493, .T. ) ;
#316 = PLANE ( 'NONE',  #286 ) ;
#317 = DIRECTION ( 'NONE',  ( 0.000000000000000000, -1.000000000000000000, 0.000000000000000000 ) ) ;
#318 = MECHANICAL_DESIGN_GEOMETRIC_PRESENTATION_REPRESENTATION (  '', ( #598 ), #185 ) ;
#319 = VERTEX_POINT ( 'NONE', #348 ) ;
#320 = AXIS2_PLACEMENT_3D ( 'NONE', #117, #238, #42 ) ;
#321 = VERTEX_POINT ( 'NONE', #344 ) ;
#322 = DIRECTION ( 'NONE',  ( 0.000000000000000000, 0.000000000000000000, -1.000000000000000000 ) ) ;
#323 = EDGE_CURVE ( 'NONE', #491, #72, #283, .T. ) ;
#324 = LINE ( 'NONE', #327, #333 ) ;
#325 = DIRECTION ( 'NONE',  ( 0.000000000000000000, -1.000000000000000000, 0.000000000000000000 ) ) ;
#326 = DIRECTION ( 'NONE',  ( -1.000000000000000000, 0.000000000000000000, -0.000000000000000000 ) ) ;
#327 = CARTESIAN_POINT ( 'NONE',  ( 2.500000000000000000, 77.50000000000000000, 10.00000000000000000 ) ) ;
#328 = ORIENTED_EDGE ( 'NONE', *, *, #10, .F. ) ;
#329 = CARTESIAN_POINT ( 'NONE',  ( 47.00000000000000000, 0.000000000000000000, 5.000000000000000000 ) ) ;
#330 = DIRECTION ( 'NONE',  ( 1.000000000000000000, 0.000000000000000000, 0.000000000000000000 ) ) ;
#331 = CARTESIAN_POINT ( 'NONE',  ( 0.000000000000000000, 0.000000000000000000, 0.000000000000000000 ) ) ;
#332 = ORIENTED_EDGE ( 'NONE', *, *, #485, .T. ) ;
#333 = VECTOR ( 'NONE', #266, 1000.000000000000000 ) ;
#334 = VERTEX_POINT ( 'NONE', #644 ) ;
#335 = VECTOR ( 'NONE', #681, 1000.000000000000000 ) ;
#336 = AXIS2_PLACEMENT_3D ( 'NONE', #757, #458, #164 ) ;
#337 = DIRECTION ( 'NONE',  ( 0.000000000000000000, 0.000000000000000000, 1.000000000000000000 ) ) ;
#338 = CARTESIAN_POINT ( 'NONE',  ( 60.00000000000000000, 0.000000000000000000, 10.00000000000000000 ) ) ;
#339 = PRODUCT_CONTEXT ( 'NONE', #605, 'mechanical' ) ;
#340 = ORIENTED_EDGE ( 'NONE', *, *, #382, .F. ) ;
#341 = ORIENTED_EDGE ( 'NONE', *, *, #427, .F. ) ;
#342 = PLANE ( 'NONE',  #320 ) ;
#343 = EDGE_CURVE ( 'NONE', #32, #41, #227, .T. ) ;
#344 = CARTESIAN_POINT ( 'NONE',  ( 60.00000000000000000, 65.50000000000000000, 0.000000000000000000 ) ) ;
#345 = CARTESIAN_POINT ( 'NONE',  ( 2.500000000000009326, 2.500000000000000000, 5.000000000000000000 ) ) ;
#346 = VERTEX_POINT ( 'NONE', #170 ) ;
#347 = FACE_OUTER_BOUND ( 'NONE', #591, .T. ) ;
#348 = CARTESIAN_POINT ( 'NONE',  ( 60.00000000000000000, 80.00000000000000000, 10.00000000000000000 ) ) ;
#349 = DIRECTION ( 'NONE',  ( 1.000000000000000000, 0.000000000000000000, 0.000000000000000000 ) ) ;
#350 = ORIENTED_EDGE ( 'NONE', *, *, #669, .F. ) ;
#351 = CARTESIAN_POINT ( 'NONE',  ( 53.00000000000000000, 65.50000000000000000, 0.000000000000000000 ) ) ;
#352 = VECTOR ( 'NONE', #705, 1000.000000000000000 ) ;
#353 = AXIS2_PLACEMENT_3D ( 'NONE', #234, #520, #465 ) ;
#354 = SURFACE_STYLE_FILL_AREA ( #768 ) ;
#355 = CARTESIAN_POINT ( 'NONE',  ( 57.50000000000000000, 77.50000000000000000, 5.000000000000000000 ) ) ;
#356 = ORIENTED_EDGE ( 'NONE', *, *, #571, .F. ) ;
#357 = CARTESIAN_POINT ( 'NONE',  ( 57.50000000000000000, 2.500000000000000000, 5.000000000000000000 ) ) ;
#358 = CARTESIAN_POINT ( 'NONE',  ( 47.00000000000000000, 27.50000000000000000, 0.000000000000000000 ) ) ;
#359 = EDGE_CURVE ( 'NONE', #319, #379, #521, .T. ) ;
#360 = EDGE_LOOP ( 'NONE', ( #456, #63, #690, #766 ) ) ;
#361 = DIRECTION ( 'NONE',  ( 0.000000000000000000, 1.000000000000000000, 0.000000000000000000 ) ) ;
#362 = MANIFOLD_SOLID_BREP ( 'Schnitt-Linear austragen3', #470 ) ;
#363 = DIRECTION ( 'NONE',  ( -0.000000000000000000, -0.000000000000000000, 1.000000000000000000 ) ) ;
#364 = ADVANCED_BREP_SHAPE_REPRESENTATION ( 'Rf4i', ( #362, #110 ), #680 ) ;
#365 = VERTEX_POINT ( 'NONE', #691 ) ;
#366 = EDGE_CURVE ( 'NONE', #719, #20, #579, .T. ) ;
#367 = CARTESIAN_POINT ( 'NONE',  ( 53.00000000000000000, 14.50000000000000000, 0.000000000000000000 ) ) ;
#368 = VECTOR ( 'NONE', #281, 1000.000000000000000 ) ;
#369 = VECTOR ( 'NONE', #46, 1000.000000000000000 ) ;
#370 = VECTOR ( 'NONE', #564, 1000.000000000000000 ) ;
#371 = VERTEX_POINT ( 'NONE', #437 ) ;
#372 = CARTESIAN_POINT ( 'NONE',  ( 47.00000000000000000, 52.50000000000000000, 0.000000000000000000 ) ) ;
#373 = ADVANCED_FACE ( 'NONE', ( #401 ), #316, .F. ) ;
#374 = VERTEX_POINT ( 'NONE', #156 ) ;
#375 = ORIENTED_EDGE ( 'NONE', *, *, #765, .F. ) ;
#376 = CARTESIAN_POINT ( 'NONE',  ( 60.00000000000000000, 0.000000000000000000, 10.00000000000000000 ) ) ;
#377 = VECTOR ( 'NONE', #438, 1000.000000000000000 ) ;
#378 = VECTOR ( 'NONE', #295, 1000.000000000000000 ) ;
#379 = VERTEX_POINT ( 'NONE', #738 ) ;
#380 = DIRECTION ( 'NONE',  ( -0.000000000000000000, -0.000000000000000000, 1.000000000000000000 ) ) ;
#381 = ORIENTED_EDGE ( 'NONE', *, *, #273, .F. ) ;
#382 = EDGE_CURVE ( 'NONE', #408, #72, #677, .T. ) ;
#383 = LINE ( 'NONE', #214, #710 ) ;
#384 = VERTEX_POINT ( 'NONE', #555 ) ;
#385 = DIRECTION ( 'NONE',  ( -0.000000000000000000, -0.000000000000000000, 1.000000000000000000 ) ) ;
#386 = FACE_OUTER_BOUND ( 'NONE', #606, .T. ) ;
#387 = CARTESIAN_POINT ( 'NONE',  ( 0.000000000000000000, 0.000000000000000000, 10.00000000000000000 ) ) ;
#388 = LINE ( 'NONE', #198, #532 ) ;
#389 = EDGE_LOOP ( 'NONE', ( #297, #508, #646, #208, #19, #301 ) ) ;
#390 = ORIENTED_EDGE ( 'NONE', *, *, #436, .T. ) ;
#391 = CARTESIAN_POINT ( 'NONE',  ( 60.00000000000000000, 0.000000000000000000, 10.00000000000000000 ) ) ;
#392 = DIRECTION ( 'NONE',  ( 0.000000000000000000, 1.000000000000000000, 0.000000000000000000 ) ) ;
#393 = ORIENTED_EDGE ( 'NONE', *, *, #578, .T. ) ;
#394 = ORIENTED_EDGE ( 'NONE', *, *, #399, .T. ) ;
#395 = LINE ( 'NONE', #446, #732 ) ;
#396 = DIRECTION ( 'NONE',  ( 1.000000000000000000, 0.000000000000000000, 0.000000000000000000 ) ) ;
#397 = LINE ( 'NONE', #144, #530 ) ;
#398 = VECTOR ( 'NONE', #511, 1000.000000000000000 ) ;
#399 = EDGE_CURVE ( 'NONE', #666, #112, #492, .T. ) ;
#400 = ORIENTED_EDGE ( 'NONE', *, *, #427, .T. ) ;
#401 = FACE_OUTER_BOUND ( 'NONE', #568, .T. ) ;
#402 = CARTESIAN_POINT ( 'NONE',  ( 0.000000000000000000, 80.00000000000000000, 10.00000000000000000 ) ) ;
#403 = LINE ( 'NONE', #652, #369 ) ;
#404 = ORIENTED_EDGE ( 'NONE', *, *, #629, .T. ) ;
#405 = EDGE_CURVE ( 'NONE', #491, #371, #636, .T. ) ;
#406 = CARTESIAN_POINT ( 'NONE',  ( 60.00000000000000000, 0.000000000000000000, 10.00000000000000000 ) ) ;
#407 = DIRECTION ( 'NONE',  ( -0.000000000000000000, 0.000000000000000000, 1.000000000000000000 ) ) ;
#408 = VERTEX_POINT ( 'NONE', #205 ) ;
#409 = DIRECTION ( 'NONE',  ( 0.000000000000000000, 0.000000000000000000, -1.000000000000000000 ) ) ;
#410 = EDGE_CURVE ( 'NONE', #701, #59, #212, .T. ) ;
#411 = DIRECTION ( 'NONE',  ( 0.000000000000000000, 0.000000000000000000, 1.000000000000000000 ) ) ;
#412 = ORIENTED_EDGE ( 'NONE', *, *, #571, .T. ) ;
#413 = LINE ( 'NONE', #640, #378 ) ;
#414 = VECTOR ( 'NONE', #582, 1000.000000000000000 ) ;
#415 = DIRECTION ( 'NONE',  ( 0.000000000000000000, 0.000000000000000000, -1.000000000000000000 ) ) ;
#416 = CARTESIAN_POINT ( 'NONE',  ( 60.00000000000000000, 0.000000000000000000, 10.00000000000000000 ) ) ;
#417 = VERTEX_POINT ( 'NONE', #21 ) ;
#418 = LINE ( 'NONE', #651, #600 ) ;
#419 = DIRECTION ( 'NONE',  ( 0.000000000000000000, 1.000000000000000000, 0.000000000000000000 ) ) ;
#420 = ORIENTED_EDGE ( 'NONE', *, *, #538, .F. ) ;
#421 = FACE_OUTER_BOUND ( 'NONE', #86, .T. ) ;
#422 = VERTEX_POINT ( 'NONE', #500 ) ;
#423 = EDGE_CURVE ( 'NONE', #547, #666, #267, .T. ) ;
#424 = CARTESIAN_POINT ( 'NONE',  ( 47.00000000000000000, 27.50000000000000000, 0.000000000000000000 ) ) ;
#425 = VECTOR ( 'NONE', #750, 1000.000000000000000 ) ;
#426 = ORIENTED_EDGE ( 'NONE', *, *, #743, .F. ) ;
#427 = EDGE_CURVE ( 'NONE', #483, #701, #688, .T. ) ;
#428 = ORIENTED_EDGE ( 'NONE', *, *, #728, .F. ) ;
#429 = DIRECTION ( 'NONE',  ( 1.000000000000000000, 0.000000000000000000, -0.000000000000000000 ) ) ;
#430 = EDGE_CURVE ( 'NONE', #559, #614, #16, .T. ) ;
#431 = ORIENTED_EDGE ( 'NONE', *, *, #430, .T. ) ;
#432 = APPLICATION_CONTEXT ( 'automotive_design' ) ;
#433 = EDGE_LOOP ( 'NONE', ( #119, #245, #488, #431 ) ) ;
#434 = LINE ( 'NONE', #76, #455 ) ;
#435 = ORIENTED_EDGE ( 'NONE', *, *, #615, .F. ) ;
#436 = EDGE_CURVE ( 'NONE', #486, #461, #560, .T. ) ;
#437 = CARTESIAN_POINT ( 'NONE',  ( 57.50000000000000000, 65.50000000000000000, 5.000000000000000000 ) ) ;
#438 = DIRECTION ( 'NONE',  ( 1.000000000000000000, 0.000000000000000000, 0.000000000000000000 ) ) ;
#439 = ORIENTED_EDGE ( 'NONE', *, *, #98, .T. ) ;
#440 = ORIENTED_EDGE ( 'NONE', *, *, #303, .T. ) ;
#441 = CARTESIAN_POINT ( 'NONE',  ( 53.00000000000000000, 14.50000000000000000, 0.000000000000000000 ) ) ;
#442 = DIRECTION ( 'NONE',  ( 0.000000000000000000, 0.000000000000000000, -1.000000000000000000 ) ) ;
#443 = VECTOR ( 'NONE', #253, 1000.000000000000000 ) ;
#444 = CARTESIAN_POINT ( 'NONE',  ( 53.00000000000000000, 65.50000000000000000, 0.000000000000000000 ) ) ;
#445 = ORIENTED_EDGE ( 'NONE', *, *, #405, .T. ) ;
#446 = CARTESIAN_POINT ( 'NONE',  ( 60.00000000000000000, 77.50000000000000000, 10.00000000000000000 ) ) ;
#447 = CARTESIAN_POINT ( 'NONE',  ( 2.500000000000000000, 77.50000000000000000, 5.000000000000000000 ) ) ;
#448 = ORIENTED_EDGE ( 'NONE', *, *, #557, .T. ) ;
#449 = DIRECTION ( 'NONE',  ( 0.000000000000000000, 0.000000000000000000, -1.000000000000000000 ) ) ;
#450 = CARTESIAN_POINT ( 'NONE',  ( 60.00000000000000000, 14.50000000000000000, 10.00000000000000000 ) ) ;
#451 = PLANE ( 'NONE',  #567 ) ;
#452 = AXIS2_PLACEMENT_3D ( 'NONE', #502, #634, #218 ) ;
#453 = CARTESIAN_POINT ( 'NONE',  ( 60.00000000000000000, 65.50000000000000000, 10.00000000000000000 ) ) ;
#454 = PRODUCT_DEFINITION_SHAPE ( 'NONE', 'NONE',  #256 ) ;
#455 = VECTOR ( 'NONE', #317, 1000.000000000000000 ) ;
#456 = ORIENTED_EDGE ( 'NONE', *, *, #2, .T. ) ;
#457 = AXIS2_PLACEMENT_3D ( 'NONE', #246, #191, #429 ) ;
#458 = DIRECTION ( 'NONE',  ( -1.000000000000000000, 0.000000000000000000, -0.000000000000000000 ) ) ;
#459 = CARTESIAN_POINT ( 'NONE',  ( 60.00000000000000000, 52.50000000000000000, 10.00000000000000000 ) ) ;
#460 = PLANE ( 'NONE',  #551 ) ;
#461 = VERTEX_POINT ( 'NONE', #88 ) ;
#462 = DIRECTION ( 'NONE',  ( -1.000000000000000000, 0.000000000000000000, -0.000000000000000000 ) ) ;
#463 = LINE ( 'NONE', #633, #398 ) ;
#464 = LINE ( 'NONE', #284, #692 ) ;
#465 = DIRECTION ( 'NONE',  ( 0.000000000000000000, 0.000000000000000000, -1.000000000000000000 ) ) ;
#466 = EDGE_CURVE ( 'NONE', #225, #486, #270, .T. ) ;
#467 =( NAMED_UNIT ( * ) PLANE_ANGLE_UNIT ( ) SI_UNIT ( $, .RADIAN. ) );
#468 = PLANE ( 'NONE',  #14 ) ;
#469 = EDGE_LOOP ( 'NONE', ( #586, #439, #716, #172 ) ) ;
#470 = CLOSED_SHELL ( 'NONE', ( #714, #8, #265, #247, #541, #562, #604, #91, #148, #702, #612, #258, #67, #650, #18, #213, #755, #103, #373, #22, #139, #127, #269, #662 ) ) ;
#471 = DIRECTION ( 'NONE',  ( 0.000000000000000000, 1.000000000000000000, 0.000000000000000000 ) ) ;
#472 = VECTOR ( 'NONE', #700, 1000.000000000000000 ) ;
#473 = AXIS2_PLACEMENT_3D ( 'NONE', #654, #135, #599 ) ;
#474 = LINE ( 'NONE', #764, #730 ) ;
#475 = FACE_OUTER_BOUND ( 'NONE', #202, .T. ) ;
#476 = DIRECTION ( 'NONE',  ( 1.214306433183764966E-16, -1.000000000000000000, 0.000000000000000000 ) ) ;
#477 = EDGE_CURVE ( 'NONE', #408, #513, #27, .T. ) ;
#478 = PLANE ( 'NONE',  #552 ) ;
#479 = ORIENTED_EDGE ( 'NONE', *, *, #477, .T. ) ;
#480 = PLANE ( 'NONE',  #457 ) ;
#481 = AXIS2_PLACEMENT_3D ( 'NONE', #82, #442, #30 ) ;
#482 = AXIS2_PLACEMENT_3D ( 'NONE', #531, #409, #462 ) ;
#483 = VERTEX_POINT ( 'NONE', #674 ) ;
#484 = CARTESIAN_POINT ( 'NONE',  ( 60.00000000000000000, 0.000000000000000000, 0.000000000000000000 ) ) ;
#485 = EDGE_CURVE ( 'NONE', #20, #248, #140, .T. ) ;
#486 = VERTEX_POINT ( 'NONE', #744 ) ;
#487 = LINE ( 'NONE', #308, #93 ) ;
#488 = ORIENTED_EDGE ( 'NONE', *, *, #192, .F. ) ;
#489 = VECTOR ( 'NONE', #415, 1000.000000000000000 ) ;
#490 = VECTOR ( 'NONE', #84, 1000.000000000000000 ) ;
#491 = VERTEX_POINT ( 'NONE', #735 ) ;
#492 = LINE ( 'NONE', #623, #569 ) ;
#493 = EDGE_CURVE ( 'NONE', #574, #719, #395, .T. ) ;
#494 = ORIENTED_EDGE ( 'NONE', *, *, #608, .F. ) ;
#495 = VERTEX_POINT ( 'NONE', #684 ) ;
#496 = DIRECTION ( 'NONE',  ( 0.000000000000000000, -1.000000000000000000, 0.000000000000000000 ) ) ;
#497 = LINE ( 'NONE', #311, #759 ) ;
#498 = LINE ( 'NONE', #444, #260 ) ;
#499 = ORIENTED_EDGE ( 'NONE', *, *, #665, .F. ) ;
#500 = CARTESIAN_POINT ( 'NONE',  ( 53.00000000000000000, 14.50000000000000000, 5.000000000000000000 ) ) ;
#501 = CARTESIAN_POINT ( 'NONE',  ( 60.00000000000000000, 2.500000000000000000, 0.000000000000000000 ) ) ;
#502 = CARTESIAN_POINT ( 'NONE',  ( 65.00000000000000000, 52.50000000000000000, 0.000000000000000000 ) ) ;
#503 = VECTOR ( 'NONE', #740, 1000.000000000000000 ) ;
#504 = ORIENTED_EDGE ( 'NONE', *, *, #161, .F. ) ;
#505 = DIRECTION ( 'NONE',  ( 0.000000000000000000, -1.000000000000000000, 0.000000000000000000 ) ) ;
#506 = EDGE_CURVE ( 'NONE', #321, #72, #632, .T. ) ;
#507 = DIRECTION ( 'NONE',  ( 0.000000000000000000, 0.000000000000000000, -1.000000000000000000 ) ) ;
#508 = ORIENTED_EDGE ( 'NONE', *, *, #485, .F. ) ;
#509 = EDGE_LOOP ( 'NONE', ( #375, #97, #404, #445 ) ) ;
#510 = CARTESIAN_POINT ( 'NONE',  ( 75.00000000000000000, 77.50000000000000000, 0.000000000000000000 ) ) ;
#511 = DIRECTION ( 'NONE',  ( -0.000000000000000000, -0.000000000000000000, 1.000000000000000000 ) ) ;
#512 = DIRECTION ( 'NONE',  ( 0.000000000000000000, -1.000000000000000000, 0.000000000000000000 ) ) ;
#513 = VERTEX_POINT ( 'NONE', #33 ) ;
#514 = DIRECTION ( 'NONE',  ( 1.000000000000000000, -0.000000000000000000, 0.000000000000000000 ) ) ;
#515 = DIRECTION ( 'NONE',  ( 0.000000000000000000, 1.000000000000000000, 0.000000000000000000 ) ) ;
#516 = CARTESIAN_POINT ( 'NONE',  ( 60.00000000000000000, 0.000000000000000000, 0.000000000000000000 ) ) ;
#517 = VECTOR ( 'NONE', #525, 1000.000000000000000 ) ;
#518 = ORIENTED_EDGE ( 'NONE', *, *, #343, .T. ) ;
#519 = VECTOR ( 'NONE', #130, 1000.000000000000000 ) ;
#520 = DIRECTION ( 'NONE',  ( 1.000000000000000000, 0.000000000000000000, 0.000000000000000000 ) ) ;
#521 = LINE ( 'NONE', #763, #57 ) ;
#522 = FACE_OUTER_BOUND ( 'NONE', #635, .T. ) ;
#523 = ORIENTED_EDGE ( 'NONE', *, *, #131, .F. ) ;
#524 = CARTESIAN_POINT ( 'NONE',  ( 0.000000000000000000, 0.000000000000000000, 10.00000000000000000 ) ) ;
#525 = DIRECTION ( 'NONE',  ( 1.000000000000000000, 0.000000000000000000, 0.000000000000000000 ) ) ;
#526 = DIRECTION ( 'NONE',  ( -0.000000000000000000, 0.000000000000000000, 1.000000000000000000 ) ) ;
#527 = ORIENTED_EDGE ( 'NONE', *, *, #382, .T. ) ;
#528 = DIRECTION ( 'NONE',  ( 0.000000000000000000, 0.000000000000000000, -1.000000000000000000 ) ) ;
#529 = DIRECTION ( 'NONE',  ( 0.000000000000000000, -0.000000000000000000, -1.000000000000000000 ) ) ;
#530 = VECTOR ( 'NONE', #561, 1000.000000000000000 ) ;
#531 = CARTESIAN_POINT ( 'NONE',  ( 0.000000000000000000, 0.000000000000000000, 10.00000000000000000 ) ) ;
#532 = VECTOR ( 'NONE', #751, 1000.000000000000000 ) ;
#533 = VECTOR ( 'NONE', #25, 1000.000000000000000 ) ;
#534 = EDGE_CURVE ( 'NONE', #384, #321, #279, .T. ) ;
#535 = CARTESIAN_POINT ( 'NONE',  ( 53.00000000000000000, 2.500000000000000000, 0.000000000000000000 ) ) ;
#536 = EDGE_LOOP ( 'NONE', ( #518, #626, #727, #499, #341, #216 ) ) ;
#537 = CARTESIAN_POINT ( 'NONE',  ( 0.000000000000000000, 14.50000000000000000, 5.000000000000000000 ) ) ;
#538 = EDGE_CURVE ( 'NONE', #614, #706, #291, .T. ) ;
#539 = ORIENTED_EDGE ( 'NONE', *, *, #625, .T. ) ;
#540 = LINE ( 'NONE', #725, #519 ) ;
#541 = ADVANCED_FACE ( 'NONE', ( #347 ), #298, .F. ) ;
#542 = ORIENTED_EDGE ( 'NONE', *, *, #224, .F. ) ;
#543 = LINE ( 'NONE', #5, #503 ) ;
#544 = ORIENTED_EDGE ( 'NONE', *, *, #98, .F. ) ;
#545 = EDGE_CURVE ( 'NONE', #83, #87, #703, .T. ) ;
#546 = DIRECTION ( 'NONE',  ( -1.000000000000000000, 0.000000000000000000, 0.000000000000000000 ) ) ;
#547 = VERTEX_POINT ( 'NONE', #576 ) ;
#548 = CARTESIAN_POINT ( 'NONE',  ( 57.50000000000000000, 77.50000000000000000, 10.00000000000000000 ) ) ;
#549 = EDGE_LOOP ( 'NONE', ( #390, #243, #125, #639 ) ) ;
#550 = DIRECTION ( 'NONE',  ( -1.000000000000000000, 0.000000000000000000, 0.000000000000000000 ) ) ;
#551 = AXIS2_PLACEMENT_3D ( 'NONE', #101, #160, #638 ) ;
#552 = AXIS2_PLACEMENT_3D ( 'NONE', #376, #657, #307 ) ;
#553 = CARTESIAN_POINT ( 'NONE',  ( 57.50000000000000000, 52.50000000000000000, 5.000000000000000000 ) ) ;
#554 = PLANE ( 'NONE',  #772 ) ;
#555 = CARTESIAN_POINT ( 'NONE',  ( 53.00000000000000000, 65.50000000000000000, 0.000000000000000000 ) ) ;
#556 = PLANE ( 'NONE',  #481 ) ;
#557 = EDGE_CURVE ( 'NONE', #719, #742, #771, .T. ) ;
#558 = CARTESIAN_POINT ( 'NONE',  ( 53.00000000000000000, 77.50000000000000000, 0.000000000000000000 ) ) ;
#559 = VERTEX_POINT ( 'NONE', #524 ) ;
#560 = LINE ( 'NONE', #329, #533 ) ;
#561 = DIRECTION ( 'NONE',  ( 0.000000000000000000, -1.000000000000000000, 0.000000000000000000 ) ) ;
#562 = ADVANCED_FACE ( 'NONE', ( #475 ), #342, .F. ) ;
#563 = ORIENTED_EDGE ( 'NONE', *, *, #314, .T. ) ;
#564 = DIRECTION ( 'NONE',  ( -1.000000000000000000, 0.000000000000000000, 0.000000000000000000 ) ) ;
#565 = FACE_OUTER_BOUND ( 'NONE', #575, .T. ) ;
#566 = SHAPE_DEFINITION_REPRESENTATION ( #454, #364 ) ;
#567 = AXIS2_PLACEMENT_3D ( 'NONE', #338, #693, #411 ) ;
#568 = EDGE_LOOP ( 'NONE', ( #734, #724, #581, #74, #193, #594 ) ) ;
#569 = VECTOR ( 'NONE', #505, 1000.000000000000000 ) ;
#570 = EDGE_LOOP ( 'NONE', ( #479, #328, #686, #426, #215, #254 ) ) ;
#571 = EDGE_CURVE ( 'NONE', #374, #614, #413, .T. ) ;
#572 = DIRECTION ( 'NONE',  ( 0.000000000000000000, 1.000000000000000000, 0.000000000000000000 ) ) ;
#573 = LINE ( 'NONE', #280, #210 ) ;
#574 = VERTEX_POINT ( 'NONE', #648 ) ;
#575 = EDGE_LOOP ( 'NONE', ( #209, #761, #420, #356, #381, #3, #741, #24, #268, #229, #186, #394, #233, #304, #400, #250 ) ) ;
#576 = CARTESIAN_POINT ( 'NONE',  ( 60.00000000000000000, 52.50000000000000000, 0.000000000000000000 ) ) ;
#577 = PRODUCT ( 'Rf4i', 'Rf4i', '', ( #339 ) ) ;
#578 = EDGE_CURVE ( 'NONE', #334, #752, #53, .T. ) ;
#579 = LINE ( 'NONE', #510, #620 ) ;
#580 = CARTESIAN_POINT ( 'NONE',  ( 60.00000000000000000, 0.000000000000000000, 10.00000000000000000 ) ) ;
#581 = ORIENTED_EDGE ( 'NONE', *, *, #182, .T. ) ;
#582 = DIRECTION ( 'NONE',  ( 0.000000000000000000, 1.000000000000000000, 0.000000000000000000 ) ) ;
#583 = LINE ( 'NONE', #402, #157 ) ;
#584 = FACE_OUTER_BOUND ( 'NONE', #389, .T. ) ;
#585 = AXIS2_PLACEMENT_3D ( 'NONE', #292, #40, #526 ) ;
#586 = ORIENTED_EDGE ( 'NONE', *, *, #65, .T. ) ;
#587 = VECTOR ( 'NONE', #70, 1000.000000000000000 ) ;
#588 = FACE_OUTER_BOUND ( 'NONE', #729, .T. ) ;
#589 = PRESENTATION_STYLE_ASSIGNMENT (( #107 ) ) ;
#590 = FACE_OUTER_BOUND ( 'NONE', #549, .T. ) ;
#591 = EDGE_LOOP ( 'NONE', ( #617, #35, #219, #290 ) ) ;
#592 = DIRECTION ( 'NONE',  ( 0.000000000000000000, 0.000000000000000000, -1.000000000000000000 ) ) ;
#593 = LINE ( 'NONE', #715, #774 ) ;
#594 = ORIENTED_EDGE ( 'NONE', *, *, #506, .F. ) ;
#595 = PLANE ( 'NONE',  #136 ) ;
#596 = PLANE ( 'NONE',  #745 ) ;
#597 = ORIENTED_EDGE ( 'NONE', *, *, #545, .F. ) ;
#598 = STYLED_ITEM ( 'NONE', ( #589 ), #362 ) ;
#599 = DIRECTION ( 'NONE',  ( 0.000000000000000000, -0.000000000000000000, -1.000000000000000000 ) ) ;
#600 = VECTOR ( 'NONE', #361, 1000.000000000000000 ) ;
#601 = PRODUCT_DEFINITION_CONTEXT ( 'detailed design', #432, 'design' ) ;
#602 = EDGE_LOOP ( 'NONE', ( #340, #52, #278, #642 ) ) ;
#603 = CARTESIAN_POINT ( 'NONE',  ( 53.00000000000000000, 14.50000000000000000, 0.000000000000000000 ) ) ;
#604 = ADVANCED_FACE ( 'NONE', ( #588 ), #285, .F. ) ;
#605 = APPLICATION_CONTEXT ( 'automotive_design' ) ;
#606 = EDGE_LOOP ( 'NONE', ( #393, #544, #180, #539, #748, #105 ) ) ;
#607 =( NAMED_UNIT ( * ) PLANE_ANGLE_UNIT ( ) SI_UNIT ( $, .RADIAN. ) );
#608 = EDGE_CURVE ( 'NONE', #310, #87, #707, .T. ) ;
#609 = ORIENTED_EDGE ( 'NONE', *, *, #47, .F. ) ;
#610 = CARTESIAN_POINT ( 'NONE',  ( 60.00000000000000000, 77.50000000000000000, 0.000000000000000000 ) ) ;
#611 = VECTOR ( 'NONE', #449, 1000.000000000000000 ) ;
#612 = ADVANCED_FACE ( 'NONE', ( #762 ), #168, .F. ) ;
#613 = ORIENTED_EDGE ( 'NONE', *, *, #75, .T. ) ;
#614 = VERTEX_POINT ( 'NONE', #106 ) ;
#615 = EDGE_CURVE ( 'NONE', #32, #495, #282, .T. ) ;
#616 = DIRECTION ( 'NONE',  ( 0.000000000000000000, 0.000000000000000000, -1.000000000000000000 ) ) ;
#617 = ORIENTED_EDGE ( 'NONE', *, *, #61, .F. ) ;
#618 = ORIENTED_EDGE ( 'NONE', *, *, #669, .T. ) ;
#619 = CARTESIAN_POINT ( 'NONE',  ( 53.00000000000000000, 65.50000000000000000, 0.000000000000000000 ) ) ;
#620 = VECTOR ( 'NONE', #220, 1000.000000000000000 ) ;
#621 = LINE ( 'NONE', #624, #78 ) ;
#622 = CARTESIAN_POINT ( 'NONE',  ( 2.500000000000009326, 2.500000000000000000, 5.000000000000000000 ) ) ;
#623 = CARTESIAN_POINT ( 'NONE',  ( 47.00000000000000000, 52.50000000000000000, 0.000000000000000000 ) ) ;
#624 = CARTESIAN_POINT ( 'NONE',  ( 2.500000000000009326, 2.500000000000000000, 5.000000000000000000 ) ) ;
#625 = EDGE_CURVE ( 'NONE', #59, #77, #49, .T. ) ;
#626 = ORIENTED_EDGE ( 'NONE', *, *, #678, .F. ) ;
#627 = CARTESIAN_POINT ( 'NONE',  ( 65.00000000000000000, 52.50000000000000000, 10.00000000000000000 ) ) ;
#628 = CARTESIAN_POINT ( 'NONE',  ( 0.000000000000000000, 0.000000000000000000, 10.00000000000000000 ) ) ;
#629 = EDGE_CURVE ( 'NONE', #513, #491, #418, .T. ) ;
#630 = ORIENTED_EDGE ( 'NONE', *, *, #477, .F. ) ;
#631 = ORIENTED_EDGE ( 'NONE', *, *, #436, .F. ) ;
#632 = LINE ( 'NONE', #92, #647 ) ;
#633 = CARTESIAN_POINT ( 'NONE',  ( 47.00000000000000000, 27.50000000000000000, 0.000000000000000000 ) ) ;
#634 = DIRECTION ( 'NONE',  ( 0.000000000000000000, 1.000000000000000000, 0.000000000000000000 ) ) ;
#635 = EDGE_LOOP ( 'NONE', ( #195, #711, #609, #332 ) ) ;
#636 = LINE ( 'NONE', #275, #611 ) ;
#637 = CARTESIAN_POINT ( 'NONE',  ( 57.49999999999999289, 27.50000000000000000, 10.00000000000000000 ) ) ;
#638 = DIRECTION ( 'NONE',  ( 0.000000000000000000, -0.000000000000000000, 1.000000000000000000 ) ) ;
#639 = ORIENTED_EDGE ( 'NONE', *, *, #743, .T. ) ;
#640 = CARTESIAN_POINT ( 'NONE',  ( 0.000000000000000000, 0.000000000000000000, 0.000000000000000000 ) ) ;
#641 = CARTESIAN_POINT ( 'NONE',  ( 57.50000000000000000, 14.50000000000000000, 5.000000000000000000 ) ) ;
#642 = ORIENTED_EDGE ( 'NONE', *, *, #506, .T. ) ;
#643 = DIRECTION ( 'NONE',  ( -1.000000000000000000, 0.000000000000000000, -0.000000000000000000 ) ) ;
#644 = CARTESIAN_POINT ( 'NONE',  ( 2.500000000000009326, 2.500000000000000000, 10.00000000000000000 ) ) ;
#645 = LINE ( 'NONE', #516, #368 ) ;
#646 = ORIENTED_EDGE ( 'NONE', *, *, #366, .F. ) ;
#647 = VECTOR ( 'NONE', #337, 1000.000000000000000 ) ;
#648 = CARTESIAN_POINT ( 'NONE',  ( 60.00000000000000000, 77.50000000000000000, 10.00000000000000000 ) ) ;
#649 = DIRECTION ( 'NONE',  ( -1.000000000000000000, 0.000000000000000000, 0.000000000000000000 ) ) ;
#650 = ADVANCED_FACE ( 'NONE', ( #226 ), #595, .F. ) ;
#651 = CARTESIAN_POINT ( 'NONE',  ( 57.50000000000000000, 2.500000000000000000, 10.00000000000000000 ) ) ;
#652 = CARTESIAN_POINT ( 'NONE',  ( 53.00000000000000000, 0.000000000000000000, 5.000000000000000000 ) ) ;
#653 = ORIENTED_EDGE ( 'NONE', *, *, #81, .T. ) ;
#654 = CARTESIAN_POINT ( 'NONE',  ( 0.000000000000000000, 80.00000000000000000, 10.00000000000000000 ) ) ;
#655 = ORIENTED_EDGE ( 'NONE', *, *, #199, .T. ) ;
#656 = PRESENTATION_LAYER_ASSIGNMENT (  '', '', ( #598 ) ) ;
#657 = DIRECTION ( 'NONE',  ( -1.000000000000000000, 0.000000000000000000, 0.000000000000000000 ) ) ;
#658 = VECTOR ( 'NONE', #173, 1000.000000000000000 ) ;
#659 = DIRECTION ( 'NONE',  ( 0.000000000000000000, 1.000000000000000000, 0.000000000000000000 ) ) ;
#660 = ORIENTED_EDGE ( 'NONE', *, *, #359, .T. ) ;
#661 = LINE ( 'NONE', #603, #694 ) ;
#662 = ADVANCED_FACE ( 'NONE', ( #421 ), #99, .F. ) ;
#663 = VERTEX_POINT ( 'NONE', #406 ) ;
#664 =( NAMED_UNIT ( * ) SI_UNIT ( $, .STERADIAN. ) SOLID_ANGLE_UNIT ( ) );
#665 = EDGE_CURVE ( 'NONE', #701, #422, #661, .T. ) ;
#666 = VERTEX_POINT ( 'NONE', #372 ) ;
#667 = DIRECTION ( 'NONE',  ( -0.000000000000000000, -0.000000000000000000, -1.000000000000000000 ) ) ;
#668 = VECTOR ( 'NONE', #720, 1000.000000000000000 ) ;
#669 = EDGE_CURVE ( 'NONE', #417, #495, #126, .T. ) ;
#670 = ORIENTED_EDGE ( 'NONE', *, *, #192, .T. ) ;
#671 = DIRECTION ( 'NONE',  ( -0.000000000000000000, -0.000000000000000000, 1.000000000000000000 ) ) ;
#672 = DIRECTION ( 'NONE',  ( -0.000000000000000000, 0.000000000000000000, 1.000000000000000000 ) ) ;
#673 = EDGE_CURVE ( 'NONE', #319, #742, #497, .T. ) ;
#674 = CARTESIAN_POINT ( 'NONE',  ( 60.00000000000000000, 14.50000000000000000, 0.000000000000000000 ) ) ;
#675 = DIRECTION ( 'NONE',  ( -1.000000000000000000, 0.000000000000000000, 0.000000000000000000 ) ) ;
#676 = ORIENTED_EDGE ( 'NONE', *, *, #726, .F. ) ;
#677 = LINE ( 'NONE', #391, #722 ) ;
#678 = EDGE_CURVE ( 'NONE', #83, #41, #543, .T. ) ;
#679 = AXIS2_PLACEMENT_3D ( 'NONE', #54, #296, #407 ) ;
#680 =( GEOMETRIC_REPRESENTATION_CONTEXT ( 3 ) GLOBAL_UNCERTAINTY_ASSIGNED_CONTEXT ( ( #718 ) ) GLOBAL_UNIT_ASSIGNED_CONTEXT ( ( #255, #607, #664 ) ) REPRESENTATION_CONTEXT ( 'NONE', 'WORKASPACE' ) );
#681 = DIRECTION ( 'NONE',  ( -1.000000000000000000, 0.000000000000000000, 0.000000000000000000 ) ) ;
#682 = DIRECTION ( 'NONE',  ( -0.000000000000000000, -0.000000000000000000, 1.000000000000000000 ) ) ;
#683 = ORIENTED_EDGE ( 'NONE', *, *, #81, .F. ) ;
#684 = CARTESIAN_POINT ( 'NONE',  ( 60.00000000000000000, 27.50000000000000000, 10.00000000000000000 ) ) ;
#685 = APPLICATION_PROTOCOL_DEFINITION ( 'draft international standard', 'automotive_design', 1998, #432 ) ;
#686 = ORIENTED_EDGE ( 'NONE', *, *, #466, .T. ) ;
#687 = ORIENTED_EDGE ( 'NONE', *, *, #430, .F. ) ;
#688 = LINE ( 'NONE', #201, #58 ) ;
#689 = CARTESIAN_POINT ( 'NONE',  ( 57.50000000000000000, 14.50000000000000000, 10.00000000000000000 ) ) ;
#690 = ORIENTED_EDGE ( 'NONE', *, *, #163, .F. ) ;
#691 = CARTESIAN_POINT ( 'NONE',  ( 53.00000000000000000, 65.50000000000000000, 5.000000000000000000 ) ) ;
#692 = VECTOR ( 'NONE', #419, 1000.000000000000000 ) ;
#693 = DIRECTION ( 'NONE',  ( -1.000000000000000000, 0.000000000000000000, 0.000000000000000000 ) ) ;
#694 = VECTOR ( 'NONE', #380, 1000.000000000000000 ) ;
#695 = FACE_OUTER_BOUND ( 'NONE', #433, .T. ) ;
#696 = EDGE_CURVE ( 'NONE', #547, #321, #133, .T. ) ;
#697 = ORIENTED_EDGE ( 'NONE', *, *, #179, .T. ) ;
#698 = DIRECTION ( 'NONE',  ( 1.000000000000000000, 0.000000000000000000, 0.000000000000000000 ) ) ;
#699 = FILL_AREA_STYLE_COLOUR ( '', #69 ) ;
#700 = DIRECTION ( 'NONE',  ( 0.000000000000000000, 0.000000000000000000, 1.000000000000000000 ) ) ;
#701 = VERTEX_POINT ( 'NONE', #367 ) ;
#702 = ADVANCED_FACE ( 'NONE', ( #60 ), #207, .F. ) ;
#703 = LINE ( 'NONE', #357, #712 ) ;
#704 = SURFACE_SIDE_STYLE ('',( #354 ) ) ;
#705 = DIRECTION ( 'NONE',  ( -0.000000000000000000, -0.000000000000000000, -1.000000000000000000 ) ) ;
#706 = VERTEX_POINT ( 'NONE', #484 ) ;
#707 = LINE ( 'NONE', #713, #71 ) ;
#708 = DIRECTION ( 'NONE',  ( 0.000000000000000000, -0.000000000000000000, 1.000000000000000000 ) ) ;
#709 = LINE ( 'NONE', #345, #300 ) ;
#710 = VECTOR ( 'NONE', #616, 1000.000000000000000 ) ;
#711 = ORIENTED_EDGE ( 'NONE', *, *, #38, .F. ) ;
#712 = VECTOR ( 'NONE', #776, 1000.000000000000000 ) ;
#713 = CARTESIAN_POINT ( 'NONE',  ( 57.50000000000000000, 27.50000000000000000, 5.000000000000000000 ) ) ;
#714 = ADVANCED_FACE ( 'NONE', ( #778 ), #478, .F. ) ;
#715 = CARTESIAN_POINT ( 'NONE',  ( 57.50000000000000000, 77.50000000000000000, 5.000000000000000000 ) ) ;
#716 = ORIENTED_EDGE ( 'NONE', *, *, #199, .F. ) ;
#717 = CARTESIAN_POINT ( 'NONE',  ( 60.00000000000000000, 0.000000000000000000, 10.00000000000000000 ) ) ;
#718 = UNCERTAINTY_MEASURE_WITH_UNIT (LENGTH_MEASURE( 1.000000000000000082E-05 ), #255, 'distance_accuracy_value', 'NONE');
#719 = VERTEX_POINT ( 'NONE', #610 ) ;
#720 = DIRECTION ( 'NONE',  ( 1.000000000000000000, 0.000000000000000000, 0.000000000000000000 ) ) ;
#721 = ORIENTED_EDGE ( 'NONE', *, *, #410, .F. ) ;
#722 = VECTOR ( 'NONE', #572, 1000.000000000000000 ) ;
#723 = DIRECTION ( 'NONE',  ( 0.000000000000000000, 1.000000000000000000, 0.000000000000000000 ) ) ;
#724 = ORIENTED_EDGE ( 'NONE', *, *, #38, .T. ) ;
#725 = CARTESIAN_POINT ( 'NONE',  ( 47.00000000000000000, 52.50000000000000000, 0.000000000000000000 ) ) ;
#726 = EDGE_CURVE ( 'NONE', #83, #422, #64, .T. ) ;
#727 = ORIENTED_EDGE ( 'NONE', *, *, #726, .T. ) ;
#728 = EDGE_CURVE ( 'NONE', #112, #417, #305, .T. ) ;
#729 = EDGE_LOOP ( 'NONE', ( #412, #687, #523, #440 ) ) ;
#730 = VECTOR ( 'NONE', #232, 1000.000000000000000 ) ;
#731 = AXIS2_PLACEMENT_3D ( 'NONE', #355, #111, #166 ) ;
#732 = VECTOR ( 'NONE', #322, 1000.000000000000000 ) ;
#733 = CARTESIAN_POINT ( 'NONE',  ( 53.00000000000000000, 77.50000000000000000, 5.000000000000000000 ) ) ;
#734 = ORIENTED_EDGE ( 'NONE', *, *, #534, .F. ) ;
#735 = CARTESIAN_POINT ( 'NONE',  ( 57.50000000000000000, 65.50000000000000000, 10.00000000000000000 ) ) ;
#736 = ORIENTED_EDGE ( 'NONE', *, *, #779, .T. ) ;
#737 = ORIENTED_EDGE ( 'NONE', *, *, #61, .T. ) ;
#738 = CARTESIAN_POINT ( 'NONE',  ( 0.000000000000000000, 80.00000000000000000, 10.00000000000000000 ) ) ;
#739 = CARTESIAN_POINT ( 'NONE',  ( 0.000000000000000000, 0.000000000000000000, 10.00000000000000000 ) ) ;
#740 = DIRECTION ( 'NONE',  ( -0.000000000000000000, 0.000000000000000000, 1.000000000000000000 ) ) ;
#741 = ORIENTED_EDGE ( 'NONE', *, *, #366, .T. ) ;
#742 = VERTEX_POINT ( 'NONE', #194 ) ;
#743 = EDGE_CURVE ( 'NONE', #666, #486, #540, .T. ) ;
#744 = CARTESIAN_POINT ( 'NONE',  ( 47.00000000000000000, 52.50000000000000000, 5.000000000000000000 ) ) ;
#745 = AXIS2_PLACEMENT_3D ( 'NONE', #358, #512, #529 ) ;
#746 = VECTOR ( 'NONE', #102, 1000.000000000000000 ) ;
#747 = DIRECTION ( 'NONE',  ( -1.000000000000000000, -1.214306433183764966E-16, 0.000000000000000000 ) ) ;
#748 = ORIENTED_EDGE ( 'NONE', *, *, #239, .F. ) ;
#749 = EDGE_LOOP ( 'NONE', ( #68, #630, #527, #780 ) ) ;
#750 = DIRECTION ( 'NONE',  ( -1.000000000000000000, 0.000000000000000000, 0.000000000000000000 ) ) ;
#751 = DIRECTION ( 'NONE',  ( 1.000000000000000000, 0.000000000000000000, -0.000000000000000000 ) ) ;
#752 = VERTEX_POINT ( 'NONE', #313 ) ;
#753 = ORIENTED_EDGE ( 'NONE', *, *, #163, .T. ) ;
#754 = CARTESIAN_POINT ( 'NONE',  ( 67.53374626969666394, 14.50000000000000000, 10.00000000000000000 ) ) ;
#755 = ADVANCED_FACE ( 'NONE', ( #781 ), #480, .T. ) ;
#756 = CARTESIAN_POINT ( 'NONE',  ( 2.500000000000009326, 2.500000000000000000, 5.000000000000000000 ) ) ;
#757 = CARTESIAN_POINT ( 'NONE',  ( 53.00000000000000000, 14.50000000000000000, 0.000000000000000000 ) ) ;
#758 = DIRECTION ( 'NONE',  ( -0.000000000000000000, -0.000000000000000000, -1.000000000000000000 ) ) ;
#759 = VECTOR ( 'NONE', #667, 1000.000000000000000 ) ;
#760 = PLANE ( 'NONE',  #731 ) ;
#761 = ORIENTED_EDGE ( 'NONE', *, *, #65, .F. ) ;
#762 = FACE_OUTER_BOUND ( 'NONE', #749, .T. ) ;
#763 = CARTESIAN_POINT ( 'NONE',  ( 0.000000000000000000, 80.00000000000000000, 10.00000000000000000 ) ) ;
#764 = CARTESIAN_POINT ( 'NONE',  ( 0.000000000000000000, 0.000000000000000000, 10.00000000000000000 ) ) ;
#765 = EDGE_CURVE ( 'NONE', #225, #371, #249, .T. ) ;
#766 = ORIENTED_EDGE ( 'NONE', *, *, #251, .T. ) ;
#767 = CARTESIAN_POINT ( 'NONE',  ( 0.000000000000000000, 0.000000000000000000, 0.000000000000000000 ) ) ;
#768 = FILL_AREA_STYLE ('',( #699 ) ) ;
#769 = DIRECTION ( 'NONE',  ( -1.000000000000000000, 0.000000000000000000, 0.000000000000000000 ) ) ;
#770 = ORIENTED_EDGE ( 'NONE', *, *, #239, .T. ) ;
#771 = LINE ( 'NONE', #244, #414 ) ;
#772 = AXIS2_PLACEMENT_3D ( 'NONE', #26, #675, #90 ) ;
#773 = FACE_OUTER_BOUND ( 'NONE', #36, .T. ) ;
#774 = VECTOR ( 'NONE', #769, 1000.000000000000000 ) ;
#775 = ORIENTED_EDGE ( 'NONE', *, *, #131, .T. ) ;
#776 = DIRECTION ( 'NONE',  ( 0.000000000000000000, 1.000000000000000000, 0.000000000000000000 ) ) ;
#777 = ORIENTED_EDGE ( 'NONE', *, *, #545, .T. ) ;
#778 = FACE_OUTER_BOUND ( 'NONE', #469, .T. ) ;
#779 = EDGE_CURVE ( 'NONE', #461, #87, #188, .T. ) ;
#780 = ORIENTED_EDGE ( 'NONE', *, *, #323, .F. ) ;
#781 = FACE_OUTER_BOUND ( 'NONE', #66, .T. ) ;
ENDSEC;
END-ISO-10303-21;
