# Blender 4.4.0
# www.blender.org
mtllib Rf4i.mtl
o Rf4i
v 60.000000 2.500000 10.000000
v 60.000000 0.000000 10.000000
v 60.000000 2.500000 0.000000
v 60.000000 0.000000 0.000000
v 60.000000 14.500000 0.000000
v 60.000000 27.500000 0.000000
v 60.000000 14.500000 10.000000
v 60.000000 27.500000 10.000000
v 60.000000 52.500000 0.000000
v 60.000000 65.500000 0.000000
v 60.000000 52.500000 10.000000
v 60.000000 65.500000 10.000000
v 60.000000 77.500000 10.000000
v 60.000000 80.000000 10.000000
v 2.500000 77.500000 10.000000
v 0.000000 80.000000 10.000000
v 2.500000 2.500000 10.000000
v 0.000000 0.000000 10.000000
v 57.500000 14.500000 10.000000
v 57.500000 27.500000 10.000000
v 57.500000 14.500000 5.000000
v 57.500000 27.500000 5.000000
v 0.000000 0.000000 0.000000
v 0.000000 80.000000 0.000000
v 60.000000 77.500000 0.000000
v 60.000000 80.000000 0.000000
v 57.500000 52.500000 10.000000
v 57.500000 65.500000 10.000000
v 53.000000 77.500000 0.000000
v 53.000000 65.500000 0.000000
v 47.000000 52.500000 0.000000
v 47.000000 27.500000 0.000000
v 53.000000 2.500000 0.000000
v 53.000000 14.500000 0.000000
v 53.000000 77.500000 5.000000
v 2.500000 77.500000 5.000000
v 57.500000 52.500000 5.000000
v 57.500000 65.500000 5.000000
v 2.500000 2.500000 5.000000
v 53.000000 2.500000 5.000000
v 53.000000 65.500000 5.000000
v 53.000000 14.500000 5.000000
v 47.000000 52.500000 5.000000
v 47.000000 27.500000 5.000000
vn 1.0000 -0.0000 -0.0000
vn -0.0000 -0.0000 1.0000
vn -1.0000 -0.0000 -0.0000
vn -0.0000 -1.0000 -0.0000
vn -0.0000 1.0000 -0.0000
vn -0.0000 -0.0000 -1.0000
s 0
f 1//1 2//1 3//1
f 3//1 2//1 4//1
f 5//1 6//1 7//1
f 7//1 6//1 8//1
f 9//1 10//1 11//1
f 11//1 10//1 12//1
f 13//2 14//2 15//2
f 15//2 14//2 16//2
f 15//2 16//2 17//2
f 17//2 16//2 18//2
f 17//2 18//2 1//2
f 1//2 18//2 2//2
f 7//2 8//2 19//2
f 19//2 8//2 20//2
f 19//3 20//3 21//3
f 21//3 20//3 22//3
f 18//3 16//3 23//3
f 23//3 16//3 24//3
f 2//4 18//4 4//4
f 4//4 18//4 23//4
f 25//1 26//1 13//1
f 13//1 26//1 14//1
f 16//5 14//5 24//5
f 24//5 14//5 26//5
f 11//2 12//2 27//2
f 27//2 12//2 28//2
f 26//6 25//6 29//6
f 30//6 10//6 9//6
f 31//6 32//6 23//6
f 9//6 31//6 30//6
f 30//6 31//6 23//6
f 30//6 23//6 29//6
f 29//6 23//6 24//6
f 29//6 24//6 26//6
f 3//6 4//6 33//6
f 33//6 4//6 23//6
f 33//6 23//6 34//6
f 34//6 23//6 32//6
f 34//6 32//6 5//6
f 5//6 32//6 6//6
f 29//4 25//4 35//4
f 35//4 25//4 13//4
f 35//4 13//4 36//4
f 36//4 13//4 15//4
f 27//3 28//3 37//3
f 37//3 28//3 38//3
f 39//5 17//5 40//5
f 40//5 17//5 1//5
f 40//5 1//5 33//5
f 33//5 1//5 3//5
f 39//1 36//1 17//1
f 17//1 36//1 15//1
f 41//2 35//2 36//2
f 39//2 40//2 36//2
f 36//2 40//2 42//2
f 43//2 37//2 38//2
f 38//2 41//2 43//2
f 43//2 41//2 36//2
f 43//2 36//2 44//2
f 44//2 36//2 42//2
f 44//2 42//2 22//2
f 22//2 42//2 21//2
f 30//1 29//1 41//1
f 41//1 29//1 35//1
f 28//5 12//5 38//5
f 38//5 12//5 10//5
f 38//5 10//5 41//5
f 41//5 10//5 30//5
f 43//4 31//4 37//4
f 37//4 31//4 9//4
f 37//4 9//4 27//4
f 27//4 9//4 11//4
f 32//1 31//1 44//1
f 44//1 31//1 43//1
f 20//5 8//5 22//5
f 22//5 8//5 6//5
f 22//5 6//5 44//5
f 44//5 6//5 32//5
f 42//4 34//4 21//4
f 21//4 34//4 5//4
f 21//4 5//4 19//4
f 19//4 5//4 7//4
f 33//1 34//1 40//1
f 40//1 34//1 42//1
