# Blender 4.4.0
# www.blender.org
mtllib Rk1a.mtl
o Rk1a
v 3.000000 11.992005 26.586056
v 3.000000 10.680833 26.953428
v 3.000000 20.000000 30.000000
v 3.000000 6.345820 18.587233
v 3.000000 7.402080 17.727901
v 3.000000 0.000000 0.000000
v 3.000000 0.000000 30.000000
v 3.000000 9.319166 26.953428
v 3.000000 8.007995 26.586056
v 3.000000 6.844560 25.878555
v 3.000000 5.915151 24.883402
v 3.000000 5.288695 23.674398
v 3.000000 8.651016 17.185413
v 3.000000 10.000000 17.000000
v 3.000000 20.000000 0.000000
v 3.000000 5.011656 22.341211
v 3.000000 5.104579 20.982719
v 3.000000 5.560574 19.699675
v 3.000000 14.711305 23.674398
v 3.000000 14.084849 24.883402
v 3.000000 13.155440 25.878555
v 3.000000 11.348984 17.185413
v 3.000000 12.597919 17.727901
v 3.000000 13.654180 18.587233
v 3.000000 14.439426 19.699675
v 3.000000 14.895420 20.982719
v 3.000000 14.988344 22.341211
v 18.000000 0.000000 30.000000
v 18.000000 0.000000 0.000000
v 18.000000 5.288695 23.674398
v 18.000000 5.915151 24.883402
v 18.000000 6.844560 25.878555
v 18.000000 8.007995 26.586056
v 18.000000 8.651016 17.185413
v 18.000000 7.402080 17.727901
v 18.000000 6.345820 18.587233
v 18.000000 11.992005 26.586056
v 18.000000 13.155440 25.878555
v 18.000000 20.000000 30.000000
v 18.000000 14.084849 24.883402
v 18.000000 14.711305 23.674398
v 18.000000 5.560574 19.699675
v 18.000000 5.104579 20.982719
v 18.000000 5.011656 22.341211
v 18.000000 9.319166 26.953428
v 18.000000 10.000000 27.000000
v 18.000000 10.680833 26.953428
v 18.000000 14.988344 22.341211
v 18.000000 14.895420 20.982719
v 18.000000 20.000000 0.000000
v 18.000000 14.439426 19.699675
v 18.000000 13.654180 18.587233
v 18.000000 12.597919 17.727901
v 18.000000 11.348984 17.185413
v 18.000000 10.000000 17.000000
v 21.000000 10.000000 17.000000
v 21.000000 11.348984 17.185413
v 21.000000 10.000000 22.000000
v 21.000000 8.651016 17.185413
v 21.000000 5.560574 19.699675
v 21.000000 6.345820 18.587233
v 21.000000 7.402080 17.727901
v 21.000000 5.288695 23.674398
v 21.000000 5.011656 22.341211
v 21.000000 5.104579 20.982719
v 21.000000 8.007995 26.586056
v 21.000000 6.844560 25.878555
v 21.000000 5.915151 24.883402
v 21.000000 11.992005 26.586056
v 21.000000 10.680833 26.953428
v 21.000000 9.319166 26.953428
v 21.000000 14.711305 23.674398
v 21.000000 14.084849 24.883402
v 21.000000 13.155440 25.878555
v 21.000000 14.439426 19.699675
v 21.000000 14.895420 20.982719
v 21.000000 14.988344 22.341211
v 21.000000 12.597919 17.727901
v 21.000000 13.654180 18.587233
v 0.000000 11.348984 17.185413
v 0.000000 12.597919 17.727901
v 0.000000 13.654180 18.587233
v 0.000000 14.439426 19.699675
v 0.000000 14.895420 20.982719
v 0.000000 14.988344 22.341211
v 0.000000 14.711305 23.674398
v 0.000000 14.084849 24.883402
v 0.000000 13.155440 25.878555
v 0.000000 11.992005 26.586056
v 0.000000 10.680833 26.953428
v 0.000000 9.319166 26.953428
v 0.000000 8.007995 26.586056
v 0.000000 6.844560 25.878555
v 0.000000 5.915151 24.883402
v 0.000000 5.288695 23.674398
v 0.000000 5.011656 22.341211
v 0.000000 5.104579 20.982719
v 0.000000 5.560574 19.699675
v 0.000000 6.345820 18.587233
v 0.000000 7.402080 17.727901
v 0.000000 8.651016 17.185413
v 0.000000 10.000000 17.000000
v 0.000000 10.000000 22.000000
vn -1.0000 -0.0000 -0.0000
vn -0.0000 -1.0000 -0.0000
vn 1.0000 -0.0000 -0.0000
vn -0.0000 1.0000 -0.0000
vn -0.0000 -0.0000 1.0000
vn -0.0000 -0.0000 -1.0000
vn -0.0000 -0.0682 0.9977
vn -0.0000 -0.2698 0.9629
vn -0.0000 -0.5196 0.8544
vn -0.0000 -0.7308 0.6826
vn -0.0000 -0.8879 0.4601
vn -0.0000 -0.9791 0.2035
vn -0.0000 -0.9977 -0.0682
vn -0.0000 -0.9423 -0.3349
vn -0.0000 -0.8170 -0.5767
vn -0.0000 -0.6311 -0.7757
vn -0.0000 -0.3984 -0.9172
vn -0.0000 -0.1362 -0.9907
vn -0.0000 0.1362 -0.9907
vn -0.0000 0.3984 -0.9172
vn -0.0000 0.6311 -0.7757
vn -0.0000 0.8170 -0.5767
vn -0.0000 0.9423 -0.3349
vn -0.0000 0.9977 -0.0682
vn -0.0000 0.9791 0.2035
vn -0.0000 0.8879 0.4601
vn -0.0000 0.7308 0.6826
vn -0.0000 0.5196 0.8544
vn -0.0000 0.2698 0.9629
vn -0.0000 0.0682 0.9977
vn 0.0155 -0.0000 0.9999
s 0
f 1//1 2//1 3//1
f 4//1 5//1 6//1
f 3//1 2//1 7//1
f 7//1 2//1 8//1
f 7//1 8//1 9//1
f 9//1 10//1 7//1
f 7//1 10//1 11//1
f 7//1 11//1 12//1
f 5//1 13//1 6//1
f 6//1 13//1 14//1
f 6//1 14//1 15//1
f 12//1 16//1 7//1
f 7//1 16//1 17//1
f 7//1 17//1 6//1
f 6//1 17//1 18//1
f 6//1 18//1 4//1
f 19//1 20//1 3//1
f 3//1 20//1 21//1
f 3//1 21//1 1//1
f 14//1 22//1 15//1
f 15//1 22//1 23//1
f 15//1 23//1 24//1
f 24//1 25//1 15//1
f 15//1 25//1 26//1
f 15//1 26//1 3//1
f 3//1 26//1 27//1
f 3//1 27//1 19//1
f 28//2 7//2 29//2
f 29//2 7//2 6//2
f 30//3 31//3 28//3
f 28//3 31//3 32//3
f 28//3 32//3 33//3
f 34//3 35//3 29//3
f 29//3 35//3 36//3
f 37//3 38//3 39//3
f 39//3 38//3 40//3
f 39//3 40//3 41//3
f 36//3 42//3 29//3
f 29//3 42//3 43//3
f 29//3 43//3 28//3
f 28//3 43//3 44//3
f 28//3 44//3 30//3
f 33//3 45//3 28//3
f 28//3 45//3 46//3
f 28//3 46//3 39//3
f 39//3 46//3 47//3
f 39//3 47//3 37//3
f 41//3 48//3 39//3
f 39//3 48//3 49//3
f 39//3 49//3 50//3
f 50//3 49//3 51//3
f 50//3 51//3 52//3
f 52//3 53//3 50//3
f 50//3 53//3 54//3
f 50//3 54//3 29//3
f 29//3 54//3 55//3
f 29//3 55//3 34//3
f 3//4 39//4 15//4
f 15//4 39//4 50//4
f 28//5 39//5 7//5
f 7//5 39//5 3//5
f 50//6 29//6 15//6
f 15//6 29//6 6//6
f 56//3 57//3 58//3
f 56//3 58//3 59//3
f 60//3 61//3 58//3
f 58//3 61//3 62//3
f 58//3 62//3 59//3
f 63//3 64//3 58//3
f 58//3 64//3 65//3
f 58//3 65//3 60//3
f 66//3 67//3 58//3
f 58//3 67//3 68//3
f 58//3 68//3 63//3
f 69//3 70//3 58//3
f 58//3 70//3 71//3
f 58//3 71//3 66//3
f 72//3 73//3 58//3
f 58//3 73//3 74//3
f 58//3 74//3 69//3
f 75//3 76//3 58//3
f 58//3 76//3 77//3
f 58//3 77//3 72//3
f 57//3 78//3 58//3
f 58//3 78//3 79//3
f 58//3 79//3 75//3
f 46//7 45//7 71//7
f 71//8 45//8 33//8
f 71//8 33//8 66//8
f 66//9 33//9 32//9
f 66//9 32//9 67//9
f 67//10 32//10 31//10
f 67//10 31//10 68//10
f 68//11 31//11 30//11
f 68//11 30//11 63//11
f 63//12 30//12 44//12
f 63//12 44//12 64//12
f 64//13 44//13 43//13
f 64//13 43//13 65//13
f 65//14 43//14 42//14
f 65//14 42//14 60//14
f 60//15 42//15 36//15
f 60//15 36//15 61//15
f 61//16 36//16 35//16
f 61//16 35//16 62//16
f 62//17 35//17 34//17
f 62//17 34//17 59//17
f 59//18 34//18 55//18
f 59//18 55//18 56//18
f 56//19 55//19 54//19
f 56//19 54//19 57//19
f 57//20 54//20 53//20
f 57//20 53//20 78//20
f 78//21 53//21 52//21
f 78//21 52//21 79//21
f 79//22 52//22 51//22
f 79//22 51//22 75//22
f 75//23 51//23 49//23
f 75//23 49//23 76//23
f 76//24 49//24 48//24
f 76//24 48//24 77//24
f 77//25 48//25 41//25
f 77//25 41//25 72//25
f 72//26 41//26 40//26
f 72//26 40//26 73//26
f 73//27 40//27 38//27
f 73//27 38//27 74//27
f 74//28 38//28 37//28
f 74//28 37//28 69//28
f 69//29 37//29 47//29
f 69//29 47//29 70//29
f 70//30 47//30 46//30
f 70//31 46//31 71//31
f 14//19 80//19 22//19
f 22//20 80//20 81//20
f 22//20 81//20 23//20
f 23//21 81//21 82//21
f 23//21 82//21 24//21
f 24//22 82//22 83//22
f 24//22 83//22 25//22
f 25//23 83//23 84//23
f 25//23 84//23 26//23
f 26//24 84//24 85//24
f 26//24 85//24 27//24
f 27//25 85//25 86//25
f 27//25 86//25 19//25
f 19//26 86//26 87//26
f 19//26 87//26 20//26
f 20//27 87//27 88//27
f 20//27 88//27 21//27
f 21//28 88//28 89//28
f 21//28 89//28 1//28
f 1//29 89//29 90//29
f 1//29 90//29 2//29
f 2//5 90//5 91//5
f 2//5 91//5 8//5
f 8//8 91//8 92//8
f 8//8 92//8 9//8
f 9//9 92//9 93//9
f 9//9 93//9 10//9
f 10//10 93//10 94//10
f 10//10 94//10 11//10
f 11//11 94//11 95//11
f 11//11 95//11 12//11
f 12//12 95//12 96//12
f 12//12 96//12 16//12
f 16//13 96//13 97//13
f 16//13 97//13 17//13
f 17//14 97//14 98//14
f 17//14 98//14 18//14
f 18//15 98//15 99//15
f 18//15 99//15 4//15
f 4//16 99//16 100//16
f 4//16 100//16 5//16
f 5//17 100//17 101//17
f 5//17 101//17 13//17
f 13//18 101//18 102//18
f 13//18 102//18 14//18
f 14//19 102//19 80//19
f 102//1 101//1 103//1
f 102//1 103//1 80//1
f 83//1 82//1 103//1
f 103//1 82//1 81//1
f 103//1 81//1 80//1
f 86//1 85//1 103//1
f 103//1 85//1 84//1
f 103//1 84//1 83//1
f 89//1 88//1 103//1
f 103//1 88//1 87//1
f 103//1 87//1 86//1
f 92//1 91//1 103//1
f 103//1 91//1 90//1
f 103//1 90//1 89//1
f 95//1 94//1 103//1
f 103//1 94//1 93//1
f 103//1 93//1 92//1
f 98//1 97//1 103//1
f 103//1 97//1 96//1
f 103//1 96//1 95//1
f 101//1 100//1 103//1
f 103//1 100//1 99//1
f 103//1 99//1 98//1
