# https://github.com/mikedh/trimesh
v 3.00000000 20.00000000 30.00000000
v 3.00000000 0.00000000 0.00000000
v 3.00000000 0.00000000 30.00000000
v 3.00000000 20.00000000 0.00000000
v 18.00000000 0.00000000 30.00000000
v 18.00000000 0.00000000 0.00000000
v 18.00000000 20.00000000 30.00000000
v 18.00000000 20.00000000 0.00000000
v 21.00000000 10.00000000 17.00000000
v 21.00000000 11.34898400 17.18541300
v 21.00000000 8.65101600 17.18541300
v 21.00000000 5.56057400 19.69967500
v 21.00000000 6.34582000 18.58723300
v 21.00000000 7.40208000 17.72790100
v 21.00000000 5.28869500 23.67439800
v 21.00000000 5.01165600 22.34121100
v 21.00000000 5.10457900 20.98271900
v 21.00000000 8.00799500 26.58605600
v 21.00000000 6.84456000 25.87855500
v 21.00000000 5.91515100 24.88340200
v 21.00000000 11.99200500 26.58605600
v 21.00000000 10.68083300 26.95342800
v 21.00000000 9.31916600 26.95342800
v 21.00000000 14.71130500 23.67439800
v 21.00000000 14.08484900 24.88340200
v 21.00000000 13.15544000 25.87855500
v 21.00000000 14.43942600 19.69967500
v 21.00000000 14.89542000 20.98271900
v 21.00000000 14.98834400 22.34121100
v 21.00000000 12.59791900 17.72790100
v 21.00000000 13.65418000 18.58723300
v 0.00000000 11.34898400 17.18541300
v 0.00000000 12.59791900 17.72790100
v 0.00000000 13.65418000 18.58723300
v 0.00000000 14.43942600 19.69967500
v 0.00000000 14.89542000 20.98271900
v 0.00000000 14.98834400 22.34121100
v 0.00000000 14.71130500 23.67439800
v 0.00000000 14.08484900 24.88340200
v 0.00000000 13.15544000 25.87855500
v 0.00000000 11.99200500 26.58605600
v 0.00000000 10.68083300 26.95342800
v 0.00000000 9.31916600 26.95342800
v 0.00000000 8.00799500 26.58605600
v 0.00000000 6.84456000 25.87855500
v 0.00000000 5.91515100 24.88340200
v 0.00000000 5.28869500 23.67439800
v 0.00000000 5.01165600 22.34121100
v 0.00000000 5.10457900 20.98271900
v 0.00000000 5.56057400 19.69967500
v 0.00000000 6.34582000 18.58723300
v 0.00000000 7.40208000 17.72790100
v 0.00000000 8.65101600 17.18541300
v 0.00000000 10.00000000 17.00000000
f 37 4 1
f 6 8 9
f 54 4 2
f 54 4 32
f 54 53 2
f 33 4 32
f 33 34 4
f 36 37 4
f 29 7 8
f 35 34 4
f 35 36 4
f 38 37 1
f 38 39 1
f 41 42 1
f 48 3 2
f 48 47 3
f 40 39 1
f 40 41 1
f 43 44 3
f 46 47 3
f 11 6 9
f 11 14 6
f 13 14 6
f 30 31 8
f 28 29 8
f 45 44 3
f 45 46 3
f 52 53 2
f 52 51 2
f 49 48 2
f 12 17 6
f 12 13 6
f 10 8 9
f 10 30 8
f 27 31 8
f 27 28 8
f 24 29 7
f 21 26 7
f 15 20 5
f 18 23 5
f 50 51 2
f 50 49 2
f 25 26 7
f 25 24 7
f 22 21 7
f 16 15 5
f 16 6 5
f 16 17 6
f 19 20 5
f 19 18 5
f 6 4 2
f 6 8 4
f 6 3 2
f 6 5 3
f 7 8 4
f 7 4 1
f 7 5 3
f 7 3 1
f 43 3 1
f 43 42 1
f 50 36 37
f 50 54 32
f 50 33 32
f 50 35 34
f 50 54 53
f 50 33 34
f 50 40 39
f 50 38 37
f 50 41 42
f 50 35 36
f 50 38 39
f 50 46 47
f 50 43 42
f 50 48 47
f 50 40 41
f 50 43 44
f 50 45 44
f 50 52 53
f 50 45 46
f 50 52 51
f 50 49 48
f 22 7 5
f 22 23 5
f 19 25 26
f 19 27 31
f 19 11 9
f 19 12 17
f 19 28 29
f 19 11 14
f 19 13 14
f 19 30 31
f 19 10 9
f 19 24 29
f 19 22 23
f 19 12 13
f 19 10 30
f 19 27 28
f 19 18 23
f 19 21 26
f 19 15 20
f 19 16 17
f 19 25 24
f 19 22 21
f 19 16 15

