# Blender 4.4.0
# www.blender.org
mtllib Rk2i.mtl
o Rk2i
v 6.000000 0.000000 30.000000
v 0.000000 0.000000 30.000000
v 6.000000 0.000000 0.000000
v 0.000000 0.000000 0.000000
v 15.000000 8.500000 30.000000
v 15.000000 0.000000 30.000000
v 15.000000 8.500000 0.000000
v 15.000000 0.000000 0.000000
v 9.000000 20.000000 30.000000
v 15.000000 20.000000 30.000000
v 9.000000 20.000000 0.000000
v 15.000000 20.000000 0.000000
v 0.000000 20.000000 30.000000
v 0.000000 20.000000 0.000000
v 9.000000 0.000000 0.000000
v 9.000000 0.000000 30.000000
v 15.000000 11.500000 0.000000
v 15.000000 11.500000 30.000000
v 6.000000 20.000000 0.000000
v 6.000000 20.000000 30.000000
v 6.000000 17.000000 30.000000
v 9.000000 0.000000 30.000000
v 9.000000 3.000000 30.000000
v 6.000000 3.000000 30.000000
v 12.000000 8.500000 30.000000
v 12.000000 11.500000 30.000000
v 9.000000 17.000000 30.000000
v 6.000000 20.000000 0.000000
v 6.000000 17.000000 0.000000
v 6.000000 3.000000 0.000000
v 6.000000 0.000000 0.000000
v 9.000000 0.000000 0.000000
v 15.000000 8.500000 0.000000
v 9.000000 3.000000 0.000000
v 12.000000 8.500000 0.000000
v 12.000000 11.500000 0.000000
v 15.000000 11.500000 0.000000
v 9.000000 17.000000 0.000000
v 9.000000 20.000000 0.000000
v 9.000000 17.000000 0.000000
v 12.000000 8.500000 0.000000
v 6.000000 3.000000 0.000000
v 9.000000 0.000000 0.000000
vn -0.0000 -1.0000 -0.0000
vn 1.0000 -0.0000 -0.0000
vn -0.0000 1.0000 -0.0000
vn -1.0000 -0.0000 -0.0000
vn -0.0000 -0.0000 1.0000
vn -0.0000 -0.0000 -1.0000
s 0
f 1//1 2//1 3//1
f 3//1 2//1 4//1
f 5//2 6//2 7//2
f 7//2 6//2 8//2
f 9//3 10//3 11//3
f 11//3 10//3 12//3
f 2//4 13//4 4//4
f 4//4 13//4 14//4
f 15//1 8//1 16//1
f 16//1 8//1 6//1
f 17//2 12//2 18//2
f 18//2 12//2 10//2
f 19//3 14//3 20//3
f 20//3 14//3 13//3
f 21//5 20//5 13//5
f 22//5 6//5 23//5
f 23//5 6//5 5//5
f 23//5 5//5 24//5
f 24//5 5//5 25//5
f 24//5 25//5 26//5
f 2//5 1//5 13//5
f 13//5 1//5 24//5
f 13//5 24//5 21//5
f 21//5 24//5 26//5
f 21//5 26//5 27//5
f 27//5 26//5 18//5
f 27//5 18//5 9//5
f 9//5 18//5 10//5
f 4//6 14//6 28//6
f 28//6 29//6 4//6
f 4//6 29//6 30//6
f 4//6 30//6 31//6
f 8//6 32//6 33//6
f 33//6 32//6 34//6
f 33//6 34//6 35//6
f 35//6 34//6 30//6
f 35//6 30//6 36//6
f 36//6 30//6 29//6
f 36//6 29//6 37//6
f 37//6 29//6 38//6
f 37//6 38//6 12//6
f 12//6 38//6 39//6
f 29//2 19//2 21//2
f 21//2 19//2 20//2
f 40//3 29//3 27//3
f 27//3 29//3 21//3
f 11//4 40//4 9//4
f 9//4 40//4 27//4
f 36//1 17//1 26//1
f 26//1 17//1 18//1
f 41//2 36//2 25//2
f 25//2 36//2 26//2
f 7//3 41//3 5//3
f 5//3 41//3 25//3
f 3//2 42//2 1//2
f 1//2 42//2 24//2
f 42//1 34//1 24//1
f 24//1 34//1 23//1
f 34//4 43//4 23//4
f 23//4 43//4 22//4
