ISO-10303-21;
HEADER;
FILE_DESCRIPTION (( 'STEP AP214' ),
    '1' );
FILE_NAME ('Rk2i.STEP',
    '2025-09-08T12:06:16',
    ( '' ),
    ( '' ),
    'SwSTEP 2.0',
    'SolidWorks 2024',
    '' );
FILE_SCHEMA (( 'AUTOMOTIVE_DESIGN' ));
ENDSEC;

DATA;
#1 = AXIS2_PLACEMENT_3D ( 'NONE', #279, #154, #205 ) ;
#2 = ORIENTED_EDGE ( 'NONE', *, *, #146, .T. ) ;
#3 = ORIENTED_EDGE ( 'NONE', *, *, #158, .F. ) ;
#4 = DIRECTION ( 'NONE',  ( -1.000000000000000000, -1.445602896647338917E-16, 0.000000000000000000 ) ) ;
#5 = ORIENTED_EDGE ( 'NONE', *, *, #207, .T. ) ;
#6 = CARTESIAN_POINT ( 'NONE',  ( 9.000000000000001776, 17.00000000000000000, -1.387778780781445676E-14 ) ) ;
#7 = AXIS2_PLACEMENT_3D ( 'NONE', #113, #365, #163 ) ;
#8 = EDGE_LOOP ( 'NONE', ( #221, #147, #14, #544 ) ) ;
#9 = CARTESIAN_POINT ( 'NONE',  ( 0.000000000000000000, 20.00000000000000355, 0.000000000000000000 ) ) ;
#10 = ORIENTED_EDGE ( 'NONE', *, *, #89, .F. ) ;
#11 = CARTESIAN_POINT ( 'NONE',  ( 0.000000000000000000, 0.000000000000000000, 30.00000000000000000 ) ) ;
#12 = DIRECTION ( 'NONE',  ( 0.000000000000000000, -1.000000000000000000, 0.000000000000000000 ) ) ;
#13 = ADVANCED_FACE ( 'NONE', ( #389 ), #265, .F. ) ;
#14 = ORIENTED_EDGE ( 'NONE', *, *, #333, .F. ) ;
#15 = LINE ( 'NONE', #70, #144 ) ;
#16 = LINE ( 'NONE', #521, #38 ) ;
#17 = VERTEX_POINT ( 'NONE', #480 ) ;
#18 = VECTOR ( 'NONE', #188, 1000.000000000000000 ) ;
#19 = CARTESIAN_POINT ( 'NONE',  ( 6.000000000000000000, 17.00000000000000000, 30.00000000000000000 ) ) ;
#20 = APPLICATION_PROTOCOL_DEFINITION ( 'draft international standard', 'automotive_design', 1998, #476 ) ;
#21 = ORIENTED_EDGE ( 'NONE', *, *, #297, .T. ) ;
#22 = DIRECTION ( 'NONE',  ( 1.000000000000000000, 0.000000000000000000, 0.000000000000000000 ) ) ;
#23 = DIRECTION ( 'NONE',  ( 1.000000000000000000, 0.000000000000000000, 0.000000000000000000 ) ) ;
#24 = ADVANCED_FACE ( 'NONE', ( #582 ), #308, .F. ) ;
#25 = CARTESIAN_POINT ( 'NONE',  ( 9.000000000000001776, 3.000000000000001332, 0.000000000000000000 ) ) ;
#26 = CARTESIAN_POINT ( 'NONE',  ( 6.000000000000000000, 20.00000000000000355, 30.00000000000000000 ) ) ;
#27 = DIRECTION ( 'NONE',  ( -1.000000000000000000, -0.000000000000000000, -0.000000000000000000 ) ) ;
#28 = EDGE_LOOP ( 'NONE', ( #233, #373, #48, #556 ) ) ;
#29 = LINE ( 'NONE', #125, #225 ) ;
#30 = VERTEX_POINT ( 'NONE', #34 ) ;
#31 = EDGE_CURVE ( 'NONE', #95, #151, #309, .T. ) ;
#32 = VECTOR ( 'NONE', #112, 1000.000000000000000 ) ;
#33 = LINE ( 'NONE', #168, #52 ) ;
#34 = CARTESIAN_POINT ( 'NONE',  ( 9.000000000000001776, -7.347880794884120722E-16, 30.00000000000000000 ) ) ;
#35 = ORIENTED_EDGE ( 'NONE', *, *, #429, .F. ) ;
#36 = DIRECTION ( 'NONE',  ( 0.000000000000000000, 1.000000000000000000, 0.000000000000000000 ) ) ;
#37 = VECTOR ( 'NONE', #36, 1000.000000000000000 ) ;
#38 = VECTOR ( 'NONE', #71, 1000.000000000000000 ) ;
#39 = CARTESIAN_POINT ( 'NONE',  ( 0.000000000000000000, 0.000000000000000000, 30.00000000000000000 ) ) ;
#40 = ADVANCED_FACE ( 'NONE', ( #340 ), #185, .F. ) ;
#41 = VERTEX_POINT ( 'NONE', #530 ) ;
#42 = LINE ( 'NONE', #142, #347 ) ;
#43 = ORIENTED_EDGE ( 'NONE', *, *, #173, .T. ) ;
#44 = AXIS2_PLACEMENT_3D ( 'NONE', #88, #436, #141 ) ;
#45 = CARTESIAN_POINT ( 'NONE',  ( 9.000000000000001776, 3.000000000000001332, 30.00000000000000000 ) ) ;
#46 = ORIENTED_EDGE ( 'NONE', *, *, #59, .T. ) ;
#47 = LINE ( 'NONE', #537, #82 ) ;
#48 = ORIENTED_EDGE ( 'NONE', *, *, #381, .T. ) ;
#49 = LINE ( 'NONE', #404, #570 ) ;
#50 = VERTEX_POINT ( 'NONE', #187 ) ;
#51 = CARTESIAN_POINT ( 'NONE',  ( 15.00000000000000000, 20.00000000000000355, 0.000000000000000000 ) ) ;
#52 = VECTOR ( 'NONE', #176, 1000.000000000000000 ) ;
#53 = EDGE_CURVE ( 'NONE', #296, #366, #267, .T. ) ;
#54 = AXIS2_PLACEMENT_3D ( 'NONE', #282, #12, #516 ) ;
#55 = ORIENTED_EDGE ( 'NONE', *, *, #139, .T. ) ;
#56 = CARTESIAN_POINT ( 'NONE',  ( 15.00000000000000000, 0.000000000000000000, 30.00000000000000000 ) ) ;
#57 = CARTESIAN_POINT ( 'NONE',  ( 12.00000000000000355, 8.500000000000001776, -1.387778780781445676E-14 ) ) ;
#58 = DIRECTION ( 'NONE',  ( 0.000000000000000000, -1.000000000000000000, 0.000000000000000000 ) ) ;
#59 = EDGE_CURVE ( 'NONE', #299, #336, #93, .T. ) ;
#60 = ORIENTED_EDGE ( 'NONE', *, *, #259, .F. ) ;
#61 = CARTESIAN_POINT ( 'NONE',  ( 15.00000000000000000, 8.500000000000001776, -1.387778780781445676E-14 ) ) ;
#62 = LINE ( 'NONE', #529, #444 ) ;
#63 = EDGE_LOOP ( 'NONE', ( #2, #547, #180, #272 ) ) ;
#64 = DIRECTION ( 'NONE',  ( -1.000000000000000000, 0.000000000000000000, -0.000000000000000000 ) ) ;
#65 = DIRECTION ( 'NONE',  ( 0.000000000000000000, 1.000000000000000000, 0.000000000000000000 ) ) ;
#66 = VERTEX_POINT ( 'NONE', #343 ) ;
#67 = VECTOR ( 'NONE', #522, 1000.000000000000000 ) ;
#68 = EDGE_CURVE ( 'NONE', #458, #209, #443, .T. ) ;
#69 = AXIS2_PLACEMENT_3D ( 'NONE', #435, #175, #268 ) ;
#70 = CARTESIAN_POINT ( 'NONE',  ( 0.000000000000000000, 0.000000000000000000, 0.000000000000000000 ) ) ;
#71 = DIRECTION ( 'NONE',  ( 5.782411586589355667E-16, -1.000000000000000000, 0.000000000000000000 ) ) ;
#72 = CARTESIAN_POINT ( 'NONE',  ( 12.00000000000000355, 8.500000000000001776, -1.387778780781445676E-14 ) ) ;
#73 = CARTESIAN_POINT ( 'NONE',  ( 0.000000000000000000, 20.00000000000000355, 30.00000000000000000 ) ) ;
#74 = CARTESIAN_POINT ( 'NONE',  ( 6.000000000000000000, 20.00000000000000355, -1.387778780781445676E-14 ) ) ;
#75 = ORIENTED_EDGE ( 'NONE', *, *, #148, .F. ) ;
#76 = DIRECTION ( 'NONE',  ( -1.000000000000000000, -0.000000000000000000, -0.000000000000000000 ) ) ;
#77 = APPLICATION_PROTOCOL_DEFINITION ( 'draft international standard', 'automotive_design', 1998, #506 ) ;
#78 = FACE_OUTER_BOUND ( 'NONE', #401, .T. ) ;
#79 = ADVANCED_FACE ( 'NONE', ( #396 ), #301, .F. ) ;
#80 = ORIENTED_EDGE ( 'NONE', *, *, #31, .F. ) ;
#81 = VERTEX_POINT ( 'NONE', #330 ) ;
#82 = VECTOR ( 'NONE', #192, 1000.000000000000000 ) ;
#83 = EDGE_CURVE ( 'NONE', #336, #257, #573, .T. ) ;
#84 = DIRECTION ( 'NONE',  ( -1.000000000000000000, 0.000000000000000000, -0.000000000000000000 ) ) ;
#85 = DIRECTION ( 'NONE',  ( -0.000000000000000000, -0.000000000000000000, 1.000000000000000000 ) ) ;
#86 = ORIENTED_EDGE ( 'NONE', *, *, #195, .F. ) ;
#87 = ADVANCED_FACE ( 'NONE', ( #251 ), #507, .F. ) ;
#88 = CARTESIAN_POINT ( 'NONE',  ( 0.000000000000000000, 0.000000000000000000, 30.00000000000000000 ) ) ;
#89 = EDGE_CURVE ( 'NONE', #257, #453, #565, .T. ) ;
#90 = VECTOR ( 'NONE', #575, 1000.000000000000000 ) ;
#91 = VECTOR ( 'NONE', #500, 1000.000000000000000 ) ;
#92 =( LENGTH_UNIT ( ) NAMED_UNIT ( * ) SI_UNIT ( .MILLI., .METRE. ) );
#93 = LINE ( 'NONE', #131, #406 ) ;
#94 = ORIENTED_EDGE ( 'NONE', *, *, #181, .F. ) ;
#95 = VERTEX_POINT ( 'NONE', #25 ) ;
#96 = ORIENTED_EDGE ( 'NONE', *, *, #472, .F. ) ;
#97 = ORIENTED_EDGE ( 'NONE', *, *, #408, .F. ) ;
#98 = DIRECTION ( 'NONE',  ( 0.000000000000000000, 1.000000000000000000, 0.000000000000000000 ) ) ;
#99 = EDGE_CURVE ( 'NONE', #66, #453, #203, .T. ) ;
#100 = DIRECTION ( 'NONE',  ( -0.000000000000000000, -0.000000000000000000, 1.000000000000000000 ) ) ;
#101 = ORIENTED_EDGE ( 'NONE', *, *, #558, .F. ) ;
#102 = CARTESIAN_POINT ( 'NONE',  ( 6.000000000000000000, 3.000000000000000888, -1.387778780781445676E-14 ) ) ;
#103 = EDGE_CURVE ( 'NONE', #439, #257, #471, .T. ) ;
#104 = CARTESIAN_POINT ( 'NONE',  ( 0.000000000000000000, 20.00000000000000355, 30.00000000000000000 ) ) ;
#105 = ADVANCED_FACE ( 'NONE', ( #78 ), #214, .F. ) ;
#106 = VERTEX_POINT ( 'NONE', #538 ) ;
#107 = DIRECTION ( 'NONE',  ( 0.000000000000000000, 0.000000000000000000, -1.000000000000000000 ) ) ;
#108 = CARTESIAN_POINT ( 'NONE',  ( 0.000000000000000000, 0.000000000000000000, 0.000000000000000000 ) ) ;
#109 = CARTESIAN_POINT ( 'NONE',  ( 15.00000000000000000, 0.000000000000000000, 30.00000000000000000 ) ) ;
#110 = ORIENTED_EDGE ( 'NONE', *, *, #259, .T. ) ;
#111 = LINE ( 'NONE', #293, #172 ) ;
#112 = DIRECTION ( 'NONE',  ( 0.000000000000000000, 1.000000000000000000, 0.000000000000000000 ) ) ;
#113 = CARTESIAN_POINT ( 'NONE',  ( 9.000000000000001776, 17.00000000000000000, -1.387778780781445676E-14 ) ) ;
#114 = ORIENTED_EDGE ( 'NONE', *, *, #274, .F. ) ;
#115 = CARTESIAN_POINT ( 'NONE',  ( 9.000000000000001776, -7.347880794884120722E-16, -1.387778780781445676E-14 ) ) ;
#116 = DIRECTION ( 'NONE',  ( -1.000000000000000000, 0.000000000000000000, 0.000000000000000000 ) ) ;
#117 = DIRECTION ( 'NONE',  ( 0.000000000000000000, 1.000000000000000000, 0.000000000000000000 ) ) ;
#118 = ORIENTED_EDGE ( 'NONE', *, *, #68, .F. ) ;
#119 = VECTOR ( 'NONE', #533, 1000.000000000000000 ) ;
#120 = VECTOR ( 'NONE', #457, 1000.000000000000000 ) ;
#121 = DIRECTION ( 'NONE',  ( 1.000000000000000000, 0.000000000000000000, 0.000000000000000000 ) ) ;
#122 = DIRECTION ( 'NONE',  ( 5.782411586589355667E-16, -1.000000000000000000, 0.000000000000000000 ) ) ;
#123 = EDGE_CURVE ( 'NONE', #50, #366, #341, .T. ) ;
#124 = ORIENTED_EDGE ( 'NONE', *, *, #148, .T. ) ;
#125 = CARTESIAN_POINT ( 'NONE',  ( 15.00000000000000000, 0.000000000000000000, 0.000000000000000000 ) ) ;
#126 = EDGE_CURVE ( 'NONE', #151, #327, #136, .T. ) ;
#127 = CARTESIAN_POINT ( 'NONE',  ( 15.00000000000000000, 8.500000000000001776, 30.00000000000000000 ) ) ;
#128 = DIRECTION ( 'NONE',  ( -0.000000000000000000, 0.000000000000000000, 1.000000000000000000 ) ) ;
#129 = DIRECTION ( 'NONE',  ( -0.000000000000000000, -0.000000000000000000, 1.000000000000000000 ) ) ;
#130 = LINE ( 'NONE', #479, #383 ) ;
#131 = CARTESIAN_POINT ( 'NONE',  ( 12.00000000000000178, 11.50000000000000355, -1.387778780781445676E-14 ) ) ;
#132 = CARTESIAN_POINT ( 'NONE',  ( 9.000000000000001776, 17.00000000000000000, -1.387778780781445676E-14 ) ) ;
#133 = VECTOR ( 'NONE', #228, 1000.000000000000000 ) ;
#134 = SURFACE_STYLE_FILL_AREA ( #446 ) ;
#135 = CARTESIAN_POINT ( 'NONE',  ( 12.00000000000000178, 11.50000000000000355, 0.000000000000000000 ) ) ;
#136 = LINE ( 'NONE', #484, #143 ) ;
#137 = DIRECTION ( 'NONE',  ( 0.000000000000000000, -0.000000000000000000, -1.000000000000000000 ) ) ;
#138 = SURFACE_SIDE_STYLE ('',( #134 ) ) ;
#139 = EDGE_CURVE ( 'NONE', #366, #425, #581, .T. ) ;
#140 = ORIENTED_EDGE ( 'NONE', *, *, #53, .T. ) ;
#141 = DIRECTION ( 'NONE',  ( 0.000000000000000000, 0.000000000000000000, -1.000000000000000000 ) ) ;
#142 = CARTESIAN_POINT ( 'NONE',  ( 9.000000000000001776, -7.347880794884120722E-16, 30.00000000000000000 ) ) ;
#143 = VECTOR ( 'NONE', #426, 1000.000000000000000 ) ;
#144 = VECTOR ( 'NONE', #417, 1000.000000000000000 ) ;
#145 = DIRECTION ( 'NONE',  ( 1.000000000000000000, 0.000000000000000000, 0.000000000000000000 ) ) ;
#146 = EDGE_CURVE ( 'NONE', #17, #385, #29, .T. ) ;
#147 = ORIENTED_EDGE ( 'NONE', *, *, #207, .F. ) ;
#148 = EDGE_CURVE ( 'NONE', #296, #449, #302, .T. ) ;
#149 = VERTEX_POINT ( 'NONE', #451 ) ;
#150 = PRESENTATION_LAYER_ASSIGNMENT (  '', '', ( #370 ) ) ;
#151 = VERTEX_POINT ( 'NONE', #493 ) ;
#152 = PRODUCT_DEFINITION_CONTEXT ( 'detailed design', #506, 'design' ) ;
#153 = EDGE_LOOP ( 'NONE', ( #413, #454, #496, #35 ) ) ;
#154 = DIRECTION ( 'NONE',  ( 0.000000000000000000, -1.000000000000000000, 0.000000000000000000 ) ) ;
#155 = DIRECTION ( 'NONE',  ( 0.000000000000000000, 0.000000000000000000, -1.000000000000000000 ) ) ;
#156 = ORIENTED_EDGE ( 'NONE', *, *, #68, .T. ) ;
#157 = LINE ( 'NONE', #407, #284 ) ;
#158 = EDGE_CURVE ( 'NONE', #106, #327, #352, .T. ) ;
#159 = VECTOR ( 'NONE', #85, 1000.000000000000000 ) ;
#160 = ORIENTED_EDGE ( 'NONE', *, *, #173, .F. ) ;
#161 = AXIS2_PLACEMENT_3D ( 'NONE', #337, #526, #121 ) ;
#162 = DIRECTION ( 'NONE',  ( -1.000000000000000000, 0.000000000000000000, -0.000000000000000000 ) ) ;
#163 = DIRECTION ( 'NONE',  ( 0.000000000000000000, 0.000000000000000000, -1.000000000000000000 ) ) ;
#164 = ORIENTED_EDGE ( 'NONE', *, *, #576, .T. ) ;
#165 = LINE ( 'NONE', #115, #384 ) ;
#166 = DIRECTION ( 'NONE',  ( -0.000000000000000000, -0.000000000000000000, 1.000000000000000000 ) ) ;
#167 = PRODUCT_RELATED_PRODUCT_CATEGORY ( 'part', '', ( #424 ) ) ;
#168 = CARTESIAN_POINT ( 'NONE',  ( 0.000000000000000000, 0.000000000000000000, 0.000000000000000000 ) ) ;
#169 = ORIENTED_EDGE ( 'NONE', *, *, #440, .T. ) ;
#170 = ORIENTED_EDGE ( 'NONE', *, *, #191, .T. ) ;
#171 = VECTOR ( 'NONE', #4, 1000.000000000000000 ) ;
#172 = VECTOR ( 'NONE', #455, 1000.000000000000000 ) ;
#173 = EDGE_CURVE ( 'NONE', #30, #106, #42, .T. ) ;
#174 =( LENGTH_UNIT ( ) NAMED_UNIT ( * ) SI_UNIT ( .MILLI., .METRE. ) );
#175 = DIRECTION ( 'NONE',  ( 0.000000000000000000, -1.000000000000000000, 0.000000000000000000 ) ) ;
#176 = DIRECTION ( 'NONE',  ( -0.000000000000000000, -1.000000000000000000, -0.000000000000000000 ) ) ;
#177 = DIRECTION ( 'NONE',  ( -1.000000000000000000, -5.782411586589355667E-16, 0.000000000000000000 ) ) ;
#178 = DIRECTION ( 'NONE',  ( 0.000000000000000000, 0.000000000000000000, 1.000000000000000000 ) ) ;
#179 = CARTESIAN_POINT ( 'NONE',  ( 15.00000000000000000, 20.00000000000000355, 30.00000000000000000 ) ) ;
#180 = ORIENTED_EDGE ( 'NONE', *, *, #99, .F. ) ;
#181 = EDGE_CURVE ( 'NONE', #50, #270, #47, .T. ) ;
#182 = ADVANCED_FACE ( 'NONE', ( #399 ), #354, .F. ) ;
#183 = DIRECTION ( 'NONE',  ( -0.000000000000000000, -0.000000000000000000, 1.000000000000000000 ) ) ;
#184 = FACE_OUTER_BOUND ( 'NONE', #528, .T. ) ;
#185 = PLANE ( 'NONE',  #369 ) ;
#186 = PLANE ( 'NONE',  #227 ) ;
#187 = CARTESIAN_POINT ( 'NONE',  ( 15.00000000000000000, 20.00000000000000355, 30.00000000000000000 ) ) ;
#188 = DIRECTION ( 'NONE',  ( -0.000000000000000000, -0.000000000000000000, 1.000000000000000000 ) ) ;
#189 = VECTOR ( 'NONE', #76, 1000.000000000000000 ) ;
#190 = ORIENTED_EDGE ( 'NONE', *, *, #576, .F. ) ;
#191 = EDGE_CURVE ( 'NONE', #30, #66, #445, .T. ) ;
#192 = DIRECTION ( 'NONE',  ( -1.000000000000000000, -0.000000000000000000, -0.000000000000000000 ) ) ;
#193 = ORIENTED_EDGE ( 'NONE', *, *, #333, .T. ) ;
#194 = ORIENTED_EDGE ( 'NONE', *, *, #126, .F. ) ;
#195 = EDGE_CURVE ( 'NONE', #327, #351, #513, .T. ) ;
#196 = AXIS2_PLACEMENT_3D ( 'NONE', #74, #473, #128 ) ;
#197 = ORIENTED_EDGE ( 'NONE', *, *, #450, .T. ) ;
#198 = CARTESIAN_POINT ( 'NONE',  ( 6.000000000000000000, 3.000000000000000888, 30.00000000000000000 ) ) ;
#199 = LINE ( 'NONE', #433, #310 ) ;
#200 = ORIENTED_EDGE ( 'NONE', *, *, #344, .F. ) ;
#201 = LINE ( 'NONE', #255, #541 ) ;
#202 = DIRECTION ( 'NONE',  ( 0.000000000000000000, -1.000000000000000000, 0.000000000000000000 ) ) ;
#203 = LINE ( 'NONE', #109, #208 ) ;
#204 = ORIENTED_EDGE ( 'NONE', *, *, #59, .F. ) ;
#205 = DIRECTION ( 'NONE',  ( 0.000000000000000000, -0.000000000000000000, -1.000000000000000000 ) ) ;
#206 = FACE_OUTER_BOUND ( 'NONE', #536, .T. ) ;
#207 = EDGE_CURVE ( 'NONE', #499, #351, #49, .T. ) ;
#208 = VECTOR ( 'NONE', #117, 1000.000000000000000 ) ;
#209 = VERTEX_POINT ( 'NONE', #409 ) ;
#210 = CARTESIAN_POINT ( 'NONE',  ( 0.000000000000000000, 0.000000000000000000, 0.000000000000000000 ) ) ;
#211 = ORIENTED_EDGE ( 'NONE', *, *, #274, .T. ) ;
#212 = PLANE ( 'NONE',  #219 ) ;
#213 = FACE_OUTER_BOUND ( 'NONE', #315, .T. ) ;
#214 = PLANE ( 'NONE',  #324 ) ;
#215 = ORIENTED_EDGE ( 'NONE', *, *, #503, .T. ) ;
#216 = EDGE_CURVE ( 'NONE', #464, #458, #199, .T. ) ;
#217 = ORIENTED_EDGE ( 'NONE', *, *, #440, .F. ) ;
#218 = VECTOR ( 'NONE', #183, 1000.000000000000000 ) ;
#219 = AXIS2_PLACEMENT_3D ( 'NONE', #287, #249, #64 ) ;
#220 = UNCERTAINTY_MEASURE_WITH_UNIT (LENGTH_MEASURE( 1.000000000000000082E-05 ), #174, 'distance_accuracy_value', 'NONE');
#221 = ORIENTED_EDGE ( 'NONE', *, *, #195, .T. ) ;
#222 = CARTESIAN_POINT ( 'NONE',  ( 15.00000000000000000, 0.000000000000000000, 30.00000000000000000 ) ) ;
#223 = EDGE_LOOP ( 'NONE', ( #314, #204, #263, #124 ) ) ;
#224 = DIRECTION ( 'NONE',  ( -0.000000000000000000, -0.000000000000000000, 1.000000000000000000 ) ) ;
#225 = VECTOR ( 'NONE', #387, 1000.000000000000000 ) ;
#226 = CARTESIAN_POINT ( 'NONE',  ( 12.00000000000000355, 8.500000000000001776, -1.387778780781445676E-14 ) ) ;
#227 = AXIS2_PLACEMENT_3D ( 'NONE', #502, #242, #155 ) ;
#228 = DIRECTION ( 'NONE',  ( -0.000000000000000000, -1.000000000000000000, -0.000000000000000000 ) ) ;
#229 = EDGE_CURVE ( 'NONE', #397, #562, #33, .T. ) ;
#230 = ORIENTED_EDGE ( 'NONE', *, *, #322, .T. ) ;
#231 = DIRECTION ( 'NONE',  ( 0.000000000000000000, 1.000000000000000000, 0.000000000000000000 ) ) ;
#232 = ORIENTED_EDGE ( 'NONE', *, *, #539, .F. ) ;
#233 = ORIENTED_EDGE ( 'NONE', *, *, #216, .F. ) ;
#234 = CARTESIAN_POINT ( 'NONE',  ( 9.000000000000001776, 20.00000000000000355, 30.00000000000000000 ) ) ;
#235 = DIRECTION ( 'NONE',  ( -1.000000000000000000, 0.000000000000000000, 0.000000000000000000 ) ) ;
#236 = EDGE_LOOP ( 'NONE', ( #452, #5, #101, #271 ) ) ;
#237 = EDGE_CURVE ( 'NONE', #41, #30, #130, .T. ) ;
#238 = FACE_OUTER_BOUND ( 'NONE', #514, .T. ) ;
#239 = ORIENTED_EDGE ( 'NONE', *, *, #123, .F. ) ;
#240 = CARTESIAN_POINT ( 'NONE',  ( 6.000000000000000000, 20.00000000000000355, -1.387778780781445676E-14 ) ) ;
#241 = VECTOR ( 'NONE', #518, 1000.000000000000000 ) ;
#242 = DIRECTION ( 'NONE',  ( 1.000000000000000000, -0.000000000000000000, 0.000000000000000000 ) ) ;
#243 = ORIENTED_EDGE ( 'NONE', *, *, #408, .T. ) ;
#244 = CARTESIAN_POINT ( 'NONE',  ( 6.000000000000000000, 0.000000000000000000, 30.00000000000000000 ) ) ;
#245 = CARTESIAN_POINT ( 'NONE',  ( 9.000000000000001776, 3.000000000000001332, -1.387778780781445676E-14 ) ) ;
#246 = EDGE_LOOP ( 'NONE', ( #193, #428, #254, #494, #410, #400, #261, #474, #277, #197, #215, #164, #248, #200, #243, #355 ) ) ;
#247 = DIRECTION ( 'NONE',  ( 0.000000000000000000, 1.000000000000000000, 0.000000000000000000 ) ) ;
#248 = ORIENTED_EDGE ( 'NONE', *, *, #146, .F. ) ;
#249 = DIRECTION ( 'NONE',  ( 0.000000000000000000, 0.000000000000000000, -1.000000000000000000 ) ) ;
#250 = CARTESIAN_POINT ( 'NONE',  ( 6.000000000000000000, 0.000000000000000000, -1.387778780781445676E-14 ) ) ;
#251 = FACE_OUTER_BOUND ( 'NONE', #153, .T. ) ;
#252 = CARTESIAN_POINT ( 'NONE',  ( 15.00000000000000355, 11.50000000000000355, -1.387778780781445676E-14 ) ) ;
#253 = COLOUR_RGB ( '',0.7921568627450980005, 0.8196078431372548767, 0.9333333333333333481 ) ;
#254 = ORIENTED_EDGE ( 'NONE', *, *, #229, .F. ) ;
#255 = CARTESIAN_POINT ( 'NONE',  ( 6.000000000000000000, 20.00000000000000355, 30.00000000000000000 ) ) ;
#256 = PLANE ( 'NONE',  #7 ) ;
#257 = VERTEX_POINT ( 'NONE', #486 ) ;
#258 = SHAPE_DEFINITION_REPRESENTATION ( #441, #375 ) ;
#259 = EDGE_CURVE ( 'NONE', #468, #81, #495, .T. ) ;
#260 = LINE ( 'NONE', #531, #580 ) ;
#261 = ORIENTED_EDGE ( 'NONE', *, *, #438, .T. ) ;
#262 = CARTESIAN_POINT ( 'NONE',  ( 6.000000000000000000, 17.00000000000000000, -1.387778780781445676E-14 ) ) ;
#263 = ORIENTED_EDGE ( 'NONE', *, *, #450, .F. ) ;
#264 =( GEOMETRIC_REPRESENTATION_CONTEXT ( 3 ) GLOBAL_UNCERTAINTY_ASSIGNED_CONTEXT ( ( #220 ) ) GLOBAL_UNIT_ASSIGNED_CONTEXT ( ( #174, #291, #568 ) ) REPRESENTATION_CONTEXT ( 'NONE', 'WORKASPACE' ) );
#265 = PLANE ( 'NONE',  #69 ) ;
#266 = LINE ( 'NONE', #481, #159 ) ;
#267 = LINE ( 'NONE', #349, #37 ) ;
#268 = DIRECTION ( 'NONE',  ( 0.000000000000000000, -0.000000000000000000, -1.000000000000000000 ) ) ;
#269 = VECTOR ( 'NONE', #368, 1000.000000000000000 ) ;
#270 = VERTEX_POINT ( 'NONE', #234 ) ;
#271 = ORIENTED_EDGE ( 'NONE', *, *, #448, .T. ) ;
#272 = ORIENTED_EDGE ( 'NONE', *, *, #429, .T. ) ;
#273 = CLOSED_SHELL ( 'NONE', ( #357, #432, #105, #24, #87, #182, #13, #361, #335, #312, #395, #546, #402, #40, #583, #79, #517, #482 ) ) ;
#274 = EDGE_CURVE ( 'NONE', #95, #106, #548, .T. ) ;
#275 = VECTOR ( 'NONE', #553, 1000.000000000000000 ) ;
#276 = PRODUCT_DEFINITION ( 'UNKNOWN', '', #285, #152 ) ;
#277 = ORIENTED_EDGE ( 'NONE', *, *, #53, .F. ) ;
#278 = ORIENTED_EDGE ( 'NONE', *, *, #542, .T. ) ;
#279 = CARTESIAN_POINT ( 'NONE',  ( 6.000000000000000000, 17.00000000000000000, -1.387778780781445676E-14 ) ) ;
#280 = VERTEX_POINT ( 'NONE', #501 ) ;
#281 = DIRECTION ( 'NONE',  ( 0.000000000000000000, -0.000000000000000000, 1.000000000000000000 ) ) ;
#282 = CARTESIAN_POINT ( 'NONE',  ( 12.00000000000000355, 8.500000000000001776, -1.387778780781445676E-14 ) ) ;
#283 = VECTOR ( 'NONE', #224, 1000.000000000000000 ) ;
#284 = VECTOR ( 'NONE', #364, 1000.000000000000000 ) ;
#285 = PRODUCT_DEFINITION_FORMATION_WITH_SPECIFIED_SOURCE ( 'ANY', '', #424, .NOT_KNOWN. ) ;
#286 = ORIENTED_EDGE ( 'NONE', *, *, #83, .F. ) ;
#287 = CARTESIAN_POINT ( 'NONE',  ( 0.000000000000000000, 0.000000000000000000, 30.00000000000000000 ) ) ;
#288 = EDGE_CURVE ( 'NONE', #81, #270, #579, .T. ) ;
#289 = ORIENTED_EDGE ( 'NONE', *, *, #103, .F. ) ;
#290 = FACE_OUTER_BOUND ( 'NONE', #63, .T. ) ;
#291 =( NAMED_UNIT ( * ) PLANE_ANGLE_UNIT ( ) SI_UNIT ( $, .RADIAN. ) );
#292 = ORIENTED_EDGE ( 'NONE', *, *, #288, .T. ) ;
#293 = CARTESIAN_POINT ( 'NONE',  ( 15.00000000000000000, 0.000000000000000000, 30.00000000000000000 ) ) ;
#294 = CARTESIAN_POINT ( 'NONE',  ( 0.000000000000000000, 20.00000000000000355, 30.00000000000000000 ) ) ;
#295 = VECTOR ( 'NONE', #202, 1000.000000000000000 ) ;
#296 = VERTEX_POINT ( 'NONE', #469 ) ;
#297 = EDGE_CURVE ( 'NONE', #280, #416, #382, .T. ) ;
#298 = PLANE ( 'NONE',  #196 ) ;
#299 = VERTEX_POINT ( 'NONE', #135 ) ;
#300 = LINE ( 'NONE', #578, #434 ) ;
#301 = PLANE ( 'NONE',  #353 ) ;
#302 = LINE ( 'NONE', #475, #18 ) ;
#303 =( NAMED_UNIT ( * ) SI_UNIT ( $, .STERADIAN. ) SOLID_ANGLE_UNIT ( ) );
#304 = EDGE_LOOP ( 'NONE', ( #292, #217, #519, #110 ) ) ;
#305 = DIRECTION ( 'NONE',  ( 0.000000000000000000, 1.000000000000000000, 0.000000000000000000 ) ) ;
#306 = LINE ( 'NONE', #540, #348 ) ;
#307 = CARTESIAN_POINT ( 'NONE',  ( 12.00000000000000178, 11.50000000000000355, -1.387778780781445676E-14 ) ) ;
#308 = PLANE ( 'NONE',  #44 ) ;
#309 = LINE ( 'NONE', #577, #90 ) ;
#310 = VECTOR ( 'NONE', #27, 1000.000000000000000 ) ;
#311 = VECTOR ( 'NONE', #462, 1000.000000000000000 ) ;
#312 = ADVANCED_FACE ( 'NONE', ( #184 ), #298, .F. ) ;
#313 = CARTESIAN_POINT ( 'NONE',  ( 15.00000000000000000, 0.000000000000000000, 30.00000000000000000 ) ) ;
#314 = ORIENTED_EDGE ( 'NONE', *, *, #539, .T. ) ;
#315 = EDGE_LOOP ( 'NONE', ( #489, #420, #190, #504 ) ) ;
#316 = EDGE_LOOP ( 'NONE', ( #318, #289, #346, #46 ) ) ;
#317 = DIRECTION ( 'NONE',  ( 0.000000000000000000, -1.000000000000000000, 0.000000000000000000 ) ) ;
#318 = ORIENTED_EDGE ( 'NONE', *, *, #83, .T. ) ;
#319 = LINE ( 'NONE', #520, #91 ) ;
#320 = EDGE_CURVE ( 'NONE', #416, #81, #260, .T. ) ;
#321 = FACE_OUTER_BOUND ( 'NONE', #456, .T. ) ;
#322 = EDGE_CURVE ( 'NONE', #149, #464, #567, .T. ) ;
#323 = LINE ( 'NONE', #571, #510 ) ;
#324 = AXIS2_PLACEMENT_3D ( 'NONE', #104, #58, #137 ) ;
#325 = CARTESIAN_POINT ( 'NONE',  ( 12.00000000000000355, 8.500000000000001776, 30.00000000000000000 ) ) ;
#326 = VECTOR ( 'NONE', #563, 1000.000000000000000 ) ;
#327 = VERTEX_POINT ( 'NONE', #198 ) ;
#328 = FACE_OUTER_BOUND ( 'NONE', #380, .T. ) ;
#329 = LINE ( 'NONE', #422, #572 ) ;
#330 = CARTESIAN_POINT ( 'NONE',  ( 9.000000000000001776, 17.00000000000000000, 30.00000000000000000 ) ) ;
#331 = ORIENTED_EDGE ( 'NONE', *, *, #288, .F. ) ;
#332 = PLANE ( 'NONE',  #418 ) ;
#333 = EDGE_CURVE ( 'NONE', #151, #499, #367, .T. ) ;
#334 = PLANE ( 'NONE',  #358 ) ;
#335 = ADVANCED_FACE ( 'NONE', ( #557 ), #411, .T. ) ;
#336 = VERTEX_POINT ( 'NONE', #461 ) ;
#337 = CARTESIAN_POINT ( 'NONE',  ( 0.000000000000000000, 0.000000000000000000, 0.000000000000000000 ) ) ;
#338 = CARTESIAN_POINT ( 'NONE',  ( 9.000000000000001776, 17.00000000000000000, -1.387778780781445676E-14 ) ) ;
#339 = ORIENTED_EDGE ( 'NONE', *, *, #237, .T. ) ;
#340 = FACE_OUTER_BOUND ( 'NONE', #316, .T. ) ;
#341 = LINE ( 'NONE', #179, #119 ) ;
#342 = DIRECTION ( 'NONE',  ( -0.000000000000000000, -0.000000000000000000, 1.000000000000000000 ) ) ;
#343 = CARTESIAN_POINT ( 'NONE',  ( 15.00000000000000000, 0.000000000000000000, 30.00000000000000000 ) ) ;
#344 = EDGE_CURVE ( 'NONE', #41, #17, #15, .T. ) ;
#345 = FILL_AREA_STYLE_COLOUR ( '', #253 ) ;
#346 = ORIENTED_EDGE ( 'NONE', *, *, #503, .F. ) ;
#347 = VECTOR ( 'NONE', #231, 1000.000000000000000 ) ;
#348 = VECTOR ( 'NONE', #145, 1000.000000000000000 ) ;
#349 = CARTESIAN_POINT ( 'NONE',  ( 15.00000000000000000, 0.000000000000000000, 0.000000000000000000 ) ) ;
#350 = PRESENTATION_STYLE_ASSIGNMENT (( #391 ) ) ;
#351 = VERTEX_POINT ( 'NONE', #244 ) ;
#352 = LINE ( 'NONE', #45, #171 ) ;
#353 = AXIS2_PLACEMENT_3D ( 'NONE', #532, #84, #561 ) ;
#354 = PLANE ( 'NONE',  #442 ) ;
#355 = ORIENTED_EDGE ( 'NONE', *, *, #31, .T. ) ;
#356 = ORIENTED_EDGE ( 'NONE', *, *, #181, .T. ) ;
#357 = ADVANCED_FACE ( 'NONE', ( #377 ), #332, .F. ) ;
#358 = AXIS2_PLACEMENT_3D ( 'NONE', #245, #511, #564 ) ;
#359 = CARTESIAN_POINT ( 'NONE',  ( 0.000000000000000000, 0.000000000000000000, 30.00000000000000000 ) ) ;
#360 = ORIENTED_EDGE ( 'NONE', *, *, #498, .F. ) ;
#361 = ADVANCED_FACE ( 'NONE', ( #328 ), #212, .F. ) ;
#362 = DIRECTION ( 'NONE',  ( 0.000000000000000000, 1.000000000000000000, 0.000000000000000000 ) ) ;
#363 = ORIENTED_EDGE ( 'NONE', *, *, #229, .T. ) ;
#364 = DIRECTION ( 'NONE',  ( -1.000000000000000000, -0.000000000000000000, -0.000000000000000000 ) ) ;
#365 = DIRECTION ( 'NONE',  ( 1.000000000000000000, -0.000000000000000000, 0.000000000000000000 ) ) ;
#366 = VERTEX_POINT ( 'NONE', #51 ) ;
#367 = LINE ( 'NONE', #102, #326 ) ;
#368 = DIRECTION ( 'NONE',  ( -0.000000000000000000, -0.000000000000000000, -1.000000000000000000 ) ) ;
#369 = AXIS2_PLACEMENT_3D ( 'NONE', #307, #177, #483 ) ;
#370 = STYLED_ITEM ( 'NONE', ( #350 ), #477 ) ;
#371 = CARTESIAN_POINT ( 'NONE',  ( 6.000000000000000000, 3.000000000000000888, 30.00000000000000000 ) ) ;
#372 = EDGE_CURVE ( 'NONE', #464, #416, #201, .T. ) ;
#373 = ORIENTED_EDGE ( 'NONE', *, *, #322, .F. ) ;
#374 = DIRECTION ( 'NONE',  ( 0.000000000000000000, -0.000000000000000000, 1.000000000000000000 ) ) ;
#375 = ADVANCED_BREP_SHAPE_REPRESENTATION ( 'Rk2i', ( #477, #161 ), #264 ) ;
#376 = ORIENTED_EDGE ( 'NONE', *, *, #123, .T. ) ;
#377 = FACE_OUTER_BOUND ( 'NONE', #236, .T. ) ;
#378 = CARTESIAN_POINT ( 'NONE',  ( 9.000000000000001776, 17.00000000000000000, 30.00000000000000000 ) ) ;
#379 = DIRECTION ( 'NONE',  ( -0.000000000000000000, -0.000000000000000000, 1.000000000000000000 ) ) ;
#380 = EDGE_LOOP ( 'NONE', ( #543, #86, #3, #160, #170, #508, #10, #286, #232, #523, #356, #331, #403, #405, #460, #156 ) ) ;
#381 = EDGE_CURVE ( 'NONE', #149, #397, #157, .T. ) ;
#382 = LINE ( 'NONE', #262, #535 ) ;
#383 = VECTOR ( 'NONE', #379, 1000.000000000000000 ) ;
#384 = VECTOR ( 'NONE', #98, 1000.000000000000000 ) ;
#385 = VERTEX_POINT ( 'NONE', #61 ) ;
#386 =( NAMED_UNIT ( * ) PLANE_ANGLE_UNIT ( ) SI_UNIT ( $, .RADIAN. ) );
#387 = DIRECTION ( 'NONE',  ( 0.000000000000000000, 1.000000000000000000, 0.000000000000000000 ) ) ;
#388 = EDGE_CURVE ( 'NONE', #449, #50, #551, .T. ) ;
#389 = FACE_OUTER_BOUND ( 'NONE', #28, .T. ) ;
#390 = DIRECTION ( 'NONE',  ( -1.000000000000000000, 0.000000000000000000, 0.000000000000000000 ) ) ;
#391 = SURFACE_STYLE_USAGE ( .BOTH. , #138 ) ;
#392 = VECTOR ( 'NONE', #423, 1000.000000000000000 ) ;
#393 = MECHANICAL_DESIGN_GEOMETRIC_PRESENTATION_REPRESENTATION (  '', ( #370 ), #466 ) ;
#394 = DIRECTION ( 'NONE',  ( -0.000000000000000000, -0.000000000000000000, -1.000000000000000000 ) ) ;
#395 = ADVANCED_FACE ( 'NONE', ( #321 ), #515, .F. ) ;
#396 = FACE_OUTER_BOUND ( 'NONE', #8, .T. ) ;
#397 = VERTEX_POINT ( 'NONE', #9 ) ;
#398 = EDGE_CURVE ( 'NONE', #562, #499, #319, .T. ) ;
#399 = FACE_OUTER_BOUND ( 'NONE', #447, .T. ) ;
#400 = ORIENTED_EDGE ( 'NONE', *, *, #472, .T. ) ;
#401 = EDGE_LOOP ( 'NONE', ( #55, #169, #94, #376 ) ) ;
#402 = ADVANCED_FACE ( 'NONE', ( #505 ), #509, .F. ) ;
#403 = ORIENTED_EDGE ( 'NONE', *, *, #320, .F. ) ;
#404 = CARTESIAN_POINT ( 'NONE',  ( 6.000000000000000000, 0.000000000000000000, -1.387778780781445676E-14 ) ) ;
#405 = ORIENTED_EDGE ( 'NONE', *, *, #372, .F. ) ;
#406 = VECTOR ( 'NONE', #129, 1000.000000000000000 ) ;
#407 = CARTESIAN_POINT ( 'NONE',  ( 0.000000000000000000, 20.00000000000000355, 0.000000000000000000 ) ) ;
#408 = EDGE_CURVE ( 'NONE', #41, #95, #165, .T. ) ;
#409 = CARTESIAN_POINT ( 'NONE',  ( 0.000000000000000000, 0.000000000000000000, 30.00000000000000000 ) ) ;
#410 = ORIENTED_EDGE ( 'NONE', *, *, #498, .T. ) ;
#411 = PLANE ( 'NONE',  #559 ) ;
#412 = PLANE ( 'NONE',  #54 ) ;
#413 = ORIENTED_EDGE ( 'NONE', *, *, #191, .F. ) ;
#414 = CARTESIAN_POINT ( 'NONE',  ( 9.000000000000001776, 20.00000000000000355, -1.387778780781445676E-14 ) ) ;
#415 = CARTESIAN_POINT ( 'NONE',  ( 6.000000000000000000, 20.00000000000000355, -1.387778780781445676E-14 ) ) ;
#416 = VERTEX_POINT ( 'NONE', #19 ) ;
#417 = DIRECTION ( 'NONE',  ( 1.000000000000000000, 0.000000000000000000, 0.000000000000000000 ) ) ;
#418 = AXIS2_PLACEMENT_3D ( 'NONE', #11, #362, #281 ) ;
#419 = DIRECTION ( 'NONE',  ( -1.000000000000000000, 0.000000000000000000, 0.000000000000000000 ) ) ;
#420 = ORIENTED_EDGE ( 'NONE', *, *, #492, .F. ) ;
#421 = PLANE ( 'NONE',  #490 ) ;
#422 = CARTESIAN_POINT ( 'NONE',  ( 0.000000000000000000, 0.000000000000000000, 30.00000000000000000 ) ) ;
#423 = DIRECTION ( 'NONE',  ( -0.000000000000000000, -0.000000000000000000, 1.000000000000000000 ) ) ;
#424 = PRODUCT ( 'Rk2i', 'Rk2i', '', ( #470 ) ) ;
#425 = VERTEX_POINT ( 'NONE', #414 ) ;
#426 = DIRECTION ( 'NONE',  ( -0.000000000000000000, -0.000000000000000000, 1.000000000000000000 ) ) ;
#427 = LINE ( 'NONE', #294, #269 ) ;
#428 = ORIENTED_EDGE ( 'NONE', *, *, #398, .F. ) ;
#429 = EDGE_CURVE ( 'NONE', #66, #17, #111, .T. ) ;
#430 = UNCERTAINTY_MEASURE_WITH_UNIT (LENGTH_MEASURE( 1.000000000000000082E-05 ), #92, 'distance_accuracy_value', 'NONE');
#431 = AXIS2_PLACEMENT_3D ( 'NONE', #555, #65, #512 ) ;
#432 = ADVANCED_FACE ( 'NONE', ( #290 ), #421, .F. ) ;
#433 = CARTESIAN_POINT ( 'NONE',  ( 0.000000000000000000, 20.00000000000000355, 30.00000000000000000 ) ) ;
#434 = VECTOR ( 'NONE', #394, 1000.000000000000000 ) ;
#435 = CARTESIAN_POINT ( 'NONE',  ( 0.000000000000000000, 20.00000000000000355, 30.00000000000000000 ) ) ;
#436 = DIRECTION ( 'NONE',  ( 1.000000000000000000, 0.000000000000000000, 0.000000000000000000 ) ) ;
#437 = CARTESIAN_POINT ( 'NONE',  ( 15.00000000000000355, 11.50000000000000355, 30.00000000000000000 ) ) ;
#438 = EDGE_CURVE ( 'NONE', #468, #425, #485, .T. ) ;
#439 = VERTEX_POINT ( 'NONE', #226 ) ;
#440 = EDGE_CURVE ( 'NONE', #425, #270, #266, .T. ) ;
#441 = PRODUCT_DEFINITION_SHAPE ( 'NONE', 'NONE',  #276 ) ;
#442 = AXIS2_PLACEMENT_3D ( 'NONE', #313, #235, #487 ) ;
#443 = LINE ( 'NONE', #39, #133 ) ;
#444 = VECTOR ( 'NONE', #116, 1000.000000000000000 ) ;
#445 = LINE ( 'NONE', #359, #488 ) ;
#446 = FILL_AREA_STYLE ('',( #345 ) ) ;
#447 = EDGE_LOOP ( 'NONE', ( #550, #75, #140, #239 ) ) ;
#448 = EDGE_CURVE ( 'NONE', #209, #562, #300, .T. ) ;
#449 = VERTEX_POINT ( 'NONE', #437 ) ;
#450 = EDGE_CURVE ( 'NONE', #296, #299, #525, .T. ) ;
#451 = CARTESIAN_POINT ( 'NONE',  ( 6.000000000000000000, 20.00000000000000355, -1.387778780781445676E-14 ) ) ;
#452 = ORIENTED_EDGE ( 'NONE', *, *, #398, .T. ) ;
#453 = VERTEX_POINT ( 'NONE', #127 ) ;
#454 = ORIENTED_EDGE ( 'NONE', *, *, #237, .F. ) ;
#455 = DIRECTION ( 'NONE',  ( -0.000000000000000000, -0.000000000000000000, -1.000000000000000000 ) ) ;
#456 = EDGE_LOOP ( 'NONE', ( #566, #60, #96, #21 ) ) ;
#457 = DIRECTION ( 'NONE',  ( -0.000000000000000000, -0.000000000000000000, 1.000000000000000000 ) ) ;
#458 = VERTEX_POINT ( 'NONE', #73 ) ;
#459 = CARTESIAN_POINT ( 'NONE',  ( 15.00000000000000355, 11.50000000000000355, -1.387778780781445676E-14 ) ) ;
#460 = ORIENTED_EDGE ( 'NONE', *, *, #216, .T. ) ;
#461 = CARTESIAN_POINT ( 'NONE',  ( 12.00000000000000178, 11.50000000000000355, 30.00000000000000000 ) ) ;
#462 = DIRECTION ( 'NONE',  ( 1.000000000000000000, 0.000000000000000000, 0.000000000000000000 ) ) ;
#463 = CARTESIAN_POINT ( 'NONE',  ( 12.00000000000000178, 11.50000000000000355, 30.00000000000000000 ) ) ;
#464 = VERTEX_POINT ( 'NONE', #26 ) ;
#465 = LINE ( 'NONE', #415, #295 ) ;
#466 =( GEOMETRIC_REPRESENTATION_CONTEXT ( 3 ) GLOBAL_UNCERTAINTY_ASSIGNED_CONTEXT ( ( #430 ) ) GLOBAL_UNIT_ASSIGNED_CONTEXT ( ( #92, #386, #303 ) ) REPRESENTATION_CONTEXT ( 'NONE', 'WORKASPACE' ) );
#467 = VECTOR ( 'NONE', #419, 1000.000000000000000 ) ;
#468 = VERTEX_POINT ( 'NONE', #338 ) ;
#469 = CARTESIAN_POINT ( 'NONE',  ( 15.00000000000000355, 11.50000000000000355, -1.387778780781445676E-14 ) ) ;
#470 = PRODUCT_CONTEXT ( 'NONE', #476, 'mechanical' ) ;
#471 = LINE ( 'NONE', #72, #392 ) ;
#472 = EDGE_CURVE ( 'NONE', #280, #468, #306, .T. ) ;
#473 = DIRECTION ( 'NONE',  ( -1.000000000000000000, 0.000000000000000000, -0.000000000000000000 ) ) ;
#474 = ORIENTED_EDGE ( 'NONE', *, *, #139, .F. ) ;
#475 = CARTESIAN_POINT ( 'NONE',  ( 15.00000000000000355, 11.50000000000000355, -1.387778780781445676E-14 ) ) ;
#476 = APPLICATION_CONTEXT ( 'automotive_design' ) ;
#477 = MANIFOLD_SOLID_BREP ( 'Schnitt-Linear austragen1', #273 ) ;
#478 = ORIENTED_EDGE ( 'NONE', *, *, #297, .F. ) ;
#479 = CARTESIAN_POINT ( 'NONE',  ( 9.000000000000001776, -7.347880794884120722E-16, -1.387778780781445676E-14 ) ) ;
#480 = CARTESIAN_POINT ( 'NONE',  ( 15.00000000000000000, 0.000000000000000000, 0.000000000000000000 ) ) ;
#481 = CARTESIAN_POINT ( 'NONE',  ( 9.000000000000001776, 20.00000000000000355, -1.387778780781445676E-14 ) ) ;
#482 = ADVANCED_FACE ( 'NONE', ( #238 ), #186, .F. ) ;
#483 = DIRECTION ( 'NONE',  ( 5.782411586589355667E-16, -1.000000000000000000, 0.000000000000000000 ) ) ;
#484 = CARTESIAN_POINT ( 'NONE',  ( 6.000000000000000000, 3.000000000000000888, -1.387778780781445676E-14 ) ) ;
#485 = LINE ( 'NONE', #132, #527 ) ;
#486 = CARTESIAN_POINT ( 'NONE',  ( 12.00000000000000355, 8.500000000000001776, 30.00000000000000000 ) ) ;
#487 = DIRECTION ( 'NONE',  ( 0.000000000000000000, 0.000000000000000000, 1.000000000000000000 ) ) ;
#488 = VECTOR ( 'NONE', #549, 1000.000000000000000 ) ;
#489 = ORIENTED_EDGE ( 'NONE', *, *, #89, .T. ) ;
#490 = AXIS2_PLACEMENT_3D ( 'NONE', #222, #390, #178 ) ;
#491 = ORIENTED_EDGE ( 'NONE', *, *, #448, .F. ) ;
#492 = EDGE_CURVE ( 'NONE', #385, #453, #323, .T. ) ;
#493 = CARTESIAN_POINT ( 'NONE',  ( 6.000000000000000000, 3.000000000000000888, -1.387778780781445676E-14 ) ) ;
#494 = ORIENTED_EDGE ( 'NONE', *, *, #381, .F. ) ;
#495 = LINE ( 'NONE', #6, #218 ) ;
#496 = ORIENTED_EDGE ( 'NONE', *, *, #344, .T. ) ;
#497 = AXIS2_PLACEMENT_3D ( 'NONE', #459, #247, #374 ) ;
#498 = EDGE_CURVE ( 'NONE', #149, #280, #465, .T. ) ;
#499 = VERTEX_POINT ( 'NONE', #250 ) ;
#500 = DIRECTION ( 'NONE',  ( 1.000000000000000000, 0.000000000000000000, 0.000000000000000000 ) ) ;
#501 = CARTESIAN_POINT ( 'NONE',  ( 6.000000000000000000, 17.00000000000000000, 0.000000000000000000 ) ) ;
#502 = CARTESIAN_POINT ( 'NONE',  ( 9.000000000000001776, -7.347880794884120722E-16, -1.387778780781445676E-14 ) ) ;
#503 = EDGE_CURVE ( 'NONE', #299, #439, #16, .T. ) ;
#504 = ORIENTED_EDGE ( 'NONE', *, *, #103, .T. ) ;
#505 = FACE_OUTER_BOUND ( 'NONE', #223, .T. ) ;
#506 = APPLICATION_CONTEXT ( 'automotive_design' ) ;
#507 = PLANE ( 'NONE',  #431 ) ;
#508 = ORIENTED_EDGE ( 'NONE', *, *, #99, .T. ) ;
#509 = PLANE ( 'NONE',  #497 ) ;
#510 = VECTOR ( 'NONE', #166, 1000.000000000000000 ) ;
#511 = DIRECTION ( 'NONE',  ( -1.445602896647338917E-16, 1.000000000000000000, 0.000000000000000000 ) ) ;
#512 = DIRECTION ( 'NONE',  ( 0.000000000000000000, -0.000000000000000000, 1.000000000000000000 ) ) ;
#513 = LINE ( 'NONE', #371, #241 ) ;
#514 = EDGE_LOOP ( 'NONE', ( #43, #114, #97, #339 ) ) ;
#515 = PLANE ( 'NONE',  #1 ) ;
#516 = DIRECTION ( 'NONE',  ( 0.000000000000000000, -0.000000000000000000, -1.000000000000000000 ) ) ;
#517 = ADVANCED_FACE ( 'NONE', ( #206 ), #334, .F. ) ;
#518 = DIRECTION ( 'NONE',  ( 0.000000000000000000, -1.000000000000000000, 0.000000000000000000 ) ) ;
#519 = ORIENTED_EDGE ( 'NONE', *, *, #438, .F. ) ;
#520 = CARTESIAN_POINT ( 'NONE',  ( 0.000000000000000000, 0.000000000000000000, 0.000000000000000000 ) ) ;
#521 = CARTESIAN_POINT ( 'NONE',  ( 12.00000000000000178, 11.50000000000000355, -1.387778780781445676E-14 ) ) ;
#522 = DIRECTION ( 'NONE',  ( 1.000000000000000000, 0.000000000000000000, 0.000000000000000000 ) ) ;
#523 = ORIENTED_EDGE ( 'NONE', *, *, #388, .T. ) ;
#524 = CARTESIAN_POINT ( 'NONE',  ( 0.000000000000000000, 20.00000000000000355, 0.000000000000000000 ) ) ;
#525 = LINE ( 'NONE', #252, #467 ) ;
#526 = DIRECTION ( 'NONE',  ( 0.000000000000000000, 0.000000000000000000, 1.000000000000000000 ) ) ;
#527 = VECTOR ( 'NONE', #305, 1000.000000000000000 ) ;
#528 = EDGE_LOOP ( 'NONE', ( #569, #478, #360, #230 ) ) ;
#529 = CARTESIAN_POINT ( 'NONE',  ( 15.00000000000000355, 11.50000000000000355, 30.00000000000000000 ) ) ;
#530 = CARTESIAN_POINT ( 'NONE',  ( 9.000000000000001776, -7.347880794884120722E-16, -1.387778780781445676E-14 ) ) ;
#531 = CARTESIAN_POINT ( 'NONE',  ( 6.000000000000000000, 17.00000000000000000, 30.00000000000000000 ) ) ;
#532 = CARTESIAN_POINT ( 'NONE',  ( 6.000000000000000000, 3.000000000000000888, -1.387778780781445676E-14 ) ) ;
#533 = DIRECTION ( 'NONE',  ( -0.000000000000000000, -0.000000000000000000, -1.000000000000000000 ) ) ;
#534 = VECTOR ( 'NONE', #122, 1000.000000000000000 ) ;
#535 = VECTOR ( 'NONE', #342, 1000.000000000000000 ) ;
#536 = EDGE_LOOP ( 'NONE', ( #574, #194, #80, #211 ) ) ;
#537 = CARTESIAN_POINT ( 'NONE',  ( 0.000000000000000000, 20.00000000000000355, 30.00000000000000000 ) ) ;
#538 = CARTESIAN_POINT ( 'NONE',  ( 9.000000000000001776, 3.000000000000001332, 30.00000000000000000 ) ) ;
#539 = EDGE_CURVE ( 'NONE', #449, #336, #62, .T. ) ;
#540 = CARTESIAN_POINT ( 'NONE',  ( 6.000000000000000000, 17.00000000000000000, -1.387778780781445676E-14 ) ) ;
#541 = VECTOR ( 'NONE', #317, 1000.000000000000000 ) ;
#542 = EDGE_CURVE ( 'NONE', #458, #397, #427, .T. ) ;
#543 = ORIENTED_EDGE ( 'NONE', *, *, #558, .T. ) ;
#544 = ORIENTED_EDGE ( 'NONE', *, *, #126, .T. ) ;
#545 = CARTESIAN_POINT ( 'NONE',  ( 9.000000000000001776, 3.000000000000001332, -1.387778780781445676E-14 ) ) ;
#546 = ADVANCED_FACE ( 'NONE', ( #560 ), #256, .F. ) ;
#547 = ORIENTED_EDGE ( 'NONE', *, *, #492, .T. ) ;
#548 = LINE ( 'NONE', #545, #283 ) ;
#549 = DIRECTION ( 'NONE',  ( 1.000000000000000000, 0.000000000000000000, 0.000000000000000000 ) ) ;
#550 = ORIENTED_EDGE ( 'NONE', *, *, #388, .F. ) ;
#551 = LINE ( 'NONE', #56, #275 ) ;
#552 = EDGE_LOOP ( 'NONE', ( #363, #491, #118, #278 ) ) ;
#553 = DIRECTION ( 'NONE',  ( 0.000000000000000000, 1.000000000000000000, 0.000000000000000000 ) ) ;
#554 = LINE ( 'NONE', #57, #311 ) ;
#555 = CARTESIAN_POINT ( 'NONE',  ( 0.000000000000000000, 0.000000000000000000, 30.00000000000000000 ) ) ;
#556 = ORIENTED_EDGE ( 'NONE', *, *, #542, .F. ) ;
#557 = FACE_OUTER_BOUND ( 'NONE', #246, .T. ) ;
#558 = EDGE_CURVE ( 'NONE', #209, #351, #329, .T. ) ;
#559 = AXIS2_PLACEMENT_3D ( 'NONE', #210, #107, #162 ) ;
#560 = FACE_OUTER_BOUND ( 'NONE', #304, .T. ) ;
#561 = DIRECTION ( 'NONE',  ( -0.000000000000000000, 0.000000000000000000, 1.000000000000000000 ) ) ;
#562 = VERTEX_POINT ( 'NONE', #108 ) ;
#563 = DIRECTION ( 'NONE',  ( 0.000000000000000000, -1.000000000000000000, 0.000000000000000000 ) ) ;
#564 = DIRECTION ( 'NONE',  ( -1.000000000000000000, -1.445602896647338917E-16, 0.000000000000000000 ) ) ;
#565 = LINE ( 'NONE', #325, #67 ) ;
#566 = ORIENTED_EDGE ( 'NONE', *, *, #320, .T. ) ;
#567 = LINE ( 'NONE', #240, #120 ) ;
#568 =( NAMED_UNIT ( * ) SI_UNIT ( $, .STERADIAN. ) SOLID_ANGLE_UNIT ( ) );
#569 = ORIENTED_EDGE ( 'NONE', *, *, #372, .T. ) ;
#570 = VECTOR ( 'NONE', #100, 1000.000000000000000 ) ;
#571 = CARTESIAN_POINT ( 'NONE',  ( 15.00000000000000000, 8.500000000000001776, -1.387778780781445676E-14 ) ) ;
#572 = VECTOR ( 'NONE', #23, 1000.000000000000000 ) ;
#573 = LINE ( 'NONE', #463, #534 ) ;
#574 = ORIENTED_EDGE ( 'NONE', *, *, #158, .T. ) ;
#575 = DIRECTION ( 'NONE',  ( -1.000000000000000000, -1.445602896647338917E-16, 0.000000000000000000 ) ) ;
#576 = EDGE_CURVE ( 'NONE', #439, #385, #554, .T. ) ;
#577 = CARTESIAN_POINT ( 'NONE',  ( 9.000000000000001776, 3.000000000000001332, -1.387778780781445676E-14 ) ) ;
#578 = CARTESIAN_POINT ( 'NONE',  ( 0.000000000000000000, 0.000000000000000000, 30.00000000000000000 ) ) ;
#579 = LINE ( 'NONE', #378, #32 ) ;
#580 = VECTOR ( 'NONE', #22, 1000.000000000000000 ) ;
#581 = LINE ( 'NONE', #524, #189 ) ;
#582 = FACE_OUTER_BOUND ( 'NONE', #552, .T. ) ;
#583 = ADVANCED_FACE ( 'NONE', ( #213 ), #412, .F. ) ;
ENDSEC;
END-ISO-10303-21;
