# Blender 4.4.0
# www.blender.org
mtllib Rk3a.mtl
o Rk3a
v 10.736068 20.000000 22.351141
v 9.851141 20.000000 23.236069
v 15.000000 20.000000 30.000000
v 0.000000 20.000000 30.000000
v 5.148859 20.000000 23.236069
v 4.263932 20.000000 22.351141
v 5.148859 20.000000 6.763932
v 0.000000 20.000000 0.000000
v 4.263932 20.000000 7.648859
v 3.695774 20.000000 8.763931
v 11.304226 20.000000 21.236067
v 8.736069 20.000000 23.804228
v 7.500000 20.000000 24.000000
v 6.263932 20.000000 23.804228
v 15.000000 20.000000 0.000000
v 9.851141 20.000000 6.763932
v 10.736068 20.000000 7.648859
v 6.263932 20.000000 6.195774
v 7.500000 20.000000 6.000000
v 8.736069 20.000000 6.195774
v 3.695774 20.000000 21.236067
v 3.500000 20.000000 20.000000
v 3.500000 20.000000 10.000000
v 11.304226 20.000000 8.763931
v 11.500000 20.000000 10.000000
v 11.500000 20.000000 20.000000
v 0.000000 0.000000 30.000000
v 0.000000 0.000000 0.000000
v 15.000000 0.000000 30.000000
v 15.000000 0.000000 0.000000
v 11.500000 25.000000 10.000000
v 11.304226 25.000000 8.763931
v 10.736068 25.000000 7.648859
v 9.851141 25.000000 6.763932
v 8.736069 25.000000 6.195774
v 7.500000 25.000000 6.000000
v 6.263932 25.000000 6.195774
v 5.148859 25.000000 6.763932
v 4.263932 25.000000 7.648859
v 3.695774 25.000000 8.763931
v 3.500000 25.000000 10.000000
v 3.500000 25.000000 20.000000
v 3.695774 25.000000 21.236067
v 4.263932 25.000000 22.351141
v 5.148859 25.000000 23.236069
v 6.263932 25.000000 23.804228
v 7.500000 25.000000 24.000000
v 8.736069 25.000000 23.804228
v 9.851141 25.000000 23.236069
v 10.736068 25.000000 22.351141
v 11.304226 25.000000 21.236067
v 11.500000 25.000000 20.000000
vn -0.0000 1.0000 -0.0000
vn -1.0000 -0.0000 -0.0000
vn -0.0000 -1.0000 -0.0000
vn 1.0000 -0.0000 -0.0000
vn -0.0000 -0.0000 1.0000
vn -0.0000 -0.0000 -1.0000
vn 0.9877 -0.0000 -0.1564
vn 0.8910 -0.0000 -0.4540
vn 0.7071 -0.0000 -0.7071
vn 0.4540 -0.0000 -0.8910
vn 0.1564 -0.0000 -0.9877
vn -0.1564 -0.0000 -0.9877
vn -0.4540 -0.0000 -0.8910
vn -0.7071 -0.0000 -0.7071
vn -0.8910 -0.0000 -0.4540
vn -0.9877 -0.0000 -0.1564
vn -0.9877 -0.0000 0.1564
vn -0.8910 -0.0000 0.4540
vn -0.7071 -0.0000 0.7071
vn -0.4540 -0.0000 0.8910
vn -0.1564 -0.0000 0.9877
vn 0.1564 -0.0000 0.9877
vn 0.4540 -0.0000 0.8910
vn 0.7071 -0.0000 0.7071
vn 0.8910 -0.0000 0.4540
vn 0.9877 -0.0000 0.1564
s 0
f 1//1 2//1 3//1
f 4//1 5//1 6//1
f 7//1 8//1 9//1
f 9//1 8//1 10//1
f 1//1 3//1 11//1
f 2//1 12//1 3//1
f 3//1 12//1 13//1
f 3//1 13//1 4//1
f 4//1 13//1 14//1
f 4//1 14//1 5//1
f 15//1 16//1 17//1
f 7//1 18//1 8//1
f 8//1 18//1 19//1
f 8//1 19//1 15//1
f 15//1 19//1 20//1
f 15//1 20//1 16//1
f 6//1 21//1 4//1
f 4//1 21//1 22//1
f 4//1 22//1 8//1
f 8//1 22//1 23//1
f 8//1 23//1 10//1
f 17//1 24//1 15//1
f 15//1 24//1 25//1
f 15//1 25//1 3//1
f 3//1 25//1 26//1
f 3//1 26//1 11//1
f 27//2 4//2 28//2
f 28//2 4//2 8//2
f 29//3 27//3 30//3
f 30//3 27//3 28//3
f 3//4 29//4 15//4
f 15//4 29//4 30//4
f 29//5 3//5 27//5
f 27//5 3//5 4//5
f 15//6 30//6 8//6
f 8//6 30//6 28//6
f 31//7 25//7 24//7
f 31//7 24//7 32//7
f 32//8 24//8 17//8
f 32//8 17//8 33//8
f 33//9 17//9 16//9
f 33//9 16//9 34//9
f 34//10 16//10 20//10
f 34//10 20//10 35//10
f 35//11 20//11 19//11
f 35//11 19//11 36//11
f 36//12 19//12 18//12
f 36//12 18//12 37//12
f 37//13 18//13 7//13
f 37//13 7//13 38//13
f 38//14 7//14 9//14
f 38//14 9//14 39//14
f 39//15 9//15 10//15
f 39//15 10//15 40//15
f 40//16 10//16 23//16
f 40//16 23//16 41//16
f 42//2 41//2 22//2
f 22//2 41//2 23//2
f 42//17 22//17 21//17
f 42//17 21//17 43//17
f 43//18 21//18 6//18
f 43//18 6//18 44//18
f 44//19 6//19 5//19
f 44//19 5//19 45//19
f 45//20 5//20 14//20
f 45//20 14//20 46//20
f 46//21 14//21 13//21
f 46//21 13//21 47//21
f 47//22 13//22 12//22
f 47//22 12//22 48//22
f 48//23 12//23 2//23
f 48//23 2//23 49//23
f 49//24 2//24 1//24
f 49//24 1//24 50//24
f 50//25 1//25 11//25
f 50//25 11//25 51//25
f 51//26 11//26 26//26
f 51//26 26//26 52//26
f 31//4 52//4 25//4
f 25//4 52//4 26//4
f 52//1 31//1 41//1
f 31//1 32//1 41//1
f 41//1 32//1 33//1
f 41//1 33//1 34//1
f 34//1 35//1 41//1
f 41//1 35//1 36//1
f 41//1 36//1 37//1
f 47//1 48//1 52//1
f 41//1 42//1 52//1
f 52//1 42//1 43//1
f 52//1 43//1 44//1
f 37//1 38//1 41//1
f 41//1 38//1 39//1
f 41//1 39//1 40//1
f 44//1 45//1 52//1
f 52//1 45//1 46//1
f 52//1 46//1 47//1
f 49//1 50//1 48//1
f 48//1 50//1 51//1
f 48//1 51//1 52//1
