ISO-10303-21;
HEADER;
FILE_DESCRIPTION (( 'STEP AP214' ),
    '1' );
FILE_NAME ('Rk3a.STEP',
    '2025-09-08T12:58:07',
    ( '' ),
    ( '' ),
    'SwSTEP 2.0',
    'SolidWorks 2024',
    '' );
FILE_SCHEMA (( 'AUTOMOTIVE_DESIGN' ));
ENDSEC;

DATA;
#1 = CARTESIAN_POINT ( 'NONE',  ( 15.00000000000000000, 0.000000000000000000, 0.000000000000000000 ) ) ;
#2 = ADVANCED_FACE ( 'NONE', ( #26 ), #54, .T. ) ;
#3 = FACE_BOUND ( 'NONE', #355, .T. ) ;
#4 = CIRCLE ( 'NONE', #92, 4.000000000000003553 ) ;
#5 = CARTESIAN_POINT ( 'NONE',  ( 0.000000000000000000, 20.00000000000000355, 30.00000000000000000 ) ) ;
#6 = CARTESIAN_POINT ( 'NONE',  ( 15.00000000000000000, 0.000000000000000000, 30.00000000000000000 ) ) ;
#7 = EDGE_LOOP ( 'NONE', ( #180, #15, #100, #298 ) ) ;
#8 = AXIS2_PLACEMENT_3D ( 'NONE', #335, #307, #234 ) ;
#9 =( NAMED_UNIT ( * ) PLANE_ANGLE_UNIT ( ) SI_UNIT ( $, .RADIAN. ) );
#10 = EDGE_CURVE ( 'NONE', #17, #138, #27, .T. ) ;
#11 = AXIS2_PLACEMENT_3D ( 'NONE', #337, #305, #221 ) ;
#12 = LINE ( 'NONE', #153, #36 ) ;
#13 = ORIENTED_EDGE ( 'NONE', *, *, #111, .T. ) ;
#14 = CARTESIAN_POINT ( 'NONE',  ( 0.000000000000000000, 0.000000000000000000, 30.00000000000000000 ) ) ;
#15 = ORIENTED_EDGE ( 'NONE', *, *, #321, .T. ) ;
#16 = CARTESIAN_POINT ( 'NONE',  ( 0.000000000000000000, 0.000000000000000000, 0.000000000000000000 ) ) ;
#17 = VERTEX_POINT ( 'NONE', #252 ) ;
#18 = EDGE_CURVE ( 'NONE', #176, #77, #196, .T. ) ;
#19 = LINE ( 'NONE', #179, #267 ) ;
#20 = EDGE_LOOP ( 'NONE', ( #133, #37, #106, #51 ) ) ;
#21 = FACE_OUTER_BOUND ( 'NONE', #168, .T. ) ;
#22 = FACE_OUTER_BOUND ( 'NONE', #152, .T. ) ;
#23 = DIRECTION ( 'NONE',  ( 0.000000000000000000, 0.000000000000000000, 1.000000000000000000 ) ) ;
#24 = ADVANCED_FACE ( 'NONE', ( #306 ), #333, .F. ) ;
#25 = VECTOR ( 'NONE', #222, 1000.000000000000000 ) ;
#26 = FACE_OUTER_BOUND ( 'NONE', #218, .T. ) ;
#27 = LINE ( 'NONE', #162, #50 ) ;
#28 = DIRECTION ( 'NONE',  ( 1.000000000000000000, 0.000000000000000000, 0.000000000000000000 ) ) ;
#29 = VECTOR ( 'NONE', #326, 1000.000000000000000 ) ;
#30 = DIRECTION ( 'NONE',  ( 1.000000000000000000, 0.000000000000000000, 0.000000000000000000 ) ) ;
#31 = CARTESIAN_POINT ( 'NONE',  ( 11.50000000000000355, 20.00000000000000355, 20.00000000000000000 ) ) ;
#32 = DIRECTION ( 'NONE',  ( -3.469446951953614682E-16, 0.000000000000000000, 1.000000000000000000 ) ) ;
#33 = CARTESIAN_POINT ( 'NONE',  ( 7.500000000000000000, 25.00000000000000355, 6.000000000000001776 ) ) ;
#34 = VECTOR ( 'NONE', #299, 1000.000000000000000 ) ;
#35 = PLANE ( 'NONE',  #171 ) ;
#36 = VECTOR ( 'NONE', #47, 1000.000000000000000 ) ;
#37 = ORIENTED_EDGE ( 'NONE', *, *, #311, .F. ) ;
#38 = DIRECTION ( 'NONE',  ( 0.000000000000000000, 1.000000000000000000, 0.000000000000000000 ) ) ;
#39 = EDGE_CURVE ( 'NONE', #271, #77, #123, .T. ) ;
#40 = FACE_OUTER_BOUND ( 'NONE', #115, .T. ) ;
#41 = ORIENTED_EDGE ( 'NONE', *, *, #39, .F. ) ;
#42 = STYLED_ITEM ( 'NONE', ( #206 ), #102 ) ;
#43 = PLANE ( 'NONE',  #238 ) ;
#44 = ORIENTED_EDGE ( 'NONE', *, *, #308, .F. ) ;
#45 = CARTESIAN_POINT ( 'NONE',  ( 15.00000000000000000, 0.000000000000000000, 30.00000000000000000 ) ) ;
#46 = VERTEX_POINT ( 'NONE', #368 ) ;
#47 = DIRECTION ( 'NONE',  ( 1.000000000000000000, 0.000000000000000000, 0.000000000000000000 ) ) ;
#48 = ADVANCED_FACE ( 'NONE', ( #113 ), #135, .T. ) ;
#49 = CARTESIAN_POINT ( 'NONE',  ( 0.000000000000000000, 20.00000000000000355, 0.000000000000000000 ) ) ;
#50 = VECTOR ( 'NONE', #28, 1000.000000000000000 ) ;
#51 = ORIENTED_EDGE ( 'NONE', *, *, #308, .T. ) ;
#52 = CARTESIAN_POINT ( 'NONE',  ( 3.500000000000001332, 25.00000000000000355, 10.00000000000000178 ) ) ;
#53 = ORIENTED_EDGE ( 'NONE', *, *, #225, .T. ) ;
#54 = CYLINDRICAL_SURFACE ( 'NONE', #76, 4.000000000000003553 ) ;
#55 = DIRECTION ( 'NONE',  ( -0.000000000000000000, -1.000000000000000000, -0.000000000000000000 ) ) ;
#56 =( GEOMETRIC_REPRESENTATION_CONTEXT ( 3 ) GLOBAL_UNCERTAINTY_ASSIGNED_CONTEXT ( ( #273 ) ) GLOBAL_UNIT_ASSIGNED_CONTEXT ( ( #345, #9, #65 ) ) REPRESENTATION_CONTEXT ( 'NONE', 'WORKASPACE' ) );
#57 = DIRECTION ( 'NONE',  ( -1.000000000000000000, 0.000000000000000000, -0.000000000000000000 ) ) ;
#58 = ORIENTED_EDGE ( 'NONE', *, *, #269, .T. ) ;
#59 = EDGE_CURVE ( 'NONE', #74, #176, #4, .T. ) ;
#60 = DIRECTION ( 'NONE',  ( 0.000000000000000000, 0.000000000000000000, 1.000000000000000000 ) ) ;
#61 = VECTOR ( 'NONE', #253, 1000.000000000000000 ) ;
#62 = CYLINDRICAL_SURFACE ( 'NONE', #274, 3.999999999999998224 ) ;
#63 = AXIS2_PLACEMENT_3D ( 'NONE', #334, #80, #279 ) ;
#64 = CARTESIAN_POINT ( 'NONE',  ( 7.500000000000000000, 25.00000000000000355, 10.00000000000000000 ) ) ;
#65 =( NAMED_UNIT ( * ) SI_UNIT ( $, .STERADIAN. ) SOLID_ANGLE_UNIT ( ) );
#66 = DIRECTION ( 'NONE',  ( -0.000000000000000000, -1.000000000000000000, -0.000000000000000000 ) ) ;
#67 = ADVANCED_FACE ( 'NONE', ( #363 ), #109, .T. ) ;
#68 = FACE_OUTER_BOUND ( 'NONE', #325, .T. ) ;
#69 = VECTOR ( 'NONE', #124, 1000.000000000000000 ) ;
#70 = DIRECTION ( 'NONE',  ( -0.000000000000000000, -1.000000000000000000, -0.000000000000000000 ) ) ;
#71 = CARTESIAN_POINT ( 'NONE',  ( 3.500000000000001332, 25.00000000000000355, 10.00000000000000178 ) ) ;
#72 = ORIENTED_EDGE ( 'NONE', *, *, #284, .T. ) ;
#73 = CARTESIAN_POINT ( 'NONE',  ( 0.000000000000000000, 0.000000000000000000, 30.00000000000000000 ) ) ;
#74 = VERTEX_POINT ( 'NONE', #164 ) ;
#75 = DIRECTION ( 'NONE',  ( -0.000000000000000000, -1.000000000000000000, -0.000000000000000000 ) ) ;
#76 = AXIS2_PLACEMENT_3D ( 'NONE', #277, #169, #340 ) ;
#77 = VERTEX_POINT ( 'NONE', #31 ) ;
#78 = DIRECTION ( 'NONE',  ( 0.000000000000000000, 0.000000000000000000, 1.000000000000000000 ) ) ;
#79 = CARTESIAN_POINT ( 'NONE',  ( 0.000000000000000000, 0.000000000000000000, 30.00000000000000000 ) ) ;
#80 = DIRECTION ( 'NONE',  ( 0.000000000000000000, 1.000000000000000000, 0.000000000000000000 ) ) ;
#81 = ORIENTED_EDGE ( 'NONE', *, *, #177, .F. ) ;
#82 = AXIS2_PLACEMENT_3D ( 'NONE', #73, #324, #212 ) ;
#83 = EDGE_LOOP ( 'NONE', ( #53, #44, #81, #72 ) ) ;
#84 =( NAMED_UNIT ( * ) PLANE_ANGLE_UNIT ( ) SI_UNIT ( $, .RADIAN. ) );
#85 = ORIENTED_EDGE ( 'NONE', *, *, #10, .F. ) ;
#86 = DIRECTION ( 'NONE',  ( -1.000000000000000000, 0.000000000000000000, 0.000000000000000000 ) ) ;
#87 = VECTOR ( 'NONE', #240, 1000.000000000000000 ) ;
#88 = CARTESIAN_POINT ( 'NONE',  ( 11.49999999999999822, 25.00000000000000355, 10.00000000000000000 ) ) ;
#89 = VERTEX_POINT ( 'NONE', #1 ) ;
#90 = FILL_AREA_STYLE ('',( #341 ) ) ;
#91 = LINE ( 'NONE', #315, #69 ) ;
#92 = AXIS2_PLACEMENT_3D ( 'NONE', #136, #224, #338 ) ;
#93 = CARTESIAN_POINT ( 'NONE',  ( 11.50000000000000355, 25.00000000000000355, 20.00000000000000000 ) ) ;
#94 = ADVANCED_FACE ( 'NONE', ( #140 ), #110, .F. ) ;
#95 = PRODUCT_DEFINITION_CONTEXT ( 'detailed design', #198, 'design' ) ;
#96 = CARTESIAN_POINT ( 'NONE',  ( 0.000000000000000000, 0.000000000000000000, 0.000000000000000000 ) ) ;
#97 = DIRECTION ( 'NONE',  ( -0.000000000000000000, -1.000000000000000000, -0.000000000000000000 ) ) ;
#98 = ORIENTED_EDGE ( 'NONE', *, *, #254, .F. ) ;
#99 = CARTESIAN_POINT ( 'NONE',  ( 0.000000000000000000, 20.00000000000000355, 0.000000000000000000 ) ) ;
#100 = ORIENTED_EDGE ( 'NONE', *, *, #278, .T. ) ;
#101 = LINE ( 'NONE', #14, #362 ) ;
#102 = MANIFOLD_SOLID_BREP ( 'Aufsatz-Linear austragen9', #163 ) ;
#103 = CARTESIAN_POINT ( 'NONE',  ( 3.500000000000001332, 20.00000000000000355, 10.00000000000000178 ) ) ;
#104 = ORIENTED_EDGE ( 'NONE', *, *, #207, .T. ) ;
#105 = VECTOR ( 'NONE', #32, 1000.000000000000000 ) ;
#106 = ORIENTED_EDGE ( 'NONE', *, *, #339, .F. ) ;
#107 = AXIS2_PLACEMENT_3D ( 'NONE', #320, #217, #157 ) ;
#108 = VECTOR ( 'NONE', #292, 1000.000000000000000 ) ;
#109 = CYLINDRICAL_SURFACE ( 'NONE', #192, 3.999999999999998224 ) ;
#110 = PLANE ( 'NONE',  #8 ) ;
#111 = EDGE_CURVE ( 'NONE', #138, #89, #228, .T. ) ;
#112 = DIRECTION ( 'NONE',  ( 0.000000000000000000, 1.000000000000000000, 0.000000000000000000 ) ) ;
#113 = FACE_OUTER_BOUND ( 'NONE', #187, .T. ) ;
#114 = PRODUCT_DEFINITION_SHAPE ( 'NONE', 'NONE',  #364 ) ;
#115 = EDGE_LOOP ( 'NONE', ( #262, #327, #98, #13 ) ) ;
#116 = EDGE_CURVE ( 'NONE', #89, #46, #286, .T. ) ;
#117 = PLANE ( 'NONE',  #118 ) ;
#118 = AXIS2_PLACEMENT_3D ( 'NONE', #230, #343, #243 ) ;
#119 = CIRCLE ( 'NONE', #107, 3.999999999999998224 ) ;
#120 = CARTESIAN_POINT ( 'NONE',  ( 3.500000000000001332, 25.00000000000000355, 10.00000000000000178 ) ) ;
#121 = FACE_OUTER_BOUND ( 'NONE', #182, .T. ) ;
#122 = VERTEX_POINT ( 'NONE', #88 ) ;
#123 = CIRCLE ( 'NONE', #232, 4.000000000000003553 ) ;
#124 = DIRECTION ( 'NONE',  ( -5.204170427930421283E-16, -0.000000000000000000, -1.000000000000000000 ) ) ;
#125 = VECTOR ( 'NONE', #97, 1000.000000000000000 ) ;
#126 = CARTESIAN_POINT ( 'NONE',  ( 11.49999999999999822, 20.00000000000000355, 10.00000000000000000 ) ) ;
#127 = EDGE_LOOP ( 'NONE', ( #309, #293, #194, #58 ) ) ;
#128 = DIRECTION ( 'NONE',  ( -0.000000000000000000, -1.000000000000000000, -0.000000000000000000 ) ) ;
#129 = ORIENTED_EDGE ( 'NONE', *, *, #137, .F. ) ;
#130 = DIRECTION ( 'NONE',  ( -3.469446951953614682E-16, 0.000000000000000000, 1.000000000000000000 ) ) ;
#131 = ORIENTED_EDGE ( 'NONE', *, *, #10, .T. ) ;
#132 = LINE ( 'NONE', #45, #87 ) ;
#133 = ORIENTED_EDGE ( 'NONE', *, *, #204, .T. ) ;
#134 = LINE ( 'NONE', #99, #139 ) ;
#135 = PLANE ( 'NONE',  #346 ) ;
#136 = CARTESIAN_POINT ( 'NONE',  ( 7.500000000000000000, 25.00000000000000355, 20.00000000000000000 ) ) ;
#137 = EDGE_CURVE ( 'NONE', #176, #122, #91, .T. ) ;
#138 = VERTEX_POINT ( 'NONE', #318 ) ;
#139 = VECTOR ( 'NONE', #348, 1000.000000000000000 ) ;
#140 = FACE_OUTER_BOUND ( 'NONE', #127, .T. ) ;
#141 = VERTEX_POINT ( 'NONE', #148 ) ;
#142 = FACE_OUTER_BOUND ( 'NONE', #83, .T. ) ;
#143 = SURFACE_STYLE_USAGE ( .BOTH. , #231 ) ;
#144 = DIRECTION ( 'NONE',  ( 0.000000000000000000, 0.000000000000000000, 1.000000000000000000 ) ) ;
#145 = ORIENTED_EDGE ( 'NONE', *, *, #39, .T. ) ;
#146 = EDGE_CURVE ( 'NONE', #122, #249, #202, .T. ) ;
#147 = DIRECTION ( 'NONE',  ( 1.000000000000000000, 0.000000000000000000, 0.000000000000000000 ) ) ;
#148 = CARTESIAN_POINT ( 'NONE',  ( 0.000000000000000000, 20.00000000000000355, 30.00000000000000000 ) ) ;
#149 = CARTESIAN_POINT ( 'NONE',  ( 3.499999999999996891, 25.00000000000000355, 20.00000000000000000 ) ) ;
#150 = AXIS2_PLACEMENT_3D ( 'NONE', #367, #60, #30 ) ;
#151 = ADVANCED_FACE ( 'NONE', ( #291 ), #288, .F. ) ;
#152 = EDGE_LOOP ( 'NONE', ( #104, #161, #129, #248 ) ) ;
#153 = CARTESIAN_POINT ( 'NONE',  ( 0.000000000000000000, 0.000000000000000000, 0.000000000000000000 ) ) ;
#154 = VERTEX_POINT ( 'NONE', #33 ) ;
#155 = LINE ( 'NONE', #358, #34 ) ;
#156 = VERTEX_POINT ( 'NONE', #255 ) ;
#157 = DIRECTION ( 'NONE',  ( 0.000000000000000000, 0.000000000000000000, 1.000000000000000000 ) ) ;
#158 = ORIENTED_EDGE ( 'NONE', *, *, #339, .T. ) ;
#159 = ADVANCED_FACE ( 'NONE', ( #40 ), #35, .F. ) ;
#160 = CARTESIAN_POINT ( 'NONE',  ( 0.000000000000000000, 0.000000000000000000, 30.00000000000000000 ) ) ;
#161 = ORIENTED_EDGE ( 'NONE', *, *, #146, .F. ) ;
#162 = CARTESIAN_POINT ( 'NONE',  ( 0.000000000000000000, 0.000000000000000000, 30.00000000000000000 ) ) ;
#163 = CLOSED_SHELL ( 'NONE', ( #67, #197, #151, #239, #159, #24, #215, #165, #94, #2, #349, #48 ) ) ;
#164 = CARTESIAN_POINT ( 'NONE',  ( 3.499999999999996891, 25.00000000000000355, 20.00000000000000000 ) ) ;
#165 = ADVANCED_FACE ( 'NONE', ( #121 ), #62, .T. ) ;
#166 = VECTOR ( 'NONE', #322, 1000.000000000000000 ) ;
#167 = APPLICATION_PROTOCOL_DEFINITION ( 'draft international standard', 'automotive_design', 1998, #352 ) ;
#168 = EDGE_LOOP ( 'NONE', ( #336, #237, #351, #268 ) ) ;
#169 = DIRECTION ( 'NONE',  ( -0.000000000000000000, -1.000000000000000000, -0.000000000000000000 ) ) ;
#170 = VERTEX_POINT ( 'NONE', #174 ) ;
#171 = AXIS2_PLACEMENT_3D ( 'NONE', #6, #86, #144 ) ;
#172 = AXIS2_PLACEMENT_3D ( 'NONE', #236, #353, #78 ) ;
#173 = LINE ( 'NONE', #5, #61 ) ;
#174 = CARTESIAN_POINT ( 'NONE',  ( 0.000000000000000000, 0.000000000000000000, 0.000000000000000000 ) ) ;
#175 = CARTESIAN_POINT ( 'NONE',  ( 15.00000000000000000, 0.000000000000000000, 30.00000000000000000 ) ) ;
#176 = VERTEX_POINT ( 'NONE', #93 ) ;
#177 = EDGE_CURVE ( 'NONE', #276, #141, #173, .T. ) ;
#178 = CARTESIAN_POINT ( 'NONE',  ( 15.00000000000000000, 20.00000000000000355, 30.00000000000000000 ) ) ;
#179 = CARTESIAN_POINT ( 'NONE',  ( 0.000000000000000000, 20.00000000000000355, 30.00000000000000000 ) ) ;
#180 = ORIENTED_EDGE ( 'NONE', *, *, #344, .F. ) ;
#181 = DIRECTION ( 'NONE',  ( 0.000000000000000000, 0.000000000000000000, -1.000000000000000000 ) ) ;
#182 = EDGE_LOOP ( 'NONE', ( #193, #272, #357, #304 ) ) ;
#183 = LINE ( 'NONE', #270, #188 ) ;
#184 = ORIENTED_EDGE ( 'NONE', *, *, #59, .T. ) ;
#185 = EDGE_CURVE ( 'NONE', #265, #74, #285, .T. ) ;
#186 = LINE ( 'NONE', #149, #323 ) ;
#187 = EDGE_LOOP ( 'NONE', ( #216, #190, #200, #184, #302 ) ) ;
#188 = VECTOR ( 'NONE', #70, 1000.000000000000000 ) ;
#189 = PRODUCT_CONTEXT ( 'NONE', #352, 'mechanical' ) ;
#190 = ORIENTED_EDGE ( 'NONE', *, *, #344, .T. ) ;
#191 =( LENGTH_UNIT ( ) NAMED_UNIT ( * ) SI_UNIT ( .MILLI., .METRE. ) );
#192 = AXIS2_PLACEMENT_3D ( 'NONE', #220, #55, #310 ) ;
#193 = ORIENTED_EDGE ( 'NONE', *, *, #321, .F. ) ;
#194 = ORIENTED_EDGE ( 'NONE', *, *, #185, .F. ) ;
#195 = APPLICATION_PROTOCOL_DEFINITION ( 'draft international standard', 'automotive_design', 1998, #198 ) ;
#196 = LINE ( 'NONE', #250, #25 ) ;
#197 = ADVANCED_FACE ( 'NONE', ( #142, #3 ), #117, .F. ) ;
#198 = APPLICATION_CONTEXT ( 'automotive_design' ) ;
#199 = CARTESIAN_POINT ( 'NONE',  ( 0.000000000000000000, 0.000000000000000000, 30.00000000000000000 ) ) ;
#200 = ORIENTED_EDGE ( 'NONE', *, *, #185, .T. ) ;
#201 = PRODUCT_DEFINITION_FORMATION_WITH_SPECIFIED_SOURCE ( 'ANY', '', #227, .NOT_KNOWN. ) ;
#202 = LINE ( 'NONE', #316, #300 ) ;
#203 = ORIENTED_EDGE ( 'NONE', *, *, #246, .F. ) ;
#204 = EDGE_CURVE ( 'NONE', #213, #170, #214, .T. ) ;
#205 = SURFACE_STYLE_FILL_AREA ( #90 ) ;
#206 = PRESENTATION_STYLE_ASSIGNMENT (( #143 ) ) ;
#207 = EDGE_CURVE ( 'NONE', #77, #249, #155, .T. ) ;
#208 = PLANE ( 'NONE',  #82 ) ;
#209 = CARTESIAN_POINT ( 'NONE',  ( 7.500000000000000000, 20.00000000000000355, 6.000000000000001776 ) ) ;
#210 = ORIENTED_EDGE ( 'NONE', *, *, #311, .T. ) ;
#211 = COLOUR_RGB ( '',0.7921568627450980005, 0.8196078431372548767, 0.9333333333333333481 ) ;
#212 = DIRECTION ( 'NONE',  ( 0.000000000000000000, -0.000000000000000000, 1.000000000000000000 ) ) ;
#213 = VERTEX_POINT ( 'NONE', #49 ) ;
#214 = LINE ( 'NONE', #96, #29 ) ;
#215 = ADVANCED_FACE ( 'NONE', ( #21 ), #43, .T. ) ;
#216 = ORIENTED_EDGE ( 'NONE', *, *, #330, .T. ) ;
#217 = DIRECTION ( 'NONE',  ( 0.000000000000000000, 1.000000000000000000, 0.000000000000000000 ) ) ;
#218 = EDGE_LOOP ( 'NONE', ( #145, #332, #360, #361 ) ) ;
#219 = ORIENTED_EDGE ( 'NONE', *, *, #359, .F. ) ;
#220 = CARTESIAN_POINT ( 'NONE',  ( 7.500000000000000000, 25.00000000000000355, 10.00000000000000000 ) ) ;
#221 = DIRECTION ( 'NONE',  ( 5.204170427930421283E-16, 0.000000000000000000, 1.000000000000000000 ) ) ;
#222 = DIRECTION ( 'NONE',  ( -0.000000000000000000, -1.000000000000000000, -0.000000000000000000 ) ) ;
#223 = PLANE ( 'NONE',  #11 ) ;
#224 = DIRECTION ( 'NONE',  ( 0.000000000000000000, 1.000000000000000000, 0.000000000000000000 ) ) ;
#225 = EDGE_CURVE ( 'NONE', #46, #213, #134, .T. ) ;
#226 = ORIENTED_EDGE ( 'NONE', *, *, #111, .F. ) ;
#227 = PRODUCT ( 'Rk3a', 'Rk3a', '', ( #189 ) ) ;
#228 = LINE ( 'NONE', #175, #256 ) ;
#229 = PRESENTATION_LAYER_ASSIGNMENT (  '', '', ( #42 ) ) ;
#230 = CARTESIAN_POINT ( 'NONE',  ( 0.000000000000000000, 20.00000000000000355, 30.00000000000000000 ) ) ;
#231 = SURFACE_SIDE_STYLE ('',( #205 ) ) ;
#232 = AXIS2_PLACEMENT_3D ( 'NONE', #251, #366, #23 ) ;
#233 =( GEOMETRIC_REPRESENTATION_CONTEXT ( 3 ) GLOBAL_UNCERTAINTY_ASSIGNED_CONTEXT ( ( #319 ) ) GLOBAL_UNIT_ASSIGNED_CONTEXT ( ( #191, #84, #275 ) ) REPRESENTATION_CONTEXT ( 'NONE', 'WORKASPACE' ) );
#234 = DIRECTION ( 'NONE',  ( 3.469446951953615175E-16, 0.000000000000000000, -1.000000000000000000 ) ) ;
#235 = CARTESIAN_POINT ( 'NONE',  ( 15.00000000000000000, 20.00000000000000355, 30.00000000000000000 ) ) ;
#236 = CARTESIAN_POINT ( 'NONE',  ( 7.500000000000000000, 25.00000000000000355, 10.00000000000000000 ) ) ;
#237 = ORIENTED_EDGE ( 'NONE', *, *, #225, .F. ) ;
#238 = AXIS2_PLACEMENT_3D ( 'NONE', #16, #181, #264 ) ;
#239 = ADVANCED_FACE ( 'NONE', ( #68 ), #208, .F. ) ;
#240 = DIRECTION ( 'NONE',  ( 0.000000000000000000, 1.000000000000000000, 0.000000000000000000 ) ) ;
#241 = ADVANCED_BREP_SHAPE_REPRESENTATION ( 'Rk3a', ( #102, #150 ), #233 ) ;
#242 = ORIENTED_EDGE ( 'NONE', *, *, #317, .T. ) ;
#243 = DIRECTION ( 'NONE',  ( 0.000000000000000000, -0.000000000000000000, -1.000000000000000000 ) ) ;
#244 = ORIENTED_EDGE ( 'NONE', *, *, #207, .F. ) ;
#245 = ORIENTED_EDGE ( 'NONE', *, *, #278, .F. ) ;
#246 = EDGE_CURVE ( 'NONE', #156, #271, #328, .T. ) ;
#247 = MECHANICAL_DESIGN_GEOMETRIC_PRESENTATION_REPRESENTATION (  '', ( #42 ), #56 ) ;
#248 = ORIENTED_EDGE ( 'NONE', *, *, #18, .T. ) ;
#249 = VERTEX_POINT ( 'NONE', #126 ) ;
#250 = CARTESIAN_POINT ( 'NONE',  ( 11.50000000000000355, 25.00000000000000355, 20.00000000000000000 ) ) ;
#251 = CARTESIAN_POINT ( 'NONE',  ( 7.500000000000000000, 20.00000000000000355, 20.00000000000000000 ) ) ;
#252 = CARTESIAN_POINT ( 'NONE',  ( 0.000000000000000000, 0.000000000000000000, 30.00000000000000000 ) ) ;
#253 = DIRECTION ( 'NONE',  ( -1.000000000000000000, -0.000000000000000000, -0.000000000000000000 ) ) ;
#254 = EDGE_CURVE ( 'NONE', #138, #276, #132, .T. ) ;
#255 = CARTESIAN_POINT ( 'NONE',  ( 3.500000000000001332, 20.00000000000000355, 10.00000000000000178 ) ) ;
#256 = VECTOR ( 'NONE', #290, 1000.000000000000000 ) ;
#257 = DIRECTION ( 'NONE',  ( 0.000000000000000000, 0.000000000000000000, -1.000000000000000000 ) ) ;
#258 = EDGE_CURVE ( 'NONE', #74, #271, #186, .T. ) ;
#259 = DIRECTION ( 'NONE',  ( 0.000000000000000000, 0.000000000000000000, -1.000000000000000000 ) ) ;
#260 = AXIS2_PLACEMENT_3D ( 'NONE', #199, #147, #257 ) ;
#261 = LINE ( 'NONE', #160, #166 ) ;
#262 = ORIENTED_EDGE ( 'NONE', *, *, #116, .T. ) ;
#263 = DIRECTION ( 'NONE',  ( 0.000000000000000000, 0.000000000000000000, 1.000000000000000000 ) ) ;
#264 = DIRECTION ( 'NONE',  ( -1.000000000000000000, 0.000000000000000000, -0.000000000000000000 ) ) ;
#265 = VERTEX_POINT ( 'NONE', #52 ) ;
#266 = DIRECTION ( 'NONE',  ( -0.000000000000000000, -0.000000000000000000, -1.000000000000000000 ) ) ;
#267 = VECTOR ( 'NONE', #266, 1000.000000000000000 ) ;
#268 = ORIENTED_EDGE ( 'NONE', *, *, #317, .F. ) ;
#269 = EDGE_CURVE ( 'NONE', #265, #156, #350, .T. ) ;
#270 = CARTESIAN_POINT ( 'NONE',  ( 7.500000000000000000, 25.00000000000000355, 6.000000000000001776 ) ) ;
#271 = VERTEX_POINT ( 'NONE', #297 ) ;
#272 = ORIENTED_EDGE ( 'NONE', *, *, #330, .F. ) ;
#273 = UNCERTAINTY_MEASURE_WITH_UNIT (LENGTH_MEASURE( 1.000000000000000082E-05 ), #345, 'distance_accuracy_value', 'NONE');
#274 = AXIS2_PLACEMENT_3D ( 'NONE', #64, #347, #259 ) ;
#275 =( NAMED_UNIT ( * ) SI_UNIT ( $, .STERADIAN. ) SOLID_ANGLE_UNIT ( ) );
#276 = VERTEX_POINT ( 'NONE', #235 ) ;
#277 = CARTESIAN_POINT ( 'NONE',  ( 7.500000000000000000, 25.00000000000000355, 20.00000000000000000 ) ) ;
#278 = EDGE_CURVE ( 'NONE', #287, #156, #119, .T. ) ;
#279 = DIRECTION ( 'NONE',  ( 0.000000000000000000, 0.000000000000000000, 1.000000000000000000 ) ) ;
#280 = DIRECTION ( 'NONE',  ( 0.000000000000000000, 0.000000000000000000, -1.000000000000000000 ) ) ;
#281 = AXIS2_PLACEMENT_3D ( 'NONE', #79, #280, #57 ) ;
#282 = CARTESIAN_POINT ( 'NONE',  ( 7.500000000000000000, 25.00000000000000355, 10.00000000000000000 ) ) ;
#283 = CIRCLE ( 'NONE', #342, 3.999999999999998224 ) ;
#284 = EDGE_CURVE ( 'NONE', #276, #46, #301, .T. ) ;
#285 = LINE ( 'NONE', #120, #105 ) ;
#286 = LINE ( 'NONE', #313, #354 ) ;
#287 = VERTEX_POINT ( 'NONE', #209 ) ;
#288 = PLANE ( 'NONE',  #260 ) ;
#289 = CIRCLE ( 'NONE', #63, 3.999999999999998224 ) ;
#290 = DIRECTION ( 'NONE',  ( -0.000000000000000000, -0.000000000000000000, -1.000000000000000000 ) ) ;
#291 = FACE_OUTER_BOUND ( 'NONE', #20, .T. ) ;
#292 = DIRECTION ( 'NONE',  ( -0.000000000000000000, -0.000000000000000000, -1.000000000000000000 ) ) ;
#293 = ORIENTED_EDGE ( 'NONE', *, *, #258, .F. ) ;
#294 = DIRECTION ( 'NONE',  ( 0.000000000000000000, 1.000000000000000000, 0.000000000000000000 ) ) ;
#295 = PRODUCT_RELATED_PRODUCT_CATEGORY ( 'part', '', ( #227 ) ) ;
#296 = ORIENTED_EDGE ( 'NONE', *, *, #177, .T. ) ;
#297 = CARTESIAN_POINT ( 'NONE',  ( 3.499999999999996891, 20.00000000000000355, 20.00000000000000000 ) ) ;
#298 = ORIENTED_EDGE ( 'NONE', *, *, #269, .F. ) ;
#299 = DIRECTION ( 'NONE',  ( -5.204170427930421283E-16, -0.000000000000000000, -1.000000000000000000 ) ) ;
#300 = VECTOR ( 'NONE', #66, 1000.000000000000000 ) ;
#301 = LINE ( 'NONE', #178, #108 ) ;
#302 = ORIENTED_EDGE ( 'NONE', *, *, #137, .T. ) ;
#303 = SHAPE_DEFINITION_REPRESENTATION ( #114, #241 ) ;
#304 = ORIENTED_EDGE ( 'NONE', *, *, #359, .T. ) ;
#305 = DIRECTION ( 'NONE',  ( -1.000000000000000000, 0.000000000000000000, 5.204170427930421283E-16 ) ) ;
#306 = FACE_OUTER_BOUND ( 'NONE', #314, .T. ) ;
#307 = DIRECTION ( 'NONE',  ( 1.000000000000000000, -0.000000000000000000, 3.469446951953615175E-16 ) ) ;
#308 = EDGE_CURVE ( 'NONE', #141, #213, #19, .T. ) ;
#309 = ORIENTED_EDGE ( 'NONE', *, *, #246, .T. ) ;
#310 = DIRECTION ( 'NONE',  ( 0.000000000000000000, 0.000000000000000000, -1.000000000000000000 ) ) ;
#311 = EDGE_CURVE ( 'NONE', #17, #170, #261, .T. ) ;
#312 = VECTOR ( 'NONE', #130, 1000.000000000000000 ) ;
#313 = CARTESIAN_POINT ( 'NONE',  ( 15.00000000000000000, 0.000000000000000000, 0.000000000000000000 ) ) ;
#314 = EDGE_LOOP ( 'NONE', ( #158, #131, #329, #296 ) ) ;
#315 = CARTESIAN_POINT ( 'NONE',  ( 11.49999999999999822, 25.00000000000000355, 10.00000000000000000 ) ) ;
#316 = CARTESIAN_POINT ( 'NONE',  ( 11.49999999999999822, 25.00000000000000355, 10.00000000000000000 ) ) ;
#317 = EDGE_CURVE ( 'NONE', #170, #89, #12, .T. ) ;
#318 = CARTESIAN_POINT ( 'NONE',  ( 15.00000000000000000, 0.000000000000000000, 30.00000000000000000 ) ) ;
#319 = UNCERTAINTY_MEASURE_WITH_UNIT (LENGTH_MEASURE( 1.000000000000000082E-05 ), #191, 'distance_accuracy_value', 'NONE');
#320 = CARTESIAN_POINT ( 'NONE',  ( 7.500000000000000000, 20.00000000000000355, 10.00000000000000000 ) ) ;
#321 = EDGE_CURVE ( 'NONE', #154, #287, #183, .T. ) ;
#322 = DIRECTION ( 'NONE',  ( -0.000000000000000000, -0.000000000000000000, -1.000000000000000000 ) ) ;
#323 = VECTOR ( 'NONE', #75, 1000.000000000000000 ) ;
#324 = DIRECTION ( 'NONE',  ( 0.000000000000000000, 1.000000000000000000, 0.000000000000000000 ) ) ;
#325 = EDGE_LOOP ( 'NONE', ( #242, #226, #85, #210 ) ) ;
#326 = DIRECTION ( 'NONE',  ( -0.000000000000000000, -1.000000000000000000, -0.000000000000000000 ) ) ;
#327 = ORIENTED_EDGE ( 'NONE', *, *, #284, .F. ) ;
#328 = LINE ( 'NONE', #103, #312 ) ;
#329 = ORIENTED_EDGE ( 'NONE', *, *, #254, .T. ) ;
#330 = EDGE_CURVE ( 'NONE', #122, #154, #283, .T. ) ;
#331 = CIRCLE ( 'NONE', #172, 3.999999999999998224 ) ;
#332 = ORIENTED_EDGE ( 'NONE', *, *, #18, .F. ) ;
#333 = PLANE ( 'NONE',  #281 ) ;
#334 = CARTESIAN_POINT ( 'NONE',  ( 7.500000000000000000, 20.00000000000000355, 10.00000000000000000 ) ) ;
#335 = CARTESIAN_POINT ( 'NONE',  ( 3.500000000000001332, 25.00000000000000355, 10.00000000000000178 ) ) ;
#336 = ORIENTED_EDGE ( 'NONE', *, *, #204, .F. ) ;
#337 = CARTESIAN_POINT ( 'NONE',  ( 11.49999999999999822, 25.00000000000000355, 10.00000000000000000 ) ) ;
#338 = DIRECTION ( 'NONE',  ( 0.000000000000000000, 0.000000000000000000, 1.000000000000000000 ) ) ;
#339 = EDGE_CURVE ( 'NONE', #141, #17, #101, .T. ) ;
#340 = DIRECTION ( 'NONE',  ( 0.000000000000000000, 0.000000000000000000, -1.000000000000000000 ) ) ;
#341 = FILL_AREA_STYLE_COLOUR ( '', #211 ) ;
#342 = AXIS2_PLACEMENT_3D ( 'NONE', #356, #294, #263 ) ;
#343 = DIRECTION ( 'NONE',  ( 0.000000000000000000, -1.000000000000000000, 0.000000000000000000 ) ) ;
#344 = EDGE_CURVE ( 'NONE', #154, #265, #331, .T. ) ;
#345 =( LENGTH_UNIT ( ) NAMED_UNIT ( * ) SI_UNIT ( .MILLI., .METRE. ) );
#346 = AXIS2_PLACEMENT_3D ( 'NONE', #282, #112, #365 ) ;
#347 = DIRECTION ( 'NONE',  ( -0.000000000000000000, -1.000000000000000000, -0.000000000000000000 ) ) ;
#348 = DIRECTION ( 'NONE',  ( -1.000000000000000000, -0.000000000000000000, -0.000000000000000000 ) ) ;
#349 = ADVANCED_FACE ( 'NONE', ( #22 ), #223, .F. ) ;
#350 = LINE ( 'NONE', #71, #125 ) ;
#351 = ORIENTED_EDGE ( 'NONE', *, *, #116, .F. ) ;
#352 = APPLICATION_CONTEXT ( 'automotive_design' ) ;
#353 = DIRECTION ( 'NONE',  ( 0.000000000000000000, 1.000000000000000000, 0.000000000000000000 ) ) ;
#354 = VECTOR ( 'NONE', #38, 1000.000000000000000 ) ;
#355 = EDGE_LOOP ( 'NONE', ( #219, #244, #41, #203, #245 ) ) ;
#356 = CARTESIAN_POINT ( 'NONE',  ( 7.500000000000000000, 25.00000000000000355, 10.00000000000000000 ) ) ;
#357 = ORIENTED_EDGE ( 'NONE', *, *, #146, .T. ) ;
#358 = CARTESIAN_POINT ( 'NONE',  ( 11.49999999999999822, 20.00000000000000355, 10.00000000000000000 ) ) ;
#359 = EDGE_CURVE ( 'NONE', #249, #287, #289, .T. ) ;
#360 = ORIENTED_EDGE ( 'NONE', *, *, #59, .F. ) ;
#361 = ORIENTED_EDGE ( 'NONE', *, *, #258, .T. ) ;
#362 = VECTOR ( 'NONE', #128, 1000.000000000000000 ) ;
#363 = FACE_OUTER_BOUND ( 'NONE', #7, .T. ) ;
#364 = PRODUCT_DEFINITION ( 'UNKNOWN', '', #201, #95 ) ;
#365 = DIRECTION ( 'NONE',  ( 0.000000000000000000, -0.000000000000000000, 1.000000000000000000 ) ) ;
#366 = DIRECTION ( 'NONE',  ( 0.000000000000000000, 1.000000000000000000, 0.000000000000000000 ) ) ;
#367 = CARTESIAN_POINT ( 'NONE',  ( 0.000000000000000000, 0.000000000000000000, 0.000000000000000000 ) ) ;
#368 = CARTESIAN_POINT ( 'NONE',  ( 15.00000000000000000, 20.00000000000000355, 0.000000000000000000 ) ) ;
ENDSEC;
END-ISO-10303-21;
