# https://github.com/mikedh/trimesh
v 15.00000000 20.00000000 30.00000000
v 0.00000000 20.00000000 30.00000000
v 0.00000000 20.00000000 0.00000000
v 15.00000000 20.00000000 0.00000000
v 0.00000000 0.00000000 30.00000000
v 0.00000000 0.00000000 0.00000000
v 15.00000000 0.00000000 30.00000000
v 15.00000000 0.00000000 0.00000000
v 11.50000000 25.00000000 10.00000000
v 11.30422600 25.00000000 8.76393100
v 10.73606800 25.00000000 7.64885900
v 9.85114100 25.00000000 6.76393200
v 8.73606900 25.00000000 6.19577400
v 7.50000000 25.00000000 6.00000000
v 6.26393200 25.00000000 6.19577400
v 5.14885900 25.00000000 6.76393200
v 4.26393200 25.00000000 7.64885900
v 3.69577400 25.00000000 8.76393100
v 3.50000000 25.00000000 10.00000000
v 3.50000000 25.00000000 20.00000000
v 3.69577400 25.00000000 21.23606700
v 4.26393200 25.00000000 22.35114100
v 5.14885900 25.00000000 23.23606900
v 6.26393200 25.00000000 23.80422800
v 7.50000000 25.00000000 24.00000000
v 8.73606900 25.00000000 23.80422800
v 9.85114100 25.00000000 23.23606900
v 10.73606800 25.00000000 22.35114100
v 11.30422600 25.00000000 21.23606700
v 11.50000000 25.00000000 20.00000000
f 14 4 3
f 25 1 2
f 21 20 2
f 21 22 2
f 24 25 2
f 10 4 9
f 10 11 4
f 13 14 4
f 18 19 3
f 15 14 3
f 15 16 3
f 23 22 2
f 23 24 2
f 28 27 1
f 26 25 1
f 26 27 1
f 12 11 4
f 12 13 4
f 17 16 3
f 17 18 3
f 29 30 1
f 29 28 1
f 7 5 2
f 7 1 2
f 6 5 2
f 6 3 2
f 6 7 5
f 6 7 8
f 4 6 3
f 4 6 8
f 4 7 1
f 4 7 8
f 4 30 9
f 4 30 1
f 20 3 2
f 20 19 3
f 29 30 9
f 29 20 19
f 29 15 14
f 29 23 22
f 29 13 14
f 29 21 22
f 29 10 9
f 29 18 19
f 29 21 20
f 29 24 25
f 29 17 16
f 29 10 11
f 29 26 25
f 29 12 11
f 29 15 16
f 29 23 24
f 29 28 27
f 29 26 27
f 29 12 13
f 29 17 18

