# Blender 4.4.0
# www.blender.org
mtllib Rk4i.mtl
o Rk4i
v 0.000000 20.000000 30.000000
v 0.000000 0.000000 30.000000
v 2.500000 20.000000 30.000000
v 2.500000 0.000000 30.000000
v 0.000000 0.000000 0.000000
v 0.000000 20.000000 0.000000
v 15.000000 0.000000 30.000000
v 12.500000 0.000000 30.000000
v 12.500000 0.000000 10.000000
v 2.500000 0.000000 30.000000
v 2.500000 0.000000 10.000000
v 15.000000 0.000000 0.000000
v 15.000000 8.071637 2.701867
v 15.000000 7.401924 3.500000
v 15.000000 11.026060 7.819078
v 15.000000 20.000000 30.000000
v 15.000000 10.000000 8.000000
v 15.000000 8.973939 7.819078
v 15.000000 8.071637 7.298133
v 15.000000 7.045577 4.479055
v 15.000000 7.045577 5.520945
v 15.000000 7.401924 6.500000
v 15.000000 12.954423 5.520945
v 15.000000 20.000000 0.000000
v 15.000000 12.598076 6.500000
v 15.000000 11.928363 7.298133
v 15.000000 12.954423 4.479055
v 15.000000 12.598076 3.500000
v 15.000000 11.928363 2.701867
v 15.000000 11.026060 2.180922
v 15.000000 10.000000 2.000000
v 15.000000 8.973939 2.180922
v 2.500000 20.000000 10.000000
v 12.500000 20.000000 30.000000
v 12.500000 20.000000 10.000000
v 12.500000 0.000000 30.000000
v 2.500000 0.000000 10.000000
v 12.500000 0.000000 10.000000
v 5.000000 10.000000 2.000000
v 5.000000 11.026060 2.180922
v 5.000000 11.928363 2.701867
v 5.000000 12.598076 3.500000
v 5.000000 12.954423 4.479055
v 5.000000 12.954423 5.520945
v 5.000000 12.598076 6.500000
v 5.000000 11.928363 7.298133
v 5.000000 11.026060 7.819078
v 5.000000 10.000000 8.000000
v 5.000000 8.973939 7.819078
v 5.000000 8.071637 7.298133
v 5.000000 7.401924 6.500000
v 5.000000 7.045577 5.520945
v 5.000000 7.045577 4.479055
v 5.000000 7.401924 3.500000
v 5.000000 8.071637 2.701867
v 5.000000 8.973939 2.180922
v 5.000000 10.000000 5.000000
vn -0.0000 -0.0000 1.0000
vn -1.0000 -0.0000 -0.0000
vn -0.0000 -1.0000 -0.0000
vn 1.0000 -0.0000 -0.0000
vn -0.0000 1.0000 -0.0000
vn -0.0000 -0.0000 -1.0000
vn -0.0000 -0.1736 0.9848
vn -0.0000 -0.5000 0.8660
vn -0.0000 -0.7660 0.6428
vn -0.0000 -0.9397 0.3420
vn -0.0000 -0.9397 -0.3420
vn -0.0000 -0.7660 -0.6428
vn -0.0000 -0.5000 -0.8660
vn -0.0000 -0.1736 -0.9848
vn -0.0000 0.1736 -0.9848
vn -0.0000 0.5000 -0.8660
vn -0.0000 0.7660 -0.6428
vn -0.0000 0.9397 -0.3420
vn -0.0000 0.9397 0.3420
vn -0.0000 0.7660 0.6428
vn -0.0000 0.5000 0.8660
vn -0.0000 0.1736 0.9848
s 0
f 1//1 2//1 3//1
f 3//1 2//1 4//1
f 2//2 1//2 5//2
f 5//2 1//2 6//2
f 7//3 8//3 9//3
f 10//3 2//3 11//3
f 11//3 2//3 5//3
f 11//3 5//3 9//3
f 9//3 5//3 12//3
f 9//3 12//3 7//3
f 12//4 13//4 14//4
f 15//4 16//4 17//4
f 17//4 16//4 7//4
f 17//4 7//4 18//4
f 18//4 7//4 19//4
f 14//4 20//4 12//4
f 12//4 20//4 21//4
f 12//4 21//4 7//4
f 7//4 21//4 22//4
f 7//4 22//4 19//4
f 23//4 24//4 25//4
f 25//4 24//4 16//4
f 25//4 16//4 26//4
f 26//4 16//4 15//4
f 23//4 27//4 24//4
f 24//4 27//4 28//4
f 24//4 28//4 29//4
f 29//4 30//4 24//4
f 24//4 30//4 31//4
f 24//4 31//4 12//4
f 12//4 31//4 32//4
f 12//4 32//4 13//4
f 1//5 3//5 33//5
f 34//5 16//5 35//5
f 35//5 16//5 24//5
f 35//5 24//5 33//5
f 33//5 24//5 6//5
f 33//5 6//5 1//5
f 36//1 7//1 34//1
f 34//1 7//1 16//1
f 24//6 12//6 6//6
f 6//6 12//6 5//6
f 37//1 38//1 33//1
f 33//1 38//1 35//1
f 38//2 36//2 35//2
f 35//2 36//2 34//2
f 4//4 37//4 3//4
f 3//4 37//4 33//4
f 39//7 31//7 40//7
f 40//7 31//7 30//7
f 40//8 30//8 41//8
f 41//8 30//8 29//8
f 41//9 29//9 42//9
f 42//9 29//9 28//9
f 42//10 28//10 43//10
f 43//10 28//10 27//10
f 43//3 27//3 44//3
f 44//3 27//3 23//3
f 44//11 23//11 45//11
f 45//11 23//11 25//11
f 45//12 25//12 46//12
f 46//12 25//12 26//12
f 46//13 26//13 47//13
f 47//13 26//13 15//13
f 47//14 15//14 48//14
f 48//14 15//14 17//14
f 48//15 17//15 49//15
f 49//15 17//15 18//15
f 49//16 18//16 50//16
f 50//16 18//16 19//16
f 50//17 19//17 51//17
f 51//17 19//17 22//17
f 51//18 22//18 52//18
f 52//18 22//18 21//18
f 52//5 21//5 53//5
f 53//5 21//5 20//5
f 53//19 20//19 54//19
f 54//19 20//19 14//19
f 54//20 14//20 55//20
f 55//20 14//20 13//20
f 55//21 13//21 56//21
f 56//21 13//21 32//21
f 56//22 32//22 39//22
f 39//22 32//22 31//22
f 55//4 56//4 57//4
f 57//4 56//4 39//4
f 57//4 39//4 40//4
f 52//4 53//4 57//4
f 57//4 53//4 54//4
f 57//4 54//4 55//4
f 49//4 50//4 57//4
f 57//4 50//4 51//4
f 57//4 51//4 52//4
f 46//4 47//4 57//4
f 57//4 47//4 48//4
f 57//4 48//4 49//4
f 43//4 44//4 57//4
f 57//4 44//4 45//4
f 57//4 45//4 46//4
f 40//4 41//4 57//4
f 57//4 41//4 42//4
f 57//4 42//4 43//4
