ISO-10303-21;
HEADER;
FILE_DESCRIPTION (( 'STEP AP214' ),
    '1' );
FILE_NAME ('Rk4i.STEP',
    '2025-09-08T12:59:04',
    ( '' ),
    ( '' ),
    'SwSTEP 2.0',
    'SolidWorks 2024',
    '' );
FILE_SCHEMA (( 'AUTOMOTIVE_DESIGN' ));
ENDSEC;

DATA;
#1 = LINE ( 'NONE', #332, #241 ) ;
#2 = CARTESIAN_POINT ( 'NONE',  ( 4.999999999999999112, 10.00000000000000355, 8.000000000000000000 ) ) ;
#3 = VECTOR ( 'NONE', #178, 1000.000000000000000 ) ;
#4 = ADVANCED_FACE ( 'NONE', ( #192 ), #312, .T. ) ;
#5 = CARTESIAN_POINT ( 'NONE',  ( 0.000000000000000000, 20.00000000000000355, 30.00000000000000000 ) ) ;
#6 = APPLICATION_PROTOCOL_DEFINITION ( 'draft international standard', 'automotive_design', 1998, #262 ) ;
#7 = CARTESIAN_POINT ( 'NONE',  ( 2.500000000000000444, 3.469446951953614189E-15, 30.00000000000000000 ) ) ;
#8 = CARTESIAN_POINT ( 'NONE',  ( 2.500000000000000444, 3.469446951953614189E-15, 9.999999999999998224 ) ) ;
#9 = EDGE_CURVE ( 'NONE', #193, #117, #94, .T. ) ;
#10 = COLOUR_RGB ( '',0.7921568627450980005, 0.8196078431372548767, 0.9333333333333333481 ) ;
#11 = VECTOR ( 'NONE', #351, 1000.000000000000000 ) ;
#12 = CARTESIAN_POINT ( 'NONE',  ( 2.500000000000000444, 3.469446951953614189E-15, 30.00000000000000000 ) ) ;
#13 = MANIFOLD_SOLID_BREP ( 'Schnitt-Linear austragen2', #86 ) ;
#14 = CARTESIAN_POINT ( 'NONE',  ( 0.000000000000000000, 0.000000000000000000, 30.00000000000000000 ) ) ;
#15 = CARTESIAN_POINT ( 'NONE',  ( 12.50000000000000000, 20.00000000000000355, 9.999999999999998224 ) ) ;
#16 = EDGE_CURVE ( 'NONE', #371, #210, #370, .T. ) ;
#17 = VECTOR ( 'NONE', #156, 1000.000000000000000 ) ;
#18 = LINE ( 'NONE', #14, #283 ) ;
#19 = CARTESIAN_POINT ( 'NONE',  ( 0.000000000000000000, 0.000000000000000000, 30.00000000000000000 ) ) ;
#20 = CARTESIAN_POINT ( 'NONE',  ( 0.000000000000000000, 0.000000000000000000, 30.00000000000000000 ) ) ;
#21 = VERTEX_POINT ( 'NONE', #7 ) ;
#22 = ADVANCED_FACE ( 'NONE', ( #155, #42 ), #106, .F. ) ;
#23 = DIRECTION ( 'NONE',  ( 1.000000000000000000, 0.000000000000000000, 0.000000000000000000 ) ) ;
#24 = ORIENTED_EDGE ( 'NONE', *, *, #194, .T. ) ;
#25 = LINE ( 'NONE', #389, #146 ) ;
#26 = ORIENTED_EDGE ( 'NONE', *, *, #248, .T. ) ;
#27 = PLANE ( 'NONE',  #359 ) ;
#28 = ORIENTED_EDGE ( 'NONE', *, *, #161, .F. ) ;
#29 = EDGE_CURVE ( 'NONE', #92, #364, #18, .T. ) ;
#30 = CARTESIAN_POINT ( 'NONE',  ( 12.50000000000000000, 20.00000000000000355, 30.00000000000000000 ) ) ;
#31 = ORIENTED_EDGE ( 'NONE', *, *, #248, .F. ) ;
#32 = CARTESIAN_POINT ( 'NONE',  ( 15.00000000000000000, 10.00000000000000355, 5.000000000000000000 ) ) ;
#33 = ORIENTED_EDGE ( 'NONE', *, *, #258, .T. ) ;
#34 = DIRECTION ( 'NONE',  ( -0.000000000000000000, -0.000000000000000000, -1.000000000000000000 ) ) ;
#35 = DIRECTION ( 'NONE',  ( 0.000000000000000000, 0.000000000000000000, -1.000000000000000000 ) ) ;
#36 = EDGE_CURVE ( 'NONE', #21, #361, #255, .T. ) ;
#37 = PRODUCT_CONTEXT ( 'NONE', #259, 'mechanical' ) ;
#38 = ORIENTED_EDGE ( 'NONE', *, *, #90, .T. ) ;
#39 = CIRCLE ( 'NONE', #88, 3.000000000000000444 ) ;
#40 = VERTEX_POINT ( 'NONE', #196 ) ;
#41 = EDGE_CURVE ( 'NONE', #352, #399, #227, .T. ) ;
#42 = FACE_OUTER_BOUND ( 'NONE', #55, .T. ) ;
#43 = CYLINDRICAL_SURFACE ( 'NONE', #254, 3.000000000000000444 ) ;
#44 = AXIS2_PLACEMENT_3D ( 'NONE', #46, #163, #347 ) ;
#45 = CARTESIAN_POINT ( 'NONE',  ( 0.000000000000000000, 0.000000000000000000, 30.00000000000000000 ) ) ;
#46 = CARTESIAN_POINT ( 'NONE',  ( 15.00000000000000000, 0.000000000000000000, 30.00000000000000000 ) ) ;
#47 = EDGE_CURVE ( 'NONE', #361, #193, #288, .T. ) ;
#48 = LINE ( 'NONE', #256, #372 ) ;
#49 = PRESENTATION_LAYER_ASSIGNMENT (  '', '', ( #118 ) ) ;
#50 = PLANE ( 'NONE',  #100 ) ;
#51 = ADVANCED_FACE ( 'NONE', ( #290 ), #132, .F. ) ;
#52 = DIRECTION ( 'NONE',  ( 1.000000000000000000, 0.000000000000000000, 0.000000000000000000 ) ) ;
#53 = EDGE_LOOP ( 'NONE', ( #145, #298, #38, #383 ) ) ;
#54 = CARTESIAN_POINT ( 'NONE',  ( 15.00000000000000000, 10.00000000000000355, 8.000000000000000000 ) ) ;
#55 = EDGE_LOOP ( 'NONE', ( #26, #264, #303, #246 ) ) ;
#56 = LINE ( 'NONE', #273, #3 ) ;
#57 = ORIENTED_EDGE ( 'NONE', *, *, #321, .F. ) ;
#58 = LINE ( 'NONE', #393, #343 ) ;
#59 = ORIENTED_EDGE ( 'NONE', *, *, #388, .F. ) ;
#60 = DIRECTION ( 'NONE',  ( -0.000000000000000000, 1.000000000000000000, -0.000000000000000000 ) ) ;
#61 = EDGE_LOOP ( 'NONE', ( #304, #223, #387, #109 ) ) ;
#62 = AXIS2_PLACEMENT_3D ( 'NONE', #341, #65, #35 ) ;
#63 = DIRECTION ( 'NONE',  ( 0.000000000000000000, 0.000000000000000000, -1.000000000000000000 ) ) ;
#64 = AXIS2_PLACEMENT_3D ( 'NONE', #322, #52, #172 ) ;
#65 = DIRECTION ( 'NONE',  ( 1.000000000000000000, 0.000000000000000000, 0.000000000000000000 ) ) ;
#66 = EDGE_CURVE ( 'NONE', #114, #243, #74, .T. ) ;
#67 = SURFACE_STYLE_FILL_AREA ( #69 ) ;
#68 = APPLICATION_PROTOCOL_DEFINITION ( 'draft international standard', 'automotive_design', 1998, #259 ) ;
#69 = FILL_AREA_STYLE ('',( #396 ) ) ;
#70 = EDGE_LOOP ( 'NONE', ( #394, #356, #112, #239, #250, #337, #173, #179 ) ) ;
#71 =( GEOMETRIC_REPRESENTATION_CONTEXT ( 3 ) GLOBAL_UNCERTAINTY_ASSIGNED_CONTEXT ( ( #136 ) ) GLOBAL_UNIT_ASSIGNED_CONTEXT ( ( #128, #309, #214 ) ) REPRESENTATION_CONTEXT ( 'NONE', 'WORKASPACE' ) );
#72 = EDGE_LOOP ( 'NONE', ( #208, #307 ) ) ;
#73 = ADVANCED_FACE ( 'NONE', ( #318 ), #77, .F. ) ;
#74 = LINE ( 'NONE', #102, #327 ) ;
#75 = PLANE ( 'NONE',  #384 ) ;
#76 = VECTOR ( 'NONE', #134, 1000.000000000000000 ) ;
#77 = PLANE ( 'NONE',  #152 ) ;
#78 = DIRECTION ( 'NONE',  ( 0.000000000000000000, 1.000000000000000000, 0.000000000000000000 ) ) ;
#79 = LINE ( 'NONE', #167, #297 ) ;
#80 = CARTESIAN_POINT ( 'NONE',  ( 15.00000000000000000, 20.00000000000000355, 30.00000000000000000 ) ) ;
#81 = ORIENTED_EDGE ( 'NONE', *, *, #41, .T. ) ;
#82 = CARTESIAN_POINT ( 'NONE',  ( 4.999999999999999112, 10.00000000000000355, 5.000000000000000000 ) ) ;
#83 = VERTEX_POINT ( 'NONE', #101 ) ;
#84 = DIRECTION ( 'NONE',  ( 1.000000000000000000, 0.000000000000000000, 0.000000000000000000 ) ) ;
#85 = ORIENTED_EDGE ( 'NONE', *, *, #258, .F. ) ;
#86 = CLOSED_SHELL ( 'NONE', ( #142, #212, #189, #51, #22, #103, #281, #115, #265, #73, #4, #397, #228 ) ) ;
#87 = VECTOR ( 'NONE', #314, 1000.000000000000000 ) ;
#88 = AXIS2_PLACEMENT_3D ( 'NONE', #154, #363, #277 ) ;
#89 = DIRECTION ( 'NONE',  ( -0.000000000000000000, -1.000000000000000000, -0.000000000000000000 ) ) ;
#90 = EDGE_CURVE ( 'NONE', #181, #92, #317, .T. ) ;
#91 = ORIENTED_EDGE ( 'NONE', *, *, #342, .T. ) ;
#92 = VERTEX_POINT ( 'NONE', #224 ) ;
#93 = CARTESIAN_POINT ( 'NONE',  ( 12.50000000000000000, 3.469446951953614189E-15, 30.00000000000000000 ) ) ;
#94 = LINE ( 'NONE', #275, #138 ) ;
#95 = DIRECTION ( 'NONE',  ( 0.000000000000000000, 0.000000000000000000, -1.000000000000000000 ) ) ;
#96 = ORIENTED_EDGE ( 'NONE', *, *, #204, .T. ) ;
#97 = DIRECTION ( 'NONE',  ( 1.000000000000000000, -0.000000000000000000, -0.000000000000000000 ) ) ;
#98 = ORIENTED_EDGE ( 'NONE', *, *, #362, .T. ) ;
#99 = EDGE_CURVE ( 'NONE', #399, #143, #48, .T. ) ;
#100 = AXIS2_PLACEMENT_3D ( 'NONE', #174, #385, #355 ) ;
#101 = CARTESIAN_POINT ( 'NONE',  ( 15.00000000000000000, 20.00000000000000355, 30.00000000000000000 ) ) ;
#102 = CARTESIAN_POINT ( 'NONE',  ( 4.999999999999999112, 10.00000000000000355, 1.999999999999999556 ) ) ;
#103 = ADVANCED_FACE ( 'NONE', ( #169 ), #107, .F. ) ;
#104 = DIRECTION ( 'NONE',  ( -1.000000000000000000, 0.000000000000000000, -0.000000000000000000 ) ) ;
#105 = VECTOR ( 'NONE', #97, 1000.000000000000000 ) ;
#106 = PLANE ( 'NONE',  #44 ) ;
#107 = PLANE ( 'NONE',  #190 ) ;
#108 = CARTESIAN_POINT ( 'NONE',  ( 15.00000000000000000, 0.000000000000000000, 0.000000000000000000 ) ) ;
#109 = ORIENTED_EDGE ( 'NONE', *, *, #301, .T. ) ;
#110 = VECTOR ( 'NONE', #340, 1000.000000000000000 ) ;
#111 = LINE ( 'NONE', #108, #11 ) ;
#112 = ORIENTED_EDGE ( 'NONE', *, *, #176, .F. ) ;
#113 = CARTESIAN_POINT ( 'NONE',  ( 2.500000000000000444, 20.00000000000000355, 30.00000000000000000 ) ) ;
#114 = VERTEX_POINT ( 'NONE', #195 ) ;
#115 = ADVANCED_FACE ( 'NONE', ( #168 ), #75, .T. ) ;
#116 = DIRECTION ( 'NONE',  ( 0.000000000000000000, 0.000000000000000000, -1.000000000000000000 ) ) ;
#117 = VERTEX_POINT ( 'NONE', #15 ) ;
#118 = STYLED_ITEM ( 'NONE', ( #186 ), #13 ) ;
#119 = AXIS2_PLACEMENT_3D ( 'NONE', #185, #366, #95 ) ;
#120 = FACE_OUTER_BOUND ( 'NONE', #160, .T. ) ;
#121 = ORIENTED_EDGE ( 'NONE', *, *, #47, .T. ) ;
#122 = DIRECTION ( 'NONE',  ( 1.000000000000000000, 0.000000000000000000, 0.000000000000000000 ) ) ;
#123 = SURFACE_STYLE_USAGE ( .BOTH. , #334 ) ;
#124 = EDGE_CURVE ( 'NONE', #352, #367, #348, .T. ) ;
#125 = ORIENTED_EDGE ( 'NONE', *, *, #362, .F. ) ;
#126 = FACE_OUTER_BOUND ( 'NONE', #61, .T. ) ;
#127 = ORIENTED_EDGE ( 'NONE', *, *, #124, .F. ) ;
#128 =( LENGTH_UNIT ( ) NAMED_UNIT ( * ) SI_UNIT ( .MILLI., .METRE. ) );
#129 = SHAPE_DEFINITION_REPRESENTATION ( #386, #381 ) ;
#130 = EDGE_CURVE ( 'NONE', #364, #143, #79, .T. ) ;
#131 = ORIENTED_EDGE ( 'NONE', *, *, #374, .F. ) ;
#132 = PLANE ( 'NONE',  #335 ) ;
#133 = AXIS2_PLACEMENT_3D ( 'NONE', #82, #23, #147 ) ;
#134 = DIRECTION ( 'NONE',  ( -0.000000000000000000, 1.000000000000000000, -0.000000000000000000 ) ) ;
#135 = DIRECTION ( 'NONE',  ( -0.000000000000000000, -0.000000000000000000, -1.000000000000000000 ) ) ;
#136 = UNCERTAINTY_MEASURE_WITH_UNIT (LENGTH_MEASURE( 1.000000000000000082E-05 ), #128, 'distance_accuracy_value', 'NONE');
#137 = DIRECTION ( 'NONE',  ( 1.000000000000000000, 0.000000000000000000, 0.000000000000000000 ) ) ;
#138 = VECTOR ( 'NONE', #157, 1000.000000000000000 ) ;
#139 = VECTOR ( 'NONE', #200, 1000.000000000000000 ) ;
#140 = DIRECTION ( 'NONE',  ( 0.000000000000000000, -0.000000000000000000, 1.000000000000000000 ) ) ;
#141 = LINE ( 'NONE', #263, #378 ) ;
#142 = ADVANCED_FACE ( 'NONE', ( #286 ), #43, .F. ) ;
#143 = VERTEX_POINT ( 'NONE', #379 ) ;
#144 = CARTESIAN_POINT ( 'NONE',  ( 0.000000000000000000, 20.00000000000000355, 0.000000000000000000 ) ) ;
#145 = ORIENTED_EDGE ( 'NONE', *, *, #276, .T. ) ;
#146 = VECTOR ( 'NONE', #296, 1000.000000000000000 ) ;
#147 = DIRECTION ( 'NONE',  ( 0.000000000000000000, 0.000000000000000000, -1.000000000000000000 ) ) ;
#148 = ORIENTED_EDGE ( 'NONE', *, *, #9, .T. ) ;
#149 = PLANE ( 'NONE',  #201 ) ;
#150 = DIRECTION ( 'NONE',  ( 0.000000000000000000, 0.000000000000000000, -1.000000000000000000 ) ) ;
#151 = EDGE_LOOP ( 'NONE', ( #253, #339, #211, #121 ) ) ;
#152 = AXIS2_PLACEMENT_3D ( 'NONE', #261, #198, #225 ) ;
#153 = AXIS2_PLACEMENT_3D ( 'NONE', #20, #150, #236 ) ;
#154 = CARTESIAN_POINT ( 'NONE',  ( 4.999999999999999112, 10.00000000000000355, 5.000000000000000000 ) ) ;
#155 = FACE_BOUND ( 'NONE', #221, .T. ) ;
#156 = DIRECTION ( 'NONE',  ( -1.000000000000000000, -0.000000000000000000, -0.000000000000000000 ) ) ;
#157 = DIRECTION ( 'NONE',  ( 1.000000000000000000, 0.000000000000000000, 0.000000000000000000 ) ) ;
#158 = CARTESIAN_POINT ( 'NONE',  ( 0.000000000000000000, 20.00000000000000355, 30.00000000000000000 ) ) ;
#159 = AXIS2_PLACEMENT_3D ( 'NONE', #19, #116, #357 ) ;
#160 = EDGE_LOOP ( 'NONE', ( #219, #59, #81, #24 ) ) ;
#161 = EDGE_CURVE ( 'NONE', #184, #181, #285, .T. ) ;
#162 = LINE ( 'NONE', #158, #365 ) ;
#163 = DIRECTION ( 'NONE',  ( -1.000000000000000000, 0.000000000000000000, 0.000000000000000000 ) ) ;
#164 = DIRECTION ( 'NONE',  ( 0.000000000000000000, 0.000000000000000000, -1.000000000000000000 ) ) ;
#165 = CIRCLE ( 'NONE', #133, 3.000000000000000444 ) ;
#166 = PRODUCT_DEFINITION_CONTEXT ( 'detailed design', #262, 'design' ) ;
#167 = CARTESIAN_POINT ( 'NONE',  ( 0.000000000000000000, 0.000000000000000000, 0.000000000000000000 ) ) ;
#168 = FACE_OUTER_BOUND ( 'NONE', #323, .T. ) ;
#169 = FACE_OUTER_BOUND ( 'NONE', #392, .T. ) ;
#170 = EDGE_CURVE ( 'NONE', #371, #114, #165, .T. ) ;
#171 = DIRECTION ( 'NONE',  ( 1.000000000000000000, 0.000000000000000000, 0.000000000000000000 ) ) ;
#172 = DIRECTION ( 'NONE',  ( 0.000000000000000000, 0.000000000000000000, -1.000000000000000000 ) ) ;
#173 = ORIENTED_EDGE ( 'NONE', *, *, #130, .T. ) ;
#174 = CARTESIAN_POINT ( 'NONE',  ( 4.999999999999999112, 10.00000000000000355, 5.000000000000000000 ) ) ;
#175 = ORIENTED_EDGE ( 'NONE', *, *, #176, .T. ) ;
#176 = EDGE_CURVE ( 'NONE', #361, #367, #180, .T. ) ;
#177 = VECTOR ( 'NONE', #63, 1000.000000000000000 ) ;
#178 = DIRECTION ( 'NONE',  ( -0.000000000000000000, 1.000000000000000000, -0.000000000000000000 ) ) ;
#179 = ORIENTED_EDGE ( 'NONE', *, *, #99, .F. ) ;
#180 = LINE ( 'NONE', #238, #139 ) ;
#181 = VERTEX_POINT ( 'NONE', #209 ) ;
#182 = ORIENTED_EDGE ( 'NONE', *, *, #90, .F. ) ;
#183 = LINE ( 'NONE', #30, #177 ) ;
#184 = VERTEX_POINT ( 'NONE', #269 ) ;
#185 = CARTESIAN_POINT ( 'NONE',  ( 4.999999999999999112, 10.00000000000000355, 5.000000000000000000 ) ) ;
#186 = PRESENTATION_STYLE_ASSIGNMENT (( #123 ) ) ;
#187 = CARTESIAN_POINT ( 'NONE',  ( 12.50000000000000000, 3.469446951953614189E-15, 9.999999999999998224 ) ) ;
#188 = EDGE_LOOP ( 'NONE', ( #91, #85, #127, #237 ) ) ;
#189 = ADVANCED_FACE ( 'NONE', ( #207 ), #27, .F. ) ;
#190 = AXIS2_PLACEMENT_3D ( 'NONE', #375, #345, #229 ) ;
#191 = CIRCLE ( 'NONE', #278, 3.000000000000000444 ) ;
#192 = FACE_OUTER_BOUND ( 'NONE', #151, .T. ) ;
#193 = VERTEX_POINT ( 'NONE', #324 ) ;
#194 = EDGE_CURVE ( 'NONE', #399, #83, #25, .T. ) ;
#195 = CARTESIAN_POINT ( 'NONE',  ( 4.999999999999999112, 10.00000000000000355, 1.999999999999999556 ) ) ;
#196 = CARTESIAN_POINT ( 'NONE',  ( 12.50000000000000000, 20.00000000000000355, 30.00000000000000000 ) ) ;
#197 = UNCERTAINTY_MEASURE_WITH_UNIT (LENGTH_MEASURE( 1.000000000000000082E-05 ), #245, 'distance_accuracy_value', 'NONE');
#198 = DIRECTION ( 'NONE',  ( 1.000000000000000000, 0.000000000000000000, 0.000000000000000000 ) ) ;
#199 = DIRECTION ( 'NONE',  ( 1.000000000000000000, 0.000000000000000000, 0.000000000000000000 ) ) ;
#200 = DIRECTION ( 'NONE',  ( 1.000000000000000000, 0.000000000000000000, 0.000000000000000000 ) ) ;
#201 = AXIS2_PLACEMENT_3D ( 'NONE', #391, #271, #171 ) ;
#202 = DIRECTION ( 'NONE',  ( -0.000000000000000000, -0.000000000000000000, -1.000000000000000000 ) ) ;
#203 = ORIENTED_EDGE ( 'NONE', *, *, #16, .T. ) ;
#204 = EDGE_CURVE ( 'NONE', #184, #193, #302, .T. ) ;
#205 = DIRECTION ( 'NONE',  ( 0.000000000000000000, 0.000000000000000000, -1.000000000000000000 ) ) ;
#206 = ORIENTED_EDGE ( 'NONE', *, *, #287, .F. ) ;
#207 = FACE_OUTER_BOUND ( 'NONE', #344, .T. ) ;
#208 = ORIENTED_EDGE ( 'NONE', *, *, #369, .T. ) ;
#209 = CARTESIAN_POINT ( 'NONE',  ( 0.000000000000000000, 20.00000000000000355, 30.00000000000000000 ) ) ;
#210 = VERTEX_POINT ( 'NONE', #54 ) ;
#211 = ORIENTED_EDGE ( 'NONE', *, *, #36, .T. ) ;
#212 = ADVANCED_FACE ( 'NONE', ( #330 ), #294, .F. ) ;
#213 =( NAMED_UNIT ( * ) SI_UNIT ( $, .STERADIAN. ) SOLID_ANGLE_UNIT ( ) );
#214 =( NAMED_UNIT ( * ) SI_UNIT ( $, .STERADIAN. ) SOLID_ANGLE_UNIT ( ) );
#215 = VECTOR ( 'NONE', #202, 1000.000000000000000 ) ;
#216 = CARTESIAN_POINT ( 'NONE',  ( 0.000000000000000000, 20.00000000000000355, 0.000000000000000000 ) ) ;
#217 = ORIENTED_EDGE ( 'NONE', *, *, #47, .F. ) ;
#218 = CARTESIAN_POINT ( 'NONE',  ( 2.500000000000000444, 3.469446951953614189E-15, 9.999999999999998224 ) ) ;
#219 = ORIENTED_EDGE ( 'NONE', *, *, #321, .T. ) ;
#220 =( NAMED_UNIT ( * ) PLANE_ANGLE_UNIT ( ) SI_UNIT ( $, .RADIAN. ) );
#221 = EDGE_LOOP ( 'NONE', ( #267, #125 ) ) ;
#222 =( GEOMETRIC_REPRESENTATION_CONTEXT ( 3 ) GLOBAL_UNCERTAINTY_ASSIGNED_CONTEXT ( ( #197 ) ) GLOBAL_UNIT_ASSIGNED_CONTEXT ( ( #245, #220, #213 ) ) REPRESENTATION_CONTEXT ( 'NONE', 'WORKASPACE' ) );
#223 = ORIENTED_EDGE ( 'NONE', *, *, #369, .F. ) ;
#224 = CARTESIAN_POINT ( 'NONE',  ( 0.000000000000000000, 0.000000000000000000, 30.00000000000000000 ) ) ;
#225 = DIRECTION ( 'NONE',  ( 0.000000000000000000, 0.000000000000000000, -1.000000000000000000 ) ) ;
#226 = DIRECTION ( 'NONE',  ( 1.000000000000000000, -0.000000000000000000, -0.000000000000000000 ) ) ;
#227 = LINE ( 'NONE', #45, #319 ) ;
#228 = ADVANCED_FACE ( 'NONE', ( #266 ), #50, .T. ) ;
#229 = DIRECTION ( 'NONE',  ( 0.000000000000000000, -0.000000000000000000, -1.000000000000000000 ) ) ;
#230 = CARTESIAN_POINT ( 'NONE',  ( 15.00000000000000000, 20.00000000000000355, 0.000000000000000000 ) ) ;
#231 = ORIENTED_EDGE ( 'NONE', *, *, #130, .F. ) ;
#232 = VECTOR ( 'NONE', #320, 1000.000000000000000 ) ;
#233 = PRODUCT_RELATED_PRODUCT_CATEGORY ( 'part', '', ( #293 ) ) ;
#234 = CARTESIAN_POINT ( 'NONE',  ( 0.000000000000000000, 20.00000000000000355, 30.00000000000000000 ) ) ;
#235 = VERTEX_POINT ( 'NONE', #144 ) ;
#236 = DIRECTION ( 'NONE',  ( -1.000000000000000000, 0.000000000000000000, -0.000000000000000000 ) ) ;
#237 = ORIENTED_EDGE ( 'NONE', *, *, #388, .T. ) ;
#238 = CARTESIAN_POINT ( 'NONE',  ( 2.500000000000000444, 3.469446951953614189E-15, 9.999999999999998224 ) ) ;
#239 = ORIENTED_EDGE ( 'NONE', *, *, #36, .F. ) ;
#240 = MECHANICAL_DESIGN_GEOMETRIC_PRESENTATION_REPRESENTATION (  '', ( #118 ), #71 ) ;
#241 = VECTOR ( 'NONE', #60, 1000.000000000000000 ) ;
#242 = PLANE ( 'NONE',  #159 ) ;
#243 = VERTEX_POINT ( 'NONE', #326 ) ;
#244 = DIRECTION ( 'NONE',  ( 0.000000000000000000, 0.000000000000000000, -1.000000000000000000 ) ) ;
#245 =( LENGTH_UNIT ( ) NAMED_UNIT ( * ) SI_UNIT ( .MILLI., .METRE. ) );
#246 = ORIENTED_EDGE ( 'NONE', *, *, #99, .T. ) ;
#247 = VECTOR ( 'NONE', #282, 1000.000000000000000 ) ;
#248 = EDGE_CURVE ( 'NONE', #143, #279, #111, .T. ) ;
#249 = CYLINDRICAL_SURFACE ( 'NONE', #119, 3.000000000000000444 ) ;
#250 = ORIENTED_EDGE ( 'NONE', *, *, #329, .F. ) ;
#251 = LINE ( 'NONE', #5, #110 ) ;
#252 = CARTESIAN_POINT ( 'NONE',  ( 4.999999999999999112, 10.00000000000000355, 8.000000000000000000 ) ) ;
#253 = ORIENTED_EDGE ( 'NONE', *, *, #204, .F. ) ;
#254 = AXIS2_PLACEMENT_3D ( 'NONE', #260, #226, #164 ) ;
#255 = LINE ( 'NONE', #12, #247 ) ;
#256 = CARTESIAN_POINT ( 'NONE',  ( 15.00000000000000000, 0.000000000000000000, 30.00000000000000000 ) ) ;
#257 = CARTESIAN_POINT ( 'NONE',  ( 0.000000000000000000, 0.000000000000000000, 30.00000000000000000 ) ) ;
#258 = EDGE_CURVE ( 'NONE', #367, #117, #56, .T. ) ;
#259 = APPLICATION_CONTEXT ( 'automotive_design' ) ;
#260 = CARTESIAN_POINT ( 'NONE',  ( 4.999999999999999112, 10.00000000000000355, 5.000000000000000000 ) ) ;
#261 = CARTESIAN_POINT ( 'NONE',  ( 12.50000000000000000, 3.469446951953614189E-15, 30.00000000000000000 ) ) ;
#262 = APPLICATION_CONTEXT ( 'automotive_design' ) ;
#263 = CARTESIAN_POINT ( 'NONE',  ( 0.000000000000000000, 0.000000000000000000, 0.000000000000000000 ) ) ;
#264 = ORIENTED_EDGE ( 'NONE', *, *, #291, .F. ) ;
#265 = ADVANCED_FACE ( 'NONE', ( #299 ), #149, .T. ) ;
#266 = FACE_OUTER_BOUND ( 'NONE', #72, .T. ) ;
#267 = ORIENTED_EDGE ( 'NONE', *, *, #301, .F. ) ;
#268 = CIRCLE ( 'NONE', #64, 3.000000000000000444 ) ;
#269 = CARTESIAN_POINT ( 'NONE',  ( 2.500000000000000444, 20.00000000000000355, 30.00000000000000000 ) ) ;
#270 = EDGE_LOOP ( 'NONE', ( #390, #217, #175, #33 ) ) ;
#271 = DIRECTION ( 'NONE',  ( -0.000000000000000000, 0.000000000000000000, 1.000000000000000000 ) ) ;
#272 = PRODUCT_DEFINITION ( 'UNKNOWN', '', #305, #166 ) ;
#273 = CARTESIAN_POINT ( 'NONE',  ( 12.50000000000000000, 3.469446951953614189E-15, 9.999999999999998224 ) ) ;
#274 = ORIENTED_EDGE ( 'NONE', *, *, #66, .F. ) ;
#275 = CARTESIAN_POINT ( 'NONE',  ( 2.500000000000000444, 20.00000000000000355, 9.999999999999998224 ) ) ;
#276 = EDGE_CURVE ( 'NONE', #21, #184, #58, .T. ) ;
#277 = DIRECTION ( 'NONE',  ( 0.000000000000000000, 0.000000000000000000, -1.000000000000000000 ) ) ;
#278 = AXIS2_PLACEMENT_3D ( 'NONE', #32, #368, #244 ) ;
#279 = VERTEX_POINT ( 'NONE', #230 ) ;
#280 = CARTESIAN_POINT ( 'NONE',  ( 15.00000000000000000, 0.000000000000000000, 30.00000000000000000 ) ) ;
#281 = ADVANCED_FACE ( 'NONE', ( #120 ), #242, .F. ) ;
#282 = DIRECTION ( 'NONE',  ( 0.000000000000000000, 0.000000000000000000, -1.000000000000000000 ) ) ;
#283 = VECTOR ( 'NONE', #313, 1000.000000000000000 ) ;
#284 = AXIS2_PLACEMENT_3D ( 'NONE', #338, #395, #122 ) ;
#285 = LINE ( 'NONE', #234, #289 ) ;
#286 = FACE_OUTER_BOUND ( 'NONE', #331, .T. ) ;
#287 = EDGE_CURVE ( 'NONE', #235, #364, #141, .T. ) ;
#288 = LINE ( 'NONE', #8, #76 ) ;
#289 = VECTOR ( 'NONE', #353, 1000.000000000000000 ) ;
#290 = FACE_OUTER_BOUND ( 'NONE', #70, .T. ) ;
#291 = EDGE_CURVE ( 'NONE', #83, #279, #382, .T. ) ;
#292 = DIRECTION ( 'NONE',  ( -0.000000000000000000, 1.000000000000000000, -0.000000000000000000 ) ) ;
#293 = PRODUCT ( 'Rk4i', 'Rk4i', '', ( #37 ) ) ;
#294 = PLANE ( 'NONE',  #153 ) ;
#295 = ORIENTED_EDGE ( 'NONE', *, *, #291, .T. ) ;
#296 = DIRECTION ( 'NONE',  ( 0.000000000000000000, 1.000000000000000000, 0.000000000000000000 ) ) ;
#297 = VECTOR ( 'NONE', #137, 1000.000000000000000 ) ;
#298 = ORIENTED_EDGE ( 'NONE', *, *, #161, .T. ) ;
#299 = FACE_OUTER_BOUND ( 'NONE', #270, .T. ) ;
#300 = ORIENTED_EDGE ( 'NONE', *, *, #346, .T. ) ;
#301 = EDGE_CURVE ( 'NONE', #243, #210, #268, .T. ) ;
#302 = LINE ( 'NONE', #113, #232 ) ;
#303 = ORIENTED_EDGE ( 'NONE', *, *, #194, .F. ) ;
#304 = ORIENTED_EDGE ( 'NONE', *, *, #16, .F. ) ;
#305 = PRODUCT_DEFINITION_FORMATION_WITH_SPECIFIED_SOURCE ( 'ANY', '', #293, .NOT_KNOWN. ) ;
#306 = CARTESIAN_POINT ( 'NONE',  ( 0.000000000000000000, 0.000000000000000000, 30.00000000000000000 ) ) ;
#307 = ORIENTED_EDGE ( 'NONE', *, *, #170, .T. ) ;
#308 = CARTESIAN_POINT ( 'NONE',  ( 0.000000000000000000, 0.000000000000000000, 0.000000000000000000 ) ) ;
#309 =( NAMED_UNIT ( * ) PLANE_ANGLE_UNIT ( ) SI_UNIT ( $, .RADIAN. ) );
#310 = LINE ( 'NONE', #216, #17 ) ;
#311 = ORIENTED_EDGE ( 'NONE', *, *, #374, .T. ) ;
#312 = PLANE ( 'NONE',  #62 ) ;
#313 = DIRECTION ( 'NONE',  ( -0.000000000000000000, -0.000000000000000000, -1.000000000000000000 ) ) ;
#314 = DIRECTION ( 'NONE',  ( 0.000000000000000000, 0.000000000000000000, -1.000000000000000000 ) ) ;
#315 = VECTOR ( 'NONE', #336, 1000.000000000000000 ) ;
#316 = CARTESIAN_POINT ( 'NONE',  ( 0.000000000000000000, 0.000000000000000000, 0.000000000000000000 ) ) ;
#317 = LINE ( 'NONE', #257, #377 ) ;
#318 = FACE_OUTER_BOUND ( 'NONE', #188, .T. ) ;
#319 = VECTOR ( 'NONE', #199, 1000.000000000000000 ) ;
#320 = DIRECTION ( 'NONE',  ( 0.000000000000000000, 0.000000000000000000, -1.000000000000000000 ) ) ;
#321 = EDGE_CURVE ( 'NONE', #83, #40, #251, .T. ) ;
#322 = CARTESIAN_POINT ( 'NONE',  ( 15.00000000000000000, 10.00000000000000355, 5.000000000000000000 ) ) ;
#323 = EDGE_LOOP ( 'NONE', ( #206, #131, #31, #231 ) ) ;
#324 = CARTESIAN_POINT ( 'NONE',  ( 2.500000000000000444, 20.00000000000000355, 9.999999999999998224 ) ) ;
#325 = ORIENTED_EDGE ( 'NONE', *, *, #29, .F. ) ;
#326 = CARTESIAN_POINT ( 'NONE',  ( 15.00000000000000000, 10.00000000000000355, 1.999999999999999556 ) ) ;
#327 = VECTOR ( 'NONE', #373, 1000.000000000000000 ) ;
#328 = ORIENTED_EDGE ( 'NONE', *, *, #346, .F. ) ;
#329 = EDGE_CURVE ( 'NONE', #92, #21, #398, .T. ) ;
#330 = FACE_OUTER_BOUND ( 'NONE', #53, .T. ) ;
#331 = EDGE_LOOP ( 'NONE', ( #358, #203, #98, #274 ) ) ;
#332 = CARTESIAN_POINT ( 'NONE',  ( 12.50000000000000000, 3.469446951953614189E-15, 30.00000000000000000 ) ) ;
#333 = ORIENTED_EDGE ( 'NONE', *, *, #287, .T. ) ;
#334 = SURFACE_SIDE_STYLE ('',( #67 ) ) ;
#335 = AXIS2_PLACEMENT_3D ( 'NONE', #349, #78, #140 ) ;
#336 = DIRECTION ( 'NONE',  ( 1.000000000000000000, 0.000000000000000000, 0.000000000000000000 ) ) ;
#337 = ORIENTED_EDGE ( 'NONE', *, *, #29, .T. ) ;
#338 = CARTESIAN_POINT ( 'NONE',  ( 0.000000000000000000, 0.000000000000000000, 0.000000000000000000 ) ) ;
#339 = ORIENTED_EDGE ( 'NONE', *, *, #276, .F. ) ;
#340 = DIRECTION ( 'NONE',  ( -1.000000000000000000, -0.000000000000000000, -0.000000000000000000 ) ) ;
#341 = CARTESIAN_POINT ( 'NONE',  ( 2.500000000000000444, 3.469446951953614189E-15, 30.00000000000000000 ) ) ;
#342 = EDGE_CURVE ( 'NONE', #40, #117, #183, .T. ) ;
#343 = VECTOR ( 'NONE', #292, 1000.000000000000000 ) ;
#344 = EDGE_LOOP ( 'NONE', ( #333, #325, #182, #300 ) ) ;
#345 = DIRECTION ( 'NONE',  ( 0.000000000000000000, -1.000000000000000000, 0.000000000000000000 ) ) ;
#346 = EDGE_CURVE ( 'NONE', #181, #235, #162, .T. ) ;
#347 = DIRECTION ( 'NONE',  ( 0.000000000000000000, 0.000000000000000000, 1.000000000000000000 ) ) ;
#348 = LINE ( 'NONE', #350, #87 ) ;
#349 = CARTESIAN_POINT ( 'NONE',  ( 0.000000000000000000, 0.000000000000000000, 30.00000000000000000 ) ) ;
#350 = CARTESIAN_POINT ( 'NONE',  ( 12.50000000000000000, 3.469446951953614189E-15, 30.00000000000000000 ) ) ;
#351 = DIRECTION ( 'NONE',  ( 0.000000000000000000, 1.000000000000000000, 0.000000000000000000 ) ) ;
#352 = VERTEX_POINT ( 'NONE', #93 ) ;
#353 = DIRECTION ( 'NONE',  ( -1.000000000000000000, -0.000000000000000000, -0.000000000000000000 ) ) ;
#354 = ORIENTED_EDGE ( 'NONE', *, *, #342, .F. ) ;
#355 = DIRECTION ( 'NONE',  ( 0.000000000000000000, 0.000000000000000000, -1.000000000000000000 ) ) ;
#356 = ORIENTED_EDGE ( 'NONE', *, *, #124, .T. ) ;
#357 = DIRECTION ( 'NONE',  ( -1.000000000000000000, 0.000000000000000000, -0.000000000000000000 ) ) ;
#358 = ORIENTED_EDGE ( 'NONE', *, *, #170, .F. ) ;
#359 = AXIS2_PLACEMENT_3D ( 'NONE', #360, #84, #205 ) ;
#360 = CARTESIAN_POINT ( 'NONE',  ( 0.000000000000000000, 0.000000000000000000, 30.00000000000000000 ) ) ;
#361 = VERTEX_POINT ( 'NONE', #218 ) ;
#362 = EDGE_CURVE ( 'NONE', #210, #243, #191, .T. ) ;
#363 = DIRECTION ( 'NONE',  ( 1.000000000000000000, 0.000000000000000000, 0.000000000000000000 ) ) ;
#364 = VERTEX_POINT ( 'NONE', #308 ) ;
#365 = VECTOR ( 'NONE', #34, 1000.000000000000000 ) ;
#366 = DIRECTION ( 'NONE',  ( 1.000000000000000000, -0.000000000000000000, -0.000000000000000000 ) ) ;
#367 = VERTEX_POINT ( 'NONE', #187 ) ;
#368 = DIRECTION ( 'NONE',  ( 1.000000000000000000, 0.000000000000000000, 0.000000000000000000 ) ) ;
#369 = EDGE_CURVE ( 'NONE', #114, #371, #39, .T. ) ;
#370 = LINE ( 'NONE', #2, #105 ) ;
#371 = VERTEX_POINT ( 'NONE', #252 ) ;
#372 = VECTOR ( 'NONE', #135, 1000.000000000000000 ) ;
#373 = DIRECTION ( 'NONE',  ( 1.000000000000000000, -0.000000000000000000, -0.000000000000000000 ) ) ;
#374 = EDGE_CURVE ( 'NONE', #279, #235, #310, .T. ) ;
#375 = CARTESIAN_POINT ( 'NONE',  ( 0.000000000000000000, 20.00000000000000355, 30.00000000000000000 ) ) ;
#376 = DIRECTION ( 'NONE',  ( 0.000000000000000000, 0.000000000000000000, -1.000000000000000000 ) ) ;
#377 = VECTOR ( 'NONE', #380, 1000.000000000000000 ) ;
#378 = VECTOR ( 'NONE', #89, 1000.000000000000000 ) ;
#379 = CARTESIAN_POINT ( 'NONE',  ( 15.00000000000000000, 0.000000000000000000, 0.000000000000000000 ) ) ;
#380 = DIRECTION ( 'NONE',  ( -0.000000000000000000, -1.000000000000000000, -0.000000000000000000 ) ) ;
#381 = ADVANCED_BREP_SHAPE_REPRESENTATION ( 'Rk4i', ( #13, #284 ), #222 ) ;
#382 = LINE ( 'NONE', #80, #215 ) ;
#383 = ORIENTED_EDGE ( 'NONE', *, *, #329, .T. ) ;
#384 = AXIS2_PLACEMENT_3D ( 'NONE', #316, #376, #104 ) ;
#385 = DIRECTION ( 'NONE',  ( 1.000000000000000000, 0.000000000000000000, 0.000000000000000000 ) ) ;
#386 = PRODUCT_DEFINITION_SHAPE ( 'NONE', 'NONE',  #272 ) ;
#387 = ORIENTED_EDGE ( 'NONE', *, *, #66, .T. ) ;
#388 = EDGE_CURVE ( 'NONE', #352, #40, #1, .T. ) ;
#389 = CARTESIAN_POINT ( 'NONE',  ( 15.00000000000000000, 0.000000000000000000, 30.00000000000000000 ) ) ;
#390 = ORIENTED_EDGE ( 'NONE', *, *, #9, .F. ) ;
#391 = CARTESIAN_POINT ( 'NONE',  ( 2.500000000000000444, 3.469446951953614189E-15, 9.999999999999998224 ) ) ;
#392 = EDGE_LOOP ( 'NONE', ( #148, #354, #57, #295, #311, #328, #28, #96 ) ) ;
#393 = CARTESIAN_POINT ( 'NONE',  ( 2.500000000000000444, 3.469446951953614189E-15, 30.00000000000000000 ) ) ;
#394 = ORIENTED_EDGE ( 'NONE', *, *, #41, .F. ) ;
#395 = DIRECTION ( 'NONE',  ( 0.000000000000000000, 0.000000000000000000, 1.000000000000000000 ) ) ;
#396 = FILL_AREA_STYLE_COLOUR ( '', #10 ) ;
#397 = ADVANCED_FACE ( 'NONE', ( #126 ), #249, .F. ) ;
#398 = LINE ( 'NONE', #306, #315 ) ;
#399 = VERTEX_POINT ( 'NONE', #280 ) ;
ENDSEC;
END-ISO-10303-21;
