# https://github.com/mikedh/trimesh
v 7.50000000 5.00000000 85.00000000
v 7.50000000 25.00000000 85.00000000
v 22.50000000 5.00000000 85.00000000
v 22.50000000 25.00000000 85.00000000
v 30.00000000 15.00000000 5.00000000
v 29.56412700 18.58973500 0.00000000
v 29.56412700 18.58973500 5.00000000
v 28.28184100 21.97084600 0.00000000
v 28.28184100 21.97084600 5.00000000
v 26.22766100 24.94684000 0.00000000
v 26.22766100 24.94684000 5.00000000
v 23.52096900 27.34475900 0.00000000
v 23.52096900 27.34475900 5.00000000
v 20.31907300 29.02524200 0.00000000
v 20.31907300 29.02524200 5.00000000
v 16.80805000 29.89063300 0.00000000
v 16.80805000 29.89063300 5.00000000
v 13.19195000 29.89063300 0.00000000
v 13.19195000 29.89063300 5.00000000
v 9.68092600 29.02524200 0.00000000
v 9.68092600 29.02524200 5.00000000
v 6.47902900 27.34475900 0.00000000
v 6.47902900 27.34475900 5.00000000
v 3.77233900 24.94684000 0.00000000
v 3.77233900 24.94684000 5.00000000
v 1.71815900 21.97084600 0.00000000
v 1.71815900 21.97084600 5.00000000
v 0.43587200 18.58973500 0.00000000
v 0.43587200 18.58973500 5.00000000
v 0.00000000 15.00000000 0.00000000
v 0.00000000 15.00000000 5.00000000
v 0.43587200 11.41026500 0.00000000
v 0.43587200 11.41026500 5.00000000
v 1.71815900 8.02915300 0.00000000
v 1.71815900 8.02915300 5.00000000
v 3.77233900 5.05316000 0.00000000
v 3.77233900 5.05316000 5.00000000
v 6.47902900 2.65524200 0.00000000
v 6.47902900 2.65524200 5.00000000
v 9.68092600 0.97475600 0.00000000
v 9.68092600 0.97475600 5.00000000
v 13.19195000 0.10936700 0.00000000
v 13.19195000 0.10936700 5.00000000
v 16.80805000 0.10936700 0.00000000
v 16.80805000 0.10936700 5.00000000
v 20.31907300 0.97475600 0.00000000
v 20.31907300 0.97475600 5.00000000
v 23.52096900 2.65524200 0.00000000
v 23.52096900 2.65524200 5.00000000
v 26.22766100 5.05316000 0.00000000
v 26.22766100 5.05316000 5.00000000
v 28.28184100 8.02915300 0.00000000
v 28.28184100 8.02915300 5.00000000
v 29.56412700 11.41026500 0.00000000
v 29.56412700 11.41026500 5.00000000
v 30.00000000 15.00000000 0.00000000
f 31 2 1
f 3 4 5
f 3 55 5
f 7 4 5
f 21 19 2
f 53 3 55
f 9 7 4
f 23 21 2
f 23 25 2
f 15 17 4
f 15 13 4
f 29 31 2
f 27 25 2
f 27 29 2
f 49 47 3
f 11 13 4
f 11 9 4
f 33 31 1
f 39 37 1
f 51 49 3
f 51 53 3
f 41 43 1
f 41 39 1
f 45 47 3
f 35 33 1
f 35 37 1
f 3 4 2
f 3 2 1
f 17 18 16
f 17 18 19
f 17 4 2
f 17 19 2
f 6 9 8
f 6 9 7
f 6 56 5
f 6 7 5
f 20 23 22
f 20 23 21
f 20 18 19
f 20 21 19
f 29 28 30
f 29 31 30
f 24 23 22
f 24 23 25
f 27 24 26
f 27 24 25
f 27 28 26
f 27 29 28
f 33 32 30
f 33 31 30
f 14 17 16
f 14 15 17
f 14 12 13
f 14 15 13
f 51 52 50
f 51 52 53
f 48 51 50
f 48 51 49
f 48 46 47
f 48 49 47
f 45 3 1
f 45 43 1
f 54 56 5
f 54 55 5
f 54 52 53
f 54 53 55
f 10 9 8
f 10 11 9
f 10 12 13
f 10 11 13
f 35 32 34
f 35 33 32
f 35 36 34
f 35 36 37
f 38 41 40
f 38 41 39
f 38 36 37
f 38 39 37
f 42 41 40
f 42 41 43
f 44 14 16
f 44 6 8
f 44 10 8
f 44 18 16
f 44 24 22
f 44 20 22
f 44 28 30
f 44 52 50
f 44 32 30
f 44 28 26
f 44 6 56
f 44 54 56
f 44 32 34
f 44 20 18
f 44 24 26
f 44 38 40
f 44 48 50
f 44 36 34
f 44 14 12
f 44 48 46
f 44 54 52
f 44 10 12
f 44 38 36
f 44 42 40
f 44 46 47
f 44 45 47
f 44 45 43
f 44 42 43

