# Blender 4.4.0
# www.blender.org
mtllib Rl1a.mtl
o Rl1a
v 7.500000 5.000000 85.000000
v 7.500000 25.000000 85.000000
v 7.500000 5.000000 5.000000
v 7.500000 25.000000 5.000000
v 22.500000 5.000000 85.000000
v 22.500000 5.000000 5.000000
v 22.500000 25.000000 85.000000
v 22.500000 25.000000 5.000000
v 30.000000 15.000000 5.000000
v 29.564127 18.589735 0.000000
v 29.564127 18.589735 5.000000
v 28.281841 21.970846 0.000000
v 28.281841 21.970846 5.000000
v 26.227661 24.946840 0.000000
v 26.227661 24.946840 5.000000
v 23.520969 27.344759 0.000000
v 23.520969 27.344759 5.000000
v 20.319073 29.025242 0.000000
v 20.319073 29.025242 5.000000
v 16.808050 29.890633 0.000000
v 16.808050 29.890633 5.000000
v 13.191950 29.890633 0.000000
v 13.191950 29.890633 5.000000
v 9.680926 29.025242 0.000000
v 9.680926 29.025242 5.000000
v 6.479029 27.344759 0.000000
v 6.479029 27.344759 5.000000
v 3.772339 24.946840 0.000000
v 3.772339 24.946840 5.000000
v 1.718159 21.970846 0.000000
v 1.718159 21.970846 5.000000
v 0.435872 18.589735 0.000000
v 0.435872 18.589735 5.000000
v 0.000000 15.000000 0.000000
v 0.000000 15.000000 5.000000
v 0.435872 11.410265 0.000000
v 0.435872 11.410265 5.000000
v 1.718159 8.029153 0.000000
v 1.718159 8.029153 5.000000
v 3.772339 5.053160 0.000000
v 3.772339 5.053160 5.000000
v 6.479029 2.655242 0.000000
v 6.479029 2.655242 5.000000
v 9.680926 0.974756 0.000000
v 9.680926 0.974756 5.000000
v 13.191950 0.109367 0.000000
v 13.191950 0.109367 5.000000
v 16.808050 0.109367 0.000000
v 16.808050 0.109367 5.000000
v 20.319073 0.974756 0.000000
v 20.319073 0.974756 5.000000
v 23.520969 2.655242 0.000000
v 23.520969 2.655242 5.000000
v 26.227661 5.053160 0.000000
v 26.227661 5.053160 5.000000
v 28.281841 8.029153 0.000000
v 28.281841 8.029153 5.000000
v 29.564127 11.410265 0.000000
v 29.564127 11.410265 5.000000
v 30.000000 15.000000 0.000000
v 15.000000 15.000000 0.000000
vn -1.0000 -0.0000 -0.0000
vn -0.0000 -1.0000 -0.0000
vn 1.0000 -0.0000 -0.0000
vn -0.0000 1.0000 -0.0000
vn -0.0000 -0.0000 1.0000
vn 0.9927 0.1205 -0.0000
vn 0.9350 0.3546 -0.0000
vn 0.8230 0.5681 -0.0000
vn 0.6631 0.7485 -0.0000
vn 0.4647 0.8855 -0.0000
vn 0.2393 0.9709 -0.0000
vn -0.2393 0.9709 -0.0000
vn -0.4647 0.8855 -0.0000
vn -0.6631 0.7485 -0.0000
vn -0.8230 0.5681 -0.0000
vn -0.9350 0.3546 -0.0000
vn -0.9927 0.1205 -0.0000
vn -0.9927 -0.1205 -0.0000
vn -0.9350 -0.3546 -0.0000
vn -0.8230 -0.5681 -0.0000
vn -0.6631 -0.7485 -0.0000
vn -0.4647 -0.8855 -0.0000
vn -0.2393 -0.9709 -0.0000
vn 0.2393 -0.9709 -0.0000
vn 0.4647 -0.8855 -0.0000
vn 0.6631 -0.7485 -0.0000
vn 0.8230 -0.5681 -0.0000
vn 0.9350 -0.3546 -0.0000
vn 0.9927 -0.1205 -0.0000
vn -0.0000 -0.0000 -1.0000
s 0
f 1//1 2//1 3//1
f 3//1 2//1 4//1
f 5//2 1//2 6//2
f 6//2 1//2 3//2
f 7//3 5//3 8//3
f 8//3 5//3 6//3
f 2//4 7//4 4//4
f 4//4 7//4 8//4
f 5//5 7//5 1//5
f 1//5 7//5 2//5
f 9//6 10//6 11//6
f 11//7 10//7 12//7
f 11//7 12//7 13//7
f 13//8 12//8 14//8
f 13//8 14//8 15//8
f 15//9 14//9 16//9
f 15//9 16//9 17//9
f 17//10 16//10 18//10
f 17//10 18//10 19//10
f 19//11 18//11 20//11
f 19//11 20//11 21//11
f 21//4 20//4 22//4
f 21//4 22//4 23//4
f 23//12 22//12 24//12
f 23//12 24//12 25//12
f 25//13 24//13 26//13
f 25//13 26//13 27//13
f 27//14 26//14 28//14
f 27//14 28//14 29//14
f 29//15 28//15 30//15
f 29//15 30//15 31//15
f 31//16 30//16 32//16
f 31//16 32//16 33//16
f 33//17 32//17 34//17
f 33//17 34//17 35//17
f 35//18 34//18 36//18
f 35//18 36//18 37//18
f 37//19 36//19 38//19
f 37//19 38//19 39//19
f 39//20 38//20 40//20
f 39//20 40//20 41//20
f 41//21 40//21 42//21
f 41//21 42//21 43//21
f 43//22 42//22 44//22
f 43//22 44//22 45//22
f 45//23 44//23 46//23
f 45//23 46//23 47//23
f 47//2 46//2 48//2
f 47//2 48//2 49//2
f 49//24 48//24 50//24
f 49//24 50//24 51//24
f 51//25 50//25 52//25
f 51//25 52//25 53//25
f 53//26 52//26 54//26
f 53//26 54//26 55//26
f 55//27 54//27 56//27
f 55//27 56//27 57//27
f 57//28 56//28 58//28
f 57//28 58//28 59//28
f 59//29 58//29 60//29
f 59//29 60//29 9//29
f 9//6 60//6 10//6
f 34//30 32//30 61//30
f 34//30 61//30 36//30
f 42//30 40//30 61//30
f 61//30 40//30 38//30
f 61//30 38//30 36//30
f 48//30 46//30 61//30
f 61//30 46//30 44//30
f 61//30 44//30 42//30
f 54//30 52//30 61//30
f 61//30 52//30 50//30
f 61//30 50//30 48//30
f 60//30 58//30 61//30
f 61//30 58//30 56//30
f 61//30 56//30 54//30
f 14//30 12//30 61//30
f 61//30 12//30 10//30
f 61//30 10//30 60//30
f 20//30 18//30 61//30
f 61//30 18//30 16//30
f 61//30 16//30 14//30
f 26//30 24//30 61//30
f 61//30 24//30 22//30
f 61//30 22//30 20//30
f 32//30 30//30 61//30
f 61//30 30//30 28//30
f 61//30 28//30 26//30
f 8//5 17//5 19//5
f 6//5 53//5 8//5
f 8//5 53//5 55//5
f 8//5 55//5 57//5
f 19//5 21//5 8//5
f 8//5 21//5 23//5
f 8//5 23//5 4//5
f 41//5 43//5 3//5
f 3//5 43//5 45//5
f 45//5 47//5 3//5
f 3//5 47//5 49//5
f 3//5 49//5 6//5
f 6//5 49//5 51//5
f 6//5 51//5 53//5
f 23//5 25//5 4//5
f 4//5 25//5 27//5
f 4//5 27//5 3//5
f 3//5 27//5 29//5
f 57//5 59//5 8//5
f 8//5 59//5 9//5
f 8//5 9//5 11//5
f 29//5 31//5 3//5
f 3//5 31//5 33//5
f 3//5 33//5 35//5
f 11//5 13//5 8//5
f 8//5 13//5 15//5
f 8//5 15//5 17//5
f 35//5 37//5 3//5
f 3//5 37//5 39//5
f 3//5 39//5 41//5
