ISO-10303-21;
HEADER;
FILE_DESCRIPTION (( 'STEP AP214' ),
    '1' );
FILE_NAME ('Rl2i.STEP',
    '2025-09-08T12:59:49',
    ( '' ),
    ( '' ),
    'SwSTEP 2.0',
    'SolidWorks 2024',
    '' );
FILE_SCHEMA (( 'AUTOMOTIVE_DESIGN' ));
ENDSEC;

DATA;
#1 = CARTESIAN_POINT ( 'NONE',  ( 11.99999999999999822, 3.469446951953614189E-15, 30.00000000000000000 ) ) ;
#2 = VECTOR ( 'NONE', #253, 1000.000000000000000 ) ;
#3 = ORIENTED_EDGE ( 'NONE', *, *, #390, .F. ) ;
#4 = PLANE ( 'NONE',  #137 ) ;
#5 = CARTESIAN_POINT ( 'NONE',  ( 0.000000000000000000, 0.000000000000000000, 80.00000000000000000 ) ) ;
#6 = ORIENTED_EDGE ( 'NONE', *, *, #245, .F. ) ;
#7 = LINE ( 'NONE', #167, #212 ) ;
#8 = EDGE_LOOP ( 'NONE', ( #285, #182, #129, #291 ) ) ;
#9 = CARTESIAN_POINT ( 'NONE',  ( 0.000000000000000000, 0.000000000000000000, 80.00000000000000000 ) ) ;
#10 = DIRECTION ( 'NONE',  ( -0.7071067811865475727, 0.000000000000000000, -0.7071067811865475727 ) ) ;
#11 = ORIENTED_EDGE ( 'NONE', *, *, #77, .F. ) ;
#12 = AXIS2_PLACEMENT_3D ( 'NONE', #350, #477, #468 ) ;
#13 = MANIFOLD_SOLID_BREP ( 'Schnitt-Linear austragen1', #125 ) ;
#14 = DIRECTION ( 'NONE',  ( -0.000000000000000000, -0.000000000000000000, -1.000000000000000000 ) ) ;
#15 = CARTESIAN_POINT ( 'NONE',  ( 15.00000000000000000, 3.469446951953614189E-15, 70.00000000000000000 ) ) ;
#16 = VERTEX_POINT ( 'NONE', #320 ) ;
#17 = CARTESIAN_POINT ( 'NONE',  ( 15.00000000000000355, 20.00000000000000355, 10.00000000000000000 ) ) ;
#18 = DIRECTION ( 'NONE',  ( -0.000000000000000000, -0.000000000000000000, -1.000000000000000000 ) ) ;
#19 = ORIENTED_EDGE ( 'NONE', *, *, #316, .F. ) ;
#20 = ADVANCED_FACE ( 'NONE', ( #271 ), #480, .T. ) ;
#21 = CARTESIAN_POINT ( 'NONE',  ( 0.000000000000000000, 0.000000000000000000, 0.000000000000000000 ) ) ;
#22 = ORIENTED_EDGE ( 'NONE', *, *, #504, .T. ) ;
#23 = DIRECTION ( 'NONE',  ( 1.000000000000000000, 0.000000000000000000, 0.000000000000000000 ) ) ;
#24 = ORIENTED_EDGE ( 'NONE', *, *, #297, .F. ) ;
#25 = COLOUR_RGB ( '',0.7921568627450980005, 0.8196078431372548767, 0.9333333333333333481 ) ;
#26 = VECTOR ( 'NONE', #508, 1000.000000000000000 ) ;
#27 = DIRECTION ( 'NONE',  ( 0.7071067811865474617, 0.000000000000000000, 0.7071067811865474617 ) ) ;
#28 = VERTEX_POINT ( 'NONE', #114 ) ;
#29 = LINE ( 'NONE', #226, #235 ) ;
#30 = FILL_AREA_STYLE_COLOUR ( '', #25 ) ;
#31 = DIRECTION ( 'NONE',  ( 1.000000000000000000, 0.000000000000000000, 0.000000000000000000 ) ) ;
#32 = ORIENTED_EDGE ( 'NONE', *, *, #180, .T. ) ;
#33 = VECTOR ( 'NONE', #14, 1000.000000000000000 ) ;
#34 = CARTESIAN_POINT ( 'NONE',  ( 11.99999999999999822, 20.00000000000000355, 50.00000000000000000 ) ) ;
#35 = ORIENTED_EDGE ( 'NONE', *, *, #37, .T. ) ;
#36 = CARTESIAN_POINT ( 'NONE',  ( 15.00000000000000000, 0.000000000000000000, 0.000000000000000000 ) ) ;
#37 = EDGE_CURVE ( 'NONE', #335, #93, #437, .T. ) ;
#38 = EDGE_CURVE ( 'NONE', #335, #168, #395, .T. ) ;
#39 = APPLICATION_PROTOCOL_DEFINITION ( 'draft international standard', 'automotive_design', 1998, #323 ) ;
#40 = PLANE ( 'NONE',  #379 ) ;
#41 = ADVANCED_BREP_SHAPE_REPRESENTATION ( 'Rl2i', ( #13, #355 ), #511 ) ;
#42 = DIRECTION ( 'NONE',  ( -1.000000000000000000, 0.000000000000000000, -1.156482317317871133E-15 ) ) ;
#43 = VECTOR ( 'NONE', #499, 1000.000000000000000 ) ;
#44 = EDGE_LOOP ( 'NONE', ( #32, #96, #164, #326 ) ) ;
#45 = EDGE_CURVE ( 'NONE', #100, #206, #267, .T. ) ;
#46 = DIRECTION ( 'NONE',  ( -1.000000000000000000, 0.000000000000000000, -1.156482317317871133E-15 ) ) ;
#47 = ORIENTED_EDGE ( 'NONE', *, *, #91, .T. ) ;
#48 = CARTESIAN_POINT ( 'NONE',  ( 15.00000000000000000, 3.469446951953614189E-15, 50.00000000000000000 ) ) ;
#49 = VERTEX_POINT ( 'NONE', #112 ) ;
#50 = DIRECTION ( 'NONE',  ( 0.7071067811865472397, 0.000000000000000000, 0.7071067811865479058 ) ) ;
#51 = VECTOR ( 'NONE', #364, 1000.000000000000000 ) ;
#52 = ORIENTED_EDGE ( 'NONE', *, *, #406, .F. ) ;
#53 = VECTOR ( 'NONE', #23, 1000.000000000000000 ) ;
#54 = CARTESIAN_POINT ( 'NONE',  ( 0.000000000000000000, 0.000000000000000000, 80.00000000000000000 ) ) ;
#55 = ORIENTED_EDGE ( 'NONE', *, *, #123, .T. ) ;
#56 = CARTESIAN_POINT ( 'NONE',  ( 0.000000000000000000, 0.000000000000000000, 80.00000000000000000 ) ) ;
#57 = ORIENTED_EDGE ( 'NONE', *, *, #435, .F. ) ;
#58 = DIRECTION ( 'NONE',  ( -0.7071067811865479058, 0.000000000000000000, 0.7071067811865472397 ) ) ;
#59 = ORIENTED_EDGE ( 'NONE', *, *, #261, .F. ) ;
#60 = EDGE_CURVE ( 'NONE', #296, #401, #155, .T. ) ;
#61 = DIRECTION ( 'NONE',  ( -0.000000000000000000, -0.000000000000000000, -1.000000000000000000 ) ) ;
#62 = ORIENTED_EDGE ( 'NONE', *, *, #286, .T. ) ;
#63 = CARTESIAN_POINT ( 'NONE',  ( 0.000000000000000000, 0.000000000000000000, 0.000000000000000000 ) ) ;
#64 = EDGE_LOOP ( 'NONE', ( #493, #3, #461, #349, #260, #331, #171, #457, #52, #247, #139, #417, #11, #368 ) ) ;
#65 = PLANE ( 'NONE',  #12 ) ;
#66 = ORIENTED_EDGE ( 'NONE', *, *, #38, .T. ) ;
#67 = AXIS2_PLACEMENT_3D ( 'NONE', #372, #10, #487 ) ;
#68 = CARTESIAN_POINT ( 'NONE',  ( 7.999999999999996447, 3.469446951953614189E-15, 17.00000000000000000 ) ) ;
#69 = CARTESIAN_POINT ( 'NONE',  ( 0.000000000000000000, 20.00000000000000355, 80.00000000000000000 ) ) ;
#70 = FACE_OUTER_BOUND ( 'NONE', #176, .T. ) ;
#71 = VERTEX_POINT ( 'NONE', #314 ) ;
#72 = CARTESIAN_POINT ( 'NONE',  ( 15.00000000000000000, 0.000000000000000000, 80.00000000000000000 ) ) ;
#73 = CARTESIAN_POINT ( 'NONE',  ( 11.99999999999999822, 3.469446951953614189E-15, 50.00000000000000000 ) ) ;
#74 = EDGE_CURVE ( 'NONE', #93, #464, #273, .T. ) ;
#75 = VECTOR ( 'NONE', #304, 1000.000000000000000 ) ;
#76 = PLANE ( 'NONE',  #302 ) ;
#77 = EDGE_CURVE ( 'NONE', #401, #136, #444, .T. ) ;
#78 = DIRECTION ( 'NONE',  ( -1.000000000000000000, 0.000000000000000000, -1.156482317317871133E-15 ) ) ;
#79 = CARTESIAN_POINT ( 'NONE',  ( 0.000000000000000000, 0.000000000000000000, 80.00000000000000000 ) ) ;
#80 = DIRECTION ( 'NONE',  ( 1.000000000000000000, 0.000000000000000000, 0.000000000000000000 ) ) ;
#81 = FACE_OUTER_BOUND ( 'NONE', #384, .T. ) ;
#82 = VERTEX_POINT ( 'NONE', #48 ) ;
#83 =( NAMED_UNIT ( * ) PLANE_ANGLE_UNIT ( ) SI_UNIT ( $, .RADIAN. ) );
#84 = CARTESIAN_POINT ( 'NONE',  ( 7.999999999999996447, 20.00000000000000355, 17.00000000000000000 ) ) ;
#85 = DIRECTION ( 'NONE',  ( -0.000000000000000000, 1.000000000000000000, -0.000000000000000000 ) ) ;
#86 = CARTESIAN_POINT ( 'NONE',  ( 15.00000000000000000, 3.469446951953614189E-15, 30.00000000000000355 ) ) ;
#87 = APPLICATION_PROTOCOL_DEFINITION ( 'draft international standard', 'automotive_design', 1998, #144 ) ;
#88 = CARTESIAN_POINT ( 'NONE',  ( 11.99999999999999822, 20.00000000000000355, 30.00000000000000000 ) ) ;
#89 = VERTEX_POINT ( 'NONE', #405 ) ;
#90 = EDGE_CURVE ( 'NONE', #263, #441, #122, .T. ) ;
#91 = EDGE_CURVE ( 'NONE', #464, #16, #287, .T. ) ;
#92 = CARTESIAN_POINT ( 'NONE',  ( 15.00000000000000000, 20.00000000000000355, 80.00000000000000000 ) ) ;
#93 = VERTEX_POINT ( 'NONE', #210 ) ;
#94 = VECTOR ( 'NONE', #486, 1000.000000000000000 ) ;
#95 = CARTESIAN_POINT ( 'NONE',  ( 8.000000000000000000, 20.00000000000000355, 63.00000000000000000 ) ) ;
#96 = ORIENTED_EDGE ( 'NONE', *, *, #316, .T. ) ;
#97 = CARTESIAN_POINT ( 'NONE',  ( 15.00000000000000000, 20.00000000000000355, 80.00000000000000000 ) ) ;
#98 = ORIENTED_EDGE ( 'NONE', *, *, #344, .T. ) ;
#99 = LINE ( 'NONE', #224, #442 ) ;
#100 = VERTEX_POINT ( 'NONE', #86 ) ;
#101 = AXIS2_PLACEMENT_3D ( 'NONE', #108, #352, #473 ) ;
#102 = VECTOR ( 'NONE', #61, 1000.000000000000000 ) ;
#103 = DIRECTION ( 'NONE',  ( 0.000000000000000000, 0.000000000000000000, 1.000000000000000000 ) ) ;
#104 = EDGE_LOOP ( 'NONE', ( #515, #427, #237, #459 ) ) ;
#105 = LINE ( 'NONE', #306, #279 ) ;
#106 = EDGE_LOOP ( 'NONE', ( #221, #200, #506, #146 ) ) ;
#107 = DIRECTION ( 'NONE',  ( -0.7071067811865475727, 0.000000000000000000, 0.7071067811865475727 ) ) ;
#108 = CARTESIAN_POINT ( 'NONE',  ( 0.000000000000000000, 0.000000000000000000, 0.000000000000000000 ) ) ;
#109 = DIRECTION ( 'NONE',  ( 0.7071067811865472397, 0.000000000000000000, 0.7071067811865479058 ) ) ;
#110 = CARTESIAN_POINT ( 'NONE',  ( 11.99999999999999822, 3.469446951953614189E-15, 30.00000000000000000 ) ) ;
#111 = FACE_OUTER_BOUND ( 'NONE', #311, .T. ) ;
#112 = CARTESIAN_POINT ( 'NONE',  ( 15.00000000000000000, 20.00000000000000355, 70.00000000000000000 ) ) ;
#113 = FACE_OUTER_BOUND ( 'NONE', #64, .T. ) ;
#114 = CARTESIAN_POINT ( 'NONE',  ( 15.00000000000000000, 0.000000000000000000, 80.00000000000000000 ) ) ;
#115 = VECTOR ( 'NONE', #238, 1000.000000000000000 ) ;
#116 = VECTOR ( 'NONE', #27, 1000.000000000000114 ) ;
#117 = LINE ( 'NONE', #404, #227 ) ;
#118 = DIRECTION ( 'NONE',  ( -0.000000000000000000, 1.000000000000000000, -0.000000000000000000 ) ) ;
#119 = ADVANCED_FACE ( 'NONE', ( #163 ), #370, .F. ) ;
#120 = CARTESIAN_POINT ( 'NONE',  ( 15.00000000000000000, 0.000000000000000000, 80.00000000000000000 ) ) ;
#121 = ORIENTED_EDGE ( 'NONE', *, *, #45, .F. ) ;
#122 = LINE ( 'NONE', #79, #51 ) ;
#123 = EDGE_CURVE ( 'NONE', #422, #498, #490, .T. ) ;
#124 = ORIENTED_EDGE ( 'NONE', *, *, #517, .F. ) ;
#125 = CLOSED_SHELL ( 'NONE', ( #488, #381, #308, #396, #310, #428, #451, #156, #20, #438, #366, #204, #190, #330, #341, #119 ) ) ;
#126 = VECTOR ( 'NONE', #42, 1000.000000000000000 ) ;
#127 = CARTESIAN_POINT ( 'NONE',  ( 15.00000000000000000, 0.000000000000000000, 0.000000000000000000 ) ) ;
#128 = PRODUCT_DEFINITION_FORMATION_WITH_SPECIFIED_SOURCE ( 'ANY', '', #513, .NOT_KNOWN. ) ;
#129 = ORIENTED_EDGE ( 'NONE', *, *, #197, .T. ) ;
#130 = CARTESIAN_POINT ( 'NONE',  ( 0.000000000000000000, 20.00000000000000355, 0.000000000000000000 ) ) ;
#131 = EDGE_LOOP ( 'NONE', ( #346, #158, #391, #223 ) ) ;
#132 = DIRECTION ( 'NONE',  ( -0.000000000000000000, -1.000000000000000000, -0.000000000000000000 ) ) ;
#133 = ORIENTED_EDGE ( 'NONE', *, *, #254, .T. ) ;
#134 = DIRECTION ( 'NONE',  ( 1.000000000000000000, 0.000000000000000000, 0.000000000000000000 ) ) ;
#135 = AXIS2_PLACEMENT_3D ( 'NONE', #5, #443, #333 ) ;
#136 = VERTEX_POINT ( 'NONE', #130 ) ;
#137 = AXIS2_PLACEMENT_3D ( 'NONE', #402, #241, #516 ) ;
#138 = DIRECTION ( 'NONE',  ( -0.000000000000000000, 1.000000000000000000, -0.000000000000000000 ) ) ;
#139 = ORIENTED_EDGE ( 'NONE', *, *, #425, .T. ) ;
#140 = EDGE_CURVE ( 'NONE', #255, #299, #288, .T. ) ;
#141 = CARTESIAN_POINT ( 'NONE',  ( 15.00000000000000000, 0.000000000000000000, 80.00000000000000000 ) ) ;
#142 = EDGE_LOOP ( 'NONE', ( #24, #358, #187, #6 ) ) ;
#143 = EDGE_CURVE ( 'NONE', #28, #296, #403, .T. ) ;
#144 = APPLICATION_CONTEXT ( 'automotive_design' ) ;
#145 = FACE_OUTER_BOUND ( 'NONE', #257, .T. ) ;
#146 = ORIENTED_EDGE ( 'NONE', *, *, #60, .T. ) ;
#147 = AXIS2_PLACEMENT_3D ( 'NONE', #309, #510, #157 ) ;
#148 = DIRECTION ( 'NONE',  ( 0.000000000000000000, 1.000000000000000000, 0.000000000000000000 ) ) ;
#149 = ORIENTED_EDGE ( 'NONE', *, *, #336, .T. ) ;
#150 = CARTESIAN_POINT ( 'NONE',  ( 14.99999999999999645, 3.469446951953614189E-15, 24.00000000000000000 ) ) ;
#151 = SURFACE_SIDE_STYLE ('',( #194 ) ) ;
#152 = PLANE ( 'NONE',  #259 ) ;
#153 = ORIENTED_EDGE ( 'NONE', *, *, #38, .F. ) ;
#154 = CARTESIAN_POINT ( 'NONE',  ( 0.000000000000000000, 20.00000000000000355, 80.00000000000000000 ) ) ;
#155 = LINE ( 'NONE', #69, #371 ) ;
#156 = ADVANCED_FACE ( 'NONE', ( #281 ), #361, .F. ) ;
#157 = DIRECTION ( 'NONE',  ( 0.000000000000000000, 0.000000000000000000, 1.000000000000000000 ) ) ;
#158 = ORIENTED_EDGE ( 'NONE', *, *, #90, .F. ) ;
#159 = LINE ( 'NONE', #9, #446 ) ;
#160 = CARTESIAN_POINT ( 'NONE',  ( 11.99999999999999822, 3.469446951953614189E-15, 30.00000000000000000 ) ) ;
#161 = VECTOR ( 'NONE', #452, 1000.000000000000000 ) ;
#162 = VECTOR ( 'NONE', #148, 1000.000000000000000 ) ;
#163 = FACE_OUTER_BOUND ( 'NONE', #104, .T. ) ;
#164 = ORIENTED_EDGE ( 'NONE', *, *, #319, .F. ) ;
#165 = DIRECTION ( 'NONE',  ( 0.000000000000000000, 0.000000000000000000, 1.000000000000000000 ) ) ;
#166 = CARTESIAN_POINT ( 'NONE',  ( 15.00000000000000000, 20.00000000000000355, 56.00000000000000000 ) ) ;
#167 = CARTESIAN_POINT ( 'NONE',  ( 0.000000000000000000, 20.00000000000000355, 0.000000000000000000 ) ) ;
#168 = VERTEX_POINT ( 'NONE', #88 ) ;
#169 = PRODUCT_CONTEXT ( 'NONE', #323, 'mechanical' ) ;
#170 = CARTESIAN_POINT ( 'NONE',  ( 15.00000000000000000, 3.469446951953614189E-15, 56.00000000000000000 ) ) ;
#171 = ORIENTED_EDGE ( 'NONE', *, *, #482, .F. ) ;
#172 = EDGE_CURVE ( 'NONE', #299, #303, #367, .T. ) ;
#173 = CARTESIAN_POINT ( 'NONE',  ( 15.00000000000000000, 3.469446951953614189E-15, 30.00000000000000355 ) ) ;
#174 = VERTEX_POINT ( 'NONE', #84 ) ;
#175 = LINE ( 'NONE', #454, #420 ) ;
#176 = EDGE_LOOP ( 'NONE', ( #449, #338, #59, #411 ) ) ;
#177 = CARTESIAN_POINT ( 'NONE',  ( 15.00000000000000000, 0.000000000000000000, 80.00000000000000000 ) ) ;
#178 = VECTOR ( 'NONE', #398, 1000.000000000000000 ) ;
#179 = EDGE_LOOP ( 'NONE', ( #98, #317, #57, #22 ) ) ;
#180 = EDGE_CURVE ( 'NONE', #28, #498, #242, .T. ) ;
#181 = DIRECTION ( 'NONE',  ( 0.7071067811865474617, 0.000000000000000000, 0.7071067811865474617 ) ) ;
#182 = ORIENTED_EDGE ( 'NONE', *, *, #504, .F. ) ;
#183 = DIRECTION ( 'NONE',  ( 0.000000000000000000, 1.000000000000000000, 0.000000000000000000 ) ) ;
#184 = VERTEX_POINT ( 'NONE', #410 ) ;
#185 = LINE ( 'NONE', #63, #2 ) ;
#186 = EDGE_CURVE ( 'NONE', #100, #335, #413, .T. ) ;
#187 = ORIENTED_EDGE ( 'NONE', *, *, #474, .F. ) ;
#188 = VECTOR ( 'NONE', #50, 1000.000000000000000 ) ;
#189 = AXIS2_PLACEMENT_3D ( 'NONE', #203, #239, #46 ) ;
#190 = ADVANCED_FACE ( 'NONE', ( #484 ), #40, .F. ) ;
#191 = CARTESIAN_POINT ( 'NONE',  ( 15.00000000000000355, 3.469446951953614189E-15, 10.00000000000000000 ) ) ;
#192 =( LENGTH_UNIT ( ) NAMED_UNIT ( * ) SI_UNIT ( .MILLI., .METRE. ) );
#193 = DIRECTION ( 'NONE',  ( 0.000000000000000000, 0.000000000000000000, 1.000000000000000000 ) ) ;
#194 = SURFACE_STYLE_FILL_AREA ( #277 ) ;
#195 = PLANE ( 'NONE',  #147 ) ;
#196 = SURFACE_STYLE_USAGE ( .BOTH. , #151 ) ;
#197 = EDGE_CURVE ( 'NONE', #407, #219, #328, .T. ) ;
#198 = AXIS2_PLACEMENT_3D ( 'NONE', #177, #216, #103 ) ;
#199 = CARTESIAN_POINT ( 'NONE',  ( 15.00000000000000355, 3.469446951953614189E-15, 10.00000000000000000 ) ) ;
#200 = ORIENTED_EDGE ( 'NONE', *, *, #517, .T. ) ;
#201 = DIRECTION ( 'NONE',  ( -0.7071067811865479058, 0.000000000000000000, 0.7071067811865472397 ) ) ;
#202 = SHAPE_DEFINITION_REPRESENTATION ( #274, #41 ) ;
#203 = CARTESIAN_POINT ( 'NONE',  ( 15.00000000000000000, 3.469446951953614189E-15, 30.00000000000000355 ) ) ;
#204 = ADVANCED_FACE ( 'NONE', ( #81 ), #246, .F. ) ;
#205 = DIRECTION ( 'NONE',  ( -0.000000000000000000, -0.000000000000000000, -1.000000000000000000 ) ) ;
#206 = VERTEX_POINT ( 'NONE', #207 ) ;
#207 = CARTESIAN_POINT ( 'NONE',  ( 15.00000000000000000, 20.00000000000000355, 30.00000000000000000 ) ) ;
#208 = ORIENTED_EDGE ( 'NONE', *, *, #466, .F. ) ;
#209 = EDGE_CURVE ( 'NONE', #476, #136, #7, .T. ) ;
#210 = CARTESIAN_POINT ( 'NONE',  ( 11.99999999999999822, 3.469446951953614189E-15, 50.00000000000000000 ) ) ;
#211 = ORIENTED_EDGE ( 'NONE', *, *, #231, .T. ) ;
#212 = VECTOR ( 'NONE', #329, 1000.000000000000000 ) ;
#213 = CARTESIAN_POINT ( 'NONE',  ( 11.99999999999999822, 20.00000000000000355, 50.00000000000000000 ) ) ;
#214 = PRODUCT_DEFINITION ( 'UNKNOWN', '', #128, #436 ) ;
#215 = EDGE_LOOP ( 'NONE', ( #495, #469, #294, #66 ) ) ;
#216 = DIRECTION ( 'NONE',  ( -1.000000000000000000, 0.000000000000000000, 0.000000000000000000 ) ) ;
#217 = ORIENTED_EDGE ( 'NONE', *, *, #374, .T. ) ;
#218 = PLANE ( 'NONE',  #389 ) ;
#219 = VERTEX_POINT ( 'NONE', #127 ) ;
#220 = PLANE ( 'NONE',  #455 ) ;
#221 = ORIENTED_EDGE ( 'NONE', *, *, #357, .T. ) ;
#222 = DIRECTION ( 'NONE',  ( -0.000000000000000000, 1.000000000000000000, -0.000000000000000000 ) ) ;
#223 = ORIENTED_EDGE ( 'NONE', *, *, #77, .T. ) ;
#224 = CARTESIAN_POINT ( 'NONE',  ( 7.999999999999996447, 3.469446951953614189E-15, 17.00000000000000000 ) ) ;
#225 = ORIENTED_EDGE ( 'NONE', *, *, #45, .T. ) ;
#226 = CARTESIAN_POINT ( 'NONE',  ( 15.00000000000000000, 3.469446951953614189E-15, 50.00000000000000000 ) ) ;
#227 = VECTOR ( 'NONE', #78, 1000.000000000000000 ) ;
#228 = CARTESIAN_POINT ( 'NONE',  ( 7.999999999999996447, 20.00000000000000355, 17.00000000000000000 ) ) ;
#229 = DIRECTION ( 'NONE',  ( -1.000000000000000000, -0.000000000000000000, -0.000000000000000000 ) ) ;
#230 = CARTESIAN_POINT ( 'NONE',  ( 15.00000000000000000, 0.000000000000000000, 80.00000000000000000 ) ) ;
#231 = EDGE_CURVE ( 'NONE', #93, #82, #423, .T. ) ;
#232 = LINE ( 'NONE', #191, #250 ) ;
#233 =( NAMED_UNIT ( * ) SI_UNIT ( $, .STERADIAN. ) SOLID_ANGLE_UNIT ( ) );
#234 = VECTOR ( 'NONE', #118, 1000.000000000000000 ) ;
#235 = VECTOR ( 'NONE', #514, 1000.000000000000000 ) ;
#236 = DIRECTION ( 'NONE',  ( -0.000000000000000000, -0.000000000000000000, -1.000000000000000000 ) ) ;
#237 = ORIENTED_EDGE ( 'NONE', *, *, #286, .F. ) ;
#238 = DIRECTION ( 'NONE',  ( 1.000000000000000000, 0.000000000000000000, 0.000000000000000000 ) ) ;
#239 = DIRECTION ( 'NONE',  ( 1.156482317317871133E-15, 0.000000000000000000, -1.000000000000000000 ) ) ;
#240 = VECTOR ( 'NONE', #369, 1000.000000000000000 ) ;
#241 = DIRECTION ( 'NONE',  ( -1.000000000000000000, 0.000000000000000000, 0.000000000000000000 ) ) ;
#242 = LINE ( 'NONE', #448, #33 ) ;
#243 = ORIENTED_EDGE ( 'NONE', *, *, #123, .F. ) ;
#244 = CARTESIAN_POINT ( 'NONE',  ( 0.000000000000000000, 0.000000000000000000, 0.000000000000000000 ) ) ;
#245 = EDGE_CURVE ( 'NONE', #441, #219, #185, .T. ) ;
#246 = PLANE ( 'NONE',  #189 ) ;
#247 = ORIENTED_EDGE ( 'NONE', *, *, #344, .F. ) ;
#248 = CARTESIAN_POINT ( 'NONE',  ( 0.000000000000000000, 20.00000000000000355, 80.00000000000000000 ) ) ;
#249 = ORIENTED_EDGE ( 'NONE', *, *, #231, .F. ) ;
#250 = VECTOR ( 'NONE', #394, 999.9999999999998863 ) ;
#251 = LINE ( 'NONE', #97, #268 ) ;
#252 = ORIENTED_EDGE ( 'NONE', *, *, #390, .T. ) ;
#253 = DIRECTION ( 'NONE',  ( 1.000000000000000000, 0.000000000000000000, 0.000000000000000000 ) ) ;
#254 = EDGE_CURVE ( 'NONE', #100, #378, #421, .T. ) ;
#255 = VERTEX_POINT ( 'NONE', #342 ) ;
#256 = CARTESIAN_POINT ( 'NONE',  ( 15.00000000000000000, 20.00000000000000355, 80.00000000000000000 ) ) ;
#257 = EDGE_LOOP ( 'NONE', ( #252, #19, #243, #424 ) ) ;
#258 = CARTESIAN_POINT ( 'NONE',  ( 11.99999999999999822, 3.469446951953614189E-15, 50.00000000000000000 ) ) ;
#259 = AXIS2_PLACEMENT_3D ( 'NONE', #68, #107, #439 ) ;
#260 = ORIENTED_EDGE ( 'NONE', *, *, #91, .F. ) ;
#261 = EDGE_CURVE ( 'NONE', #71, #378, #298, .T. ) ;
#262 = CARTESIAN_POINT ( 'NONE',  ( 8.000000000000000000, 3.469446951953614189E-15, 63.00000000000000000 ) ) ;
#263 = VERTEX_POINT ( 'NONE', #54 ) ;
#264 = LINE ( 'NONE', #429, #481 ) ;
#265 = ORIENTED_EDGE ( 'NONE', *, *, #180, .F. ) ;
#266 = CARTESIAN_POINT ( 'NONE',  ( 0.000000000000000000, 20.00000000000000355, 80.00000000000000000 ) ) ;
#267 = LINE ( 'NONE', #433, #278 ) ;
#268 = VECTOR ( 'NONE', #18, 1000.000000000000000 ) ;
#269 = DIRECTION ( 'NONE',  ( 0.000000000000000000, -0.000000000000000000, -1.000000000000000000 ) ) ;
#270 = EDGE_CURVE ( 'NONE', #71, #174, #99, .T. ) ;
#271 = FACE_OUTER_BOUND ( 'NONE', #142, .T. ) ;
#272 = FACE_OUTER_BOUND ( 'NONE', #179, .T. ) ;
#273 = LINE ( 'NONE', #73, #440 ) ;
#274 = PRODUCT_DEFINITION_SHAPE ( 'NONE', 'NONE',  #214 ) ;
#275 = FACE_OUTER_BOUND ( 'NONE', #8, .T. ) ;
#276 = UNCERTAINTY_MEASURE_WITH_UNIT (LENGTH_MEASURE( 1.000000000000000082E-05 ), #192, 'distance_accuracy_value', 'NONE');
#277 = FILL_AREA_STYLE ('',( #30 ) ) ;
#278 = VECTOR ( 'NONE', #512, 1000.000000000000000 ) ;
#279 = VECTOR ( 'NONE', #109, 1000.000000000000000 ) ;
#280 =( NAMED_UNIT ( * ) SI_UNIT ( $, .STERADIAN. ) SOLID_ANGLE_UNIT ( ) );
#281 = FACE_OUTER_BOUND ( 'NONE', #106, .T. ) ;
#282 = EDGE_CURVE ( 'NONE', #206, #89, #295, .T. ) ;
#283 = CARTESIAN_POINT ( 'NONE',  ( 8.000000000000000000, 3.469446951953614189E-15, 63.00000000000000000 ) ) ;
#284 = DIRECTION ( 'NONE',  ( -0.000000000000000000, 1.000000000000000000, -0.000000000000000000 ) ) ;
#285 = ORIENTED_EDGE ( 'NONE', *, *, #425, .F. ) ;
#286 = EDGE_CURVE ( 'NONE', #255, #422, #175, .T. ) ;
#287 = LINE ( 'NONE', #213, #115 ) ;
#288 = LINE ( 'NONE', #170, #387 ) ;
#289 = EDGE_LOOP ( 'NONE', ( #47, #343, #249, #362 ) ) ;
#290 = CARTESIAN_POINT ( 'NONE',  ( 11.99999999999999822, 3.469446951953614189E-15, 30.00000000000000000 ) ) ;
#291 = ORIENTED_EDGE ( 'NONE', *, *, #474, .T. ) ;
#292 = VECTOR ( 'NONE', #85, 1000.000000000000000 ) ;
#293 = LINE ( 'NONE', #418, #43 ) ;
#294 = ORIENTED_EDGE ( 'NONE', *, *, #37, .F. ) ;
#295 = LINE ( 'NONE', #460, #503 ) ;
#296 = VERTEX_POINT ( 'NONE', #92 ) ;
#297 = EDGE_CURVE ( 'NONE', #136, #441, #383, .T. ) ;
#298 = LINE ( 'NONE', #415, #471 ) ;
#299 = VERTEX_POINT ( 'NONE', #385 ) ;
#300 = EDGE_CURVE ( 'NONE', #299, #16, #251, .T. ) ;
#301 = PLANE ( 'NONE',  #339 ) ;
#302 = AXIS2_PLACEMENT_3D ( 'NONE', #154, #313, #269 ) ;
#303 = VERTEX_POINT ( 'NONE', #95 ) ;
#304 = DIRECTION ( 'NONE',  ( -0.000000000000000000, -1.000000000000000000, -0.000000000000000000 ) ) ;
#305 = ORIENTED_EDGE ( 'NONE', *, *, #435, .T. ) ;
#306 = CARTESIAN_POINT ( 'NONE',  ( 8.000000000000000000, 20.00000000000000355, 63.00000000000000000 ) ) ;
#307 = ORIENTED_EDGE ( 'NONE', *, *, #186, .F. ) ;
#308 = ADVANCED_FACE ( 'NONE', ( #463 ), #347, .F. ) ;
#309 = CARTESIAN_POINT ( 'NONE',  ( 15.00000000000000000, 0.000000000000000000, 80.00000000000000000 ) ) ;
#310 = ADVANCED_FACE ( 'NONE', ( #494 ), #220, .F. ) ;
#311 = EDGE_LOOP ( 'NONE', ( #467, #500, #414, #217 ) ) ;
#312 = VECTOR ( 'NONE', #345, 1000.000000000000000 ) ;
#313 = DIRECTION ( 'NONE',  ( 0.000000000000000000, -1.000000000000000000, 0.000000000000000000 ) ) ;
#314 = CARTESIAN_POINT ( 'NONE',  ( 7.999999999999996447, 3.469446951953614189E-15, 17.00000000000000000 ) ) ;
#315 = LINE ( 'NONE', #434, #75 ) ;
#316 = EDGE_CURVE ( 'NONE', #498, #49, #497, .T. ) ;
#317 = ORIENTED_EDGE ( 'NONE', *, *, #270, .F. ) ;
#318 = LINE ( 'NONE', #483, #292 ) ;
#319 = EDGE_CURVE ( 'NONE', #296, #49, #458, .T. ) ;
#320 = CARTESIAN_POINT ( 'NONE',  ( 15.00000000000000000, 20.00000000000000355, 50.00000000000000000 ) ) ;
#321 = VECTOR ( 'NONE', #205, 1000.000000000000000 ) ;
#322 = VECTOR ( 'NONE', #236, 1000.000000000000000 ) ;
#323 = APPLICATION_CONTEXT ( 'automotive_design' ) ;
#324 = CARTESIAN_POINT ( 'NONE',  ( 15.00000000000000000, 20.00000000000000355, 0.000000000000000000 ) ) ;
#325 = CARTESIAN_POINT ( 'NONE',  ( 15.00000000000000000, 0.000000000000000000, 80.00000000000000000 ) ) ;
#326 = ORIENTED_EDGE ( 'NONE', *, *, #143, .F. ) ;
#327 = FACE_OUTER_BOUND ( 'NONE', #44, .T. ) ;
#328 = LINE ( 'NONE', #120, #94 ) ;
#329 = DIRECTION ( 'NONE',  ( -1.000000000000000000, -0.000000000000000000, -0.000000000000000000 ) ) ;
#330 = ADVANCED_FACE ( 'NONE', ( #380 ), #218, .F. ) ;
#331 = ORIENTED_EDGE ( 'NONE', *, *, #450, .F. ) ;
#332 = CARTESIAN_POINT ( 'NONE',  ( 15.00000000000000000, 3.469446951953614189E-15, 70.00000000000000000 ) ) ;
#333 = DIRECTION ( 'NONE',  ( -1.000000000000000000, 0.000000000000000000, -0.000000000000000000 ) ) ;
#334 = DIRECTION ( 'NONE',  ( -1.000000000000000000, 0.000000000000000000, 0.000000000000000000 ) ) ;
#335 = VERTEX_POINT ( 'NONE', #290 ) ;
#336 = EDGE_CURVE ( 'NONE', #378, #89, #293, .T. ) ;
#337 = DIRECTION ( 'NONE',  ( -0.7071067811865474617, 0.000000000000000000, 0.7071067811865474617 ) ) ;
#338 = ORIENTED_EDGE ( 'NONE', *, *, #336, .F. ) ;
#339 = AXIS2_PLACEMENT_3D ( 'NONE', #262, #58, #456 ) ;
#340 = DIRECTION ( 'NONE',  ( -0.000000000000000000, -0.000000000000000000, -1.000000000000000000 ) ) ;
#341 = ADVANCED_FACE ( 'NONE', ( #145 ), #301, .F. ) ;
#342 = CARTESIAN_POINT ( 'NONE',  ( 15.00000000000000000, 3.469446951953614189E-15, 56.00000000000000000 ) ) ;
#343 = ORIENTED_EDGE ( 'NONE', *, *, #374, .F. ) ;
#344 = EDGE_CURVE ( 'NONE', #184, #174, #416, .T. ) ;
#345 = DIRECTION ( 'NONE',  ( -0.000000000000000000, -0.000000000000000000, -1.000000000000000000 ) ) ;
#346 = ORIENTED_EDGE ( 'NONE', *, *, #297, .T. ) ;
#347 = PLANE ( 'NONE',  #198 ) ;
#348 = AXIS2_PLACEMENT_3D ( 'NONE', #388, #31, #465 ) ;
#349 = ORIENTED_EDGE ( 'NONE', *, *, #300, .T. ) ;
#350 = CARTESIAN_POINT ( 'NONE',  ( 15.00000000000000355, 3.469446951953614189E-15, 10.00000000000000000 ) ) ;
#351 = CARTESIAN_POINT ( 'NONE',  ( 0.000000000000000000, 0.000000000000000000, 0.000000000000000000 ) ) ;
#352 = DIRECTION ( 'NONE',  ( 0.000000000000000000, 0.000000000000000000, -1.000000000000000000 ) ) ;
#353 = FACE_OUTER_BOUND ( 'NONE', #131, .T. ) ;
#354 = PRESENTATION_STYLE_ASSIGNMENT (( #196 ) ) ;
#355 = AXIS2_PLACEMENT_3D ( 'NONE', #244, #165, #80 ) ;
#356 = DIRECTION ( 'NONE',  ( -0.000000000000000000, -0.000000000000000000, -1.000000000000000000 ) ) ;
#357 = EDGE_CURVE ( 'NONE', #401, #263, #315, .T. ) ;
#358 = ORIENTED_EDGE ( 'NONE', *, *, #209, .F. ) ;
#359 = CARTESIAN_POINT ( 'NONE',  ( 15.00000000000000355, 3.469446951953614189E-15, 10.00000000000000000 ) ) ;
#360 = DIRECTION ( 'NONE',  ( 1.000000000000000000, 0.000000000000000000, 0.000000000000000000 ) ) ;
#361 = PLANE ( 'NONE',  #135 ) ;
#362 = ORIENTED_EDGE ( 'NONE', *, *, #74, .T. ) ;
#363 = VECTOR ( 'NONE', #132, 1000.000000000000000 ) ;
#364 = DIRECTION ( 'NONE',  ( -0.000000000000000000, -0.000000000000000000, -1.000000000000000000 ) ) ;
#365 = ORIENTED_EDGE ( 'NONE', *, *, #254, .F. ) ;
#366 = ADVANCED_FACE ( 'NONE', ( #70 ), #152, .F. ) ;
#367 = LINE ( 'NONE', #166, #430 ) ;
#368 = ORIENTED_EDGE ( 'NONE', *, *, #60, .F. ) ;
#369 = DIRECTION ( 'NONE',  ( -0.000000000000000000, 1.000000000000000000, -0.000000000000000000 ) ) ;
#370 = PLANE ( 'NONE',  #67 ) ;
#371 = VECTOR ( 'NONE', #229, 1000.000000000000000 ) ;
#372 = CARTESIAN_POINT ( 'NONE',  ( 15.00000000000000000, 3.469446951953614189E-15, 56.00000000000000000 ) ) ;
#373 = EDGE_LOOP ( 'NONE', ( #393, #121, #133, #149 ) ) ;
#374 = EDGE_CURVE ( 'NONE', #82, #16, #29, .T. ) ;
#375 = DIRECTION ( 'NONE',  ( 0.000000000000000000, -0.000000000000000000, 1.000000000000000000 ) ) ;
#376 = ORIENTED_EDGE ( 'NONE', *, *, #186, .T. ) ;
#377 = CARTESIAN_POINT ( 'NONE',  ( 11.99999999999999822, 3.469446951953614189E-15, 50.00000000000000000 ) ) ;
#378 = VERTEX_POINT ( 'NONE', #150 ) ;
#379 = AXIS2_PLACEMENT_3D ( 'NONE', #1, #334, #492 ) ;
#380 = FACE_OUTER_BOUND ( 'NONE', #289, .T. ) ;
#381 = ADVANCED_FACE ( 'NONE', ( #111 ), #195, .F. ) ;
#382 = PRODUCT_RELATED_PRODUCT_CATEGORY ( 'part', '', ( #513 ) ) ;
#383 = LINE ( 'NONE', #21, #363 ) ;
#384 = EDGE_LOOP ( 'NONE', ( #386, #153, #307, #225 ) ) ;
#385 = CARTESIAN_POINT ( 'NONE',  ( 15.00000000000000000, 20.00000000000000355, 56.00000000000000000 ) ) ;
#386 = ORIENTED_EDGE ( 'NONE', *, *, #482, .T. ) ;
#387 = VECTOR ( 'NONE', #284, 1000.000000000000000 ) ;
#388 = CARTESIAN_POINT ( 'NONE',  ( 0.000000000000000000, 0.000000000000000000, 80.00000000000000000 ) ) ;
#389 = AXIS2_PLACEMENT_3D ( 'NONE', #377, #501, #134 ) ;
#390 = EDGE_CURVE ( 'NONE', #303, #49, #105, .T. ) ;
#391 = ORIENTED_EDGE ( 'NONE', *, *, #357, .F. ) ;
#392 = DIRECTION ( 'NONE',  ( -1.000000000000000000, 0.000000000000000000, 0.000000000000000000 ) ) ;
#393 = ORIENTED_EDGE ( 'NONE', *, *, #282, .F. ) ;
#394 = DIRECTION ( 'NONE',  ( -0.7071067811865479058, 0.000000000000000000, 0.7071067811865472397 ) ) ;
#395 = LINE ( 'NONE', #110, #234 ) ;
#396 = ADVANCED_FACE ( 'NONE', ( #353 ), #507, .F. ) ;
#397 = LINE ( 'NONE', #470, #26 ) ;
#398 = DIRECTION ( 'NONE',  ( 0.000000000000000000, 0.000000000000000000, 1.000000000000000000 ) ) ;
#399 = VECTOR ( 'NONE', #138, 1000.000000000000000 ) ;
#400 = LINE ( 'NONE', #36, #162 ) ;
#401 = VERTEX_POINT ( 'NONE', #266 ) ;
#402 = CARTESIAN_POINT ( 'NONE',  ( 15.00000000000000000, 0.000000000000000000, 80.00000000000000000 ) ) ;
#403 = LINE ( 'NONE', #325, #161 ) ;
#404 = CARTESIAN_POINT ( 'NONE',  ( 15.00000000000000000, 20.00000000000000355, 30.00000000000000355 ) ) ;
#405 = CARTESIAN_POINT ( 'NONE',  ( 14.99999999999999645, 20.00000000000000355, 24.00000000000000000 ) ) ;
#406 = EDGE_CURVE ( 'NONE', #174, #89, #505, .T. ) ;
#407 = VERTEX_POINT ( 'NONE', #199 ) ;
#408 = PRESENTATION_LAYER_ASSIGNMENT (  '', '', ( #502 ) ) ;
#409 = AXIS2_PLACEMENT_3D ( 'NONE', #72, #392, #193 ) ;
#410 = CARTESIAN_POINT ( 'NONE',  ( 15.00000000000000000, 20.00000000000000355, 9.999999999999994671 ) ) ;
#411 = ORIENTED_EDGE ( 'NONE', *, *, #270, .T. ) ;
#412 = DIRECTION ( 'NONE',  ( -0.000000000000000000, 1.000000000000000000, -0.000000000000000000 ) ) ;
#413 = LINE ( 'NONE', #173, #126 ) ;
#414 = ORIENTED_EDGE ( 'NONE', *, *, #466, .T. ) ;
#415 = CARTESIAN_POINT ( 'NONE',  ( 7.999999999999996447, 3.469446951953614189E-15, 17.00000000000000000 ) ) ;
#416 = LINE ( 'NONE', #17, #462 ) ;
#417 = ORIENTED_EDGE ( 'NONE', *, *, #209, .T. ) ;
#418 = CARTESIAN_POINT ( 'NONE',  ( 14.99999999999999645, 3.469446951953614189E-15, 24.00000000000000000 ) ) ;
#419 = ORIENTED_EDGE ( 'NONE', *, *, #261, .T. ) ;
#420 = VECTOR ( 'NONE', #337, 1000.000000000000114 ) ;
#421 = LINE ( 'NONE', #141, #102 ) ;
#422 = VERTEX_POINT ( 'NONE', #475 ) ;
#423 = LINE ( 'NONE', #258, #53 ) ;
#424 = ORIENTED_EDGE ( 'NONE', *, *, #491, .T. ) ;
#425 = EDGE_CURVE ( 'NONE', #184, #476, #264, .T. ) ;
#426 = PLANE ( 'NONE',  #409 ) ;
#427 = ORIENTED_EDGE ( 'NONE', *, *, #491, .F. ) ;
#428 = ADVANCED_FACE ( 'NONE', ( #275 ), #426, .F. ) ;
#429 = CARTESIAN_POINT ( 'NONE',  ( 15.00000000000000000, 20.00000000000000355, 80.00000000000000000 ) ) ;
#430 = VECTOR ( 'NONE', #445, 1000.000000000000114 ) ;
#431 =( NAMED_UNIT ( * ) PLANE_ANGLE_UNIT ( ) SI_UNIT ( $, .RADIAN. ) );
#432 = LINE ( 'NONE', #230, #322 ) ;
#433 = CARTESIAN_POINT ( 'NONE',  ( 15.00000000000000000, 3.469446951953614189E-15, 30.00000000000000355 ) ) ;
#434 = CARTESIAN_POINT ( 'NONE',  ( 0.000000000000000000, 0.000000000000000000, 80.00000000000000000 ) ) ;
#435 = EDGE_CURVE ( 'NONE', #407, #71, #232, .T. ) ;
#436 = PRODUCT_DEFINITION_CONTEXT ( 'detailed design', #144, 'design' ) ;
#437 = LINE ( 'NONE', #160, #178 ) ;
#438 = ADVANCED_FACE ( 'NONE', ( #272 ), #65, .F. ) ;
#439 = DIRECTION ( 'NONE',  ( 0.7071067811865474617, 0.000000000000000000, 0.7071067811865474617 ) ) ;
#440 = VECTOR ( 'NONE', #412, 1000.000000000000000 ) ;
#441 = VERTEX_POINT ( 'NONE', #351 ) ;
#442 = VECTOR ( 'NONE', #222, 1000.000000000000000 ) ;
#443 = DIRECTION ( 'NONE',  ( 0.000000000000000000, 0.000000000000000000, -1.000000000000000000 ) ) ;
#444 = LINE ( 'NONE', #248, #321 ) ;
#445 = DIRECTION ( 'NONE',  ( -0.7071067811865474617, 0.000000000000000000, 0.7071067811865474617 ) ) ;
#446 = VECTOR ( 'NONE', #360, 1000.000000000000000 ) ;
#447 = LINE ( 'NONE', #359, #240 ) ;
#448 = CARTESIAN_POINT ( 'NONE',  ( 15.00000000000000000, 0.000000000000000000, 80.00000000000000000 ) ) ;
#449 = ORIENTED_EDGE ( 'NONE', *, *, #406, .T. ) ;
#450 = EDGE_CURVE ( 'NONE', #168, #464, #397, .T. ) ;
#451 = ADVANCED_FACE ( 'NONE', ( #113 ), #76, .F. ) ;
#452 = DIRECTION ( 'NONE',  ( 0.000000000000000000, 1.000000000000000000, 0.000000000000000000 ) ) ;
#453 = ORIENTED_EDGE ( 'NONE', *, *, #197, .F. ) ;
#454 = CARTESIAN_POINT ( 'NONE',  ( 15.00000000000000000, 3.469446951953614189E-15, 56.00000000000000000 ) ) ;
#455 = AXIS2_PLACEMENT_3D ( 'NONE', #56, #183, #375 ) ;
#456 = DIRECTION ( 'NONE',  ( 0.7071067811865472397, 0.000000000000000000, 0.7071067811865479058 ) ) ;
#457 = ORIENTED_EDGE ( 'NONE', *, *, #282, .T. ) ;
#458 = LINE ( 'NONE', #256, #312 ) ;
#459 = ORIENTED_EDGE ( 'NONE', *, *, #140, .T. ) ;
#460 = CARTESIAN_POINT ( 'NONE',  ( 15.00000000000000000, 20.00000000000000355, 80.00000000000000000 ) ) ;
#461 = ORIENTED_EDGE ( 'NONE', *, *, #172, .F. ) ;
#462 = VECTOR ( 'NONE', #201, 999.9999999999998863 ) ;
#463 = FACE_OUTER_BOUND ( 'NONE', #373, .T. ) ;
#464 = VERTEX_POINT ( 'NONE', #34 ) ;
#465 = DIRECTION ( 'NONE',  ( 0.000000000000000000, 0.000000000000000000, -1.000000000000000000 ) ) ;
#466 = EDGE_CURVE ( 'NONE', #255, #82, #432, .T. ) ;
#467 = ORIENTED_EDGE ( 'NONE', *, *, #300, .F. ) ;
#468 = DIRECTION ( 'NONE',  ( -0.7071067811865479058, 0.000000000000000000, 0.7071067811865472397 ) ) ;
#469 = ORIENTED_EDGE ( 'NONE', *, *, #74, .F. ) ;
#470 = CARTESIAN_POINT ( 'NONE',  ( 11.99999999999999822, 20.00000000000000355, 30.00000000000000000 ) ) ;
#471 = VECTOR ( 'NONE', #181, 1000.000000000000114 ) ;
#472 = UNCERTAINTY_MEASURE_WITH_UNIT (LENGTH_MEASURE( 1.000000000000000082E-05 ), #479, 'distance_accuracy_value', 'NONE');
#473 = DIRECTION ( 'NONE',  ( -1.000000000000000000, 0.000000000000000000, -0.000000000000000000 ) ) ;
#474 = EDGE_CURVE ( 'NONE', #219, #476, #400, .T. ) ;
#475 = CARTESIAN_POINT ( 'NONE',  ( 8.000000000000000000, 3.469446951953614189E-15, 63.00000000000000000 ) ) ;
#476 = VERTEX_POINT ( 'NONE', #324 ) ;
#477 = DIRECTION ( 'NONE',  ( -0.7071067811865472397, 0.000000000000000000, -0.7071067811865479058 ) ) ;
#478 = EDGE_LOOP ( 'NONE', ( #62, #55, #265, #124, #509, #485, #453, #305, #419, #365, #376, #35, #211, #208 ) ) ;
#479 =( LENGTH_UNIT ( ) NAMED_UNIT ( * ) SI_UNIT ( .MILLI., .METRE. ) );
#480 = PLANE ( 'NONE',  #101 ) ;
#481 = VECTOR ( 'NONE', #356, 1000.000000000000000 ) ;
#482 = EDGE_CURVE ( 'NONE', #206, #168, #117, .T. ) ;
#483 = CARTESIAN_POINT ( 'NONE',  ( 8.000000000000000000, 3.469446951953614189E-15, 63.00000000000000000 ) ) ;
#484 = FACE_OUTER_BOUND ( 'NONE', #215, .T. ) ;
#485 = ORIENTED_EDGE ( 'NONE', *, *, #245, .T. ) ;
#486 = DIRECTION ( 'NONE',  ( -0.000000000000000000, -0.000000000000000000, -1.000000000000000000 ) ) ;
#487 = DIRECTION ( 'NONE',  ( -0.7071067811865474617, 0.000000000000000000, 0.7071067811865474617 ) ) ;
#488 = ADVANCED_FACE ( 'NONE', ( #327 ), #4, .F. ) ;
#489 = MECHANICAL_DESIGN_GEOMETRIC_PRESENTATION_REPRESENTATION (  '', ( #502 ), #496 ) ;
#490 = LINE ( 'NONE', #283, #188 ) ;
#491 = EDGE_CURVE ( 'NONE', #422, #303, #318, .T. ) ;
#492 = DIRECTION ( 'NONE',  ( 0.000000000000000000, 0.000000000000000000, 1.000000000000000000 ) ) ;
#493 = ORIENTED_EDGE ( 'NONE', *, *, #319, .T. ) ;
#494 = FACE_OUTER_BOUND ( 'NONE', #478, .T. ) ;
#495 = ORIENTED_EDGE ( 'NONE', *, *, #450, .T. ) ;
#496 =( GEOMETRIC_REPRESENTATION_CONTEXT ( 3 ) GLOBAL_UNCERTAINTY_ASSIGNED_CONTEXT ( ( #276 ) ) GLOBAL_UNIT_ASSIGNED_CONTEXT ( ( #192, #431, #233 ) ) REPRESENTATION_CONTEXT ( 'NONE', 'WORKASPACE' ) );
#497 = LINE ( 'NONE', #15, #399 ) ;
#498 = VERTEX_POINT ( 'NONE', #332 ) ;
#499 = DIRECTION ( 'NONE',  ( -0.000000000000000000, 1.000000000000000000, -0.000000000000000000 ) ) ;
#500 = ORIENTED_EDGE ( 'NONE', *, *, #140, .F. ) ;
#501 = DIRECTION ( 'NONE',  ( -0.000000000000000000, 0.000000000000000000, 1.000000000000000000 ) ) ;
#502 = STYLED_ITEM ( 'NONE', ( #354 ), #13 ) ;
#503 = VECTOR ( 'NONE', #340, 1000.000000000000000 ) ;
#504 = EDGE_CURVE ( 'NONE', #407, #184, #447, .T. ) ;
#505 = LINE ( 'NONE', #228, #116 ) ;
#506 = ORIENTED_EDGE ( 'NONE', *, *, #143, .T. ) ;
#507 = PLANE ( 'NONE',  #348 ) ;
#508 = DIRECTION ( 'NONE',  ( 0.000000000000000000, 0.000000000000000000, 1.000000000000000000 ) ) ;
#509 = ORIENTED_EDGE ( 'NONE', *, *, #90, .T. ) ;
#510 = DIRECTION ( 'NONE',  ( -1.000000000000000000, 0.000000000000000000, 0.000000000000000000 ) ) ;
#511 =( GEOMETRIC_REPRESENTATION_CONTEXT ( 3 ) GLOBAL_UNCERTAINTY_ASSIGNED_CONTEXT ( ( #472 ) ) GLOBAL_UNIT_ASSIGNED_CONTEXT ( ( #479, #83, #280 ) ) REPRESENTATION_CONTEXT ( 'NONE', 'WORKASPACE' ) );
#512 = DIRECTION ( 'NONE',  ( -0.000000000000000000, 1.000000000000000000, -0.000000000000000000 ) ) ;
#513 = PRODUCT ( 'Rl2i', 'Rl2i', '', ( #169 ) ) ;
#514 = DIRECTION ( 'NONE',  ( -0.000000000000000000, 1.000000000000000000, -0.000000000000000000 ) ) ;
#515 = ORIENTED_EDGE ( 'NONE', *, *, #172, .T. ) ;
#516 = DIRECTION ( 'NONE',  ( 0.000000000000000000, 0.000000000000000000, 1.000000000000000000 ) ) ;
#517 = EDGE_CURVE ( 'NONE', #263, #28, #159, .T. ) ;
ENDSEC;
END-ISO-10303-21;
