# Blender 4.4.0
# www.blender.org
mtllib Rl2i.mtl
o Rl2i
v 15.000000 20.000000 70.000000
v 15.000000 20.000000 80.000000
v 15.000000 0.000000 70.000000
v 15.000000 0.000000 80.000000
v 15.000000 0.000000 56.000000
v 15.000000 0.000000 50.000000
v 15.000000 20.000000 56.000000
v 15.000000 20.000000 50.000000
v 15.000000 0.000000 30.000000
v 15.000000 0.000000 24.000000
v 15.000000 20.000000 30.000000
v 15.000000 20.000000 24.000000
v 0.000000 0.000000 80.000000
v 0.000000 20.000000 80.000000
v 0.000000 0.000000 0.000000
v 0.000000 20.000000 0.000000
v 15.000000 0.000000 0.000000
v 15.000000 0.000000 10.000000
v 15.000000 0.000000 70.000000
v 8.000000 0.000000 63.000000
v 15.000000 0.000000 24.000000
v 15.000000 0.000000 30.000000
v 8.000000 0.000000 17.000000
v 12.000000 0.000000 30.000000
v 12.000000 0.000000 50.000000
v 15.000000 0.000000 50.000000
v 15.000000 0.000000 56.000000
v 15.000000 0.000000 10.000000
v 15.000000 20.000000 10.000000
v 15.000000 20.000000 0.000000
v 8.000000 20.000000 63.000000
v 12.000000 20.000000 50.000000
v 12.000000 20.000000 30.000000
v 8.000000 20.000000 17.000000
v 8.000000 0.000000 17.000000
v 12.000000 0.000000 30.000000
v 12.000000 0.000000 50.000000
v 8.000000 0.000000 63.000000
vn 1.0000 -0.0000 -0.0000
vn -1.0000 -0.0000 -0.0000
vn -0.0000 -1.0000 -0.0000
vn -0.0000 1.0000 -0.0000
vn -0.0000 -0.0000 1.0000
vn -0.0000 -0.0000 -1.0000
vn 0.7071 -0.0000 0.7071
vn 0.7071 -0.0000 -0.7071
s 0
f 1//1 2//1 3//1
f 3//1 2//1 4//1
f 5//1 6//1 7//1
f 7//1 6//1 8//1
f 9//1 10//1 11//1
f 11//1 10//1 12//1
f 13//2 14//2 15//2
f 15//2 14//2 16//2
f 15//3 17//3 18//3
f 19//3 4//3 20//3
f 20//3 4//3 13//3
f 21//3 22//3 23//3
f 23//3 22//3 24//3
f 25//3 26//3 27//3
f 18//3 23//3 15//3
f 15//3 23//3 24//3
f 15//3 24//3 13//3
f 13//3 24//3 25//3
f 13//3 25//3 20//3
f 20//3 25//3 27//3
f 28//1 17//1 29//1
f 29//1 17//1 30//1
f 14//4 2//4 1//4
f 7//4 8//4 31//4
f 31//4 8//4 32//4
f 33//4 11//4 12//4
f 29//4 30//4 34//4
f 34//4 30//4 16//4
f 1//4 31//4 14//4
f 14//4 31//4 32//4
f 14//4 32//4 16//4
f 16//4 32//4 33//4
f 16//4 33//4 34//4
f 34//4 33//4 12//4
f 4//5 2//5 13//5
f 13//5 2//5 14//5
f 30//6 17//6 16//6
f 16//6 17//6 15//6
f 35//7 28//7 34//7
f 34//7 28//7 29//7
f 10//8 35//8 12//8
f 12//8 35//8 34//8
f 36//5 9//5 33//5
f 33//5 9//5 11//5
f 37//1 36//1 32//1
f 32//1 36//1 33//1
f 6//6 37//6 8//6
f 8//6 37//6 32//6
f 3//8 38//8 1//8
f 1//8 38//8 31//8
f 38//7 5//7 31//7
f 31//7 5//7 7//7
