# https://github.com/mikedh/trimesh
v 5.45588100 24.00000000 78.54412100
v 9.54411900 24.00000000 78.54412100
v 0.00000000 20.00000000 0.00000000
v 0.00000000 20.00000000 80.00000000
v 15.00000000 20.00000000 80.00000000
v 15.00000000 20.00000000 0.00000000
v 0.00000000 0.00000000 80.00000000
v 0.00000000 0.00000000 0.00000000
v 15.00000000 0.00000000 80.00000000
v 15.00000000 0.00000000 0.00000000
v 5.45588100 24.00000000 1.45588100
v 9.54411900 24.00000000 1.45588100
f 8 4 7
f 8 4 3
f 9 4 7
f 9 4 5
f 9 8 7
f 9 8 10
f 6 9 5
f 6 9 10
f 6 8 3
f 6 8 10
f 11 4 3
f 11 1 4
f 2 4 5
f 2 1 4
f 12 2 1
f 12 11 1
f 12 6 5
f 12 2 5
f 12 6 3
f 12 11 3

