# Blender 4.4.0
# www.blender.org
mtllib Rl3a.mtl
o Rl3a
v 5.455881 24.000000 22.839558
v 9.544119 24.000000 22.839558
v 5.455881 24.000000 17.839556
v 9.544119 24.000000 17.839556
v 5.455881 24.000000 45.776764
v 9.544119 24.000000 45.776764
v 5.455881 24.000000 34.223232
v 9.544119 24.000000 34.223232
v 5.455881 24.000000 62.160442
v 9.544119 24.000000 62.160442
v 5.455881 24.000000 57.160446
v 9.544119 24.000000 57.160446
v 5.455881 24.000000 78.544121
v 9.544119 24.000000 78.544121
v 5.455881 24.000000 73.544121
v 9.544119 24.000000 73.544121
v 0.000000 20.000000 0.000000
v 0.000000 20.000000 80.000000
v 4.000000 20.000000 0.000000
v 4.000000 20.000000 80.000000
v 15.000000 20.000000 80.000000
v 15.000000 20.000000 0.000000
v 11.000000 20.000000 80.000000
v 11.000000 20.000000 0.000000
v 0.000000 0.000000 80.000000
v 0.000000 0.000000 0.000000
v 15.000000 0.000000 80.000000
v 15.000000 0.000000 0.000000
v 4.590233 21.621653 12.147719
v 4.626649 21.721704 10.886441
v 4.000000 20.000000 0.000000
v 4.734986 22.019358 9.656711
v 4.912535 22.507168 71.510712
v 4.734986 22.019358 70.343285
v 4.626649 21.721704 69.113564
v 4.590233 21.621653 67.852280
v 4.590233 21.621653 51.468605
v 4.626649 21.721704 66.591003
v 4.626649 21.721704 52.729881
v 4.626649 21.721704 29.792673
v 4.590233 21.621653 28.531395
v 4.626649 21.721704 27.270119
v 4.626649 21.721704 13.408998
v 5.455881 24.000000 6.455881
v 5.455881 24.000000 1.455881
v 5.154853 23.172934 7.413375
v 4.912535 22.507168 8.489288
v 4.626649 21.721704 50.207329
v 4.734986 22.019358 48.977596
v 4.734986 22.019358 31.022404
v 4.912535 22.507168 32.189827
v 4.734986 22.019358 14.638727
v 4.734986 22.019358 26.040386
v 4.912535 22.507168 15.806149
v 5.154853 23.172934 72.586624
v 4.734986 22.019358 53.959610
v 4.734986 22.019358 65.361275
v 4.912535 22.507168 64.193855
v 5.154853 23.172934 46.734257
v 5.154853 23.172934 23.797050
v 5.154853 23.172934 63.117935
v 5.154853 23.172934 56.202950
v 4.912535 22.507168 55.127037
v 4.912535 22.507168 47.810173
v 5.154853 23.172934 33.265739
v 4.912535 22.507168 24.872965
v 5.154853 23.172934 16.882063
v 10.265013 22.019358 9.656711
v 10.373351 21.721704 10.886441
v 10.087465 22.507168 8.489288
v 10.373351 21.721704 27.270119
v 10.409767 21.621653 28.531395
v 10.373351 21.721704 13.408998
v 10.409767 21.621653 12.147719
v 10.373351 21.721704 29.792673
v 10.409767 21.621653 67.852280
v 10.373351 21.721704 69.113564
v 10.265013 22.019358 70.343285
v 9.544119 24.000000 1.455881
v 9.544119 24.000000 6.455881
v 9.845147 23.172934 7.413375
v 10.373351 21.721704 66.591003
v 10.373351 21.721704 52.729881
v 10.265013 22.019358 53.959610
v 10.265013 22.019358 26.040386
v 10.265013 22.019358 14.638727
v 10.087465 22.507168 24.872965
v 10.409767 21.621653 51.468605
v 10.373351 21.721704 50.207329
v 10.265013 22.019358 31.022404
v 10.265013 22.019358 48.977596
v 10.087465 22.507168 32.189827
v 9.845147 23.172934 72.586624
v 10.087465 22.507168 71.510712
v 9.845147 23.172934 16.882063
v 10.087465 22.507168 15.806149
v 9.845147 23.172934 23.797050
v 9.845147 23.172934 33.265739
v 9.845147 23.172934 46.734257
v 10.087465 22.507168 47.810173
v 9.845147 23.172934 56.202950
v 9.845147 23.172934 63.117935
v 10.087465 22.507168 55.127037
v 10.087465 22.507168 64.193855
v 10.265013 22.019358 65.361275
vn -0.0000 1.0000 -0.0000
vn -1.0000 -0.0000 -0.0000
vn -0.0000 -1.0000 -0.0000
vn 1.0000 -0.0000 -0.0000
vn -0.0000 -0.0000 1.0000
vn -0.0000 -0.0000 -1.0000
vn -0.9397 0.3420 -0.0000
vn -0.0000 0.3420 0.9397
vn 0.9397 0.3420 -0.0000
vn -0.0000 0.3420 -0.9397
vn -0.0000 0.8504 -0.5262
vn -0.0000 0.7568 -0.6537
vn -0.0000 0.9227 -0.3855
vn -0.0000 0.9719 -0.2353
vn -0.0000 0.9969 -0.0791
vn -0.0000 0.9969 0.0791
vn -0.0000 0.9719 0.2353
vn -0.0000 0.9227 0.3855
vn -0.0000 0.7568 0.6537
vn -0.0000 0.8504 0.5262
s 0
f 1//1 2//1 3//1
f 3//1 2//1 4//1
f 5//1 6//1 7//1
f 7//1 6//1 8//1
f 9//1 10//1 11//1
f 11//1 10//1 12//1
f 13//1 14//1 15//1
f 15//1 14//1 16//1
f 17//1 18//1 19//1
f 19//1 18//1 20//1
f 21//1 22//1 23//1
f 23//1 22//1 24//1
f 25//2 18//2 26//2
f 26//2 18//2 17//2
f 27//3 25//3 28//3
f 28//3 25//3 26//3
f 21//4 27//4 22//4
f 22//4 27//4 28//4
f 18//5 25//5 20//5
f 20//5 25//5 27//5
f 20//5 27//5 23//5
f 23//5 27//5 21//5
f 22//6 28//6 24//6
f 24//6 28//6 26//6
f 24//6 26//6 19//6
f 19//6 26//6 17//6
f 29//7 30//7 31//7
f 31//7 30//7 32//7
f 33//7 34//7 20//7
f 34//7 35//7 20//7
f 20//7 35//7 36//7
f 20//7 36//7 37//7
f 37//7 36//7 38//7
f 37//7 38//7 39//7
f 37//7 40//7 20//7
f 20//7 40//7 41//7
f 20//7 41//7 31//7
f 31//7 41//7 42//7
f 31//7 42//7 29//7
f 29//7 42//7 43//7
f 44//7 45//7 46//7
f 46//7 45//7 31//7
f 46//7 31//7 47//7
f 47//7 31//7 32//7
f 37//7 48//7 40//7
f 40//7 48//7 49//7
f 40//7 49//7 50//7
f 50//7 49//7 51//7
f 43//7 42//7 52//7
f 52//7 42//7 53//7
f 52//7 53//7 54//7
f 13//7 15//7 20//7
f 20//7 15//7 55//7
f 20//7 55//7 33//7
f 39//7 38//7 56//7
f 56//7 38//7 57//7
f 56//7 57//7 58//7
f 59//7 5//7 7//7
f 60//7 1//7 3//7
f 9//7 11//7 61//7
f 61//7 11//7 62//7
f 61//7 62//7 58//7
f 58//7 62//7 63//7
f 58//7 63//7 56//7
f 49//7 64//7 51//7
f 51//7 64//7 59//7
f 51//7 59//7 65//7
f 65//7 59//7 7//7
f 53//7 66//7 54//7
f 54//7 66//7 60//7
f 54//7 60//7 67//7
f 67//7 60//7 3//7
f 14//8 13//8 23//8
f 23//8 13//8 20//8
f 68//9 69//9 24//9
f 68//9 24//9 70//9
f 71//9 72//9 73//9
f 73//9 72//9 74//9
f 75//9 23//9 72//9
f 72//9 23//9 24//9
f 72//9 24//9 74//9
f 74//9 24//9 69//9
f 76//9 77//9 23//9
f 23//9 77//9 78//9
f 79//9 80//9 24//9
f 24//9 80//9 81//9
f 24//9 81//9 70//9
f 82//9 83//9 84//9
f 71//9 73//9 85//9
f 85//9 73//9 86//9
f 85//9 86//9 87//9
f 82//9 76//9 83//9
f 83//9 76//9 23//9
f 83//9 23//9 88//9
f 88//9 23//9 75//9
f 88//9 75//9 89//9
f 89//9 75//9 90//9
f 89//9 90//9 91//9
f 91//9 90//9 92//9
f 16//9 14//9 93//9
f 93//9 14//9 23//9
f 93//9 23//9 94//9
f 94//9 23//9 78//9
f 95//9 4//9 2//9
f 86//9 96//9 87//9
f 87//9 96//9 95//9
f 87//9 95//9 97//9
f 97//9 95//9 2//9
f 8//9 6//9 98//9
f 98//9 6//9 99//9
f 98//9 99//9 92//9
f 92//9 99//9 100//9
f 92//9 100//9 91//9
f 12//9 10//9 101//9
f 101//9 10//9 102//9
f 101//9 102//9 103//9
f 103//9 102//9 104//9
f 103//9 104//9 84//9
f 84//9 104//9 105//9
f 84//9 105//9 82//9
f 45//10 79//10 19//10
f 19//10 79//10 24//10
f 79//1 45//1 80//1
f 80//1 45//1 44//1
f 94//11 33//11 55//11
f 94//11 55//11 93//11
f 93//12 55//12 15//12
f 93//12 15//12 16//12
f 33//13 94//13 34//13
f 34//13 94//13 78//13
f 34//14 78//14 35//14
f 35//14 78//14 77//14
f 35//15 77//15 36//15
f 36//15 77//15 76//15
f 36//16 76//16 38//16
f 76//16 82//16 38//16
f 38//17 82//17 105//17
f 38//17 105//17 57//17
f 57//18 105//18 104//18
f 10//19 9//19 102//19
f 102//19 9//19 61//19
f 102//20 61//20 104//20
f 104//20 61//20 58//20
f 104//18 58//18 57//18
f 11//12 12//12 62//12
f 62//12 12//12 101//12
f 62//11 101//11 63//11
f 63//11 101//11 103//11
f 63//13 103//13 56//13
f 56//13 103//13 84//13
f 56//14 84//14 39//14
f 39//14 84//14 83//14
f 39//15 83//15 37//15
f 37//15 83//15 88//15
f 37//16 88//16 48//16
f 88//16 89//16 48//16
f 48//17 89//17 91//17
f 48//17 91//17 49//17
f 49//18 91//18 100//18
f 6//19 5//19 99//19
f 99//19 5//19 59//19
f 99//20 59//20 100//20
f 100//20 59//20 64//20
f 100//18 64//18 49//18
f 2//19 1//19 97//19
f 97//19 1//19 60//19
f 97//20 60//20 87//20
f 87//20 60//20 66//20
f 87//18 66//18 85//18
f 85//18 66//18 53//18
f 85//17 53//17 71//17
f 71//17 53//17 42//17
f 71//16 42//16 72//16
f 72//16 42//16 41//16
f 72//15 41//15 75//15
f 75//15 41//15 40//15
f 75//14 40//14 90//14
f 90//14 40//14 50//14
f 90//13 50//13 92//13
f 92//13 50//13 51//13
f 92//11 51//11 98//11
f 98//11 51//11 65//11
f 98//12 65//12 8//12
f 8//12 65//12 7//12
f 3//12 4//12 67//12
f 67//12 4//12 95//12
f 67//11 95//11 54//11
f 54//11 95//11 96//11
f 54//13 96//13 52//13
f 52//13 96//13 86//13
f 52//14 86//14 43//14
f 43//14 86//14 73//14
f 43//15 73//15 29//15
f 29//15 73//15 74//15
f 29//16 74//16 30//16
f 74//16 69//16 30//16
f 30//17 69//17 68//17
f 30//17 68//17 32//17
f 32//18 68//18 70//18
f 32//18 70//18 47//18
f 47//20 70//20 81//20
f 47//20 81//20 46//20
f 46//19 81//19 80//19
f 46//19 80//19 44//19
