ISO-10303-21;
HEADER;
FILE_DESCRIPTION (( 'STEP AP214' ),
    '1' );
FILE_NAME ('Rl3a.STEP',
    '2025-09-08T13:00:41',
    ( '' ),
    ( '' ),
    'SwSTEP 2.0',
    'SolidWorks 2024',
    '' );
FILE_SCHEMA (( 'AUTOMOTIVE_DESIGN' ));
ENDSEC;

DATA;
#1 = LINE ( 'NONE', #436, #156 ) ;
#2 = ORIENTED_EDGE ( 'NONE', *, *, #230, .F. ) ;
#3 = ORIENTED_EDGE ( 'NONE', *, *, #521, .F. ) ;
#4 = DIRECTION ( 'NONE',  ( 1.000000000000000000, -0.000000000000000000, -0.000000000000000000 ) ) ;
#5 = ORIENTED_EDGE ( 'NONE', *, *, #303, .F. ) ;
#6 = VECTOR ( 'NONE', #243, 1000.000000000000000 ) ;
#7 = DIRECTION ( 'NONE',  ( 1.192622389734054877E-16, -0.000000000000000000, 1.000000000000000000 ) ) ;
#8 = DIRECTION ( 'NONE',  ( 1.000000000000000000, -0.000000000000000000, -0.000000000000000000 ) ) ;
#9 = VERTEX_POINT ( 'NONE', #293 ) ;
#10 = CARTESIAN_POINT ( 'NONE',  ( 0.000000000000000000, 0.000000000000000000, 80.00000000000000000 ) ) ;
#11 = ORIENTED_EDGE ( 'NONE', *, *, #474, .T. ) ;
#12 = ORIENTED_EDGE ( 'NONE', *, *, #557, .T. ) ;
#13 = DIRECTION ( 'NONE',  ( -3.903127820947816455E-16, 0.000000000000000000, -1.000000000000000000 ) ) ;
#14 = CARTESIAN_POINT ( 'NONE',  ( 4.230358497302903587, 20.63290476971921805, 26.16513309903078977 ) ) ;
#15 = ORIENTED_EDGE ( 'NONE', *, *, #316, .F. ) ;
#16 = DIRECTION ( 'NONE',  ( -0.000000000000000000, -0.000000000000000000, -1.000000000000000000 ) ) ;
#17 = UNCERTAINTY_MEASURE_WITH_UNIT (LENGTH_MEASURE( 1.000000000000000082E-05 ), #502, 'distance_accuracy_value', 'NONE');
#18 = FACE_OUTER_BOUND ( 'NONE', #387, .T. ) ;
#19 = ORIENTED_EDGE ( 'NONE', *, *, #120, .T. ) ;
#20 = CARTESIAN_POINT ( 'NONE',  ( 9.544119062935187969, 24.00000000000000355, 5.682489389445238378E-16 ) ) ;
#21 = LINE ( 'NONE', #357, #458 ) ;
#22 = ORIENTED_EDGE ( 'NONE', *, *, #159, .F. ) ;
#23 = LINE ( 'NONE', #396, #244 ) ;
#24 = LINE ( 'NONE', #64, #141 ) ;
#25 = AXIS2_PLACEMENT_3D ( 'NONE', #73, #549, #118 ) ;
#26 = CARTESIAN_POINT ( 'NONE',  ( 9.544119062935205733, 24.00000000000000355, 45.77676667748637129 ) ) ;
#27 = CARTESIAN_POINT ( 'NONE',  ( 10.76964150269711062, 20.63290476971926424, 65.48601883945259772 ) ) ;
#28 = ADVANCED_FACE ( 'NONE', ( #485 ), #103, .F. ) ;
#29 = FACE_OUTER_BOUND ( 'NONE', #148, .T. ) ;
#30 = DIRECTION ( 'NONE',  ( 1.000000000000000000, -0.000000000000000000, -0.000000000000000000 ) ) ;
#31 = CARTESIAN_POINT ( 'NONE',  ( 4.000000000000009770, 20.00000000000000355, 80.00000000000000000 ) ) ;
#32 = VECTOR ( 'NONE', #212, 1000.000000000000000 ) ;
#33 = CARTESIAN_POINT ( 'NONE',  ( 5.455880937064810254, 23.99999999999999289, 45.77676667748638550 ) ) ;
#34 = AXIS2_PLACEMENT_3D ( 'NONE', #90, #139, #573 ) ;
#35 = DIRECTION ( 'NONE',  ( 0.000000000000000000, 1.000000000000000000, 0.000000000000000000 ) ) ;
#36 = VERTEX_POINT ( 'NONE', #551 ) ;
#37 = LINE ( 'NONE', #465, #576 ) ;
#38 = CARTESIAN_POINT ( 'NONE',  ( 15.00000000000000000, 20.00000000000000355, 0.000000000000000000 ) ) ;
#39 = FACE_OUTER_BOUND ( 'NONE', #252, .T. ) ;
#40 = EDGE_LOOP ( 'NONE', ( #88, #280, #45, #105 ) ) ;
#41 = LINE ( 'NONE', #99, #173 ) ;
#42 =( BOUNDED_CURVE ( )  B_SPLINE_CURVE ( 3, ( #199, #109, #260, #113 ),
 .UNSPECIFIED., .F., .T. ) 
 B_SPLINE_CURVE_WITH_KNOTS ( ( 4, 4 ),
 ( 5.491583532820254909, 7.074787081538916667 ),
 .UNSPECIFIED. ) 
 CURVE ( )  GEOMETRIC_REPRESENTATION_ITEM ( )  RATIONAL_B_SPLINE_CURVE ( ( 1.000000000000000000, 0.8018043917065613702, 0.8018043917065613702, 1.000000000000000000 ) ) 
 REPRESENTATION_ITEM ( '' )  );
#43 = VECTOR ( 'NONE', #216, 1000.000000000000114 ) ;
#44 = ORIENTED_EDGE ( 'NONE', *, *, #461, .F. ) ;
#45 = ORIENTED_EDGE ( 'NONE', *, *, #288, .F. ) ;
#46 = PRODUCT_CONTEXT ( 'NONE', #554, 'mechanical' ) ;
#47 = CARTESIAN_POINT ( 'NONE',  ( 5.455880937064810254, 24.00000000000000000, 62.16044287021082226 ) ) ;
#48 = PRODUCT ( 'Rl3a', 'Rl3a', '', ( #46 ) ) ;
#49 = CARTESIAN_POINT ( 'NONE',  ( 5.455880937064810254, 24.00000000000000355, 17.83955712978920261 ) ) ;
#50 = VERTEX_POINT ( 'NONE', #110 ) ;
#51 = VERTEX_POINT ( 'NONE', #537 ) ;
#52 = DIRECTION ( 'NONE',  ( 1.000000000000000000, -0.000000000000000000, -0.000000000000000000 ) ) ;
#53 = ORIENTED_EDGE ( 'NONE', *, *, #273, .T. ) ;
#54 =( GEOMETRIC_REPRESENTATION_CONTEXT ( 3 ) GLOBAL_UNCERTAINTY_ASSIGNED_CONTEXT ( ( #261 ) ) GLOBAL_UNIT_ASSIGNED_CONTEXT ( ( #247, #250, #443 ) ) REPRESENTATION_CONTEXT ( 'NONE', 'WORKASPACE' ) );
#55 = ADVANCED_FACE ( 'NONE', ( #209 ), #205, .F. ) ;
#56 = ORIENTED_EDGE ( 'NONE', *, *, #388, .T. ) ;
#57 = PRESENTATION_STYLE_ASSIGNMENT (( #550 ) ) ;
#58 = VERTEX_POINT ( 'NONE', #588 ) ;
#59 = ORIENTED_EDGE ( 'NONE', *, *, #318, .F. ) ;
#60 = DIRECTION ( 'NONE',  ( 0.000000000000000000, 0.000000000000000000, -1.000000000000000000 ) ) ;
#61 = DIRECTION ( 'NONE',  ( 0.000000000000000000, -0.000000000000000000, -1.000000000000000000 ) ) ;
#62 = VERTEX_POINT ( 'NONE', #201 ) ;
#63 = DIRECTION ( 'NONE',  ( 1.192622389734054877E-16, -0.000000000000000000, 1.000000000000000000 ) ) ;
#64 = CARTESIAN_POINT ( 'NONE',  ( 4.000000000000009770, 20.00000000000000355, 80.00000000000000000 ) ) ;
#65 = ORIENTED_EDGE ( 'NONE', *, *, #185, .T. ) ;
#66 = AXIS2_PLACEMENT_3D ( 'NONE', #419, #511, #169 ) ;
#67 = FACE_OUTER_BOUND ( 'NONE', #282, .T. ) ;
#68 = EDGE_CURVE ( 'NONE', #108, #567, #21, .T. ) ;
#69 = PLANE ( 'NONE',  #295 ) ;
#70 = EDGE_LOOP ( 'NONE', ( #146, #435, #338, #342 ) ) ;
#71 = LINE ( 'NONE', #163, #601 ) ;
#72 = CARTESIAN_POINT ( 'NONE',  ( 5.455880937064810254, 24.00000000000000355, 57.16044287021076542 ) ) ;
#73 = CARTESIAN_POINT ( 'NONE',  ( 15.00000000000000000, 0.000000000000000000, 80.00000000000000000 ) ) ;
#74 = EDGE_CURVE ( 'NONE', #352, #481, #301, .T. ) ;
#75 = CLOSED_SHELL ( 'NONE', ( #241, #384, #442, #292, #55, #86, #457, #512, #150, #468, #608, #200, #518, #135, #278, #413, #270, #587, #28, #299 ) ) ;
#76 = VECTOR ( 'NONE', #522, 1000.000000000000000 ) ;
#77 = CARTESIAN_POINT ( 'NONE',  ( 2.621836659717156515, 43.01881459392968310, 71.62183665971713253 ) ) ;
#78 = DIRECTION ( 'NONE',  ( -0.3236155771181848384, -0.8891264907159881492, 0.3236155771181848939 ) ) ;
#79 = CARTESIAN_POINT ( 'NONE',  ( 5.455880937064810254, 24.00000000000000000, 6.455880937064819136 ) ) ;
#80 = CARTESIAN_POINT ( 'NONE',  ( 4.000000000000000000, 20.00000000000000355, 0.000000000000000000 ) ) ;
#81 = DIRECTION ( 'NONE',  ( 0.000000000000000000, -0.9396926207859083169, 0.3420201433256688239 ) ) ;
#82 = LINE ( 'NONE', #471, #590 ) ;
#83 = FACE_OUTER_BOUND ( 'NONE', #249, .T. ) ;
#84 = AXIS2_PLACEMENT_3D ( 'NONE', #219, #175, #423 ) ;
#85 = CARTESIAN_POINT ( 'NONE',  ( 5.455880937064810254, 24.00000000000000711, 34.22323332251343686 ) ) ;
#86 = ADVANCED_FACE ( 'NONE', ( #489 ), #69, .F. ) ;
#87 = PLANE ( 'NONE',  #213 ) ;
#88 = ORIENTED_EDGE ( 'NONE', *, *, #504, .T. ) ;
#89 =( NAMED_UNIT ( * ) SI_UNIT ( $, .STERADIAN. ) SOLID_ANGLE_UNIT ( ) );
#90 = CARTESIAN_POINT ( 'NONE',  ( 0.000000000000000000, 24.00000000000000355, 0.000000000000000000 ) ) ;
#91 = VERTEX_POINT ( 'NONE', #449 ) ;
#92 = EDGE_CURVE ( 'NONE', #446, #352, #251, .T. ) ;
#93 = DIRECTION ( 'NONE',  ( 0.000000000000000000, 0.000000000000000000, -1.000000000000000000 ) ) ;
#94 = VECTOR ( 'NONE', #285, 1000.000000000000000 ) ;
#95 = ORIENTED_EDGE ( 'NONE', *, *, #340, .F. ) ;
#96 = EDGE_CURVE ( 'NONE', #286, #58, #344, .T. ) ;
#97 = CARTESIAN_POINT ( 'NONE',  ( 9.544119062935219944, 24.00000000000000355, 73.54411906293519507 ) ) ;
#98 = EDGE_LOOP ( 'NONE', ( #402, #56, #12, #524 ) ) ;
#99 = CARTESIAN_POINT ( 'NONE',  ( 0.000000000000000000, 0.000000000000000000, 80.00000000000000000 ) ) ;
#100 = ORIENTED_EDGE ( 'NONE', *, *, #539, .T. ) ;
#101 = ORIENTED_EDGE ( 'NONE', *, *, #366, .F. ) ;
#102 = LINE ( 'NONE', #484, #94 ) ;
#103 = CYLINDRICAL_SURFACE ( 'NONE', #265, 8.000000000000007105 ) ;
#104 = VECTOR ( 'NONE', #315, 1000.000000000000000 ) ;
#105 = ORIENTED_EDGE ( 'NONE', *, *, #206, .T. ) ;
#106 = CARTESIAN_POINT ( 'NONE',  ( 5.455880937064810254, 24.00000000000000355, -1.736316202330488655E-16 ) ) ;
#107 = DIRECTION ( 'NONE',  ( -1.000000000000000000, -0.000000000000000000, -0.000000000000000000 ) ) ;
#108 = VERTEX_POINT ( 'NONE', #501 ) ;
#109 = CARTESIAN_POINT ( 'NONE',  ( 10.76964150269711240, 20.63290476971923582, 49.10234264672814675 ) ) ;
#110 = CARTESIAN_POINT ( 'NONE',  ( 9.544119062935219944, 24.00000000000000355, 57.16044287021076542 ) ) ;
#111 = VERTEX_POINT ( 'NONE', #598 ) ;
#112 = EDGE_CURVE ( 'NONE', #240, #534, #546, .T. ) ;
#113 = CARTESIAN_POINT ( 'NONE',  ( 9.544119062935219944, 24.00000000000000355, 57.16044287021076542 ) ) ;
#114 = PLANE ( 'NONE',  #575 ) ;
#115 = AXIS2_PLACEMENT_3D ( 'NONE', #80, #279, #217 ) ;
#116 = VECTOR ( 'NONE', #13, 1000.000000000000000 ) ;
#117 = EDGE_CURVE ( 'NONE', #246, #192, #593, .T. ) ;
#118 = DIRECTION ( 'NONE',  ( 0.000000000000000000, 0.000000000000000000, 1.000000000000000000 ) ) ;
#119 = CARTESIAN_POINT ( 'NONE',  ( 0.000000000000000000, 0.000000000000000000, 0.000000000000000000 ) ) ;
#120 = EDGE_CURVE ( 'NONE', #108, #36, #24, .T. ) ;
#121 = CARTESIAN_POINT ( 'NONE',  ( 4.000000000000000000, 20.00000000000000355, 0.000000000000000000 ) ) ;
#122 = DIRECTION ( 'NONE',  ( 0.000000000000000000, -0.000000000000000000, 1.000000000000000000 ) ) ;
#123 = DIRECTION ( 'NONE',  ( 1.000000000000000000, -0.000000000000000000, -0.000000000000000000 ) ) ;
#124 = DIRECTION ( 'NONE',  ( -1.000000000000000000, 0.000000000000000000, 0.000000000000000000 ) ) ;
#125 = CARTESIAN_POINT ( 'NONE',  ( 0.000000000000000000, 20.00000000000000355, 80.00000000000000000 ) ) ;
#126 = CARTESIAN_POINT ( 'NONE',  ( 5.455880937064810254, 24.00000000000000355, 17.83955712978920261 ) ) ;
#127 = LINE ( 'NONE', #376, #297 ) ;
#128 = PLANE ( 'NONE',  #369 ) ;
#129 = MECHANICAL_DESIGN_GEOMETRIC_PRESENTATION_REPRESENTATION (  '', ( #516 ), #54 ) ;
#130 = LINE ( 'NONE', #225, #104 ) ;
#131 = EDGE_LOOP ( 'NONE', ( #333, #289, #237, #444, #529, #195 ) ) ;
#132 = ORIENTED_EDGE ( 'NONE', *, *, #557, .F. ) ;
#133 = ADVANCED_BREP_SHAPE_REPRESENTATION ( 'Rl3a', ( #450, #479 ), #390 ) ;
#134 = CARTESIAN_POINT ( 'NONE',  ( 4.230358497302910692, 20.63290476971924647, 14.51398116054743426 ) ) ;
#135 = ADVANCED_FACE ( 'NONE', ( #18 ), #114, .T. ) ;
#136 = ORIENTED_EDGE ( 'NONE', *, *, #424, .F. ) ;
#137 = ORIENTED_EDGE ( 'NONE', *, *, #117, .F. ) ;
#138 = CARTESIAN_POINT ( 'NONE',  ( 0.000000000000000000, 0.000000000000000000, 0.000000000000000000 ) ) ;
#139 = DIRECTION ( 'NONE',  ( 0.000000000000000000, 1.000000000000000000, 0.000000000000000000 ) ) ;
#140 = ORIENTED_EDGE ( 'NONE', *, *, #112, .F. ) ;
#141 = VECTOR ( 'NONE', #255, 1000.000000000000000 ) ;
#142 = CARTESIAN_POINT ( 'NONE',  ( 9.544119062935196851, 24.00000000000000355, 22.83955712978900365 ) ) ;
#143 = VECTOR ( 'NONE', #455, 1000.000000000000000 ) ;
#144 = ORIENTED_EDGE ( 'NONE', *, *, #461, .T. ) ;
#145 = ORIENTED_EDGE ( 'NONE', *, *, #176, .F. ) ;
#146 = ORIENTED_EDGE ( 'NONE', *, *, #227, .F. ) ;
#147 = LINE ( 'NONE', #281, #76 ) ;
#148 = EDGE_LOOP ( 'NONE', ( #594, #283, #382, #569, #395, #160, #428, #347, #530, #589, #197, #599 ) ) ;
#149 = CARTESIAN_POINT ( 'NONE',  ( 0.000000000000000000, 29.62165270047875509, 12.14771903342701265 ) ) ;
#150 = ADVANCED_FACE ( 'NONE', ( #360 ), #264, .F. ) ;
#151 = VERTEX_POINT ( 'NONE', #459 ) ;
#152 = VERTEX_POINT ( 'NONE', #72 ) ;
#153 = CARTESIAN_POINT ( 'NONE',  ( 9.544119062935187969, 24.00000000000000355, 5.682489389445238378E-16 ) ) ;
#154 = CARTESIAN_POINT ( 'NONE',  ( 10.76964150269710885, 20.63290476971921805, 26.16513309903078977 ) ) ;
#155 = VECTOR ( 'NONE', #268, 1000.000000000000000 ) ;
#156 = VECTOR ( 'NONE', #337, 1000.000000000000000 ) ;
#157 = ORIENTED_EDGE ( 'NONE', *, *, #224, .F. ) ;
#158 = DIRECTION ( 'NONE',  ( 0.000000000000000000, 0.000000000000000000, -1.000000000000000000 ) ) ;
#159 = EDGE_CURVE ( 'NONE', #36, #477, #262, .T. ) ;
#160 = ORIENTED_EDGE ( 'NONE', *, *, #185, .F. ) ;
#161 = FILL_AREA_STYLE ('',( #602 ) ) ;
#162 = EDGE_LOOP ( 'NONE', ( #478, #3, #499, #145 ) ) ;
#163 = CARTESIAN_POINT ( 'NONE',  ( 5.455880937064810254, 24.00000000000000355, -1.736316202330488655E-16 ) ) ;
#164 = DIRECTION ( 'NONE',  ( 0.9396926207859084279, 0.3420201433256688794, -3.667740411328844814E-16 ) ) ;
#165 = VECTOR ( 'NONE', #7, 1000.000000000000000 ) ;
#166 = FACE_OUTER_BOUND ( 'NONE', #290, .T. ) ;
#167 = EDGE_CURVE ( 'NONE', #385, #343, #372, .T. ) ;
#168 = CARTESIAN_POINT ( 'NONE',  ( 11.00000000000000000, 20.00000000000000355, 0.000000000000000000 ) ) ;
#169 = DIRECTION ( 'NONE',  ( 0.000000000000000000, -0.000000000000000000, 1.000000000000000000 ) ) ;
#170 = DIRECTION ( 'NONE',  ( 0.000000000000000000, 1.000000000000000000, 0.000000000000000000 ) ) ;
#171 = DIRECTION ( 'NONE',  ( 0.000000000000000000, 1.000000000000000000, 0.000000000000000000 ) ) ;
#172 = DIRECTION ( 'NONE',  ( 1.192622389734054877E-16, -0.000000000000000000, 1.000000000000000000 ) ) ;
#173 = VECTOR ( 'NONE', #235, 1000.000000000000000 ) ;
#174 = DIRECTION ( 'NONE',  ( 1.000000000000000000, -0.000000000000000000, -0.000000000000000000 ) ) ;
#175 = DIRECTION ( 'NONE',  ( 1.000000000000000000, -0.000000000000000000, -0.000000000000000000 ) ) ;
#176 = EDGE_CURVE ( 'NONE', #597, #389, #532, .T. ) ;
#177 = CARTESIAN_POINT ( 'NONE',  ( 0.000000000000000000, 0.000000000000000000, 0.000000000000000000 ) ) ;
#178 = CARTESIAN_POINT ( 'NONE',  ( 10.76964150269709286, 20.63290476971923937, 9.781456906306589261 ) ) ;
#179 = FACE_OUTER_BOUND ( 'NONE', #198, .T. ) ;
#180 = PLANE ( 'NONE',  #115 ) ;
#181 = DIRECTION ( 'NONE',  ( 1.000000000000000000, 0.000000000000000000, 0.000000000000000000 ) ) ;
#182 = VECTOR ( 'NONE', #579, 1000.000000000000000 ) ;
#183 = PRODUCT_DEFINITION_CONTEXT ( 'detailed design', #373, 'design' ) ;
#184 = LINE ( 'NONE', #232, #460 ) ;
#185 = EDGE_CURVE ( 'NONE', #9, #108, #321, .T. ) ;
#186 = CYLINDRICAL_SURFACE ( 'NONE', #591, 8.000000000000003553 ) ;
#187 = EDGE_LOOP ( 'NONE', ( #580, #543, #355, #229 ) ) ;
#188 = LINE ( 'NONE', #581, #496 ) ;
#189 = ORIENTED_EDGE ( 'NONE', *, *, #364, .T. ) ;
#190 = LINE ( 'NONE', #287, #438 ) ;
#191 = VECTOR ( 'NONE', #30, 1000.000000000000000 ) ;
#192 = VERTEX_POINT ( 'NONE', #215 ) ;
#193 = CARTESIAN_POINT ( 'NONE',  ( 4.230358497302909804, 20.63290476971923937, 9.781456906306596366 ) ) ;
#194 = ORIENTED_EDGE ( 'NONE', *, *, #432, .T. ) ;
#195 = ORIENTED_EDGE ( 'NONE', *, *, #68, .T. ) ;
#196 = DIRECTION ( 'NONE',  ( -1.000000000000000000, 0.000000000000000000, -0.000000000000000000 ) ) ;
#197 = ORIENTED_EDGE ( 'NONE', *, *, #220, .F. ) ;
#198 = EDGE_LOOP ( 'NONE', ( #441, #259, #44, #157, #379, #329 ) ) ;
#199 = CARTESIAN_POINT ( 'NONE',  ( 9.544119062935205733, 24.00000000000000355, 45.77676667748637129 ) ) ;
#200 = ADVANCED_FACE ( 'NONE', ( #29 ), #180, .T. ) ;
#201 = CARTESIAN_POINT ( 'NONE',  ( 15.00000000000000000, 0.000000000000000000, 80.00000000000000000 ) ) ;
#202 = PRESENTATION_LAYER_ASSIGNMENT (  '', '', ( #516 ) ) ;
#203 = ORIENTED_EDGE ( 'NONE', *, *, #578, .F. ) ;
#204 = DIRECTION ( 'NONE',  ( -1.000000000000000000, -0.000000000000000000, -0.000000000000000000 ) ) ;
#205 = PLANE ( 'NONE',  #565 ) ;
#206 = EDGE_CURVE ( 'NONE', #62, #481, #271, .T. ) ;
#207 = ORIENTED_EDGE ( 'NONE', *, *, #612, .F. ) ;
#208 = DIRECTION ( 'NONE',  ( -3.903127820947816455E-16, 0.000000000000000000, -1.000000000000000000 ) ) ;
#209 = FACE_OUTER_BOUND ( 'NONE', #187, .T. ) ;
#210 = ORIENTED_EDGE ( 'NONE', *, *, #167, .T. ) ;
#211 = SURFACE_STYLE_FILL_AREA ( #161 ) ;
#212 = DIRECTION ( 'NONE',  ( -3.903127820947815962E-16, -0.000000000000000000, -1.000000000000000000 ) ) ;
#213 = AXIS2_PLACEMENT_3D ( 'NONE', #473, #170, #122 ) ;
#214 =( NAMED_UNIT ( * ) PLANE_ANGLE_UNIT ( ) SI_UNIT ( $, .RADIAN. ) );
#215 = CARTESIAN_POINT ( 'NONE',  ( 5.455880937064810254, 24.00000000000000355, 1.455880937064810476 ) ) ;
#216 = DIRECTION ( 'NONE',  ( -0.3236155771181848384, -0.8891264907159882602, -0.3236155771181847829 ) ) ;
#217 = DIRECTION ( 'NONE',  ( -0.3420201433256688239, -0.9396926207859083169, 0.000000000000000000 ) ) ;
#218 = LINE ( 'NONE', #314, #487 ) ;
#219 = CARTESIAN_POINT ( 'NONE',  ( 0.000000000000000000, 29.62165270047876220, 67.85228096657300512 ) ) ;
#220 = EDGE_CURVE ( 'NONE', #286, #111, #368, .T. ) ;
#221 = AXIS2_PLACEMENT_3D ( 'NONE', #253, #257, #60 ) ;
#222 = PLANE ( 'NONE',  #411 ) ;
#223 = CARTESIAN_POINT ( 'NONE',  ( 9.544119062935189746, 24.00000000000000355, 1.455880937064810476 ) ) ;
#224 = EDGE_CURVE ( 'NONE', #234, #477, #130, .T. ) ;
#225 = CARTESIAN_POINT ( 'NONE',  ( 0.000000000000000000, 20.00000000000000355, 0.000000000000000000 ) ) ;
#226 = ORIENTED_EDGE ( 'NONE', *, *, #585, .T. ) ;
#227 = EDGE_CURVE ( 'NONE', #486, #584, #82, .T. ) ;
#228 = CARTESIAN_POINT ( 'NONE',  ( 0.000000000000000000, 24.00000000000000355, 73.54411906293519507 ) ) ;
#229 = ORIENTED_EDGE ( 'NONE', *, *, #68, .F. ) ;
#230 = EDGE_CURVE ( 'NONE', #523, #111, #513, .T. ) ;
#231 = COLOUR_RGB ( '',0.7921568627450980005, 0.8196078431372548767, 0.9333333333333333481 ) ;
#232 = CARTESIAN_POINT ( 'NONE',  ( 5.455880937064810254, 24.00000000000000355, -1.736316202330488655E-16 ) ) ;
#233 = VERTEX_POINT ( 'NONE', #325 ) ;
#234 = VERTEX_POINT ( 'NONE', #38 ) ;
#235 = DIRECTION ( 'NONE',  ( -0.000000000000000000, -0.000000000000000000, -1.000000000000000000 ) ) ;
#236 = ORIENTED_EDGE ( 'NONE', *, *, #366, .T. ) ;
#237 = ORIENTED_EDGE ( 'NONE', *, *, #288, .T. ) ;
#238 = VERTEX_POINT ( 'NONE', #553 ) ;
#239 = CARTESIAN_POINT ( 'NONE',  ( 9.544119062935219944, 24.00000000000000711, 34.22323332251343686 ) ) ;
#240 = VERTEX_POINT ( 'NONE', #126 ) ;
#241 = ADVANCED_FACE ( 'NONE', ( #466 ), #320, .T. ) ;
#242 = DIRECTION ( 'NONE',  ( 0.000000000000000000, 0.000000000000000000, 1.000000000000000000 ) ) ;
#243 = DIRECTION ( 'NONE',  ( 1.192622389734054877E-16, 0.000000000000000000, 1.000000000000000000 ) ) ;
#244 = VECTOR ( 'NONE', #16, 1000.000000000000000 ) ;
#245 = PRODUCT_DEFINITION_SHAPE ( 'NONE', 'NONE',  #311 ) ;
#246 = VERTEX_POINT ( 'NONE', #223 ) ;
#247 =( LENGTH_UNIT ( ) NAMED_UNIT ( * ) SI_UNIT ( .MILLI., .METRE. ) );
#248 = ORIENTED_EDGE ( 'NONE', *, *, #612, .T. ) ;
#249 = EDGE_LOOP ( 'NONE', ( #300, #408, #582, #326 ) ) ;
#250 =( NAMED_UNIT ( * ) PLANE_ANGLE_UNIT ( ) SI_UNIT ( $, .RADIAN. ) );
#251 = LINE ( 'NONE', #119, #335 ) ;
#252 = EDGE_LOOP ( 'NONE', ( #451, #577, #562, #5 ) ) ;
#253 = CARTESIAN_POINT ( 'NONE',  ( 0.000000000000000000, 0.000000000000000000, 80.00000000000000000 ) ) ;
#254 = PRODUCT_RELATED_PRODUCT_CATEGORY ( 'part', '', ( #48 ) ) ;
#255 = DIRECTION ( 'NONE',  ( 1.000000000000000000, 0.000000000000000000, 0.000000000000000000 ) ) ;
#256 = ORIENTED_EDGE ( 'NONE', *, *, #346, .F. ) ;
#257 = DIRECTION ( 'NONE',  ( 1.000000000000000000, 0.000000000000000000, 0.000000000000000000 ) ) ;
#258 = DIRECTION ( 'NONE',  ( 0.000000000000000000, 0.000000000000000000, -1.000000000000000000 ) ) ;
#259 = ORIENTED_EDGE ( 'NONE', *, *, #475, .F. ) ;
#260 = CARTESIAN_POINT ( 'NONE',  ( 10.76964150269711595, 20.63290476971923937, 53.83486690096897576 ) ) ;
#261 = UNCERTAINTY_MEASURE_WITH_UNIT (LENGTH_MEASURE( 1.000000000000000082E-05 ), #247, 'distance_accuracy_value', 'NONE');
#262 = LINE ( 'NONE', #456, #32 ) ;
#263 = FACE_OUTER_BOUND ( 'NONE', #306, .T. ) ;
#264 = PLANE ( 'NONE',  #25 ) ;
#265 = AXIS2_PLACEMENT_3D ( 'NONE', #440, #8, #258 ) ;
#266 = VECTOR ( 'NONE', #564, 1000.000000000000000 ) ;
#267 = CARTESIAN_POINT ( 'NONE',  ( 5.455880937064810254, 24.00000000000000355, 73.54411906293519507 ) ) ;
#268 = DIRECTION ( 'NONE',  ( -0.000000000000000000, -0.000000000000000000, -1.000000000000000000 ) ) ;
#269 = DIRECTION ( 'NONE',  ( 0.3236155771181848939, -0.8891264907159882602, 0.3236155771181847829 ) ) ;
#270 = ADVANCED_FACE ( 'NONE', ( #464 ), #611, .F. ) ;
#271 = LINE ( 'NONE', #420, #155 ) ;
#272 = CARTESIAN_POINT ( 'NONE',  ( 4.230358497302917797, 20.63290476971924292, 53.83486690096898286 ) ) ;
#273 = EDGE_CURVE ( 'NONE', #486, #534, #494, .T. ) ;
#274 = DIRECTION ( 'NONE',  ( -1.000000000000000000, 0.000000000000000000, 0.000000000000000000 ) ) ;
#275 = ORIENTED_EDGE ( 'NONE', *, *, #167, .F. ) ;
#276 = CARTESIAN_POINT ( 'NONE',  ( 0.000000000000000000, 29.62165270047873733, 51.46860477384855415 ) ) ;
#277 = LINE ( 'NONE', #616, #266 ) ;
#278 = ADVANCED_FACE ( 'NONE', ( #605 ), #128, .T. ) ;
#279 = DIRECTION ( 'NONE',  ( -0.9396926207859084279, 0.3420201433256688794, 1.120698459017147232E-16 ) ) ;
#280 = ORIENTED_EDGE ( 'NONE', *, *, #474, .F. ) ;
#281 = CARTESIAN_POINT ( 'NONE',  ( 0.000000000000000000, 0.000000000000000000, 80.00000000000000000 ) ) ;
#282 = EDGE_LOOP ( 'NONE', ( #533, #348, #392, #426 ) ) ;
#283 = ORIENTED_EDGE ( 'NONE', *, *, #303, .T. ) ;
#284 = APPLICATION_PROTOCOL_DEFINITION ( 'draft international standard', 'automotive_design', 1998, #373 ) ;
#285 = DIRECTION ( 'NONE',  ( -1.000000000000000000, -0.000000000000000000, -0.000000000000000000 ) ) ;
#286 = VERTEX_POINT ( 'NONE', #85 ) ;
#287 = CARTESIAN_POINT ( 'NONE',  ( 9.544119062935187969, 24.00000000000000355, 5.682489389445238378E-16 ) ) ;
#288 = EDGE_CURVE ( 'NONE', #62, #151, #277, .T. ) ;
#289 = ORIENTED_EDGE ( 'NONE', *, *, #346, .T. ) ;
#290 = EDGE_LOOP ( 'NONE', ( #572, #189, #334, #330 ) ) ;
#291 = DIRECTION ( 'NONE',  ( -3.903127820947816455E-16, 0.000000000000000000, -1.000000000000000000 ) ) ;
#292 = ADVANCED_FACE ( 'NONE', ( #365 ), #87, .T. ) ;
#293 = CARTESIAN_POINT ( 'NONE',  ( 5.455880937064820024, 24.00000000000000355, 78.54411906293519507 ) ) ;
#294 = VERTEX_POINT ( 'NONE', #97 ) ;
#295 = AXIS2_PLACEMENT_3D ( 'NONE', #401, #498, #61 ) ;
#296 = LINE ( 'NONE', #228, #610 ) ;
#297 = VECTOR ( 'NONE', #470, 1000.000000000000114 ) ;
#298 = ORIENTED_EDGE ( 'NONE', *, *, #159, .T. ) ;
#299 = ADVANCED_FACE ( 'NONE', ( #39 ), #186, .F. ) ;
#300 = ORIENTED_EDGE ( 'NONE', *, *, #351, .T. ) ;
#301 = LINE ( 'NONE', #493, #307 ) ;
#302 = ORIENTED_EDGE ( 'NONE', *, *, #539, .F. ) ;
#303 = EDGE_CURVE ( 'NONE', #240, #584, #583, .T. ) ;
#304 = DIRECTION ( 'NONE',  ( 0.000000000000000000, 1.000000000000000000, 0.000000000000000000 ) ) ;
#305 = DIRECTION ( 'NONE',  ( 0.000000000000000000, -0.000000000000000000, -1.000000000000000000 ) ) ;
#306 = EDGE_LOOP ( 'NONE', ( #495, #520, #256, #574 ) ) ;
#307 = VECTOR ( 'NONE', #404, 1000.000000000000000 ) ;
#308 = DIRECTION ( 'NONE',  ( -0.3420201433256688239, 0.9396926207859083169, 0.000000000000000000 ) ) ;
#309 = AXIS2_PLACEMENT_3D ( 'NONE', #10, #158, #196 ) ;
#310 = LINE ( 'NONE', #586, #317 ) ;
#311 = PRODUCT_DEFINITION ( 'UNKNOWN', '', #431, #183 ) ;
#312 = DIRECTION ( 'NONE',  ( -0.000000000000000000, -1.000000000000000000, -0.000000000000000000 ) ) ;
#313 = CARTESIAN_POINT ( 'NONE',  ( 5.455880937064810254, 24.00000000000000000, 22.83955712978901076 ) ) ;
#314 = CARTESIAN_POINT ( 'NONE',  ( 0.000000000000000000, 24.00000000000000355, 34.22323332251341554 ) ) ;
#315 = DIRECTION ( 'NONE',  ( -1.000000000000000000, -0.000000000000000000, -0.000000000000000000 ) ) ;
#316 = EDGE_CURVE ( 'NONE', #151, #36, #102, .T. ) ;
#317 = VECTOR ( 'NONE', #204, 1000.000000000000000 ) ;
#318 = EDGE_CURVE ( 'NONE', #51, #294, #190, .T. ) ;
#319 = LINE ( 'NONE', #77, #421 ) ;
#320 = PLANE ( 'NONE',  #535 ) ;
#321 = LINE ( 'NONE', #31, #429 ) ;
#322 = CARTESIAN_POINT ( 'NONE',  ( 9.544119062935212838, 24.00000000000000355, 62.16044287021082226 ) ) ;
#323 = DIRECTION ( 'NONE',  ( 0.000000000000000000, 0.3420201433256689350, -0.9396926207859084279 ) ) ;
#324 = VECTOR ( 'NONE', #171, 1000.000000000000000 ) ;
#325 = CARTESIAN_POINT ( 'NONE',  ( 9.544119062935212838, 24.00000000000000355, 62.16044287021082226 ) ) ;
#326 = ORIENTED_EDGE ( 'NONE', *, *, #600, .F. ) ;
#327 = DIRECTION ( 'NONE',  ( -1.000000000000000000, 0.000000000000000000, 0.000000000000000000 ) ) ;
#328 = ORIENTED_EDGE ( 'NONE', *, *, #224, .T. ) ;
#329 = ORIENTED_EDGE ( 'NONE', *, *, #74, .F. ) ;
#330 = ORIENTED_EDGE ( 'NONE', *, *, #340, .T. ) ;
#331 = SHAPE_DEFINITION_REPRESENTATION ( #245, #133 ) ;
#332 = LINE ( 'NONE', #439, #618 ) ;
#333 = ORIENTED_EDGE ( 'NONE', *, *, #409, .T. ) ;
#334 = ORIENTED_EDGE ( 'NONE', *, *, #405, .F. ) ;
#335 = VECTOR ( 'NONE', #312, 1000.000000000000000 ) ;
#336 = EDGE_CURVE ( 'NONE', #91, #352, #41, .T. ) ;
#337 = DIRECTION ( 'NONE',  ( 1.000000000000000000, 0.000000000000000000, 0.000000000000000000 ) ) ;
#338 = ORIENTED_EDGE ( 'NONE', *, *, #117, .T. ) ;
#339 = EDGE_LOOP ( 'NONE', ( #203, #619, #2, #454 ) ) ;
#340 = EDGE_CURVE ( 'NONE', #233, #50, #617, .T. ) ;
#341 = CARTESIAN_POINT ( 'NONE',  ( 9.544119062935187969, 24.00000000000000355, 5.682489389445238378E-16 ) ) ;
#342 = ORIENTED_EDGE ( 'NONE', *, *, #497, .T. ) ;
#343 = VERTEX_POINT ( 'NONE', #239 ) ;
#344 =( BOUNDED_CURVE ( )  B_SPLINE_CURVE ( 3, ( #350, #410, #14, #313 ),
 .UNSPECIFIED., .F., .F. ) 
 B_SPLINE_CURVE_WITH_KNOTS ( ( 4, 4 ),
 ( 2.349990879230460905, 3.933194427949121774 ),
 .UNSPECIFIED. ) 
 CURVE ( )  GEOMETRIC_REPRESENTATION_ITEM ( )  RATIONAL_B_SPLINE_CURVE ( ( 1.000000000000000000, 0.8018043917065617032, 0.8018043917065617032, 1.000000000000000000 ) ) 
 REPRESENTATION_ITEM ( '' )  );
#345 = DIRECTION ( 'NONE',  ( 1.000000000000000000, -0.000000000000000000, -0.000000000000000000 ) ) ;
#346 = EDGE_CURVE ( 'NONE', #91, #62, #1, .T. ) ;
#347 = ORIENTED_EDGE ( 'NONE', *, *, #176, .T. ) ;
#348 = ORIENTED_EDGE ( 'NONE', *, *, #336, .F. ) ;
#349 = VECTOR ( 'NONE', #274, 1000.000000000000000 ) ;
#350 = CARTESIAN_POINT ( 'NONE',  ( 5.455880937064810254, 24.00000000000000711, 34.22323332251343686 ) ) ;
#351 = EDGE_CURVE ( 'NONE', #152, #50, #188, .T. ) ;
#352 = VERTEX_POINT ( 'NONE', #383 ) ;
#353 = SURFACE_SIDE_STYLE ('',( #211 ) ) ;
#354 = CARTESIAN_POINT ( 'NONE',  ( 4.000000000000000000, 24.00000000000000355, 1.455880937064810476 ) ) ;
#355 = ORIENTED_EDGE ( 'NONE', *, *, #544, .F. ) ;
#356 = LINE ( 'NONE', #20, #469 ) ;
#357 = CARTESIAN_POINT ( 'NONE',  ( 0.000000000000000000, 20.00000000000000355, 80.00000000000000000 ) ) ;
#358 = EDGE_LOOP ( 'NONE', ( #140, #194, #302, #236 ) ) ;
#359 = DIRECTION ( 'NONE',  ( 1.192622389734054877E-16, -0.000000000000000000, 1.000000000000000000 ) ) ;
#360 = FACE_OUTER_BOUND ( 'NONE', #40, .T. ) ;
#361 = CARTESIAN_POINT ( 'NONE',  ( 0.000000000000000000, 24.00000000000000355, 0.000000000000000000 ) ) ;
#362 = EDGE_CURVE ( 'NONE', #597, #294, #296, .T. ) ;
#363 = LINE ( 'NONE', #121, #43 ) ;
#364 = EDGE_CURVE ( 'NONE', #152, #389, #184, .T. ) ;
#365 = FACE_OUTER_BOUND ( 'NONE', #98, .T. ) ;
#366 = EDGE_CURVE ( 'NONE', #385, #534, #386, .T. ) ;
#367 = CARTESIAN_POINT ( 'NONE',  ( 9.544119062935219944, 24.00000000000000355, 73.54411906293519507 ) ) ;
#368 = LINE ( 'NONE', #462, #505 ) ;
#369 = AXIS2_PLACEMENT_3D ( 'NONE', #377, #323, #515 ) ;
#370 = CARTESIAN_POINT ( 'NONE',  ( 9.544119062935219944, 24.00000000000000355, 17.83955712978920261 ) ) ;
#371 = CARTESIAN_POINT ( 'NONE',  ( 5.455880937064810254, 24.00000000000000355, 73.54411906293519507 ) ) ;
#372 =( BOUNDED_CURVE ( )  B_SPLINE_CURVE ( 3, ( #397, #154, #607, #418 ),
 .UNSPECIFIED., .F., .F. ) 
 B_SPLINE_CURVE_WITH_KNOTS ( ( 4, 4 ),
 ( 5.491583532820254909, 7.074787081538917555 ),
 .UNSPECIFIED. ) 
 CURVE ( )  GEOMETRIC_REPRESENTATION_ITEM ( )  RATIONAL_B_SPLINE_CURVE ( ( 1.000000000000000000, 0.8018043917065612591, 0.8018043917065612591, 1.000000000000000000 ) ) 
 REPRESENTATION_ITEM ( '' )  );
#373 = APPLICATION_CONTEXT ( 'automotive_design' ) ;
#374 = DIRECTION ( 'NONE',  ( 0.000000000000000000, 0.000000000000000000, -1.000000000000000000 ) ) ;
#375 = CARTESIAN_POINT ( 'NONE',  ( 10.76964150269709641, 20.63290476971923937, 14.51398116054742715 ) ) ;
#376 = CARTESIAN_POINT ( 'NONE',  ( 10.26691070772524839, 22.01414627696884807, 0.7330892922747503926 ) ) ;
#377 = CARTESIAN_POINT ( 'NONE',  ( 4.000000000000000000, 20.00000000000000355, 0.000000000000000000 ) ) ;
#378 = ORIENTED_EDGE ( 'NONE', *, *, #434, .T. ) ;
#379 = ORIENTED_EDGE ( 'NONE', *, *, #504, .F. ) ;
#380 = VECTOR ( 'NONE', #571, 1000.000000000000000 ) ;
#381 = LINE ( 'NONE', #568, #165 ) ;
#382 = ORIENTED_EDGE ( 'NONE', *, *, #497, .F. ) ;
#383 = CARTESIAN_POINT ( 'NONE',  ( 0.000000000000000000, 0.000000000000000000, 0.000000000000000000 ) ) ;
#384 = ADVANCED_FACE ( 'NONE', ( #427 ), #433, .T. ) ;
#385 = VERTEX_POINT ( 'NONE', #142 ) ;
#386 = LINE ( 'NONE', #341, #380 ) ;
#387 = EDGE_LOOP ( 'NONE', ( #570, #53, #101, #210, #136, #378, #95, #540, #59, #226, #298, #207 ) ) ;
#388 = EDGE_CURVE ( 'NONE', #597, #9, #381, .T. ) ;
#389 = VERTEX_POINT ( 'NONE', #47 ) ;
#390 =( GEOMETRIC_REPRESENTATION_CONTEXT ( 3 ) GLOBAL_UNCERTAINTY_ASSIGNED_CONTEXT ( ( #17 ) ) GLOBAL_UNIT_ASSIGNED_CONTEXT ( ( #502, #214, #89 ) ) REPRESENTATION_CONTEXT ( 'NONE', 'WORKASPACE' ) );
#391 = DIRECTION ( 'NONE',  ( 1.192622389734054877E-16, -0.000000000000000000, 1.000000000000000000 ) ) ;
#392 = ORIENTED_EDGE ( 'NONE', *, *, #409, .F. ) ;
#393 = CARTESIAN_POINT ( 'NONE',  ( 0.000000000000000000, 24.00000000000000355, 0.000000000000000000 ) ) ;
#394 = EDGE_LOOP ( 'NONE', ( #22, #15, #11, #328 ) ) ;
#395 = ORIENTED_EDGE ( 'NONE', *, *, #417, .T. ) ;
#396 = CARTESIAN_POINT ( 'NONE',  ( 15.00000000000000000, 20.00000000000000355, 80.00000000000000000 ) ) ;
#397 = CARTESIAN_POINT ( 'NONE',  ( 9.544119062935196851, 24.00000000000000355, 22.83955712978900365 ) ) ;
#398 = ORIENTED_EDGE ( 'NONE', *, *, #538, .F. ) ;
#399 = VECTOR ( 'NONE', #609, 1000.000000000000000 ) ;
#400 = CARTESIAN_POINT ( 'NONE',  ( 4.000000000000000000, 20.00000000000000355, 0.000000000000000000 ) ) ;
#401 = CARTESIAN_POINT ( 'NONE',  ( 0.000000000000000000, 20.00000000000000355, 80.00000000000000000 ) ) ;
#402 = ORIENTED_EDGE ( 'NONE', *, *, #362, .F. ) ;
#403 = CARTESIAN_POINT ( 'NONE',  ( 11.00000000000000000, 20.00000000000000355, 0.000000000000000000 ) ) ;
#404 = DIRECTION ( 'NONE',  ( 1.000000000000000000, 0.000000000000000000, 0.000000000000000000 ) ) ;
#405 = EDGE_CURVE ( 'NONE', #233, #389, #332, .T. ) ;
#406 = ORIENTED_EDGE ( 'NONE', *, *, #96, .F. ) ;
#407 = PLANE ( 'NONE',  #221 ) ;
#408 = ORIENTED_EDGE ( 'NONE', *, *, #434, .F. ) ;
#409 = EDGE_CURVE ( 'NONE', #567, #91, #147, .T. ) ;
#410 = CARTESIAN_POINT ( 'NONE',  ( 4.230358497302908027, 20.63290476971922516, 30.89765735327165075 ) ) ;
#411 = AXIS2_PLACEMENT_3D ( 'NONE', #509, #514, #81 ) ;
#412 = PLANE ( 'NONE',  #66 ) ;
#413 = ADVANCED_FACE ( 'NONE', ( #519 ), #480, .T. ) ;
#414 = CARTESIAN_POINT ( 'NONE',  ( 4.230358497302924015, 20.63290476971926068, 70.21854309369342673 ) ) ;
#415 =( BOUNDED_CURVE ( )  B_SPLINE_CURVE ( 3, ( #322, #27, #563, #367 ),
 .UNSPECIFIED., .F., .T. ) 
 B_SPLINE_CURVE_WITH_KNOTS ( ( 4, 4 ),
 ( 5.491583532820258462, 7.074787081538912226 ),
 .UNSPECIFIED. ) 
 CURVE ( )  GEOMETRIC_REPRESENTATION_ITEM ( )  RATIONAL_B_SPLINE_CURVE ( ( 1.000000000000000000, 0.8018043917065633686, 0.8018043917065633686, 1.000000000000000000 ) ) 
 REPRESENTATION_ITEM ( '' )  );
#416 = LINE ( 'NONE', #606, #191 ) ;
#417 = EDGE_CURVE ( 'NONE', #238, #108, #526, .T. ) ;
#418 = CARTESIAN_POINT ( 'NONE',  ( 9.544119062935219944, 24.00000000000000711, 34.22323332251343686 ) ) ;
#419 = CARTESIAN_POINT ( 'NONE',  ( 0.000000000000000000, 0.000000000000000000, 80.00000000000000000 ) ) ;
#420 = CARTESIAN_POINT ( 'NONE',  ( 15.00000000000000000, 0.000000000000000000, 80.00000000000000000 ) ) ;
#421 = VECTOR ( 'NONE', #269, 1000.000000000000114 ) ;
#422 = DIRECTION ( 'NONE',  ( 0.000000000000000000, 0.000000000000000000, -1.000000000000000000 ) ) ;
#423 = DIRECTION ( 'NONE',  ( 0.000000000000000000, 0.000000000000000000, -1.000000000000000000 ) ) ;
#424 = EDGE_CURVE ( 'NONE', #523, #343, #536, .T. ) ;
#425 = FACE_OUTER_BOUND ( 'NONE', #437, .T. ) ;
#426 = ORIENTED_EDGE ( 'NONE', *, *, #544, .T. ) ;
#427 = FACE_OUTER_BOUND ( 'NONE', #339, .T. ) ;
#428 = ORIENTED_EDGE ( 'NONE', *, *, #388, .F. ) ;
#429 = VECTOR ( 'NONE', #78, 999.9999999999998863 ) ;
#430 = VECTOR ( 'NONE', #63, 1000.000000000000000 ) ;
#431 = PRODUCT_DEFINITION_FORMATION_WITH_SPECIFIED_SOURCE ( 'ANY', '', #48, .NOT_KNOWN. ) ;
#432 = EDGE_CURVE ( 'NONE', #240, #58, #545, .T. ) ;
#433 = PLANE ( 'NONE',  #34 ) ;
#434 = EDGE_CURVE ( 'NONE', #523, #50, #42, .T. ) ;
#435 = ORIENTED_EDGE ( 'NONE', *, *, #491, .T. ) ;
#436 = CARTESIAN_POINT ( 'NONE',  ( 0.000000000000000000, 0.000000000000000000, 80.00000000000000000 ) ) ;
#437 = EDGE_LOOP ( 'NONE', ( #19, #490, #132, #65 ) ) ;
#438 = VECTOR ( 'NONE', #291, 1000.000000000000000 ) ;
#439 = CARTESIAN_POINT ( 'NONE',  ( 0.000000000000000000, 24.00000000000000355, 62.16044287021082226 ) ) ;
#440 = CARTESIAN_POINT ( 'NONE',  ( 0.000000000000000000, 29.62165270047874799, 28.53139522615121138 ) ) ;
#441 = ORIENTED_EDGE ( 'NONE', *, *, #92, .F. ) ;
#442 = ADVANCED_FACE ( 'NONE', ( #166 ), #541, .T. ) ;
#443 =( NAMED_UNIT ( * ) SI_UNIT ( $, .STERADIAN. ) SOLID_ANGLE_UNIT ( ) );
#444 = ORIENTED_EDGE ( 'NONE', *, *, #316, .T. ) ;
#445 = LINE ( 'NONE', #400, #143 ) ;
#446 = VERTEX_POINT ( 'NONE', #492 ) ;
#447 = VECTOR ( 'NONE', #542, 1000.000000000000000 ) ;
#448 = FACE_OUTER_BOUND ( 'NONE', #131, .T. ) ;
#449 = CARTESIAN_POINT ( 'NONE',  ( 0.000000000000000000, 0.000000000000000000, 80.00000000000000000 ) ) ;
#450 = MANIFOLD_SOLID_BREP ( 'Schnitt-Linear austragen2', #75 ) ;
#451 = ORIENTED_EDGE ( 'NONE', *, *, #112, .T. ) ;
#452 = CARTESIAN_POINT ( 'NONE',  ( 15.00000000000000000, 0.000000000000000000, 0.000000000000000000 ) ) ;
#453 = CARTESIAN_POINT ( 'NONE',  ( 0.000000000000000000, 20.00000000000000355, 80.00000000000000000 ) ) ;
#454 = ORIENTED_EDGE ( 'NONE', *, *, #424, .T. ) ;
#455 = DIRECTION ( 'NONE',  ( -1.000000000000000000, -0.000000000000000000, -0.000000000000000000 ) ) ;
#456 = CARTESIAN_POINT ( 'NONE',  ( 11.00000000000000000, 20.00000000000000355, 0.000000000000000000 ) ) ;
#457 = ADVANCED_FACE ( 'NONE', ( #67 ), #407, .F. ) ;
#458 = VECTOR ( 'NONE', #107, 1000.000000000000000 ) ;
#459 = CARTESIAN_POINT ( 'NONE',  ( 15.00000000000000000, 20.00000000000000355, 80.00000000000000000 ) ) ;
#460 = VECTOR ( 'NONE', #391, 1000.000000000000000 ) ;
#461 = EDGE_CURVE ( 'NONE', #477, #238, #445, .T. ) ;
#462 = CARTESIAN_POINT ( 'NONE',  ( 5.455880937064810254, 24.00000000000000355, -1.736316202330488655E-16 ) ) ;
#463 = CYLINDRICAL_SURFACE ( 'NONE', #566, 7.999999999999979572 ) ;
#464 = FACE_OUTER_BOUND ( 'NONE', #162, .T. ) ;
#465 = CARTESIAN_POINT ( 'NONE',  ( 0.000000000000000000, 20.00000000000000355, 80.00000000000000000 ) ) ;
#466 = FACE_OUTER_BOUND ( 'NONE', #358, .T. ) ;
#467 = VECTOR ( 'NONE', #503, 1000.000000000000000 ) ;
#468 = ADVANCED_FACE ( 'NONE', ( #448 ), #592, .F. ) ;
#469 = VECTOR ( 'NONE', #208, 1000.000000000000000 ) ;
#470 = DIRECTION ( 'NONE',  ( 0.3236155771181846719, -0.8891264907159882602, -0.3236155771181848384 ) ) ;
#471 = CARTESIAN_POINT ( 'NONE',  ( 0.000000000000000000, 24.00000000000000355, 6.455880937064818248 ) ) ;
#472 = APPLICATION_PROTOCOL_DEFINITION ( 'draft international standard', 'automotive_design', 1998, #554 ) ;
#473 = CARTESIAN_POINT ( 'NONE',  ( 0.000000000000000000, 24.00000000000000355, 0.000000000000000000 ) ) ;
#474 = EDGE_CURVE ( 'NONE', #151, #234, #23, .T. ) ;
#475 = EDGE_CURVE ( 'NONE', #238, #446, #310, .T. ) ;
#476 = DIRECTION ( 'NONE',  ( 0.000000000000000000, -0.000000000000000000, 1.000000000000000000 ) ) ;
#477 = VERTEX_POINT ( 'NONE', #403 ) ;
#478 = ORIENTED_EDGE ( 'NONE', *, *, #362, .T. ) ;
#479 = AXIS2_PLACEMENT_3D ( 'NONE', #138, #242, #181 ) ;
#480 = PLANE ( 'NONE',  #525 ) ;
#481 = VERTEX_POINT ( 'NONE', #452 ) ;
#482 = DIRECTION ( 'NONE',  ( 0.000000000000000000, 1.000000000000000000, 0.000000000000000000 ) ) ;
#483 = EDGE_LOOP ( 'NONE', ( #527, #275, #100, #406 ) ) ;
#484 = CARTESIAN_POINT ( 'NONE',  ( 0.000000000000000000, 20.00000000000000355, 80.00000000000000000 ) ) ;
#485 = FACE_OUTER_BOUND ( 'NONE', #483, .T. ) ;
#486 = VERTEX_POINT ( 'NONE', #595 ) ;
#487 = VECTOR ( 'NONE', #123, 1000.000000000000000 ) ;
#488 =( BOUNDED_CURVE ( )  B_SPLINE_CURVE ( 3, ( #506, #272, #604, #33 ),
 .UNSPECIFIED., .F., .T. ) 
 B_SPLINE_CURVE_WITH_KNOTS ( ( 4, 4 ),
 ( 2.349990879230461349, 3.933194427949120442 ),
 .UNSPECIFIED. ) 
 CURVE ( )  GEOMETRIC_REPRESENTATION_ITEM ( )  RATIONAL_B_SPLINE_CURVE ( ( 1.000000000000000000, 0.8018043917065620363, 0.8018043917065620363, 1.000000000000000000 ) ) 
 REPRESENTATION_ITEM ( '' )  );
#489 = FACE_OUTER_BOUND ( 'NONE', #394, .T. ) ;
#490 = ORIENTED_EDGE ( 'NONE', *, *, #585, .F. ) ;
#491 = EDGE_CURVE ( 'NONE', #486, #246, #356, .T. ) ;
#492 = CARTESIAN_POINT ( 'NONE',  ( 0.000000000000000000, 20.00000000000000355, 0.000000000000000000 ) ) ;
#493 = CARTESIAN_POINT ( 'NONE',  ( 0.000000000000000000, 0.000000000000000000, 0.000000000000000000 ) ) ;
#494 =( BOUNDED_CURVE ( )  B_SPLINE_CURVE ( 3, ( #614, #178, #375, #561 ),
 .UNSPECIFIED., .F., .T. ) 
 B_SPLINE_CURVE_WITH_KNOTS ( ( 4, 4 ),
 ( 5.491583532820256686, 7.074787081538913114 ),
 .UNSPECIFIED. ) 
 CURVE ( )  GEOMETRIC_REPRESENTATION_ITEM ( )  RATIONAL_B_SPLINE_CURVE ( ( 1.000000000000000000, 0.8018043917065625914, 0.8018043917065625914, 1.000000000000000000 ) ) 
 REPRESENTATION_ITEM ( '' )  );
#495 = ORIENTED_EDGE ( 'NONE', *, *, #74, .T. ) ;
#496 = VECTOR ( 'NONE', #4, 1000.000000000000000 ) ;
#497 = EDGE_CURVE ( 'NONE', #192, #584, #71, .T. ) ;
#498 = DIRECTION ( 'NONE',  ( 0.000000000000000000, -1.000000000000000000, 0.000000000000000000 ) ) ;
#499 = ORIENTED_EDGE ( 'NONE', *, *, #405, .T. ) ;
#500 = DIRECTION ( 'NONE',  ( 0.000000000000000000, -0.000000000000000000, 1.000000000000000000 ) ) ;
#501 = CARTESIAN_POINT ( 'NONE',  ( 4.000000000000005329, 20.00000000000000355, 80.00000000000000000 ) ) ;
#502 =( LENGTH_UNIT ( ) NAMED_UNIT ( * ) SI_UNIT ( .MILLI., .METRE. ) );
#503 = DIRECTION ( 'NONE',  ( 1.000000000000000000, -0.000000000000000000, -0.000000000000000000 ) ) ;
#504 = EDGE_CURVE ( 'NONE', #481, #234, #548, .T. ) ;
#505 = VECTOR ( 'NONE', #172, 1000.000000000000000 ) ;
#506 = CARTESIAN_POINT ( 'NONE',  ( 5.455880937064810254, 24.00000000000000355, 57.16044287021076542 ) ) ;
#507 = CARTESIAN_POINT ( 'NONE',  ( 0.000000000000000000, 24.00000000000000355, 0.000000000000000000 ) ) ;
#508 = AXIS2_PLACEMENT_3D ( 'NONE', #361, #304, #500 ) ;
#509 = CARTESIAN_POINT ( 'NONE',  ( 4.000000000000009770, 20.00000000000000355, 80.00000000000000000 ) ) ;
#510 = CARTESIAN_POINT ( 'NONE',  ( 5.455880937064810254, 24.00000000000000000, 62.16044287021082226 ) ) ;
#511 = DIRECTION ( 'NONE',  ( 0.000000000000000000, 1.000000000000000000, 0.000000000000000000 ) ) ;
#512 = ADVANCED_FACE ( 'NONE', ( #263 ), #412, .F. ) ;
#513 = LINE ( 'NONE', #559, #349 ) ;
#514 = DIRECTION ( 'NONE',  ( 0.000000000000000000, 0.3420201433256688794, 0.9396926207859084279 ) ) ;
#515 = DIRECTION ( 'NONE',  ( 0.000000000000000000, 0.9396926207859083169, 0.3420201433256688794 ) ) ;
#516 = STYLED_ITEM ( 'NONE', ( #57 ), #450 ) ;
#517 = DIRECTION ( 'NONE',  ( 0.000000000000000000, -0.000000000000000000, 1.000000000000000000 ) ) ;
#518 = ADVANCED_FACE ( 'NONE', ( #425 ), #222, .T. ) ;
#519 = FACE_OUTER_BOUND ( 'NONE', #70, .T. ) ;
#520 = ORIENTED_EDGE ( 'NONE', *, *, #206, .F. ) ;
#521 = EDGE_CURVE ( 'NONE', #233, #294, #415, .T. ) ;
#522 = DIRECTION ( 'NONE',  ( -0.000000000000000000, -1.000000000000000000, -0.000000000000000000 ) ) ;
#523 = VERTEX_POINT ( 'NONE', #26 ) ;
#524 = ORIENTED_EDGE ( 'NONE', *, *, #318, .T. ) ;
#525 = AXIS2_PLACEMENT_3D ( 'NONE', #393, #482, #476 ) ;
#526 = LINE ( 'NONE', #528, #6 ) ;
#527 = ORIENTED_EDGE ( 'NONE', *, *, #578, .T. ) ;
#528 = CARTESIAN_POINT ( 'NONE',  ( 4.000000000000000000, 20.00000000000000355, 0.000000000000000000 ) ) ;
#529 = ORIENTED_EDGE ( 'NONE', *, *, #120, .F. ) ;
#530 = ORIENTED_EDGE ( 'NONE', *, *, #364, .F. ) ;
#531 = CARTESIAN_POINT ( 'NONE',  ( 9.544119062935187969, 24.00000000000000355, 5.682489389445238378E-16 ) ) ;
#532 =( BOUNDED_CURVE ( )  B_SPLINE_CURVE ( 3, ( #371, #414, #556, #510 ),
 .UNSPECIFIED., .F., .T. ) 
 B_SPLINE_CURVE_WITH_KNOTS ( ( 4, 4 ),
 ( 2.349990879230465790, 3.933194427949118666 ),
 .UNSPECIFIED. ) 
 CURVE ( )  GEOMETRIC_REPRESENTATION_ITEM ( )  RATIONAL_B_SPLINE_CURVE ( ( 1.000000000000000000, 0.8018043917065634796, 0.8018043917065634796, 1.000000000000000000 ) ) 
 REPRESENTATION_ITEM ( '' )  );
#533 = ORIENTED_EDGE ( 'NONE', *, *, #92, .T. ) ;
#534 = VERTEX_POINT ( 'NONE', #370 ) ;
#535 = AXIS2_PLACEMENT_3D ( 'NONE', #507, #35, #517 ) ;
#536 = LINE ( 'NONE', #153, #116 ) ;
#537 = CARTESIAN_POINT ( 'NONE',  ( 9.544119062935219944, 24.00000000000000355, 78.54411906293519507 ) ) ;
#538 = EDGE_CURVE ( 'NONE', #192, #238, #363, .T. ) ;
#539 = EDGE_CURVE ( 'NONE', #385, #58, #552, .T. ) ;
#540 = ORIENTED_EDGE ( 'NONE', *, *, #521, .T. ) ;
#541 = PLANE ( 'NONE',  #508 ) ;
#542 = DIRECTION ( 'NONE',  ( -1.000000000000000000, 0.000000000000000000, -0.000000000000000000 ) ) ;
#543 = ORIENTED_EDGE ( 'NONE', *, *, #475, .T. ) ;
#544 = EDGE_CURVE ( 'NONE', #567, #446, #37, .T. ) ;
#545 = LINE ( 'NONE', #106, #430 ) ;
#546 = LINE ( 'NONE', #603, #467 ) ;
#547 = AXIS2_PLACEMENT_3D ( 'NONE', #177, #374, #560 ) ;
#548 = LINE ( 'NONE', #615, #324 ) ;
#549 = DIRECTION ( 'NONE',  ( -1.000000000000000000, 0.000000000000000000, 0.000000000000000000 ) ) ;
#550 = SURFACE_STYLE_USAGE ( .BOTH. , #353 ) ;
#551 = CARTESIAN_POINT ( 'NONE',  ( 11.00000000000001421, 20.00000000000000355, 80.00000000000000000 ) ) ;
#552 = LINE ( 'NONE', #555, #399 ) ;
#553 = CARTESIAN_POINT ( 'NONE',  ( 4.000000000000005329, 20.00000000000000355, 0.000000000000000000 ) ) ;
#554 = APPLICATION_CONTEXT ( 'automotive_design' ) ;
#555 = CARTESIAN_POINT ( 'NONE',  ( 0.000000000000000000, 24.00000000000000355, 22.83955712978900365 ) ) ;
#556 = CARTESIAN_POINT ( 'NONE',  ( 4.230358497302921350, 20.63290476971926068, 65.48601883945259772 ) ) ;
#557 = EDGE_CURVE ( 'NONE', #9, #51, #416, .T. ) ;
#558 = DIRECTION ( 'NONE',  ( -0.000000000000000000, -0.000000000000000000, -1.000000000000000000 ) ) ;
#559 = CARTESIAN_POINT ( 'NONE',  ( 0.000000000000000000, 24.00000000000000355, 45.77676667748637129 ) ) ;
#560 = DIRECTION ( 'NONE',  ( -1.000000000000000000, 0.000000000000000000, -0.000000000000000000 ) ) ;
#561 = CARTESIAN_POINT ( 'NONE',  ( 9.544119062935219944, 24.00000000000000355, 17.83955712978920261 ) ) ;
#562 = ORIENTED_EDGE ( 'NONE', *, *, #227, .T. ) ;
#563 = CARTESIAN_POINT ( 'NONE',  ( 10.76964150269711062, 20.63290476971926424, 70.21854309369342673 ) ) ;
#564 = DIRECTION ( 'NONE',  ( 0.000000000000000000, 1.000000000000000000, 0.000000000000000000 ) ) ;
#565 = AXIS2_PLACEMENT_3D ( 'NONE', #453, #596, #305 ) ;
#566 = AXIS2_PLACEMENT_3D ( 'NONE', #276, #174, #422 ) ;
#567 = VERTEX_POINT ( 'NONE', #125 ) ;
#568 = CARTESIAN_POINT ( 'NONE',  ( 5.455880937064810254, 24.00000000000000355, -1.736316202330488655E-16 ) ) ;
#569 = ORIENTED_EDGE ( 'NONE', *, *, #538, .T. ) ;
#570 = ORIENTED_EDGE ( 'NONE', *, *, #491, .F. ) ;
#571 = DIRECTION ( 'NONE',  ( -3.903127820947816455E-16, 0.000000000000000000, -1.000000000000000000 ) ) ;
#572 = ORIENTED_EDGE ( 'NONE', *, *, #351, .F. ) ;
#573 = DIRECTION ( 'NONE',  ( 0.000000000000000000, -0.000000000000000000, 1.000000000000000000 ) ) ;
#574 = ORIENTED_EDGE ( 'NONE', *, *, #336, .T. ) ;
#575 = AXIS2_PLACEMENT_3D ( 'NONE', #168, #164, #308 ) ;
#576 = VECTOR ( 'NONE', #558, 1000.000000000000000 ) ;
#577 = ORIENTED_EDGE ( 'NONE', *, *, #273, .F. ) ;
#578 = EDGE_CURVE ( 'NONE', #286, #343, #218, .T. ) ;
#579 = DIRECTION ( 'NONE',  ( -3.903127820947816455E-16, 0.000000000000000000, -1.000000000000000000 ) ) ;
#580 = ORIENTED_EDGE ( 'NONE', *, *, #417, .F. ) ;
#581 = CARTESIAN_POINT ( 'NONE',  ( 0.000000000000000000, 24.00000000000000355, 57.16044287021074410 ) ) ;
#582 = ORIENTED_EDGE ( 'NONE', *, *, #230, .T. ) ;
#583 =( BOUNDED_CURVE ( )  B_SPLINE_CURVE ( 3, ( #49, #134, #193, #620 ),
 .UNSPECIFIED., .F., .T. ) 
 B_SPLINE_CURVE_WITH_KNOTS ( ( 4, 4 ),
 ( 2.349990879230464458, 3.933194427949120886 ),
 .UNSPECIFIED. ) 
 CURVE ( )  GEOMETRIC_REPRESENTATION_ITEM ( )  RATIONAL_B_SPLINE_CURVE ( ( 1.000000000000000000, 0.8018043917065625914, 0.8018043917065625914, 1.000000000000000000 ) ) 
 REPRESENTATION_ITEM ( '' )  );
#584 = VERTEX_POINT ( 'NONE', #79 ) ;
#585 = EDGE_CURVE ( 'NONE', #51, #36, #319, .T. ) ;
#586 = CARTESIAN_POINT ( 'NONE',  ( 0.000000000000000000, 20.00000000000000355, 0.000000000000000000 ) ) ;
#587 = ADVANCED_FACE ( 'NONE', ( #83 ), #463, .F. ) ;
#588 = CARTESIAN_POINT ( 'NONE',  ( 5.455880937064810254, 24.00000000000000000, 22.83955712978901076 ) ) ;
#589 = ORIENTED_EDGE ( 'NONE', *, *, #600, .T. ) ;
#590 = VECTOR ( 'NONE', #124, 1000.000000000000000 ) ;
#591 = AXIS2_PLACEMENT_3D ( 'NONE', #149, #345, #93 ) ;
#592 = PLANE ( 'NONE',  #309 ) ;
#593 = LINE ( 'NONE', #354, #447 ) ;
#594 = ORIENTED_EDGE ( 'NONE', *, *, #432, .F. ) ;
#595 = CARTESIAN_POINT ( 'NONE',  ( 9.544119062935189746, 24.00000000000000355, 6.455880937064818248 ) ) ;
#596 = DIRECTION ( 'NONE',  ( 0.000000000000000000, -1.000000000000000000, 0.000000000000000000 ) ) ;
#597 = VERTEX_POINT ( 'NONE', #267 ) ;
#598 = CARTESIAN_POINT ( 'NONE',  ( 5.455880937064810254, 23.99999999999999289, 45.77676667748638550 ) ) ;
#599 = ORIENTED_EDGE ( 'NONE', *, *, #96, .T. ) ;
#600 = EDGE_CURVE ( 'NONE', #152, #111, #488, .T. ) ;
#601 = VECTOR ( 'NONE', #359, 1000.000000000000000 ) ;
#602 = FILL_AREA_STYLE_COLOUR ( '', #231 ) ;
#603 = CARTESIAN_POINT ( 'NONE',  ( 0.000000000000000000, 24.00000000000000355, 17.83955712978920616 ) ) ;
#604 = CARTESIAN_POINT ( 'NONE',  ( 4.230358497302913356, 20.63290476971923582, 49.10234264672816096 ) ) ;
#605 = FACE_OUTER_BOUND ( 'NONE', #621, .T. ) ;
#606 = CARTESIAN_POINT ( 'NONE',  ( 4.000000000000009770, 24.00000000000000355, 78.54411906293519507 ) ) ;
#607 = CARTESIAN_POINT ( 'NONE',  ( 10.76964150269711240, 20.63290476971922516, 30.89765735327165075 ) ) ;
#608 = ADVANCED_FACE ( 'NONE', ( #179 ), #613, .T. ) ;
#609 = DIRECTION ( 'NONE',  ( -1.000000000000000000, 0.000000000000000000, 0.000000000000000000 ) ) ;
#610 = VECTOR ( 'NONE', #52, 1000.000000000000000 ) ;
#611 = CYLINDRICAL_SURFACE ( 'NONE', #84, 8.000000000000000000 ) ;
#612 = EDGE_CURVE ( 'NONE', #246, #477, #127, .T. ) ;
#613 = PLANE ( 'NONE',  #547 ) ;
#614 = CARTESIAN_POINT ( 'NONE',  ( 9.544119062935189746, 24.00000000000000355, 6.455880937064818248 ) ) ;
#615 = CARTESIAN_POINT ( 'NONE',  ( 15.00000000000000000, 0.000000000000000000, 0.000000000000000000 ) ) ;
#616 = CARTESIAN_POINT ( 'NONE',  ( 15.00000000000000000, 0.000000000000000000, 80.00000000000000000 ) ) ;
#617 = LINE ( 'NONE', #531, #182 ) ;
#618 = VECTOR ( 'NONE', #327, 1000.000000000000000 ) ;
#619 = ORIENTED_EDGE ( 'NONE', *, *, #220, .T. ) ;
#620 = CARTESIAN_POINT ( 'NONE',  ( 5.455880937064810254, 24.00000000000000000, 6.455880937064819136 ) ) ;
#621 = EDGE_LOOP ( 'NONE', ( #144, #398, #137, #248 ) ) ;
ENDSEC;
END-ISO-10303-21;
