# Blender 4.4.0
# www.blender.org
mtllib Rl4i.mtl
o Rl4i
v 0.000000 0.000000 80.000000
v 0.000000 20.000000 80.000000
v 0.000000 10.000000 75.000000
v 0.000000 8.086582 74.619400
v 0.000000 6.464466 73.535530
v 0.000000 5.380602 71.913414
v 0.000000 0.000000 0.000000
v 0.000000 6.464466 51.464466
v 0.000000 8.086582 50.380604
v 0.000000 5.000000 0.000000
v 0.000000 10.000000 50.000000
v 0.000000 20.000000 14.759194
v 0.000000 11.913417 50.380604
v 0.000000 13.535534 51.464466
v 0.000000 14.619398 71.913414
v 0.000000 13.535534 73.535530
v 0.000000 11.913417 74.619400
v 0.000000 5.000000 70.000000
v 0.000000 5.000000 55.000000
v 0.000000 5.380602 53.086582
v 0.000000 14.619398 53.086582
v 0.000000 15.000000 55.000000
v 0.000000 15.000000 70.000000
v 15.000000 0.000000 80.000000
v 15.000000 0.000000 0.000000
v 15.000000 20.000000 14.759194
v 15.000000 13.535534 51.464466
v 15.000000 11.913417 50.380604
v 15.000000 5.000000 0.000000
v 15.000000 10.000000 50.000000
v 15.000000 8.086582 50.380604
v 15.000000 6.464466 51.464466
v 15.000000 5.380602 71.913414
v 15.000000 6.464466 73.535530
v 15.000000 13.535534 73.535530
v 15.000000 14.619398 71.913414
v 15.000000 20.000000 80.000000
v 15.000000 8.086582 74.619400
v 15.000000 10.000000 75.000000
v 15.000000 11.913417 74.619400
v 15.000000 5.380602 53.086582
v 15.000000 5.000000 55.000000
v 15.000000 5.000000 70.000000
v 15.000000 15.000000 70.000000
v 15.000000 15.000000 55.000000
v 15.000000 14.619398 53.086582
v 15.000000 5.000000 -0.000000
v 0.000000 5.000000 -0.000000
v 0.000000 20.000000 14.759194
vn -1.0000 -0.0000 -0.0000
vn -0.0000 -1.0000 -0.0000
vn 1.0000 -0.0000 -0.0000
vn -0.0000 1.0000 -0.0000
vn -0.0000 -0.0000 1.0000
vn -0.0000 -0.0000 -1.0000
vn -0.0000 -0.9808 -0.1951
vn -0.0000 -0.8315 -0.5556
vn -0.0000 -0.5556 -0.8315
vn -0.0000 -0.1951 -0.9808
vn -0.0000 0.1951 -0.9808
vn -0.0000 0.5556 -0.8315
vn -0.0000 0.8315 -0.5556
vn -0.0000 0.9808 -0.1951
vn -0.0000 0.9808 0.1951
vn -0.0000 0.8315 0.5556
vn -0.0000 0.5556 0.8315
vn -0.0000 0.1951 0.9808
vn -0.0000 -0.1951 0.9808
vn -0.0000 -0.5556 0.8315
vn -0.0000 -0.8315 0.5556
vn -0.0000 -0.9808 0.1951
vn -0.0000 0.7014 -0.7128
s 0
f 1//1 2//1 3//1
f 3//1 4//1 1//1
f 1//1 4//1 5//1
f 1//1 5//1 6//1
f 7//1 8//1 9//1
f 7//1 9//1 10//1
f 10//1 9//1 11//1
f 10//1 11//1 12//1
f 12//1 11//1 13//1
f 12//1 13//1 14//1
f 15//1 16//1 2//1
f 2//1 16//1 17//1
f 2//1 17//1 3//1
f 6//1 18//1 1//1
f 1//1 18//1 19//1
f 1//1 19//1 7//1
f 7//1 19//1 20//1
f 7//1 20//1 8//1
f 14//1 21//1 12//1
f 12//1 21//1 22//1
f 12//1 22//1 2//1
f 2//1 22//1 23//1
f 2//1 23//1 15//1
f 24//2 1//2 25//2
f 25//2 1//2 7//2
f 26//3 27//3 28//3
f 26//3 28//3 29//3
f 29//3 28//3 30//3
f 29//3 30//3 25//3
f 25//3 30//3 31//3
f 25//3 31//3 32//3
f 33//3 34//3 24//3
f 35//3 36//3 37//3
f 34//3 38//3 24//3
f 24//3 38//3 39//3
f 24//3 39//3 37//3
f 37//3 39//3 40//3
f 37//3 40//3 35//3
f 32//3 41//3 25//3
f 25//3 41//3 42//3
f 25//3 42//3 24//3
f 24//3 42//3 43//3
f 24//3 43//3 33//3
f 36//3 44//3 37//3
f 37//3 44//3 45//3
f 37//3 45//3 26//3
f 26//3 45//3 46//3
f 26//3 46//3 27//3
f 12//4 2//4 26//4
f 26//4 2//4 37//4
f 24//5 37//5 1//5
f 1//5 37//5 2//5
f 25//6 7//6 29//6
f 29//6 7//6 10//6
f 23//7 44//7 15//7
f 15//7 44//7 36//7
f 15//8 36//8 16//8
f 16//8 36//8 35//8
f 16//9 35//9 17//9
f 17//9 35//9 40//9
f 17//10 40//10 3//10
f 3//10 40//10 39//10
f 3//11 39//11 4//11
f 4//11 39//11 38//11
f 4//12 38//12 5//12
f 5//12 38//12 34//12
f 5//13 34//13 6//13
f 6//13 34//13 33//13
f 6//14 33//14 18//14
f 18//14 33//14 43//14
f 44//2 23//2 45//2
f 45//2 23//2 22//2
f 19//15 42//15 20//15
f 20//15 42//15 41//15
f 20//16 41//16 8//16
f 8//16 41//16 32//16
f 8//17 32//17 9//17
f 9//17 32//17 31//17
f 9//18 31//18 11//18
f 11//18 31//18 30//18
f 11//19 30//19 13//19
f 13//19 30//19 28//19
f 13//20 28//20 14//20
f 14//20 28//20 27//20
f 14//21 27//21 21//21
f 21//21 27//21 46//21
f 21//22 46//22 22//22
f 22//22 46//22 45//22
f 42//4 19//4 43//4
f 43//4 19//4 18//4
f 47//23 48//23 26//23
f 26//23 48//23 49//23
