# https://github.com/mikedh/trimesh
v 0.00000000 0.00000000 80.00000000
v 0.00000000 20.00000000 80.00000000
v 0.00000000 0.00000000 0.00000000
v 0.00000000 5.00000000 0.00000000
v 0.00000000 20.00000000 14.75919400
v 15.00000000 0.00000000 80.00000000
v 15.00000000 0.00000000 0.00000000
v 15.00000000 20.00000000 14.75919400
v 15.00000000 5.00000000 0.00000000
v 15.00000000 20.00000000 80.00000000
f 10 2 1
f 10 6 1
f 7 6 1
f 7 3 1
f 5 10 2
f 5 10 8
f 9 10 6
f 9 7 6
f 9 10 8
f 4 2 1
f 4 3 1
f 4 5 2
f 4 7 3
f 4 9 7
f 4 5 8
f 4 9 8

