ISO-10303-21;
HEADER;
FILE_DESCRIPTION (( 'STEP AP214' ),
    '1' );
FILE_NAME ('Rl4i.STEP',
    '2025-09-08T13:02:50',
    ( '' ),
    ( '' ),
    'SwSTEP 2.0',
    'SolidWorks 2024',
    '' );
FILE_SCHEMA (( 'AUTOMOTIVE_DESIGN' ));
ENDSEC;

DATA;
#1 = CARTESIAN_POINT ( 'NONE',  ( 0.000000000000000000, 0.000000000000000000, 80.00000000000000000 ) ) ;
#2 = VERTEX_POINT ( 'NONE', #93 ) ;
#3 = EDGE_CURVE ( 'NONE', #247, #87, #372, .T. ) ;
#4 = CARTESIAN_POINT ( 'NONE',  ( -5.000000000000000888, 9.999999999999998224, 55.00000000000000711 ) ) ;
#5 = DIRECTION ( 'NONE',  ( 0.000000000000000000, 0.000000000000000000, -1.000000000000000000 ) ) ;
#6 = ORIENTED_EDGE ( 'NONE', *, *, #45, .T. ) ;
#7 = VECTOR ( 'NONE', #384, 1000.000000000000000 ) ;
#8 = EDGE_LOOP ( 'NONE', ( #299, #294, #21, #142, #385 ) ) ;
#9 = CARTESIAN_POINT ( 'NONE',  ( 0.000000000000000000, 0.000000000000000000, 0.000000000000000000 ) ) ;
#10 = VECTOR ( 'NONE', #197, 1000.000000000000000 ) ;
#11 = CIRCLE ( 'NONE', #233, 4.999999999999997335 ) ;
#12 = LINE ( 'NONE', #347, #92 ) ;
#13 = DIRECTION ( 'NONE',  ( 0.000000000000000000, 0.000000000000000000, -1.000000000000000000 ) ) ;
#14 = ADVANCED_FACE ( 'NONE', ( #156 ), #30, .F. ) ;
#15 = CARTESIAN_POINT ( 'NONE',  ( 0.000000000000000000, 15.00000000000000000, 70.00000000000000000 ) ) ;
#16 = DIRECTION ( 'NONE',  ( 1.000000000000000000, 0.000000000000000000, 0.000000000000000000 ) ) ;
#17 = LINE ( 'NONE', #108, #143 ) ;
#18 = ORIENTED_EDGE ( 'NONE', *, *, #69, .F. ) ;
#19 =( NAMED_UNIT ( * ) SI_UNIT ( $, .STERADIAN. ) SOLID_ANGLE_UNIT ( ) );
#20 = UNCERTAINTY_MEASURE_WITH_UNIT (LENGTH_MEASURE( 1.000000000000000082E-05 ), #57, 'distance_accuracy_value', 'NONE');
#21 = ORIENTED_EDGE ( 'NONE', *, *, #69, .T. ) ;
#22 = CARTESIAN_POINT ( 'NONE',  ( 0.000000000000000000, 0.000000000000000000, 80.00000000000000000 ) ) ;
#23 = ORIENTED_EDGE ( 'NONE', *, *, #222, .F. ) ;
#24 = CARTESIAN_POINT ( 'NONE',  ( 15.00000000000000000, 10.00000000000000000, 70.00000000000000000 ) ) ;
#25 = EDGE_CURVE ( 'NONE', #125, #85, #373, .T. ) ;
#26 = EDGE_LOOP ( 'NONE', ( #330, #215, #275, #239 ) ) ;
#27 = FACE_BOUND ( 'NONE', #198, .T. ) ;
#28 = VECTOR ( 'NONE', #172, 1000.000000000000000 ) ;
#29 = AXIS2_PLACEMENT_3D ( 'NONE', #175, #204, #365 ) ;
#30 = PLANE ( 'NONE',  #355 ) ;
#31 = CARTESIAN_POINT ( 'NONE',  ( 0.000000000000000000, 0.000000000000000000, 0.000000000000000000 ) ) ;
#32 = CARTESIAN_POINT ( 'NONE',  ( 0.000000000000000000, 20.00000000000000355, 14.75919426293088854 ) ) ;
#33 = EDGE_CURVE ( 'NONE', #87, #310, #344, .T. ) ;
#34 = VERTEX_POINT ( 'NONE', #67 ) ;
#35 = DIRECTION ( 'NONE',  ( 0.000000000000000000, 0.000000000000000000, -1.000000000000000000 ) ) ;
#36 = CARTESIAN_POINT ( 'NONE',  ( 0.000000000000000000, 5.000000000000000888, 70.00000000000000000 ) ) ;
#37 = ORIENTED_EDGE ( 'NONE', *, *, #160, .T. ) ;
#38 = CARTESIAN_POINT ( 'NONE',  ( -5.000000000000000888, 20.00000000000000355, 14.75919426293088854 ) ) ;
#39 = VECTOR ( 'NONE', #279, 1000.000000000000000 ) ;
#40 = VECTOR ( 'NONE', #46, 1000.000000000000000 ) ;
#41 = CARTESIAN_POINT ( 'NONE',  ( 0.000000000000000000, 0.000000000000000000, 0.000000000000000000 ) ) ;
#42 = LINE ( 'NONE', #324, #39 ) ;
#43 = AXIS2_PLACEMENT_3D ( 'NONE', #241, #86, #211 ) ;
#44 = LINE ( 'NONE', #149, #186 ) ;
#45 = EDGE_CURVE ( 'NONE', #83, #184, #47, .T. ) ;
#46 = DIRECTION ( 'NONE',  ( -1.000000000000000000, -0.000000000000000000, -0.000000000000000000 ) ) ;
#47 = LINE ( 'NONE', #314, #325 ) ;
#48 = AXIS2_PLACEMENT_3D ( 'NONE', #71, #152, #254 ) ;
#49 = CARTESIAN_POINT ( 'NONE',  ( 15.00000000000000000, 0.000000000000000000, 80.00000000000000000 ) ) ;
#50 = EDGE_LOOP ( 'NONE', ( #234, #217, #244, #60 ) ) ;
#51 = LINE ( 'NONE', #199, #393 ) ;
#52 = EDGE_CURVE ( 'NONE', #85, #343, #374, .T. ) ;
#53 = ORIENTED_EDGE ( 'NONE', *, *, #200, .T. ) ;
#54 = CARTESIAN_POINT ( 'NONE',  ( -5.000000000000000888, 20.00000000000000355, 14.75919426293088854 ) ) ;
#55 = AXIS2_PLACEMENT_3D ( 'NONE', #320, #285, #313 ) ;
#56 = ORIENTED_EDGE ( 'NONE', *, *, #225, .T. ) ;
#57 =( LENGTH_UNIT ( ) NAMED_UNIT ( * ) SI_UNIT ( .MILLI., .METRE. ) );
#58 = EDGE_LOOP ( 'NONE', ( #110, #140, #150, #388 ) ) ;
#59 = DIRECTION ( 'NONE',  ( 1.000000000000000000, -0.000000000000000000, -0.000000000000000000 ) ) ;
#60 = ORIENTED_EDGE ( 'NONE', *, *, #350, .T. ) ;
#61 = DIRECTION ( 'NONE',  ( 0.000000000000000000, 0.000000000000000000, -1.000000000000000000 ) ) ;
#62 = ORIENTED_EDGE ( 'NONE', *, *, #90, .F. ) ;
#63 = DIRECTION ( 'NONE',  ( 0.000000000000000000, -0.000000000000000000, 1.000000000000000000 ) ) ;
#64 = ORIENTED_EDGE ( 'NONE', *, *, #334, .F. ) ;
#65 = PLANE ( 'NONE',  #240 ) ;
#66 = ORIENTED_EDGE ( 'NONE', *, *, #311, .F. ) ;
#67 = CARTESIAN_POINT ( 'NONE',  ( 15.00000000000000000, 4.999999999999999112, 55.00000000000000711 ) ) ;
#68 = CIRCLE ( 'NONE', #296, 4.999999999999997335 ) ;
#69 = EDGE_CURVE ( 'NONE', #340, #395, #345, .T. ) ;
#70 = DIRECTION ( 'NONE',  ( -0.000000000000000000, -0.000000000000000000, -1.000000000000000000 ) ) ;
#71 = CARTESIAN_POINT ( 'NONE',  ( 0.000000000000000000, 20.00000000000000355, 80.00000000000000000 ) ) ;
#72 = AXIS2_PLACEMENT_3D ( 'NONE', #1, #281, #223 ) ;
#73 = DIRECTION ( 'NONE',  ( 0.000000000000000000, 0.000000000000000000, -1.000000000000000000 ) ) ;
#74 = CARTESIAN_POINT ( 'NONE',  ( 0.000000000000000000, 0.000000000000000000, 80.00000000000000000 ) ) ;
#75 = PRESENTATION_STYLE_ASSIGNMENT (( #236 ) ) ;
#76 = CARTESIAN_POINT ( 'NONE',  ( -5.000000000000000888, 5.000000000000000888, 70.00000000000000000 ) ) ;
#77 = EDGE_CURVE ( 'NONE', #125, #153, #134, .T. ) ;
#78 = DIRECTION ( 'NONE',  ( 1.000000000000000000, -0.000000000000000000, -0.000000000000000000 ) ) ;
#79 = ORIENTED_EDGE ( 'NONE', *, *, #3, .F. ) ;
#80 = ORIENTED_EDGE ( 'NONE', *, *, #52, .T. ) ;
#81 = DIRECTION ( 'NONE',  ( 0.000000000000000000, 0.000000000000000000, -1.000000000000000000 ) ) ;
#82 = EDGE_CURVE ( 'NONE', #300, #395, #129, .T. ) ;
#83 = VERTEX_POINT ( 'NONE', #49 ) ;
#84 = APPLICATION_PROTOCOL_DEFINITION ( 'draft international standard', 'automotive_design', 1998, #127 ) ;
#85 = VERTEX_POINT ( 'NONE', #15 ) ;
#86 = DIRECTION ( 'NONE',  ( 0.000000000000000000, 0.000000000000000000, 1.000000000000000000 ) ) ;
#87 = VERTEX_POINT ( 'NONE', #256 ) ;
#88 = CARTESIAN_POINT ( 'NONE',  ( -5.000000000000000888, 4.999999999999999112, 55.00000000000000711 ) ) ;
#89 = EDGE_LOOP ( 'NONE', ( #173, #176, #277, #79 ) ) ;
#90 = EDGE_CURVE ( 'NONE', #369, #292, #42, .T. ) ;
#91 = FACE_OUTER_BOUND ( 'NONE', #390, .T. ) ;
#92 = VECTOR ( 'NONE', #131, 1000.000000000000000 ) ;
#93 = CARTESIAN_POINT ( 'NONE',  ( 0.000000000000000000, 20.00000000000000355, 80.00000000000000000 ) ) ;
#94 = CARTESIAN_POINT ( 'NONE',  ( -5.000000000000000888, 10.00000000000000000, 70.00000000000000000 ) ) ;
#95 = DIRECTION ( 'NONE',  ( 0.000000000000000000, 0.000000000000000000, -1.000000000000000000 ) ) ;
#96 = ADVANCED_FACE ( 'NONE', ( #158 ), #166, .T. ) ;
#97 = DIRECTION ( 'NONE',  ( 0.000000000000000000, 0.000000000000000000, 1.000000000000000000 ) ) ;
#98 = CARTESIAN_POINT ( 'NONE',  ( -5.000000000000000888, 15.00000000000000000, 55.00000000000000711 ) ) ;
#99 = EDGE_CURVE ( 'NONE', #395, #184, #105, .T. ) ;
#100 = LINE ( 'NONE', #368, #226 ) ;
#101 = DIRECTION ( 'NONE',  ( 0.000000000000000000, 1.000000000000000000, 0.000000000000000000 ) ) ;
#102 = VECTOR ( 'NONE', #209, 1000.000000000000000 ) ;
#103 = AXIS2_PLACEMENT_3D ( 'NONE', #202, #16, #258 ) ;
#104 = DIRECTION ( 'NONE',  ( 0.000000000000000000, 0.000000000000000000, -1.000000000000000000 ) ) ;
#105 = LINE ( 'NONE', #349, #387 ) ;
#106 = UNCERTAINTY_MEASURE_WITH_UNIT (LENGTH_MEASURE( 1.000000000000000082E-05 ), #289, 'distance_accuracy_value', 'NONE');
#107 = DIRECTION ( 'NONE',  ( 1.000000000000000000, -0.000000000000000000, -0.000000000000000000 ) ) ;
#108 = CARTESIAN_POINT ( 'NONE',  ( 0.000000000000000000, 42.45430575264539641, 36.85302497243355901 ) ) ;
#109 = ADVANCED_FACE ( 'NONE', ( #196 ), #157, .F. ) ;
#110 = ORIENTED_EDGE ( 'NONE', *, *, #90, .T. ) ;
#111 = DIRECTION ( 'NONE',  ( -0.000000000000000000, -0.000000000000000000, 1.000000000000000000 ) ) ;
#112 = ORIENTED_EDGE ( 'NONE', *, *, #45, .F. ) ;
#113 = LINE ( 'NONE', #318, #40 ) ;
#114 = EDGE_CURVE ( 'NONE', #170, #340, #17, .T. ) ;
#115 = ORIENTED_EDGE ( 'NONE', *, *, #392, .T. ) ;
#116 = ORIENTED_EDGE ( 'NONE', *, *, #33, .T. ) ;
#117 = APPLICATION_PROTOCOL_DEFINITION ( 'draft international standard', 'automotive_design', 1998, #237 ) ;
#118 = ORIENTED_EDGE ( 'NONE', *, *, #321, .F. ) ;
#119 = CARTESIAN_POINT ( 'NONE',  ( 0.000000000000000000, 0.000000000000000000, 80.00000000000000000 ) ) ;
#120 = EDGE_CURVE ( 'NONE', #247, #331, #352, .T. ) ;
#121 = ORIENTED_EDGE ( 'NONE', *, *, #154, .F. ) ;
#122 = CARTESIAN_POINT ( 'NONE',  ( 15.00000000000000000, 20.00000000000000355, 14.75919426293088854 ) ) ;
#123 = ORIENTED_EDGE ( 'NONE', *, *, #392, .F. ) ;
#124 = PRODUCT_DEFINITION_FORMATION_WITH_SPECIFIED_SOURCE ( 'ANY', '', #312, .NOT_KNOWN. ) ;
#125 = VERTEX_POINT ( 'NONE', #169 ) ;
#126 = ADVANCED_FACE ( 'NONE', ( #291 ), #339, .F. ) ;
#127 = APPLICATION_CONTEXT ( 'automotive_design' ) ;
#128 = DIRECTION ( 'NONE',  ( 0.000000000000000000, -0.7013620463689451690, 0.7128052187752034197 ) ) ;
#129 = LINE ( 'NONE', #74, #370 ) ;
#130 = EDGE_CURVE ( 'NONE', #331, #34, #44, .T. ) ;
#131 = DIRECTION ( 'NONE',  ( -1.000000000000000000, 0.000000000000000000, 0.000000000000000000 ) ) ;
#132 = DIRECTION ( 'NONE',  ( -0.000000000000000000, -1.000000000000000000, -0.000000000000000000 ) ) ;
#133 = CARTESIAN_POINT ( 'NONE',  ( -5.000000000000000888, 15.00000000000000000, 70.00000000000000000 ) ) ;
#134 = LINE ( 'NONE', #98, #7 ) ;
#135 = LINE ( 'NONE', #54, #251 ) ;
#136 = ORIENTED_EDGE ( 'NONE', *, *, #321, .T. ) ;
#137 = DIRECTION ( 'NONE',  ( 0.000000000000000000, 0.000000000000000000, 1.000000000000000000 ) ) ;
#138 = EDGE_LOOP ( 'NONE', ( #269, #123, #118, #353, #64 ) ) ;
#139 = PLANE ( 'NONE',  #379 ) ;
#140 = ORIENTED_EDGE ( 'NONE', *, *, #282, .F. ) ;
#141 = DIRECTION ( 'NONE',  ( 1.000000000000000000, 0.000000000000000000, 0.000000000000000000 ) ) ;
#142 = ORIENTED_EDGE ( 'NONE', *, *, #82, .F. ) ;
#143 = VECTOR ( 'NONE', #230, 1000.000000000000114 ) ;
#144 = ADVANCED_FACE ( 'NONE', ( #159 ), #65, .F. ) ;
#145 = PRESENTATION_LAYER_ASSIGNMENT (  '', '', ( #162 ) ) ;
#146 = CARTESIAN_POINT ( 'NONE',  ( 15.00000000000000000, 15.00000000000000000, 55.00000000000000711 ) ) ;
#147 = CARTESIAN_POINT ( 'NONE',  ( 0.000000000000000000, 15.00000000000000000, 80.00000000000000000 ) ) ;
#148 = SHAPE_DEFINITION_REPRESENTATION ( #249, #304 ) ;
#149 = CARTESIAN_POINT ( 'NONE',  ( 15.00000000000000000, 5.000000000000000888, 70.00000000000000000 ) ) ;
#150 = ORIENTED_EDGE ( 'NONE', *, *, #261, .F. ) ;
#151 =( NAMED_UNIT ( * ) PLANE_ANGLE_UNIT ( ) SI_UNIT ( $, .RADIAN. ) );
#152 = DIRECTION ( 'NONE',  ( 0.000000000000000000, -1.000000000000000000, 0.000000000000000000 ) ) ;
#153 = VERTEX_POINT ( 'NONE', #146 ) ;
#154 = EDGE_CURVE ( 'NONE', #273, #340, #12, .T. ) ;
#155 = VECTOR ( 'NONE', #224, 1000.000000000000000 ) ;
#156 = FACE_OUTER_BOUND ( 'NONE', #201, .T. ) ;
#157 = CYLINDRICAL_SURFACE ( 'NONE', #55, 4.999999999999997335 ) ;
#158 = FACE_OUTER_BOUND ( 'NONE', #268, .T. ) ;
#159 = FACE_OUTER_BOUND ( 'NONE', #361, .T. ) ;
#160 = EDGE_CURVE ( 'NONE', #310, #125, #68, .T. ) ;
#161 = VECTOR ( 'NONE', #97, 1000.000000000000000 ) ;
#162 = STYLED_ITEM ( 'NONE', ( #75 ), #267 ) ;
#163 = CARTESIAN_POINT ( 'NONE',  ( 15.00000000000000000, 0.000000000000000000, 80.00000000000000000 ) ) ;
#164 = FACE_OUTER_BOUND ( 'NONE', #246, .T. ) ;
#165 = EDGE_CURVE ( 'NONE', #2, #300, #305, .T. ) ;
#166 = PLANE ( 'NONE',  #303 ) ;
#167 = AXIS2_PLACEMENT_3D ( 'NONE', #271, #228, #250 ) ;
#168 = DIRECTION ( 'NONE',  ( -1.000000000000000000, 0.000000000000000000, -0.000000000000000000 ) ) ;
#169 = CARTESIAN_POINT ( 'NONE',  ( 0.000000000000000000, 15.00000000000000000, 55.00000000000000711 ) ) ;
#170 = VERTEX_POINT ( 'NONE', #32 ) ;
#171 = SURFACE_SIDE_STYLE ('',( #322 ) ) ;
#172 = DIRECTION ( 'NONE',  ( -0.000000000000000000, -0.000000000000000000, -1.000000000000000000 ) ) ;
#173 = ORIENTED_EDGE ( 'NONE', *, *, #120, .T. ) ;
#174 = VECTOR ( 'NONE', #243, 1000.000000000000114 ) ;
#175 = CARTESIAN_POINT ( 'NONE',  ( -5.000000000000000888, 5.000000000000000888, 70.00000000000000000 ) ) ;
#176 = ORIENTED_EDGE ( 'NONE', *, *, #130, .T. ) ;
#177 = EDGE_CURVE ( 'NONE', #85, #247, #286, .T. ) ;
#178 = ORIENTED_EDGE ( 'NONE', *, *, #334, .T. ) ;
#179 =( NAMED_UNIT ( * ) SI_UNIT ( $, .STERADIAN. ) SOLID_ANGLE_UNIT ( ) );
#180 = CARTESIAN_POINT ( 'NONE',  ( -5.000000000000000888, 15.00000000000000000, 70.00000000000000000 ) ) ;
#181 = ORIENTED_EDGE ( 'NONE', *, *, #253, .T. ) ;
#182 = CARTESIAN_POINT ( 'NONE',  ( 15.00000000000000000, 20.00000000000000355, 80.00000000000000000 ) ) ;
#183 = DIRECTION ( 'NONE',  ( 1.000000000000000000, 0.000000000000000000, 0.000000000000000000 ) ) ;
#184 = VERTEX_POINT ( 'NONE', #192 ) ;
#185 = VERTEX_POINT ( 'NONE', #375 ) ;
#186 = VECTOR ( 'NONE', #61, 1000.000000000000000 ) ;
#187 = CIRCLE ( 'NONE', #103, 4.999999999999997335 ) ;
#188 = DIRECTION ( 'NONE',  ( 1.000000000000000000, 0.000000000000000000, 0.000000000000000000 ) ) ;
#189 = DIRECTION ( 'NONE',  ( 1.000000000000000000, -0.000000000000000000, -0.000000000000000000 ) ) ;
#190 = DIRECTION ( 'NONE',  ( 1.000000000000000000, -0.000000000000000000, -0.000000000000000000 ) ) ;
#191 = ADVANCED_FACE ( 'NONE', ( #27, #270 ), #308, .F. ) ;
#192 = CARTESIAN_POINT ( 'NONE',  ( 15.00000000000000000, 0.000000000000000000, 0.000000000000000000 ) ) ;
#193 = DIRECTION ( 'NONE',  ( 1.000000000000000000, 0.000000000000000000, 0.000000000000000000 ) ) ;
#194 = ADVANCED_FACE ( 'NONE', ( #91 ), #316, .F. ) ;
#195 = CARTESIAN_POINT ( 'NONE',  ( 0.000000000000000000, 20.00000000000000355, 80.00000000000000000 ) ) ;
#196 = FACE_OUTER_BOUND ( 'NONE', #26, .T. ) ;
#197 = DIRECTION ( 'NONE',  ( 1.000000000000000000, -0.000000000000000000, -0.000000000000000000 ) ) ;
#198 = EDGE_LOOP ( 'NONE', ( #391, #207, #306, #116, #37 ) ) ;
#199 = CARTESIAN_POINT ( 'NONE',  ( 15.00000000000000000, 15.00000000000000000, 70.00000000000000000 ) ) ;
#200 = EDGE_CURVE ( 'NONE', #292, #273, #346, .T. ) ;
#201 = EDGE_LOOP ( 'NONE', ( #208, #53, #210, #332 ) ) ;
#202 = CARTESIAN_POINT ( 'NONE',  ( 15.00000000000000000, 9.999999999999998224, 55.00000000000000711 ) ) ;
#203 = ORIENTED_EDGE ( 'NONE', *, *, #213, .F. ) ;
#204 = DIRECTION ( 'NONE',  ( 0.000000000000000000, -1.000000000000000000, -0.000000000000000000 ) ) ;
#205 = VECTOR ( 'NONE', #78, 1000.000000000000000 ) ;
#206 = PRODUCT_RELATED_PRODUCT_CATEGORY ( 'part', '', ( #312 ) ) ;
#207 = ORIENTED_EDGE ( 'NONE', *, *, #177, .T. ) ;
#208 = ORIENTED_EDGE ( 'NONE', *, *, #282, .T. ) ;
#209 = DIRECTION ( 'NONE',  ( 1.000000000000000000, -0.000000000000000000, -0.000000000000000000 ) ) ;
#210 = ORIENTED_EDGE ( 'NONE', *, *, #154, .T. ) ;
#211 = DIRECTION ( 'NONE',  ( 1.000000000000000000, 0.000000000000000000, 0.000000000000000000 ) ) ;
#212 = VECTOR ( 'NONE', #221, 1000.000000000000000 ) ;
#213 = EDGE_CURVE ( 'NONE', #83, #369, #394, .T. ) ;
#214 = FACE_OUTER_BOUND ( 'NONE', #58, .T. ) ;
#215 = ORIENTED_EDGE ( 'NONE', *, *, #311, .T. ) ;
#216 = DIRECTION ( 'NONE',  ( 1.000000000000000000, 0.000000000000000000, 0.000000000000000000 ) ) ;
#217 = ORIENTED_EDGE ( 'NONE', *, *, #222, .T. ) ;
#218 = CARTESIAN_POINT ( 'NONE',  ( 0.000000000000000000, 5.000000000000000888, 80.00000000000000000 ) ) ;
#219 = VECTOR ( 'NONE', #132, 1000.000000000000000 ) ;
#220 = AXIS2_PLACEMENT_3D ( 'NONE', #229, #326, #137 ) ;
#221 = DIRECTION ( 'NONE',  ( -0.000000000000000000, -1.000000000000000000, -0.000000000000000000 ) ) ;
#222 = EDGE_CURVE ( 'NONE', #300, #83, #341, .T. ) ;
#223 = DIRECTION ( 'NONE',  ( 0.000000000000000000, -0.000000000000000000, 1.000000000000000000 ) ) ;
#224 = DIRECTION ( 'NONE',  ( 0.000000000000000000, 1.000000000000000000, 0.000000000000000000 ) ) ;
#225 = EDGE_CURVE ( 'NONE', #184, #273, #100, .T. ) ;
#226 = VECTOR ( 'NONE', #335, 1000.000000000000000 ) ;
#227 = CARTESIAN_POINT ( 'NONE',  ( 0.000000000000000000, 5.000000000000003553, 0.000000000000000000 ) ) ;
#228 = DIRECTION ( 'NONE',  ( 1.000000000000000000, 0.000000000000000000, 0.000000000000000000 ) ) ;
#229 = CARTESIAN_POINT ( 'NONE',  ( 15.00000000000000000, 0.000000000000000000, 80.00000000000000000 ) ) ;
#230 = DIRECTION ( 'NONE',  ( 0.000000000000000000, -0.7128052187752034197, -0.7013620463689451690 ) ) ;
#231 = LINE ( 'NONE', #351, #205 ) ;
#232 = AXIS2_PLACEMENT_3D ( 'NONE', #272, #193, #371 ) ;
#233 = AXIS2_PLACEMENT_3D ( 'NONE', #360, #263, #81 ) ;
#234 = ORIENTED_EDGE ( 'NONE', *, *, #165, .T. ) ;
#235 = CARTESIAN_POINT ( 'NONE',  ( 0.000000000000000000, 9.999999999999998224, 50.00000000000000711 ) ) ;
#236 = SURFACE_STYLE_USAGE ( .BOTH. , #171 ) ;
#237 = APPLICATION_CONTEXT ( 'automotive_design' ) ;
#238 = ADVANCED_FACE ( 'NONE', ( #214 ), #366, .F. ) ;
#239 = ORIENTED_EDGE ( 'NONE', *, *, #77, .F. ) ;
#240 = AXIS2_PLACEMENT_3D ( 'NONE', #180, #101, #63 ) ;
#241 = CARTESIAN_POINT ( 'NONE',  ( 0.000000000000000000, 0.000000000000000000, 0.000000000000000000 ) ) ;
#242 = ORIENTED_EDGE ( 'NONE', *, *, #33, .F. ) ;
#243 = DIRECTION ( 'NONE',  ( 0.000000000000000000, -0.7128052187752034197, -0.7013620463689451690 ) ) ;
#244 = ORIENTED_EDGE ( 'NONE', *, *, #213, .T. ) ;
#245 = DIRECTION ( 'NONE',  ( 1.000000000000000000, 0.000000000000000000, 0.000000000000000000 ) ) ;
#246 = EDGE_LOOP ( 'NONE', ( #66, #242, #181, #178 ) ) ;
#247 = VERTEX_POINT ( 'NONE', #36 ) ;
#248 = DIRECTION ( 'NONE',  ( 0.000000000000000000, -0.7128052187752034197, -0.7013620463689451690 ) ) ;
#249 = PRODUCT_DEFINITION_SHAPE ( 'NONE', 'NONE',  #278 ) ;
#250 = DIRECTION ( 'NONE',  ( 0.000000000000000000, 0.000000000000000000, -1.000000000000000000 ) ) ;
#251 = VECTOR ( 'NONE', #107, 1000.000000000000000 ) ;
#252 = CARTESIAN_POINT ( 'NONE',  ( 0.000000000000000000, 9.999999999999998224, 55.00000000000000711 ) ) ;
#253 = EDGE_CURVE ( 'NONE', #87, #34, #376, .T. ) ;
#254 = DIRECTION ( 'NONE',  ( 0.000000000000000000, -0.000000000000000000, -1.000000000000000000 ) ) ;
#255 = CARTESIAN_POINT ( 'NONE',  ( 15.00000000000000000, 20.00000000000000355, 14.75919426293088854 ) ) ;
#256 = CARTESIAN_POINT ( 'NONE',  ( 0.000000000000000000, 5.000000000000000888, 55.00000000000000711 ) ) ;
#257 = COLOUR_RGB ( '',0.7921568627450980005, 0.8196078431372548767, 0.9333333333333333481 ) ;
#258 = DIRECTION ( 'NONE',  ( 0.000000000000000000, 0.000000000000000000, -1.000000000000000000 ) ) ;
#259 = DIRECTION ( 'NONE',  ( -1.000000000000000000, 0.000000000000000000, -0.000000000000000000 ) ) ;
#260 = FACE_BOUND ( 'NONE', #138, .T. ) ;
#261 = EDGE_CURVE ( 'NONE', #2, #170, #315, .T. ) ;
#262 = FILL_AREA_STYLE ('',( #319 ) ) ;
#263 = DIRECTION ( 'NONE',  ( 1.000000000000000000, 0.000000000000000000, 0.000000000000000000 ) ) ;
#264 = EDGE_LOOP ( 'NONE', ( #56, #342, #62, #203, #6 ) ) ;
#265 = PLANE ( 'NONE',  #29 ) ;
#266 = ADVANCED_FACE ( 'NONE', ( #293 ), #139, .F. ) ;
#267 = MANIFOLD_SOLID_BREP ( 'Schnitt-Linear austragen2', #362 ) ;
#268 = EDGE_LOOP ( 'NONE', ( #121, #288, #364, #18 ) ) ;
#269 = ORIENTED_EDGE ( 'NONE', *, *, #130, .F. ) ;
#270 = FACE_OUTER_BOUND ( 'NONE', #8, .T. ) ;
#271 = CARTESIAN_POINT ( 'NONE',  ( 0.000000000000000000, 9.999999999999998224, 55.00000000000000711 ) ) ;
#272 = CARTESIAN_POINT ( 'NONE',  ( 0.000000000000000000, 0.000000000000000000, 80.00000000000000000 ) ) ;
#273 = VERTEX_POINT ( 'NONE', #354 ) ;
#274 = CARTESIAN_POINT ( 'NONE',  ( 0.000000000000000000, 10.00000000000000000, 70.00000000000000000 ) ) ;
#275 = ORIENTED_EDGE ( 'NONE', *, *, #290, .T. ) ;
#276 = VECTOR ( 'NONE', #245, 1000.000000000000000 ) ;
#277 = ORIENTED_EDGE ( 'NONE', *, *, #253, .F. ) ;
#278 = PRODUCT_DEFINITION ( 'UNKNOWN', '', #124, #377 ) ;
#279 = DIRECTION ( 'NONE',  ( -0.000000000000000000, -0.000000000000000000, -1.000000000000000000 ) ) ;
#280 = DIRECTION ( 'NONE',  ( -0.000000000000000000, -0.000000000000000000, -1.000000000000000000 ) ) ;
#281 = DIRECTION ( 'NONE',  ( 0.000000000000000000, 1.000000000000000000, 0.000000000000000000 ) ) ;
#282 = EDGE_CURVE ( 'NONE', #170, #292, #135, .T. ) ;
#283 = CARTESIAN_POINT ( 'NONE',  ( 0.000000000000000000, 0.000000000000000000, 80.00000000000000000 ) ) ;
#284 = CYLINDRICAL_SURFACE ( 'NONE', #381, 4.999999999999997335 ) ;
#285 = DIRECTION ( 'NONE',  ( 1.000000000000000000, -0.000000000000000000, -0.000000000000000000 ) ) ;
#286 = CIRCLE ( 'NONE', #323, 5.000000000000004441 ) ;
#287 = AXIS2_PLACEMENT_3D ( 'NONE', #24, #141, #35 ) ;
#288 = ORIENTED_EDGE ( 'NONE', *, *, #225, .F. ) ;
#289 =( LENGTH_UNIT ( ) NAMED_UNIT ( * ) SI_UNIT ( .MILLI., .METRE. ) );
#290 = EDGE_CURVE ( 'NONE', #185, #153, #187, .T. ) ;
#291 = FACE_OUTER_BOUND ( 'NONE', #302, .T. ) ;
#292 = VERTEX_POINT ( 'NONE', #255 ) ;
#293 = FACE_OUTER_BOUND ( 'NONE', #50, .T. ) ;
#294 = ORIENTED_EDGE ( 'NONE', *, *, #114, .T. ) ;
#295 = CARTESIAN_POINT ( 'NONE',  ( 0.000000000000000000, 0.000000000000000000, 80.00000000000000000 ) ) ;
#296 = AXIS2_PLACEMENT_3D ( 'NONE', #252, #183, #73 ) ;
#297 = ADVANCED_FACE ( 'NONE', ( #260, #378 ), #383, .F. ) ;
#298 =( GEOMETRIC_REPRESENTATION_CONTEXT ( 3 ) GLOBAL_UNCERTAINTY_ASSIGNED_CONTEXT ( ( #106 ) ) GLOBAL_UNIT_ASSIGNED_CONTEXT ( ( #289, #386, #19 ) ) REPRESENTATION_CONTEXT ( 'NONE', 'WORKASPACE' ) );
#299 = ORIENTED_EDGE ( 'NONE', *, *, #261, .T. ) ;
#300 = VERTEX_POINT ( 'NONE', #295 ) ;
#301 = PRODUCT_CONTEXT ( 'NONE', #127, 'mechanical' ) ;
#302 = EDGE_LOOP ( 'NONE', ( #336, #112, #23, #359 ) ) ;
#303 = AXIS2_PLACEMENT_3D ( 'NONE', #9, #382, #259 ) ;
#304 = ADVANCED_BREP_SHAPE_REPRESENTATION ( 'Rl4i', ( #267, #43 ), #338 ) ;
#305 = LINE ( 'NONE', #119, #219 ) ;
#306 = ORIENTED_EDGE ( 'NONE', *, *, #3, .T. ) ;
#307 = FACE_OUTER_BOUND ( 'NONE', #89, .T. ) ;
#308 = PLANE ( 'NONE',  #232 ) ;
#309 = ORIENTED_EDGE ( 'NONE', *, *, #120, .F. ) ;
#310 = VERTEX_POINT ( 'NONE', #235 ) ;
#311 = EDGE_CURVE ( 'NONE', #310, #185, #231, .T. ) ;
#312 = PRODUCT ( 'Rl4i', 'Rl4i', '', ( #301 ) ) ;
#313 = DIRECTION ( 'NONE',  ( 0.000000000000000000, 0.000000000000000000, -1.000000000000000000 ) ) ;
#314 = CARTESIAN_POINT ( 'NONE',  ( 15.00000000000000000, 0.000000000000000000, 80.00000000000000000 ) ) ;
#315 = LINE ( 'NONE', #195, #28 ) ;
#316 = CYLINDRICAL_SURFACE ( 'NONE', #348, 5.000000000000004441 ) ;
#317 = MECHANICAL_DESIGN_GEOMETRIC_PRESENTATION_REPRESENTATION (  '', ( #162 ), #298 ) ;
#318 = CARTESIAN_POINT ( 'NONE',  ( 0.000000000000000000, 20.00000000000000355, 80.00000000000000000 ) ) ;
#319 = FILL_AREA_STYLE_COLOUR ( '', #257 ) ;
#320 = CARTESIAN_POINT ( 'NONE',  ( -5.000000000000000888, 9.999999999999998224, 55.00000000000000711 ) ) ;
#321 = EDGE_CURVE ( 'NONE', #153, #343, #51, .T. ) ;
#322 = SURFACE_STYLE_FILL_AREA ( #262 ) ;
#323 = AXIS2_PLACEMENT_3D ( 'NONE', #274, #216, #5 ) ;
#324 = CARTESIAN_POINT ( 'NONE',  ( 15.00000000000000000, 20.00000000000000355, 80.00000000000000000 ) ) ;
#325 = VECTOR ( 'NONE', #280, 1000.000000000000000 ) ;
#326 = DIRECTION ( 'NONE',  ( -1.000000000000000000, 0.000000000000000000, 0.000000000000000000 ) ) ;
#327 = ORIENTED_EDGE ( 'NONE', *, *, #52, .F. ) ;
#328 = VECTOR ( 'NONE', #189, 1000.000000000000000 ) ;
#329 = CIRCLE ( 'NONE', #287, 5.000000000000004441 ) ;
#330 = ORIENTED_EDGE ( 'NONE', *, *, #160, .F. ) ;
#331 = VERTEX_POINT ( 'NONE', #357 ) ;
#332 = ORIENTED_EDGE ( 'NONE', *, *, #114, .F. ) ;
#333 = DIRECTION ( 'NONE',  ( 0.000000000000000000, 0.000000000000000000, -1.000000000000000000 ) ) ;
#334 = EDGE_CURVE ( 'NONE', #34, #185, #11, .T. ) ;
#335 = DIRECTION ( 'NONE',  ( 0.000000000000000000, 1.000000000000000000, 0.000000000000000000 ) ) ;
#336 = ORIENTED_EDGE ( 'NONE', *, *, #99, .T. ) ;
#337 = VECTOR ( 'NONE', #95, 1000.000000000000000 ) ;
#338 =( GEOMETRIC_REPRESENTATION_CONTEXT ( 3 ) GLOBAL_UNCERTAINTY_ASSIGNED_CONTEXT ( ( #20 ) ) GLOBAL_UNIT_ASSIGNED_CONTEXT ( ( #57, #151, #179 ) ) REPRESENTATION_CONTEXT ( 'NONE', 'WORKASPACE' ) );
#339 = PLANE ( 'NONE',  #72 ) ;
#340 = VERTEX_POINT ( 'NONE', #227 ) ;
#341 = LINE ( 'NONE', #283, #276 ) ;
#342 = ORIENTED_EDGE ( 'NONE', *, *, #200, .F. ) ;
#343 = VERTEX_POINT ( 'NONE', #389 ) ;
#344 = CIRCLE ( 'NONE', #167, 4.999999999999997335 ) ;
#345 = LINE ( 'NONE', #41, #212 ) ;
#346 = LINE ( 'NONE', #122, #174 ) ;
#347 = CARTESIAN_POINT ( 'NONE',  ( 0.000000000000000000, 5.000000000000002665, 0.000000000000000000 ) ) ;
#348 = AXIS2_PLACEMENT_3D ( 'NONE', #94, #190, #13 ) ;
#349 = CARTESIAN_POINT ( 'NONE',  ( 0.000000000000000000, 0.000000000000000000, 0.000000000000000000 ) ) ;
#350 = EDGE_CURVE ( 'NONE', #369, #2, #113, .T. ) ;
#351 = CARTESIAN_POINT ( 'NONE',  ( -5.000000000000000888, 9.999999999999998224, 50.00000000000000711 ) ) ;
#352 = LINE ( 'NONE', #76, #10 ) ;
#353 = ORIENTED_EDGE ( 'NONE', *, *, #290, .F. ) ;
#354 = CARTESIAN_POINT ( 'NONE',  ( 15.00000000000000000, 5.000000000000003553, 0.000000000000000000 ) ) ;
#355 = AXIS2_PLACEMENT_3D ( 'NONE', #38, #128, #248 ) ;
#356 = ORIENTED_EDGE ( 'NONE', *, *, #77, .T. ) ;
#357 = CARTESIAN_POINT ( 'NONE',  ( 15.00000000000000000, 5.000000000000000888, 70.00000000000000000 ) ) ;
#358 = ADVANCED_FACE ( 'NONE', ( #164 ), #284, .F. ) ;
#359 = ORIENTED_EDGE ( 'NONE', *, *, #82, .T. ) ;
#360 = CARTESIAN_POINT ( 'NONE',  ( 15.00000000000000000, 9.999999999999998224, 55.00000000000000711 ) ) ;
#361 = EDGE_LOOP ( 'NONE', ( #356, #136, #327, #367 ) ) ;
#362 = CLOSED_SHELL ( 'NONE', ( #109, #191, #126, #297, #238, #266, #96, #194, #144, #358, #380, #14 ) ) ;
#363 = ORIENTED_EDGE ( 'NONE', *, *, #177, .F. ) ;
#364 = ORIENTED_EDGE ( 'NONE', *, *, #99, .F. ) ;
#365 = DIRECTION ( 'NONE',  ( 0.000000000000000000, 0.000000000000000000, -1.000000000000000000 ) ) ;
#366 = PLANE ( 'NONE',  #48 ) ;
#367 = ORIENTED_EDGE ( 'NONE', *, *, #25, .F. ) ;
#368 = CARTESIAN_POINT ( 'NONE',  ( 15.00000000000000000, 0.000000000000000000, 0.000000000000000000 ) ) ;
#369 = VERTEX_POINT ( 'NONE', #182 ) ;
#370 = VECTOR ( 'NONE', #70, 1000.000000000000000 ) ;
#371 = DIRECTION ( 'NONE',  ( 0.000000000000000000, 0.000000000000000000, -1.000000000000000000 ) ) ;
#372 = LINE ( 'NONE', #218, #337 ) ;
#373 = LINE ( 'NONE', #147, #161 ) ;
#374 = LINE ( 'NONE', #133, #328 ) ;
#375 = CARTESIAN_POINT ( 'NONE',  ( 15.00000000000000000, 9.999999999999998224, 50.00000000000000711 ) ) ;
#376 = LINE ( 'NONE', #88, #102 ) ;
#377 = PRODUCT_DEFINITION_CONTEXT ( 'detailed design', #237, 'design' ) ;
#378 = FACE_OUTER_BOUND ( 'NONE', #264, .T. ) ;
#379 = AXIS2_PLACEMENT_3D ( 'NONE', #22, #104, #168 ) ;
#380 = ADVANCED_FACE ( 'NONE', ( #307 ), #265, .F. ) ;
#381 = AXIS2_PLACEMENT_3D ( 'NONE', #4, #59, #333 ) ;
#382 = DIRECTION ( 'NONE',  ( 0.000000000000000000, 0.000000000000000000, -1.000000000000000000 ) ) ;
#383 = PLANE ( 'NONE',  #220 ) ;
#384 = DIRECTION ( 'NONE',  ( 1.000000000000000000, -0.000000000000000000, -0.000000000000000000 ) ) ;
#385 = ORIENTED_EDGE ( 'NONE', *, *, #165, .F. ) ;
#386 =( NAMED_UNIT ( * ) PLANE_ANGLE_UNIT ( ) SI_UNIT ( $, .RADIAN. ) );
#387 = VECTOR ( 'NONE', #188, 1000.000000000000000 ) ;
#388 = ORIENTED_EDGE ( 'NONE', *, *, #350, .F. ) ;
#389 = CARTESIAN_POINT ( 'NONE',  ( 15.00000000000000000, 15.00000000000000000, 70.00000000000000000 ) ) ;
#390 = EDGE_LOOP ( 'NONE', ( #80, #115, #309, #363 ) ) ;
#391 = ORIENTED_EDGE ( 'NONE', *, *, #25, .T. ) ;
#392 = EDGE_CURVE ( 'NONE', #343, #331, #329, .T. ) ;
#393 = VECTOR ( 'NONE', #111, 1000.000000000000000 ) ;
#394 = LINE ( 'NONE', #163, #155 ) ;
#395 = VERTEX_POINT ( 'NONE', #31 ) ;
ENDSEC;
END-ISO-10303-21;
