# Blender 4.3.0
# www.blender.org
mtllib Model_0004.mtl
o Model_0004
v -7.720594 -7.720594 12.278708
v -7.720594 7.720595 12.278708
v -15.000000 -15.000000 -7.721292
v -15.000000 15.000000 -7.721292
v 7.720595 -7.720594 12.278708
v 15.000000 -15.000000 -7.721292
v 7.720595 7.720595 12.278708
v 15.000000 15.000000 -7.721292
v 0.694593 3.939231 12.278708
v 1.368081 3.758771 12.278708
v 2.000000 3.464102 12.278708
v -3.464102 -2.000000 12.278708
v -3.758770 -1.368080 12.278708
v -3.758770 1.368081 12.278708
v -3.464102 2.000000 12.278708
v 2.000000 -3.464102 12.278708
v 1.368081 -3.758770 12.278708
v -3.939230 -0.694592 12.278708
v -4.000000 0.000000 12.278708
v -3.939230 0.694593 12.278708
v -3.064177 2.571151 12.278708
v -2.571150 3.064178 12.278708
v -2.000000 3.464102 12.278708
v -1.368080 3.758771 12.278708
v -0.694592 3.939231 12.278708
v 0.000000 4.000001 12.278708
v 2.571151 3.064178 12.278708
v 3.064178 2.571151 12.278708
v 3.464102 2.000000 12.278708
v 0.694593 -3.939230 12.278708
v 0.000000 -4.000000 12.278708
v 3.758771 1.368081 12.278708
v 3.939231 0.694593 12.278708
v 4.000001 0.000000 12.278708
v 3.939231 -0.694592 12.278708
v 3.758771 -1.368080 12.278708
v 3.464102 -2.000000 12.278708
v -0.694592 -3.939230 12.278708
v -1.368080 -3.758770 12.278708
v -2.000000 -3.464102 12.278708
v 3.064178 -2.571150 12.278708
v 2.571151 -3.064177 12.278708
v -2.571150 -3.064177 12.278708
v -3.064177 -2.571150 12.278708
v -0.694592 3.939231 -7.721292
v 0.000000 4.000001 -7.721292
v 0.694593 3.939231 -7.721292
v 3.758771 1.368081 -7.721292
v 3.464102 2.000000 -7.721292
v 3.064178 2.571151 -7.721292
v 2.571151 3.064178 -7.721292
v -1.368080 3.758771 -7.721292
v -2.000000 3.464102 -7.721292
v -2.571150 3.064178 -7.721292
v 2.000000 3.464102 -7.721292
v 1.368081 3.758771 -7.721292
v -3.064177 2.571151 -7.721292
v -3.464102 2.000000 -7.721292
v -3.758770 1.368081 -7.721292
v -3.939230 0.694593 -7.721292
v -4.000000 0.000000 -7.721292
v -3.939230 -0.694592 -7.721292
v -3.758770 -1.368080 -7.721292
v -3.464102 -2.000000 -7.721292
v -3.064177 -2.571150 -7.721292
v -2.571150 -3.064177 -7.721292
v 0.694593 -3.939230 -7.721292
v 0.000000 -4.000000 -7.721292
v -0.694592 -3.939230 -7.721292
v 1.368081 -3.758770 -7.721292
v 2.000000 -3.464102 -7.721292
v 2.571151 -3.064177 -7.721292
v -2.000000 -3.464102 -7.721292
v -1.368080 -3.758770 -7.721292
v 3.064178 -2.571150 -7.721292
v 3.464102 -2.000000 -7.721292
v 3.758771 -1.368080 -7.721292
v 3.939231 -0.694592 -7.721292
v 4.000001 0.000000 -7.721292
v 3.939231 0.694593 -7.721292
vn -0.9397 -0.0000 0.3420
vn -0.0000 -0.9397 0.3420
vn 0.9397 -0.0000 0.3420
vn -0.0000 0.9397 0.3420
vn -0.0000 -0.0000 1.0000
vn -0.0000 -0.0000 -1.0000
vn 0.9962 0.0872 -0.0000
vn 0.9659 0.2588 -0.0000
vn 0.9063 0.4226 -0.0000
vn 0.8192 0.5736 -0.0000
vn 0.7071 0.7071 -0.0000
vn 0.5736 0.8192 -0.0000
vn 0.4226 0.9063 -0.0000
vn 0.2588 0.9659 -0.0000
vn 0.0872 0.9962 -0.0000
vn -0.0872 0.9962 -0.0000
vn -0.2588 0.9659 -0.0000
vn -0.4226 0.9063 -0.0000
vn -0.5736 0.8192 -0.0000
vn -0.7071 0.7071 -0.0000
vn -0.8192 0.5736 -0.0000
vn -0.9063 0.4226 -0.0000
vn -0.9659 0.2588 -0.0000
vn -0.9962 0.0872 -0.0000
vn -0.9962 -0.0872 -0.0000
vn -0.9659 -0.2588 -0.0000
vn -0.9063 -0.4226 -0.0000
vn -0.8192 -0.5736 -0.0000
vn -0.7071 -0.7071 -0.0000
vn -0.5736 -0.8192 -0.0000
vn -0.4226 -0.9063 -0.0000
vn -0.2588 -0.9659 -0.0000
vn -0.0872 -0.9962 -0.0000
vn 0.0872 -0.9962 -0.0000
vn 0.2588 -0.9659 -0.0000
vn 0.4226 -0.9063 -0.0000
vn 0.5736 -0.8192 -0.0000
vn 0.7071 -0.7071 -0.0000
vn 0.8192 -0.5736 -0.0000
vn 0.9063 -0.4226 -0.0000
vn 0.9659 -0.2588 -0.0000
vn 0.9962 -0.0872 -0.0000
s 0
f 1//1 2//1 3//1
f 3//1 2//1 4//1
f 5//2 1//2 6//2
f 6//2 1//2 3//2
f 7//3 5//3 8//3
f 8//3 5//3 6//3
f 2//4 7//4 4//4
f 4//4 7//4 8//4
f 9//5 10//5 7//5
f 7//5 10//5 11//5
f 12//5 13//5 1//5
f 2//5 14//5 15//5
f 16//5 17//5 5//5
f 13//5 18//5 1//5
f 1//5 18//5 19//5
f 1//5 19//5 2//5
f 2//5 19//5 20//5
f 2//5 20//5 14//5
f 15//5 21//5 2//5
f 2//5 21//5 22//5
f 2//5 22//5 23//5
f 23//5 24//5 2//5
f 2//5 24//5 25//5
f 2//5 25//5 7//5
f 7//5 25//5 26//5
f 7//5 26//5 9//5
f 11//5 27//5 7//5
f 7//5 27//5 28//5
f 7//5 28//5 29//5
f 17//5 30//5 5//5
f 5//5 30//5 31//5
f 5//5 31//5 1//5
f 29//5 32//5 7//5
f 7//5 32//5 33//5
f 7//5 33//5 5//5
f 5//5 33//5 34//5
f 34//5 35//5 5//5
f 5//5 35//5 36//5
f 5//5 36//5 37//5
f 31//5 38//5 1//5
f 1//5 38//5 39//5
f 1//5 39//5 40//5
f 37//5 41//5 5//5
f 5//5 41//5 42//5
f 5//5 42//5 16//5
f 40//5 43//5 1//5
f 1//5 43//5 44//5
f 1//5 44//5 12//5
f 45//6 4//6 46//6
f 46//6 4//6 8//6
f 46//6 8//6 47//6
f 48//6 49//6 8//6
f 8//6 49//6 50//6
f 8//6 50//6 51//6
f 45//6 52//6 4//6
f 4//6 52//6 53//6
f 4//6 53//6 54//6
f 51//6 55//6 8//6
f 8//6 55//6 56//6
f 8//6 56//6 47//6
f 54//6 57//6 4//6
f 4//6 57//6 58//6
f 4//6 58//6 59//6
f 59//6 60//6 4//6
f 4//6 60//6 61//6
f 4//6 61//6 3//6
f 3//6 61//6 62//6
f 3//6 62//6 63//6
f 63//6 64//6 3//6
f 3//6 64//6 65//6
f 3//6 65//6 66//6
f 67//6 6//6 68//6
f 68//6 6//6 3//6
f 68//6 3//6 69//6
f 67//6 70//6 6//6
f 6//6 70//6 71//6
f 6//6 71//6 72//6
f 66//6 73//6 3//6
f 3//6 73//6 74//6
f 3//6 74//6 69//6
f 72//6 75//6 6//6
f 6//6 75//6 76//6
f 6//6 76//6 77//6
f 77//6 78//6 6//6
f 6//6 78//6 79//6
f 6//6 79//6 8//6
f 8//6 79//6 80//6
f 8//6 80//6 48//6
f 61//7 19//7 62//7
f 62//7 19//7 18//7
f 62//8 18//8 63//8
f 63//8 18//8 13//8
f 63//9 13//9 64//9
f 64//9 13//9 12//9
f 64//10 12//10 65//10
f 65//10 12//10 44//10
f 65//11 44//11 66//11
f 66//11 44//11 43//11
f 66//12 43//12 73//12
f 73//12 43//12 40//12
f 73//13 40//13 74//13
f 74//13 40//13 39//13
f 74//14 39//14 69//14
f 69//14 39//14 38//14
f 69//15 38//15 68//15
f 68//15 38//15 31//15
f 68//16 31//16 67//16
f 67//16 31//16 30//16
f 67//17 30//17 70//17
f 70//17 30//17 17//17
f 70//18 17//18 71//18
f 71//18 17//18 16//18
f 71//19 16//19 72//19
f 72//19 16//19 42//19
f 72//20 42//20 75//20
f 75//20 42//20 41//20
f 75//21 41//21 76//21
f 76//21 41//21 37//21
f 76//22 37//22 77//22
f 77//22 37//22 36//22
f 77//23 36//23 78//23
f 78//23 36//23 35//23
f 78//24 35//24 79//24
f 79//24 35//24 34//24
f 79//25 34//25 80//25
f 80//25 34//25 33//25
f 80//26 33//26 48//26
f 48//26 33//26 32//26
f 48//27 32//27 49//27
f 49//27 32//27 29//27
f 49//28 29//28 50//28
f 50//28 29//28 28//28
f 50//29 28//29 51//29
f 51//29 28//29 27//29
f 51//30 27//30 55//30
f 55//30 27//30 11//30
f 55//31 11//31 56//31
f 56//31 11//31 10//31
f 56//32 10//32 47//32
f 47//32 10//32 9//32
f 47//33 9//33 46//33
f 46//33 9//33 26//33
f 46//34 26//34 45//34
f 45//34 26//34 25//34
f 45//35 25//35 52//35
f 52//35 25//35 24//35
f 52//36 24//36 53//36
f 53//36 24//36 23//36
f 53//37 23//37 54//37
f 54//37 23//37 22//37
f 54//38 22//38 57//38
f 57//38 22//38 21//38
f 57//39 21//39 58//39
f 58//39 21//39 15//39
f 58//40 15//40 59//40
f 59//40 15//40 14//40
f 59//41 14//41 60//41
f 60//41 14//41 20//41
f 60//42 20//42 61//42
f 61//42 20//42 19//42
