# Blender 4.3.0
# www.blender.org
mtllib Model_0005.mtl
o Model_0005
v 21.835712 10.000000 2.724644
v 21.835712 -10.000000 2.724644
v 21.835712 10.000000 -3.275356
v 21.835712 -10.000000 -3.275356
v -18.164288 10.000000 2.724644
v -18.164288 10.000000 -3.275356
v -18.164288 -10.000000 2.724644
v -18.164288 -10.000000 -3.275356
v 19.798779 5.469304 -3.275356
v 19.688881 5.927051 -3.275356
v 17.762764 7.853170 -3.275356
v 17.305016 7.963065 -3.275356
v 19.508732 6.361972 -3.275356
v 19.262764 6.763356 -3.275356
v 18.957033 7.121321 -3.275356
v 19.508732 -6.361971 -3.275356
v 19.688881 -5.927051 -3.275356
v 18.599068 7.427052 -3.275356
v 18.197685 7.673020 -3.275356
v 5.908662 7.853170 -3.275356
v 5.473742 7.673020 -3.275356
v 5.072357 7.427052 -3.275356
v 4.714392 7.121321 -3.275356
v 19.798779 -5.469303 -3.275356
v 19.835712 -5.000000 -3.275356
v 19.835712 5.000000 -3.275356
v 16.835712 8.000001 -3.275356
v 6.835712 8.000001 -3.275356
v 6.366409 7.963065 -3.275356
v 4.714392 -7.121321 -3.275356
v 5.072357 -7.427052 -3.275356
v 5.473742 -7.673019 -3.275356
v 5.908662 -7.853170 -3.275356
v 17.305016 -7.963064 -3.275356
v 17.762764 -7.853170 -3.275356
v 18.197685 -7.673019 -3.275356
v 18.599068 -7.427052 -3.275356
v 18.957033 -7.121321 -3.275356
v 19.262764 -6.763355 -3.275356
v 6.366409 -7.963064 -3.275356
v 6.835712 -8.000000 -3.275356
v 16.835712 -8.000000 -3.275356
v 3.872648 -5.469303 -3.275356
v 3.982544 -5.927051 -3.275356
v 4.408663 6.763356 -3.275356
v 4.162693 6.361972 -3.275356
v 3.982544 5.927051 -3.275356
v 4.162693 -6.361971 -3.275356
v 4.408663 -6.763355 -3.275356
v 3.872648 5.469304 -3.275356
v 3.835712 5.000000 -3.275356
v 3.835712 -5.000000 -3.275356
v 3.835712 5.000000 -0.275356
v 3.872648 5.469304 -0.275356
v 3.982544 5.927051 -0.275356
v 4.162693 6.361972 -0.275356
v 4.408663 6.763356 -0.275356
v 4.714392 7.121321 -0.275356
v 5.072357 7.427052 -0.275356
v 5.473742 7.673020 -0.275356
v 5.908662 7.853170 -0.275356
v 6.366409 7.963065 -0.275356
v 6.835712 8.000001 -0.275356
v 3.835712 -5.000000 -0.275356
v 6.835712 -8.000000 -0.275356
v 6.366409 -7.963064 -0.275356
v 5.908662 -7.853170 -0.275356
v 5.473742 -7.673019 -0.275356
v 5.072357 -7.427052 -0.275356
v 4.714392 -7.121321 -0.275356
v 4.408663 -6.763355 -0.275356
v 4.162693 -6.361971 -0.275356
v 3.982544 -5.927051 -0.275356
v 3.872648 -5.469303 -0.275356
v 16.835712 -8.000000 -0.275356
v 19.835712 -5.000000 -0.275356
v 19.798779 -5.469303 -0.275356
v 19.688881 -5.927051 -0.275356
v 19.508732 -6.361971 -0.275356
v 19.262764 -6.763355 -0.275356
v 18.957033 -7.121321 -0.275356
v 18.599068 -7.427052 -0.275356
v 18.197685 -7.673019 -0.275356
v 17.762764 -7.853170 -0.275356
v 17.305016 -7.963064 -0.275356
v 19.835712 5.000000 -0.275356
v 16.835712 8.000001 -0.275356
v 17.305016 7.963065 -0.275356
v 17.762764 7.853170 -0.275356
v 18.197685 7.673020 -0.275356
v 18.599068 7.427052 -0.275356
v 18.957033 7.121321 -0.275356
v 19.262764 6.763356 -0.275356
v 19.508732 6.361972 -0.275356
v 19.688881 5.927051 -0.275356
v 19.798779 5.469304 -0.275356
vn 1.0000 -0.0000 -0.0000
vn -0.0000 1.0000 -0.0000
vn -1.0000 -0.0000 -0.0000
vn -0.0000 -1.0000 -0.0000
vn -0.0000 -0.0000 1.0000
vn -0.0000 -0.0000 -1.0000
vn 0.9969 -0.0785 -0.0000
vn 0.9724 -0.2334 -0.0000
vn 0.9239 -0.3827 -0.0000
vn 0.8526 -0.5225 -0.0000
vn 0.7604 -0.6494 -0.0000
vn 0.6494 -0.7604 -0.0000
vn 0.5225 -0.8526 -0.0000
vn 0.3827 -0.9239 -0.0000
vn 0.2334 -0.9724 -0.0000
vn 0.0785 -0.9969 -0.0000
vn 0.0785 0.9969 -0.0000
vn 0.2334 0.9724 -0.0000
vn 0.3827 0.9239 -0.0000
vn 0.5225 0.8526 -0.0000
vn 0.6494 0.7604 -0.0000
vn 0.7604 0.6494 -0.0000
vn 0.8526 0.5225 -0.0000
vn 0.9239 0.3827 -0.0000
vn 0.9724 0.2334 -0.0000
vn 0.9969 0.0785 -0.0000
vn -0.9969 0.0785 -0.0000
vn -0.9724 0.2334 -0.0000
vn -0.9724 0.2335 -0.0000
vn -0.9239 0.3827 -0.0000
vn -0.8526 0.5225 -0.0000
vn -0.7604 0.6494 -0.0000
vn -0.6494 0.7604 -0.0000
vn -0.5225 0.8526 -0.0000
vn -0.3827 0.9239 -0.0000
vn -0.2334 0.9724 -0.0000
vn -0.0785 0.9969 -0.0000
vn -0.0785 -0.9969 -0.0000
vn -0.2334 -0.9724 -0.0000
vn -0.3827 -0.9239 -0.0000
vn -0.5225 -0.8526 -0.0000
vn -0.6494 -0.7604 -0.0000
vn -0.7604 -0.6494 -0.0000
vn -0.7604 -0.6495 -0.0000
vn -0.8526 -0.5225 -0.0000
vn -0.9239 -0.3827 -0.0000
vn -0.9724 -0.2335 -0.0000
vn -0.9724 -0.2334 -0.0000
vn -0.9969 -0.0785 -0.0000
s 0
f 1//1 2//1 3//1
f 3//1 2//1 4//1
f 5//2 1//2 6//2
f 6//2 1//2 3//2
f 7//3 5//3 8//3
f 8//3 5//3 6//3
f 2//4 7//4 4//4
f 4//4 7//4 8//4
f 5//5 7//5 1//5
f 1//5 7//5 2//5
f 9//6 10//6 3//6
f 11//6 12//6 3//6
f 10//6 13//6 3//6
f 3//6 13//6 14//6
f 3//6 14//6 15//6
f 4//6 16//6 17//6
f 15//6 18//6 3//6
f 3//6 18//6 19//6
f 3//6 19//6 11//6
f 20//6 21//6 6//6
f 6//6 21//6 22//6
f 6//6 22//6 23//6
f 17//6 24//6 4//6
f 4//6 24//6 25//6
f 4//6 25//6 3//6
f 3//6 25//6 26//6
f 3//6 26//6 9//6
f 12//6 27//6 3//6
f 3//6 27//6 28//6
f 3//6 28//6 6//6
f 6//6 28//6 29//6
f 6//6 29//6 20//6
f 30//6 31//6 8//6
f 8//6 31//6 32//6
f 8//6 32//6 33//6
f 34//6 35//6 4//6
f 4//6 35//6 36//6
f 4//6 36//6 37//6
f 37//6 38//6 4//6
f 4//6 38//6 39//6
f 4//6 39//6 16//6
f 33//6 40//6 8//6
f 8//6 40//6 41//6
f 8//6 41//6 4//6
f 4//6 41//6 42//6
f 4//6 42//6 34//6
f 8//6 43//6 44//6
f 23//6 45//6 6//6
f 6//6 45//6 46//6
f 6//6 46//6 47//6
f 44//6 48//6 8//6
f 8//6 48//6 49//6
f 8//6 49//6 30//6
f 47//6 50//6 6//6
f 6//6 50//6 51//6
f 6//6 51//6 8//6
f 8//6 51//6 52//6
f 8//6 52//6 43//6
f 53//7 51//7 54//7
f 54//7 51//7 50//7
f 54//8 50//8 55//8
f 55//8 50//8 47//8
f 55//9 47//9 56//9
f 56//9 47//9 46//9
f 56//10 46//10 57//10
f 57//10 46//10 45//10
f 57//11 45//11 58//11
f 58//11 45//11 23//11
f 58//12 23//12 59//12
f 59//12 23//12 22//12
f 59//13 22//13 60//13
f 60//13 22//13 21//13
f 60//14 21//14 61//14
f 61//14 21//14 20//14
f 61//15 20//15 62//15
f 62//15 20//15 29//15
f 62//16 29//16 63//16
f 63//16 29//16 28//16
f 53//1 64//1 51//1
f 51//1 64//1 52//1
f 65//17 41//17 66//17
f 66//17 41//17 40//17
f 66//18 40//18 67//18
f 67//18 40//18 33//18
f 67//19 33//19 68//19
f 68//19 33//19 32//19
f 68//20 32//20 69//20
f 69//20 32//20 31//20
f 69//21 31//21 70//21
f 70//21 31//21 30//21
f 70//22 30//22 71//22
f 71//22 30//22 49//22
f 71//23 49//23 72//23
f 72//23 49//23 48//23
f 72//24 48//24 73//24
f 73//24 48//24 44//24
f 73//25 44//25 74//25
f 74//25 44//25 43//25
f 74//26 43//26 64//26
f 64//26 43//26 52//26
f 65//2 75//2 41//2
f 41//2 75//2 42//2
f 76//27 25//27 77//27
f 77//27 25//27 24//27
f 77//28 24//28 78//28
f 78//29 24//29 17//29
f 78//30 17//30 79//30
f 79//30 17//30 16//30
f 79//31 16//31 80//31
f 80//31 16//31 39//31
f 80//32 39//32 81//32
f 81//32 39//32 38//32
f 81//33 38//33 82//33
f 82//33 38//33 37//33
f 82//34 37//34 83//34
f 83//34 37//34 36//34
f 83//35 36//35 84//35
f 84//35 36//35 35//35
f 84//36 35//36 85//36
f 85//36 35//36 34//36
f 85//37 34//37 75//37
f 75//37 34//37 42//37
f 76//3 86//3 25//3
f 25//3 86//3 26//3
f 87//38 27//38 88//38
f 88//38 27//38 12//38
f 88//39 12//39 89//39
f 89//39 12//39 11//39
f 89//40 11//40 90//40
f 90//40 11//40 19//40
f 90//41 19//41 91//41
f 91//41 19//41 18//41
f 91//42 18//42 92//42
f 92//42 18//42 15//42
f 92//43 15//43 93//43
f 93//44 15//44 14//44
f 93//45 14//45 94//45
f 94//45 14//45 13//45
f 94//46 13//46 95//46
f 95//46 13//46 10//46
f 95//47 10//47 96//47
f 96//48 10//48 9//48
f 96//49 9//49 86//49
f 86//49 9//49 26//49
f 87//4 63//4 27//4
f 27//4 63//4 28//4
f 53//6 87//6 64//6
f 64//6 87//6 75//6
f 64//6 75//6 65//6
f 95//6 96//6 87//6
f 87//6 96//6 86//6
f 87//6 86//6 75//6
f 75//6 86//6 76//6
f 75//6 76//6 85//6
f 87//6 91//6 92//6
f 65//6 66//6 64//6
f 64//6 66//6 67//6
f 64//6 67//6 68//6
f 88//6 89//6 87//6
f 87//6 89//6 90//6
f 87//6 90//6 91//6
f 92//6 93//6 87//6
f 87//6 93//6 94//6
f 87//6 94//6 95//6
f 73//6 70//6 72//6
f 72//6 70//6 71//6
f 68//6 69//6 64//6
f 64//6 69//6 70//6
f 64//6 70//6 74//6
f 74//6 70//6 73//6
f 59//6 54//6 55//6
f 54//6 59//6 53//6
f 53//6 59//6 60//6
f 53//6 60//6 61//6
f 61//6 62//6 53//6
f 53//6 62//6 63//6
f 53//6 63//6 87//6
f 78//6 79//6 80//6
f 55//6 56//6 59//6
f 59//6 56//6 57//6
f 59//6 57//6 58//6
f 80//6 81//6 78//6
f 78//6 81//6 82//6
f 78//6 82//6 77//6
f 77//6 82//6 83//6
f 77//6 83//6 76//6
f 76//6 83//6 84//6
f 76//6 84//6 85//6
