# Blender 4.3.0
# www.blender.org
mtllib Teil_4.mtl
o Teil_4
v -22.720594 -22.720594 20.000000
v -22.720594 -7.279405 20.000000
v -30.000000 -30.000000 0.000000
v -30.000000 0.000000 0.000000
v -7.279405 -22.720594 20.000000
v 0.000000 -30.000000 0.000000
v -7.279405 -7.279405 20.000000
v 0.000000 0.000000 0.000000
v -14.305407 -11.060769 20.000000
v -13.631919 -11.241229 20.000000
v -13.000000 -11.535898 20.000000
v -18.464102 -17.000000 20.000000
v -18.758770 -16.368080 20.000000
v -18.758770 -13.631919 20.000000
v -18.464102 -13.000000 20.000000
v -13.000000 -18.464102 20.000000
v -13.631919 -18.758770 20.000000
v -18.939230 -15.694592 20.000000
v -19.000000 -15.000000 20.000000
v -18.939230 -14.305407 20.000000
v -18.064177 -12.428849 20.000000
v -17.571150 -11.935822 20.000000
v -17.000000 -11.535898 20.000000
v -16.368080 -11.241229 20.000000
v -15.694592 -11.060769 20.000000
v -15.000000 -10.999999 20.000000
v -12.428849 -11.935822 20.000000
v -11.935822 -12.428849 20.000000
v -11.535898 -13.000000 20.000000
v -14.305407 -18.939230 20.000000
v -15.000000 -19.000000 20.000000
v -11.241229 -13.631919 20.000000
v -11.060769 -14.305407 20.000000
v -10.999999 -15.000000 20.000000
v -11.060769 -15.694592 20.000000
v -11.241229 -16.368080 20.000000
v -11.535898 -17.000000 20.000000
v -15.694592 -18.939230 20.000000
v -16.368080 -18.758770 20.000000
v -17.000000 -18.464102 20.000000
v -11.935822 -17.571150 20.000000
v -12.428849 -18.064177 20.000000
v -17.571150 -18.064177 20.000000
v -18.064177 -17.571150 20.000000
v -15.694592 -11.060769 0.000000
v -15.000000 -10.999999 0.000000
v -14.305407 -11.060769 0.000000
v -11.241229 -13.631919 0.000000
v -11.535898 -13.000000 0.000000
v -11.935822 -12.428849 0.000000
v -12.428849 -11.935822 0.000000
v -16.368080 -11.241229 0.000000
v -17.000000 -11.535898 0.000000
v -17.571150 -11.935822 0.000000
v -13.000000 -11.535898 0.000000
v -13.631919 -11.241229 0.000000
v -18.064177 -12.428849 0.000000
v -18.464102 -13.000000 0.000000
v -18.758770 -13.631919 0.000000
v -18.939230 -14.305407 0.000000
v -19.000000 -15.000000 0.000000
v -18.939230 -15.694592 0.000000
v -18.758770 -16.368080 0.000000
v -18.464102 -17.000000 0.000000
v -18.064177 -17.571150 0.000000
v -17.571150 -18.064177 0.000000
v -14.305407 -18.939230 0.000000
v -15.000000 -19.000000 0.000000
v -15.694592 -18.939230 0.000000
v -13.631919 -18.758770 0.000000
v -13.000000 -18.464102 0.000000
v -12.428849 -18.064177 0.000000
v -17.000000 -18.464102 0.000000
v -16.368080 -18.758770 0.000000
v -11.935822 -17.571150 0.000000
v -11.535898 -17.000000 0.000000
v -11.241229 -16.368080 0.000000
v -11.060769 -15.694592 0.000000
v -10.999999 -15.000000 0.000000
v -11.060769 -14.305407 0.000000
vn -0.9397 -0.0000 0.3420
vn -0.0000 -0.9397 0.3420
vn 0.9397 -0.0000 0.3420
vn -0.0000 0.9397 0.3420
vn -0.0000 -0.0000 1.0000
vn -0.0000 -0.0000 -1.0000
vn 0.9962 0.0872 -0.0000
vn 0.9659 0.2588 -0.0000
vn 0.9063 0.4226 -0.0000
vn 0.8191 0.5736 -0.0000
vn 0.8192 0.5736 -0.0000
vn 0.7071 0.7071 -0.0000
vn 0.5736 0.8192 -0.0000
vn 0.4226 0.9063 -0.0000
vn 0.2588 0.9659 -0.0000
vn 0.0872 0.9962 -0.0000
vn -0.0872 0.9962 -0.0000
vn -0.2588 0.9659 -0.0000
vn -0.4226 0.9063 -0.0000
vn -0.5736 0.8192 -0.0000
vn -0.7071 0.7071 -0.0000
vn -0.8192 0.5736 -0.0000
vn -0.9063 0.4226 -0.0000
vn -0.9659 0.2588 -0.0000
vn -0.9962 0.0872 -0.0000
vn -0.9962 -0.0872 -0.0000
vn -0.9659 -0.2588 -0.0000
vn -0.9063 -0.4226 -0.0000
vn -0.8192 -0.5736 -0.0000
vn -0.7071 -0.7071 -0.0000
vn -0.5736 -0.8192 -0.0000
vn -0.4226 -0.9063 -0.0000
vn -0.2588 -0.9659 -0.0000
vn -0.0872 -0.9962 -0.0000
vn 0.0872 -0.9962 -0.0000
vn 0.2588 -0.9659 -0.0000
vn 0.4226 -0.9063 -0.0000
vn 0.5736 -0.8192 -0.0000
vn 0.7071 -0.7071 -0.0000
vn 0.8192 -0.5736 -0.0000
vn 0.9063 -0.4226 -0.0000
vn 0.9659 -0.2588 -0.0000
vn 0.9962 -0.0872 -0.0000
s 0
f 1//1 2//1 3//1
f 3//1 2//1 4//1
f 5//2 1//2 6//2
f 6//2 1//2 3//2
f 7//3 5//3 8//3
f 8//3 5//3 6//3
f 2//4 7//4 4//4
f 4//4 7//4 8//4
f 9//5 10//5 7//5
f 7//5 10//5 11//5
f 12//5 13//5 1//5
f 2//5 14//5 15//5
f 16//5 17//5 5//5
f 13//5 18//5 1//5
f 1//5 18//5 19//5
f 1//5 19//5 2//5
f 2//5 19//5 20//5
f 2//5 20//5 14//5
f 15//5 21//5 2//5
f 2//5 21//5 22//5
f 2//5 22//5 23//5
f 23//5 24//5 2//5
f 2//5 24//5 25//5
f 2//5 25//5 7//5
f 7//5 25//5 26//5
f 7//5 26//5 9//5
f 11//5 27//5 7//5
f 7//5 27//5 28//5
f 7//5 28//5 29//5
f 17//5 30//5 5//5
f 5//5 30//5 31//5
f 5//5 31//5 1//5
f 29//5 32//5 7//5
f 7//5 32//5 33//5
f 7//5 33//5 5//5
f 5//5 33//5 34//5
f 34//5 35//5 5//5
f 5//5 35//5 36//5
f 5//5 36//5 37//5
f 31//5 38//5 1//5
f 1//5 38//5 39//5
f 1//5 39//5 40//5
f 37//5 41//5 5//5
f 5//5 41//5 42//5
f 5//5 42//5 16//5
f 40//5 43//5 1//5
f 1//5 43//5 44//5
f 1//5 44//5 12//5
f 45//6 4//6 46//6
f 46//6 4//6 8//6
f 46//6 8//6 47//6
f 48//6 49//6 8//6
f 8//6 49//6 50//6
f 8//6 50//6 51//6
f 45//6 52//6 4//6
f 4//6 52//6 53//6
f 4//6 53//6 54//6
f 51//6 55//6 8//6
f 8//6 55//6 56//6
f 8//6 56//6 47//6
f 54//6 57//6 4//6
f 4//6 57//6 58//6
f 4//6 58//6 59//6
f 59//6 60//6 4//6
f 4//6 60//6 61//6
f 4//6 61//6 3//6
f 3//6 61//6 62//6
f 3//6 62//6 63//6
f 63//6 64//6 3//6
f 3//6 64//6 65//6
f 3//6 65//6 66//6
f 67//6 6//6 68//6
f 68//6 6//6 3//6
f 68//6 3//6 69//6
f 67//6 70//6 6//6
f 6//6 70//6 71//6
f 6//6 71//6 72//6
f 66//6 73//6 3//6
f 3//6 73//6 74//6
f 3//6 74//6 69//6
f 72//6 75//6 6//6
f 6//6 75//6 76//6
f 6//6 76//6 77//6
f 77//6 78//6 6//6
f 6//6 78//6 79//6
f 6//6 79//6 8//6
f 8//6 79//6 80//6
f 8//6 80//6 48//6
f 61//7 19//7 62//7
f 62//7 19//7 18//7
f 62//8 18//8 63//8
f 63//8 18//8 13//8
f 63//9 13//9 64//9
f 64//9 13//9 12//9
f 64//10 12//10 65//10
f 65//11 12//11 44//11
f 65//12 44//12 66//12
f 66//12 44//12 43//12
f 66//13 43//13 73//13
f 73//13 43//13 40//13
f 73//14 40//14 74//14
f 74//14 40//14 39//14
f 74//15 39//15 69//15
f 69//15 39//15 38//15
f 69//16 38//16 68//16
f 68//16 38//16 31//16
f 68//17 31//17 67//17
f 67//17 31//17 30//17
f 67//18 30//18 70//18
f 70//18 30//18 17//18
f 70//19 17//19 71//19
f 71//19 17//19 16//19
f 71//20 16//20 72//20
f 72//20 16//20 42//20
f 72//21 42//21 75//21
f 75//21 42//21 41//21
f 75//22 41//22 76//22
f 76//22 41//22 37//22
f 76//23 37//23 77//23
f 77//23 37//23 36//23
f 77//24 36//24 78//24
f 78//24 36//24 35//24
f 78//25 35//25 79//25
f 79//25 35//25 34//25
f 79//26 34//26 80//26
f 80//26 34//26 33//26
f 80//27 33//27 48//27
f 48//27 33//27 32//27
f 48//28 32//28 49//28
f 49//28 32//28 29//28
f 49//29 29//29 50//29
f 50//29 29//29 28//29
f 50//30 28//30 51//30
f 51//30 28//30 27//30
f 51//31 27//31 55//31
f 55//31 27//31 11//31
f 55//32 11//32 56//32
f 56//32 11//32 10//32
f 56//33 10//33 47//33
f 47//33 10//33 9//33
f 47//34 9//34 46//34
f 46//34 9//34 26//34
f 46//35 26//35 45//35
f 45//35 26//35 25//35
f 45//36 25//36 52//36
f 52//36 25//36 24//36
f 52//37 24//37 53//37
f 53//37 24//37 23//37
f 53//38 23//38 54//38
f 54//38 23//38 22//38
f 54//39 22//39 57//39
f 57//39 22//39 21//39
f 57//40 21//40 58//40
f 58//40 21//40 15//40
f 58//41 15//41 59//41
f 59//41 15//41 14//41
f 59//42 14//42 60//42
f 60//42 14//42 20//42
f 60//43 20//43 61//43
f 61//43 20//43 19//43
